<svg xmlns="http://www.w3.org/2000/svg" width="99.077" height="99.077" viewBox="0 0 99.077 99.077">
  <g id="Grupo_56602" data-name="Grupo 56602" transform="translate(-72.77 -4858.293)">
    <circle id="Elipse_4124" data-name="Elipse 4124" cx="49.538" cy="49.538" r="49.538" transform="translate(72.77 4858.293)" fill="#ef7e93" opacity="0.36"/>
    <path id="Trazado_105672" data-name="Trazado 105672" d="M170.084,4955.608l-2.477-19.661a41.818,41.818,0,0,0,4.8-19.041,41.1,41.1,0,1,0-41.179,40.869,39.06,39.06,0,0,0,19.042-4.8Z" transform="translate(-9.694 -9.694)" fill="#ce4761"/>
    <path id="Trazado_105673" data-name="Trazado 105673" d="M129.289,4957.385a42.572,42.572,0,1,1,42.572-42.572,41.962,41.962,0,0,1-4.644,19.351l2.322,19.2a1.6,1.6,0,0,1-1.7,1.7l-19.2-2.322A41.5,41.5,0,0,1,129.289,4957.385Zm0-82.048a39.476,39.476,0,0,0,0,78.952,40.452,40.452,0,0,0,18.422-4.489,1.964,1.964,0,0,1,.929-.155l17.648,2.167-2.168-17.648a1.961,1.961,0,0,1,.155-.929,39.587,39.587,0,0,0-34.986-57.9Z" transform="translate(-7.755 -7.755)" fill="#124c64"/>
    <path id="Trazado_105674" data-name="Trazado 105674" d="M138.982,4959.338a34.832,34.832,0,1,1,34.832-34.832c0,8.515-2.786,13.933-4.954,17.958l1.7,13.623-13.623-1.7A34.582,34.582,0,0,1,138.982,4959.338Z" transform="translate(-17.448 -17.448)" fill="#fff"/>
    <g id="Grupo_56600" data-name="Grupo 56600" transform="translate(117.045 4881.979)">
      <path id="Trazado_105675" data-name="Trazado 105675" d="M172.492,4911.642v27.091l2.322,9.134h4.18l2.477-9.134v-27.091Z" transform="translate(-172.492 -4911.642)" fill="#ea526f"/>
      <rect id="Rectángulo_5623" data-name="Rectángulo 5623" width="8.979" height="8.979" transform="translate(0 41.179)" fill="#ea526f"/>
    </g>
    <g id="Grupo_56601" data-name="Grupo 56601" transform="translate(99.861 4894.363)">
      <rect id="Rectángulo_5624" data-name="Rectángulo 5624" width="3.096" height="3.096" transform="translate(0 0)" fill="#183651"/>
      <rect id="Rectángulo_5625" data-name="Rectángulo 5625" width="3.096" height="3.096" transform="translate(0 11.146)" fill="#183651"/>
      <rect id="Rectángulo_5626" data-name="Rectángulo 5626" width="3.096" height="3.096" transform="translate(0 22.292)" fill="#183651"/>
      <rect id="Rectángulo_5627" data-name="Rectángulo 5627" width="3.096" height="3.096" transform="translate(40.25 0)" fill="#183651"/>
      <rect id="Rectángulo_5628" data-name="Rectángulo 5628" width="3.096" height="3.096" transform="translate(40.25 11.146)" fill="#183651"/>
      <rect id="Rectángulo_5629" data-name="Rectángulo 5629" width="3.096" height="3.096" transform="translate(40.25 22.292)" fill="#183651"/>
    </g>
  </g>
</svg>
