<svg xmlns="http://www.w3.org/2000/svg" width="258" height="183.466" viewBox="0 0 258 183.466">
  <g id="Grupo_56532" data-name="Grupo 56532" transform="translate(-88.342 -4507.374)">
    <g id="Grupo_56533" data-name="Grupo 56533" transform="translate(96.054 4516.771)">
      <path id="Trazado_105526" data-name="Trazado 105526" d="M146.427,4694.7H325.233c21.919-17.251,35.72-68.8,11.366-113.048s-85.445-56.828-115.889-24.354-39.983,21.513-78.545,29.632S66.867,4684.758,146.427,4694.7Z" transform="translate(-99.197 -4525.945)" fill="#ffcd91"/>
      <path id="Trazado_105527" data-name="Trazado 105527" d="M169.44,4548.454c-9.694,26.046,40.592,23.34,60.075,0S187.6,4499.642,169.44,4548.454Z" transform="translate(-119.178 -4520.6)" fill="#ffcd91"/>
    </g>
    <g id="Grupo_56541" data-name="Grupo 56541" transform="translate(291.042 4593.076)">
      <g id="Grupo_56534" data-name="Grupo 56534" transform="translate(0 0)">
        <path id="Trazado_105528" data-name="Trazado 105528" d="M392.732,4666.184c-.158,0-.316,0-.473-.006a.206.206,0,0,1-.2-.211.212.212,0,0,1,.211-.2,18.91,18.91,0,0,0,2.445-.1.206.206,0,1,1,.043.411A19.394,19.394,0,0,1,392.732,4666.184Zm-2.931-.226a.176.176,0,0,1-.032,0,18.964,18.964,0,0,1-2.439-.546.206.206,0,0,1,.117-.4,18.668,18.668,0,0,0,2.387.535.206.206,0,0,1-.032.41Zm7.371-.3a.206.206,0,0,1-.048-.406,18.853,18.853,0,0,0,2.334-.729.206.206,0,0,1,.149.385,19.034,19.034,0,0,1-2.386.743A.185.185,0,0,1,397.172,4665.659Zm-12.106-1.1a.2.2,0,0,1-.083-.018,19.2,19.2,0,0,1-2.214-1.164.206.206,0,1,1,.216-.352,18.7,18.7,0,0,0,2.165,1.138.206.206,0,0,1-.084.4Zm16.709-.68a.206.206,0,0,1-.1-.388,18.9,18.9,0,0,0,2.065-1.31.206.206,0,1,1,.244.333,19.388,19.388,0,0,1-2.111,1.339A.212.212,0,0,1,401.774,4663.883Zm-20.917-1.9a.205.205,0,0,1-.13-.046,19.159,19.159,0,0,1-1.837-1.7.207.207,0,0,1,.3-.284,18.558,18.558,0,0,0,1.8,1.66.206.206,0,0,1-.13.367Zm24.9-1.013a.206.206,0,0,1-.142-.355,18.779,18.779,0,0,0,1.658-1.8.206.206,0,0,1,.321.259,19.352,19.352,0,0,1-1.694,1.839A.209.209,0,0,1,405.759,4660.971Zm-28.3-2.564a.207.207,0,0,1-.167-.084,19.08,19.08,0,0,1-1.336-2.112.206.206,0,0,1,.362-.2,18.713,18.713,0,0,0,1.308,2.066.207.207,0,0,1-.045.289A.211.211,0,0,1,377.457,4658.407Zm31.4-1.276a.2.2,0,0,1-.107-.03.207.207,0,0,1-.069-.284,18.707,18.707,0,0,0,1.136-2.167.206.206,0,0,1,.377.167,19.221,19.221,0,0,1-1.161,2.214A.207.207,0,0,1,408.86,4657.13Zm-33.762-3.055a.205.205,0,0,1-.193-.132,19.057,19.057,0,0,1-.742-2.388.206.206,0,0,1,.4-.1,18.62,18.62,0,0,0,.725,2.336.206.206,0,0,1-.119.267A.215.215,0,0,1,375.1,4654.076Zm-1.151-4.8a.207.207,0,0,1-.2-.186,19.36,19.36,0,0,1-.1-2c0-.166,0-.332.006-.5a.206.206,0,1,1,.412.011c0,.161-.006.323-.006.485a18.932,18.932,0,0,0,.1,1.958.206.206,0,0,1-.184.226Zm.128-4.934a.189.189,0,0,1-.033,0,.206.206,0,0,1-.171-.236,18.922,18.922,0,0,1,.549-2.439.206.206,0,0,1,.4.117,18.615,18.615,0,0,0-.538,2.386A.206.206,0,0,1,374.075,4644.344Zm1.4-4.734a.21.21,0,0,1-.084-.017.206.206,0,0,1-.1-.272,19.131,19.131,0,0,1,1.167-2.212.206.206,0,0,1,.352.216,18.8,18.8,0,0,0-1.142,2.165A.205.205,0,0,1,375.475,4639.61Zm33.876-1.293a.206.206,0,0,1-.181-.108,18.821,18.821,0,0,0-1.3-2.069.206.206,0,1,1,.334-.243,19.145,19.145,0,0,1,1.331,2.116.206.206,0,0,1-.083.28A.214.214,0,0,1,409.351,4638.317Zm-31.292-2.912a.206.206,0,0,1-.16-.336,19.19,19.19,0,0,1,1.7-1.834.206.206,0,0,1,.284.3,18.852,18.852,0,0,0-1.662,1.795A.2.2,0,0,1,378.059,4635.4Zm28.4-1.084a.207.207,0,0,1-.15-.064,18.828,18.828,0,0,0-1.793-1.664.207.207,0,1,1,.261-.32,19.354,19.354,0,0,1,1.832,1.7.206.206,0,0,1-.15.348Zm-24.814-2.311a.206.206,0,0,1-.121-.373,19.291,19.291,0,0,1,2.113-1.334.206.206,0,1,1,.2.362,18.816,18.816,0,0,0-2.067,1.305A.2.2,0,0,1,381.64,4632.009Zm20.985-.8a.209.209,0,0,1-.108-.031,18.717,18.717,0,0,0-2.162-1.144.206.206,0,1,1,.168-.376,19.05,19.05,0,0,1,2.21,1.17.206.206,0,0,1-.109.381Zm-16.651-1.551a.206.206,0,0,1-.074-.4,18.973,18.973,0,0,1,2.389-.739.206.206,0,0,1,.1.4,18.453,18.453,0,0,0-2.336.723A.2.2,0,0,1,385.974,4629.655Zm12.146-.465a.209.209,0,0,1-.059-.008,18.483,18.483,0,0,0-2.386-.541.206.206,0,0,1,.065-.408,19.065,19.065,0,0,1,2.439.553.206.206,0,0,1-.059.4Zm-7.346-.679a.206.206,0,0,1-.021-.412,19.289,19.289,0,0,1,2.5-.095.206.206,0,1,1-.011.412,19.256,19.256,0,0,0-2.444.093Z" transform="translate(-373.639 -4627.998)" fill="#e17c54"/>
      </g>
      <g id="Grupo_56540" data-name="Grupo 56540" transform="translate(32.95 11.686)">
        <g id="Grupo_56535" data-name="Grupo 56535">
          <path id="Trazado_105529" data-name="Trazado 105529" d="M425.8,4656.014a5.784,5.784,0,1,1,5.785-5.784A5.791,5.791,0,0,1,425.8,4656.014Zm0-10.959a5.175,5.175,0,1,0,5.176,5.175A5.181,5.181,0,0,0,425.8,4645.055Z" transform="translate(-420.016 -4644.445)" fill="#e17c54"/>
        </g>
        <g id="Grupo_56536" data-name="Grupo 56536" transform="translate(2.595 4.986)">
          <path id="Trazado_105530" data-name="Trazado 105530" d="M424.467,4653.061a.8.8,0,1,1,.8-.8A.8.8,0,0,1,424.467,4653.061Zm0-1.191a.393.393,0,1,0,.392.392A.393.393,0,0,0,424.467,4651.869Z" transform="translate(-423.668 -4651.463)" fill="#e17c54"/>
        </g>
        <g id="Grupo_56537" data-name="Grupo 56537" transform="translate(7.263 4.986)">
          <path id="Trazado_105531" data-name="Trazado 105531" d="M431.037,4653.061a.8.8,0,1,1,.8-.8A.8.8,0,0,1,431.037,4653.061Zm0-1.191a.393.393,0,1,0,.392.392A.393.393,0,0,0,431.037,4651.869Z" transform="translate(-430.238 -4651.463)" fill="#e17c54"/>
        </g>
        <g id="Grupo_56538" data-name="Grupo 56538" transform="translate(4.929 2.652)">
          <path id="Trazado_105532" data-name="Trazado 105532" d="M426.953,4648.977a.8.8,0,1,1,.8.8A.8.8,0,0,1,426.953,4648.977Zm1.191,0a.393.393,0,1,0-.392.393A.392.392,0,0,0,428.144,4648.977Z" transform="translate(-426.953 -4648.178)" fill="#e17c54"/>
        </g>
        <g id="Grupo_56539" data-name="Grupo 56539" transform="translate(4.929 7.32)">
          <path id="Trazado_105533" data-name="Trazado 105533" d="M426.953,4655.547a.8.8,0,1,1,.8.8A.8.8,0,0,1,426.953,4655.547Zm1.191,0a.393.393,0,1,0-.392.393A.392.392,0,0,0,428.144,4655.547Z" transform="translate(-426.953 -4654.748)" fill="#e17c54"/>
        </g>
      </g>
    </g>
    <g id="Grupo_56559" data-name="Grupo 56559" transform="translate(88.342 4587.727)">
      <g id="Grupo_56545" data-name="Grupo 56545" transform="translate(8.565 5.252)">
        <g id="Grupo_56542" data-name="Grupo 56542" transform="translate(0 10.478)">
          <path id="Trazado_105534" data-name="Trazado 105534" d="M100.6,4644.031a.2.2,0,0,1-.115-.035.206.206,0,0,1-.055-.287c.231-.343.474-.686.72-1.018a.206.206,0,0,1,.331.246c-.243.327-.482.664-.71,1A.2.2,0,0,1,100.6,4644.031Z" transform="translate(-100.397 -4642.609)" fill="#e17c54"/>
        </g>
        <g id="Grupo_56543" data-name="Grupo 56543" transform="translate(2.118 0.664)">
          <path id="Trazado_105535" data-name="Trazado 105535" d="M103.585,4637.292a.2.2,0,0,1-.136-.051.206.206,0,0,1-.018-.291c.493-.559,1.016-1.1,1.555-1.619a.206.206,0,1,1,.286.3c-.53.508-1.045,1.044-1.531,1.594A.2.2,0,0,1,103.585,4637.292Zm3.214-3.079a.206.206,0,0,1-.13-.367c.58-.469,1.187-.919,1.8-1.337a.206.206,0,0,1,.232.342c-.606.412-1.2.855-1.775,1.317A.2.2,0,0,1,106.8,4634.213Zm3.682-2.5a.206.206,0,0,1-.1-.386c.651-.366,1.324-.708,2-1.017a.206.206,0,1,1,.171.375c-.667.3-1.33.642-1.97,1A.2.2,0,0,1,110.482,4631.714Zm4.05-1.847a.206.206,0,0,1-.07-.4c.7-.251,1.424-.475,2.144-.664a.206.206,0,1,1,.106.4c-.709.188-1.419.407-2.111.655A.2.2,0,0,1,114.531,4629.867Z" transform="translate(-103.378 -4628.795)" fill="#e17c54"/>
        </g>
        <g id="Grupo_56544" data-name="Grupo 56544" transform="translate(17.372)">
          <path id="Trazado_105536" data-name="Trazado 105536" d="M125.053,4628.459a.206.206,0,0,1-.036-.409c.407-.072.823-.135,1.234-.187a.207.207,0,0,1,.052.411c-.4.051-.814.113-1.214.184Z" transform="translate(-124.847 -4627.861)" fill="#e17c54"/>
        </g>
      </g>
      <g id="Grupo_56549" data-name="Grupo 56549" transform="translate(4.077 5.729)">
        <g id="Grupo_56546" data-name="Grupo 56546" transform="translate(32.489)">
          <path id="Trazado_105537" data-name="Trazado 105537" d="M141.212,4629.254a.206.206,0,0,1-.056-.008c-.393-.111-.793-.215-1.189-.307a.206.206,0,1,1,.093-.4c.4.094.809.2,1.208.311a.207.207,0,0,1-.056.406Z" transform="translate(-139.807 -4628.533)" fill="#e17c54"/>
        </g>
        <g id="Grupo_56547" data-name="Grupo 56547" transform="translate(0.039 1.109)">
          <path id="Trazado_105538" data-name="Trazado 105538" d="M121.129,4681.652a.206.206,0,0,1,0-.412c.831-.012,1.67-.062,2.491-.151a.206.206,0,0,1,.045.41c-.835.091-1.686.142-2.53.153Zm-2.513-.083H118.6c-.841-.068-1.687-.177-2.514-.323a.206.206,0,0,1,.072-.406c.815.144,1.648.251,2.475.317a.206.206,0,0,1-.016.412Zm7.508-.457a.207.207,0,0,1-.042-.409c.813-.167,1.626-.375,2.418-.619a.206.206,0,1,1,.121.394c-.8.248-1.631.459-2.456.629A.2.2,0,0,1,126.124,4681.112Zm-12.457-.419a.215.215,0,0,1-.055-.007c-.812-.226-1.622-.492-2.408-.794a.206.206,0,0,1,.148-.385c.774.3,1.571.561,2.37.782a.206.206,0,0,1-.055.4Zm17.259-1.059a.207.207,0,0,1-.079-.4c.764-.318,1.523-.677,2.255-1.068a.207.207,0,0,1,.194.365c-.744.4-1.515.761-2.291,1.083A.212.212,0,0,1,130.926,4679.634Zm-21.951-.742a.214.214,0,0,1-.092-.021c-.753-.375-1.5-.791-2.212-1.238a.206.206,0,1,1,.218-.349c.7.438,1.437.849,2.178,1.218a.206.206,0,0,1-.092.39Zm26.386-1.624a.206.206,0,0,1-.114-.378c.691-.457,1.368-.954,2.014-1.476a.207.207,0,0,1,.259.322c-.655.529-1.343,1.034-2.045,1.5A.211.211,0,0,1,135.361,4677.269Zm-30.651-1.034a.2.2,0,0,1-.125-.042c-.669-.511-1.322-1.06-1.94-1.633a.206.206,0,1,1,.28-.3c.609.564,1.252,1.1,1.91,1.607a.207.207,0,0,1,.038.29A.2.2,0,0,1,104.71,4676.234Zm34.56-2.125a.206.206,0,0,1-.144-.354c.593-.58,1.165-1.194,1.7-1.827a.206.206,0,1,1,.315.266c-.544.643-1.125,1.267-1.727,1.855A.2.2,0,0,1,139.27,4674.11Zm-38.248-1.289a.206.206,0,0,1-.154-.069c-.562-.629-1.1-1.291-1.6-1.968a.206.206,0,1,1,.332-.245c.492.667,1.021,1.319,1.574,1.938a.206.206,0,0,1-.016.292A.209.209,0,0,1,101.022,4672.821Zm41.493-2.548a.207.207,0,0,1-.169-.324c.473-.681.919-1.393,1.326-2.115a.206.206,0,0,1,.36.2c-.413.733-.865,1.457-1.346,2.148A.206.206,0,0,1,142.515,4670.273Zm-44.474-1.5a.208.208,0,0,1-.177-.1c-.433-.722-.836-1.475-1.2-2.234a.206.206,0,1,1,.372-.178c.357.748.754,1.488,1.18,2.2a.207.207,0,0,1-.071.283A.215.215,0,0,1,98.041,4668.775Zm46.938-2.883a.206.206,0,0,1-.188-.29c.336-.759.639-1.542.9-2.328a.206.206,0,0,1,.391.131c-.266.8-.573,1.595-.914,2.365A.207.207,0,0,1,144.979,4665.893Zm-49.1-1.654a.207.207,0,0,1-.194-.136c-.288-.791-.541-1.606-.752-2.421a.206.206,0,1,1,.4-.1c.208.8.458,1.6.741,2.383a.206.206,0,0,1-.124.264A.21.21,0,0,1,95.879,4664.239Zm50.688-3.115a.247.247,0,0,1-.046,0,.206.206,0,0,1-.155-.248c.185-.806.333-1.634.441-2.456a.206.206,0,1,1,.409.054c-.109.835-.26,1.675-.448,2.494A.207.207,0,0,1,146.566,4661.124Zm-51.947-1.75a.206.206,0,0,1-.2-.173c-.132-.831-.226-1.678-.279-2.52a.206.206,0,0,1,.412-.026c.052.829.145,1.664.275,2.48a.207.207,0,0,1-.171.236A.189.189,0,0,1,94.619,4659.374Zm52.6-3.232h-.007a.206.206,0,0,1-.2-.213c.011-.316.017-.637.017-.955,0-.512-.015-1.032-.045-1.542a.206.206,0,1,1,.412-.024c.03.519.045,1.046.045,1.566,0,.321-.006.648-.017.968A.206.206,0,0,1,147.218,4656.142Zm-.292-5.017a.206.206,0,0,1-.2-.174c-.126-.82-.293-1.644-.5-2.447a.206.206,0,0,1,.4-.1c.206.817.376,1.652.5,2.486a.206.206,0,0,1-.172.235Zm-1.234-4.872a.207.207,0,0,1-.194-.137c-.279-.78-.6-1.556-.952-2.306a.206.206,0,0,1,.373-.176c.358.762.683,1.55.968,2.342a.206.206,0,0,1-.125.264A.191.191,0,0,1,145.692,4646.253Zm-2.136-4.546a.206.206,0,0,1-.178-.1c-.422-.712-.884-1.413-1.373-2.084a.206.206,0,0,1,.333-.243c.5.681.966,1.393,1.394,2.117a.206.206,0,0,1-.177.311Zm-2.959-4.061a.2.2,0,0,1-.155-.07c-.549-.621-1.135-1.223-1.741-1.79a.206.206,0,0,1,.282-.3c.615.575,1.21,1.188,1.768,1.818a.207.207,0,0,1-.154.343Zm-3.671-3.434a.206.206,0,0,1-.126-.043c-.656-.507-1.345-.989-2.046-1.431a.206.206,0,0,1,.22-.349c.713.449,1.412.938,2.079,1.452a.207.207,0,0,1-.126.37Zm-4.252-2.681a.206.206,0,0,1-.093-.022c-.74-.374-1.508-.715-2.28-1.017a.205.205,0,0,1-.117-.267.208.208,0,0,1,.267-.118c.784.307,1.564.654,2.316,1.034a.206.206,0,0,1-.093.39Z" transform="translate(-94.135 -4630.094)" fill="#e17c54"/>
        </g>
        <g id="Grupo_56548" data-name="Grupo 56548" transform="translate(0 23.688)">
          <path id="Trazado_105539" data-name="Trazado 105539" d="M94.287,4663.521H94.28a.206.206,0,0,1-.2-.212c.014-.414.036-.833.069-1.246a.206.206,0,1,1,.411.033c-.032.407-.055.819-.067,1.226A.206.206,0,0,1,94.287,4663.521Z" transform="translate(-94.08 -4661.873)" fill="#e17c54"/>
        </g>
      </g>
      <g id="Grupo_56553" data-name="Grupo 56553" transform="translate(8.565 5.252)">
        <g id="Grupo_56550" data-name="Grupo 56550" transform="translate(0 10.478)">
          <path id="Trazado_105540" data-name="Trazado 105540" d="M100.6,4644.031a.2.2,0,0,1-.115-.035.206.206,0,0,1-.055-.287c.231-.343.474-.686.72-1.018a.206.206,0,0,1,.331.246c-.243.327-.482.664-.71,1A.2.2,0,0,1,100.6,4644.031Z" transform="translate(-100.397 -4642.609)" fill="#e17c54"/>
        </g>
        <g id="Grupo_56551" data-name="Grupo 56551" transform="translate(2.118 0.664)">
          <path id="Trazado_105541" data-name="Trazado 105541" d="M103.585,4637.292a.2.2,0,0,1-.136-.051.206.206,0,0,1-.018-.291c.493-.559,1.016-1.1,1.555-1.619a.206.206,0,1,1,.286.3c-.53.508-1.045,1.044-1.531,1.594A.2.2,0,0,1,103.585,4637.292Zm3.214-3.079a.206.206,0,0,1-.13-.367c.58-.469,1.187-.919,1.8-1.337a.206.206,0,0,1,.232.342c-.606.412-1.2.855-1.775,1.317A.2.2,0,0,1,106.8,4634.213Zm3.682-2.5a.206.206,0,0,1-.1-.386c.651-.366,1.324-.708,2-1.017a.206.206,0,1,1,.171.375c-.667.3-1.33.642-1.97,1A.2.2,0,0,1,110.482,4631.714Zm4.05-1.847a.206.206,0,0,1-.07-.4c.7-.251,1.424-.475,2.144-.664a.206.206,0,1,1,.106.4c-.709.188-1.419.407-2.111.655A.2.2,0,0,1,114.531,4629.867Z" transform="translate(-103.378 -4628.795)" fill="#e17c54"/>
        </g>
        <g id="Grupo_56552" data-name="Grupo 56552" transform="translate(17.372)">
          <path id="Trazado_105542" data-name="Trazado 105542" d="M125.053,4628.459a.206.206,0,0,1-.036-.409c.407-.072.823-.135,1.234-.187a.207.207,0,0,1,.052.411c-.4.051-.814.113-1.214.184Z" transform="translate(-124.847 -4627.861)" fill="#e17c54"/>
        </g>
      </g>
      <g id="Grupo_56554" data-name="Grupo 56554" transform="translate(26.092)">
        <path id="Trazado_105543" data-name="Trazado 105543" d="M133.636,4630.543l-3.273-2.378-3.273,2.378,1.25-3.848-3.273-2.379h4.046l1.25-3.848,1.25,3.848h4.046l-3.273,2.379Zm-3.273-2.888,2.489,1.808-.951-2.926,2.489-1.809h-3.076l-.951-2.925-.951,2.925h-3.076l2.489,1.809-.951,2.926Z" transform="translate(-125.066 -4620.469)" fill="#e17c54"/>
      </g>
      <g id="Grupo_56558" data-name="Grupo 56558" transform="translate(0 17.298)">
        <g id="Grupo_56555" data-name="Grupo 56555">
          <path id="Trazado_105544" data-name="Trazado 105544" d="M94.126,4656.384a5.784,5.784,0,1,1,5.785-5.784A5.79,5.79,0,0,1,94.126,4656.384Zm0-10.96A5.176,5.176,0,1,0,99.3,4650.6,5.182,5.182,0,0,0,94.126,4645.424Z" transform="translate(-88.342 -4644.815)" fill="#e17c54"/>
        </g>
        <g id="Grupo_56556" data-name="Grupo 56556" transform="translate(3 4.986)">
          <path id="Trazado_105545" data-name="Trazado 105545" d="M93.364,4653.431a.8.8,0,1,1,.8-.8A.8.8,0,0,1,93.364,4653.431Zm0-1.192a.393.393,0,1,0,.392.393A.393.393,0,0,0,93.364,4652.239Z" transform="translate(-92.565 -4651.834)" fill="#e17c54"/>
        </g>
        <g id="Grupo_56557" data-name="Grupo 56557" transform="translate(6.856 4.986)">
          <path id="Trazado_105546" data-name="Trazado 105546" d="M98.791,4653.431a.8.8,0,1,1,.8-.8A.8.8,0,0,1,98.791,4653.431Zm0-1.192a.393.393,0,1,0,.393.393A.393.393,0,0,0,98.791,4652.239Z" transform="translate(-97.992 -4651.834)" fill="#e17c54"/>
        </g>
      </g>
    </g>
    <g id="Grupo_56563" data-name="Grupo 56563" transform="translate(108.735 4662.374)">
      <g id="Grupo_56560" data-name="Grupo 56560">
        <path id="Trazado_105547" data-name="Trazado 105547" d="M120.381,4732.2a3.335,3.335,0,1,1,3.335-3.334A3.339,3.339,0,0,1,120.381,4732.2Zm0-6.32a2.985,2.985,0,1,0,2.984,2.985A2.989,2.989,0,0,0,120.381,4725.885Z" transform="translate(-117.045 -4725.534)" fill="#e17c54"/>
      </g>
      <g id="Grupo_56561" data-name="Grupo 56561" transform="translate(1.496 2.875)">
        <path id="Trazado_105548" data-name="Trazado 105548" d="M119.611,4730.5a.46.46,0,1,1,.46-.46A.461.461,0,0,1,119.611,4730.5Zm0-.687a.227.227,0,1,0,.226.228A.227.227,0,0,0,119.611,4729.814Z" transform="translate(-119.151 -4729.581)" fill="#e17c54"/>
      </g>
      <g id="Grupo_56562" data-name="Grupo 56562" transform="translate(4.188 2.875)">
        <path id="Trazado_105549" data-name="Trazado 105549" d="M123.4,4730.5a.46.46,0,1,1,.461-.46A.461.461,0,0,1,123.4,4730.5Zm0-.687a.227.227,0,1,0,.227.228A.227.227,0,0,0,123.4,4729.814Z" transform="translate(-122.939 -4729.581)" fill="#e17c54"/>
      </g>
    </g>
    <g id="Grupo_56571" data-name="Grupo 56571" transform="translate(186.569 4525.128)">
      <g id="Grupo_56564" data-name="Grupo 56564" transform="translate(0 1.563)">
        <path id="Trazado_105550" data-name="Trazado 105550" d="M233.584,4545.437H226.6v-10.876h6.989Zm-6.457-.532h5.924v-9.812h-5.924Z" transform="translate(-226.595 -4534.561)" fill="#e17c54"/>
      </g>
      <g id="Grupo_56565" data-name="Grupo 56565" transform="translate(1.944 0)">
        <path id="Trazado_105551" data-name="Trazado 105551" d="M232.432,4534.422h-3.1v-2.06h3.1Zm-2.569-.532H231.9v-1h-2.036Z" transform="translate(-229.331 -4532.362)" fill="#e17c54"/>
      </g>
      <g id="Grupo_56566" data-name="Grupo 56566" transform="translate(1.944 11.922)">
        <path id="Trazado_105552" data-name="Trazado 105552" d="M232.432,4551.2h-3.1v-2.06h3.1Zm-2.569-.532H231.9v-1h-2.036Z" transform="translate(-229.331 -4549.142)" fill="#e17c54"/>
      </g>
      <g id="Grupo_56567" data-name="Grupo 56567" transform="translate(0.683 2.419)">
        <path id="Trazado_105553" data-name="Trazado 105553" d="M232.8,4539.5a.3.3,0,0,1-.07-.009c-.965-.261-3.973-1.531-5.13-3.319a.266.266,0,1,1,.447-.289c1.059,1.638,3.945,2.857,4.821,3.093a.267.267,0,0,1-.069.524Z" transform="translate(-227.556 -4535.766)" fill="#e17c54"/>
      </g>
      <g id="Grupo_56568" data-name="Grupo 56568" transform="translate(0.683 4.119)">
        <path id="Trazado_105554" data-name="Trazado 105554" d="M232.8,4541.9a.258.258,0,0,1-.07-.009c-.965-.26-3.973-1.53-5.13-3.319a.266.266,0,0,1,.447-.289c1.059,1.637,3.945,2.857,4.821,3.094a.266.266,0,0,1-.069.522Z" transform="translate(-227.556 -4538.16)" fill="#e17c54"/>
      </g>
      <g id="Grupo_56569" data-name="Grupo 56569" transform="translate(0.683 5.82)">
        <path id="Trazado_105555" data-name="Trazado 105555" d="M232.8,4544.291a.279.279,0,0,1-.07-.009c-.965-.261-3.973-1.53-5.13-3.318a.266.266,0,1,1,.447-.289c1.059,1.638,3.945,2.856,4.821,3.093a.266.266,0,0,1-.069.523Z" transform="translate(-227.556 -4540.553)" fill="#e17c54"/>
      </g>
      <g id="Grupo_56570" data-name="Grupo 56570" transform="translate(0.683 7.52)">
        <path id="Trazado_105556" data-name="Trazado 105556" d="M232.8,4546.685a.259.259,0,0,1-.07-.009c-.965-.26-3.973-1.53-5.13-3.319a.266.266,0,1,1,.447-.289c1.059,1.637,3.945,2.857,4.821,3.094a.266.266,0,0,1-.069.522Z" transform="translate(-227.556 -4542.946)" fill="#e17c54"/>
      </g>
    </g>
    <path id="Trazado_105557" data-name="Trazado 105557" d="M433.585,4701.968a.2.2,0,0,0-.224.179,1.2,1.2,0,0,1-.649.784c-.468.266-1.521.588-3.314-.231-1.591-.728-3.044-.8-3.986-.193a2,2,0,0,0-.723.808c-.014,0-.027,0-.041,0a.875.875,0,0,0-.874.874c0,.482.391,11.589.874,11.589s.873-11.107.873-11.589a.87.87,0,0,0-.435-.751,1.6,1.6,0,0,1,.546-.584c.823-.529,2.134-.448,3.6.221,1.957.9,3.148.519,3.683.215a1.58,1.58,0,0,0,.852-1.093A.2.2,0,0,0,433.585,4701.968Zm-8.461,2.385a.476.476,0,1,1-.622-.451,2.423,2.423,0,0,0-.038.412.2.2,0,0,0,.406,0,1.986,1.986,0,0,1,.035-.361A.477.477,0,0,1,425.125,4704.354Z" transform="translate(-97.112 -56.337)" fill="#e17c54"/>
    <g id="Grupo_56575" data-name="Grupo 56575" transform="translate(297.988 4543.482)">
      <g id="Grupo_56572" data-name="Grupo 56572" transform="translate(0)">
        <path id="Trazado_105558" data-name="Trazado 105558" d="M383.959,4574.168c-1.55-1.126.431-5.8,3.243-9.674s6.647-7.2,8.2-6.076-.431,5.8-3.243,9.675S385.51,4575.3,383.959,4574.168Zm11.2-15.421c-1.038-.754-4.352,1.471-7.631,5.986s-4.37,8.354-3.332,9.107,4.352-1.471,7.631-5.986S396.2,4559.5,395.16,4558.747Z" transform="translate(-383.415 -4558.196)" fill="#e17c54"/>
      </g>
      <g id="Grupo_56573" data-name="Grupo 56573" transform="translate(0.016 10.878)">
        <path id="Trazado_105559" data-name="Trazado 105559" d="M383.965,4578.6c-.812-.59-.672-2.123.319-3.487s2.4-1.972,3.218-1.382.673,2.123-.319,3.487S384.778,4579.191,383.965,4578.6Zm3.3-4.541c-.608-.441-1.822.151-2.651,1.292s-1.017,2.48-.409,2.921,1.822-.151,2.651-1.292S387.871,4574.5,387.264,4574.06Z" transform="translate(-383.437 -4573.507)" fill="#e17c54"/>
      </g>
      <g id="Grupo_56574" data-name="Grupo 56574" transform="translate(6.848 0.204)">
        <path id="Trazado_105560" data-name="Trazado 105560" d="M396.079,4561.407a1.217,1.217,0,0,1,.288,1.674,5.746,5.746,0,0,1,.755,1.2c1.394-2.734,1.837-4.967.949-5.613s-2.859.458-5.016,2.61a5.533,5.533,0,0,1,1.357.36A1.218,1.218,0,0,1,396.079,4561.407Z" transform="translate(-393.054 -4558.483)" fill="#e17c54"/>
      </g>
    </g>
    <g id="Grupo_56576" data-name="Grupo 56576" transform="translate(326.167 4580.184)">
      <path id="Trazado_105561" data-name="Trazado 105561" d="M431.647,4619.928l-3.273-2.378-3.273,2.378,1.25-3.849-3.273-2.378h4.046l1.25-3.848,1.25,3.848h4.046l-3.274,2.378Zm-3.273-2.889,2.489,1.809-.951-2.926,2.489-1.808h-3.076l-.951-2.926-.951,2.926h-3.076l2.489,1.808-.951,2.926Z" transform="translate(-423.077 -4609.853)" fill="#e17c54"/>
    </g>
    <g id="Grupo_56577" data-name="Grupo 56577" transform="translate(265.96 4524.04)">
      <path id="Trazado_105562" data-name="Trazado 105562" d="M346.906,4540.9l-3.273-2.378-3.273,2.378,1.25-3.848-3.273-2.379h4.046l1.25-3.848,1.25,3.848h4.046l-3.274,2.379Zm-3.273-2.889,2.489,1.81-.951-2.926,2.489-1.808h-3.076l-.951-2.925-.951,2.925h-3.076l2.489,1.808-.951,2.926Z" transform="translate(-338.336 -4530.831)" fill="#e17c54"/>
    </g>
    <g id="Grupo_56578" data-name="Grupo 56578" transform="translate(110.945 4621.826)">
      <path id="Trazado_105563" data-name="Trazado 105563" d="M128.725,4678.537l-3.273-2.378-3.273,2.378,1.25-3.848-3.273-2.378H124.2l1.25-3.848,1.25,3.848h4.046l-3.274,2.378Zm-3.273-2.888,2.489,1.808-.951-2.926,2.489-1.808H126.4l-.951-2.926-.951,2.926h-3.076l2.489,1.808-.951,2.926Z" transform="translate(-120.155 -4668.463)" fill="#e17c54"/>
    </g>
    <g id="Grupo_56579" data-name="Grupo 56579" transform="translate(145.346 4535.585)">
      <path id="Trazado_105564" data-name="Trazado 105564" d="M228.179,4631.084a.454.454,0,0,1-.182-.046c-28.422-13.522-40.061-41.952-44.821-63.42a.476.476,0,0,1,.93-.206c4.713,21.26,16.225,49.408,44.3,62.766a.477.477,0,0,1-.227.906Z" transform="translate(-172.798 -4552.859)" fill="#e17c54"/>
      <path id="Trazado_105565" data-name="Trazado 105565" d="M182.023,4561.208c-5.33-3.61-6.138-12.132-.831-13.932S188.3,4556.657,182.023,4561.208Z" transform="translate(-171.185 -4547.082)" fill="#e17c54"/>
      <path id="Trazado_105566" data-name="Trazado 105566" d="M187.962,4575.628c-.955-4.861,3.413-12.169,7.416-11.772S194.066,4574.1,187.962,4575.628Z" transform="translate(-174.148 -4551.934)" fill="#e17c54"/>
      <path id="Trazado_105567" data-name="Trazado 105567" d="M182.128,4582.077c-4.315,2.433-12.624.581-13.5-3.344S178.762,4576.76,182.128,4582.077Z" transform="translate(-168.574 -4555.646)" fill="#e17c54"/>
      <path id="Trazado_105568" data-name="Trazado 105568" d="M189.448,4601.147c-4.315,2.433-12.625.58-13.5-3.344S186.081,4595.831,189.448,4601.147Z" transform="translate(-170.693 -4561.167)" fill="#e17c54"/>
      <path id="Trazado_105569" data-name="Trazado 105569" d="M201.931,4621.824c-2.868,2.543-9.455,2.494-10.76-.332S198.519,4618.351,201.931,4621.824Z" transform="translate(-175.077 -4567.989)" fill="#e17c54"/>
      <path id="Trazado_105570" data-name="Trazado 105570" d="M213.213,4635.745c-2.868,2.543-9.455,2.494-10.76-.333S209.8,4632.271,213.213,4635.745Z" transform="translate(-178.344 -4572.019)" fill="#e17c54"/>
      <path id="Trazado_105571" data-name="Trazado 105571" d="M194.013,4591.926c-.955-4.86,3.413-12.168,7.416-11.771S200.118,4590.4,194.013,4591.926Z" transform="translate(-175.9 -4556.652)" fill="#e17c54"/>
      <path id="Trazado_105572" data-name="Trazado 105572" d="M202.123,4609.109c-.956-4.861,3.412-12.168,7.415-11.771S208.227,4607.583,202.123,4609.109Z" transform="translate(-178.248 -4561.627)" fill="#e17c54"/>
      <path id="Trazado_105573" data-name="Trazado 105573" d="M212.633,4624.927c-1.295-3.694,1.3-9.9,4.475-10.044S217.237,4623.045,212.633,4624.927Z" transform="translate(-181.231 -4566.71)" fill="#e17c54"/>
    </g>
    <g id="Grupo_56580" data-name="Grupo 56580" transform="translate(136.974 4578.136)">
      <path id="Trazado_105574" data-name="Trazado 105574" d="M217.654,4642.674a.336.336,0,0,1-.129.04c-22.645,2.326-40.523-10.865-51.533-22.342a.344.344,0,0,1,.5-.477c10.9,11.365,28.6,24.432,50.966,22.133a.345.345,0,0,1,.2.646Z" transform="translate(-159.427 -4610.682)" fill="#e17c54"/>
      <path id="Trazado_105575" data-name="Trazado 105575" d="M163.4,4616.1c-4.65-.227-8.353-5.19-5.751-8.3S165.57,4610.927,163.4,4616.1Z" transform="translate(-156.791 -4606.97)" fill="#e17c54"/>
      <path id="Trazado_105576" data-name="Trazado 105576" d="M173.008,4622.41c-2.417-2.644-2.465-8.8.158-10.061S176.207,4619.173,173.008,4622.41Z" transform="translate(-160.962 -4608.489)" fill="#e17c54"/>
      <path id="Trazado_105577" data-name="Trazado 105577" d="M170.919,4628.806c-1.752,3.125-7.583,5.1-9.6,3.009S166.84,4626.785,170.919,4628.806Z" transform="translate(-158.004 -4613.096)" fill="#e17c54"/>
      <path id="Trazado_105578" data-name="Trazado 105578" d="M182.609,4637.837c-1.751,3.126-7.582,5.1-9.6,3.01S178.531,4635.817,182.609,4637.837Z" transform="translate(-161.388 -4615.71)" fill="#e17c54"/>
      <path id="Trazado_105579" data-name="Trazado 105579" d="M198.112,4645.824c-.816,2.65-4.905,5.095-6.774,3.839S194.7,4644.959,198.112,4645.824Z" transform="translate(-166.679 -4618.179)" fill="#e17c54"/>
      <path id="Trazado_105580" data-name="Trazado 105580" d="M210.316,4650.185c-.817,2.649-4.905,5.095-6.774,3.839S206.9,4649.321,210.316,4650.185Z" transform="translate(-170.213 -4619.441)" fill="#e17c54"/>
      <path id="Trazado_105581" data-name="Trazado 105581" d="M182.873,4630.207c-2.417-2.645-2.465-8.8.158-10.06S186.072,4626.97,182.873,4630.207Z" transform="translate(-163.818 -4610.747)" fill="#e17c54"/>
      <path id="Trazado_105582" data-name="Trazado 105582" d="M194.342,4637.776c-2.417-2.644-2.465-8.8.158-10.061S197.541,4634.539,194.342,4637.776Z" transform="translate(-167.138 -4612.938)" fill="#e17c54"/>
      <path id="Trazado_105583" data-name="Trazado 105583" d="M206.446,4644c-2.189-1.8-2.92-6.608-1.01-7.89S208.583,4641.106,206.446,4644Z" transform="translate(-170.556 -4615.357)" fill="#e17c54"/>
    </g>
    <g id="Grupo_56581" data-name="Grupo 56581" transform="translate(268.584 4566.868)">
      <path id="Trazado_105584" data-name="Trazado 105584" d="M359.816,4623.883a22.643,22.643,0,0,0,11.6-15.535,19.2,19.2,0,0,0,.561-4.383c.1-7.035-3.487-12.789-8.009-12.854s-8.269,5.588-8.368,12.622a18.848,18.848,0,0,0,.623,5.147l-.018-.021.026.046a14.705,14.705,0,0,0,1.455,3.556,11.813,11.813,0,0,1-1.43,9.271,4.767,4.767,0,0,0-.721,2.688l.411,12.293,8.789-6.591S359.406,4624.109,359.816,4623.883Zm-1.407-20.109a14.215,14.215,0,0,1,2.058-7.459c1.018-1.536,2.279-2.407,3.459-2.391a2.571,2.571,0,0,1,.684.1c2.3.663,4.628,4.546,4.552,9.9a14.209,14.209,0,0,1-2.057,7.458c-1.019,1.536-2.279,2.408-3.459,2.391a2.569,2.569,0,0,1-.684-.1C360.664,4613.01,358.334,4609.126,358.409,4603.773Z" transform="translate(-345.938 -4591.111)" fill="#106384"/>
      <path id="Trazado_105585" data-name="Trazado 105585" d="M354.5,4658.112l8.271-.13c.9,16.673-3.752,44.889-3.752,44.889C354.548,4693.013,354.5,4658.112,354.5,4658.112Z" transform="translate(-345.64 -4610.47)" fill="#696969"/>
      <path id="Trazado_105586" data-name="Trazado 105586" d="M385.359,4603.535c-3.566-1.029-7.476,2.04-8.9,6.987a11.815,11.815,0,0,0-.316,5.5l-.024,0c-.031,6.531-10.252,13.914-18.436,14.825-.847,2.339-3.143,11.491-3.143,11.491l7.948,2.292,3.393-11.764c5.552-1.53,18.1-10.354,20.52-13.732a11.752,11.752,0,0,0,2.775-4.946C390.6,4609.243,388.924,4604.563,385.359,4603.535Zm-4.4,15.26c-2.195-.633-3.143-4.029-2.117-7.585s3.636-5.925,5.831-5.291,3.142,4.028,2.117,7.584S383.152,4619.428,380.957,4618.795Z" transform="translate(-345.65 -4594.65)" fill="#39a4ce"/>
      <circle id="Elipse_4100" data-name="Elipse 4100" cx="1.985" cy="1.985" r="1.985" transform="translate(11.976 40.777) rotate(-17.608)" fill="#7ac4e2"/>
      <rect id="Rectángulo_5602" data-name="Rectángulo 5602" width="3.226" height="0.572" transform="translate(12.998 41.347) rotate(16.088)" fill="#106384"/>
      <path id="Trazado_105587" data-name="Trazado 105587" d="M350.916,4658.235l7.948,2.292c-4.011,16.208-16.7,41.834-16.7,41.834C340.765,4691.627,350.916,4658.235,350.916,4658.235Z" transform="translate(-342.029 -4610.544)" fill="#878787"/>
    </g>
    <g id="Grupo_56582" data-name="Grupo 56582" transform="translate(278.649 4611.902)">
      <path id="Trazado_105588" data-name="Trazado 105588" d="M384.772,4674.916c-1.132,1.226-6.507,5.563-7.921,6.129a62.508,62.508,0,0,1-6.507,1.509s-.283,1.131,0,1.32a2.542,2.542,0,0,1,.566.848s5.657.849,6.978.472a66.183,66.183,0,0,0,6.034-2.829Z" transform="translate(-360.256 -4660.408)" fill="#ff8762"/>
      <path id="Trazado_105589" data-name="Trazado 105589" d="M388.247,4674.5a22.983,22.983,0,0,1-2.766,7.308c-.566.66,1.226,4.432,1.6,6.317s-.943,7.827-.943,7.827,8.109,3.206,8.863,3.206c2.546-1.886,1.509-9.524,1.226-13.3s1.32-14.143-5.328-16.454A6.463,6.463,0,0,0,388.247,4674.5Z" transform="translate(-364.643 -4658.813)" fill="#6295c7"/>
      <path id="Trazado_105590" data-name="Trazado 105590" d="M379.051,4659.795c-2.828-1.761-1.257-4.652,2.452-5.154s6.663.188,6.789,4.022-2.137,4.967-2.137,4.967Z" transform="translate(-362.393 -4654.496)" fill="#2b1710"/>
      <path id="Trazado_105591" data-name="Trazado 105591" d="M380.229,4658.5c-1.367,1.635-.519,2.892-.236,3.709s-.55,2.263-.55,2.263c.283.188,1.006-.048,1.116.109a.952.952,0,0,1,.125.41c.189.109.566.125.566.172-.048.22.157.692.393.692s.629.424.754.739.519.456,1.1.125a1.838,1.838,0,0,1,2.263.582c.6.817.77,3.992.77,4.039a16,16,0,0,1,2.656-5.092c-1.4-.346-2.876-2.687-2.876-2.687C382.539,4662.966,380.229,4658.5,380.229,4658.5Z" transform="translate(-362.926 -4655.655)" fill="#ff8762"/>
      <path id="Trazado_105592" data-name="Trazado 105592" d="M380.776,4666.694a.04.04,0,0,1-.015-.077.42.42,0,0,1,.4,0,.04.04,0,0,1-.048.065.343.343,0,0,0-.323.005A.04.04,0,0,1,380.776,4666.694Z" transform="translate(-363.301 -4657.992)" fill="#2b1710"/>
      <path id="Trazado_105593" data-name="Trazado 105593" d="M385.974,4668.3a.041.041,0,0,1-.032-.016.04.04,0,0,1,.008-.056,4.329,4.329,0,0,0,1.194-2.359.04.04,0,0,1,.043-.037.039.039,0,0,1,.037.043A4.431,4.431,0,0,1,386,4668.3.037.037,0,0,1,385.974,4668.3Z" transform="translate(-364.805 -4657.779)" fill="#e0b3a8" style="mix-blend-mode: multiply;isolation: isolate"/>
      <path id="Trazado_105594" data-name="Trazado 105594" d="M381.19,4667.46c.189.109.566.125.566.172a.721.721,0,0,0,.339.683,2.851,2.851,0,0,0,.557-1.3A2.438,2.438,0,0,0,381.19,4667.46Z" transform="translate(-363.432 -4658.122)" fill="#eb4b3d"/>
      <path id="Trazado_105595" data-name="Trazado 105595" d="M382.147,4667.526a.04.04,0,0,1-.036-.022.04.04,0,0,1,.018-.054,2.756,2.756,0,0,0,.914-.648.04.04,0,1,1,.064.048,2.753,2.753,0,0,1-.941.672A.035.035,0,0,1,382.147,4667.526Z" transform="translate(-363.698 -4658.054)" fill="#2b1710"/>
      <path id="Trazado_105596" data-name="Trazado 105596" d="M381.9,4663.184c.113.221.113.448,0,.505s-.3-.074-.411-.3-.114-.448,0-.506S381.783,4662.962,381.9,4663.184Z" transform="translate(-363.493 -4656.921)" fill="#2b1710"/>
      <path id="Trazado_105597" data-name="Trazado 105597" d="M380.25,4662.37c.472-.472,1.729-.336,1.645-.367C380.721,4661.636,379.841,4661.762,380.25,4662.37Z" transform="translate(-363.13 -4656.61)" fill="#2b1710"/>
      <circle id="Elipse_4101" data-name="Elipse 4101" cx="2.179" cy="2.179" r="2.179" transform="translate(24.516 3.287)" fill="#2b1710"/>
      <path id="Trazado_105598" data-name="Trazado 105598" d="M356.2,4693.9v-13.013h12.195v5.847h-5.469v-2.7h-2.138v5.218h6.475v4.562Z" transform="translate(-356.196 -4662.136)" fill="#ffdac2"/>
      <path id="Trazado_105599" data-name="Trazado 105599" d="M361.425,4685.312h-3.017v5.344l3.017-.126Z" transform="translate(-356.836 -4663.417)" fill="#e6b08f"/>
      <rect id="Rectángulo_5603" data-name="Rectángulo 5603" width="5.532" height="4.589" transform="translate(5.532 27.112)" fill="#ffc9a8"/>
      <path id="Trazado_105600" data-name="Trazado 105600" d="M386.7,4671.064c-2.818,1.32-3.112,14.71-4.244,16.125-5.28-.378-7.638-.095-8.392-.472s-2.63-2.011-2.8-2.011-2.053.167-2.053.167-1.928,1.131-1.76,1.257,2.179.377,3.143,1.132a17.168,17.168,0,0,0,3.855,1.717c.587.21,9.933,3.186,10.728,2.766s3.543-8.578,3.94-10.812C389.722,4677.571,388.559,4670.835,386.7,4671.064Z" transform="translate(-359.453 -4659.291)" fill="#ff8762"/>
    </g>
    <g id="Grupo_56583" data-name="Grupo 56583" transform="translate(295.612 4627.654)">
      <path id="Trazado_105601" data-name="Trazado 105601" d="M390.936,4704.477l.1,0,8.91-.539a2.874,2.874,0,0,0,2.7-2.584L405,4678.444a1.613,1.613,0,1,0-3.209-.33l-2.329,22.619-8.621.521a1.613,1.613,0,0,0,.1,3.223Z" transform="translate(-382.75 -4676.666)" fill="#7ac4e2"/>
      <path id="Trazado_105602" data-name="Trazado 105602" d="M405.461,4740.122l-7.075-36.34-12.475.037-5.84,38.337,2.14,0,5.456-36.869h8.671l7.326,34.834Z" transform="translate(-380.071 -4684.517)" fill="#106384"/>
    </g>
    <path id="Trazado_105603" data-name="Trazado 105603" d="M193.858,4671.146v-6.186H150.288v6.186c-11.261,3.489-34.1,32.2-3.648,59.951h50.865C227.957,4703.342,205.119,4674.635,193.858,4671.146Z" transform="translate(-12.477 -45.623)" fill="#ffdac2"/>
    <path id="Trazado_105604" data-name="Trazado 105604" d="M158.75,4729.7a9.04,9.04,0,1,0,9.04,9.04A9.04,9.04,0,0,0,158.75,4729.7Zm-4.045,10.785a1.507,1.507,0,1,1,1.507-1.507A1.506,1.506,0,0,1,154.705,4740.481Zm8.309,0a1.507,1.507,0,1,1,1.507-1.507A1.507,1.507,0,0,1,163.015,4740.481Z" transform="translate(-17.767 -64.365)" fill="#76cfd9"/>
    <path id="Trazado_105605" data-name="Trazado 105605" d="M184.346,4671.955a9.04,9.04,0,1,0,9.04,9.04A9.04,9.04,0,0,0,184.346,4671.955ZM180.3,4682.74a1.507,1.507,0,1,1,1.507-1.506A1.507,1.507,0,0,1,180.3,4682.74Zm8.309,0a1.507,1.507,0,1,1,1.506-1.506A1.507,1.507,0,0,1,188.611,4682.74Z" transform="translate(-25.177 -47.648)" fill="#76cfd9"/>
    <path id="Trazado_105606" data-name="Trazado 105606" d="M196.922,4694.425a9.04,9.04,0,1,0,9.04,9.041A9.041,9.041,0,0,0,196.922,4694.425Zm-4.045,10.786a1.507,1.507,0,1,1,1.507-1.507A1.507,1.507,0,0,1,192.877,4705.211Zm8.309,0a1.507,1.507,0,1,1,1.507-1.507A1.507,1.507,0,0,1,201.187,4705.211Z" transform="translate(-28.818 -54.153)" fill="#39a4ce"/>
    <path id="Trazado_105607" data-name="Trazado 105607" d="M178.394,4712.954a9.04,9.04,0,1,0,9.04,9.04A9.04,9.04,0,0,0,178.394,4712.954Zm-4.045,10.785a1.507,1.507,0,1,1,1.507-1.507A1.507,1.507,0,0,1,174.349,4723.739Zm4.155,4.154a1.507,1.507,0,1,1,1.506-1.506A1.506,1.506,0,0,1,178.5,4727.894Zm0-8.309a1.507,1.507,0,1,1,1.506-1.507A1.507,1.507,0,0,1,178.5,4719.585Zm4.154,4.154a1.507,1.507,0,1,1,1.507-1.507A1.507,1.507,0,0,1,182.659,4723.739Z" transform="translate(-23.454 -59.518)" fill="#76cfd9"/>
    <path id="Trazado_105608" data-name="Trazado 105608" d="M184.293,4737.956a6.159,6.159,0,1,0,6.159,6.159A6.159,6.159,0,0,0,184.293,4737.956Zm-2.756,7.348a1.027,1.027,0,1,1,1.027-1.026A1.027,1.027,0,0,1,181.537,4745.3Zm2.831,2.83a1.026,1.026,0,1,1,1.027-1.026A1.027,1.027,0,0,1,184.368,4748.133Zm0-5.66a1.027,1.027,0,1,1,1.027-1.026A1.027,1.027,0,0,1,184.368,4742.473Zm2.831,2.831a1.027,1.027,0,1,1,1.027-1.026A1.027,1.027,0,0,1,187.2,4745.3Z" transform="translate(-25.996 -66.756)" fill="#2e8c96"/>
    <path id="Trazado_105609" data-name="Trazado 105609" d="M156.637,4690.483a7.56,7.56,0,1,0,7.56,7.56A7.56,7.56,0,0,0,156.637,4690.483Zm-3.383,9.019a1.26,1.26,0,1,1,1.26-1.26A1.26,1.26,0,0,1,153.255,4699.5Zm3.474,3.475a1.26,1.26,0,1,1,1.26-1.26A1.26,1.26,0,0,1,156.729,4702.976Zm0-6.949a1.26,1.26,0,1,1,1.26-1.26A1.26,1.26,0,0,1,156.729,4696.027Zm3.474,3.474a1.26,1.26,0,1,1,1.26-1.26A1.26,1.26,0,0,1,160.2,4699.5Z" transform="translate(-17.584 -53.012)" fill="#39a4ce"/>
    <path id="Trazado_105610" data-name="Trazado 105610" d="M173.627,4696.654a6.159,6.159,0,1,0,8.457,2.083A6.159,6.159,0,0,0,173.627,4696.654Zm1.444,7.713a1.027,1.027,0,1,1,.347-1.409A1.025,1.025,0,0,1,175.072,4704.367Zm3.886.957a1.026,1.026,0,1,1,.347-1.41A1.027,1.027,0,0,1,178.958,4705.324Zm-2.929-4.844a1.026,1.026,0,1,1,.347-1.409A1.027,1.027,0,0,1,176.029,4700.48Zm3.886.958a1.027,1.027,0,1,1,.347-1.41A1.028,1.028,0,0,1,179.915,4701.438Z" transform="translate(-23.83 -54.541)" fill="#f04f5f"/>
    <path id="Trazado_105611" data-name="Trazado 105611" d="M158.175,4712.285a6.159,6.159,0,1,0,6.159,6.158A6.158,6.158,0,0,0,158.175,4712.285Zm-2.755,7.347a1.026,1.026,0,1,1,1.027-1.027A1.027,1.027,0,0,1,155.42,4719.632Zm2.831,2.831a1.027,1.027,0,1,1,1.026-1.027A1.027,1.027,0,0,1,158.251,4722.463Zm0-5.661a1.026,1.026,0,1,1,1.026-1.026A1.027,1.027,0,0,1,158.251,4716.8Zm2.83,2.83a1.026,1.026,0,1,1,1.027-1.027A1.027,1.027,0,0,1,161.08,4719.632Z" transform="translate(-18.434 -59.324)" fill="#f04f5f"/>
    <path id="Trazado_105612" data-name="Trazado 105612" d="M220.494,4562.728c-8.861-4.87-25.99-2.649-25.038-2.332,5.076,4.123,4.441,11.419,4.124,16.812s4.124,5.393,5.709,10.468-3.172,9.833,2.221,13.956,9.833,3.489,10.15,6.979,1.587,9.516,8.565,10.467S220.494,4562.728,220.494,4562.728Z" transform="translate(-31 -15.125)" fill="#ffb780"/>
    <path id="Trazado_105613" data-name="Trazado 105613" d="M328.175,4562.728c8.861-4.87,25.989-2.649,25.038-2.332-5.075,4.123-4.441,11.419-4.124,16.812s-4.124,5.393-5.709,10.468,3.172,9.833-2.22,13.956-9.833,3.489-10.151,6.979-1.586,9.516-8.564,10.467S328.175,4562.728,328.175,4562.728Z" transform="translate(-67.17 -15.125)" fill="#ffb780"/>
    <path id="Rectángulo_5604" data-name="Rectángulo 5604" d="M5.4,0H207.572a5.4,5.4,0,0,1,5.4,5.4v0a0,0,0,0,1,0,0H0a0,0,0,0,1,0,0v0A5.4,5.4,0,0,1,5.4,0Z" transform="translate(118.232 4685.44)" fill="#e17c54"/>
    <path id="Trazado_105614" data-name="Trazado 105614" d="M297.778,4630.464c-11.943-16.719-9.82-20.7-5.043-37.155s4.659-31.258,1.711-36.33c0,0-13.447-.472-18.519-3.421s-4.365-13.8-4.365-13.8H245.776s.708,10.852-4.365,13.8-18.519,3.421-18.519,3.421c-2.949,5.072-3.067,19.875,1.71,36.33s6.9,20.436-5.042,37.155-18.844,43.26-14.6,64.227H312.375C316.62,4673.724,309.72,4647.184,297.778,4630.464Z" transform="translate(-33.399 -9.375)" fill="#ffdac2"/>
    <path id="Trazado_105615" data-name="Trazado 105615" d="M211.35,4736.657c-.788,1.445-1,6.733-1.024,11.181h69.727a68.79,68.79,0,0,1,30.026-24.5S212.777,4734.04,211.35,4736.657Z" transform="translate(-35.316 -62.523)" fill="#c7c7c7" style="mix-blend-mode: multiply;isolation: isolate"/>
    <ellipse id="Elipse_4102" data-name="Elipse 4102" cx="12.966" cy="4.005" rx="12.966" ry="4.005" transform="translate(212.327 4526.476)" fill="#543228"/>
    <g id="Grupo_56584" data-name="Grupo 56584" transform="translate(217.894 4507.374)">
      <path id="Rectángulo_5605" data-name="Rectángulo 5605" d="M0,0H5.295a0,0,0,0,1,0,0V11.966a2.647,2.647,0,0,1-2.647,2.647h0A2.647,2.647,0,0,1,0,11.966V0A0,0,0,0,1,0,0Z" transform="translate(4.447 8.895)" fill="#734437"/>
      <circle id="Elipse_4103" data-name="Elipse 4103" cx="7.306" cy="7.306" r="7.306" transform="translate(0)" fill="#543228"/>
      <path id="Trazado_105616" data-name="Trazado 105616" d="M280.042,4507.444a7.3,7.3,0,0,1-5.177,13.137,7.306,7.306,0,1,0,5.177-13.137Z" transform="translate(-271.894 -4507.394)" fill="#f5ceb5" style="mix-blend-mode: multiply;isolation: isolate"/>
    </g>
    <g id="Grupo_56585" data-name="Grupo 56585" transform="translate(267.52 4663.27)">
      <path id="Trazado_105617" data-name="Trazado 105617" d="M354.7,4726.793l-6.873,19.244s-7.19,2.644-7.3,2.96H353.96c-.105-.952-1.163-2.009-1.163-2.96s7.19-12.054,7.93-14.062S354.7,4726.793,354.7,4726.793Z" transform="translate(-340.532 -4726.793)" fill="#fa7b55"/>
      <path id="Trazado_105618" data-name="Trazado 105618" d="M353.036,4754.866a18.268,18.268,0,0,1-5.512.2,1.635,1.635,0,0,0-.306-.871c-1.736.646-6.6,2.475-6.686,2.735H353.96A8.119,8.119,0,0,0,353.036,4754.866Z" transform="translate(-340.532 -4734.728)" fill="#2b1710"/>
    </g>
    <g id="Grupo_56586" data-name="Grupo 56586" transform="translate(271.776 4663.27)">
      <path id="Trazado_105619" data-name="Trazado 105619" d="M360.691,4726.793l-6.873,19.244s-7.19,2.644-7.3,2.96H359.95c-.106-.952-1.163-2.009-1.163-2.96s7.19-12.054,7.93-14.062S360.691,4726.793,360.691,4726.793Z" transform="translate(-346.522 -4726.793)" fill="#ff8762"/>
      <path id="Trazado_105620" data-name="Trazado 105620" d="M359.026,4754.866a18.268,18.268,0,0,1-5.512.2,1.64,1.64,0,0,0-.306-.871c-1.736.646-6.6,2.475-6.686,2.735H359.95A8.118,8.118,0,0,0,359.026,4754.866Z" transform="translate(-346.522 -4734.728)" fill="#3b1f16"/>
    </g>
    <path id="Trazado_105621" data-name="Trazado 105621" d="M297.778,4636.5c-11.943-16.72-9.82-20.7-5.043-37.156s4.659-31.258,1.711-36.33c0,0-10.214-.359-16.2-2.4-.256,18.165-5.373,34.221-19.655,39.56-14.268-5.333-19.389-21.365-19.654-39.51-6,2-16.047,2.354-16.047,2.354-2.949,5.072-3.067,19.875,1.71,36.33s6.9,20.436-5.042,37.156-18.844,43.259-14.6,64.227c14.778,1.745,53.476-4.6,67.751-9.675s39.016-19.032,49.166-7.613,16.812,17.764,20.3,17.764,17.641-.351,17.641-.351c-.512-2.5-.83-13.923-7.174-21.854s-10.785-11.737-14.908-16.5-14.546-7.218-14.546-7.218c-2.345-1.742-5.616-.859-5.616-.859-4.1,1.257-7.277-.17-10.608-6.2A59.862,59.862,0,0,0,297.778,4636.5Z" transform="translate(-33.399 -15.414)" fill="#f04f5f"/>
    <path id="Trazado_105622" data-name="Trazado 105622" d="M257.9,4617.839c6.82.317,12.25-16.021,12.25-16.021s10.747,18.4,18.677,18.558,14.432-32.2,8.247-54.083c-9.516,33.306-12.37,33.306-12.37,33.306l-7.231-2.086a24.646,24.646,0,0,1-7.365,4.305,25.223,25.223,0,0,1-12.377-10l-14.264-4.114C243.306,4601.82,251.077,4617.521,257.9,4617.839Z" transform="translate(-44.909 -17.058)" fill="#c7c7c7" style="mix-blend-mode: multiply;isolation: isolate"/>
    <path id="Trazado_105623" data-name="Trazado 105623" d="M250.162,4611.246c7.613,6.026,19.5-11.051,19.5-11.051-14.268-5.334-19.389-21.365-19.654-39.51-2.033.678-5.152-.118-7.567.231C240.878,4573.709,242.873,4605.476,250.162,4611.246Z" transform="translate(-44.47 -15.434)" fill="#ffb780"/>
    <path id="Trazado_105624" data-name="Trazado 105624" d="M300.525,4611.246c-7.613,6.026-19.5-11.051-19.5-11.051,14.269-5.334,19.388-21.365,19.654-39.51,2.034.678,5.153-.118,7.568.231C309.809,4573.709,307.813,4605.476,300.525,4611.246Z" transform="translate(-55.783 -15.434)" fill="#ffb780"/>
    <circle id="Elipse_4104" data-name="Elipse 4104" cx="2.379" cy="2.379" r="2.379" transform="translate(199.824 4604.429)" fill="#ffb780"/>
    <circle id="Elipse_4105" data-name="Elipse 4105" cx="2.379" cy="2.379" r="2.379" transform="translate(219.173 4599.195)" fill="#ffb780"/>
    <circle id="Elipse_4106" data-name="Elipse 4106" cx="2.379" cy="2.379" r="2.379" transform="translate(235.826 4604.111)" fill="#ffb780"/>
    <circle id="Elipse_4107" data-name="Elipse 4107" cx="2.379" cy="2.379" r="2.379" transform="translate(254.383 4620.448)" fill="#ffb780"/>
    <circle id="Elipse_4108" data-name="Elipse 4108" cx="2.379" cy="2.379" r="2.379" transform="translate(230.593 4629.17)" fill="#ffb780"/>
    <circle id="Elipse_4109" data-name="Elipse 4109" cx="2.379" cy="2.379" r="2.379" transform="translate(214.415 4624.729)" fill="#ffb780"/>
    <circle id="Elipse_4110" data-name="Elipse 4110" cx="2.379" cy="2.379" r="2.379" transform="translate(195.066 4633.77)" fill="#ffb780"/>
    <circle id="Elipse_4111" data-name="Elipse 4111" cx="2.379" cy="2.379" r="2.379" transform="translate(178.889 4648.043)" fill="#ffb780"/>
    <circle id="Elipse_4112" data-name="Elipse 4112" cx="2.379" cy="2.379" r="2.379" transform="translate(190.308 4662.635)" fill="#ffb780"/>
    <circle id="Elipse_4113" data-name="Elipse 4113" cx="2.379" cy="2.379" r="2.379" transform="translate(205.692 4649.789)" fill="#ffb780"/>
    <circle id="Elipse_4114" data-name="Elipse 4114" cx="2.379" cy="2.379" r="2.379" transform="translate(228.523 4667.576) rotate(-76.717)" fill="#ffb780"/>
    <circle id="Elipse_4115" data-name="Elipse 4115" cx="2.379" cy="2.379" r="2.379" transform="translate(241.37 4647.751) rotate(-76.717)" fill="#ffb780"/>
    <circle id="Elipse_4116" data-name="Elipse 4116" cx="2.379" cy="2.379" r="2.379" transform="translate(263.661 4633.294)" fill="#ffb780"/>
    <circle id="Elipse_4117" data-name="Elipse 4117" cx="2.379" cy="2.379" r="2.379" transform="translate(267.943 4653.992)" fill="#ffb780"/>
    <circle id="Elipse_4118" data-name="Elipse 4118" cx="2.379" cy="2.379" r="2.379" transform="translate(291.257 4644.237)" fill="#ffb780"/>
    <circle id="Elipse_4119" data-name="Elipse 4119" cx="2.379" cy="2.379" r="2.379" transform="translate(292.923 4661.604)" fill="#ffb780"/>
    <circle id="Elipse_4120" data-name="Elipse 4120" cx="2.379" cy="2.379" r="2.379" transform="translate(306.133 4664.522) rotate(-80.783)" fill="#ffb780"/>
    <circle id="Elipse_4121" data-name="Elipse 4121" cx="2.379" cy="2.379" r="2.379" transform="translate(314.096 4677.544)" fill="#ffb780"/>
    <path id="Rectángulo_5606" data-name="Rectángulo 5606" d="M6.978,0H37.113a6.978,6.978,0,0,1,6.978,6.978v0a0,0,0,0,1,0,0H0a0,0,0,0,1,0,0v0A6.978,6.978,0,0,1,6.978,0Z" transform="translate(137.494 4609.979)" fill="#878787"/>
    <rect id="Rectángulo_5607" data-name="Rectángulo 5607" width="48.003" height="3.383" rx="1.692" transform="translate(135.379 4616.747)" fill="#a1a1a1"/>
    <path id="Trazado_105625" data-name="Trazado 105625" d="M151.2,4730.237a2.632,2.632,0,0,1-2.216-1.206c-3.488-5.408-5.851-17.226-3.764-27.642a2.634,2.634,0,1,1,5.166,1.035c-1.9,9.491.536,19.892,3.026,23.75a2.635,2.635,0,0,1-2.212,4.063Z" transform="translate(-16.239 -55.557)" fill="#424242" style="mix-blend-mode: screen;isolation: isolate"/>
    <path id="Trazado_105626" data-name="Trazado 105626" d="M151.249,4691.84a2.634,2.634,0,0,1-2.389-3.742,27.751,27.751,0,0,1,5.367-7.827,2.635,2.635,0,0,1,3.759,3.693,22.492,22.492,0,0,0-4.345,6.348A2.635,2.635,0,0,1,151.249,4691.84Z" transform="translate(-17.45 -49.828)" fill="#424242" style="mix-blend-mode: screen;isolation: isolate"/>
    <path id="Trazado_105627" data-name="Trazado 105627" d="M278.793,4648.3c-.678.226-37.617,2.6-53.151,5.688-1.164,1.94-2.581,4.066-4.285,6.452a85.178,85.178,0,0,0-11.448,23.568c.087,3.2.593,5.456,1.4,5.862,3.169-6.488,68.44-36.812,79.165-46.566C290.47,4643.307,279.507,4648.065,278.793,4648.3Z" transform="translate(-35.195 -39.354)" fill="#c7c7c7" style="mix-blend-mode: multiply;isolation: isolate"/>
    <g id="Grupo_56588" data-name="Grupo 56588" transform="translate(171.525 4600.781)">
      <g id="Grupo_56587" data-name="Grupo 56587" transform="translate(0)">
        <path id="Trazado_105628" data-name="Trazado 105628" d="M214.4,4697.941c-6.8-5.271-9.833-13.449-8.779-23.654.823-7.961,4.047-15.517,6.694-19.168,2.63-3.627,12.274-5.142,35.313-7.976,16.418-2.018,36.051-4.537,42.074-8.3l1.269,5.233c-6.975,4.359-24.957,5.912-42.724,8.1-8.009.985-15.573,1.915-21.526,2.974-8.545,1.52-10.083,2.719-10.317,2.966-1.89,2.616-4.968,9.205-5.743,16.7-.6,5.838.094,13.9,6.843,19.128Zm2-39.822Z" transform="translate(-205.421 -4638.843)" fill="#ffb780"/>
      </g>
    </g>
    <g id="Grupo_56591" data-name="Grupo 56591" transform="translate(149.105 4590.63)">
      <path id="Trazado_105629" data-name="Trazado 105629" d="M195.181,4654.278s4.456,3.675,6.294,3.95,7.948,1.654,7.948,1.654-2.3,1.515-2.527,1.562-7.81-.184-7.81-.184l-4.777-1.792Z" transform="translate(-179.784 -4633.161)" fill="#f57954"/>
      <path id="Trazado_105630" data-name="Trazado 105630" d="M188.674,4749.756a6.8,6.8,0,0,1-.689,2.572,6.5,6.5,0,0,0-.505,2.895h11.944c-.322-.6-3.859-1.883-4.87-2.711a9.169,9.169,0,0,1-1.837-3.123Z" transform="translate(-177.805 -4660.697)" fill="#ff8762"/>
      <path id="Trazado_105631" data-name="Trazado 105631" d="M194.554,4753.589a3.023,3.023,0,0,1-.458-.48,12.712,12.712,0,0,1-2.54.848,7.361,7.361,0,0,1-3.648-.408,6.881,6.881,0,0,0-.428,2.75h11.944C199.1,4755.7,195.565,4754.417,194.554,4753.589Z" transform="translate(-177.805 -4661.773)" fill="#2b1710"/>
      <path id="Trazado_105632" data-name="Trazado 105632" d="M177.4,4749.756a6.817,6.817,0,0,1-.689,2.572,6.484,6.484,0,0,0-.505,2.895h11.943c-.321-.6-3.859-1.883-4.869-2.711a9.162,9.162,0,0,1-1.838-3.123Z" transform="translate(-174.54 -4660.697)" fill="#ff8762"/>
      <path id="Trazado_105633" data-name="Trazado 105633" d="M188.091,4672.873c-2.48,2.792-2.584,9.613-2.894,14.988s.827,13.541.31,16.021,1.138,24.083,1.138,24.083l7.751-.413-.517-42.792-3.307-14.263Z" transform="translate(-177.13 -4637.856)" fill="#0075a4"/>
      <path id="Trazado_105634" data-name="Trazado 105634" d="M176.814,4673.368c-2.481,2.791-2.584,9.614-2.894,14.988s.826,13.541.31,16.021,1.137,24.083,1.137,24.083l7.752-.414-.517-42.792-3.308-14.264Z" transform="translate(-173.865 -4637.999)" fill="#39a4ce"/>
      <path id="Trazado_105635" data-name="Trazado 105635" d="M179.3,4644.029c-2.3,1.034-3.744,3.239-2.848,7.374s2.963,8.476,2.136,11.3c.414.413-.23.6-.23.6-.6.643-1.631,2.366-1.355,2.5,1.93,1.171,5.168.964,5.168.964l6.822-13.712,2-2.137a53.354,53.354,0,0,0-4.295-3.881Z" transform="translate(-174.536 -4630.193)" fill="#6295c7"/>
      <path id="Trazado_105636" data-name="Trazado 105636" d="M181.2,4643.189l-1.079.6a13.192,13.192,0,0,1,4.112,5.582,8.515,8.515,0,0,0,1.7,2.619l-.276.321-4,3.4c.229,2.526.643,6.8-2.251,6.753a4.047,4.047,0,0,0-.23.6c1.149,1.056.058,12.5-.149,18.18s7.752,6.924,14.264,4.961c.207-11.369-2.791-23.566-3.1-26.046s1.034-8.166.827-9.3-3.5-4.054-3.5-4.054Z" transform="translate(-175.36 -4629.95)" fill="#2b1710"/>
      <path id="Trazado_105637" data-name="Trazado 105637" d="M182.639,4635.084c-5.444-2.412-4.341-11.3,3.135-10.475,3.238.724,4.858,3.412,3.928,6.478s-.517,4.031.035,4.376-2.377,1.482-4.238.619A11.5,11.5,0,0,0,182.639,4635.084Z" transform="translate(-175.419 -4624.555)" fill="#2b1710"/>
      <path id="Trazado_105638" data-name="Trazado 105638" d="M186.788,4626.41c-.758,2.779-3.1,3.7-3.514,3.561a3.2,3.2,0,0,1-.322.758c-.138-.78-1.837-.712-1.677.873a2.066,2.066,0,0,0,1.768,1.792,6.844,6.844,0,0,1-1.194,4.938c.529,1.563,4.433,4.479,6.317,3.607a6.19,6.19,0,0,1-1.516-5.468c.988-.045,1.539-1.1,1.768-1.607a11.175,11.175,0,0,0,.735-2.756c.046-.758.367-1.493.367-2.136A3.9,3.9,0,0,0,186.788,4626.41Z" transform="translate(-176.007 -4625.092)" fill="#ff8762"/>
      <path id="Trazado_105639" data-name="Trazado 105639" d="M187.988,4637.157c.885-.092,1.643-.368,2,.091C189.6,4638.34,188.448,4638.006,187.988,4637.157Z" transform="translate(-177.954 -4628.156)" fill="#b02d28"/>
      <ellipse id="Elipse_4122" data-name="Elipse 4122" cx="0.327" cy="0.5" rx="0.327" ry="0.5" transform="translate(9.856 5.687)" fill="#2b1710"/>
      <path id="Trazado_105640" data-name="Trazado 105640" d="M191.706,4633.287c0,.276-.146.5-.328.5s-.328-.223-.328-.5.147-.5.328-.5S191.706,4633.011,191.706,4633.287Z" transform="translate(-178.841 -4626.938)" fill="#2b1710"/>
      <path id="Trazado_105641" data-name="Trazado 105641" d="M190.133,4634.984a.053.053,0,0,1,0-.106,2.511,2.511,0,0,0,1.071-.378c0-.03-.131-.112-.215-.167a1.129,1.129,0,0,1-.409-.367,3.194,3.194,0,0,1,.02-1.966.053.053,0,0,1,.1.027,3.17,3.17,0,0,0-.027,1.894,1.083,1.083,0,0,0,.371.323c.175.115.315.206.247.313a2.413,2.413,0,0,1-1.157.426Z" transform="translate(-178.559 -4626.7)" fill="#2b1710"/>
      <path id="Trazado_105642" data-name="Trazado 105642" d="M189.842,4636.04a.057.057,0,0,1-.028-.008.053.053,0,0,1-.017-.072.432.432,0,0,1,.445-.186.052.052,0,0,1,.043.061.052.052,0,0,1-.061.042.328.328,0,0,0-.336.138A.055.055,0,0,1,189.842,4636.04Z" transform="translate(-178.475 -4627.801)" fill="#2b1710"/>
      <path id="Trazado_105643" data-name="Trazado 105643" d="M189.574,4636.073a.051.051,0,0,1-.035-.013.429.429,0,0,1-.141-.46.053.053,0,1,1,.1.037.326.326,0,0,0,.112.344.054.054,0,0,1,0,.075A.053.053,0,0,1,189.574,4636.073Z" transform="translate(-178.357 -4627.743)" fill="#e0b3a8" style="mix-blend-mode: multiply;isolation: isolate"/>
      <path id="Trazado_105644" data-name="Trazado 105644" d="M189.006,4637.427a2.962,2.962,0,0,1-1.587-.424.053.053,0,1,1,.061-.086,2.517,2.517,0,0,0,2.411.169.052.052,0,0,1,.075,0,.053.053,0,0,1,0,.074A1.377,1.377,0,0,1,189.006,4637.427Z" transform="translate(-177.783 -4628.131)" fill="#2b1710"/>
      <path id="Trazado_105645" data-name="Trazado 105645" d="M186.582,4631.491a3.4,3.4,0,0,1,2.068.138C188.11,4630.768,186.973,4630.63,186.582,4631.491Z" transform="translate(-177.547 -4626.396)" fill="#2b1710"/>
      <path id="Trazado_105646" data-name="Trazado 105646" d="M191.2,4631.877a1.14,1.14,0,0,1,.907.288A.512.512,0,0,0,191.2,4631.877Z" transform="translate(-178.885 -4626.621)" fill="#2b1710"/>
      <path id="Trazado_105647" data-name="Trazado 105647" d="M183.079,4634.659a.679.679,0,0,1-.441-.16.65.65,0,0,1-.23-.607.876.876,0,0,1,.6-.617.881.881,0,0,0-.593-.412c-.2-.008-.4.126-.593.4a.053.053,0,0,1-.073.014.053.053,0,0,1-.013-.074.836.836,0,0,1,.685-.444c.416.016.7.5.713.517a.052.052,0,0,1,0,.045.053.053,0,0,1-.032.031.809.809,0,0,0-.59.56.544.544,0,0,0,.194.508.585.585,0,0,0,.59.1.053.053,0,0,1,.068.031.053.053,0,0,1-.031.068A.76.76,0,0,1,183.079,4634.659Z" transform="translate(-176.14 -4626.93)" fill="#e0b3a8" style="mix-blend-mode: multiply;isolation: isolate"/>
      <path id="Trazado_105648" data-name="Trazado 105648" d="M187.223,4639.8a4.708,4.708,0,0,1-3.1-2,.053.053,0,1,1,.088-.058,4.585,4.585,0,0,0,3.01,1.951.053.053,0,0,1,.053.053A.054.054,0,0,1,187.223,4639.8Z" transform="translate(-176.833 -4628.365)" fill="#e0b3a8" style="mix-blend-mode: multiply;isolation: isolate"/>
      <path id="Trazado_105649" data-name="Trazado 105649" d="M181.054,4658.872c2.8-1.424,5.191-2.849,5.191-2.849s4.777,5.054,5.88,5.33,11.99-.322,11.99-.322a2.737,2.737,0,0,1,1.332-1.929,2.642,2.642,0,0,0,1.1-.919,1.117,1.117,0,0,1-.414,1.288c-.506.321,5.145,2.2,4.272,2.434s-2.113-.183-1.424.275-.919.506-.919.506c-.735.5-3.95-.184-4.41.091s-11.117,2.665-12.358,2.573S181.054,4658.872,181.054,4658.872Z" transform="translate(-175.946 -4633.665)" fill="#ff8762"/>
      <path id="Trazado_105650" data-name="Trazado 105650" d="M179.948,4658.84a.053.053,0,0,1-.043-.021c-.2-.271-1.454-1.636-1.466-1.65a.053.053,0,0,1,.078-.071c.051.057,1.268,1.382,1.473,1.658a.052.052,0,0,1-.011.074A.051.051,0,0,1,179.948,4658.84Z" transform="translate(-175.185 -4633.972)" fill="#c7c7c7" style="mix-blend-mode: multiply;isolation: isolate"/>
      <path id="Trazado_105651" data-name="Trazado 105651" d="M177.153,4648.525a.057.057,0,0,1-.028-.008.054.054,0,0,1-.017-.073,3.043,3.043,0,0,1,2.376-1.437,2.693,2.693,0,0,1,2.234.81.052.052,0,0,1-.006.074.051.051,0,0,1-.074-.005,2.588,2.588,0,0,0-2.146-.774,2.939,2.939,0,0,0-2.294,1.388A.053.053,0,0,1,177.153,4648.525Z" transform="translate(-174.802 -4631.053)" fill="#c7c7c7" style="mix-blend-mode: multiply;isolation: isolate"/>
      <g id="Grupo_56589" data-name="Grupo 56589" transform="translate(0.227 30.959)">
        <path id="Trazado_105652" data-name="Trazado 105652" d="M179.232,4670.327a.5.5,0,1,1-.5-.5A.5.5,0,0,1,179.232,4670.327Z" transform="translate(-175.356 -4668.622)" fill="#2b1710"/>
        <path id="Trazado_105653" data-name="Trazado 105653" d="M177.647,4669.508a2.8,2.8,0,0,0-3.463-1.171,4.547,4.547,0,0,0,3.307,1.378l-.293.207a1.293,1.293,0,0,0-.9,1.326c.758-.1.965-1.12,1.017-1.136A4.25,4.25,0,0,0,177.647,4669.508Z" transform="translate(-174.184 -4668.13)" fill="#2b1710"/>
      </g>
      <g id="Grupo_56590" data-name="Grupo 56590" transform="translate(3.522 10.491)">
        <path id="Trazado_105654" data-name="Trazado 105654" d="M180.881,4643.383a.38.38,0,1,1,.107-.526A.381.381,0,0,1,180.881,4643.383Z" transform="translate(-179.247 -4640.295)" fill="#2b1710"/>
        <path id="Trazado_105655" data-name="Trazado 105655" d="M180.49,4642.009a2.131,2.131,0,0,0-.713-2.687,3.46,3.46,0,0,0,.517,2.676l-.254-.1a.983.983,0,0,0-1.217-.009c.384.437,1.115.14,1.148.166A3.221,3.221,0,0,0,180.49,4642.009Z" transform="translate(-178.822 -4639.321)" fill="#2b1710"/>
      </g>
      <path id="Trazado_105656" data-name="Trazado 105656" d="M183.277,4753.589a3.02,3.02,0,0,1-.458-.48,12.73,12.73,0,0,1-2.54.848,7.361,7.361,0,0,1-3.648-.408,6.874,6.874,0,0,0-.429,2.75h11.944C187.825,4755.7,184.287,4754.417,183.277,4753.589Z" transform="translate(-174.54 -4661.773)" fill="#45251a"/>
      <circle id="Elipse_4123" data-name="Elipse 4123" cx="0.528" cy="0.528" r="0.528" transform="translate(6.451 7.979)" fill="#fff"/>
    </g>
    <path id="Trazado_105657" data-name="Trazado 105657" d="M230.517,4658.169a.2.2,0,0,1-.2-.154l-.529-2.167a.2.2,0,1,1,.394-.1l.529,2.167a.2.2,0,0,1-.149.245A.2.2,0,0,1,230.517,4658.169Z" transform="translate(-40.95 -42.912)" fill="#b57c50"/>
    <path id="Trazado_105658" data-name="Trazado 105658" d="M214.48,4668.768a.2.2,0,0,1-.217.125l-2.209-.317a.2.2,0,0,1,.058-.4l2.208.317a.2.2,0,0,1,.172.229A.243.243,0,0,1,214.48,4668.768Z" transform="translate(-35.766 -46.553)" fill="#b57c50"/>
    <path id="Trazado_105659" data-name="Trazado 105659" d="M210.127,4680.264a.2.2,0,0,1-.217.126l-2.208-.318a.2.2,0,0,1,.058-.4l2.208.317a.2.2,0,0,1,.172.229A.24.24,0,0,1,210.127,4680.264Z" transform="translate(-34.506 -49.881)" fill="#b57c50"/>
    <path id="Trazado_105660" data-name="Trazado 105660" d="M208.174,4694.16a.2.2,0,0,1-.217.125l-2.209-.317a.2.2,0,1,1,.058-.4l2.209.317a.2.2,0,0,1,.171.229A.23.23,0,0,1,208.174,4694.16Z" transform="translate(-33.94 -53.905)" fill="#b57c50"/>
    <path id="Trazado_105661" data-name="Trazado 105661" d="M210.8,4708.67a.2.2,0,0,1-.217.124l-2.209-.317a.2.2,0,1,1,.058-.4l2.209.317a.2.2,0,0,1,.171.23A.212.212,0,0,1,210.8,4708.67Z" transform="translate(-34.7 -58.105)" fill="#b57c50"/>
    <path id="Trazado_105662" data-name="Trazado 105662" d="M243.576,4656.272a.2.2,0,0,1-.2-.155l-.529-2.167a.2.2,0,0,1,.394-.1l.529,2.168a.2.2,0,0,1-.149.245A.233.233,0,0,1,243.576,4656.272Z" transform="translate(-44.731 -42.363)" fill="#b57c50"/>
    <path id="Trazado_105663" data-name="Trazado 105663" d="M254.961,4654.71a.2.2,0,0,1-.2-.154l-.529-2.168a.2.2,0,1,1,.394-.1l.529,2.167a.2.2,0,0,1-.148.245A.209.209,0,0,1,254.961,4654.71Z" transform="translate(-48.027 -41.911)" fill="#b57c50"/>
    <path id="Trazado_105664" data-name="Trazado 105664" d="M269.136,4652.813a.2.2,0,0,1-.2-.154l-.529-2.168a.2.2,0,0,1,.394-.1l.529,2.168a.2.2,0,0,1-.148.245A.209.209,0,0,1,269.136,4652.813Z" transform="translate(-52.13 -41.362)" fill="#b57c50"/>
    <path id="Trazado_105665" data-name="Trazado 105665" d="M282.976,4650.915a.2.2,0,0,1-.2-.155l-.529-2.168a.2.2,0,1,1,.394-.1l.529,2.167a.2.2,0,0,1-.148.245A.186.186,0,0,1,282.976,4650.915Z" transform="translate(-56.137 -40.812)" fill="#b57c50"/>
    <path id="Trazado_105666" data-name="Trazado 105666" d="M298.49,4648.906a.2.2,0,0,1-.2-.154l-.529-2.168a.2.2,0,0,1,.394-.1l.529,2.168a.2.2,0,0,1-.149.245A.2.2,0,0,1,298.49,4648.906Z" transform="translate(-60.629 -40.23)" fill="#b57c50"/>
    <path id="Trazado_105667" data-name="Trazado 105667" d="M315.009,4645.446a.2.2,0,0,1-.2-.155l-.529-2.167a.2.2,0,1,1,.394-.1l.529,2.168a.2.2,0,0,1-.149.244A.164.164,0,0,1,315.009,4645.446Z" transform="translate(-65.411 -39.229)" fill="#b57c50"/>
    <path id="Trazado_105668" data-name="Trazado 105668" d="M382.535,4727.369a.406.406,0,0,1-.388-.288,53.4,53.4,0,0,0-25.7-31.712c-7.2-3.813-13.216-4.646-15.982-3.783a21.755,21.755,0,0,1-15.575-1.029c-6.966-3.2-12.539-9.976-16.564-20.144a.405.405,0,1,1,.754-.3c7.9,19.967,21.269,23.783,31.143,20.7,3.572-1.116,10.089.391,16.6,3.839a52.953,52.953,0,0,1,14.878,11.845,54.807,54.807,0,0,1,11.216,20.35.4.4,0,0,1-.271.5A.391.391,0,0,1,382.535,4727.369Z" transform="translate(-63.681 -47.041)" fill="#c7c7c7" style="mix-blend-mode: multiply;isolation: isolate"/>
    <path id="Trazado_105669" data-name="Trazado 105669" d="M274.994,4713.206a66.139,66.139,0,0,1-14.144-1.438,43.018,43.018,0,0,1-19.379-9.388.405.405,0,1,1,.534-.61c11.565,10.1,27.639,11.231,39.087,10.4a98.654,98.654,0,0,0,22.369-4.293.405.405,0,0,1,.264.767,99.524,99.524,0,0,1-22.555,4.333Q278.013,4713.206,274.994,4713.206Z" transform="translate(-44.293 -56.251)" fill="#c7c7c7" style="mix-blend-mode: multiply;isolation: isolate"/>
    <path id="Trazado_105670" data-name="Trazado 105670" d="M240.148,4735.813a74.382,74.382,0,0,1-17.592-1.967.405.405,0,0,1,.193-.787c16.014,3.911,33.71,1.19,45.735-1.781A145.816,145.816,0,0,0,291,4723.8a.405.405,0,1,1,.334.738,146.666,146.666,0,0,1-22.64,7.518A121.5,121.5,0,0,1,240.148,4735.813Z" transform="translate(-38.767 -62.649)" fill="#c7c7c7" style="mix-blend-mode: multiply;isolation: isolate"/>
    <path id="Trazado_105671" data-name="Trazado 105671" d="M391.393,4740.157a.405.405,0,0,1-.393-.3c-.026-.1-2.831-10.209-21.219-20.685a.405.405,0,0,1,.4-.7c9.766,5.563,15.111,11,17.874,14.588a20.535,20.535,0,0,1,3.729,6.6.4.4,0,0,1-.293.492A.4.4,0,0,1,391.393,4740.157Z" transform="translate(-81.421 -61.097)" fill="#c7c7c7" style="mix-blend-mode: multiply;isolation: isolate"/>
  </g>
</svg>
