<svg xmlns="http://www.w3.org/2000/svg" width="479.032" height="222.999" viewBox="0 0 479.032 222.999">
  <g id="Grupo_53846" data-name="Grupo 53846" transform="translate(-1734.149 -1301.564)">
    <path id="Trazado_100529" data-name="Trazado 100529" d="M2213.1,1514.172c-.146.331-25.632.726-25.815,1.057h-43.43l-12.711-.032H2017.329l-33.24-.034h-87.628l-36.6-.032h-66.186s-.11-.266-.33-.8l-.036-.066a.316.316,0,0,1-.036-.1c-.146-.266-58.485-74.909,32.21-126.872,35.486-20.331-2.222-33.754,26-56.386,38.16-30.607,80.421,14.64,123.048-19.608,41.677-33.453,129.347-18.136,165.276,11.6,4.711,3.9,28.289,17.76,11.4,45.495-10.662,17.509,20.81,21.856,36.6,22.877C2241.818,1394.762,2213.469,1513.508,2213.1,1514.172Z" transform="translate(-16.252 9.194)" fill="#ffe8de"/>
    <path id="Trazado_100530" data-name="Trazado 100530" d="M2269.876,1381.832h0a.9.9,0,0,1-.9-.9v-39.189a.9.9,0,0,1,.9-.9h0a.9.9,0,0,1,.9.9v39.189A.9.9,0,0,1,2269.876,1381.832Z" transform="translate(-214.507 -18.966)" fill="#62c4c2"/>
    <rect id="Rectángulo_5177" data-name="Rectángulo 5177" width="479.032" height="1.271" rx="0.635" transform="translate(1734.149 1523.293)" fill="#2d3554"/>
    <g id="Grupo_53835" data-name="Grupo 53835" transform="translate(1848.888 1308.385)">
      <g id="Grupo_53824" data-name="Grupo 53824" transform="translate(0 18.432)">
        <g id="Grupo_53814" data-name="Grupo 53814" transform="translate(43.093 135.523)">
          <path id="Trazado_100531" data-name="Trazado 100531" d="M1999.6,1580.325a2.236,2.236,0,0,1-1.256-.384,1.346,1.346,0,0,1-.44-1.9,7.408,7.408,0,0,0,.862-2.661l.265.017a7.483,7.483,0,0,1-.888,2.737,1.147,1.147,0,0,0,.371,1.647,1.841,1.841,0,0,0,1.886.134l.152.176A1.932,1.932,0,0,1,1999.6,1580.325Z" transform="translate(-1997.676 -1575.375)" fill="#ff912b"/>
        </g>
        <path id="Trazado_100532" data-name="Trazado 100532" d="M2164.511,1424.622v138.3a9.8,9.8,0,0,1-9.8,9.8H1935.718a9.924,9.924,0,0,1-9.942-8.8c-.025-.247-.041-.5-.047-.749,0-.085,0-.168,0-.253v-33.788c0-.262.011-.524.031-.782a10.046,10.046,0,0,1,7.607-3.449h134.3a12.3,12.3,0,0,0,12.249-10.42,11.968,11.968,0,0,0,.122-1.715v-31.54a11.257,11.257,0,0,0-.668-3.832,11.711,11.711,0,0,0-11.052-7.664h-47.8c-10.319,0-19.342,7.163-24.237,16.439a34.015,34.015,0,0,0-3.141,8.449,5.029,5.029,0,0,1-3.052,1.023h-42.784a8.222,8.222,0,0,1-8.3-8.138v-62.49a12.885,12.885,0,0,1,.188-2.206,13.71,13.71,0,0,1,11.109-5.608h203.3a13.31,13.31,0,0,1,10.75,5.4A12.952,12.952,0,0,1,2164.511,1424.622Z" transform="translate(-1925.725 -1376.41)" fill="#95dbdb"/>
        <path id="Trazado_100533" data-name="Trazado 100533" d="M2164.511,1420.891v138.3a9.8,9.8,0,0,1-9.8,9.8H1935.526a9.8,9.8,0,0,1-9.75-8.8c-.025-.247-.041-.5-.047-.749,0-.085,0-.168,0-.253V1525.4c0-.262.011-.523.031-.782a9.8,9.8,0,0,1,9.77-9.017h131.708a12.135,12.135,0,0,0,12.134-12.134v-31.543a11.494,11.494,0,0,0-11.495-11.5H2021c-12.071,0-22.335,10.2-26.076,22.009a33.11,33.11,0,0,0-1.2,5.211,5,5,0,0,1-1.879,3.238,4.861,4.861,0,0,1-2.99,1.023h-41.96a8.139,8.139,0,0,1-8.138-8.138v-62.49a13.374,13.374,0,0,1,13.385-13.385h199.38a12.988,12.988,0,0,1,13,13Z" transform="translate(-1925.725 -1372.68)" fill="#f7f9ff"/>
        <rect id="Rectángulo_5178" data-name="Rectángulo 5178" width="4.643" height="16.398" transform="translate(43.439 119.135)" fill="#25468f"/>
        <rect id="Rectángulo_5179" data-name="Rectángulo 5179" width="5.439" height="2.918" transform="translate(48.082 123.075)" fill="#25468f"/>
        <path id="Trazado_100534" data-name="Trazado 100534" d="M2014.163,1555.191a2.743,2.743,0,1,1,2.743,2.743A2.743,2.743,0,0,1,2014.163,1555.191Z" transform="translate(-1961.196 -1430.657)" fill="#25468f"/>
        <rect id="Rectángulo_5180" data-name="Rectángulo 5180" width="3.051" height="2.404" transform="translate(41.051 130.156)" fill="#25468f"/>
        <rect id="Rectángulo_5181" data-name="Rectángulo 5181" width="7.075" height="4.599" transform="translate(52.173 30.523)" fill="#25468f"/>
        <path id="Trazado_100535" data-name="Trazado 100535" d="M2271.953,1381.294H2256.3a2.68,2.68,0,0,1-2.677-2.832l.255-4.39v-.041l.172-2.959.476-8.247.152-2.6.364-6.3.135-2.3a2.678,2.678,0,0,1,2.672-2.525h12.272a2.653,2.653,0,0,1,1.21.289,2.688,2.688,0,0,1,1.465,2.208l.126,1.849.361,5.321.057.84.595,8.76.476,7.009.209,3.062A2.68,2.68,0,0,1,2271.953,1381.294Z" transform="translate(-2057.239 -1349.096)" fill="#ff912b"/>
        <g id="Grupo_53815" data-name="Grupo 53815" transform="translate(45.54 35.039)">
          <path id="Trazado_100536" data-name="Trazado 100536" d="M2012.153,1480.336h-10.391v-72.653h.442v72.211h9.507V1407.6h.442Z" transform="translate(-2001.762 -1407.6)" fill="#95dbdb"/>
        </g>
        <path id="Rectángulo_5182" data-name="Rectángulo 5182" d="M0,0H5.291a4.7,4.7,0,0,1,4.7,4.7V34.423a4.7,4.7,0,0,1-4.7,4.7H0a0,0,0,0,1,0,0V0A0,0,0,0,1,0,0Z" transform="translate(238.787 55.586)" fill="#fc7600"/>
        <rect id="Rectángulo_5183" data-name="Rectángulo 5183" width="33.076" height="0.781" transform="translate(28.626 142.045)" fill="#95dbdb"/>
        <path id="Trazado_100537" data-name="Trazado 100537" d="M2000,1434.624l-3.184-3.714v-23.171H2000Z" transform="translate(-1954.238 -1372.616)" fill="#25468f"/>
        <g id="Grupo_53816" data-name="Grupo 53816" transform="translate(45.54 107.554)">
          <rect id="Rectángulo_5184" data-name="Rectángulo 5184" width="0.442" height="11.581" fill="#95dbdb"/>
        </g>
        <g id="Grupo_53817" data-name="Grupo 53817" transform="translate(0 186.192)">
          <rect id="Rectángulo_5185" data-name="Rectángulo 5185" width="238.787" height="0.442" fill="#95dbdb"/>
        </g>
        <g id="Grupo_53818" data-name="Grupo 53818" transform="translate(68.07 45.027)">
          <path id="Trazado_100538" data-name="Trazado 100538" d="M2039.379,1426.046a1.768,1.768,0,1,1,1.768,1.769A1.769,1.769,0,0,1,2039.379,1426.046Z" transform="translate(-2039.379 -1424.277)" fill="#25468f"/>
          <path id="Trazado_100539" data-name="Trazado 100539" d="M2050.971,1426.046a1.769,1.769,0,1,1,1.769,1.769A1.768,1.768,0,0,1,2050.971,1426.046Z" transform="translate(-2044.029 -1424.277)" fill="#25468f"/>
          <path id="Trazado_100540" data-name="Trazado 100540" d="M2062.562,1426.046a1.769,1.769,0,1,1,1.769,1.769A1.769,1.769,0,0,1,2062.562,1426.046Z" transform="translate(-2048.677 -1424.277)" fill="#25468f"/>
        </g>
        <rect id="Rectángulo_5186" data-name="Rectángulo 5186" width="1.15" height="6.191" transform="translate(55.157 25.969)" fill="#25468f"/>
        <path id="Trazado_100541" data-name="Trazado 100541" d="M2002.111,1581.9H2002l-.363-6.512h.85Z" transform="translate(-1956.173 -1439.859)" fill="#25468f"/>
        <path id="Trazado_100542" data-name="Trazado 100542" d="M2004.341,1581.9h-.108l-.362-6.512h.85Z" transform="translate(-1957.068 -1439.859)" fill="#25468f"/>
        <g id="Grupo_53819" data-name="Grupo 53819" transform="translate(44.454 140.862)">
          <path id="Trazado_100543" data-name="Trazado 100543" d="M2003.222,1585.472h-2.436a.877.877,0,0,1-.837-.91.252.252,0,1,1,.5,0,.351.351,0,0,0,.335.364h2.436a.351.351,0,0,0,.335-.364.252.252,0,1,1,.5,0A.877.877,0,0,1,2003.222,1585.472Z" transform="translate(-1999.949 -1584.289)" fill="#32478f"/>
        </g>
        <g id="Grupo_53823" data-name="Grupo 53823" transform="translate(193.831 131.36)">
          <g id="Grupo_53821" data-name="Grupo 53821" transform="translate(0 9.4)">
            <path id="Trazado_100544" data-name="Trazado 100544" d="M2260.78,1591.288h-7.652a3.409,3.409,0,0,1-3.4-3.4h0a3.409,3.409,0,0,1,3.4-3.4h7.652a3.409,3.409,0,0,1,3.4,3.4h0A3.409,3.409,0,0,1,2260.78,1591.288Z" transform="translate(-2249.508 -1584.268)" fill="#ff912b"/>
            <g id="Grupo_53820" data-name="Grupo 53820">
              <path id="Trazado_100545" data-name="Trazado 100545" d="M2276.064,1591.361H2252.9a3.541,3.541,0,0,1-3.537-3.538v-.165a3.542,3.542,0,0,1,3.537-3.538h23.167a3.542,3.542,0,0,1,3.538,3.538v.165A3.541,3.541,0,0,1,2276.064,1591.361Zm-23.167-6.8a3.1,3.1,0,0,0-3.1,3.1v.165a3.1,3.1,0,0,0,3.1,3.1h23.167a3.1,3.1,0,0,0,3.1-3.1v-.165a3.1,3.1,0,0,0-3.1-3.1Z" transform="translate(-2249.36 -1584.12)" fill="#fc7600"/>
            </g>
          </g>
          <g id="Grupo_53822" data-name="Grupo 53822" transform="translate(2.29)">
            <path id="Trazado_100546" data-name="Trazado 100546" d="M2254.122,1573.4h0a.941.941,0,0,1-.939-.938v-3.093a.942.942,0,0,1,.939-.939h0a.942.942,0,0,1,.939.939v3.093A.942.942,0,0,1,2254.122,1573.4Z" transform="translate(-2253.183 -1568.425)" fill="#25468f"/>
            <path id="Trazado_100547" data-name="Trazado 100547" d="M2274.964,1573.4h0a.941.941,0,0,1-.939-.938v-3.093a.942.942,0,0,1,.939-.939h0a.942.942,0,0,1,.939.939v3.093A.942.942,0,0,1,2274.964,1573.4Z" transform="translate(-2261.542 -1568.425)" fill="#25468f"/>
            <path id="Trazado_100548" data-name="Trazado 100548" d="M2295.806,1573.4h0a.941.941,0,0,1-.939-.938v-3.093a.942.942,0,0,1,.939-.939h0a.941.941,0,0,1,.939.939v3.093A.941.941,0,0,1,2295.806,1573.4Z" transform="translate(-2269.902 -1568.425)" fill="#25468f"/>
          </g>
        </g>
        <path id="Trazado_100549" data-name="Trazado 100549" d="M2254.823,1369.3s8.308.962,18.756-4.06l.324,4.759s-4.992,6.177-19.557,7.548Z" transform="translate(-2057.529 -1355.571)" fill="#fc7600" opacity="0.3"/>
        <path id="Trazado_100550" data-name="Trazado 100550" d="M2274.419,1388.275a25.959,25.959,0,0,1-8.321,5.922H2256.3a2.68,2.68,0,0,1-2.677-2.832l.255-4.389v-.041a60.9,60.9,0,0,0,20.058-5.668Z" transform="translate(-2057.239 -1361.999)" fill="#fc7600" opacity="0.5"/>
        <path id="Trazado_100551" data-name="Trazado 100551" d="M2273.641,1353.635c-1.762,1.624-7.123,5.612-18.244,6.785l.363-6.3a26.874,26.874,0,0,0,16.289-4.539,2.686,2.686,0,0,1,1.466,2.208Z" transform="translate(-2057.95 -1349.289)" fill="#fc7600" opacity="0.5"/>
      </g>
      <g id="Grupo_53830" data-name="Grupo 53830" transform="translate(45.692)">
        <g id="Grupo_53825" data-name="Grupo 53825" transform="translate(0 34.193)">
          <path id="Trazado_100552" data-name="Trazado 100552" d="M2002.153,1394.843l-.138-.141,9.424-9.18.037,0c32.848-1.615,63.9-10.024,64.214-10.109l.052.191c-.31.085-31.363,8.493-64.22,10.114Z" transform="translate(-2002.015 -1375.411)" fill="#ff912b"/>
        </g>
        <g id="Grupo_53827" data-name="Grupo 53827" transform="translate(55.257)">
          <g id="Grupo_53826" data-name="Grupo 53826">
            <path id="Trazado_100553" data-name="Trazado 100553" d="M2151.945,1438.2a.949.949,0,0,1,.169,1.013l0,.005a6.294,6.294,0,0,1-1.988,2.181c-.12.1-.227.184-.319.266l-.071.064-.055.05c-.874.806-.545.991-2.115,2.625-1.79,1.863-3.023,1.9-3.374,1.727-.3-.144.306-1.132.974-2.243.032-.053.064-.108.1-.162l.266-.446c.783-1.336.581-1.963.4-3.952-.151-1.616-2.515-9.03-2.515-9.03l3.431-.591s1.033,5.9,2.171,6.813c.609.484,1.29.49,1.875.85.041.025.082.05.122.077A4.5,4.5,0,0,1,2151.945,1438.2Z" transform="translate(-2113.981 -1362.995)" fill="#ffae73"/>
            <path id="Trazado_100554" data-name="Trazado 100554" d="M2152.417,1443.331a.948.948,0,0,1,.169,1.013l0,0a7.28,7.28,0,0,1-1.991,2.174c-.119.1-.223.188-.316.273l-.071.064-.055.05c-.874.806-.545.99-2.115,2.625-1.791,1.863-3.024,1.9-3.374,1.727-.3-.145.306-1.133.974-2.243a7.627,7.627,0,0,0,3.192-2.351c1.078-1.376,1.8-3.144,2.531-4.167.042.025.083.05.122.077A4.506,4.506,0,0,1,2152.417,1443.331Z" transform="translate(-2114.452 -1368.126)" fill="#1e3865"/>
            <path id="Trazado_100555" data-name="Trazado 100555" d="M2104.573,1435.358c-.212,1.059-1.721.882-3.408.47s-1.285.078-3.686-.188-3.127-1.161-3.2-1.517c-.066-.317,1.121-.428,2.393-.575l.482-.057c1.436-.18,2.488-1.107,3.793-1.868,1.236-.721,3.08-3.659,3.08-3.659l3.292.26s-1.727,2.624-2.4,3.765a3.981,3.981,0,0,0-.323,2.244A4.223,4.223,0,0,1,2104.573,1435.358Z" transform="translate(-2094.275 -1362.296)" fill="#ffae73"/>
            <path id="Trazado_100556" data-name="Trazado 100556" d="M2101.165,1439.568c-1.687-.412-1.285.078-3.686-.188s-3.127-1.161-3.2-1.518c-.066-.316,1.121-.428,2.393-.575l.012.025a6.767,6.767,0,0,0,3.438,1.069c1.628.039,3.354-.427,4.478-.409a4.226,4.226,0,0,1-.026,1.126C2104.361,1440.156,2102.852,1439.98,2101.165,1439.568Z" transform="translate(-2094.275 -1366.035)" fill="#1e3865"/>
            <path id="Trazado_100557" data-name="Trazado 100557" d="M2132.534,1401.63l3.077,8.281,4.018,10.813a6.522,6.522,0,0,0,2.135-.2,9.258,9.258,0,0,0,2.064-1s-1.116-11.61-3.2-18.274a11.864,11.864,0,0,0-1.791-3.873C2135.614,1393.564,2132.534,1401.63,2132.534,1401.63Z" transform="translate(-2109.62 -1349.618)" fill="#fc7600"/>
            <path id="Trazado_100558" data-name="Trazado 100558" d="M2125.571,1382.1c2.016-.65,7.766.185,13.543,1.316l1.209-1.995,12.476-.974s4.117,9.13,1.864,14.948a2.11,2.11,0,0,1-2.112,1.421h-.182s-7.426,0-9.837,0c-6.2,0-13.131-4.265-14.028-4.445-1.466-.293-2.053,2.64-3.52,5.72s-13.786,13.64-13.786,13.64a10.866,10.866,0,0,1-2.676-.274,2.639,2.639,0,0,1-1.149-.725S2121.024,1383.564,2125.571,1382.1Z" transform="translate(-2099.529 -1343.237)" fill="#ff912b"/>
            <path id="Trazado_100559" data-name="Trazado 100559" d="M2157.126,1338.031c3.762,3.4,12.939,9.435,12.993,9.414,0,0,2.937,1.976,5.053,1.192,3.526-1.3,6.447-6.368,1.978-12.374-2.229-2.995-4.152-4.044-3.489-7.835.718-4.108-.877-9.4-5.624-9.872a13.165,13.165,0,0,0-4.538-.037C2159.045,1319.665,2150.861,1335.58,2157.126,1338.031Z" transform="translate(-2118.571 -1318.32)" fill="#b53c37"/>
            <path id="Trazado_100560" data-name="Trazado 100560" d="M2167.9,1343.652c-.022.008,2.083,1.343,3.669,1.046,1.491-.278,2.935-2.215,2.915-2.221-.608-.174-1.052-.913-.74-4.559l-.284.032-4.771.544s-.014,1.487-.125,2.879C2168.473,1342.542,2168.179,1343.55,2167.9,1343.652Z" transform="translate(-2123.806 -1326.18)" fill="#ffae73"/>
            <path id="Trazado_100561" data-name="Trazado 100561" d="M2169.135,1338.516s-.014,1.487-.125,2.879c2.633.141,4.218-2.142,4.9-3.423Z" transform="translate(-2124.25 -1326.202)" fill="#f9924f"/>
            <path id="Trazado_100562" data-name="Trazado 100562" d="M2166.539,1334.039s6.208.612,6.53-3.259,1.339-6.4-2.611-6.955-4.843.859-5.265,2.125S2164.933,1333.779,2166.539,1334.039Z" transform="translate(-2122.64 -1320.478)" fill="#ffae73"/>
            <path id="Trazado_100563" data-name="Trazado 100563" d="M2168.684,1322.477s.782,4.729,4.317,5.852c2.58.819,3.747.279,3.747.279a10.508,10.508,0,0,1-1.683-3.935,1.891,1.891,0,0,0-1.263-1.444C2171.97,1322.625,2169.75,1320.977,2168.684,1322.477Z" transform="translate(-2124.119 -1319.741)" fill="#b53c37"/>
            <path id="Trazado_100564" data-name="Trazado 100564" d="M2168.172,1323.846a4.109,4.109,0,0,0-2.206,1.77,7.927,7.927,0,0,0-1.111,3.825s-1.087-4.377.5-6.006C2167.032,1321.708,2168.172,1323.846,2168.172,1323.846Z" transform="translate(-2122.438 -1320.101)" fill="#b53c37"/>
            <path id="Trazado_100565" data-name="Trazado 100565" d="M2176.056,1359.312q-.166.705-.282,1.3c-.127.644-.213,1.2-.275,1.689-.189,1.527-.131,2.432-.26,3.421a8.514,8.514,0,0,1-.464,1.863c-.256.709-7,1.341-10.841,1.086a5.273,5.273,0,0,1-2.477-.535c-1.369-1.189-1.232,1.426-1.421-11.088-.09-6.1,5.18-11.54,5.18-11.54s.421,2.608,5.648-.5c.185-.109,2.243,2.939,4.225,6.692C2177.27,1355.853,2176.672,1356.73,2176.056,1359.312Z" transform="translate(-2120.65 -1329.026)" fill="#95dbdb"/>
            <path id="Trazado_100566" data-name="Trazado 100566" d="M2137.672,1413.19,2141.69,1424a6.514,6.514,0,0,0,2.135-.2,9.256,9.256,0,0,0,2.064-1s-1.116-11.61-3.2-18.274Z" transform="translate(-2111.681 -1352.897)" fill="#ff912b"/>
            <path id="Trazado_100567" data-name="Trazado 100567" d="M2161.315,1345.842s-5.377.912-6.01,3.228-4.994,15.266-4.994,15.266,3.381,1.153,4.643-.11,4.4-11.718,4.4-11.718Z" transform="translate(-2116.75 -1329.358)" fill="#95dbdb"/>
            <path id="Trazado_100568" data-name="Trazado 100568" d="M2128.387,1371.352l-1.274-.5a3.049,3.049,0,0,0-1.181-.04c-.414.13-1.449.117-1.454.286s1.181.7,1.181.7l.037-.015c-.45,1.02-2.7,1.6-2.811,1.976-.132.453.916.688,1.487.829a3.15,3.15,0,0,0,2.659-.6c.5-.532,1.356-1.262,1.356-1.262Z" transform="translate(-2105.746 -1339.352)" fill="#ffae73"/>
            <path id="Trazado_100569" data-name="Trazado 100569" d="M2168.486,1337.065a1.067,1.067,0,0,1-.948.637c-.687,0-.873-.1-1-.249a2.143,2.143,0,0,1-.259-.426A5.834,5.834,0,0,1,2168.486,1337.065Z" transform="translate(-2123.154 -1325.787)" fill="#fff"/>
            <path id="Trazado_100570" data-name="Trazado 100570" d="M2144.067,1367.98l-13.02.994a4.056,4.056,0,0,0,.567,2.694s11.746,2.3,14.811,1.123,2.72-6.7,2.72-6.7Z" transform="translate(-2109.007 -1337.479)" fill="#95dbdb"/>
            <path id="Trazado_100571" data-name="Trazado 100571" d="M2162.313,1368.178l-.865-1.062a3.042,3.042,0,0,0-1.01-.612c-.425-.089-1.322-.606-1.409-.46s.689,1.185.689,1.185l.04.006c-.891.67-3.14.078-3.418.352-.336.331.464,1.048.893,1.45a3.15,3.15,0,0,0,2.613.775c.7-.218,1.8-.44,1.8-.44Z" transform="translate(-2119.136 -1337.451)" fill="#ffae73"/>
            <path id="Trazado_100572" data-name="Trazado 100572" d="M2178.038,1373.648c-.189,1.527-.132,2.432-.261,3.421-4.883.016-11.411-3.771-11.411-3.771Z" transform="translate(-2123.19 -1340.37)" fill="#62c4c2"/>
            <path id="Trazado_100573" data-name="Trazado 100573" d="M2166.366,1363.764s7.607-.227,8.89-4.551c1.408-4.75,2.986,1.954,2.986,1.954l-.839,4.278h-8.346Z" transform="translate(-2123.19 -1334.039)" fill="#62c4c2"/>
            <path id="Trazado_100574" data-name="Trazado 100574" d="M2172.651,1345.018s4.938.323,6.172,2.249,2.766,11.7,2.124,15.062-16.455-.641-16.455-.641l.5-2.914s9.126.053,9.646-1.136C2175.333,1356.057,2172.651,1345.018,2172.651,1345.018Z" transform="translate(-2122.438 -1329.028)" fill="#95dbdb"/>
          </g>
        </g>
        <g id="Grupo_53828" data-name="Grupo 53828" transform="translate(95.239 27.341)">
          <path id="Trazado_100575" data-name="Trazado 100575" d="M2177.868,1368.444a69.036,69.036,0,0,1-16.761-1.7.1.1,0,0,1,.05-.191c5.428,1.421,15.972,2.674,35.383.577,11.612-1.255,21.017-3.142,21.111-3.161a.1.1,0,1,1,.039.193c-.094.019-9.507,1.909-21.129,3.164A178.582,178.582,0,0,1,2177.868,1368.444Z" transform="translate(-2161.034 -1363.971)" fill="#ff912b"/>
        </g>
        <g id="Grupo_53829" data-name="Grupo 53829" transform="translate(74.255 31.487)">
          <path id="Trazado_100576" data-name="Trazado 100576" d="M2132.09,1373.1a58.433,58.433,0,0,1-6-.317.1.1,0,1,1,.02-.2c12.231,1.262,18.882-1.651,18.948-1.68a.1.1,0,0,1,.081.18C2145.08,1371.107,2140.536,1373.1,2132.09,1373.1Z" transform="translate(-2125.997 -1370.894)" fill="#ff912b"/>
        </g>
      </g>
      <g id="Grupo_53831" data-name="Grupo 53831" transform="translate(188.698 95.459)">
        <circle id="Elipse_4052" data-name="Elipse 4052" cx="17.972" cy="17.972" r="17.972" transform="translate(0 5.757) rotate(-9.217)" fill="#214d9a"/>
        <path id="Trazado_100577" data-name="Trazado 100577" d="M2252.611,1503.537a13.538,13.538,0,1,1,13.539,13.538A13.538,13.538,0,0,1,2252.611,1503.537Z" transform="translate(-2245.531 -1482.636)" fill="#fff"/>
      </g>
      <g id="Grupo_53832" data-name="Grupo 53832" transform="translate(193.738 66.111)">
        <circle id="Elipse_4053" data-name="Elipse 4053" cx="10.98" cy="10.98" r="10.98" transform="matrix(0.169, -0.986, 0.986, 0.169, 0, 21.646)" fill="#214d9a"/>
        <path id="Trazado_100578" data-name="Trazado 100578" d="M2256.559,1444.618a8.272,8.272,0,1,1,8.271,8.272A8.272,8.272,0,0,1,2256.559,1444.618Z" transform="translate(-2252.154 -1431.769)" fill="#fff"/>
      </g>
      <g id="Grupo_53834" data-name="Grupo 53834" transform="translate(150.133 90.857)">
        <path id="Trazado_100579" data-name="Trazado 100579" d="M2211.778,1503.681s6.45,1.764,9.792.936,9.769-4.362,9.769-4.362l1.012,1.769s-5.258,7.833-10.117,8.723S2211.778,1503.681,2211.778,1503.681Z" transform="translate(-2190.589 -1482.148)" fill="#fc7600"/>
        <path id="Trazado_100580" data-name="Trazado 100580" d="M2261.911,1541.08s3.341,1.331,4.469.976,3.069-1.442,3.419-2.336-2.292.233-3.186,0a5.854,5.854,0,0,0-3.614,0C2261.25,1540.225,2261.911,1541.08,2261.911,1541.08Z" transform="translate(-2210.647 -1497.836)" fill="#ffae73"/>
        <path id="Trazado_100581" data-name="Trazado 100581" d="M2211.28,1669.419s.252,4.064,1.007,5.02H2223.9a2.066,2.066,0,0,0-1.854-1.659c-1.835-.319-4.907-1.609-6.017-4.035C2214.859,1666.194,2211.28,1669.419,2211.28,1669.419Z" transform="translate(-2190.389 -1549.332)" fill="#0b3563"/>
        <path id="Trazado_100582" data-name="Trazado 100582" d="M2176.681,1668.512s-.766,5.06.228,5.151c.133.012,4.785,0,6.049.193a31.739,31.739,0,0,0,5.51.04.546.546,0,0,0,.495-.821,2.2,2.2,0,0,0-1.578-1.012c-1.829-.352-4.877-1.7-5.946-4.14C2180.315,1665.351,2176.681,1668.512,2176.681,1668.512Z" transform="translate(-2176.399 -1548.992)" fill="#0b3563"/>
        <path id="Trazado_100583" data-name="Trazado 100583" d="M2202.939,1573.512s-2.92,10.218-11.29,27.963-9.016,25.831-9.016,25.831l-5.765-.271s.542-21.12,4.5-30.075,4.759-33.458,4.759-33.458Z" transform="translate(-2176.587 -1507.515)" fill="#62c4c2"/>
        <path id="Trazado_100584" data-name="Trazado 100584" d="M2215.48,1565.536a254.733,254.733,0,0,1-2.5,35.25c-2.738,19.427-1.81,27.674-1.81,27.674l-6.556.218s-3.919-19.435-2.8-29.158-5.366-33.367-5.366-33.367Z" transform="translate(-2184.44 -1508.331)" fill="#95dbdb"/>
        <path id="Trazado_100585" data-name="Trazado 100585" d="M2206.624,1498.475l3.092,2.291,4.47-.941c-.062-.408-.357-2.1-.626-3.627-.016-.091-.033-.18-.048-.269-.23-1.3-.428-2.42-.428-2.42l-4.175-2.08-1.557-.776c0,.028.121,1.445.137,1.652A13.368,13.368,0,0,1,2206.624,1498.475Z" transform="translate(-2188.521 -1478.297)" fill="#ffae73"/>
        <path id="Trazado_100586" data-name="Trazado 100586" d="M2214.229,1540.374c.282,2.823-22.312,6.164-22.4,1.429-.074-4.166,2.406-27.093,3.176-30.373,1.359-5.805,2.581-9.121,5.168-9.883.956-.277,4.479.636,7.024,1.376a4.193,4.193,0,0,1,.525.181,5.4,5.4,0,0,1,3.164,3.465c.392,1.322.845,3.014,1.211,4.882a37.487,37.487,0,0,1,.685,5.3c.021.375.033.751.035,1.124.014,1.385.135,3.176.306,5.164.107,1.254.236,2.588.368,3.947.039.389.079.781.116,1.175.028.273.462,9.23.587,11.629,0,.036,0,.066,0,.1a.023.023,0,0,0,0,.012c0,.032,0,.067.005.1C2214.219,1540.213,2214.227,1540.343,2214.229,1540.374Z" transform="translate(-2182.587 -1482.646)" fill="#ff912b"/>
        <path id="Trazado_100587" data-name="Trazado 100587" d="M2208.513,1492.888c.916,1.754,4.332,3.271,5.757,3.828-.017-.091-.032-.18-.048-.269-.23-1.3-.428-2.42-.428-2.42l-4.175-2.08C2208.7,1491.933,2208.135,1492.166,2208.513,1492.888Z" transform="translate(-2189.231 -1478.815)" fill="#ffa05e"/>
        <path id="Trazado_100588" data-name="Trazado 100588" d="M2213.764,1486.712s-7.531,2.35-8.923-2.363-3.3-7.583,1.45-9.282,6.219-.178,7.066,1.282S2215.686,1485.98,2213.764,1486.712Z" transform="translate(-2187.173 -1471.745)" fill="#ffae73"/>
        <path id="Trazado_100589" data-name="Trazado 100589" d="M2210.887,1474.173s-.48,5.484-1.614,5.246-2.162-.415-2,1.238,1.739,3.562-1.756,3.854-8.52-8.721-7.56-10.428C2200.731,1469.16,2214.892,1468.166,2210.887,1474.173Z" transform="translate(-2184.999 -1470.022)" fill="#0b3563"/>
        <g id="Grupo_53833" data-name="Grupo 53833" transform="translate(40.75 13.975)">
          <path id="Trazado_100590" data-name="Trazado 100590" d="M2244.438,1497.488a14.233,14.233,0,0,1,2.494-3.568c1.1-.833,3.979-.558,4.084-.336.327.687-2.354,1.686-2.674,2.3s.954.583-.048,1.645a10.512,10.512,0,0,1-2.844,1.725Z" transform="translate(-2244.438 -1493.356)" fill="#ffae73"/>
          <path id="Trazado_100591" data-name="Trazado 100591" d="M2248.512,1498.134c.019,0,.908-.1,1.778-.2.64-.069,1.266-.353,1.528-.367.619-.03.183.953-1.157,1.443-1.135.415-1.457,1.086-2.528,1.268C2246.84,1500.5,2248.512,1498.134,2248.512,1498.134Z" transform="translate(-2245.724 -1495.045)" fill="#ffae73"/>
        </g>
        <path id="Trazado_100592" data-name="Trazado 100592" d="M2213.528,1500.706c-.1-.041-6.08-1.807-6.73-1.592s-1.035,1.472-1.035,1.472l9.236,2.631S2214.778,1501.232,2213.528,1500.706Z" transform="translate(-2188.177 -1481.683)" fill="#fc7600"/>
        <path id="Trazado_100593" data-name="Trazado 100593" d="M2263.809,1538.71a5.865,5.865,0,0,1,2-1.107c.932-.2,1.749-1.049,1.749-.641s-.7,1.4-.7,1.749S2263.809,1538.71,2263.809,1538.71Z" transform="translate(-2211.458 -1496.826)" fill="#ffae73"/>
        <path id="Trazado_100594" data-name="Trazado 100594" d="M2221.735,1531.509c-4.8-1.821-8.435-8.9-8.435-8.9l8.094,2.609c.021.375.033.751.035,1.124C2221.444,1527.73,2221.564,1529.521,2221.735,1531.509Z" transform="translate(-2191.199 -1491.115)" fill="#fc7600"/>
        <path id="Trazado_100595" data-name="Trazado 100595" d="M2239.938,1527.725l.01-.039a1.776,1.776,0,0,0-.949-2.046c-3.015-1.452-10.823-5.217-11.7-5.684-.919-.494-10.06-9.282-12.794-11.92a1.777,1.777,0,0,0-1.787-.41l-7.573,2.475a1.778,1.778,0,0,0-.454,3.157c5.57,3.818,17.223,11.762,19.318,12.833,3.693,1.888,11.167,2.875,13.925,3.186a1.773,1.773,0,0,0,1.833-1.066A3.67,3.67,0,0,0,2239.938,1527.725Z" transform="translate(-2187.438 -1485.069)" fill="#ff912b"/>
      </g>
    </g>
    <g id="Grupo_53841" data-name="Grupo 53841" transform="translate(1748.793 1403.447)">
      <path id="Trazado_100596" data-name="Trazado 100596" d="M1827.361,1560.015s-9.237.874-14.2,15.35-3.512,41.469-7.176,44.175-23.417-4.205-25,.237,0,4.97-4.345,2.863-11.72-2.833-10.14.691-8.165,1.161-7.9,5.964h49.729s23.545-2.441,22.727-12.975-9.124-35.091-4.124-44.38a45.657,45.657,0,0,1,11.538-14.111Z" transform="translate(-1758.6 -1509.444)" fill="#fc7600"/>
      <g id="Grupo_53836" data-name="Grupo 53836" transform="translate(35.154 0)">
        <path id="Trazado_100597" data-name="Trazado 100597" d="M1850.274,1627.755l-2.09.779s-9.077-12.59-10.195-23.666a16.848,16.848,0,0,1,.3-5.663s-.089-.507-.244-1.4c-.072-.418-.161-.921-.261-1.5-.3-1.691-.7-4-1.166-6.638-1.068-6.062-2.452-13.812-3.527-19.508l.563-.181,6.093-1.965,1.259-4,4.537-1.195s1.013,1.983,1.92,11.348c.167,1.228.319,2.583.433,4.052a80.231,80.231,0,0,1-.432,16.4q-.313,2.442-.8,5.035a22.444,22.444,0,0,0-.174,4.972C1846.951,1613.683,1850.274,1627.755,1850.274,1627.755Z" transform="translate(-1823.631 -1511.445)" fill="#95dbdb"/>
        <path id="Trazado_100598" data-name="Trazado 100598" d="M1847.9,1578.216l-9.852,19.585c-.072-.418-.161-.921-.261-1.5-.3-1.691-.7-4-1.166-6.638-1.068-6.062-2.452-13.812-3.527-19.508l.563-.181,6.093-1.965,1.259-4,4.537-1.195s1.013,1.983,1.92,11.348C1847.629,1575.393,1847.781,1576.748,1847.9,1578.216Z" transform="translate(-1823.631 -1511.445)" fill="#62c4c2"/>
        <path id="Trazado_100599" data-name="Trazado 100599" d="M1837.464,1563.8l-.228-1.955c-3.821,1.014-14.03-2.836-14.03-2.836s-3.7,3.254-3.215,11.053c.237,3.807.67,19.983,1.123,24.77.164,1.735.307,2.969.366,3.462v.005a.684.684,0,0,1-.111.424,22.539,22.539,0,0,0-1.67,3.513c-4.442,11.836.685,26.412.685,26.412l1.329-.536s2.917-16.222,5.288-23.388a14.162,14.162,0,0,1,1.141-2.741,30.97,30.97,0,0,0,2.855-7.614,187.077,187.077,0,0,0,3.84-20.2C1834.958,1574.182,1837.464,1563.8,1837.464,1563.8Z" transform="translate(-1817.534 -1509.92)" fill="#95dbdb"/>
        <path id="Trazado_100600" data-name="Trazado 100600" d="M1881.323,1541.667l-.285,1.914s-.126,0-.348-.016c-.7-.048-2.388-.143-4.3-.348-2.879-.285-6.295-.791-7.655-1.629-2.072-1.265-5.472-5.14-7.686-9.015a2.441,2.441,0,0,1-.158-.285,13.9,13.9,0,0,1-2.024-5.725,8.14,8.14,0,0,1,.269-2.594,6.616,6.616,0,0,1,1.17-2.341,1.186,1.186,0,0,1,.221-.269,5.466,5.466,0,0,1,1.5-1.281c.38-.158.791.032,1.218.49v.016a7.251,7.251,0,0,1,1.091,1.613c.016.016.032.032.032.047.079.142.158.3.253.474a.409.409,0,0,1,.063.111q.261.545.522,1.138c1.945,4.239,4.017,10.66,5.74,12.573.743.822,4.144,2.436,6.848,3.638C1879.742,1541.035,1881.323,1541.667,1881.323,1541.667Z" transform="translate(-1833.964 -1494.282)" fill="#ffae73"/>
        <path id="Trazado_100601" data-name="Trazado 100601" d="M1854.235,1517.883a11.885,11.885,0,0,1-4.4,1.031c-6.569.36-8.06-5.4-8.332-9.22a5.512,5.512,0,0,1,2.254-.285c.465.025.952.073,1.353.123.8-.42,2.247-2.458,3.081-5.869l.282.131,4.74,2.229s-.5,1.542-.875,3.018a6.008,6.008,0,0,0-.324,2.583c.374.152.6.247.6.247l0,.005A32.614,32.614,0,0,1,1854.235,1517.883Z" transform="translate(-1827.005 -1487.719)" fill="#ffae73"/>
        <path id="Trazado_100602" data-name="Trazado 100602" d="M1848.685,1525.957c-.049.132-.1.259-.163.391-1.664,3.583-4.744,18.424-4.744,18.424.438,2.669-20.054-.523-20.107-2.953-.723-2.576,2.561-6.716,4.411-8.792a5.919,5.919,0,0,0,1.461-3.286,84.611,84.611,0,0,0,.256-8.635h0c.362-.268.712-.515,1.038-.75a9.268,9.268,0,0,0,1.263-1.047,1.912,1.912,0,0,0,.606-1.192,6.38,6.38,0,0,0-.026-1c-.016-.159-.036-.317-.06-.476a13.552,13.552,0,0,0-.952-3.178c1.762-.713,4.9-.288,4.9-.288s0,.174,0,.459c-.01,1.145,0,4.085.367,4.641.459.692,8.855,3.728,9.3,2.787.437-.925-.759-5.257-.8-5.42l0-.005a13.267,13.267,0,0,1,3.816,2.03C1847.542,1518.764,1850,1522.481,1848.685,1525.957Z" transform="translate(-1819.812 -1491.484)" fill="#ff912b"/>
        <path id="Trazado_100603" data-name="Trazado 100603" d="M1851.32,1480.557c-.01-.285-.231-3.354-4.905-3.514,0,0,2.3.274,2.7,1.284,0,0-1.565-1.248-2.839-.847s-2.023,2.634-2.031,3.369.7,3.1,1.509,3.3a2.47,2.47,0,0,0,.98,0,10.871,10.871,0,0,0-.628,1.121c-1.866,3.829.058,7.571,1.637,7.158,1.013-.265,1.3,1.463,1.3,1.463l9.839-7.965S1855.264,1478.452,1851.32,1480.557Z" transform="translate(-1828.103 -1477.043)" fill="#2a3967"/>
        <path id="Trazado_100604" data-name="Trazado 100604" d="M1857.883,1506.111s-.5,1.541-.875,3.019c-2.771-.773-3.611-3.685-3.865-5.246Z" transform="translate(-1831.674 -1487.808)" fill="#f99352"/>
        <path id="Trazado_100605" data-name="Trazado 100605" d="M1858.2,1502.255s-6.628-1.534-5.609-5.647.849-7.081,5.124-6.275,4.706,2.577,4.7,4.033S1859.954,1502.548,1858.2,1502.255Z" transform="translate(-1831.411 -1482.32)" fill="#ffae73"/>
        <path id="Trazado_100606" data-name="Trazado 100606" d="M1861.676,1491.528c-.713-1.491-1.551-1.411-2.076-1.147a4.755,4.755,0,0,0-6.169-.528,8.1,8.1,0,0,1-3.724,4s1.018,1.043,3.969,1.02a4.858,4.858,0,0,0,2.632-.991,15.865,15.865,0,0,1-3.456,2.577c3.694-.707,6.172-4.984,6.425-5.438a5.34,5.34,0,0,1,.962,2.277c.068,1.129-.32,3.321.326,3.4C1860.566,1496.7,1862.744,1493.764,1861.676,1491.528Z" transform="translate(-1830.295 -1481.818)" fill="#2a3967"/>
        <path id="Trazado_100607" data-name="Trazado 100607" d="M1865.7,1520.756s1.6,2.784,1.834,3.5a3.324,3.324,0,0,0-2.905,1.512S1864.43,1521.132,1865.7,1520.756Z" transform="translate(-1836.276 -1494.575)" fill="#ff912b"/>
        <path id="Trazado_100608" data-name="Trazado 100608" d="M1841.7,1543.979c-4.042-.043-7.465-4.24-9.557-7.594a5.828,5.828,0,0,0,.84-2.45,84.689,84.689,0,0,0,.256-8.635h0c.361-.268.711-.515,1.037-.751a9.271,9.271,0,0,0,1.263-1.047C1838.848,1529.1,1847.179,1544.036,1841.7,1543.979Z" transform="translate(-1823.25 -1495.677)" fill="#fc7600"/>
        <path id="Trazado_100609" data-name="Trazado 100609" d="M1827.879,1673.127h-10.526a5.781,5.781,0,0,1,.3-2.821c.526-1.168,1.352-1.7,1.154-3.111a3.792,3.792,0,0,0,3.281,1.255,11.545,11.545,0,0,0,1.826,2.367C1824.6,1671.311,1827.668,1671.135,1827.879,1673.127Z" transform="translate(-1817.296 -1553.309)" fill="#1e3865"/>
        <path id="Trazado_100610" data-name="Trazado 100610" d="M1865.578,1673.443h-10.525a4.377,4.377,0,0,1,.3-2.821,2.029,2.029,0,0,0-.075-2.423,4.089,4.089,0,0,0,1.773.334,3.707,3.707,0,0,0,1.565-.551,37.889,37.889,0,0,0,3,3.151C1862.3,1671.628,1865.366,1671.452,1865.578,1673.443Z" transform="translate(-1832.394 -1553.625)" fill="#1e3865"/>
        <path id="Trazado_100611" data-name="Trazado 100611" d="M1858.265,1542.858l-.423,1.634s-5.257-1.1-6.411-1.355h-.016c-1.977-.475-4.191-1.044-6.057-1.677a16.585,16.585,0,0,1-3.227-1.439,1.869,1.869,0,0,1-.221-.158c-1.85-1.344-4.049-5.3-5.756-9.536-.238-.585-.459-1.17-.681-1.74a43.211,43.211,0,0,1-1.8-6.01,16.935,16.935,0,0,1-.427-2.862,6.928,6.928,0,0,1-.016-.807c.032-4.587,2.31-5.219,2.31-5.219.047-.016.094-.032.158-.047.4-.064.806.206,1.233.728a14.335,14.335,0,0,1,1.693,2.988c.9,2.04,1.85,4.681,2.736,7.307.49,1.44.965,2.879,1.439,4.207.269.807.538,1.565.79,2.261a21.769,21.769,0,0,0,1.329,3.084,7.648,7.648,0,0,0,1.945,1.755C1848.537,1537.19,1858.265,1542.858,1858.265,1542.858Z" transform="translate(-1823.683 -1491.718)" fill="#ffae73"/>
        <path id="Trazado_100612" data-name="Trazado 100612" d="M1838.616,1517.369a5.948,5.948,0,0,0-5.393,1.538c.037-4.579,2.317-5.206,2.317-5.206C1836.457,1513.322,1837.52,1514.91,1838.616,1517.369Z" transform="translate(-1823.684 -1491.723)" fill="#ff912b"/>
      </g>
      <path id="Trazado_100613" data-name="Trazado 100613" d="M2017.516,1586.115c.09.252-37.569,19.353-37.569,19.353a16.82,16.82,0,0,0,10.437.713c6.094-1.41,29.468-14.858,29.468-14.858Z" transform="translate(-1847.378 -1520.79)" fill="#214d9a"/>
      <path id="Trazado_100614" data-name="Trazado 100614" d="M1936.893,1574.057s-12.492,20.121-45.836-16.664a4.746,4.746,0,0,0-4.678-1.421l-12.971,3.24a2.447,2.447,0,0,1,1.719.526,3.358,3.358,0,0,1,.681,1.2c2.677,7.467,12.694,32.48,28.933,39.4,19.161,8.159,39.473,3.446,54.666-26.278Z" transform="translate(-1804.648 -1508.642)" fill="#ff912b"/>
      <g id="Grupo_53840" data-name="Grupo 53840" transform="translate(168.245 25.507)">
        <path id="Trazado_100615" data-name="Trazado 100615" d="M2106.209,1590.937l-.093.164c-.739,1.284-2.434,4.43-4.3,7.874-.884,1.634-1.808,3.334-2.685,4.935-1.511,2.762-2.885,5.221-3.687,6.52-.816,1.322-1.417,2.25-1.66,2.621l0,0a.619.619,0,0,0-.079.383,20,20,0,0,1-.053,3.463,26.567,26.567,0,0,1-8.68,17.205l-2.246.332s3.178-11.776,4.114-18.432a12.836,12.836,0,0,0,.172-2.639,27.566,27.566,0,0,1,.724-7.2,161.554,161.554,0,0,1,4.593-16.676c.1-.326,3.263-11.751,3.263-11.751,2.651,2.317,12.321,3.273,12.321,3.273S2109.551,1584.994,2106.209,1590.937Z" transform="translate(-2056.845 -1542.935)" fill="#ff912b"/>
        <path id="Trazado_100616" data-name="Trazado 100616" d="M2074.853,1673.66h9.374a5.146,5.146,0,0,0-.265-2.512c-.469-1.04-1.138-1.073-.085-2.7-.6.613-2.51.867-3.865.684a11.479,11.479,0,0,1-1.625,2.474C2077.773,1672.042,2075.042,1671.885,2074.853,1673.66Z" transform="translate(-2053.688 -1579.317)" fill="#1e3865"/>
        <path id="Trazado_100617" data-name="Trazado 100617" d="M2117.454,1596.078l-.093.164c-.739,1.284-4.734,8.663-6.6,12.106a49.918,49.918,0,0,0,.659-17.8Z" transform="translate(-2068.09 -1548.075)" fill="#fc7600"/>
        <path id="Trazado_100618" data-name="Trazado 100618" d="M2061.523,1523.676s-.371-4.045,4.148-4.045a5.3,5.3,0,0,0-2.077,1.115,5.343,5.343,0,0,1,6.019.908c3.137,2.6,1.188,9.121,2.141,10.359s4.668,1.486,4.215,5.489-11.789,9.018-11.061,12.33c0,0-4.443-6.529-1.266-9.51a5.89,5.89,0,0,0-1.706,3.192s-.42-3.384,1.734-4.467c1.906-.958,3.466-4.461,3.3-5.088S2061.523,1523.676,2061.523,1523.676Z" transform="translate(-2048.339 -1519.631)" fill="#2a3967"/>
        <path id="Trazado_100619" data-name="Trazado 100619" d="M2060.189,1554.742s-6.429,16.225-7.815,15.624-9.551-3.195-9.551-3.195l-.537,1.988s7.771,5.988,11.768,6.25,9.414-11.519,9.414-11.519Z" transform="translate(-2040.626 -1533.713)" fill="#ffae73"/>
        <g id="Grupo_53839" data-name="Grupo 53839" transform="translate(0 30.531)">
          <g id="Grupo_53837" data-name="Grupo 53837" transform="translate(2.675 19.945)">
            <path id="Trazado_100620" data-name="Trazado 100620" d="M2048.225,1604.881a8.092,8.092,0,1,1-3.271,10.966A8.1,8.1,0,0,1,2048.225,1604.881Zm6.2,11.469a4.945,4.945,0,1,0-6.7-2A4.951,4.951,0,0,0,2054.423,1616.35Z" transform="translate(-2043.981 -1603.909)" fill="#214d9a"/>
          </g>
          <g id="Grupo_53838" data-name="Grupo 53838">
            <path id="Trazado_100621" data-name="Trazado 100621" d="M2039.74,1576.807a8.092,8.092,0,1,1,5.974,9.76A8.1,8.1,0,0,1,2039.74,1576.807Zm3.059.736a4.945,4.945,0,1,0,5.964-3.651A4.951,4.951,0,0,0,2042.8,1577.543Z" transform="translate(-2039.515 -1570.608)" fill="#214d9a"/>
          </g>
        </g>
        <path id="Trazado_100622" data-name="Trazado 100622" d="M2060.219,1525.391a37.536,37.536,0,0,1,5.628,2.752c2.54,2.817,1.816,6.493.362,6.528-.932.023-.751,1.572-.751,1.572l-10.383-4.392S2056.325,1524.562,2060.219,1525.391Z" transform="translate(-2045.755 -1521.915)" fill="#2a3967"/>
        <path id="Trazado_100623" data-name="Trazado 100623" d="M2068.562,1555.307s-1.382,1.432-1.382,5.717c0,0,1.9,3.007,6.846,3.768C2074.026,1564.793,2069.778,1555.3,2068.562,1555.307Z" transform="translate(-2050.611 -1533.94)" fill="#95dbdb"/>
        <path id="Trazado_100624" data-name="Trazado 100624" d="M2109.714,1580.395l-.032-1.753c3.493.44,12.044-4.174,12.044-4.174s3.655,2.43,4.155,9.371c.244,3.388,1.789,17.716,1.96,21.994.063,1.551.083,2.657.09,3.1v0a.61.61,0,0,0,.148.361,20.008,20.008,0,0,1,1.893,2.9c5.33,9.917,2.543,23.392,2.543,23.392l-1.238-.315s-4.507-13.968-7.452-20.011a12.627,12.627,0,0,0-1.334-2.284,27.573,27.573,0,0,1-3.427-6.379C2116.887,1601.406,2109.714,1580.395,2109.714,1580.395Z" transform="translate(-2067.657 -1541.625)" fill="#ff912b"/>
        <path id="Trazado_100625" data-name="Trazado 100625" d="M2135.357,1673.615h9.374a5.15,5.15,0,0,0-.265-2.512c-.469-1.04-1.2-1.513-1.028-2.771a3.377,3.377,0,0,1-2.922,1.118,10.255,10.255,0,0,1-1.626,2.109C2138.278,1672,2135.546,1671.84,2135.357,1673.615Z" transform="translate(-2077.955 -1579.272)" fill="#1e3865"/>
        <path id="Trazado_100626" data-name="Trazado 100626" d="M2075.584,1562.99c1.259.214-.205,1.215,1.526,1.4a31.334,31.334,0,0,1,6.343.985,1.433,1.433,0,0,1,.913.74c.578,1.737,3.124,4.418,3.124,4.418,16.322-.743,18.114-7.57,18.114-7.57-10.593-10.288-20.333-16.355-27.771-17.158-1.272-.137-2.883.67-4.029,1.181-2.6,1.159-4.317,4.5-4.317,4.5S2070.8,1562.174,2075.584,1562.99Z" transform="translate(-2051.537 -1530.124)" fill="#95dbdb"/>
        <path id="Trazado_100627" data-name="Trazado 100627" d="M2082.215,1567.958a31.3,31.3,0,0,1,6.343.985,25.994,25.994,0,0,0-3.3-14.264S2082.755,1564.877,2082.215,1567.958Z" transform="translate(-2056.641 -1533.688)" fill="#62c4c2"/>
        <path id="Trazado_100628" data-name="Trazado 100628" d="M2075.339,1552.373s6.2-.339,7.3,3.553-2.066,19.425-2.749,21.028c-1.243,2.918-7.293,11.249-7.293,11.249l-2.225-.677s4.034-12.727,4.935-13.985C2076.72,1571.563,2073.483,1554.066,2075.339,1552.373Z" transform="translate(-2051.89 -1532.76)" fill="#ffae73"/>
        <path id="Trazado_100629" data-name="Trazado 100629" d="M2068.909,1610.89a3.5,3.5,0,0,1-.532,1.5c-.417.51-1.63,1.742-1.651,2.464,0,0,.061.32.322.262s1.163-.953,1.627-.889a8.986,8.986,0,0,1-.493,1.854,5.3,5.3,0,0,0,.1,2.485c.147.352,1.956-1.886,2.7-2.886s.012-5.057.012-5.057Z" transform="translate(-2050.429 -1556.125)" fill="#ffae73"/>
        <path id="Trazado_100630" data-name="Trazado 100630" d="M2085.819,1560.361c-.016.091-5.865,1.076-9.524-.781,0,0-3.056-9.575,1.311-9.117s6.954,1.834,7.065,3.925A40.278,40.278,0,0,0,2085.819,1560.361Z" transform="translate(-2053.85 -1531.991)" fill="#95dbdb"/>
        <path id="Trazado_100631" data-name="Trazado 100631" d="M2042.151,1574.206s-1.608-.333-2.2.506-.2,3.358.889,3.26,1.19-1.679,1.311-2.271A5.632,5.632,0,0,0,2042.151,1574.206Z" transform="translate(-2039.579 -1541.494)" fill="#ffae73"/>
        <path id="Trazado_100632" data-name="Trazado 100632" d="M2072.194,1545.611s-1.722,6.43-4.317,4.5a5.308,5.308,0,0,0-.912-2.13c-.682-1.171-1.494-2.368-1.494-2.368l3.509-3.073.209-.184A9.27,9.27,0,0,0,2072.194,1545.611Z" transform="translate(-2049.925 -1528.746)" fill="#ffae73"/>
        <path id="Trazado_100633" data-name="Trazado 100633" d="M2065.472,1545.739s.811,1.194,1.493,2.367c2.181-1.344,2.183-4.044,2.015-5.443Z" transform="translate(-2049.926 -1528.869)" fill="#f99352"/>
        <path id="Trazado_100634" data-name="Trazado 100634" d="M2061.481,1543.081s5.295-2.946,3.408-6.215-2.471-5.851-5.931-4.108-3.392,3.366-3.028,4.61S2060.054,1543.763,2061.481,1543.081Z" transform="translate(-2046.031 -1524.671)" fill="#ffae73"/>
        <path id="Trazado_100635" data-name="Trazado 100635" d="M2054.525,1535.165c.242-1.452.98-1.59,1.494-1.493a4.235,4.235,0,0,1,5.15-1.972,7.207,7.207,0,0,0,4.172,2.506s-.614,1.143-3.146,1.851a4.33,4.33,0,0,1-2.5-.2,14.133,14.133,0,0,0,3.594,1.354c-3.337.305-6.51-2.744-6.839-3.071a4.735,4.735,0,0,0-.262,2.185c.219.983,1.092,2.764.56,2.994C2056.75,1539.322,2054.161,1537.342,2054.525,1535.165Z" transform="translate(-2045.521 -1524.375)" fill="#2a3967"/>
      </g>
      <path id="Trazado_100636" data-name="Trazado 100636" d="M2019.109,1608.107c.022-.266-41.276-9.07-41.276-9.07a16.821,16.821,0,0,1,9.9-3.366c6.251-.2,32.293,6.8,32.293,6.8Z" transform="translate(-1846.531 -1524.621)" fill="#214d9a"/>
      <path id="Trazado_100637" data-name="Trazado 100637" d="M2018.5,1602.632a.9.9,0,1,1-.892.915A.9.9,0,0,1,2018.5,1602.632Z" transform="translate(-1862.483 -1527.414)" fill="#ff912b"/>
      <path id="Trazado_100638" data-name="Trazado 100638" d="M1871.816,1561.439a25.893,25.893,0,0,1,3.195,1.45,6.633,6.633,0,0,1,1.692,2.432s-.009.287-.276.286-.867-1.025-1.3-.861a9.007,9.007,0,0,0,.886,1.7,5.3,5.3,0,0,1,.449,2.447c-.067.375-2.32-1.414-3.265-2.227-.5-.433-.488-1.484-.644-2.671-.137-1.041-3.011-1.644-3.011-1.644Z" transform="translate(-1803.095 -1510.893)" fill="#ffae73"/>
    </g>
    <g id="Grupo_53845" data-name="Grupo 53845" transform="translate(2057.407 1401.815)">
      <g id="Grupo_53843" data-name="Grupo 53843" transform="translate(49.881 0)">
        <path id="Trazado_100639" data-name="Trazado 100639" d="M2416.674,1517.148a45.45,45.45,0,0,1-3.476,3.738c-2.313,2.223-5.418,4.7-8.143,5.165a4.354,4.354,0,0,1-2.1-.1,12.515,12.515,0,0,1-4.069-2.477,42.472,42.472,0,0,1-6.852-8.023l1.947-2.206s4.357,3.236,7.083,4.974a5.639,5.639,0,0,0,2.1,1.056c.677-.29,12.4-8.192,12.4-8.192Z" transform="translate(-2371.154 -1489.062)" fill="#ffae73"/>
        <path id="Trazado_100640" data-name="Trazado 100640" d="M2421.257,1517.148a45.438,45.438,0,0,1-3.476,3.738,88.419,88.419,0,0,1-8.143,5.165,4.851,4.851,0,0,1-1.588.651c-1.439-.084-4.53-2.031-4.53-2.031a6.966,6.966,0,0,1-.047-1.2,9.32,9.32,0,0,1,2.178-5.255,5.638,5.638,0,0,0,2.1,1.056c.677-.29,12.4-8.192,12.4-8.192Z" transform="translate(-2375.738 -1489.062)" fill="#62c4c2"/>
        <g id="Grupo_53842" data-name="Grupo 53842" transform="translate(0 10.8)">
          <path id="Trazado_100641" data-name="Trazado 100641" d="M2381.869,1538.016c.4,2.454.674,4.238.674,4.238a26.9,26.9,0,0,1-9.813,1.956c-1.121.037-2.234.024-3.318-.025-1.688-.075-3.307-.235-4.784-.435a55.736,55.736,0,0,1-7.458-1.5,26.633,26.633,0,0,1,2.593-11.268c1.557-3.432,3.329-6.048,3.815-8.172.608-2.66-.688-8.861-1.625-12.729-.477-1.96-.86-3.32-.86-3.32-3.27-4.8-1.7-7.607-1.7-7.607s1.524-.635,3.429-1.216l.029-.01c.655-.2,1.353-.391,2.048-.55a16.353,16.353,0,0,1,2.113-.35c1.863-.162,1.961-4.391,1.961-4.391a6.526,6.526,0,0,1,2.58-.285,13.752,13.752,0,0,1,2.26.285s0,3.345,1.566,4.041c.8.359,2.337,1.013,3.837,1.648h0l.151.063.494.21.642.271.309.131.5.209,1.934.813c.7,1.806-1.745,5.865-1.745,5.865a4.137,4.137,0,0,1,.17.912c0,.05.008.1.012.152a22.282,22.282,0,0,1-.542,5.113c-.666,3.491-1.719,7.493-1.969,10.185a6.445,6.445,0,0,0,.084,2.271.524.524,0,0,0,.022.072c.1.312.218.734.341,1.244C2380.3,1528.669,2381.242,1534.165,2381.869,1538.016Z" transform="translate(-2357.17 -1492.35)" fill="#95dbdb"/>
          <path id="Trazado_100642" data-name="Trazado 100642" d="M2385.139,1629.476l-11.578-7.525a2.753,2.753,0,0,1-1.251-2.339l.7-58.281c0-.506-1.158-1.025-1.664-1.025s-2.013.213-2.013.719l1.349,58.969a1.9,1.9,0,0,1-.864,1.637l-12.069,7.845a.407.407,0,0,0,.222.748h0l12.315-5.4a2.885,2.885,0,0,1,2.318,0l12.315,5.4A.407.407,0,0,0,2385.139,1629.476Z" transform="translate(-2357.327 -1519.606)" fill="#95dbdb"/>
        </g>
        <path id="Trazado_100643" data-name="Trazado 100643" d="M2439.744,1502.652s-3.265,3.874-7.423,2.253a12.591,12.591,0,0,1-.907-3.759c0-.2,0-.386-.007-.568-.022-1.8-.083-2.8-.083-2.8h0c.189-.079,6.357-2.611,6.352-2.4C2437.573,1500.232,2439.744,1502.652,2439.744,1502.652Z" transform="translate(-2386.911 -1482.758)" fill="#ffae73"/>
        <path id="Trazado_100644" data-name="Trazado 100644" d="M2437.06,1497.286a9.644,9.644,0,0,1-5.654,4.047c-.022-1.8-.083-2.8-.083-2.8h0C2431.5,1498.482,2437.237,1496.961,2437.06,1497.286Z" transform="translate(-2386.911 -1483.512)" fill="#f9924f"/>
        <path id="Trazado_100645" data-name="Trazado 100645" d="M2383.606,1541.387a39.16,39.16,0,0,1-9.064-.046,27.889,27.889,0,0,1-3.551-.689,15.806,15.806,0,0,1-9.49-6.3c1.556-3.432,3.329-6.048,3.814-8.172.608-2.66-.687-8.86-1.625-12.729l.87-12.142v0l.029-.008,2.047-.548s-.694,7.77,10.313,8.227c3.465.144,5.412.616,6.453,1.2.4,4.419-3.363,14.878-2.393,17.791C2381.69,1530.006,2382.866,1536.842,2383.606,1541.387Z" transform="translate(-2358.907 -1484.921)" fill="#ff9223"/>
        <path id="Trazado_100646" data-name="Trazado 100646" d="M2428.444,1491.425s6.937,1.63,7.885-2.7,2.484-7.045-1.9-8.269-5.614.241-6.283,1.61S2426.664,1490.889,2428.444,1491.425Z" transform="translate(-2385.324 -1476.594)" fill="#ffae73"/>
        <path id="Trazado_100647" data-name="Trazado 100647" d="M2434.538,1487.625c.095.061,1.587.519,4.413-5.111a4.9,4.9,0,0,0-.288-4.486c-1.034-1.69-4.7-3.018-7.749-3.6s-3.778,1.136-4.5,2.859a9.306,9.306,0,0,1-2.929,3.3c2.628,1.467,5.792-.632,6.888-.286s1.484,2.073,1.566,2.627.208,1.014,1.587.519.624,1.954.4,2.422C2433.934,1485.872,2433.747,1487.119,2434.538,1487.625Z" transform="translate(-2383.77 -1474.318)" fill="#b53c37"/>
        <path id="Trazado_100648" data-name="Trazado 100648" d="M2471.681,1670.1h4.2c.88,0,1.858-.882,2.1-2.5s2.055-2.5,2.446-3.817-1.615-3.182-1.615-3.182l-.336-.431-.349-.449-3.327.783s-.082.792-.133,1.8a22.9,22.9,0,0,0-.014,2.309c.1,1.762-.493,3.659-2.058,4S2471.681,1670.1,2471.681,1670.1Z" transform="translate(-2403.045 -1548.681)" fill="#2a3967"/>
        <path id="Trazado_100649" data-name="Trazado 100649" d="M2422.951,1672.987h11.133a.989.989,0,0,0,.236-.068c.743-.372.511-3.218.421-4.1-.017-.163-.03-.259-.03-.259s-3.915-3.13-4.453-.733c-.017.074-.037.148-.058.22h0c-.679,2.243-3.718,3.262-5.473,3.546A1.91,1.91,0,0,0,2422.951,1672.987Z" transform="translate(-2383.554 -1551.569)" fill="#2a3967"/>
        <path id="Trazado_100650" data-name="Trazado 100650" d="M2426.7,1569.163s.595,7.418,1.294,16.334c.95,12.113,2.092,26.991,2.2,29.81.2,4.894.979,12.723.979,12.723s1.859,1.86,5.579,1.076a128.066,128.066,0,0,0,4.261-23c.015-.194.03-.389.045-.585.881-12.037,2.25-37.386,2.25-37.386Z" transform="translate(-2385.056 -1511.946)" fill="#ff9223"/>
        <path id="Trazado_100651" data-name="Trazado 100651" d="M2426.7,1569.163s.595,7.418,1.294,16.334l13.024,20.608c.015-.194.03-.389.045-.585.881-12.037,2.25-37.386,2.25-37.386Z" transform="translate(-2385.056 -1511.946)" fill="#fc7600"/>
        <path id="Trazado_100652" data-name="Trazado 100652" d="M2431.231,1568.078s10.717,26.864,17.762,39.489,9.249,16.148,9.249,16.148,4.037-1.615,4.4-2.716c0,0-2.695-24.373-7.414-30.315-2.666-3.357-5.8-13.432-5.945-16.955s-.955-10.5-.955-10.5Z" transform="translate(-2386.875 -1509.98)" fill="#ff9223"/>
        <path id="Trazado_100653" data-name="Trazado 100653" d="M2444.646,1543.935a28.919,28.919,0,0,1-8.918,3.7c-3.81.828-8.465.474-10.024.67a.658.658,0,0,1-.457-.117c-.114-.071-.729-4.771-1.312-10.72-.025-.228-.053-.481-.059-.711l-.01-.083c-.062-.619-.125-1.247-.183-1.884q-.119-1.341-.225-2.712-.082-1.062-.157-2.13c-.01-.156-.022-.312-.032-.465-.181-2.623-.315-5.207-.356-7.5q-.009-.571-.011-1.119v-.049c-.008-1.519.032-2.882.132-4.006.025-.288.054-.557.09-.813a14.451,14.451,0,0,1,3.691-7.7l1.523-1.9c1.471.129,2.755.347,4.19-.575,1.556-1,2.248-2.342,2.562-2.166,2.407,1.409,5.33,5.279,6.637,9.983a53.38,53.38,0,0,1,1.552,8.385q.188,1.727.288,3.51a115.669,115.669,0,0,0,1.917,14.977c.166.91.3,1.634.37,2.135C2445.923,1543.1,2445.036,1543.705,2444.646,1543.935Z" transform="translate(-2383.533 -1486.076)" fill="#95dbdb"/>
        <path id="Trazado_100654" data-name="Trazado 100654" d="M2433.583,1521.212s-1.355,11.52-10.125,17.914q-.082-1.062-.157-2.13c-.01-.156-.022-.311-.032-.465-.18-2.623-.315-5.207-.356-7.5-.006-.381-.01-.754-.011-1.119v-.049c.008-1.357.051-2.584.132-3.631A22.029,22.029,0,0,1,2433.583,1521.212Z" transform="translate(-2383.533 -1493.126)" fill="#62c4c2"/>
        <path id="Trazado_100655" data-name="Trazado 100655" d="M2383.927,1502.336s-.246,15.688-9.468,21.406-2.672,39.484-5.354,51.937,24.072,2.293,25.426-11.761-11.684-35.714-11.571-38.4,3.406-19.865,3.058-22.3Z" transform="translate(-2361.882 -1485.556)" fill="#fc7600"/>
        <path id="Trazado_100656" data-name="Trazado 100656" d="M2402.519,1539.265a19.148,19.148,0,0,1-2.71,1.476,25.274,25.274,0,0,1-6.416.978c-5.625.327-12.169-.038-12.169-.038-.988.71-2.726.587-4.195-.24s-1.148-.469-2.2-1.034a.657.657,0,0,1-.294-1.009,1.491,1.491,0,0,1,.936-.705,5.914,5.914,0,0,1,3.659-.1.924.924,0,0,1-.229-.659c.058-.212,1.485.636,2.115,1.024,2.118.3,7.106-1.175,10.828-2.433,2.242-.756,4.024-1.434,4.443-1.6a17.384,17.384,0,0,0,2.757-2.672A24.6,24.6,0,0,0,2402.519,1539.265Z" transform="translate(-2364.083 -1497.554)" fill="#ffae73"/>
        <path id="Trazado_100657" data-name="Trazado 100657" d="M2426.741,1522.5c-4.4,3.1-12.572,8.9-14.705,10.086-1.373.762-3.153,2.246-5.757,2.829-3.726-2.532-2.822-7.149-2.822-7.149,2.243-.756,4.025-1.434,4.444-1.6,1.117-.431,10.213-11.195,10.213-11.195s3.466-4.452,6.584-3.719a5.766,5.766,0,0,1,4.364,4.6A5.832,5.832,0,0,1,2426.741,1522.5Z" transform="translate(-2375.696 -1489.302)" fill="#95dbdb"/>
      </g>
      <g id="Grupo_53844" data-name="Grupo 53844" transform="translate(0 89.523)">
        <path id="Trazado_100658" data-name="Trazado 100658" d="M2292.214,1655.991h-15.648a2.679,2.679,0,0,1-2.677-2.833l.254-4.389,0-.042.172-2.958.476-8.247.152-2.6.363-6.3.135-2.3a2.679,2.679,0,0,1,2.673-2.525h12.273a2.648,2.648,0,0,1,1.208.289,2.687,2.687,0,0,1,1.466,2.208l.126,1.849.362,5.321.058.84.594,8.76.476,7.009.21,3.062A2.681,2.681,0,0,1,2292.214,1655.991Z" transform="translate(-2273.885 -1623.792)" fill="#62c4c2"/>
        <path id="Trazado_100659" data-name="Trazado 100659" d="M2275.084,1644s8.308.962,18.756-4.061l.324,4.759s-4.992,6.178-19.558,7.548Z" transform="translate(-2274.174 -1630.267)" fill="#95dbdb"/>
        <path id="Trazado_100660" data-name="Trazado 100660" d="M2294.679,1662.972a25.965,25.965,0,0,1-8.32,5.922h-9.793a2.679,2.679,0,0,1-2.677-2.833l.254-4.389,0-.042a60.9,60.9,0,0,0,20.057-5.667Z" transform="translate(-2273.885 -1636.695)" fill="#95dbdb"/>
        <path id="Trazado_100661" data-name="Trazado 100661" d="M2293.9,1628.332c-1.762,1.624-7.123,5.611-18.244,6.785l.363-6.3a26.873,26.873,0,0,0,16.289-4.539,2.687,2.687,0,0,1,1.466,2.208Z" transform="translate(-2274.595 -1623.985)" fill="#95dbdb"/>
      </g>
    </g>
  </g>
</svg>
