<svg xmlns="http://www.w3.org/2000/svg" width="441" height="319.187" viewBox="0 0 441 319.187">
  <g id="Grupo_56515" data-name="Grupo 56515" transform="translate(-154.866 -4385.917)">
    <path id="Trazado_105346" data-name="Trazado 105346" d="M431.47,4539.329a2.309,2.309,0,0,0-1.013-1.012,9.837,9.837,0,0,1-1.59-1.851c-1.052-1.37-.9-1.613-1.706-2.689a11.932,11.932,0,0,0-2.891-2.689,12.2,12.2,0,0,0-2.921-1.62,7.467,7.467,0,0,1-2-.809,4.641,4.641,0,0,1-1.5-1.909,44.206,44.206,0,0,1-2.573-7.634c-1.026-4.481-1.252-3.539-2.024-7.258-.455-2.19-.708-4.217-1.215-8.271-.322-2.571-.371-3.331-.693-5.206a38.988,38.988,0,0,0-1.243-5.495,50.058,50.058,0,0,0-1.967-4.857c-1.223-2.8-1.834-4.2-2.834-6.1a36.567,36.567,0,0,1-2.256-4.454,30.306,30.306,0,0,1-1.07-3.644c-1.813-7-1.756-6.688-1.938-7.518-.336-1.546-.787-3.639-1.156-6.45a31.622,31.622,0,0,1-.463-6.015c.071-1.513.254-2.214.318-4.511a19.78,19.78,0,0,0-.058-3.412,16.077,16.077,0,0,0-2-5.119,18.443,18.443,0,0,0-2.343-3.9,9.124,9.124,0,0,0-6.882-3.76c-1.719-.188-2.142.1-4.8.029a18.046,18.046,0,0,1-2.689-.2,17.533,17.533,0,0,1-3.759-1.128,15.54,15.54,0,0,1-3.7-1.735,12.459,12.459,0,0,1-2.834-3.065,7.845,7.845,0,0,1-1.331-2.4,12.875,12.875,0,0,1-.231-2.4,14.652,14.652,0,0,1,.028-3.47,5.056,5.056,0,0,1,.549-1.734c.358-.634.587-.658,1.013-1.359a4.8,4.8,0,0,0,.723-1.851c.037-.255.141-1.151.174-2.111a.981.981,0,0,1,.144-.549c.226-.34.6-.324,1.012-.521.37-.179.584-.476,1.013-1.071a8.639,8.639,0,0,0,.954-1.764c.4-.953.285-.967.81-2.545.441-1.325.647-1.685.463-2.227a1.49,1.49,0,0,0-.839-.925,1.592,1.592,0,0,0-1.128.144c-.195.1-.255.177-.665.405-.319.177-.481.266-.55.231-.248-.124.1-1.2.26-1.938a10.919,10.919,0,0,0,.03-3.845,16.513,16.513,0,0,0-1.157-4.6,8.9,8.9,0,0,0-1.272-2.342,10.866,10.866,0,0,0-2-1.851,10.134,10.134,0,0,0-2.053-1.387,8.754,8.754,0,0,0-2.372-.723c-.35-.056-4.144-.249-4.858-.285v-.005l-.058,0-.058,0v.005c-.714.036-4.509.229-4.858.285a8.739,8.739,0,0,0-2.372.723,10.105,10.105,0,0,0-2.053,1.387,10.867,10.867,0,0,0-2,1.851,8.863,8.863,0,0,0-1.272,2.342,16.515,16.515,0,0,0-1.157,4.6,10.948,10.948,0,0,0,.028,3.845c.165.735.51,1.814.261,1.938-.07.035-.231-.054-.55-.231-.411-.229-.47-.308-.665-.405a1.592,1.592,0,0,0-1.128-.144,1.49,1.49,0,0,0-.839.925c-.185.542.021.9.463,2.227.525,1.578.407,1.592.809,2.545a8.624,8.624,0,0,0,.955,1.764c.428.595.642.892,1.012,1.071.411.2.785.18,1.013.521a.981.981,0,0,1,.144.549c.033.96.137,1.856.174,2.111a4.784,4.784,0,0,0,.723,1.851c.425.7.655.725,1.012,1.359a5.035,5.035,0,0,1,.55,1.734,14.722,14.722,0,0,1,.028,3.47,12.968,12.968,0,0,1-.231,2.4,7.843,7.843,0,0,1-1.331,2.4,12.458,12.458,0,0,1-2.834,3.065,15.562,15.562,0,0,1-3.7,1.735,17.551,17.551,0,0,1-3.759,1.128,18.058,18.058,0,0,1-2.689.2c-2.659.075-3.083-.218-4.8-.029a9.128,9.128,0,0,0-6.883,3.76,18.445,18.445,0,0,0-2.341,3.9,16.049,16.049,0,0,0-2,5.119,19.666,19.666,0,0,0-.058,3.412c.063,2.3.246,3,.318,4.511a31.625,31.625,0,0,1-.463,6.015c-.369,2.811-.82,4.9-1.157,6.45-.18.83-.124.515-1.937,7.518a30.056,30.056,0,0,1-1.071,3.644,36.545,36.545,0,0,1-2.255,4.454c-1,1.9-1.611,3.3-2.835,6.1a50.272,50.272,0,0,0-1.966,4.857,39,39,0,0,0-1.243,5.495c-.324,1.875-.373,2.635-.694,5.206-.506,4.054-.76,6.081-1.214,8.271-.772,3.719-1,2.776-2.024,7.258a44.209,44.209,0,0,1-2.573,7.634,4.636,4.636,0,0,1-1.5,1.909,7.459,7.459,0,0,1-1.995.809,12.15,12.15,0,0,0-2.921,1.62,11.912,11.912,0,0,0-2.892,2.689c-.8,1.076-.654,1.319-1.706,2.689a9.788,9.788,0,0,1-1.591,1.851,2.313,2.313,0,0,0-1.012,1.012,1.067,1.067,0,0,0-.028.869.994.994,0,0,0,.52.433,2,2,0,0,0,1.359.058,3.923,3.923,0,0,0,1.359-.839c1.429-1.086,1.339-.992,1.417-1.069.79-.778.843-1.3,1.792-2.082.305-.253.586-.437.81-.347s.289.4.347.693a3.4,3.4,0,0,1-.028,1.331,11.456,11.456,0,0,1-.348,1.416,16.121,16.121,0,0,1-.751,2c-.609,1.331-.889,1.479-1.852,3.181-1.242,2.2-.782,1.964-1.59,3.152a7.849,7.849,0,0,0-.983,2.227,1.2,1.2,0,0,0,.058.925.9.9,0,0,0,.665.434c.309.026.568-.153.925-.493a7.888,7.888,0,0,0,1.243-1.5c.722-1.166,1.215-2.024,1.215-2.024,1.124-1.954,1.193-2.069,1.359-2.313.9-1.331,1.049-1.187,1.243-1.735a.911.911,0,0,1,.433-.579.79.79,0,0,1,.608.058.8.8,0,0,1,.375.4.951.951,0,0,1-.028.637,3.484,3.484,0,0,1-.376.984,13.2,13.2,0,0,0-.781,2.544,15.966,15.966,0,0,1-1.128,2.95,10.485,10.485,0,0,0-1.041,2.14,5,5,0,0,0-.2,1.62c-.009.693.089.887.2,1.013a1.238,1.238,0,0,0,1.07.259c.14-.025.513-.118,1.129-.81a6.58,6.58,0,0,0,1.012-1.562,16.779,16.779,0,0,0,.781-1.994c.474-1.341.711-2.012.723-2.054.468-1.606.748-3.622,1.389-4.539a1.058,1.058,0,0,1,.549-.435.877.877,0,0,1,.809.145,1.026,1.026,0,0,1,.26.781c.025,1.283.037,1.925,0,2.256a28.149,28.149,0,0,0-.2,3.383,11.382,11.382,0,0,1-.028,1.5,15.725,15.725,0,0,1-.29,1.647c-.256,1.217-.39,1.563-.173,1.792a.706.706,0,0,0,.751.116c.348-.152.454-.6.511-.819.411-1.6.12.264.887-2.468.172-.611,1.5-5.352,1.234-7.4a1.373,1.373,0,0,1,.194-1c.2-.26.574-.46.809-.347s.259.5.27.655c.073,1.021.377,2.023.386,3.047a26.789,26.789,0,0,0,.385,4.28,1.543,1.543,0,0,0,.617,1.118.967.967,0,0,0,1.041-.039c.122-.105.208-.262.27-.693a4.849,4.849,0,0,0,0-1.389,18.523,18.523,0,0,1,0-2.159c-.007-3.082-.179-3.618-.038-5.629.039-.573.068-.977.154-1.543a24.526,24.526,0,0,1,1.2-4.048c.1-.344,1.288-4.606.231-6.053a1.89,1.89,0,0,1-.4-.945,2.334,2.334,0,0,1,.289-1.214c.255-.6.417-1.234.675-1.832a26.987,26.987,0,0,0,1.041-3.162c.532-1.7.944-2.559,2.006-5.186,1.677-4.149,1.365-3.778,2.949-7.693,1.25-3.09,2.254-5.327,2.679-6.266.79-1.74,1.184-2.61,1.794-3.817a49.49,49.49,0,0,0,2.409-4.8,29.6,29.6,0,0,0,1.1-3.779c.622-2.5.541-2.843,1.021-4.9a64.3,64.3,0,0,1,1.986-6.4c.959-2.8.874-2.271,1.658-4.627.651-1.952,1.413-3.865,2.054-5.822.063-.193.593-1.374.655-1.522.32-.755.518-1.237.849-1.263a.537.537,0,0,1,.375.154.861.861,0,0,1,.155.685,21.451,21.451,0,0,0,.925,3.933c.509,2.094,1.091,5.483,1.464,8.021.676,4.592.237,3.511.926,8.482a16.033,16.033,0,0,1,.154,5.321,13.39,13.39,0,0,1-1.081,3.47,14.64,14.64,0,0,1-2.082,3.162c-1.352,1.729-1.9,3.465-3.006,6.941a67.816,67.816,0,0,0-2.392,11.335,188.358,188.358,0,0,0-1.879,19.5,76.808,76.808,0,0,0-.03,8.33c.156,2.588.461,4.713,1.071,8.964.488,3.4.544,3.366,1.358,8.733.359,2.359.764,5.041,1.245,8.588.471,3.49.784,6.123.867,6.826.26,2.207.3,2.7.983,9.166.446,4.222.6,5.618.867,8.357.408,4.159.538,5.88.588,8.04.04,1.754.009,2.981-.038,4.8-.151,5.812-.5,6.727-.492,11.017a44.119,44.119,0,0,0,.318,6.391c.218,1.637.363,1.91,1.041,5.668.512,2.841.448,2.793.954,5.61.3,1.64.708,3.919,1.331,6.767.739,3.375.79,3.045,1.388,5.9.779,3.71.65,4.056,1.33,6.563.661,2.434.991,3.649,1.245,4.281a10.328,10.328,0,0,1,.925,3.354,11.421,11.421,0,0,1,0,1.533c-.068,1.174-.234,1.4-.434,2.892a20.636,20.636,0,0,0-.2,2.487c-.011.57.015.565.028,1.792.011.956,0,1.238,0,2.256,0,1.786.043,1.641.03,2.458a12.961,12.961,0,0,1-.376,3.73c-.3,1.032-.513,1.014-.955,2.342a15.624,15.624,0,0,0-.607,2.6,65.845,65.845,0,0,1-1.764,8.53,3.906,3.906,0,0,0-.028,2.777,1.8,1.8,0,0,0,.9,1.011c.284.1.483.034.81.231a1.282,1.282,0,0,1,.521.55c.169.374-.01.57.173.781.12.139.312.169.694.231s.526.011.752.145a1.618,1.618,0,0,1,.289.261c.364.354.547.532.579.549.35.179.544-.081,1.041.087a1.97,1.97,0,0,1,.463.259c.571.377.595.581.925.694a1.056,1.056,0,0,0,.839-.058c.09-.058.259-.2.463-1.156a7.018,7.018,0,0,1,.289-1.331c.016-.039.331-.795.55-.751.109.021.164.238.173.375.021.3-.149.434-.26.723a2.216,2.216,0,0,0-.028,1.041,2.08,2.08,0,0,0,.26,1.1,1.709,1.709,0,0,0,1.446.4,3.586,3.586,0,0,0,1.794-.838c.69-.479,1.036-.719,1.214-1.128a4.267,4.267,0,0,0,.145-1.764,6.574,6.574,0,0,1,.028-1.012,2.979,2.979,0,0,1,.144-.723,3.136,3.136,0,0,1,.521-.839c.244-.379.209-.73.116-1.88-.18-2.238-.127-1.937-.174-2.255-.142-.968-.241-1.056-.549-2.69-.15-.793-.225-1.19-.26-1.532-.132-1.276.221-1.393.144-3.037a15.723,15.723,0,0,1,.144-3.584,3.519,3.519,0,0,1,.116-.464c.257-.782.636-.955,1.128-1.764a4.17,4.17,0,0,0,.55-1.244,3.821,3.821,0,0,0,.086-1.3,8.314,8.314,0,0,0-.521-1.676c-.292-.838-.323-.917-.376-1.127a7.791,7.791,0,0,1-.2-1.36c-.094-1.2-.035-1.491-.086-2.256a15.073,15.073,0,0,0-.463-2.6c-.3-1.285-.437-1.49-.607-2.227a13.757,13.757,0,0,1-.145-3.846c.1-2.589.307-4.543.348-4.916.189-1.768.36-2.894.577-4.425.8-5.6.572-4.966.983-7.433.7-4.163,1.138-4.772,1.533-8.355.2-1.793.254-3.158.289-4.049a43.075,43.075,0,0,0-.289-8.357c-.155-1.071-.167-.807-.492-2.8-.243-1.5-.282-1.934-.781-5.524-.33-2.383-.36-2.528-.4-3.123-.1-1.363,0-1.288-.115-3.557,0,0-.05-.964-.03-2.256a6.5,6.5,0,0,1,.116-1.359,5.887,5.887,0,0,1,.578-1.532,18.867,18.867,0,0,0,.925-2.747,9.785,9.785,0,0,0,0-4.541c-.412-2.359.149-1.7-.03-17.207-.026-2.317-.061-4.338,0-7.316.05-2.41.14-4.266.318-6.275.085-.961.2-2.284.463-4.021.129-.863.229-1.408.926-4.915.429-2.16.769-3.86,1.1-5.842a34.938,34.938,0,0,0,.406-3.759c.028-.871.028-.925.028-.925a4.654,4.654,0,0,1,.028-1.042,2.663,2.663,0,0,1,.406-.839,10.674,10.674,0,0,1,.954-1.272,3.657,3.657,0,0,0,.579-.809,2.489,2.489,0,0,0,.2-.549,2.369,2.369,0,0,0,0-.955,17.127,17.127,0,0,1-.058-2.2c-.032-1.19-.017-1.071-.028-1.186a3.349,3.349,0,0,1-.03-1.243,1.171,1.171,0,0,1,.376-.693,1.118,1.118,0,0,1,.9-.172v.026c.011,0,.032-.009.058-.015s.047.012.058.015v-.026a1.118,1.118,0,0,1,.9.172,1.175,1.175,0,0,1,.375.693,3.323,3.323,0,0,1-.028,1.243c-.011.115,0,0-.03,1.186a16.925,16.925,0,0,1-.058,2.2,2.41,2.41,0,0,0,0,.955,2.588,2.588,0,0,0,.2.549,3.688,3.688,0,0,0,.577.809,10.561,10.561,0,0,1,.955,1.272,2.632,2.632,0,0,1,.4.839,4.566,4.566,0,0,1,.03,1.042s0,.054.028.925a34.756,34.756,0,0,0,.4,3.759c.329,1.982.67,3.682,1.1,5.842.7,3.507.8,4.052.925,4.915.258,1.736.378,3.06.463,4.021.178,2.009.268,3.865.318,6.275.062,2.979.027,5,0,7.316-.177,15.509.383,14.847-.028,17.207a9.785,9.785,0,0,0,0,4.541,18.865,18.865,0,0,0,.925,2.747,5.885,5.885,0,0,1,.579,1.532,6.655,6.655,0,0,1,.116,1.359c.021,1.292-.03,2.256-.03,2.256-.117,2.269-.013,2.194-.116,3.557-.044.595-.073.74-.4,3.123-.5,3.59-.537,4.021-.781,5.524-.324,2-.337,1.734-.491,2.8a43.178,43.178,0,0,0-.29,8.357c.035.892.092,2.256.29,4.049.395,3.583.838,4.192,1.532,8.355.411,2.467.187,1.836.983,7.433.218,1.531.388,2.657.579,4.425.04.373.247,2.327.347,4.916a13.735,13.735,0,0,1-.144,3.846c-.17.736-.308.942-.607,2.227a14.962,14.962,0,0,0-.463,2.6c-.051.765.007,1.056-.086,2.256a7.694,7.694,0,0,1-.2,1.36c-.052.21-.083.29-.375,1.127a8.313,8.313,0,0,0-.521,1.676,3.793,3.793,0,0,0,.086,1.3,4.172,4.172,0,0,0,.549,1.244c.491.809.871.982,1.129,1.764a3.693,3.693,0,0,1,.116.464,15.791,15.791,0,0,1,.144,3.584c-.077,1.644.277,1.761.144,3.037-.035.342-.11.739-.26,1.532-.308,1.634-.408,1.722-.55,2.69-.046.318.008.017-.173,2.255-.093,1.149-.129,1.5.116,1.88a3.165,3.165,0,0,1,.521.839,2.982,2.982,0,0,1,.144.723,6.723,6.723,0,0,1,.028,1.012,4.272,4.272,0,0,0,.144,1.764c.178.41.524.649,1.215,1.128a3.579,3.579,0,0,0,1.792.838,1.711,1.711,0,0,0,1.447-.4,2.08,2.08,0,0,0,.26-1.1,2.2,2.2,0,0,0-.03-1.041c-.112-.289-.281-.428-.26-.723.01-.137.065-.354.174-.375.219-.043.534.713.549.751a7.091,7.091,0,0,1,.29,1.331c.2.958.373,1.1.463,1.156a1.056,1.056,0,0,0,.839.058c.33-.114.354-.317.925-.694a1.97,1.97,0,0,1,.463-.259c.5-.168.691.092,1.041-.087.032-.017.214-.194.579-.549a1.616,1.616,0,0,1,.289-.261c.226-.134.371-.083.752-.145s.574-.093.693-.231c.183-.211,0-.407.174-.781a1.275,1.275,0,0,1,.521-.55c.327-.2.526-.13.809-.231a1.8,1.8,0,0,0,.9-1.011,3.906,3.906,0,0,0-.028-2.777,65.855,65.855,0,0,1-1.764-8.53,15.651,15.651,0,0,0-.608-2.6c-.441-1.329-.65-1.311-.954-2.342a12.959,12.959,0,0,1-.376-3.73c-.014-.817.026-.673.028-2.458,0-1.019-.01-1.3,0-2.256.014-1.227.039-1.222.03-1.792a20.867,20.867,0,0,0-.2-2.487c-.2-1.5-.366-1.718-.434-2.892a11.415,11.415,0,0,1,0-1.533,10.3,10.3,0,0,1,.925-3.354c.253-.631.583-1.847,1.243-4.281.681-2.507.552-2.853,1.331-6.563.6-2.854.649-2.524,1.388-5.9.623-2.847,1.036-5.126,1.33-6.767.506-2.817.442-2.769.955-5.61.678-3.758.822-4.031,1.041-5.668a44.123,44.123,0,0,0,.318-6.391c0-4.29-.341-5.206-.492-11.017-.047-1.82-.079-3.047-.038-4.8.049-2.16.18-3.881.588-8.04.268-2.74.421-4.135.867-8.357.684-6.466.722-6.959.983-9.166.083-.7.4-3.335.867-6.826.479-3.547.886-6.229,1.243-8.588.816-5.367.872-5.33,1.359-8.733.609-4.251.914-6.376,1.07-8.964a76.405,76.405,0,0,0-.028-8.33,188.422,188.422,0,0,0-1.88-19.5,67.829,67.829,0,0,0-2.391-11.335c-1.1-3.476-1.655-5.212-3.007-6.941a14.724,14.724,0,0,1-2.082-3.162,13.4,13.4,0,0,1-1.079-3.47,16,16,0,0,1,.154-5.321c.689-4.971.25-3.89.925-8.482.373-2.537.956-5.927,1.465-8.021a21.543,21.543,0,0,0,.925-3.933.859.859,0,0,1,.154-.685.544.544,0,0,1,.376-.154c.33.026.528.508.849,1.263.062.148.592,1.329.655,1.522.641,1.957,1.4,3.871,2.053,5.822.785,2.356.7,1.824,1.659,4.627a64.249,64.249,0,0,1,1.985,6.4c.481,2.053.4,2.4,1.023,4.9a29.6,29.6,0,0,0,1.1,3.779,49.825,49.825,0,0,0,2.41,4.8c.609,1.208,1,2.078,1.792,3.817.427.939,1.429,3.175,2.68,6.266,1.584,3.915,1.273,3.543,2.949,7.693,1.062,2.626,1.474,3.484,2,5.186a27.205,27.205,0,0,0,1.041,3.162c.259.6.421,1.233.675,1.832a2.335,2.335,0,0,1,.29,1.214,1.9,1.9,0,0,1-.4.945c-1.059,1.447.132,5.709.231,6.053a24.52,24.52,0,0,1,1.2,4.048c.086.567.114.971.154,1.543.141,2.011-.033,2.547-.038,5.629a18.886,18.886,0,0,1,0,2.159,4.8,4.8,0,0,0,0,1.389c.062.432.148.588.27.693a.967.967,0,0,0,1.041.039,1.543,1.543,0,0,0,.617-1.118,26.8,26.8,0,0,0,.385-4.28c.009-1.023.313-2.025.386-3.047.011-.156.036-.542.27-.655s.61.086.809.347a1.371,1.371,0,0,1,.192,1c-.268,2.05,1.062,6.791,1.235,7.4.767,2.732.3,1.076.713,2.68a1.158,1.158,0,0,0,.685.607.707.707,0,0,0,.751-.116c.218-.229.227-.584-.028-1.8-.137-.65-.292-1.107-.348-1.638a11.627,11.627,0,0,1-.115-1.5,28.094,28.094,0,0,0-.2-3.383c-.036-.331-.024-.973,0-2.256a1.03,1.03,0,0,1,.26-.781.88.88,0,0,1,.81-.145,1.058,1.058,0,0,1,.549.435,14.507,14.507,0,0,1,1.446,3.932c.013.042.337.944.81,2.285a18.991,18.991,0,0,0,1.041,2.343,5.851,5.851,0,0,0,.925,1.474c.616.692.669.9.809.925a1.24,1.24,0,0,0,1.071-.259c.114-.125.211-.319.2-1.013-.009-.626-.331-.723-.521-1.359a6.987,6.987,0,0,0-.723-1.822,13.808,13.808,0,0,1-1.1-2.689,14.732,14.732,0,0,0-.781-2.631,11.516,11.516,0,0,1-.4-1.736.958.958,0,0,1-.029-.637.8.8,0,0,1,.376-.4.787.787,0,0,1,.607-.058.909.909,0,0,1,.434.579c.195.548.342.4,1.243,1.735.165.244.235.359,1.359,2.313,0,0,.493.858,1.214,2.024a7.965,7.965,0,0,0,1.245,1.5c.357.339.615.519.925.493a.9.9,0,0,0,.665-.434,1.205,1.205,0,0,0,.058-.925,7.849,7.849,0,0,0-.983-2.227c-.808-1.187-.349-.955-1.591-3.152-.961-1.7-1.242-1.85-1.85-3.181a16.11,16.11,0,0,1-.751-2,11.237,11.237,0,0,1-.348-1.416,3.377,3.377,0,0,1-.028-1.331c.058-.29.126-.6.347-.693s.5.094.81.347c.949.786,1,1.3,1.792,2.082.079.078-.013-.017,1.417,1.069a3.921,3.921,0,0,0,1.358.839,2,2,0,0,0,1.359-.058.992.992,0,0,0,.521-.433A1.071,1.071,0,0,0,431.47,4539.329Z" transform="translate(12.191)" fill="#106384"/>
    <g id="Grupo_56475" data-name="Grupo 56475" transform="translate(480.16 4541.807)">
      <path id="Trazado_105347" data-name="Trazado 105347" d="M501.453,4572.73a36.333,36.333,0,0,1-6.309,3.871H459.381a36.333,36.333,0,0,1-6.309-3.871c9.193-9.19,16.391-22.354,16.391-22.354v-3.869c0-2.711-1.921-9.948-1.921-9.948.755-2.12,2.569-2.571,4.428-2.375a15.91,15.91,0,0,1,5.293,1.812s7.912-4.521,9.721.564c0,0-1.923,7.237-1.923,9.948v3.869S492.261,4563.54,501.453,4572.73Z" transform="translate(-452.243 -4527.931)" fill="#fee372"/>
      <path id="Trazado_105348" data-name="Trazado 105348" d="M474.344,4546.507c-.54,2.253-1.946,7.009-1.946,7.009l-1.1,2.19-2.084,20.895h-9.832a36.333,36.333,0,0,1-6.309-3.871c9.193-9.19,16.391-22.354,16.391-22.354v-3.869c0-2.711-1.921-9.948-1.921-9.948.755-2.12,2.569-2.571,4.428-2.375l0,0C467.966,4540.436,475.122,4543.265,474.344,4546.507Z" transform="translate(-452.243 -4527.931)" fill="#eabe32"/>
      <path id="Trazado_105349" data-name="Trazado 105349" d="M483.659,4549.317h-15.6v-3.869h15.6" transform="translate(-450.84 -4526.872)" fill="#fb6572"/>
      <path id="Trazado_105350" data-name="Trazado 105350" d="M472.8,4549.317H468.06v-3.869H472.8" transform="translate(-450.84 -4526.872)" fill="#ea394e"/>
      <path id="Trazado_105351" data-name="Trazado 105351" d="M470.81,4553.86s-5.505,12.774-12.535,21.7a33.852,33.852,0,0,0,37,0c-7.03-8.921-12.535-21.7-12.535-21.7" transform="translate(-451.756 -4526.084)" fill="#fee372"/>
      <path id="Trazado_105352" data-name="Trazado 105352" d="M502.111,4572.676c-8.418-8.416-15.242-20.366-16.148-21.983v-3.655a21.375,21.375,0,0,1,.46-3.512.829.829,0,1,0-1.629-.31c-.236,1.231-.384,2.22-.451,2.993h-14.02a72.461,72.461,0,0,0-1.838-9.068,2.462,2.462,0,0,1,1.445-1.423c2.141-.794,5.774.834,6.994,1.529a.827.827,0,0,0,.821,0c1.221-.695,4.855-2.324,7-1.529a2.472,2.472,0,0,1,1.445,1.423c-.124.474-.4,1.54-.692,2.813a.83.83,0,0,0,1.616.377c.395-1.694.745-3.014.749-3.027a.835.835,0,0,0-.022-.491,4.242,4.242,0,0,0-1.766-2.282,8.542,8.542,0,0,0-2.77-5.868.829.829,0,0,0-1.253.208,14.936,14.936,0,0,0-1.873,5.538c-.126.041-.253.082-.382.127a19.039,19.039,0,0,0-2.457,1.051,19.1,19.1,0,0,0-2.457-1.051c-.129-.045-.256-.086-.383-.127a14.973,14.973,0,0,0-1.871-5.538.831.831,0,0,0-1.254-.208,8.539,8.539,0,0,0-2.77,5.868,4.253,4.253,0,0,0-1.766,2.282.826.826,0,0,0-.021.491c.02.07,1.894,7.162,1.894,9.735v3.655c-.907,1.617-7.732,13.567-16.148,21.983a.829.829,0,0,0,.061,1.228,35.607,35.607,0,0,0,5.566,3.514l0,0a.827.827,0,0,0,.168,1.188,27.76,27.76,0,0,0,4.244,2.353.829.829,0,1,0,.693-1.507,31.082,31.082,0,0,1-3.247-1.723c6.752-8.861,12.035-21.04,12.089-21.165a.829.829,0,1,0-1.523-.655c-.052.119-5.009,11.542-11.4,20.168a39.1,39.1,0,0,1-4.805-2.91c7.929-8.175,14.321-19.138,15.62-21.43h14.625c1.3,2.292,7.693,13.255,15.622,21.43a38.82,38.82,0,0,1-4.806,2.91c-6.393-8.626-11.35-20.049-11.4-20.168a.829.829,0,1,0-1.522.655c.054.125,5.337,12.3,12.089,21.164a34.348,34.348,0,0,1-17.292,4.878,33.157,33.157,0,0,1-11.039-1.937.829.829,0,1,0-.551,1.564,34.456,34.456,0,0,0,30.573-3.626.831.831,0,0,0,.169-1.187l0,0a35.624,35.624,0,0,0,5.565-3.514.828.828,0,0,0,.062-1.228ZM482.967,4530.7a7.08,7.08,0,0,1,1.358,3.214,7.7,7.7,0,0,0-2.429.065A12.857,12.857,0,0,1,482.967,4530.7Zm-11.267,0a12.9,12.9,0,0,1,1.071,3.28,7.7,7.7,0,0,0-2.429-.065A7.08,7.08,0,0,1,471.7,4530.7Zm12.6,19.379H470.364v-2.21H484.3Z" transform="translate(-452.314 -4528.462)"/>
    </g>
    <g id="Grupo_56476" data-name="Grupo 56476" transform="translate(547.962 4537.23)">
      <path id="Trazado_105353" data-name="Trazado 105353" d="M539.039,4543.193l-.993,10.917v23.82h-7.94l-.641-7.682a35.421,35.421,0,0,0-1.693-8.251l-.644-1.932-.644,1.932a35.421,35.421,0,0,0-1.693,8.251l-.64,7.682h-7.941v-23.82l-.992-10.917,2.977-2.977v-5.956h17.865v5.956Z" transform="translate(-514.226 -4523.342)" fill="#2da4c4"/>
      <path id="Trazado_105354" data-name="Trazado 105354" d="M522,4535.109h-3.97l-.992-9.924H521Z" transform="translate(-514.057 -4524.192)" fill="#cacac9"/>
      <path id="Trazado_105355" data-name="Trazado 105355" d="M530.647,4535.109h3.97l.993-9.924h-3.971Z" transform="translate(-512.782 -4524.192)" fill="#cacac9"/>
      <path id="Trazado_105356" data-name="Trazado 105356" d="M522.479,4538.8h7.94v3.97a3.97,3.97,0,0,1-7.94,0v-3.97Z" transform="translate(-513.547 -4522.917)" fill="#0784a9"/>
      <path id="Trazado_105357" data-name="Trazado 105357" d="M516.126,4574.192h7.941v3.97h-7.941Z" transform="translate(-514.142 -4519.604)" fill="#5db9d2"/>
      <path id="Trazado_105358" data-name="Trazado 105358" d="M536.772,4578.162h-7.94v-3.97h7.94Z" transform="translate(-512.952 -4519.604)" fill="#5db9d2"/>
      <path id="Trazado_105359" data-name="Trazado 105359" d="M526.534,4547.816a4.969,4.969,0,0,0,4.963-4.963v-3.97a.991.991,0,0,0-.993-.991h-7.94a.992.992,0,0,0-.993.991v3.97A4.969,4.969,0,0,0,526.534,4547.816Zm-2.977-7.94h5.955v2.977a2.977,2.977,0,1,1-5.955,0Z" transform="translate(-513.632 -4523.003)"/>
      <path id="Trazado_105360" data-name="Trazado 105360" d="M539.825,4543.426l-2.686-2.687v-5.494l.988-9.875a.993.993,0,0,0-.889-1.087.835.835,0,0,0-.1-.006h-3.971a.994.994,0,0,0-.988.894l-.9,9.032H523.15l-.9-9.032a.994.994,0,0,0-.988-.894h-3.97a.994.994,0,0,0-.993.994c0,.032,0,.066.005.1l.988,9.875v5.494l-2.687,2.687a1,1,0,0,0-.286.792l.989,10.872v27.745a.992.992,0,0,0,.992.993h7.941a.992.992,0,0,0,.992-.993v-3.928l.637-7.643a34.518,34.518,0,0,1,1.348-7.081,34.445,34.445,0,0,1,1.348,7.081l.637,7.643v3.928a.993.993,0,0,0,.993.993h7.94a.993.993,0,0,0,.993-.993V4555.09l.988-10.873A.988.988,0,0,0,539.825,4543.426Zm-2.686,16.448a3.683,3.683,0,0,1-2.652-2.953l-.147-.883h2.8Zm-3.469-29.641h1.975l-.4,3.97h-1.975Zm2.372-3.97-.2,1.985h-1.975l.2-1.985Zm-14.887,7.94H519.18l-.4-3.97h1.975Zm-.794-7.94.2,1.985h-1.975l-.2-1.985Zm-1.378,15.589a.993.993,0,0,0,.291-.7v-4.963h15.879v4.963a.993.993,0,0,0,.291.7l2.649,2.649-.867,9.552H517.2l-.868-9.552Zm1.1,14.186-.148.883a3.682,3.682,0,0,1-2.651,2.953v-3.836Zm3.156,25.805h-5.955v-1.985h5.955Zm4.911-21.157a.992.992,0,0,0-1.883,0l-.643,1.931a36.368,36.368,0,0,0-1.741,8.482l-.564,6.774h-6.035v-15.967a5.658,5.658,0,0,0,4.609-4.659l.2-1.209h10.229l.2,1.209a5.66,5.66,0,0,0,4.61,4.659v15.967H531.1l-.564-6.774a36.485,36.485,0,0,0-1.741-8.482Zm8.984,21.157h-5.956v-1.985h5.956Z" transform="translate(-514.311 -4524.277)"/>
      <path id="Trazado_105361" data-name="Trazado 105361" d="M525.2,4541.521h1.985v1.984H525.2Z" transform="translate(-513.292 -4522.663)"/>
    </g>
    <g id="Grupo_56478" data-name="Grupo 56478" transform="translate(154.866 4423.533)">
      <path id="Trazado_105362" data-name="Trazado 105362" d="M186.055,4423.636c-2.533-1.992-7.954-3.245-8.184-3.3a.787.787,0,0,0-.943.593.778.778,0,0,0-.02.175c0,1.063-2.181,2.36-4.723,2.36s-4.722-1.3-4.722-2.36a.788.788,0,0,0-.3-.616.765.765,0,0,0-.666-.158c-.23.051-5.649,1.307-8.187,3.3-2.621,2.068-3.367,12.037-3.446,13.167a.787.787,0,0,0,.444.762,18.636,18.636,0,0,0,5.853,1.621v16.563a.79.79,0,0,0,.419.695c.128.068,3.219,1.667,10.6,1.667s10.475-1.6,10.6-1.667a.79.79,0,0,0,.419-.695V4439.18a18.638,18.638,0,0,0,5.852-1.621.788.788,0,0,0,.445-.762C189.425,4435.667,188.68,4425.7,186.055,4423.636Z" transform="translate(-154.866 -4420.313)" fill="#03a9f4"/>
      <g id="Grupo_56477" data-name="Grupo 56477" transform="translate(4.733 7.867)">
        <path id="Trazado_105363" data-name="Trazado 105363" d="M161.547,4438.536a.787.787,0,0,1-.787-.787v-4.723a6.3,6.3,0,0,0-1.344-4.167.787.787,0,0,1,1.112-1.112,7.7,7.7,0,0,1,1.807,5.279v4.723A.788.788,0,0,1,161.547,4438.536Z" transform="translate(-159.194 -4427.504)" fill="#0288d1"/>
        <path id="Trazado_105364" data-name="Trazado 105364" d="M180.129,4438.537a.787.787,0,0,1-.787-.786v-4.723a7.7,7.7,0,0,1,1.8-5.281.787.787,0,0,1,1.132,1.094l-.019.02a6.3,6.3,0,0,0-1.343,4.167v4.723A.787.787,0,0,1,180.129,4438.537Z" transform="translate(-157.309 -4427.506)" fill="#0288d1"/>
      </g>
      <path id="Trazado_105365" data-name="Trazado 105365" d="M177.254,4420.5a.78.78,0,0,0-.649-.167,47.72,47.72,0,0,1-5.363.773,47.737,47.737,0,0,1-5.362-.773.79.79,0,0,0-.935.773c0,2.361,3.256,3.937,6.3,3.937s6.3-1.576,6.3-3.937A.791.791,0,0,0,177.254,4420.5Z" transform="translate(-153.923 -4420.312)" fill="#1976d2"/>
      <path id="Trazado_105366" data-name="Trazado 105366" d="M182.42,4439.21a.787.787,0,1,1,0-1.574,15.652,15.652,0,0,0,5.472-1.284c-.315-4.043-1.311-10.305-2.808-11.479a22.309,22.309,0,0,0-6.789-2.8c-.74,1.812-3.5,2.973-6.109,2.973s-5.369-1.161-6.107-2.975a22.431,22.431,0,0,0-6.788,2.807c-1.5,1.174-2.488,7.438-2.81,11.479a15.64,15.64,0,0,0,5.471,1.284.787.787,0,1,1,0,1.574,17.844,17.844,0,0,1-6.639-1.651.786.786,0,0,1-.445-.762c.077-1.132.82-11.1,3.447-13.162a26.37,26.37,0,0,1,8.186-3.3.776.776,0,0,1,.666.158.79.79,0,0,1,.3.609c0,1.063,2.18,2.36,4.722,2.36s4.723-1.3,4.723-2.36a.787.787,0,0,1,.789-.787.8.8,0,0,1,.174.02,26.352,26.352,0,0,1,8.187,3.3c2.627,2.059,3.372,12.032,3.447,13.162a.786.786,0,0,1-.443.762A17.818,17.818,0,0,1,182.42,4439.21Z" transform="translate(-154.866 -4420.312)"/>
      <path id="Trazado_105367" data-name="Trazado 105367" d="M171.78,4457.431c-7.4,0-10.476-1.6-10.6-1.668a.787.787,0,0,1-.418-.695v-22.041a6.3,6.3,0,0,0-1.344-4.167.786.786,0,0,1,1.112-1.112,7.7,7.7,0,0,1,1.807,5.279v21.524a27.13,27.13,0,0,0,9.446,1.3,27.1,27.1,0,0,0,9.447-1.3v-21.523a7.7,7.7,0,0,1,1.8-5.281.787.787,0,0,1,1.132,1.094l-.019.02a6.3,6.3,0,0,0-1.343,4.167v22.041a.789.789,0,0,1-.418.695C182.256,4455.831,179.18,4457.431,171.78,4457.431Z" transform="translate(-154.461 -4419.639)"/>
      <path id="Trazado_105368" data-name="Trazado 105368" d="M171.243,4422.679a50.575,50.575,0,0,1-5.658-.8.787.787,0,0,1,.268-1.552l.028.005a47.962,47.962,0,0,0,5.362.773,47.945,47.945,0,0,0,5.363-.773.788.788,0,0,1,.324,1.542l-.028,0A50.54,50.54,0,0,1,171.243,4422.679Z" transform="translate(-153.924 -4420.312)"/>
    </g>
    <g id="Grupo_56479" data-name="Grupo 56479" transform="translate(202.076 4422.248)">
      <path id="Trazado_105369" data-name="Trazado 105369" d="M227.8,4454.112l.3,3.494a8.6,8.6,0,0,1-5.61,2.076,15.6,15.6,0,0,1-4.551-.847l-1.032-.317a1.285,1.285,0,0,0-.316-.041,1.221,1.221,0,0,0-.354.054l-.994.3c-2.921.881-6.623,1.786-10.325-1.225h0l.3-3.494-6.577-1.873,1.065-15.932c.155-12.794,2.771-12.06,5.606-12.675a49.489,49.489,0,0,1,22.565,0c2.836.616,5.451-.119,5.606,12.675l1.066,15.932Z" transform="translate(-197.979 -4418.839)" fill="#ffcebf"/>
      <path id="Trazado_105370" data-name="Trazado 105370" d="M226.259,4454.112l.3,3.494a8.6,8.6,0,0,1-5.61,2.076,15.6,15.6,0,0,1-4.551-.847l-1.032-.317a1.285,1.285,0,0,0-.316-.041v-36.149a52.046,52.046,0,0,1,11.282,1.3c2.836.616,5.451-.119,5.606,12.675L233,4452.239Z" transform="translate(-196.442 -4418.839)" fill="#ffb99c"/>
      <path id="Trazado_105371" data-name="Trazado 105371" d="M216.511,4435.833v.362a1.348,1.348,0,0,1-1.347,1.349h-.016a1.348,1.348,0,0,1-1.333-1.349v-.362a1.348,1.348,0,0,1,1.333-1.348h.016A1.348,1.348,0,0,1,216.511,4435.833Z" transform="translate(-196.558 -4417.701)" fill="#ff5955"/>
      <path id="Trazado_105372" data-name="Trazado 105372" d="M216.4,4435.833v.362a1.348,1.348,0,0,1-1.347,1.349h0v-3.059h0A1.348,1.348,0,0,1,216.4,4435.833Z" transform="translate(-196.442 -4417.701)" fill="#fc1c5c"/>
      <path id="Trazado_105373" data-name="Trazado 105373" d="M216.511,4442.142v.363a1.348,1.348,0,0,1-1.347,1.348h-.016a1.349,1.349,0,0,1-1.333-1.348v-.363a1.349,1.349,0,0,1,1.333-1.348h.016A1.348,1.348,0,0,1,216.511,4442.142Z" transform="translate(-196.558 -4417.11)" fill="#ff5955"/>
      <path id="Trazado_105374" data-name="Trazado 105374" d="M216.4,4442.142v.363a1.348,1.348,0,0,1-1.347,1.348h0v-3.06h0A1.348,1.348,0,0,1,216.4,4442.142Z" transform="translate(-196.442 -4417.11)" fill="#fc1c5c"/>
      <path id="Trazado_105375" data-name="Trazado 105375" d="M216.511,4447.633v.362a1.348,1.348,0,0,1-1.347,1.348h-.016a1.348,1.348,0,0,1-1.333-1.348v-.362a1.348,1.348,0,0,1,1.333-1.349h.016A1.349,1.349,0,0,1,216.511,4447.633Z" transform="translate(-196.558 -4416.597)" fill="#ff5955"/>
      <path id="Trazado_105376" data-name="Trazado 105376" d="M216.4,4447.633v.362a1.348,1.348,0,0,1-1.347,1.348h0v-3.059h0A1.349,1.349,0,0,1,216.4,4447.633Z" transform="translate(-196.442 -4416.597)" fill="#fc1c5c"/>
      <path id="Trazado_105377" data-name="Trazado 105377" d="M216.511,4453.447v2.6q-.533-.165-1.032-.317a1.24,1.24,0,0,0-.316-.041,1.221,1.221,0,0,0-.354.054l-.994.3v-2.641a1.347,1.347,0,0,1,1.348-1.348A1.371,1.371,0,0,1,216.511,4453.447Z" transform="translate(-196.558 -4416.056)" fill="#ff5955"/>
      <path id="Trazado_105378" data-name="Trazado 105378" d="M216.4,4453.447v2.6q-.533-.165-1.032-.317a1.24,1.24,0,0,0-.316-.041v-3.634A1.371,1.371,0,0,1,216.4,4453.447Z" transform="translate(-196.442 -4416.056)" fill="#fc1c5c"/>
      <path id="Trazado_105379" data-name="Trazado 105379" d="M224.336,4426.181a2.364,2.364,0,0,1-3.8,1.9l-2.686-2.053a.449.449,0,0,0-.722.357v5.481a1.35,1.35,0,0,1-1.35,1.349h-.014a.433.433,0,0,1-.05,0,1.373,1.373,0,0,1-1.284-1.384v-5.444a.45.45,0,0,0-.723-.357l-2.686,2.053a2.363,2.363,0,0,1-3.8-1.9l.044-5.155a1.345,1.345,0,0,1,.174-.655,1.625,1.625,0,0,1,.092-.141,1.345,1.345,0,0,1,.89-.529,53.889,53.889,0,0,1,7.343-.563h.014a46.378,46.378,0,0,1,7.359.561,1.342,1.342,0,0,1,.98.674,1.333,1.333,0,0,1,.173.648Z" transform="translate(-197.175 -4419.138)" fill="#ff5955"/>
      <path id="Trazado_105380" data-name="Trazado 105380" d="M223.6,4426.181a2.364,2.364,0,0,1-3.8,1.9l-2.686-2.053a.449.449,0,0,0-.722.357v5.481a1.35,1.35,0,0,1-1.35,1.349v-14.075a46.378,46.378,0,0,1,7.359.561,1.348,1.348,0,0,1,1.153,1.323Z" transform="translate(-196.442 -4419.138)" fill="#fc1c5c"/>
      <path id="Trazado_105381" data-name="Trazado 105381" d="M224.1,4420.374a10.689,10.689,0,0,1-8.338,4.071h-.016a10.688,10.688,0,0,1-8.324-4.074,1.622,1.622,0,0,1,.092-.141,1.345,1.345,0,0,1,.89-.529,53.889,53.889,0,0,1,7.343-.563h.014a46.378,46.378,0,0,1,7.359.561,1.342,1.342,0,0,1,.98.674Z" transform="translate(-197.156 -4419.138)" fill="#ffa78f"/>
      <path id="Trazado_105382" data-name="Trazado 105382" d="M223.386,4420.374a10.689,10.689,0,0,1-8.338,4.071h0v-5.307a46.378,46.378,0,0,1,7.359.561,1.342,1.342,0,0,1,.98.674Z" transform="translate(-196.442 -4419.138)" fill="#f89580"/>
      <path id="Trazado_105383" data-name="Trazado 105383" d="M198.471,4449.375l6.62.8-.357,4.205-5.178-.719c-.689-.091-1.539-.666-1.521-1.342l.067-2.634A.325.325,0,0,1,198.471,4449.375Z" transform="translate(-198.035 -4416.307)" fill="#ff5955"/>
      <path id="Trazado_105384" data-name="Trazado 105384" d="M232.227,4449.375l-6.62.8.357,4.205,5.178-.719c.689-.091,1.539-.666,1.522-1.342l-.067-2.634A.327.327,0,0,0,232.227,4449.375Z" transform="translate(-195.454 -4416.307)" fill="#fc1c5c"/>
      <path id="Trazado_105385" data-name="Trazado 105385" d="M207.136,4442.4c0,.031,0,.062,0,.092l-.922,11.448-.316,3.935a9.744,9.744,0,0,1-1.178-.778q-.354-.268-.71-.587a1.237,1.237,0,0,1-.4-1.017l.13-1.613.928-11.541a39.887,39.887,0,0,0-.34-4.874c-.276-2.4-.514-4.48.231-6.649a1.237,1.237,0,0,1,2.34.8c-.563,1.639-.364,3.372-.114,5.564A41.325,41.325,0,0,1,207.136,4442.4Z" transform="translate(-197.514 -4418.122)" fill="#ffa78f"/>
      <path id="Trazado_105386" data-name="Trazado 105386" d="M226.224,4456.529a10.519,10.519,0,0,1-1.885,1.358l-.279-3.46-.96-11.931c0-.03,0-.061,0-.092a41.555,41.555,0,0,1,.355-5.216c.252-2.192.451-3.925-.113-5.564a1.237,1.237,0,1,1,2.339-.8c.746,2.168.507,4.245.231,6.649a40.1,40.1,0,0,0-.34,4.874l.979,12.146.081,1.021A1.232,1.232,0,0,1,226.224,4456.529Z" transform="translate(-195.689 -4418.122)" fill="#f89580"/>
    </g>
    <g id="Grupo_56483" data-name="Grupo 56483" transform="translate(250.272 4423.959)">
      <g id="Grupo_56481" data-name="Grupo 56481">
        <g id="Grupo_56480" data-name="Grupo 56480">
          <path id="Trazado_105387" data-name="Trazado 105387" d="M266.745,4435.518a9.044,9.044,0,0,1-3.618-7.235v-6.845a.733.733,0,0,0-.734-.733h-3.422a.733.733,0,0,0-.733.733v5.377a3.667,3.667,0,1,1-7.334,0v-5.377a.733.733,0,0,0-.734-.733H246.75a.733.733,0,0,0-.733.733v6.845a9.044,9.044,0,0,1-3.618,7.235.732.732,0,0,0-.294.586v8.9a.735.735,0,0,0,.734.734h23.467a.734.734,0,0,0,.733-.734v-8.9A.731.731,0,0,0,266.745,4435.518Zm-19.262-7.235v-6.111h1.955v4.644a5.133,5.133,0,0,0,10.267,0v-4.644h1.955v6.111a10.579,10.579,0,0,0,1.109,4.7q.067.133.138.264a16.579,16.579,0,0,0-2.813,11.021H249.048a16.569,16.569,0,0,0-2.812-11.021c.046-.088.092-.176.137-.264a10.565,10.565,0,0,0,1.11-4.7Zm-3.912,8.18a10.566,10.566,0,0,0,1.8-1.862,15.1,15.1,0,0,1,2.2,9.668h-4Zm22,7.807h-4a15.1,15.1,0,0,1,2.2-9.668,10.565,10.565,0,0,0,1.8,1.862Z" transform="translate(-242.105 -4420.704)" fill="#b16040"/>
        </g>
      </g>
      <g id="Grupo_56482" data-name="Grupo 56482" transform="translate(1.467 1.467)">
        <path id="Trazado_105388" data-name="Trazado 105388" d="M247.13,4428.156v-6.111h1.955v4.644a5.133,5.133,0,0,0,10.267,0v-4.644h1.955v6.111a10.575,10.575,0,0,0,1.109,4.7c.045.089.091.177.138.265a16.579,16.579,0,0,0-2.813,11.021H248.695a16.562,16.562,0,0,0-2.813-11.021c.047-.088.093-.176.138-.265a10.562,10.562,0,0,0,1.11-4.7Z" transform="translate(-243.218 -4422.045)" fill="#ffcd91"/>
        <path id="Trazado_105389" data-name="Trazado 105389" d="M243.446,4435.272a10.568,10.568,0,0,0,1.8-1.862,15.1,15.1,0,0,1,2.2,9.668h-4Z" transform="translate(-243.446 -4420.981)" fill="#ffcd91"/>
        <path id="Trazado_105390" data-name="Trazado 105390" d="M263.913,4443.079h-4a15.1,15.1,0,0,1,2.2-9.668,10.568,10.568,0,0,0,1.8,1.862Z" transform="translate(-241.913 -4420.981)" fill="#ffcd91"/>
      </g>
    </g>
    <g id="Grupo_56485" data-name="Grupo 56485" transform="translate(164.505 4571.586)">
      <path id="Trazado_105391" data-name="Trazado 105391" d="M194.13,4556.565H167.415l-2.862,54.384,9.541.955,6.679-41.028,6.679,41.028,9.541-.955Z" transform="translate(-163.598 -4555.611)" fill="#4398d1"/>
      <path id="Trazado_105392" data-name="Trazado 105392" d="M194.444,4566.106h-.277a7.747,7.747,0,0,1-3.817-4.771h3.817l-.1-1.908H181.535v-2.863h-1.908v2.863h-1.908v-2.863H175.81v2.863h-8.74l-.1,1.908h3.817a7.751,7.751,0,0,1-3.817,4.771H166.7l-.1,1.909h.62a.967.967,0,0,0,.43-.105,9.59,9.59,0,0,0,5.114-6.574h3.044v3.367a7.792,7.792,0,0,0,4.342,7.022.94.94,0,0,0,.429.105.948.948,0,0,0,.955-.954v-9.541h6.859a9.591,9.591,0,0,0,5.115,6.574.959.959,0,0,0,.429.105h.6Zm-14.817,2.967a5.911,5.911,0,0,1-1.908-4.37v-3.367h1.908Z" transform="translate(-163.406 -4555.61)" fill="#126099"/>
      <g id="Grupo_56484" data-name="Grupo 56484" transform="translate(0.955 18.939)">
        <path id="Trazado_105393" data-name="Trazado 105393" d="M164.553,4607.832l9.541.955,3.082-18.93a56.729,56.729,0,0,1-12,6.259Z" transform="translate(-164.553 -4571.433)" fill="#3e8cc7"/>
        <path id="Trazado_105394" data-name="Trazado 105394" d="M181.923,4586.377l3.9,23.986,9.542-.954-1.908-36.4A77.179,77.179,0,0,1,181.923,4586.377Z" transform="translate(-162.927 -4573.01)" fill="#3e8cc7"/>
      </g>
      <path id="Trazado_105395" data-name="Trazado 105395" d="M174.08,4612.939a.952.952,0,0,0,1.049-.8l5.725-35.245,5.725,35.245a.954.954,0,0,0,.954.8h.1l9.542-.954a.955.955,0,0,0,.859-.954l-2.862-54.385a.954.954,0,0,0-.955-.954H167.5a.954.954,0,0,0-.954.954l-2.863,54.385a.955.955,0,0,0,.859.954Zm3.912-51.522H179.9v7.738a5.913,5.913,0,0,1-1.908-4.371Zm0-1.908V4557.6H179.9v1.909Zm10.342,51.436-6.526-40.062v-9.465h6.859a9.591,9.591,0,0,0,5.115,6.574h.075l2.262,42.181Zm5.4-45.187a7.715,7.715,0,0,1-3.1-4.341H193.5Zm-.325-6.249h-11.6V4557.6h11.449Zm-17.326-1.909v1.909H168.3l.152-1.909Zm-5.009,3.817a7.721,7.721,0,0,1-3.1,4.341l.23-4.341Zm-3.225,6.592h.077a9.588,9.588,0,0,0,5.114-6.592h3.044v3.367a7.8,7.8,0,0,0,3.722,6.679l-6.432,39.5-7.737-.772Z" transform="translate(-163.68 -4555.692)"/>
    </g>
    <g id="Grupo_56503" data-name="Grupo 56503" transform="translate(249.713 4572.807)">
      <g id="Grupo_56502" data-name="Grupo 56502" transform="translate(0)">
        <g id="Grupo_56488" data-name="Grupo 56488" transform="translate(0.384 0.382)">
          <g id="Grupo_56487" data-name="Grupo 56487">
            <path id="Trazado_105396" data-name="Trazado 105396" d="M271.632,4576.148l.4,2.673-13.691,2.026-.519-2.657Z" transform="translate(-240.459 -4555.38)" fill="#f9ab49"/>
            <path id="Trazado_105397" data-name="Trazado 105397" d="M270.226,4567.223l1.54,10.418-13.814,2.043-1.574-8.058v-3.46l1.951-1.952V4560.2H263.2Z" transform="translate(-240.594 -4556.873)" fill="#f9cb7d"/>
            <g id="Grupo_56486" data-name="Grupo 56486" transform="translate(2.977)">
              <path id="Trazado_105398" data-name="Trazado 105398" d="M268.6,4560.2l1.04,7.023-7.022-7.023Z" transform="translate(-242.986 -4556.873)" fill="#f9ab49"/>
              <path id="Trazado_105399" data-name="Trazado 105399" d="M270.283,4557.157v3.327H244.667v-3.327Z" transform="translate(-244.667 -4557.157)" fill="#f9ab49"/>
              <path id="Trazado_105400" data-name="Trazado 105400" d="M258.33,4560.2v6.015l-1.951,1.952V4560.2Z" transform="translate(-243.571 -4556.873)" fill="#f9ab49"/>
            </g>
            <path id="Trazado_105401" data-name="Trazado 105401" d="M257.7,4568.166v3.46l-1.568,8.018-13.817-2.045,1.537-10.376,7.022-7.023H257.7Z" transform="translate(-241.911 -4556.873)" fill="#f9cb7d"/>
            <path id="Trazado_105402" data-name="Trazado 105402" d="M256.162,4578.154l-.526,2.7-13.691-2.026.4-2.715Z" transform="translate(-241.945 -4555.383)" fill="#f9ab49"/>
            <path id="Trazado_105403" data-name="Trazado 105403" d="M250.738,4560.2l-7.022,7.023,1.04-7.023Z" transform="translate(-241.779 -4556.873)" fill="#f9ab49"/>
          </g>
        </g>
        <g id="Grupo_56501" data-name="Grupo 56501">
          <g id="Grupo_56489" data-name="Grupo 56489" transform="translate(2.978)">
            <path id="Trazado_105404" data-name="Trazado 105404" d="M270.316,4560.9H244.7a.383.383,0,0,1-.383-.381v-3.327a.384.384,0,0,1,.383-.382h25.616a.383.383,0,0,1,.383.382v3.329a.373.373,0,0,1-.113.269A.385.385,0,0,1,270.316,4560.9Zm-25.234-.763h24.852v-2.565H245.081Z" transform="translate(-244.317 -4556.808)"/>
          </g>
          <g id="Grupo_56490" data-name="Grupo 56490" transform="translate(14.384 1.663)">
            <path id="Trazado_105405" data-name="Trazado 105405" d="M257.934,4559.092h-2.805a.382.382,0,1,1,0-.763h2.8a.382.382,0,0,1,0,.763Z" transform="translate(-254.747 -4558.329)"/>
          </g>
          <g id="Grupo_56495" data-name="Grupo 56495" transform="translate(0 3.327)">
            <g id="Grupo_56491" data-name="Grupo 56491" transform="translate(15.788 0.002)">
              <path id="Trazado_105406" data-name="Trazado 105406" d="M258.5,4582.755a.379.379,0,0,1-.373-.307l-2.094-10.717a.382.382,0,0,1,.749-.147l2.024,10.358,12.953-1.917-2.922-19.737a.382.382,0,0,1,.756-.11l2.977,20.115a.38.38,0,0,1-.323.434l-13.691,2.025a.533.533,0,0,1-.056,0Z" transform="translate(-256.03 -4559.852)"/>
            </g>
            <g id="Grupo_56492" data-name="Grupo 56492">
              <path id="Trazado_105407" data-name="Trazado 105407" d="M255.669,4582.755c-.02,0-.038,0-.058,0l-13.691-2.025a.385.385,0,0,1-.322-.436l2.978-20.112a.382.382,0,0,1,.756.11l-2.921,19.738,12.952,1.915,2.024-10.357a.382.382,0,0,1,.749.147l-2.094,10.713A.379.379,0,0,1,255.669,4582.755Z" transform="translate(-241.594 -4559.851)"/>
            </g>
            <g id="Grupo_56493" data-name="Grupo 56493" transform="translate(0.403 17.402)">
              <path id="Trazado_105408" data-name="Trazado 105408" d="M256.163,4578.569a.463.463,0,0,1-.058,0l-13.816-2.044a.381.381,0,1,1,.11-.754l13.816,2.043a.382.382,0,0,1-.052.76Z" transform="translate(-241.963 -4575.762)"/>
            </g>
            <g id="Grupo_56494" data-name="Grupo 56494" transform="translate(17.361 17.442)">
              <path id="Trazado_105409" data-name="Trazado 105409" d="M257.851,4578.606a.382.382,0,0,1-.055-.759l13.813-2.043a.381.381,0,1,1,.11.755l-13.815,2.043c-.016,0-.036,0-.055,0Z" transform="translate(-257.469 -4575.799)"/>
            </g>
          </g>
          <g id="Grupo_56496" data-name="Grupo 56496" transform="translate(15.786 3.327)">
            <path id="Trazado_105410" data-name="Trazado 105410" d="M256.412,4572.064a.384.384,0,0,1-.383-.383v-11.45a.382.382,0,0,1,.764,0v11.45A.384.384,0,0,1,256.412,4572.064Z" transform="translate(-256.029 -4559.85)"/>
          </g>
          <g id="Grupo_56499" data-name="Grupo 56499" transform="translate(1.94 3.326)">
            <g id="Grupo_56497" data-name="Grupo 56497">
              <path id="Trazado_105411" data-name="Trazado 105411" d="M243.749,4567.637a.381.381,0,0,1-.269-.112.385.385,0,0,1,0-.542l7.022-7.021a.382.382,0,1,1,.541.54l-7.023,7.024A.379.379,0,0,1,243.749,4567.637Z" transform="translate(-243.368 -4559.849)"/>
            </g>
            <g id="Grupo_56498" data-name="Grupo 56498" transform="translate(20.673)">
              <path id="Trazado_105412" data-name="Trazado 105412" d="M269.675,4567.637a.381.381,0,0,1-.269-.112l-7.023-7.024a.382.382,0,0,1,.541-.54l7.022,7.021a.385.385,0,0,1,0,.542A.379.379,0,0,1,269.675,4567.637Z" transform="translate(-262.271 -4559.849)"/>
            </g>
          </g>
          <g id="Grupo_56500" data-name="Grupo 56500" transform="translate(15.787 3.325)">
            <path id="Trazado_105413" data-name="Trazado 105413" d="M256.412,4568.581a.383.383,0,0,1-.27-.653l1.842-1.842v-5.856a.382.382,0,0,1,.763,0v6.013a.377.377,0,0,1-.112.271l-1.952,1.951a.376.376,0,0,1-.271.117Z" transform="translate(-256.03 -4559.848)"/>
          </g>
        </g>
      </g>
    </g>
    <g id="Grupo_56508" data-name="Grupo 56508" transform="translate(208.973 4573.466)">
      <g id="Grupo_56507" data-name="Grupo 56507">
        <g id="Grupo_56505" data-name="Grupo 56505" transform="translate(0.478 0.464)">
          <path id="Trazado_105414" data-name="Trazado 105414" d="M227.537,4560.805v-2.475a.5.5,0,0,0-.494-.5H209.219a.5.5,0,0,0-.5.5v2.475a129.8,129.8,0,0,0-3.946,27.213.5.5,0,0,0,.5.513l26.207-.513a129.718,129.718,0,0,0-3.946-27.213Z" transform="translate(-204.778 -4557.835)" fill="#ffa95f"/>
          <path id="Trazado_105415" data-name="Trazado 105415" d="M231.466,4586.792H208.248a.992.992,0,0,1-.992-1.025,124.829,124.829,0,0,1,3.671-25.215h-2.2a129.8,129.8,0,0,0-3.946,27.213.5.5,0,0,0,.5.512h25.711a.5.5,0,0,0,.5-.511c0-.16-.012-.814-.018-.974Z" transform="translate(-204.778 -4557.582)" fill="#ff8b5a"/>
          <path id="Trazado_105416" data-name="Trazado 105416" d="M226.709,4557.835H208.886a.5.5,0,0,0-.5.5l-.049,2.283h18.813l.049-2.283a.5.5,0,0,0-.494-.5Z" transform="translate(-204.444 -4557.835)" fill="#ff8b5a"/>
          <g id="Grupo_56504" data-name="Grupo 56504" transform="translate(12.858 4.951)">
            <circle id="Elipse_4097" data-name="Elipse 4097" cx="0.99" cy="0.99" r="0.99" transform="translate(0 8.911)" fill="#ffe09f"/>
            <circle id="Elipse_4098" data-name="Elipse 4098" cx="0.99" cy="0.99" r="0.99" transform="translate(0 4.456)" fill="#ffe09f"/>
            <circle id="Elipse_4099" data-name="Elipse 4099" cx="0.99" cy="0.99" r="0.99" fill="#ffe09f"/>
          </g>
          <path id="Trazado_105417" data-name="Trazado 105417" d="M210.367,4558.331v-.5h-1.485a.5.5,0,0,0-.5.5v2.475H227.2v-1.485H211.357a.99.99,0,0,1-.991-.989Z" transform="translate(-204.44 -4557.835)" fill="#ff7350"/>
        </g>
        <g id="Grupo_56506" data-name="Grupo 56506">
          <path id="Trazado_105418" data-name="Trazado 105418" d="M228.042,4560.784v-2.414a.96.96,0,0,0-.958-.959H209.26a.96.96,0,0,0-.958.959v2.414a131.5,131.5,0,0,0-3.961,27.774.463.463,0,0,0,.464.476h15.348a1.951,1.951,0,0,0,1.948-1.949v-28.747h4.984a.032.032,0,0,1,.032.032v2.012h-3.5a.463.463,0,1,0,0,.926h3.6a131.338,131.338,0,0,1,3.84,26.8h-7.94a.464.464,0,1,0,0,.927h8.416a.463.463,0,0,0,.463-.476,131.459,131.459,0,0,0-3.96-27.774Zm-7.889,27.323H205.282a131.154,131.154,0,0,1,3.84-26.8h12.053v25.776A1.023,1.023,0,0,1,220.153,4588.107Zm1.021-27.725H209.228v-2.012a.032.032,0,0,1,.032-.032h11.914Z" transform="translate(-204.341 -4557.411)"/>
          <path id="Trazado_105419" data-name="Trazado 105419" d="M217.565,4570.087a1.453,1.453,0,1,0,1.452,1.453A1.455,1.455,0,0,0,217.565,4570.087Zm0,1.98a.527.527,0,1,1,.526-.527A.527.527,0,0,1,217.565,4572.067Z" transform="translate(-203.239 -4556.225)"/>
          <path id="Trazado_105420" data-name="Trazado 105420" d="M217.565,4566.013a1.453,1.453,0,1,0,1.452,1.453A1.455,1.455,0,0,0,217.565,4566.013Zm0,1.981a.527.527,0,1,1,.526-.528A.528.528,0,0,1,217.565,4567.994Z" transform="translate(-203.239 -4556.606)"/>
          <path id="Trazado_105421" data-name="Trazado 105421" d="M217.565,4561.939a1.453,1.453,0,1,0,1.452,1.454A1.455,1.455,0,0,0,217.565,4561.939Zm0,1.979a.526.526,0,1,1,.526-.525A.526.526,0,0,1,217.565,4563.918Z" transform="translate(-203.239 -4556.987)"/>
        </g>
      </g>
    </g>
    <g id="Grupo_56509" data-name="Grupo 56509" transform="translate(169.581 4641.187)">
      <path id="Trazado_105422" data-name="Trazado 105422" d="M168.321,4633.862v-13.636h4.609a6.508,6.508,0,0,1,3.755.936,3.185,3.185,0,0,1,1.348,2.8,2.95,2.95,0,0,1-.5,1.689,3.022,3.022,0,0,1-1.456,1.12,2.893,2.893,0,0,1,1.839,1.125,3.348,3.348,0,0,1,.614,1.994,3.531,3.531,0,0,1-1.292,2.965,5.843,5.843,0,0,1-3.663,1.006Zm2.735-7.924h1.967a2.737,2.737,0,0,0,1.685-.449,1.547,1.547,0,0,0,.591-1.312,1.636,1.636,0,0,0-.595-1.4,2.923,2.923,0,0,0-1.775-.45h-1.873Zm0,1.893v3.924h2.52a2.543,2.543,0,0,0,1.658-.473,1.7,1.7,0,0,0,.572-1.4,2.18,2.18,0,0,0-.488-1.528,2,2,0,0,0-1.537-.527Z" transform="translate(-168.321 -4619.252)"/>
      <path id="Trazado_105423" data-name="Trazado 105423" d="M185.363,4633.578a5.818,5.818,0,0,1-.258-.73,5.221,5.221,0,0,1-.154-.786,3.787,3.787,0,0,1-1.109,1.227,2.774,2.774,0,0,1-1.645.486,3.421,3.421,0,0,1-2.453-.819,2.935,2.935,0,0,1-.862-2.234,2.667,2.667,0,0,1,1.147-2.308,5.722,5.722,0,0,1,3.349-.819H184.9v-.807a1.578,1.578,0,0,0-.384-1.134,1.792,1.792,0,0,0-2.159-.079,1.142,1.142,0,0,0-.361.893l-2.64-.008-.01-.057a2.572,2.572,0,0,1,1.114-2.214,4.852,4.852,0,0,1,3.1-.933,4.532,4.532,0,0,1,2.951.923,3.2,3.2,0,0,1,1.133,2.627v4.186a7.883,7.883,0,0,0,.107,1.34,6.711,6.711,0,0,0,.342,1.245Zm-2.5-1.826a2.351,2.351,0,0,0,1.283-.354,1.861,1.861,0,0,0,.758-.825v-1.433h-1.526a1.824,1.824,0,0,0-1.321.436,1.406,1.406,0,0,0-.451,1.053,1.056,1.056,0,0,0,.338.816A1.309,1.309,0,0,0,182.863,4631.752Z" transform="translate(-167.332 -4618.968)"/>
      <path id="Trazado_105424" data-name="Trazado 105424" d="M194.309,4630.788a.956.956,0,0,0-.436-.778,4.429,4.429,0,0,0-1.615-.581,6.5,6.5,0,0,1-2.711-1.082,2.348,2.348,0,0,1-.914-1.954,2.794,2.794,0,0,1,1.1-2.225,4.473,4.473,0,0,1,2.945-.913,4.831,4.831,0,0,1,3.086.909,2.679,2.679,0,0,1,1.1,2.294l-.019.055h-2.64a1.337,1.337,0,0,0-.389-.991,1.865,1.865,0,0,0-2.183-.062,1.021,1.021,0,0,0-.378.811.922.922,0,0,0,.4.768,4.362,4.362,0,0,0,1.615.535,6.515,6.515,0,0,1,2.782,1.1,2.42,2.42,0,0,1,.909,2,2.661,2.661,0,0,1-1.17,2.234,5.08,5.08,0,0,1-3.092.866,4.7,4.7,0,0,1-3.2-1.025,2.867,2.867,0,0,1-1.12-2.338l.019-.055h2.5a1.424,1.424,0,0,0,.534,1.18,2.205,2.205,0,0,0,1.32.365,1.907,1.907,0,0,0,1.158-.3A.968.968,0,0,0,194.309,4630.788Z" transform="translate(-166.443 -4618.968)"/>
      <path id="Trazado_105425" data-name="Trazado 105425" d="M202.348,4633.775a4.563,4.563,0,0,1-3.5-1.405,5.025,5.025,0,0,1-1.311-3.568v-.375a5.541,5.541,0,0,1,1.241-3.718,4.626,4.626,0,0,1,6.515-.215,4.757,4.757,0,0,1,1.133,3.343v1.49h-6.051l-.019.056a2.627,2.627,0,0,0,.67,1.642,2.094,2.094,0,0,0,1.615.644,5.222,5.222,0,0,0,1.507-.183,6.854,6.854,0,0,0,1.312-.576l.739,1.69a5.016,5.016,0,0,1-1.621.841A6.992,6.992,0,0,1,202.348,4633.775Zm-.243-8.411a1.422,1.422,0,0,0-1.2.581,3.023,3.023,0,0,0-.545,1.528l.028.046h3.353v-.243a2.189,2.189,0,0,0-.408-1.391A1.464,1.464,0,0,0,202.105,4625.364Z" transform="translate(-165.586 -4618.968)"/>
      <path id="Trazado_105426" data-name="Trazado 105426" d="M212.636,4630.788a.955.955,0,0,0-.435-.778,4.437,4.437,0,0,0-1.615-.581,6.51,6.51,0,0,1-2.712-1.082,2.35,2.35,0,0,1-.913-1.954,2.8,2.8,0,0,1,1.1-2.225,4.476,4.476,0,0,1,2.946-.913,4.833,4.833,0,0,1,3.086.909,2.679,2.679,0,0,1,1.1,2.294l-.019.055h-2.641a1.333,1.333,0,0,0-.389-.991,1.864,1.864,0,0,0-2.182-.062,1.021,1.021,0,0,0-.378.811.922.922,0,0,0,.4.768,4.354,4.354,0,0,0,1.615.535,6.515,6.515,0,0,1,2.782,1.1,2.42,2.42,0,0,1,.909,2,2.664,2.664,0,0,1-1.17,2.234,5.083,5.083,0,0,1-3.092.866,4.7,4.7,0,0,1-3.2-1.025,2.869,2.869,0,0,1-1.119-2.338l.019-.055h2.5a1.424,1.424,0,0,0,.534,1.18,2.206,2.206,0,0,0,1.32.365,1.9,1.9,0,0,0,1.157-.3A.965.965,0,0,0,212.636,4630.788Z" transform="translate(-164.728 -4618.968)"/>
      <path id="Trazado_105427" data-name="Trazado 105427" d="M220.145,4628.418a5.437,5.437,0,0,1,1.264-3.714,4.41,4.41,0,0,1,3.5-1.447,4.454,4.454,0,0,1,3.521,1.443,5.408,5.408,0,0,1,1.274,3.718v.2a5.424,5.424,0,0,1-1.27,3.724,5.01,5.01,0,0,1-7.024,0,5.419,5.419,0,0,1-1.269-3.724Zm2.724.192a4.4,4.4,0,0,0,.488,2.221,1.872,1.872,0,0,0,3.123,0,4.363,4.363,0,0,0,.491-2.216v-.2a4.312,4.312,0,0,0-.5-2.2,1.68,1.68,0,0,0-1.564-.853,1.66,1.66,0,0,0-1.551.856,4.358,4.358,0,0,0-.492,2.193Z" transform="translate(-163.469 -4618.968)"/>
      <path id="Trazado_105428" data-name="Trazado 105428" d="M243.94,4629.16a5.929,5.929,0,0,1-1.012,3.624,3.421,3.421,0,0,1-2.923,1.358,3.1,3.1,0,0,1-1.54-.369,3.181,3.181,0,0,1-1.12-1.082l-.207,1.254H234.8v-14.61h2.725v5.554a3.087,3.087,0,0,1,1.054-.937,2.937,2.937,0,0,1,1.409-.328,3.359,3.359,0,0,1,2.942,1.457,6.694,6.694,0,0,1,1.012,3.883Zm-2.726-.2a5.341,5.341,0,0,0-.435-2.36,1.528,1.528,0,0,0-1.484-.872,2.023,2.023,0,0,0-1.077.27,1.861,1.861,0,0,0-.693.768v4.315a1.746,1.746,0,0,0,.7.707,2.244,2.244,0,0,0,1.091.245,1.553,1.553,0,0,0,1.48-.75,4.381,4.381,0,0,0,.421-2.125Z" transform="translate(-162.098 -4619.335)"/>
      <path id="Trazado_105429" data-name="Trazado 105429" d="M250.692,4633.9a5.493,5.493,0,0,1-.258-.73,4.97,4.97,0,0,1-.154-.786,3.79,3.79,0,0,1-1.11,1.227,2.773,2.773,0,0,1-1.644.486,3.423,3.423,0,0,1-2.454-.819,2.939,2.939,0,0,1-.862-2.234,2.671,2.671,0,0,1,1.147-2.309,5.726,5.726,0,0,1,3.349-.819h1.527v-.806a1.577,1.577,0,0,0-.384-1.134,1.792,1.792,0,0,0-2.159-.079,1.139,1.139,0,0,0-.361.893l-2.641-.008-.01-.057a2.573,2.573,0,0,1,1.116-2.214,4.848,4.848,0,0,1,3.1-.933,4.53,4.53,0,0,1,2.951.923,3.194,3.194,0,0,1,1.133,2.627v4.186a8,8,0,0,0,.107,1.34,6.8,6.8,0,0,0,.342,1.245Zm-2.5-1.826a2.345,2.345,0,0,0,1.283-.355,1.852,1.852,0,0,0,.759-.825v-1.432h-1.527a1.822,1.822,0,0,0-1.321.436,1.408,1.408,0,0,0-.45,1.053,1.054,1.054,0,0,0,.338.816A1.306,1.306,0,0,0,248.191,4632.069Zm1.076-12.2h2.895l.019.055-2.594,2.436H247.4Z" transform="translate(-161.216 -4619.285)"/>
      <path id="Trazado_105430" data-name="Trazado 105430" d="M259.637,4630.788a.957.957,0,0,0-.435-.778,4.437,4.437,0,0,0-1.615-.581,6.5,6.5,0,0,1-2.712-1.082,2.35,2.35,0,0,1-.913-1.954,2.8,2.8,0,0,1,1.1-2.225,4.476,4.476,0,0,1,2.946-.913,4.833,4.833,0,0,1,3.086.909,2.685,2.685,0,0,1,1.1,2.294l-.019.055h-2.641a1.333,1.333,0,0,0-.389-.991,1.864,1.864,0,0,0-2.182-.062,1.019,1.019,0,0,0-.379.811.92.92,0,0,0,.4.768,4.354,4.354,0,0,0,1.615.535,6.515,6.515,0,0,1,2.782,1.1,2.423,2.423,0,0,1,.909,2,2.662,2.662,0,0,1-1.171,2.234,5.077,5.077,0,0,1-3.091.866,4.7,4.7,0,0,1-3.2-1.025,2.866,2.866,0,0,1-1.119-2.338l.019-.055h2.5a1.421,1.421,0,0,0,.535,1.18,2.206,2.206,0,0,0,1.32.365,1.9,1.9,0,0,0,1.157-.3A.965.965,0,0,0,259.637,4630.788Z" transform="translate(-160.327 -4618.968)"/>
      <path id="Trazado_105431" data-name="Trazado 105431" d="M266.027,4621.386h-2.736v-2.051h2.736Zm0,12.56h-2.736v-10.133h2.736Z" transform="translate(-159.43 -4619.335)"/>
      <path id="Trazado_105432" data-name="Trazado 105432" d="M272.14,4631.668a1.619,1.619,0,0,0,1.17-.423,1.5,1.5,0,0,0,.441-1.132h2.483l.027.056a3.161,3.161,0,0,1-1.157,2.572,4.879,4.879,0,0,1-6.458-.4,5.462,5.462,0,0,1-1.227-3.681v-.282a5.5,5.5,0,0,1,1.223-3.681,4.318,4.318,0,0,1,3.489-1.443,4.259,4.259,0,0,1,3.021,1.068,3.55,3.55,0,0,1,1.11,2.81l-.019.056h-2.491a1.976,1.976,0,0,0-.431-1.307,1.46,1.46,0,0,0-1.19-.52,1.587,1.587,0,0,0-1.531.843,4.616,4.616,0,0,0-.445,2.169v.28a4.6,4.6,0,0,0,.445,2.184A1.6,1.6,0,0,0,272.14,4631.668Z" transform="translate(-159.044 -4618.968)"/>
      <path id="Trazado_105433" data-name="Trazado 105433" d="M276.541,4628.418a5.437,5.437,0,0,1,1.264-3.714,4.41,4.41,0,0,1,3.5-1.447,4.454,4.454,0,0,1,3.521,1.443,5.409,5.409,0,0,1,1.274,3.718v.2a5.425,5.425,0,0,1-1.27,3.724,5.01,5.01,0,0,1-7.024,0,5.424,5.424,0,0,1-1.269-3.724Zm2.725.192a4.4,4.4,0,0,0,.487,2.221,1.872,1.872,0,0,0,3.123,0,4.363,4.363,0,0,0,.492-2.216v-.2a4.311,4.311,0,0,0-.5-2.2,1.68,1.68,0,0,0-1.564-.853,1.657,1.657,0,0,0-1.55.856,4.359,4.359,0,0,0-.492,2.193Z" transform="translate(-158.19 -4618.968)"/>
      <path id="Trazado_105434" data-name="Trazado 105434" d="M292.345,4630.788a.957.957,0,0,0-.435-.778,4.445,4.445,0,0,0-1.616-.581,6.5,6.5,0,0,1-2.711-1.082,2.351,2.351,0,0,1-.914-1.954,2.794,2.794,0,0,1,1.1-2.225,4.473,4.473,0,0,1,2.945-.913,4.831,4.831,0,0,1,3.086.909,2.679,2.679,0,0,1,1.1,2.294l-.019.055h-2.64a1.333,1.333,0,0,0-.389-.991,1.866,1.866,0,0,0-2.183-.062,1.021,1.021,0,0,0-.378.811.922.922,0,0,0,.4.768,4.369,4.369,0,0,0,1.616.535,6.515,6.515,0,0,1,2.781,1.1,2.42,2.42,0,0,1,.909,2,2.661,2.661,0,0,1-1.17,2.234,5.078,5.078,0,0,1-3.092.866,4.7,4.7,0,0,1-3.2-1.025,2.867,2.867,0,0,1-1.12-2.338l.019-.055h2.5a1.424,1.424,0,0,0,.534,1.18,2.207,2.207,0,0,0,1.321.365,1.9,1.9,0,0,0,1.157-.3A.968.968,0,0,0,292.345,4630.788Z" transform="translate(-157.266 -4618.968)"/>
      <path id="Trazado_105435" data-name="Trazado 105435" d="M199.374,4642.434h-2.735v-2.052h2.735Zm0,12.561h-2.735V4644.86h2.735Z" transform="translate(-165.67 -4617.365)"/>
      <path id="Trazado_105436" data-name="Trazado 105436" d="M203.7,4644.492l.122,1.451a3.729,3.729,0,0,1,1.246-1.208,3.238,3.238,0,0,1,1.658-.43,3.05,3.05,0,0,1,2.4.964,4.455,4.455,0,0,1,.862,3.025v6.333h-2.745v-6.338a2.055,2.055,0,0,0-.411-1.45,1.657,1.657,0,0,0-1.246-.427,2.109,2.109,0,0,0-.973.22,2,2,0,0,0-.722.625v7.37h-2.735v-10.135Z" transform="translate(-165.247 -4616.997)"/>
      <path id="Trazado_105437" data-name="Trazado 105437" d="M211.876,4655.011V4646.8h-1.509v-1.92h1.509v-1.125a3.424,3.424,0,0,1,.983-2.627,3.879,3.879,0,0,1,2.762-.923,5.032,5.032,0,0,1,.708.051q.359.053.791.146l-.234,2.033c-.15-.025-.294-.047-.435-.065a3.527,3.527,0,0,0-.491-.029,1.316,1.316,0,0,0-1.008.366,1.48,1.48,0,0,0-.341,1.049v1.125h2.014v1.92H214.61v8.215Z" transform="translate(-164.385 -4617.381)"/>
      <path id="Trazado_105438" data-name="Trazado 105438" d="M221.879,4654.823a4.562,4.562,0,0,1-3.5-1.406,5.023,5.023,0,0,1-1.311-3.568v-.374a5.549,5.549,0,0,1,1.241-3.719,4.629,4.629,0,0,1,6.515-.215,4.756,4.756,0,0,1,1.133,3.343v1.49H219.9l-.02.056a2.622,2.622,0,0,0,.67,1.643,2.092,2.092,0,0,0,1.615.643,5.22,5.22,0,0,0,1.508-.183,6.9,6.9,0,0,0,1.311-.575l.739,1.69a5.06,5.06,0,0,1-1.62.841A7.04,7.04,0,0,1,221.879,4654.823Zm-.243-8.411a1.421,1.421,0,0,0-1.2.581,3.008,3.008,0,0,0-.544,1.527l.028.046h3.352v-.243a2.193,2.193,0,0,0-.408-1.392A1.467,1.467,0,0,0,221.636,4646.412Z" transform="translate(-163.758 -4616.997)"/>
      <path id="Trazado_105439" data-name="Trazado 105439" d="M231.978,4646.844l-1-.029a1.823,1.823,0,0,0-1,.253,1.607,1.607,0,0,0-.6.711v6.848h-2.725v-10.135h2.537l.122,1.5a3.213,3.213,0,0,1,.922-1.242,2.16,2.16,0,0,1,1.686-.411c.115.021.232.048.351.079Z" transform="translate(-162.86 -4616.997)"/>
      <path id="Trazado_105440" data-name="Trazado 105440" d="M235.653,4642.434h-2.736v-2.052h2.736Zm0,12.561h-2.736V4644.86h2.736Z" transform="translate(-162.274 -4617.365)"/>
      <path id="Trazado_105441" data-name="Trazado 105441" d="M237.088,4649.465a5.442,5.442,0,0,1,1.265-3.714,4.407,4.407,0,0,1,3.5-1.446,4.452,4.452,0,0,1,3.52,1.441,5.412,5.412,0,0,1,1.275,3.719v.2a5.422,5.422,0,0,1-1.27,3.724,5.008,5.008,0,0,1-7.024,0,5.417,5.417,0,0,1-1.27-3.724Zm2.725.192a4.413,4.413,0,0,0,.487,2.222,1.875,1.875,0,0,0,3.124-.005,4.366,4.366,0,0,0,.491-2.217v-.2a4.331,4.331,0,0,0-.5-2.2,1.682,1.682,0,0,0-1.564-.851,1.661,1.661,0,0,0-1.551.855,4.357,4.357,0,0,0-.492,2.192Z" transform="translate(-161.883 -4616.997)"/>
      <path id="Trazado_105442" data-name="Trazado 105442" d="M252.7,4646.844l-1-.029a1.822,1.822,0,0,0-1,.253,1.607,1.607,0,0,0-.6.711v6.848h-2.726v-10.135h2.538l.122,1.5a3.2,3.2,0,0,1,.922-1.242,2.056,2.056,0,0,1,1.306-.444,2.027,2.027,0,0,1,.379.033c.116.021.233.048.352.079Z" transform="translate(-160.92 -4616.997)"/>
      <path id="Trazado_105443" data-name="Trazado 105443" d="M258.029,4654.823a4.562,4.562,0,0,1-3.5-1.406,5.018,5.018,0,0,1-1.311-3.568v-.374a5.543,5.543,0,0,1,1.241-3.719,4.629,4.629,0,0,1,6.515-.215,4.761,4.761,0,0,1,1.133,3.343v1.49h-6.051l-.02.056a2.634,2.634,0,0,0,.67,1.643,2.1,2.1,0,0,0,1.616.643,5.206,5.206,0,0,0,1.507-.183,6.873,6.873,0,0,0,1.312-.575l.739,1.69a5.054,5.054,0,0,1-1.621.841A7.034,7.034,0,0,1,258.029,4654.823Zm-.243-8.411a1.424,1.424,0,0,0-1.2.581,3.027,3.027,0,0,0-.543,1.527l.028.046h3.353v-.243a2.192,2.192,0,0,0-.408-1.392A1.467,1.467,0,0,0,257.786,4646.412Z" transform="translate(-160.373 -4616.997)"/>
      <path id="Trazado_105444" data-name="Trazado 105444" d="M268.317,4651.836a.955.955,0,0,0-.436-.778,4.4,4.4,0,0,0-1.615-.581,6.509,6.509,0,0,1-2.712-1.083,2.348,2.348,0,0,1-.913-1.952,2.792,2.792,0,0,1,1.1-2.225,4.47,4.47,0,0,1,2.945-.912,4.835,4.835,0,0,1,3.086.907,2.682,2.682,0,0,1,1.1,2.3l-.019.056h-2.64a1.337,1.337,0,0,0-.389-.993,1.86,1.86,0,0,0-2.183-.061,1.021,1.021,0,0,0-.378.811.922.922,0,0,0,.4.768,4.386,4.386,0,0,0,1.615.534,6.546,6.546,0,0,1,2.782,1.1,2.42,2.42,0,0,1,.909,2,2.663,2.663,0,0,1-1.17,2.233,5.074,5.074,0,0,1-3.092.867,4.694,4.694,0,0,1-3.2-1.027,2.868,2.868,0,0,1-1.119-2.336l.019-.056h2.5a1.42,1.42,0,0,0,.534,1.179,2.2,2.2,0,0,0,1.32.365,1.9,1.9,0,0,0,1.158-.3A.965.965,0,0,0,268.317,4651.836Z" transform="translate(-159.515 -4616.997)"/>
    </g>
    <g id="Grupo_56510" data-name="Grupo 56510" transform="translate(154.868 4476.233)">
      <path id="Trazado_105445" data-name="Trazado 105445" d="M154.868,4482.827V4469.38h4.544a6.417,6.417,0,0,1,3.7.924,3.141,3.141,0,0,1,1.331,2.761,2.917,2.917,0,0,1-.494,1.667,3,3,0,0,1-1.436,1.1,2.846,2.846,0,0,1,1.814,1.107,3.3,3.3,0,0,1,.6,1.968,3.476,3.476,0,0,1-1.274,2.922,5.754,5.754,0,0,1-3.611.993Zm2.7-7.814H159.5a2.7,2.7,0,0,0,1.662-.441,1.53,1.53,0,0,0,.582-1.294,1.611,1.611,0,0,0-.587-1.375,2.868,2.868,0,0,0-1.75-.444h-1.846Zm0,1.866v3.871h2.484a2.51,2.51,0,0,0,1.635-.466,1.684,1.684,0,0,0,.563-1.377,2.147,2.147,0,0,0-.481-1.507,1.967,1.967,0,0,0-1.514-.521Z" transform="translate(-154.868 -4468.419)"/>
      <path id="Trazado_105446" data-name="Trazado 105446" d="M171.672,4482.547a5.519,5.519,0,0,1-.254-.72,4.941,4.941,0,0,1-.152-.775,3.722,3.722,0,0,1-1.095,1.209,2.73,2.73,0,0,1-1.621.48,3.374,3.374,0,0,1-2.419-.807,2.892,2.892,0,0,1-.851-2.2,2.633,2.633,0,0,1,1.132-2.277,5.642,5.642,0,0,1,3.3-.809h1.5v-.793a1.555,1.555,0,0,0-.378-1.119,1.768,1.768,0,0,0-2.128-.078,1.123,1.123,0,0,0-.357.882l-2.6-.009-.009-.055a2.534,2.534,0,0,1,1.1-2.184,4.785,4.785,0,0,1,3.057-.918,4.464,4.464,0,0,1,2.909.909,3.153,3.153,0,0,1,1.118,2.592V4480a7.781,7.781,0,0,0,.106,1.321,6.528,6.528,0,0,0,.337,1.228Zm-2.465-1.8a2.311,2.311,0,0,0,1.265-.351,1.821,1.821,0,0,0,.747-.813v-1.413h-1.5a1.8,1.8,0,0,0-1.3.43,1.394,1.394,0,0,0-.444,1.039,1.041,1.041,0,0,0,.334.8A1.291,1.291,0,0,0,169.207,4480.746Z" transform="translate(-153.893 -4468.14)"/>
      <path id="Trazado_105447" data-name="Trazado 105447" d="M180.493,4479.8a.942.942,0,0,0-.429-.767,4.371,4.371,0,0,0-1.593-.573,6.4,6.4,0,0,1-2.674-1.067,2.315,2.315,0,0,1-.9-1.924,2.752,2.752,0,0,1,1.086-2.194,4.4,4.4,0,0,1,2.9-.9,4.764,4.764,0,0,1,3.042.9,2.644,2.644,0,0,1,1.085,2.262l-.017.055h-2.6a1.316,1.316,0,0,0-.384-.978,1.837,1.837,0,0,0-2.152-.062,1.008,1.008,0,0,0-.373.8.911.911,0,0,0,.392.759,4.312,4.312,0,0,0,1.592.526,6.446,6.446,0,0,1,2.744,1.084,2.387,2.387,0,0,1,.9,1.972,2.625,2.625,0,0,1-1.154,2.2,5.006,5.006,0,0,1-3.048.854,4.626,4.626,0,0,1-3.154-1.012,2.822,2.822,0,0,1-1.1-2.3l.017-.056h2.466a1.406,1.406,0,0,0,.526,1.164,2.182,2.182,0,0,0,1.3.36,1.874,1.874,0,0,0,1.141-.3A.952.952,0,0,0,180.493,4479.8Z" transform="translate(-153.017 -4468.14)"/>
      <path id="Trazado_105448" data-name="Trazado 105448" d="M188.42,4482.741a4.5,4.5,0,0,1-3.454-1.386,4.951,4.951,0,0,1-1.293-3.518v-.37a5.463,5.463,0,0,1,1.224-3.665,4.561,4.561,0,0,1,6.423-.212,4.681,4.681,0,0,1,1.118,3.3v1.469h-5.966l-.02.055a2.6,2.6,0,0,0,.662,1.62,2.065,2.065,0,0,0,1.593.634,5.151,5.151,0,0,0,1.486-.18,6.739,6.739,0,0,0,1.293-.567l.729,1.666a4.959,4.959,0,0,1-1.6.83A6.92,6.92,0,0,1,188.42,4482.741Zm-.24-8.293a1.4,1.4,0,0,0-1.182.572,2.993,2.993,0,0,0-.536,1.506l.028.046H189.8v-.239a2.169,2.169,0,0,0-.4-1.373A1.449,1.449,0,0,0,188.181,4474.448Z" transform="translate(-152.171 -4468.14)"/>
      <path id="Trazado_105449" data-name="Trazado 105449" d="M198.566,4479.8a.941.941,0,0,0-.43-.767,4.371,4.371,0,0,0-1.593-.573,6.409,6.409,0,0,1-2.674-1.067,2.314,2.314,0,0,1-.9-1.924,2.754,2.754,0,0,1,1.085-2.194,4.4,4.4,0,0,1,2.9-.9,4.769,4.769,0,0,1,3.044.9,2.644,2.644,0,0,1,1.085,2.262l-.019.055h-2.6a1.316,1.316,0,0,0-.384-.978,1.837,1.837,0,0,0-2.152-.062,1.008,1.008,0,0,0-.373.8.911.911,0,0,0,.392.759,4.312,4.312,0,0,0,1.593.526,6.446,6.446,0,0,1,2.743,1.084,2.387,2.387,0,0,1,.9,1.972,2.624,2.624,0,0,1-1.155,2.2,5,5,0,0,1-3.048.854,4.63,4.63,0,0,1-3.154-1.012,2.822,2.822,0,0,1-1.1-2.3l.019-.056H195.2a1.4,1.4,0,0,0,.527,1.164,2.178,2.178,0,0,0,1.3.36,1.875,1.875,0,0,0,1.142-.3A.952.952,0,0,0,198.566,4479.8Z" transform="translate(-151.325 -4468.14)"/>
      <path id="Trazado_105450" data-name="Trazado 105450" d="M205.969,4477.459a5.366,5.366,0,0,1,1.247-3.663,4.924,4.924,0,0,1,6.926,0,5.335,5.335,0,0,1,1.257,3.667v.194a5.341,5.341,0,0,1-1.252,3.671,4.939,4.939,0,0,1-6.926,0,5.34,5.34,0,0,1-1.251-3.671Zm2.687.189a4.34,4.34,0,0,0,.48,2.191,1.848,1.848,0,0,0,3.081-.006,4.3,4.3,0,0,0,.484-2.185v-.193a4.267,4.267,0,0,0-.489-2.167,1.659,1.659,0,0,0-1.543-.839,1.634,1.634,0,0,0-1.528.843,4.3,4.3,0,0,0-.486,2.163Z" transform="translate(-150.084 -4468.14)"/>
      <path id="Trazado_105451" data-name="Trazado 105451" d="M229.432,4478.19a5.844,5.844,0,0,1-1,3.574,3.373,3.373,0,0,1-2.882,1.339,3.059,3.059,0,0,1-1.519-.364,3.146,3.146,0,0,1-1.1-1.066l-.2,1.236h-2.309V4468.5h2.688v5.476a3.035,3.035,0,0,1,1.038-.923,2.9,2.9,0,0,1,1.39-.322,3.308,3.308,0,0,1,2.9,1.436,6.59,6.59,0,0,1,1,3.828Zm-2.688-.194a5.267,5.267,0,0,0-.429-2.326,1.506,1.506,0,0,0-1.464-.86,2,2,0,0,0-1.062.265,1.819,1.819,0,0,0-.682.757v4.255a1.713,1.713,0,0,0,.687.7,2.212,2.212,0,0,0,1.076.242,1.533,1.533,0,0,0,1.46-.739,4.325,4.325,0,0,0,.414-2.1Z" transform="translate(-148.731 -4468.502)"/>
      <path id="Trazado_105452" data-name="Trazado 105452" d="M236.09,4482.86a5.721,5.721,0,0,1-.255-.721,4.934,4.934,0,0,1-.152-.775,3.716,3.716,0,0,1-1.094,1.209,2.731,2.731,0,0,1-1.622.48,3.374,3.374,0,0,1-2.419-.807,2.9,2.9,0,0,1-.85-2.2,2.633,2.633,0,0,1,1.132-2.277,5.644,5.644,0,0,1,3.3-.809h1.5v-.793a1.555,1.555,0,0,0-.379-1.12,1.766,1.766,0,0,0-2.128-.077,1.125,1.125,0,0,0-.355.882l-2.6-.009-.01-.056a2.538,2.538,0,0,1,1.1-2.184,4.784,4.784,0,0,1,3.057-.919,4.465,4.465,0,0,1,2.909.908,3.151,3.151,0,0,1,1.118,2.592v4.128a7.784,7.784,0,0,0,.106,1.321,6.633,6.633,0,0,0,.338,1.228Zm-2.466-1.8a2.313,2.313,0,0,0,1.265-.351,1.834,1.834,0,0,0,.748-.813v-1.413h-1.5a1.8,1.8,0,0,0-1.3.43,1.39,1.39,0,0,0-.443,1.038,1.042,1.042,0,0,0,.334.8A1.289,1.289,0,0,0,233.624,4481.06Zm1.062-12.034h2.854l.017.056-2.557,2.4h-2.152Z" transform="translate(-147.862 -4468.454)"/>
      <path id="Trazado_105453" data-name="Trazado 105453" d="M244.911,4479.8a.941.941,0,0,0-.43-.767,4.363,4.363,0,0,0-1.592-.573,6.4,6.4,0,0,1-2.674-1.067,2.312,2.312,0,0,1-.9-1.924,2.754,2.754,0,0,1,1.085-2.194,4.4,4.4,0,0,1,2.9-.9,4.767,4.767,0,0,1,3.044.9,2.644,2.644,0,0,1,1.085,2.262l-.019.055h-2.6a1.312,1.312,0,0,0-.384-.978,1.837,1.837,0,0,0-2.152-.062,1.011,1.011,0,0,0-.373.8.911.911,0,0,0,.392.759,4.312,4.312,0,0,0,1.593.526,6.44,6.44,0,0,1,2.743,1.084,2.387,2.387,0,0,1,.9,1.972,2.624,2.624,0,0,1-1.155,2.2,5,5,0,0,1-3.048.854,4.63,4.63,0,0,1-3.154-1.012,2.825,2.825,0,0,1-1.1-2.3l.019-.056h2.466a1.4,1.4,0,0,0,.526,1.164,2.179,2.179,0,0,0,1.3.36,1.875,1.875,0,0,0,1.142-.3A.952.952,0,0,0,244.911,4479.8Z" transform="translate(-146.986 -4468.14)"/>
      <path id="Trazado_105454" data-name="Trazado 105454" d="M251.212,4470.524h-2.7V4468.5h2.7Zm0,12.385h-2.7v-9.992h2.7Z" transform="translate(-146.101 -4468.502)"/>
      <path id="Trazado_105455" data-name="Trazado 105455" d="M257.239,4480.663a1.594,1.594,0,0,0,1.154-.417,1.478,1.478,0,0,0,.434-1.117h2.448l.027.056a3.115,3.115,0,0,1-1.141,2.535,4.81,4.81,0,0,1-6.368-.393,5.385,5.385,0,0,1-1.208-3.63v-.277a5.424,5.424,0,0,1,1.2-3.629,4.26,4.26,0,0,1,3.442-1.421,4.2,4.2,0,0,1,2.978,1.053,3.5,3.5,0,0,1,1.094,2.771l-.019.055h-2.456a1.953,1.953,0,0,0-.424-1.29,1.443,1.443,0,0,0-1.172-.511,1.565,1.565,0,0,0-1.51.829,4.566,4.566,0,0,0-.44,2.14v.277a4.542,4.542,0,0,0,.44,2.154A1.579,1.579,0,0,0,257.239,4480.663Z" transform="translate(-145.72 -4468.14)"/>
      <path id="Trazado_105456" data-name="Trazado 105456" d="M261.579,4477.459a5.361,5.361,0,0,1,1.247-3.663,4.347,4.347,0,0,1,3.454-1.425,4.392,4.392,0,0,1,3.472,1.421,5.335,5.335,0,0,1,1.257,3.667v.194a5.341,5.341,0,0,1-1.252,3.671,4.939,4.939,0,0,1-6.926,0,5.34,5.34,0,0,1-1.251-3.671Zm2.687.189a4.34,4.34,0,0,0,.48,2.191,1.658,1.658,0,0,0,1.552.824,1.64,1.64,0,0,0,1.528-.83,4.3,4.3,0,0,0,.484-2.185v-.193a4.267,4.267,0,0,0-.488-2.167,1.661,1.661,0,0,0-1.543-.839,1.637,1.637,0,0,0-1.529.843,4.307,4.307,0,0,0-.484,2.163Z" transform="translate(-144.878 -4468.14)"/>
      <path id="Trazado_105457" data-name="Trazado 105457" d="M277.162,4479.8a.942.942,0,0,0-.429-.767,4.371,4.371,0,0,0-1.593-.573,6.409,6.409,0,0,1-2.674-1.067,2.314,2.314,0,0,1-.9-1.924,2.754,2.754,0,0,1,1.085-2.194,4.4,4.4,0,0,1,2.9-.9,4.764,4.764,0,0,1,3.042.9,2.645,2.645,0,0,1,1.086,2.262l-.019.055h-2.6a1.316,1.316,0,0,0-.384-.978,1.837,1.837,0,0,0-2.152-.062,1.008,1.008,0,0,0-.373.8.911.911,0,0,0,.391.759,4.312,4.312,0,0,0,1.593.526,6.446,6.446,0,0,1,2.743,1.084,2.387,2.387,0,0,1,.9,1.972,2.623,2.623,0,0,1-1.154,2.2,5,5,0,0,1-3.048.854,4.628,4.628,0,0,1-3.154-1.012,2.822,2.822,0,0,1-1.1-2.3l.018-.056H273.8a1.4,1.4,0,0,0,.527,1.164,2.176,2.176,0,0,0,1.3.36,1.869,1.869,0,0,0,1.141-.3A.949.949,0,0,0,277.162,4479.8Z" transform="translate(-143.967 -4468.14)"/>
      <path id="Trazado_105458" data-name="Trazado 105458" d="M184.167,4500.55a.942.942,0,0,0-.43-.767,4.371,4.371,0,0,0-1.593-.573,6.409,6.409,0,0,1-2.674-1.067,2.314,2.314,0,0,1-.9-1.925,2.756,2.756,0,0,1,1.085-2.194,4.406,4.406,0,0,1,2.9-.9,4.764,4.764,0,0,1,3.042.9,2.646,2.646,0,0,1,1.086,2.263l-.019.055h-2.6a1.316,1.316,0,0,0-.384-.978,1.835,1.835,0,0,0-2.152-.062,1.008,1.008,0,0,0-.373.8.911.911,0,0,0,.392.759,4.331,4.331,0,0,0,1.593.526,6.465,6.465,0,0,1,2.743,1.084,2.387,2.387,0,0,1,.9,1.972,2.624,2.624,0,0,1-1.154,2.2,5,5,0,0,1-3.048.854,4.63,4.63,0,0,1-3.154-1.012,2.823,2.823,0,0,1-1.1-2.3l.017-.057H180.8a1.4,1.4,0,0,0,.527,1.164,2.176,2.176,0,0,0,1.3.36,1.875,1.875,0,0,0,1.142-.3A.952.952,0,0,0,184.167,4500.55Z" transform="translate(-152.673 -4466.197)"/>
      <path id="Trazado_105459" data-name="Trazado 105459" d="M193.753,4501.844a3.357,3.357,0,0,1-1.172,1.211,3.462,3.462,0,0,1-4.105-.588,4.666,4.666,0,0,1-.891-3.144v-6.03h2.688v6.063a2.593,2.593,0,0,0,.369,1.568,1.3,1.3,0,0,0,1.09.477,2.673,2.673,0,0,0,1.108-.208,1.884,1.884,0,0,0,.758-.616v-7.285h2.7v9.993h-2.3Z" transform="translate(-151.805 -4466.181)"/>
      <path id="Trazado_105460" data-name="Trazado 105460" d="M206.42,4498.583a5.738,5.738,0,0,1-1.026,3.564,3.394,3.394,0,0,1-2.863,1.348,3.177,3.177,0,0,1-1.394-.292,2.837,2.837,0,0,1-1.043-.854v4.793H197.4v-13.834h2.429l.156,1.182a3.2,3.2,0,0,1,1.067-1.011,2.877,2.877,0,0,1,1.455-.356,3.322,3.322,0,0,1,2.882,1.451,6.465,6.465,0,0,1,1.026,3.813Zm-2.7-.209a4.852,4.852,0,0,0-.47-2.293,1.538,1.538,0,0,0-1.441-.878,2.043,2.043,0,0,0-1.039.25,1.782,1.782,0,0,0-.678.712v4.384a1.662,1.662,0,0,0,.678.648,2.285,2.285,0,0,0,1.058.221,1.553,1.553,0,0,0,1.437-.768,4.061,4.061,0,0,0,.456-2.081Z" transform="translate(-150.886 -4466.197)"/>
      <path id="Trazado_105461" data-name="Trazado 105461" d="M211.618,4503.5a4.5,4.5,0,0,1-3.454-1.386,4.949,4.949,0,0,1-1.293-3.518v-.37a5.465,5.465,0,0,1,1.224-3.666,4.562,4.562,0,0,1,6.424-.212,4.685,4.685,0,0,1,1.117,3.3v1.469h-5.966l-.02.055a2.6,2.6,0,0,0,.662,1.62,2.064,2.064,0,0,0,1.593.634,5.151,5.151,0,0,0,1.486-.18,6.72,6.72,0,0,0,1.294-.568l.728,1.667a4.951,4.951,0,0,1-1.6.831A6.941,6.941,0,0,1,211.618,4503.5Zm-.24-8.293a1.405,1.405,0,0,0-1.182.572,2.993,2.993,0,0,0-.536,1.506l.028.046H213v-.239a2.16,2.16,0,0,0-.4-1.373A1.449,1.449,0,0,0,211.379,4495.2Z" transform="translate(-149.999 -4466.197)"/>
      <path id="Trazado_105462" data-name="Trazado 105462" d="M221.577,4495.626l-.989-.027a1.8,1.8,0,0,0-.989.25,1.581,1.581,0,0,0-.591.7v6.751h-2.687v-9.993h2.5l.12,1.478a3.141,3.141,0,0,1,.91-1.224,2.119,2.119,0,0,1,1.662-.406c.114.021.229.047.346.078Z" transform="translate(-149.115 -4466.197)"/>
      <path id="Trazado_105463" data-name="Trazado 105463" d="M225.2,4491.278h-2.7v-2.022h2.7Zm0,12.386h-2.7v-9.993h2.7Z" transform="translate(-148.536 -4466.56)"/>
      <path id="Trazado_105464" data-name="Trazado 105464" d="M226.617,4498.213a5.358,5.358,0,0,1,1.247-3.663,4.346,4.346,0,0,1,3.454-1.426,4.393,4.393,0,0,1,3.472,1.421,5.336,5.336,0,0,1,1.257,3.667v.194a5.341,5.341,0,0,1-1.252,3.671,4.939,4.939,0,0,1-6.926,0,5.34,5.34,0,0,1-1.251-3.671Zm2.687.189a4.337,4.337,0,0,0,.48,2.19,1.847,1.847,0,0,0,3.08-.005,4.3,4.3,0,0,0,.484-2.185v-.194a4.257,4.257,0,0,0-.489-2.167,1.658,1.658,0,0,0-1.542-.839,1.637,1.637,0,0,0-1.529.844,4.31,4.31,0,0,0-.484,2.163Z" transform="translate(-148.151 -4466.197)"/>
      <path id="Trazado_105465" data-name="Trazado 105465" d="M242.013,4495.626l-.988-.027a1.794,1.794,0,0,0-.989.25,1.574,1.574,0,0,0-.591.7v6.751h-2.688v-9.993h2.5l.12,1.478a3.139,3.139,0,0,1,.909-1.224,2.119,2.119,0,0,1,1.662-.406c.114.021.23.047.347.078Z" transform="translate(-147.202 -4466.197)"/>
      <path id="Trazado_105466" data-name="Trazado 105466" d="M247.264,4503.5a4.493,4.493,0,0,1-3.454-1.386,4.95,4.95,0,0,1-1.294-3.518v-.37a5.465,5.465,0,0,1,1.225-3.666,4.561,4.561,0,0,1,6.423-.212,4.686,4.686,0,0,1,1.118,3.3v1.469h-5.966l-.02.055a2.591,2.591,0,0,0,.662,1.62,2.062,2.062,0,0,0,1.592.634,5.159,5.159,0,0,0,1.487-.18,6.743,6.743,0,0,0,1.293-.568l.729,1.667a4.969,4.969,0,0,1-1.6.831A6.934,6.934,0,0,1,247.264,4503.5Zm-.24-8.293a1.405,1.405,0,0,0-1.182.572,2.983,2.983,0,0,0-.536,1.506l.028.046h3.306v-.239a2.167,2.167,0,0,0-.4-1.373A1.45,1.45,0,0,0,247.025,4495.2Z" transform="translate(-146.662 -4466.197)"/>
      <path id="Trazado_105467" data-name="Trazado 105467" d="M257.41,4500.55a.942.942,0,0,0-.43-.767,4.371,4.371,0,0,0-1.593-.573,6.409,6.409,0,0,1-2.674-1.067,2.314,2.314,0,0,1-.9-1.925,2.756,2.756,0,0,1,1.085-2.194,4.406,4.406,0,0,1,2.9-.9,4.764,4.764,0,0,1,3.042.9,2.646,2.646,0,0,1,1.086,2.263l-.019.055h-2.6a1.316,1.316,0,0,0-.384-.978,1.835,1.835,0,0,0-2.152-.062,1.008,1.008,0,0,0-.373.8.911.911,0,0,0,.392.759,4.33,4.33,0,0,0,1.593.526,6.465,6.465,0,0,1,2.743,1.084,2.387,2.387,0,0,1,.9,1.972,2.624,2.624,0,0,1-1.154,2.2,5,5,0,0,1-3.048.854,4.63,4.63,0,0,1-3.154-1.012,2.823,2.823,0,0,1-1.1-2.3l.017-.057h2.466a1.4,1.4,0,0,0,.527,1.164,2.176,2.176,0,0,0,1.3.36,1.875,1.875,0,0,0,1.142-.3A.952.952,0,0,0,257.41,4500.55Z" transform="translate(-145.816 -4466.197)"/>
    </g>
    <g id="Grupo_56511" data-name="Grupo 56511" transform="translate(458.676 4603.944)">
      <path id="Trazado_105468" data-name="Trazado 105468" d="M432.669,4599.751v-13.584h4.59a6.481,6.481,0,0,1,3.741.933,3.171,3.171,0,0,1,1.343,2.789,2.934,2.934,0,0,1-.5,1.684,3.016,3.016,0,0,1-1.45,1.116,2.879,2.879,0,0,1,1.833,1.12,3.342,3.342,0,0,1,.611,1.987,3.517,3.517,0,0,1-1.287,2.953,5.821,5.821,0,0,1-3.648,1Zm2.725-7.894h1.959a2.723,2.723,0,0,0,1.679-.447,1.543,1.543,0,0,0,.588-1.306,1.63,1.63,0,0,0-.593-1.39,2.908,2.908,0,0,0-1.768-.449h-1.865Zm0,1.885v3.909H437.9a2.533,2.533,0,0,0,1.651-.471,1.7,1.7,0,0,0,.57-1.391,2.168,2.168,0,0,0-.487-1.522,1.991,1.991,0,0,0-1.529-.525Z" transform="translate(-432.669 -4585.197)"/>
      <path id="Trazado_105469" data-name="Trazado 105469" d="M449.644,4599.468a5.754,5.754,0,0,1-.257-.728,5.036,5.036,0,0,1-.153-.783,3.778,3.778,0,0,1-1.1,1.223,2.775,2.775,0,0,1-1.638.484,3.411,3.411,0,0,1-2.444-.816,2.928,2.928,0,0,1-.858-2.226,2.66,2.66,0,0,1,1.143-2.3,5.7,5.7,0,0,1,3.336-.816h1.52v-.8a1.57,1.57,0,0,0-.383-1.13,1.787,1.787,0,0,0-2.15-.079,1.141,1.141,0,0,0-.359.891l-2.631-.01-.009-.056a2.559,2.559,0,0,1,1.11-2.206,4.834,4.834,0,0,1,3.088-.929,4.506,4.506,0,0,1,2.939.918,3.184,3.184,0,0,1,1.129,2.617v4.17a7.832,7.832,0,0,0,.107,1.334,6.7,6.7,0,0,0,.34,1.241Zm-2.49-1.82a2.344,2.344,0,0,0,1.278-.354,1.849,1.849,0,0,0,.755-.82v-1.428h-1.52a1.815,1.815,0,0,0-1.316.434,1.407,1.407,0,0,0-.448,1.05,1.049,1.049,0,0,0,.337.812A1.3,1.3,0,0,0,447.153,4597.648Z" transform="translate(-431.684 -4584.914)"/>
      <path id="Trazado_105470" data-name="Trazado 105470" d="M458.555,4596.688a.952.952,0,0,0-.434-.774,4.4,4.4,0,0,0-1.609-.578,6.5,6.5,0,0,1-2.7-1.078,2.34,2.34,0,0,1-.91-1.945,2.783,2.783,0,0,1,1.1-2.217,4.453,4.453,0,0,1,2.934-.909,4.815,4.815,0,0,1,3.074.9,2.672,2.672,0,0,1,1.1,2.286l-.019.056h-2.63a1.326,1.326,0,0,0-.388-.987,1.857,1.857,0,0,0-2.173-.062,1.017,1.017,0,0,0-.377.808.916.916,0,0,0,.4.764,4.325,4.325,0,0,0,1.609.533,6.512,6.512,0,0,1,2.771,1.1,2.409,2.409,0,0,1,.906,1.991,2.655,2.655,0,0,1-1.166,2.226,5.059,5.059,0,0,1-3.08.863,4.684,4.684,0,0,1-3.186-1.021,2.855,2.855,0,0,1-1.114-2.328l.017-.057h2.491a1.418,1.418,0,0,0,.531,1.176,2.193,2.193,0,0,0,1.316.363,1.886,1.886,0,0,0,1.153-.3A.958.958,0,0,0,458.555,4596.688Z" transform="translate(-430.799 -4584.914)"/>
      <path id="Trazado_105471" data-name="Trazado 105471" d="M466.563,4599.664a4.54,4.54,0,0,1-3.489-1.4,5,5,0,0,1-1.307-3.554v-.373a5.52,5.52,0,0,1,1.237-3.7,4.609,4.609,0,0,1,6.488-.214,4.737,4.737,0,0,1,1.13,3.33v1.484H464.6l-.02.056a2.62,2.62,0,0,0,.668,1.636,2.083,2.083,0,0,0,1.609.64,5.246,5.246,0,0,0,1.5-.181,6.945,6.945,0,0,0,1.307-.573l.736,1.683a5.01,5.01,0,0,1-1.613.839A7.013,7.013,0,0,1,466.563,4599.664Zm-.242-8.378a1.418,1.418,0,0,0-1.194.578,3.013,3.013,0,0,0-.541,1.521l.028.046h3.339v-.242a2.186,2.186,0,0,0-.406-1.387A1.463,1.463,0,0,0,466.321,4591.286Z" transform="translate(-429.945 -4584.914)"/>
      <path id="Trazado_105472" data-name="Trazado 105472" d="M476.811,4596.688a.952.952,0,0,0-.434-.774,4.4,4.4,0,0,0-1.609-.578,6.5,6.5,0,0,1-2.7-1.078,2.339,2.339,0,0,1-.91-1.945,2.783,2.783,0,0,1,1.1-2.217,4.453,4.453,0,0,1,2.934-.909,4.815,4.815,0,0,1,3.074.9,2.671,2.671,0,0,1,1.1,2.286l-.019.056h-2.63a1.329,1.329,0,0,0-.387-.987,1.858,1.858,0,0,0-2.174-.062,1.017,1.017,0,0,0-.377.808.916.916,0,0,0,.4.764,4.325,4.325,0,0,0,1.609.533,6.512,6.512,0,0,1,2.771,1.1,2.409,2.409,0,0,1,.906,1.991,2.652,2.652,0,0,1-1.166,2.226,5.059,5.059,0,0,1-3.08.863,4.684,4.684,0,0,1-3.186-1.021,2.855,2.855,0,0,1-1.114-2.328l.019-.057h2.49a1.421,1.421,0,0,0,.532,1.176,2.193,2.193,0,0,0,1.316.363,1.886,1.886,0,0,0,1.153-.3A.958.958,0,0,0,476.811,4596.688Z" transform="translate(-429.09 -4584.914)"/>
      <path id="Trazado_105473" data-name="Trazado 105473" d="M484.29,4594.327a5.419,5.419,0,0,1,1.259-3.7,4.393,4.393,0,0,1,3.49-1.44,4.44,4.44,0,0,1,3.507,1.436,5.39,5.39,0,0,1,1.27,3.7v.2a5.4,5.4,0,0,1-1.265,3.71,4.99,4.99,0,0,1-7,0,5.4,5.4,0,0,1-1.263-3.71Zm2.714.191a4.387,4.387,0,0,0,.484,2.214,1.676,1.676,0,0,0,1.568.832,1.658,1.658,0,0,0,1.543-.837,4.348,4.348,0,0,0,.49-2.208v-.2a4.3,4.3,0,0,0-.494-2.188,1.676,1.676,0,0,0-1.557-.849,1.652,1.652,0,0,0-1.544.854,4.333,4.333,0,0,0-.49,2.184Z" transform="translate(-427.836 -4584.914)"/>
      <path id="Trazado_105474" data-name="Trazado 105474" d="M507.992,4595.067a5.905,5.905,0,0,1-1.008,3.61,3.41,3.41,0,0,1-2.911,1.354,3.079,3.079,0,0,1-1.534-.369,3.156,3.156,0,0,1-1.114-1.077l-.207,1.25h-2.332V4585.28H501.6v5.531a3.094,3.094,0,0,1,1.05-.933,2.933,2.933,0,0,1,1.4-.326,3.345,3.345,0,0,1,2.93,1.451,6.661,6.661,0,0,1,1.008,3.867Zm-2.715-.2a5.323,5.323,0,0,0-.434-2.351,1.522,1.522,0,0,0-1.479-.868,2.023,2.023,0,0,0-1.073.268,1.841,1.841,0,0,0-.69.764v4.3a1.722,1.722,0,0,0,.694.7,2.229,2.229,0,0,0,1.087.244,1.548,1.548,0,0,0,1.474-.745,4.368,4.368,0,0,0,.42-2.117Z" transform="translate(-426.47 -4585.28)"/>
      <path id="Trazado_105475" data-name="Trazado 105475" d="M514.717,4599.784a5.791,5.791,0,0,1-.257-.728,5.038,5.038,0,0,1-.153-.783,3.777,3.777,0,0,1-1.106,1.223,2.769,2.769,0,0,1-1.637.484,3.407,3.407,0,0,1-2.444-.816,2.921,2.921,0,0,1-.859-2.226,2.661,2.661,0,0,1,1.143-2.3,5.7,5.7,0,0,1,3.336-.815h1.52v-.8a1.574,1.574,0,0,0-.383-1.13,1.787,1.787,0,0,0-2.15-.079,1.137,1.137,0,0,0-.36.891l-2.63-.01-.01-.056a2.562,2.562,0,0,1,1.111-2.206,4.833,4.833,0,0,1,3.087-.929,4.506,4.506,0,0,1,2.939.918,3.184,3.184,0,0,1,1.13,2.617v4.17a7.942,7.942,0,0,0,.106,1.334,6.766,6.766,0,0,0,.341,1.241Zm-2.491-1.82a2.338,2.338,0,0,0,1.278-.354,1.852,1.852,0,0,0,.756-.82v-1.428h-1.52a1.818,1.818,0,0,0-1.317.434,1.406,1.406,0,0,0-.447,1.05,1.046,1.046,0,0,0,.337.812A1.3,1.3,0,0,0,512.225,4597.964Zm1.073-12.155h2.883l.019.055-2.583,2.427h-2.174Z" transform="translate(-425.592 -4585.23)"/>
      <path id="Trazado_105476" data-name="Trazado 105476" d="M523.627,4596.688a.951.951,0,0,0-.433-.774,4.4,4.4,0,0,0-1.61-.578,6.5,6.5,0,0,1-2.7-1.078,2.34,2.34,0,0,1-.91-1.945,2.784,2.784,0,0,1,1.1-2.217,4.453,4.453,0,0,1,2.934-.909,4.82,4.82,0,0,1,3.074.9,2.674,2.674,0,0,1,1.1,2.286l-.019.056h-2.63a1.326,1.326,0,0,0-.388-.987,1.542,1.542,0,0,0-1.133-.383,1.561,1.561,0,0,0-1.041.321,1.016,1.016,0,0,0-.376.808.918.918,0,0,0,.395.764,4.339,4.339,0,0,0,1.61.533,6.513,6.513,0,0,1,2.771,1.1,2.412,2.412,0,0,1,.906,1.991,2.653,2.653,0,0,1-1.167,2.226,5.056,5.056,0,0,1-3.079.863,4.685,4.685,0,0,1-3.187-1.021,2.855,2.855,0,0,1-1.114-2.328l.019-.057h2.491a1.418,1.418,0,0,0,.532,1.176,2.191,2.191,0,0,0,1.316.363,1.888,1.888,0,0,0,1.153-.3A.959.959,0,0,0,523.627,4596.688Z" transform="translate(-424.707 -4584.914)"/>
      <path id="Trazado_105477" data-name="Trazado 105477" d="M529.992,4587.323h-2.725v-2.042h2.725Zm0,12.511h-2.725V4589.74h2.725Z" transform="translate(-423.813 -4585.28)"/>
      <path id="Trazado_105478" data-name="Trazado 105478" d="M536.08,4597.564a1.611,1.611,0,0,0,1.167-.421,1.493,1.493,0,0,0,.438-1.127h2.473l.027.056a3.147,3.147,0,0,1-1.152,2.562,4.859,4.859,0,0,1-6.434-.4,5.441,5.441,0,0,1-1.221-3.667v-.28a5.481,5.481,0,0,1,1.217-3.667,4.306,4.306,0,0,1,3.475-1.436,4.235,4.235,0,0,1,3.009,1.064,3.529,3.529,0,0,1,1.106,2.8l-.019.057h-2.481a1.972,1.972,0,0,0-.43-1.3,1.455,1.455,0,0,0-1.184-.517,1.581,1.581,0,0,0-1.526.839,4.615,4.615,0,0,0-.443,2.161v.279a4.6,4.6,0,0,0,.443,2.176A1.594,1.594,0,0,0,536.08,4597.564Z" transform="translate(-423.428 -4584.914)"/>
      <path id="Trazado_105479" data-name="Trazado 105479" d="M540.465,4594.327a5.415,5.415,0,0,1,1.26-3.7,4.39,4.39,0,0,1,3.489-1.44,4.439,4.439,0,0,1,3.507,1.436,5.39,5.39,0,0,1,1.27,3.7v.2a5.4,5.4,0,0,1-1.265,3.71,4.989,4.989,0,0,1-7,0,5.4,5.4,0,0,1-1.264-3.71Zm2.714.191a4.4,4.4,0,0,0,.484,2.214,1.868,1.868,0,0,0,3.112-.005,4.349,4.349,0,0,0,.489-2.208v-.2a4.305,4.305,0,0,0-.493-2.188,1.676,1.676,0,0,0-1.558-.849,1.652,1.652,0,0,0-1.544.854,4.332,4.332,0,0,0-.49,2.184Z" transform="translate(-422.577 -4584.914)"/>
      <path id="Trazado_105480" data-name="Trazado 105480" d="M556.207,4596.688a.952.952,0,0,0-.434-.774,4.4,4.4,0,0,0-1.609-.578,6.5,6.5,0,0,1-2.7-1.078,2.34,2.34,0,0,1-.91-1.945,2.783,2.783,0,0,1,1.1-2.217,4.453,4.453,0,0,1,2.934-.909,4.815,4.815,0,0,1,3.074.9,2.671,2.671,0,0,1,1.1,2.286l-.018.056H556.1a1.329,1.329,0,0,0-.387-.987,1.858,1.858,0,0,0-2.174-.062,1.017,1.017,0,0,0-.377.808.916.916,0,0,0,.4.764,4.325,4.325,0,0,0,1.609.533,6.5,6.5,0,0,1,2.771,1.1,2.409,2.409,0,0,1,.906,1.991,2.652,2.652,0,0,1-1.166,2.226,5.059,5.059,0,0,1-3.08.863,4.684,4.684,0,0,1-3.186-1.021,2.855,2.855,0,0,1-1.114-2.328l.019-.057h2.49a1.418,1.418,0,0,0,.533,1.176,2.19,2.19,0,0,0,1.315.363,1.886,1.886,0,0,0,1.153-.3A.958.958,0,0,0,556.207,4596.688Z" transform="translate(-421.657 -4584.914)"/>
      <path id="Trazado_105481" data-name="Trazado 105481" d="M451.277,4610.339l.113,1.333a3.406,3.406,0,0,1,1.217-1.124,3.5,3.5,0,0,1,1.693-.4,3.089,3.089,0,0,1,1.661.429,2.64,2.64,0,0,1,1.044,1.3,3.5,3.5,0,0,1,1.213-1.269,3.3,3.3,0,0,1,1.754-.457,2.9,2.9,0,0,1,2.356,1.032,4.809,4.809,0,0,1,.863,3.138v6.111h-2.723V4614.3a2.561,2.561,0,0,0-.374-1.6,1.361,1.361,0,0,0-1.11-.448,1.9,1.9,0,0,0-1,.257,1.878,1.878,0,0,0-.677.715c0,.119,0,.221.01.3s.009.17.009.257v6.649h-2.714V4614.3a2.573,2.573,0,0,0-.373-1.584,1.355,1.355,0,0,0-1.12-.463,2.121,2.121,0,0,0-.966.21,1.85,1.85,0,0,0-.685.595v7.377H448.75v-10.094Z" transform="translate(-431.164 -4582.951)"/>
      <path id="Trazado_105482" data-name="Trazado 105482" d="M463.483,4615.292a5.412,5.412,0,0,1,1.26-3.7,4.391,4.391,0,0,1,3.489-1.441,4.44,4.44,0,0,1,3.507,1.436,5.391,5.391,0,0,1,1.27,3.7v.2a5.4,5.4,0,0,1-1.265,3.71,4.989,4.989,0,0,1-7,0,5.4,5.4,0,0,1-1.264-3.71Zm2.714.191a4.4,4.4,0,0,0,.484,2.213,1.676,1.676,0,0,0,1.568.832,1.659,1.659,0,0,0,1.544-.837,4.346,4.346,0,0,0,.489-2.208v-.2a4.3,4.3,0,0,0-.493-2.188,1.676,1.676,0,0,0-1.558-.849,1.652,1.652,0,0,0-1.544.854,4.336,4.336,0,0,0-.49,2.184Z" transform="translate(-429.784 -4582.951)"/>
      <path id="Trazado_105483" data-name="Trazado 105483" d="M476.223,4610.339l.121,1.446a3.691,3.691,0,0,1,1.24-1.2,3.227,3.227,0,0,1,1.652-.429,3.036,3.036,0,0,1,2.387.961,4.439,4.439,0,0,1,.858,3.014v6.307h-2.734v-6.312a2.046,2.046,0,0,0-.41-1.444,1.65,1.65,0,0,0-1.24-.426,2.1,2.1,0,0,0-.97.22,1.994,1.994,0,0,0-.72.622v7.341h-2.724v-10.094Z" transform="translate(-428.829 -4582.951)"/>
      <path id="Trazado_105484" data-name="Trazado 105484" d="M483.206,4615.292a5.417,5.417,0,0,1,1.259-3.7,4.393,4.393,0,0,1,3.49-1.441,4.44,4.44,0,0,1,3.507,1.436,5.391,5.391,0,0,1,1.27,3.7v.2a5.4,5.4,0,0,1-1.265,3.71,4.99,4.99,0,0,1-7,0,5.4,5.4,0,0,1-1.263-3.71Zm2.714.191a4.384,4.384,0,0,0,.484,2.213,1.676,1.676,0,0,0,1.568.832,1.659,1.659,0,0,0,1.544-.837,4.357,4.357,0,0,0,.489-2.208v-.2a4.293,4.293,0,0,0-.494-2.188,1.674,1.674,0,0,0-1.557-.849,1.652,1.652,0,0,0-1.544.854,4.337,4.337,0,0,0-.49,2.184Z" transform="translate(-427.938 -4582.951)"/>
      <path id="Trazado_105485" data-name="Trazado 105485" d="M502.558,4615.666a5.793,5.793,0,0,1-1.037,3.6,3.426,3.426,0,0,1-2.892,1.362,3.246,3.246,0,0,1-1.41-.294,2.882,2.882,0,0,1-1.053-.863v4.843h-2.715v-13.976h2.454l.157,1.195a3.24,3.24,0,0,1,1.078-1.023,2.918,2.918,0,0,1,1.47-.359,3.358,3.358,0,0,1,2.91,1.465,6.533,6.533,0,0,1,1.037,3.853Zm-2.725-.21a4.9,4.9,0,0,0-.476-2.317,1.553,1.553,0,0,0-1.456-.888,2.049,2.049,0,0,0-1.049.252,1.8,1.8,0,0,0-.686.72v4.428a1.667,1.667,0,0,0,.686.656,2.315,2.315,0,0,0,1.067.223,1.566,1.566,0,0,0,1.451-.775,4.1,4.1,0,0,0,.461-2.1Z" transform="translate(-426.979 -4582.951)"/>
      <path id="Trazado_105486" data-name="Trazado 105486" d="M508.621,4612.681l-1-.029a1.825,1.825,0,0,0-1,.251,1.6,1.6,0,0,0-.6.709v6.82h-2.715v-10.094h2.528l.121,1.493a3.187,3.187,0,0,1,.919-1.237,2.051,2.051,0,0,1,1.3-.443,2.01,2.01,0,0,1,.377.033c.115.021.232.048.35.079Z" transform="translate(-426.055 -4582.951)"/>
      <path id="Trazado_105487" data-name="Trazado 105487" d="M513.927,4620.629a4.542,4.542,0,0,1-3.49-1.4,5,5,0,0,1-1.306-3.554v-.374a5.525,5.525,0,0,1,1.236-3.7,4.61,4.61,0,0,1,6.49-.214,4.737,4.737,0,0,1,1.129,3.331v1.484h-6.027l-.02.056a2.618,2.618,0,0,0,.668,1.636,2.082,2.082,0,0,0,1.61.64,5.255,5.255,0,0,0,1.5-.181,6.932,6.932,0,0,0,1.306-.573l.737,1.683a5.029,5.029,0,0,1-1.614.839A7.04,7.04,0,0,1,513.927,4620.629Zm-.243-8.378a1.419,1.419,0,0,0-1.194.579,3.012,3.012,0,0,0-.541,1.521l.028.046h3.34v-.242a2.184,2.184,0,0,0-.407-1.386A1.462,1.462,0,0,0,513.684,4612.25Z" transform="translate(-425.511 -4582.951)"/>
      <path id="Trazado_105488" data-name="Trazado 105488" d="M521.171,4610.339l.121,1.446a3.7,3.7,0,0,1,1.241-1.2,3.223,3.223,0,0,1,1.651-.429,3.034,3.034,0,0,1,2.387.961,4.433,4.433,0,0,1,.858,3.014v6.307H524.7v-6.312a2.052,2.052,0,0,0-.41-1.444,1.655,1.655,0,0,0-1.241-.426,2.1,2.1,0,0,0-.97.22,2,2,0,0,0-.718.622v7.341h-2.724v-10.094Z" transform="translate(-424.621 -4582.951)"/>
      <path id="Trazado_105489" data-name="Trazado 105489" d="M528.155,4615.835a6.564,6.564,0,0,1,1.03-3.853,3.35,3.35,0,0,1,2.907-1.465,2.826,2.826,0,0,1,1.362.326,3.292,3.292,0,0,1,1.064.933v-5.532h2.733V4620.8h-2.341l-.224-1.231a3.341,3.341,0,0,1-1.124,1.063,2.987,2.987,0,0,1-1.487.364,3.414,3.414,0,0,1-2.888-1.362,5.82,5.82,0,0,1-1.03-3.6Zm2.714.2a4.156,4.156,0,0,0,.447,2.1,1.554,1.554,0,0,0,1.456.764,2.094,2.094,0,0,0,1.027-.239,1.894,1.894,0,0,0,.719-.7v-4.326a2.11,2.11,0,0,0-.714-.746,1.89,1.89,0,0,0-1.013-.268,1.536,1.536,0,0,0-1.46.893,5.059,5.059,0,0,0-.462,2.327Z" transform="translate(-423.73 -4583.317)"/>
      <path id="Trazado_105490" data-name="Trazado 105490" d="M544.37,4620.433a5.791,5.791,0,0,1-.257-.728,5.022,5.022,0,0,1-.153-.783,3.762,3.762,0,0,1-1.106,1.223,2.769,2.769,0,0,1-1.637.484,3.411,3.411,0,0,1-2.444-.816,2.926,2.926,0,0,1-.859-2.225,2.661,2.661,0,0,1,1.143-2.3,5.7,5.7,0,0,1,3.336-.816h1.52v-.8a1.568,1.568,0,0,0-.383-1.13,1.787,1.787,0,0,0-2.15-.079,1.139,1.139,0,0,0-.359.891l-2.631-.01-.009-.055a2.559,2.559,0,0,1,1.11-2.206,4.833,4.833,0,0,1,3.087-.929,4.512,4.512,0,0,1,2.94.919,3.184,3.184,0,0,1,1.129,2.617v4.17a7.817,7.817,0,0,0,.107,1.334,6.7,6.7,0,0,0,.34,1.241Zm-2.49-1.82a2.332,2.332,0,0,0,1.278-.354,1.847,1.847,0,0,0,.755-.821v-1.428h-1.52a1.819,1.819,0,0,0-1.315.434,1.408,1.408,0,0,0-.448,1.051,1.049,1.049,0,0,0,.337.811A1.3,1.3,0,0,0,541.879,4618.613Z" transform="translate(-422.816 -4582.951)"/>
    </g>
    <rect id="Rectngulo_5563" data-name="Rectngulo 5563" width="1.33" height="249.392" transform="translate(429.606 4429.613)" fill="#ffa06d"/>
    <rect id="Rectngulo_5564" data-name="Rectngulo 5564" width="1.33" height="183.535" transform="translate(326.542 4497.436)" fill="#ffa06d"/>
    <rect id="Rectngulo_5565" data-name="Rectngulo 5565" width="6.796" height="1.33" transform="translate(323.36 4679.67)" fill="#ffa06d"/>
    <rect id="Rectngulo_5566" data-name="Rectngulo 5566" width="6.478" height="1.33" transform="translate(427.033 4679.342)" fill="#ffa06d"/>
    <rect id="Rectngulo_5567" data-name="Rectngulo 5567" width="7.287" height="1.33" transform="translate(323.418 4496.771)" fill="#ffa06d"/>
    <rect id="Rectngulo_5568" data-name="Rectngulo 5568" width="7.287" height="1.33" transform="translate(323.418 4494.014)" fill="#ffa06d"/>
    <rect id="Rectngulo_5569" data-name="Rectngulo 5569" width="1.33" height="65.143" transform="translate(326.503 4429.536)" fill="#ffa06d"/>
    <rect id="Rectngulo_5570" data-name="Rectngulo 5570" width="6.786" height="1.33" transform="translate(323.466 4428.871)" fill="#ffa06d"/>
    <rect id="Rectngulo_5571" data-name="Rectngulo 5571" width="6.94" height="1.33" transform="translate(427.11 4428.947)" fill="#ffa06d"/>
    <g id="Grupo_56512" data-name="Grupo 56512" transform="translate(330.706 4495.325)">
      <rect id="Rectngulo_5572" data-name="Rectngulo 5572" width="1.109" height="1.33" transform="translate(64.681)" fill="#ffa06d"/>
      <path id="Trazado_105491" data-name="Trazado 105491" d="M377.859,4487.29h-2.192v-1.331h2.192Zm-4.384,0h-2.192v-1.331h2.192Zm-4.384,0H366.9v-1.331h2.192Zm-4.384,0h-2.192v-1.331h2.192Zm-4.383,0H358.13v-1.331h2.193Zm-4.384,0h-2.193v-1.331h2.193Zm-4.384,0h-2.193v-1.331h2.193Zm-4.384,0h-2.193v-1.331h2.193Zm-4.385,0h-2.192v-1.331h2.192Zm-4.384,0h-2.192v-1.331H338.4Zm-4.384,0h-2.192v-1.331h2.192Zm-4.383,0H327.44v-1.331h2.193Zm-4.384,0h-2.193v-1.331h2.193Zm-4.384,0h-2.193v-1.331h2.193Z" transform="translate(-315.371 -4485.959)" fill="#ffa06d"/>
      <rect id="Rectngulo_5573" data-name="Rectngulo 5573" width="1.109" height="1.33" transform="translate(0)" fill="#ffa06d"/>
    </g>
    <g id="Grupo_56513" data-name="Grupo 56513" transform="translate(330.706 4428.948)">
      <rect id="Rectngulo_5574" data-name="Rectngulo 5574" width="1.109" height="1.33" transform="translate(95.797)" fill="#ffa06d"/>
      <path id="Trazado_105492" data-name="Trazado 105492" d="M408.965,4426.595h-2.2v-1.33h2.2Zm-4.405,0h-2.2v-1.33h2.2Zm-4.4,0h-2.2v-1.33h2.2Zm-4.405,0h-2.2v-1.33h2.2Zm-4.4,0h-2.2v-1.33h2.2Zm-4.4,0h-2.2v-1.33h2.2Zm-4.4,0h-2.2v-1.33h2.2Zm-4.4,0h-2.2v-1.33h2.2Zm-4.4,0h-2.2v-1.33h2.2Zm-4.4,0h-2.2v-1.33h2.2Zm-4.4,0h-2.2v-1.33h2.2Zm-4.4,0h-2.2v-1.33h2.2Zm-4.405,0h-2.2v-1.33h2.2Zm-4.4,0h-2.2v-1.33h2.2Zm-4.4,0h-2.2v-1.33h2.2Zm-4.4,0h-2.2v-1.33h2.2Zm-4.4,0h-2.2v-1.33h2.2Zm-4.4,0h-2.2v-1.33h2.2Zm-4.4,0h-2.2v-1.33h2.2Zm-4.4,0h-2.2v-1.33h2.2Zm-4.4,0h-2.2v-1.33h2.2Z" transform="translate(-315.37 -4425.265)" fill="#ffa06d"/>
      <rect id="Rectngulo_5575" data-name="Rectngulo 5575" width="1.109" height="1.33" transform="translate(0)" fill="#ffa06d"/>
    </g>
    <g id="Grupo_56514" data-name="Grupo 56514" transform="translate(330.706 4679.669)">
      <rect id="Rectngulo_5576" data-name="Rectngulo 5576" width="1.109" height="1.33" transform="translate(95.797 0.001)" fill="#ffa06d"/>
      <path id="Trazado_105493" data-name="Trazado 105493" d="M408.965,4655.854h-2.2v-1.331h2.2Zm-4.405,0h-2.2v-1.331h2.2Zm-4.4,0h-2.2v-1.331h2.2Zm-4.405,0h-2.2v-1.331h2.2Zm-4.4,0h-2.2v-1.331h2.2Zm-4.4,0h-2.2v-1.331h2.2Zm-4.4,0h-2.2v-1.331h2.2Zm-4.4,0h-2.2v-1.331h2.2Zm-4.4,0h-2.2v-1.331h2.2Zm-4.4,0h-2.2v-1.331h2.2Zm-4.4,0h-2.2v-1.331h2.2Zm-4.4,0h-2.2v-1.331h2.2Zm-4.405,0h-2.2v-1.331h2.2Zm-4.4,0h-2.2v-1.331h2.2Zm-4.4,0h-2.2v-1.331h2.2Zm-4.4,0h-2.2v-1.331h2.2Zm-4.4,0h-2.2v-1.331h2.2Zm-4.4,0h-2.2v-1.331h2.2Zm-4.4,0h-2.2v-1.331h2.2Zm-4.4,0h-2.2v-1.331h2.2Zm-4.4,0h-2.2v-1.331h2.2Z" transform="translate(-315.37 -4654.523)" fill="#ffa06d"/>
      <rect id="Rectngulo_5577" data-name="Rectngulo 5577" width="1.109" height="1.33" transform="translate(0 0.001)" fill="#ffa06d"/>
    </g>
  </g>
</svg>
