<svg xmlns="http://www.w3.org/2000/svg" xmlns:xlink="http://www.w3.org/1999/xlink" width="318.692" height="263.714" viewBox="0 0 318.692 263.714">
  <defs>
    <linearGradient id="linear-gradient" x1="0.032" y1="-1.476" x2="1.02" y2="2.725" gradientUnits="objectBoundingBox">
      <stop offset="0" stop-color="#8080ff"/>
      <stop offset="1" stop-color="#fff"/>
    </linearGradient>
    <linearGradient id="linear-gradient-2" x1="0.192" y1="-0.152" x2="0.759" y2="1.19" xlink:href="#linear-gradient"/>
    <linearGradient id="linear-gradient-3" x1="0" y1="0.5" x2="1" y2="0.5" xlink:href="#linear-gradient"/>
    <linearGradient id="linear-gradient-4" x1="0.404" y1="0.013" x2="0.596" y2="0.72" xlink:href="#linear-gradient"/>
    <linearGradient id="linear-gradient-5" x1="0.343" y1="-0.118" x2="0.657" y2="0.909" xlink:href="#linear-gradient"/>
    <linearGradient id="linear-gradient-6" x1="0.323" y1="-0.03" x2="0.677" y2="1.03" xlink:href="#linear-gradient"/>
    <linearGradient id="linear-gradient-7" x1="0.323" y1="-0.03" x2="0.677" y2="1.03" gradientUnits="objectBoundingBox">
      <stop offset="0" stop-color="#c36f3a"/>
      <stop offset="1" stop-color="#8a391e"/>
    </linearGradient>
    <linearGradient id="linear-gradient-8" x1="0.316" y1="-0.353" x2="0.716" y2="0.99" xlink:href="#linear-gradient-7"/>
    <linearGradient id="linear-gradient-9" x1="0.273" y1="-0.039" x2="0.699" y2="0.858" xlink:href="#linear-gradient"/>
    <linearGradient id="linear-gradient-10" x1="0.307" y1="-0.318" x2="0.725" y2="0.982" xlink:href="#linear-gradient-7"/>
    <linearGradient id="linear-gradient-11" x1="0.401" y1="0.203" x2="0.661" y2="0.968" xlink:href="#linear-gradient"/>
    <linearGradient id="linear-gradient-12" x1="0.323" y1="-0.03" x2="0.677" y2="1.03" xlink:href="#linear-gradient-7"/>
    <linearGradient id="linear-gradient-13" x1="0.307" y1="-0.318" x2="0.725" y2="0.982" xlink:href="#linear-gradient-7"/>
    <linearGradient id="linear-gradient-14" x1="0.308" y1="-0.076" x2="0.679" y2="1.007" xlink:href="#linear-gradient"/>
    <linearGradient id="linear-gradient-15" x1="0.295" y1="-0.043" x2="0.644" y2="0.712" xlink:href="#linear-gradient-7"/>
    <linearGradient id="linear-gradient-16" x1="0.309" y1="-0.138" x2="0.614" y2="0.78" xlink:href="#linear-gradient-7"/>
    <linearGradient id="linear-gradient-17" x1="-112.785" y1="27.768" x2="-112.449" y2="28.597" xlink:href="#linear-gradient-7"/>
    <linearGradient id="linear-gradient-18" x1="-117.361" y1="25.373" x2="-117.06" y2="26.307" xlink:href="#linear-gradient-7"/>
    <linearGradient id="linear-gradient-19" x1="0.366" y1="0.229" x2="0.713" y2="0.845" xlink:href="#linear-gradient"/>
  </defs>
  <g id="Grupo_56714" data-name="Grupo 56714" transform="translate(-101.179 -5280.528)">
    <g id="Grupo_56671" data-name="Grupo 56671" transform="translate(101.179 5280.528)">
      <path id="Trazado_105676" data-name="Trazado 105676" d="M216.892,5610a41.735,41.735,0,0,0-9.877-4.256c-12.636-4-6.743-4.058-14.638-8.481-.178-.051-.362-.1-.55-.145-2.532-1.736-13.485-9.742-19.711-12.3a3.892,3.892,0,0,0-2.292-.223c-1.5-2.526-5.917-2.117-11.824-6.209a4.87,4.87,0,0,0-3.417-2.184c-.28.01-2.776.324-2.174.756,1.191.855,3.059,2.23,4.514,2.221,3.488,3.375,2.516,2.535,8.438,7.292l.349.177c-2.289,1.708-2.943,1.538-7.968,3.06-2.456-3.181-8.568-5.874-16.56-10.329a8.524,8.524,0,0,0-2.367-1.761s-5.417-.648-5.479-.544c1.188,1.037,4.719,2.416,5.55,3.013,4.943,3.676,10.888,9.644,14.623,11.383-.34.4-.224.829.566,1.346,6.494,2.583,18.437,6.084,23.18,7.864.008.026.011.054.02.081,4.909,2.636,8.495,3.373,11.916,5.289,2.466,1.382,4.324,3.511,6.514,5.262h23.8A3.924,3.924,0,0,0,216.892,5610Z" transform="translate(-108.474 -5347.602)" opacity="0.3" fill="url(#linear-gradient)" style="mix-blend-mode: multiply;isolation: isolate"/>
      <path id="Trazado_105677" data-name="Trazado 105677" d="M196.714,5557.789c2.31,1.045,26.937,15.83,30.093,17.249,0,.133-.015.267-.019.4a5.072,5.072,0,0,0-4.36,3.656H331.9c2.542-2.851,10.21-6.772,46.739-27.739a81.315,81.315,0,0,0,20.246-8.158c-1.379.84,9.928-5.749,9.531-5.487.245-.149,1.073-.717,1.645-1.16,2.613-.1,5.687-3.888,5.844-7.416,16.8-36.294-22.663-47.319-57.29-56.6l1.789-1.032-27.917-16.224L322.06,5461.3l-53.8-27.137-166.959,73.9,90.244,52.16Zm140.162-72.7a39.05,39.05,0,0,0,1.7,26.481c-15.909,9.185-27.6,16.454-38.652,19.177-5.567-4.347-14.65-7.727-14.65-7.727l-2.642,1.816s-4.333-2.1-8.111-3.748Z" transform="translate(-101.206 -5315.379)" fill="#7ac4e2" opacity="0.3" style="mix-blend-mode: multiply;isolation: isolate"/>
      <path id="Trazado_105678" data-name="Trazado 105678" d="M101.179,5487.985l.092,32.289,69.652,40.478-.092-32.289Z" transform="translate(-101.179 -5327.589)" fill="#0075a4"/>
      <path id="Trazado_105679" data-name="Trazado 105679" d="M191.267,5512.974l.092,32.289L352.9,5452l-.092-32.29Z" transform="translate(-121.615 -5312.101)" fill="#106384"/>
      <path id="Trazado_105680" data-name="Trazado 105680" d="M101.179,5460.621l69.652,40.477,161.537-93.263-69.652-40.478Z" transform="translate(-101.179 -5300.226)" fill="#39a4ce"/>
      <path id="Trazado_105681" data-name="Trazado 105681" d="M427.209,5559.731l-6.08-1.167-104.514-58.215a74.56,74.56,0,0,0-2.5-16.361,39.47,39.47,0,0,0-5.673-11.136l53.194,1.5Z" transform="translate(-148.196 -5324.156)" opacity="0.3" fill="url(#linear-gradient-2)" style="mix-blend-mode: multiply;isolation: isolate"/>
      <g id="Grupo_56631" data-name="Grupo 56631" transform="translate(130.515 76.929)">
        <path id="Trazado_105682" data-name="Trazado 105682" d="M320.665,5426.154l27.216-15.714a3.444,3.444,0,0,0,0-5.965l-40.345-23.293a8.613,8.613,0,0,0-8.611,0L271.71,5396.9a3.444,3.444,0,0,0,0,5.965l40.345,23.293A8.616,8.616,0,0,0,320.665,5426.154Z" transform="translate(-269.987 -5380.028)" fill="#0075a4"/>
        <path id="Trazado_105683" data-name="Trazado 105683" d="M297.026,5393.657c-1.184.684-1.035,1.878.332,2.667l35.473,20.48a5.133,5.133,0,0,0,4.62.192c1.185-.684,1.036-1.878-.332-2.667l-35.473-20.48A5.133,5.133,0,0,0,297.026,5393.657Z" transform="translate(-275.94 -5383.015)" fill="#0075a4"/>
      </g>
      <path id="Trazado_105684" data-name="Trazado 105684" d="M227.092,5356.119l106.449,64.833c6.016,3.664,17.767,31.042,23.783,34.706,13,7.921,52.018,31.682,52.018,31.682-18.434,10.644-18.434,27.9,0,38.542l-12.762,7.368-86.467-48.8c-6.671-3.764-19.732-31.344-26.4-35.108L173.426,5387.1Z" transform="translate(-117.568 -5297.676)" fill="#fceade"/>
      <g id="Grupo_56632" data-name="Grupo 56632" transform="translate(181.748 108.237)" opacity="0.3" style="mix-blend-mode: multiply;isolation: isolate">
        <path id="Trazado_105685" data-name="Trazado 105685" d="M336.253,5420.523q4.545,2.717,9.091,5.436Z" transform="translate(-336.253 -5420.523)" fill="url(#linear-gradient-3)"/>
      </g>
      <g id="Grupo_56645" data-name="Grupo 56645" transform="translate(196.134 116.79)">
        <g id="Grupo_56633" data-name="Grupo 56633">
          <path id="Trazado_105686" data-name="Trazado 105686" d="M355.029,5432.262a55.305,55.305,0,0,0,9.36,5.526c.233.1.544-.194.3-.393a55.357,55.357,0,0,0-9.295-5.762.364.364,0,0,0-.367.629Z" transform="translate(-354.86 -5431.585)" fill="#ffcd91"/>
        </g>
        <g id="Grupo_56634" data-name="Grupo 56634" transform="translate(18.739 12.669)">
          <path id="Trazado_105687" data-name="Trazado 105687" d="M379.15,5448.481c.827,1.264,1.8,2.428,2.628,3.694a38.771,38.771,0,0,0,2.535,3.945.255.255,0,0,0,.423-.246,22.865,22.865,0,0,0-5.054-7.8c-.26-.277-.745.086-.532.411Z" transform="translate(-379.097 -5447.973)" fill="#ffcd91"/>
        </g>
        <g id="Grupo_56635" data-name="Grupo 56635" transform="translate(29.975 30.581)">
          <path id="Trazado_105688" data-name="Trazado 105688" d="M393.681,5471.769a31.165,31.165,0,0,0,4.091,6.669.334.334,0,0,0,.554-.322,31.21,31.21,0,0,0-3.906-6.779.428.428,0,0,0-.739.432Z" transform="translate(-393.63 -5471.14)" fill="#ffcd91"/>
        </g>
        <g id="Grupo_56636" data-name="Grupo 56636" transform="translate(41.896 45.329)">
          <path id="Trazado_105689" data-name="Trazado 105689" d="M409.262,5491.064a53.27,53.27,0,0,0,8.471,4.858c.244.1.461-.283.26-.447a53.248,53.248,0,0,0-8.27-5.2.456.456,0,0,0-.461.787Z" transform="translate(-409.048 -5490.214)" fill="#ffcd91"/>
        </g>
        <g id="Grupo_56637" data-name="Grupo 56637" transform="translate(57.15 55.183)">
          <path id="Trazado_105690" data-name="Trazado 105690" d="M428.912,5503.475a86.768,86.768,0,0,0,8.5,5.109.221.221,0,0,0,.223-.382,59.423,59.423,0,0,0-8.441-5.207.278.278,0,0,0-.281.48Z" transform="translate(-428.778 -5502.959)" fill="#ffcd91"/>
        </g>
        <g id="Grupo_56638" data-name="Grupo 56638" transform="translate(74.553 65.622)">
          <path id="Trazado_105691" data-name="Trazado 105691" d="M451.361,5516.929a14.759,14.759,0,0,0,3.706,2.515,41.185,41.185,0,0,0,4.4,2.356c.2.088.465-.171.259-.336a40.468,40.468,0,0,0-3.915-2.707,15.5,15.5,0,0,0-4.18-2.287.277.277,0,0,0-.267.459Z" transform="translate(-451.288 -5516.461)" fill="#ffcd91"/>
        </g>
        <g id="Grupo_56639" data-name="Grupo 56639" transform="translate(79.27 75.616)">
          <path id="Trazado_105692" data-name="Trazado 105692" d="M461.609,5529.5c-1.619,1.582-3.666,3.777-4.213,6.03-.069.284.319.57.53.309.75-.921,1.314-1.986,2.034-2.937.745-.983,1.588-1.891,2.321-2.884.295-.4-.335-.848-.673-.519Z" transform="translate(-457.389 -5529.389)" fill="#ffcd91"/>
        </g>
        <g id="Grupo_56640" data-name="Grupo 56640" transform="translate(76.58 90.205)">
          <path id="Trazado_105693" data-name="Trazado 105693" d="M453.965,5548.581a13.829,13.829,0,0,0,.7,6.294.223.223,0,0,0,.412-.111,48.7,48.7,0,0,1-.445-6.183c.016-.432-.649-.43-.67,0Z" transform="translate(-453.909 -5548.258)" fill="#ffcd91"/>
        </g>
        <g id="Grupo_56641" data-name="Grupo 56641" transform="translate(80.805 104.736)">
          <path id="Trazado_105694" data-name="Trazado 105694" d="M459.44,5567.612c.495.667,1.013,1.313,1.536,1.96a7.37,7.37,0,0,0,1.7,1.768c.2.12.51-.085.419-.322a6.93,6.93,0,0,0-1.306-1.861c-.572-.678-1.152-1.35-1.757-2-.283-.3-.845.106-.588.454Z" transform="translate(-459.374 -5567.052)" fill="#ffcd91"/>
        </g>
        <g id="Grupo_56642" data-name="Grupo 56642" transform="translate(71.515 106.681)">
          <path id="Trazado_105695" data-name="Trazado 105695" d="M453.915,5572.986a18.422,18.422,0,0,0-3.192-2.024,11.307,11.307,0,0,0-2.967-1.387c-.285-.063-.544.3-.3.518a15.956,15.956,0,0,0,2.725,1.8,15.362,15.362,0,0,0,3.375,1.716.374.374,0,0,0,.361-.62Z" transform="translate(-447.358 -5569.567)" fill="#ffcd91"/>
        </g>
        <g id="Grupo_56643" data-name="Grupo 56643" transform="translate(53.97 96.769)">
          <path id="Trazado_105696" data-name="Trazado 105696" d="M433.152,5561.2a42.559,42.559,0,0,0-4.634-2.752,12.664,12.664,0,0,0-3.543-1.695.252.252,0,0,0-.243.417,11.815,11.815,0,0,0,3.4,2.313,36.86,36.86,0,0,0,4.717,2.427c.448.168.62-.469.3-.71Z" transform="translate(-424.665 -5556.747)" fill="#ffcd91"/>
        </g>
        <g id="Grupo_56644" data-name="Grupo 56644" transform="translate(33.765 85.365)">
          <path id="Trazado_105697" data-name="Trazado 105697" d="M408.154,5547.214a45.113,45.113,0,0,0-9.3-5.2c-.228-.084-.435.262-.243.417a45.238,45.238,0,0,0,9.229,5.329.314.314,0,0,0,.317-.542Z" transform="translate(-398.532 -5541.997)" fill="#ffcd91"/>
        </g>
      </g>
      <g id="Grupo_56646" data-name="Grupo 56646" transform="translate(47.798 87.774)">
        <path id="Trazado_105698" data-name="Trazado 105698" d="M223.291,5466.593,163,5490.961l37.5,23.618s31.092-17.95,64.369-37.165C258.147,5481.3,231.849,5471.533,223.291,5466.593Z" transform="translate(-163.001 -5410.51)" opacity="0.3" fill="url(#linear-gradient-4)" style="mix-blend-mode: multiply;isolation: isolate"/>
        <path id="Trazado_105699" data-name="Trazado 105699" d="M330.156,5398.11s-1.385.235-3.412.713l-8.2-4.768-19.93,10.3,11.181,6.311c3.386,7.532,27.951,21.072,32.342,23.447,16.662-9.621,29.34-16.94,32.342-18.672A308.875,308.875,0,0,0,330.156,5398.11Z" transform="translate(-193.763 -5394.056)" opacity="0.3" fill="url(#linear-gradient-5)" style="mix-blend-mode: multiply;isolation: isolate"/>
      </g>
      <path id="Trazado_105700" data-name="Trazado 105700" d="M328.743,5402.2l-7.268,4.2.011,3.8,7.257-4.189Z" transform="translate(-151.153 -5308.13)" fill="#8a391e"/>
      <path id="Trazado_105701" data-name="Trazado 105701" d="M320.685,5416.064l-24.276-14.107-.011-3.8,24.276,14.107Z" transform="translate(-145.464 -5307.212)" fill="#b16040"/>
      <path id="Trazado_105702" data-name="Trazado 105702" d="M315.783,5403.181l7.271-4.2,8.316,4.8,2.894-1.671L309.989,5388l-13.59,7.847,24.276,14.107,3.425-1.977Z" transform="translate(-145.464 -5304.909)" fill="#e5c873"/>
      <path id="Trazado_105703" data-name="Trazado 105703" d="M341.63,5411.733l2.906-1.678-.011-3.8-2.895,1.671Z" transform="translate(-155.725 -5309.049)" fill="#8a391e"/>
      <path id="Trazado_105704" data-name="Trazado 105704" d="M331.221,5413.843l-3.424,1.978.011,3.8,3.413-1.972Z" transform="translate(-152.587 -5310.77)" fill="#8a391e"/>
      <path id="Trazado_105705" data-name="Trazado 105705" d="M330.875,5406.013V5402.2l8.315,4.8v3.809Z" transform="translate(-153.285 -5308.129)" fill="#c36f3a"/>
      <g id="Grupo_56647" data-name="Grupo 56647" transform="translate(159.866 77.282)">
        <path id="Trazado_105706" data-name="Trazado 105706" d="M314.034,5399.109l-6.069-3.526-.015-10.539,6.069,3.526Z" transform="translate(-307.95 -5381.52)" fill="#293c49"/>
        <path id="Trazado_105707" data-name="Trazado 105707" d="M314.019,5387.537l-6.069-3.526,6.1-3.524,6.069,3.527Z" transform="translate(-307.95 -5380.486)" fill="#2e4251"/>
        <path id="Trazado_105708" data-name="Trazado 105708" d="M321.9,5385.048l.015,10.539-6.1,3.523-.015-10.54Z" transform="translate(-309.731 -5381.521)" fill="#1c2932"/>
      </g>
      <path id="Trazado_105709" data-name="Trazado 105709" d="M325.669,5381.5c-.848-4.193-2.708-7.5-5.456-9.583-4.367-3.313-10.6-3.186-17.234.215.562.568-8.459-5.3-9.6-7.137.967,1.723,1.053,16.326,25.5,26.018,6.024,2.412,11.15,1.641,12.183-2.215C328.309,5387.691,326.4,5385.138,325.669,5381.5Z" transform="translate(-144.78 -5299.689)" fill="#249597"/>
      <path id="Trazado_105710" data-name="Trazado 105710" d="M318.7,5306.864c0,.077-.007.15-.013.225.006-.075.013-.148.013-.225-.3-8.751-5.757-14.6-13.219-19.147l-3.371-1.959c-7.139-4.125-15.1-5.831-22.434-2.366-.227.1-.457.211-.69.34l-.069.038-.109.056c.019-.012.043-.02.063-.031-2.343,1.3-5.057,2.914-9.664,5.573.042-.024.091-.042.135-.064a81.347,81.347,0,0,0-17.26,13.5c-15.591,9.055-36.135,20.911-42.274,24.455-3.7,2.137-5.963,2.265-6.2,2.273a30.366,30.366,0,0,0-18.4,3.979c-3.366,1.494-8.615,5.071-19.636,11.327a2.734,2.734,0,0,1,.269-.127,2.85,2.85,0,0,0-.269.127,25.224,25.224,0,0,0-11.833,20.519c0,.394.07,24.538.071,25.145a24.483,24.483,0,0,0,3.066,12.176,7.9,7.9,0,0,1,.5,2.98q-1.53,15.114-3.068,30.226c-.529,5.2,2.528,10.86,8.184,14.147l3.371,1.96c5.529,3.213,11.987,3.251,16.511.568-.042.025-.082.053-.124.076l39.815-22.988a.184.184,0,0,1-.029.009.1.1,0,0,0,.075-.118q-1.022-5.446-2.049-10.892c-.063-.329-1.121-5.815-1.4-7.263.157-23.212,21.025-38.289,23.081-39.7,19.139-11.049,7.844-4.528,27-15.591a2.344,2.344,0,0,0,1.174-2.19L242.919,5369.5c-7.026,4.057-13.746,11.252-18.579,19.915-4.525,8.1-7.033,16.843-7.012,24.412l2.885,15.381c.154.057.3.107.431.154-.135-.047-.277-.1-.431-.154l-33.944,19.6,2.765-27.2a16.174,16.174,0,0,0-1.784-7.817,16.117,16.117,0,0,1-1.774-7.809l-.071-25.144c-.016-5.938,4.159-13.183,9.338-16.174l19.187-11.078c4.409-2.545,8.734-3.664,12.524-3.244s8.115-.711,12.524-3.257l42.542-24.562a80.411,80.411,0,0,1,16.857-13.326l9.6-5.542c5.168-2.984,9.382-.582,9.4,5.37l.031,11.093a79.1,79.1,0,0,1-3.024,21.033l-1.592,5.753-3.978,14.838a7.88,7.88,0,0,1-3.324,4.6l-6.1,3.523a4.356,4.356,0,0,1-2.1,2.722l7.024-4.055a11.908,11.908,0,0,0,3.628-3.318,13.029,13.029,0,0,0,2.015-4.212q1.984-7.4,3.969-14.807.793-2.877,1.592-5.753c-.006.022-.017.042-.025.065.008-.022.019-.043.025-.065a82.682,82.682,0,0,0,3.21-22.482,2.351,2.351,0,0,1-.23,1.037C318.932,5317.784,318.721,5315.088,318.7,5306.864Z" transform="translate(-113.102 -5280.755)" fill="#35b8bb"/>
      <path id="Trazado_105711" data-name="Trazado 105711" d="M223.221,5359.7c4.409-2.545,8.734-3.664,12.524-3.244s8.115-.711,12.524-3.257l42.542-24.562a80.449,80.449,0,0,1,16.857-13.327l9.6-5.542c5.168-2.984,9.382-.582,9.4,5.369q.015,5.546.031,11.093a79.1,79.1,0,0,1-3.024,21.034q-.8,2.878-1.592,5.753l-3.978,14.837a7.88,7.88,0,0,1-3.324,4.6l-6.1,3.523c-2.756-1.1-4.669-3.657-5.4-7.3-.85-4.192-2.709-7.5-5.457-9.582-4.669-3.544-11.464-3.2-18.611.924L252.21,5375.61c-7.026,4.057-13.746,11.252-18.579,19.915-4.525,8.1-7.033,16.843-7.012,24.412.961,5.126,2.132,11.645,3.094,16.772l-34.391,19.855c.922-9.066,2.081-19.782,3-28.848a16.174,16.174,0,0,0-1.784-7.817,16.111,16.111,0,0,1-1.773-7.81l-.072-25.143c-.016-5.938,4.159-13.184,9.338-16.174Z" transform="translate(-122.393 -5286.87)" fill="#a1f0f1"/>
      <ellipse id="Elipse_4125" data-name="Elipse 4125" cx="12.304" cy="7.104" rx="12.304" ry="7.104" transform="translate(178.91 53.11) rotate(-60)" fill="#0075a4"/>
      <path id="Trazado_105712" data-name="Trazado 105712" d="M146.539,5390.286c12.547,7.24,22.693,24.814,22.649,39.229s-10.25,20.238-22.8,12.992-22.693-24.815-22.649-39.23S133.992,5383.038,146.539,5390.286Z" transform="translate(-106.297 -5304.719)" fill="#a1f0f1"/>
      <path id="Trazado_105713" data-name="Trazado 105713" d="M151.128,5414.428a15.174,15.174,0,0,1,6.884,11.924c-.012,4.383-3.116,6.152-6.929,3.949a15.174,15.174,0,0,1-6.885-11.924C144.21,5413.994,147.314,5412.225,151.128,5414.428Z" transform="translate(-110.938 -5310.688)" fill="#249597"/>
      <path id="Trazado_105714" data-name="Trazado 105714" d="M134.814,5376.707c5.02-2.917,11.973-2.505,19.647,1.924,24.667,14.243,36.579,55.433,19.466,65.378C201.877,5426.174,164.13,5361.323,134.814,5376.707Z" transform="translate(-108.809 -5301.817)" fill="#249597"/>
      <path id="Trazado_105715" data-name="Trazado 105715" d="M154.145,5378.77c-7.674-4.43-14.627-4.842-19.647-1.924l-1.079.626c5.02-2.917,11.972-2.5,19.647,1.926,15.251,8.8,27.57,30.143,27.52,47.667-.025,8.706-3.1,14.831-8.053,17.711l1.079-.628c4.956-2.879,8.028-9,8.053-17.709C181.714,5408.914,169.4,5387.576,154.145,5378.77Z" transform="translate(-108.493 -5301.955)" fill="#a1f0f1"/>
      <g id="Grupo_56648" data-name="Grupo 56648" transform="translate(15.239 73.654)">
        <path id="Trazado_105716" data-name="Trazado 105716" d="M150.223,5379.582c-7.674-4.431-14.626-4.844-19.647-1.926a16.992,16.992,0,0,0-3.4,2.6,17.435,17.435,0,0,0-1.918,2.231,21.715,21.715,0,0,0-3.128,6.39c-2.832,9.543-.073,19.06.834,22.187a61.1,61.1,0,0,0,11.9,21.7c3.764,4.439,9.959,10.328,18.1,13.178a22.711,22.711,0,0,0,8.23,1.354,18.913,18.913,0,0,0,4.421-.639,16.975,16.975,0,0,0,4.075-1.7c4.956-2.879,8.028-9,8.053-17.71C177.793,5409.724,165.475,5388.386,150.223,5379.582Zm-4.479,60.344c-12.547-7.24-22.694-24.814-22.649-39.229s10.25-20.24,22.8-12.991,22.693,24.813,22.649,39.229S158.29,5447.173,145.744,5439.925Z" transform="translate(-120.89 -5375.792)" fill="#249597"/>
      </g>
      <g id="Grupo_56651" data-name="Grupo 56651" transform="translate(167.164)">
        <ellipse id="Elipse_4126" data-name="Elipse 4126" cx="5.829" cy="3.365" rx="5.829" ry="3.365" transform="translate(2.93 8.503)" opacity="0.3" fill="url(#linear-gradient-6)" style="mix-blend-mode: multiply;isolation: isolate"/>
        <g id="Grupo_56649" data-name="Grupo 56649" transform="translate(2.925 3.012)">
          <path id="Trazado_105717" data-name="Trazado 105717" d="M326.982,5286.1c0,.926-1.3,1.677-2.9,1.677s-2.9-.751-2.9-1.677,1.3-1.677,2.9-1.677S326.982,5285.175,326.982,5286.1Z" transform="translate(-321.173 -5284.424)" fill="#59829e"/>
          <path id="Trazado_105718" data-name="Trazado 105718" d="M321.173,5291.859c0,.926,1.3,1.677,2.9,1.677s2.9-.751,2.9-1.677v-5.267c0,.927-1.3,1.678-2.9,1.678s-2.9-.75-2.9-1.678Z" transform="translate(-321.173 -5284.916)" fill="#354d5e"/>
        </g>
        <g id="Grupo_56650" data-name="Grupo 56650">
          <ellipse id="Elipse_4127" data-name="Elipse 4127" cx="5.829" cy="3.365" rx="5.829" ry="3.365" transform="translate(0)" fill="#e5b767"/>
          <path id="Trazado_105719" data-name="Trazado 105719" d="M327.321,5284.307c0,1.08-1.515,1.954-3.385,1.954s-3.385-.875-3.385-1.954,1.515-1.955,3.385-1.955S327.321,5283.228,327.321,5284.307Z" transform="translate(-318.107 -5280.941)" fill="url(#linear-gradient-7)"/>
          <path id="Trazado_105720" data-name="Trazado 105720" d="M326.55,5284.493c0,.732-1.028,1.325-2.295,1.325s-2.295-.593-2.295-1.325,1.028-1.326,2.295-1.326S326.55,5283.761,326.55,5284.493Z" transform="translate(-318.427 -5281.126)" fill="#e5b767"/>
          <path id="Trazado_105721" data-name="Trazado 105721" d="M317.39,5287.529c0,1.858,2.61,3.365,5.829,3.365s5.829-1.507,5.829-3.365v-2.648c0,1.858-2.609,3.364-5.829,3.364s-5.829-1.506-5.829-3.364Z" transform="translate(-317.39 -5281.516)" fill="url(#linear-gradient-8)"/>
        </g>
      </g>
      <g id="Grupo_56652" data-name="Grupo 56652" transform="translate(32.919 131.286)">
        <path id="Trazado_105722" data-name="Trazado 105722" d="M152.92,5450.572a1.221,1.221,0,0,0-1.229-.122l-7.282,4.231a1.223,1.223,0,0,1,1.229.122,3.807,3.807,0,0,1,1.731,2.987,1.2,1.2,0,0,1-.5,1.1l7.282-4.231a1.2,1.2,0,0,0,.5-1.1A3.807,3.807,0,0,0,152.92,5450.572Z" transform="translate(-143.905 -5450.335)" fill="#354d5e"/>
        <path id="Trazado_105723" data-name="Trazado 105723" d="M145.489,5456.048a3.8,3.8,0,0,1,1.732,2.986c0,1.1-.786,1.533-1.743.98a3.782,3.782,0,0,1-1.721-2.98C143.76,5455.936,144.532,5455.495,145.489,5456.048Z" transform="translate(-143.757 -5451.577)" fill="#59829e"/>
      </g>
      <g id="Grupo_56663" data-name="Grupo 56663" transform="translate(4.782 127.462)">
        <g id="Grupo_56662" data-name="Grupo 56662" transform="translate(0 0)" style="isolation: isolate">
          <g id="Grupo_56653" data-name="Grupo 56653" transform="translate(25.729)">
            <ellipse id="Elipse_4128" data-name="Elipse 4128" cx="4.229" cy="7.3" rx="4.229" ry="7.3" transform="translate(0 4.208) rotate(-29.837)" fill="#249597"/>
          </g>
          <g id="Grupo_56654" data-name="Grupo 56654" transform="translate(25.883 2.104)">
            <path id="Trazado_105724" data-name="Trazado 105724" d="M144.355,5448.109a3.607,3.607,0,0,0-1.529,3.268,11.377,11.377,0,0,0,5.071,8.992,3.676,3.676,0,0,0,3.723.405l-1.983,1.137a3.674,3.674,0,0,1-3.723-.406,11.372,11.372,0,0,1-5.072-8.991,3.6,3.6,0,0,1,1.529-3.268Z" transform="translate(-140.842 -5448.109)" fill="#249597"/>
          </g>
          <path id="Trazado_105725" data-name="Trazado 105725" d="M146.1,5449.886c-2.851-1.693-5.2-.412-5.251,2.862a11.373,11.373,0,0,0,5.071,8.993c2.851,1.692,5.2.41,5.251-2.864A11.375,11.375,0,0,0,146.1,5449.886Z" transform="translate(-114.959 -5446.239)" fill="#249597"/>
          <path id="Trazado_105726" data-name="Trazado 105726" d="M145.416,5456.222a1.144,1.144,0,0,0-1.154-.125l-.822.472a1.14,1.14,0,0,1,1.154.126,3.523,3.523,0,0,1,1.572,2.786,1.118,1.118,0,0,1-.474,1.014l.822-.472a1.118,1.118,0,0,0,.474-1.013A3.529,3.529,0,0,0,145.416,5456.222Z" transform="translate(-115.548 -5447.793)" fill="#249597"/>
          <path id="Trazado_105727" data-name="Trazado 105727" d="M144.525,5456.832a1.141,1.141,0,0,0-1.154-.126.51.51,0,0,1-.235.074,1.235,1.235,0,0,1,.354.151c1.378.83,2.258,3.116,1.948,3.873a.551.551,0,0,1,.185-.172,1.117,1.117,0,0,0,.474-1.014A3.525,3.525,0,0,0,144.525,5456.832Z" transform="translate(-115.479 -5447.932)" fill="#249597"/>
          <path id="Trazado_105728" data-name="Trazado 105728" d="M148.527,5448.415a3.675,3.675,0,0,0-3.722-.406l-1.984,1.138a3.675,3.675,0,0,1,3.723.405,11.377,11.377,0,0,1,5.071,8.992,3.6,3.6,0,0,1-1.529,3.268l1.983-1.138a3.6,3.6,0,0,0,1.529-3.267A11.376,11.376,0,0,0,148.527,5448.415Z" transform="translate(-115.407 -5445.905)" fill="#249597"/>
          <g id="Grupo_56655" data-name="Grupo 56655" transform="translate(14.003 10.052)">
            <path id="Trazado_105729" data-name="Trazado 105729" d="M129.3,5458.389a4.258,4.258,0,0,0-.445,1.951,10.216,10.216,0,0,0,4.555,8.075,4.349,4.349,0,0,0,2.023.668,3.724,3.724,0,0,0-3.267,1.991,4.424,4.424,0,0,1-2.057-.68,10.384,10.384,0,0,1-4.63-8.209,4.34,4.34,0,0,1,.452-1.982A3.724,3.724,0,0,0,129.3,5458.389Z" transform="translate(-125.476 -5458.389)" fill="#249597"/>
          </g>
          <g id="Grupo_56656" data-name="Grupo 56656" transform="translate(20.691 20.744)">
            <path id="Trazado_105730" data-name="Trazado 105730" d="M136.511,5472.7a2.4,2.4,0,0,1-2.385,1.516,3.722,3.722,0,0,1,3.267-1.992,1.216,1.216,0,0,0-.886.486Z" transform="translate(-134.126 -5472.218)" fill="#249597"/>
          </g>
          <g id="Grupo_56657" data-name="Grupo 56657" transform="translate(14.455 10.052)">
            <path id="Trazado_105731" data-name="Trazado 105731" d="M129.43,5458.389a3.724,3.724,0,0,1-3.369,1.814,2.4,2.4,0,0,1,2.513-1.293A1.242,1.242,0,0,0,129.43,5458.389Z" transform="translate(-126.061 -5458.389)" fill="#249597"/>
          </g>
          <g id="Grupo_56658" data-name="Grupo 56658" transform="translate(12.71 10.456)">
            <path id="Trazado_105732" data-name="Trazado 105732" d="M128.009,5459.023c-1.682-.158-2.878,1.059-2.912,3.281a10.385,10.385,0,0,0,4.63,8.209c1.977,1.174,3.691.781,4.421-.787q-.216.463-.431.926c-.8,1.717-2.677,2.147-4.842.862a11.373,11.373,0,0,1-5.071-8.993c.036-2.434,1.347-3.767,3.188-3.593Z" transform="translate(-123.803 -5458.913)" fill="#249597"/>
          </g>
          <g id="Grupo_56659" data-name="Grupo 56659" transform="translate(9.806 10.432)">
            <path id="Trazado_105733" data-name="Trazado 105733" d="M126.219,5458.929c-1.883-.219-3.23,1.117-3.267,3.586a11.373,11.373,0,0,0,5.071,8.993c2.2,1.3,4.1.842,4.875-.934a7.246,7.246,0,0,1-3.049,3.391c-1.063.61-2.534.507-4.149-.451a12.677,12.677,0,0,1-5.653-10.022,4.015,4.015,0,0,1,1.7-3.643A7.258,7.258,0,0,1,126.219,5458.929Z" transform="translate(-120.047 -5458.881)" fill="#249597"/>
          </g>
          <path id="Trazado_105734" data-name="Trazado 105734" d="M134.435,5457.389a4.525,4.525,0,0,0-1.8-.651,2.362,2.362,0,0,0-2.473,1.272,1.221,1.221,0,0,1-.868.52,4.619,4.619,0,0,1,1.842.664,10.381,10.381,0,0,1,4.63,8.209,4.529,4.529,0,0,1-.352,1.777,1.242,1.242,0,0,1,.881-.476,2.363,2.363,0,0,0,2.347-1.49,4.47,4.47,0,0,0,.346-1.749A10.22,10.22,0,0,0,134.435,5457.389Z" transform="translate(-112.339 -5447.959)" fill="#249597"/>
          <g id="Grupo_56660" data-name="Grupo 56660" transform="translate(2.386 11.399)">
            <path id="Trazado_105735" data-name="Trazado 105735" d="M119.575,5460.132a4.014,4.014,0,0,0-1.7,3.642,12.677,12.677,0,0,0,5.653,10.023c1.614.958,3.086,1.062,4.149.451l-7.419,4.255c-1.064.61-2.534.508-4.15-.451a12.677,12.677,0,0,1-5.653-10.022,4.018,4.018,0,0,1,1.7-3.643Z" transform="translate(-110.45 -5460.132)" fill="#249597"/>
          </g>
          <g id="Grupo_56661" data-name="Grupo 56661" transform="translate(0.01 15.655)">
            <path id="Trazado_105736" data-name="Trazado 105736" d="M111.458,5465.636a4.017,4.017,0,0,0-1.7,3.643,12.68,12.68,0,0,0,5.653,10.022c1.615.959,3.086,1.062,4.15.451a8.254,8.254,0,0,1-2.192.866,8.014,8.014,0,0,1-2.353.2,8.138,8.138,0,0,1-3.553-15.184Z" transform="translate(-107.376 -5465.636)" fill="#249597"/>
          </g>
          <path id="Trazado_105737" data-name="Trazado 105737" d="M127.363,5459.685a4.593,4.593,0,0,0-1.883-.669l-1.017-.095c.008,0,.015,0,.022,0a7.265,7.265,0,0,0-4.411.923l-7.42,4.255c1.063-.61,2.534-.507,4.15.452a12.679,12.679,0,0,1,5.653,10.022,4.02,4.02,0,0,1-1.7,3.643l7.419-4.256a7.208,7.208,0,0,0,3.018-3.326c.141-.3.285-.61.428-.918a4.49,4.49,0,0,0,.373-1.826A10.383,10.383,0,0,0,127.363,5459.685Zm-1.883-.528c-.115-.041-.22-.049-.332-.081C125.26,5459.107,125.365,5459.116,125.48,5459.157Zm5.912,10.859c.029-.1.07-.192.093-.3C131.463,5469.824,131.421,5469.913,131.392,5470.016Z" transform="translate(-108.564 -5448.449)" fill="#249597"/>
          <path id="Trazado_105738" data-name="Trazado 105738" d="M115.6,5465.976c-1.615-.959-3.086-1.062-4.15-.452a8.138,8.138,0,1,0,8.1,14.118,4.02,4.02,0,0,0,1.7-3.643A12.68,12.68,0,0,0,115.6,5465.976Z" transform="translate(-107.364 -5449.87)" fill="#249597"/>
          <path id="Trazado_105739" data-name="Trazado 105739" d="M137.479,5453.609a6.929,6.929,0,0,0-4.141.753,7.087,7.087,0,0,0-2.92,2.93c.864-1.617,2.746-1.5,4.272-.622,4.209,2.436,6.43,10.7,2.332,11.3a6.9,6.9,0,0,0,6.277-4.234c.128-.294.129-.295.129-.295a7.014,7.014,0,0,0,.224-.722C144.519,5459.211,141.729,5454.145,137.479,5453.609Z" transform="translate(-112.594 -5447.239)" fill="#249597"/>
        </g>
      </g>
      <path id="Trazado_105740" data-name="Trazado 105740" d="M218.8,5431.269c-1.184.683-2.144-.043-2.144-1.621v-34.072a5.134,5.134,0,0,1,2.144-4.1c1.184-.683,2.144.042,2.144,1.621v34.073A5.136,5.136,0,0,1,218.8,5431.269Z" transform="translate(-127.375 -5305.639)" fill="#0075a4"/>
      <path id="Trazado_105741" data-name="Trazado 105741" d="M200.528,5354.731c-4.21.986-7.186,3.36-7.186,6.144,0,1.641,1.069,3.122,2.776,4.278l-.035.017c5.646,4.01,9.361,8.244,11.142,13.546,4.669-2.237,14.04-7.713,15.688-8.6-.305-3.742-3.567-7.849-6.031-10.458C212.98,5355.117,206.125,5353.7,200.528,5354.731Z" transform="translate(-122.086 -5297.289)" opacity="0.3" fill="url(#linear-gradient-9)" style="mix-blend-mode: multiply;isolation: isolate"/>
      <g id="Grupo_56670" data-name="Grupo 56670" transform="translate(67.345 9.511)">
        <g id="Grupo_56664" data-name="Grupo 56664" transform="translate(8.587 38.32)">
          <path id="Trazado_105742" data-name="Trazado 105742" d="M205.2,5344.071c0,.926-1.3,1.677-2.9,1.677s-2.9-.751-2.9-1.677,1.3-1.677,2.9-1.677S205.2,5343.145,205.2,5344.071Z" transform="translate(-199.39 -5342.394)" fill="#59829e"/>
          <path id="Trazado_105743" data-name="Trazado 105743" d="M199.39,5357.71c0,.926,1.3,1.677,2.9,1.677s2.9-.75,2.9-1.677v-13.147c0,.927-1.3,1.678-2.9,1.678s-2.9-.751-2.9-1.678Z" transform="translate(-199.39 -5342.886)" fill="#354d5e"/>
        </g>
        <g id="Grupo_56668" data-name="Grupo 56668" transform="translate(0 8.25)">
          <g id="Grupo_56665" data-name="Grupo 56665" transform="translate(0 21.788)">
            <ellipse id="Elipse_4129" data-name="Elipse 4129" cx="11.491" cy="6.634" rx="11.491" ry="6.634" transform="translate(0)" fill="#e5b767"/>
            <path id="Trazado_105744" data-name="Trazado 105744" d="M188.283,5346.435c0,3.663,5.145,6.634,11.491,6.634s11.491-2.971,11.491-6.634v-6.171c0,3.664-5.145,6.634-11.491,6.634s-11.491-2.97-11.491-6.634Z" transform="translate(-188.283 -5333.628)" fill="url(#linear-gradient-10)"/>
          </g>
          <path id="Trazado_105745" data-name="Trazado 105745" d="M205.888,5335.291l-10.744,6.382,8.117,4c5.414-.53,9.543-3.239,9.56-6.514Z" transform="translate(-189.839 -5310.712)" opacity="0.3" fill="url(#linear-gradient-11)" style="mix-blend-mode: multiply;isolation: isolate"/>
          <g id="Grupo_56666" data-name="Grupo 56666" transform="translate(2.729 6.432)">
            <ellipse id="Elipse_4130" data-name="Elipse 4130" cx="8.762" cy="5.059" rx="8.762" ry="5.059" fill="#59829e"/>
            <path id="Trazado_105746" data-name="Trazado 105746" d="M191.813,5334.251c0,2.793,3.923,5.059,8.762,5.059s8.763-2.266,8.763-5.059v-15.888c0,2.794-3.923,5.06-8.763,5.06s-8.762-2.266-8.762-5.06Z" transform="translate(-191.813 -5313.304)" fill="#fff"/>
          </g>
          <g id="Grupo_56667" data-name="Grupo 56667">
            <ellipse id="Elipse_4131" data-name="Elipse 4131" cx="11.491" cy="6.635" rx="11.491" ry="6.635" transform="translate(0)" fill="#e5b767"/>
            <ellipse id="Elipse_4132" data-name="Elipse 4132" cx="3.969" cy="2.291" rx="3.969" ry="2.291" transform="translate(7.523 4.343)" fill="url(#linear-gradient-12)"/>
            <path id="Trazado_105747" data-name="Trazado 105747" d="M188.283,5318.252c0,3.664,5.145,6.635,11.491,6.635s11.491-2.971,11.491-6.635v-6.17c0,3.664-5.145,6.634-11.491,6.634s-11.491-2.971-11.491-6.634Z" transform="translate(-188.283 -5305.448)" fill="url(#linear-gradient-13)"/>
          </g>
        </g>
        <path id="Trazado_105748" data-name="Trazado 105748" d="M212.823,5314.231l-8.043-4.643c-.67-.388-2.273-.058-3.581.734s-1.825,1.75-1.154,2.137l8.18,4.724A9.925,9.925,0,0,0,212.823,5314.231Z" transform="translate(-190.884 -5296.595)" opacity="0.3" fill="url(#linear-gradient-14)" style="mix-blend-mode: multiply;isolation: isolate"/>
        <g id="Grupo_56669" data-name="Grupo 56669" transform="translate(8.587)">
          <path id="Trazado_105749" data-name="Trazado 105749" d="M205.2,5294.507c0,.926-1.3,1.677-2.9,1.677s-2.9-.751-2.9-1.677,1.3-1.677,2.9-1.677S205.2,5293.581,205.2,5294.507Z" transform="translate(-199.39 -5292.83)" fill="#59829e"/>
          <path id="Trazado_105750" data-name="Trazado 105750" d="M199.39,5308.145c0,.927,1.3,1.677,2.9,1.677s2.9-.75,2.9-1.677V5295c0,.926-1.3,1.677-2.9,1.677s-2.9-.75-2.9-1.677Z" transform="translate(-199.39 -5293.322)" fill="#354d5e"/>
        </g>
      </g>
    </g>
    <g id="Grupo_56704" data-name="Grupo 56704" transform="translate(246.993 5398.505)">
      <g id="Grupo_56696" data-name="Grupo 56696" transform="translate(19.509 4.019)">
        <path id="Trazado_105751" data-name="Trazado 105751" d="M315.008,5438.963c2.547,4.081,14.292,25.45,15.818,28.977s-7.613,23.636-1.822,27.755l.842-.171c-5.791-4.12,3.349-24.228,1.822-27.755s-13.578-25.37-16.125-29.451l-.371.3Z" transform="translate(-315.008 -5438.318)" fill="#fff"/>
        <path id="Trazado_105752" data-name="Trazado 105752" d="M332.876,5512.5l1.194-.244.372.244-1.24.237Z" transform="translate(-319.061 -5455.091)" fill="#acc6d4"/>
        <g id="Grupo_56672" data-name="Grupo 56672" transform="translate(13.519 56.436)">
          <path id="Trazado_105753" data-name="Trazado 105753" d="M332.539,5511.472a.045.045,0,0,1-.006-.09l.522-.068a.042.042,0,0,1,.05.04.044.044,0,0,1-.039.049l-.521.069Z" transform="translate(-332.494 -5511.313)" fill="#152d3b"/>
        </g>
        <g id="Grupo_56673" data-name="Grupo 56673" transform="translate(12.597 54.371)">
          <path id="Trazado_105754" data-name="Trazado 105754" d="M331.346,5508.8a.045.045,0,0,1-.006-.09l.521-.068a.042.042,0,0,1,.051.038.046.046,0,0,1-.039.052l-.522.068Z" transform="translate(-331.301 -5508.642)" fill="#152d3b"/>
        </g>
        <g id="Grupo_56674" data-name="Grupo 56674" transform="translate(12.336 52.242)">
          <path id="Trazado_105755" data-name="Trazado 105755" d="M331.008,5506.047a.044.044,0,0,1-.044-.039.046.046,0,0,1,.039-.051l.521-.068a.043.043,0,0,1,.051.039.044.044,0,0,1-.039.05l-.522.069Z" transform="translate(-330.964 -5505.889)" fill="#152d3b"/>
        </g>
        <g id="Grupo_56675" data-name="Grupo 56675" transform="translate(12.39 50.314)">
          <path id="Trazado_105756" data-name="Trazado 105756" d="M331.078,5503.552a.044.044,0,0,1-.044-.039.046.046,0,0,1,.039-.051l.521-.068a.042.042,0,0,1,.05.039.046.046,0,0,1-.039.051l-.521.068Z" transform="translate(-331.034 -5503.394)" fill="#152d3b"/>
        </g>
        <g id="Grupo_56676" data-name="Grupo 56676" transform="translate(12.597 48.255)">
          <path id="Trazado_105757" data-name="Trazado 105757" d="M331.346,5500.89a.045.045,0,0,1-.006-.09l.521-.068a.043.043,0,0,1,.051.039.045.045,0,0,1-.039.05l-.522.069Z" transform="translate(-331.301 -5500.731)" fill="#152d3b"/>
        </g>
        <g id="Grupo_56677" data-name="Grupo 56677" transform="translate(12.958 46.005)">
          <path id="Trazado_105758" data-name="Trazado 105758" d="M331.812,5497.98a.044.044,0,0,1-.044-.039.044.044,0,0,1,.038-.051l.522-.069a.042.042,0,0,1,.05.039.044.044,0,0,1-.039.05l-.521.069Z" transform="translate(-331.767 -5497.821)" fill="#152d3b"/>
        </g>
        <g id="Grupo_56678" data-name="Grupo 56678" transform="translate(13.466 43.54)">
          <path id="Trazado_105759" data-name="Trazado 105759" d="M332.47,5494.792a.045.045,0,0,1-.045-.039.044.044,0,0,1,.039-.05l.521-.069a.043.043,0,0,1,.05.039.044.044,0,0,1-.039.05l-.521.069Z" transform="translate(-332.425 -5494.633)" fill="#152d3b"/>
        </g>
        <g id="Grupo_56679" data-name="Grupo 56679" transform="translate(14.086 40.971)">
          <path id="Trazado_105760" data-name="Trazado 105760" d="M333.271,5491.468a.045.045,0,0,1-.044-.04.044.044,0,0,1,.039-.05l.521-.068a.043.043,0,0,1,.051.039.044.044,0,0,1-.039.05l-.522.069Z" transform="translate(-333.226 -5491.31)" fill="#152d3b"/>
        </g>
        <g id="Grupo_56680" data-name="Grupo 56680" transform="translate(14.737 38.283)">
          <path id="Trazado_105761" data-name="Trazado 105761" d="M334.114,5487.992a.044.044,0,0,1-.044-.039.045.045,0,0,1,.039-.051l.521-.068a.041.041,0,0,1,.05.038.045.045,0,0,1-.039.051l-.521.069Z" transform="translate(-334.069 -5487.833)" fill="#152d3b"/>
        </g>
        <g id="Grupo_56681" data-name="Grupo 56681" transform="translate(15.533 35.058)">
          <path id="Trazado_105762" data-name="Trazado 105762" d="M335.143,5483.821a.046.046,0,0,1-.005-.091l.521-.067a.042.042,0,0,1,.05.038.044.044,0,0,1-.039.05l-.521.07Z" transform="translate(-335.098 -5483.663)" fill="#152d3b"/>
        </g>
        <g id="Grupo_56682" data-name="Grupo 56682" transform="translate(16.104 32.283)">
          <path id="Trazado_105763" data-name="Trazado 105763" d="M335.883,5480.231a.045.045,0,0,1-.045-.038.046.046,0,0,1,.039-.051l.521-.068a.042.042,0,0,1,.05.039.044.044,0,0,1-.039.05l-.521.068Z" transform="translate(-335.838 -5480.074)" fill="#152d3b"/>
        </g>
        <g id="Grupo_56683" data-name="Grupo 56683" transform="translate(16.148 29.559)">
          <path id="Trazado_105764" data-name="Trazado 105764" d="M335.94,5476.709a.045.045,0,0,1-.006-.089l.521-.069a.044.044,0,0,1,.051.039.045.045,0,0,1-.039.051l-.522.068Z" transform="translate(-335.895 -5476.55)" fill="#152d3b"/>
        </g>
        <g id="Grupo_56684" data-name="Grupo 56684" transform="translate(14.973 27.109)">
          <path id="Trazado_105765" data-name="Trazado 105765" d="M334.42,5473.539a.045.045,0,0,1-.045-.039.046.046,0,0,1,.039-.051l.521-.068a.042.042,0,0,1,.051.039.045.045,0,0,1-.039.05l-.522.069Z" transform="translate(-334.375 -5473.38)" fill="#152d3b"/>
        </g>
        <g id="Grupo_56685" data-name="Grupo 56685" transform="translate(13.852 24.948)">
          <path id="Trazado_105766" data-name="Trazado 105766" d="M332.97,5470.744a.046.046,0,0,1-.045-.04.044.044,0,0,1,.039-.05l.521-.07a.043.043,0,0,1,.05.04.046.046,0,0,1-.038.051l-.522.068Z" transform="translate(-332.925 -5470.584)" fill="#152d3b"/>
        </g>
        <g id="Grupo_56686" data-name="Grupo 56686" transform="translate(12.696 22.673)">
          <path id="Trazado_105767" data-name="Trazado 105767" d="M331.475,5467.8a.045.045,0,0,1-.045-.039.046.046,0,0,1,.039-.051l.522-.067a.041.041,0,0,1,.05.038.045.045,0,0,1-.039.051l-.521.068Z" transform="translate(-331.43 -5467.644)" fill="#152d3b"/>
        </g>
        <g id="Grupo_56687" data-name="Grupo 56687" transform="translate(11.436 20.433)">
          <path id="Trazado_105768" data-name="Trazado 105768" d="M329.844,5464.905a.045.045,0,0,1-.005-.089l.521-.068a.042.042,0,0,1,.05.039.044.044,0,0,1-.039.05l-.521.069Z" transform="translate(-329.799 -5464.747)" fill="#152d3b"/>
        </g>
        <g id="Grupo_56688" data-name="Grupo 56688" transform="translate(10.102 17.978)">
          <path id="Trazado_105769" data-name="Trazado 105769" d="M328.119,5461.728a.045.045,0,0,1-.045-.038.046.046,0,0,1,.039-.052l.521-.068a.043.043,0,0,1,.051.039.045.045,0,0,1-.039.051l-.521.068Z" transform="translate(-328.074 -5461.57)" fill="#152d3b"/>
        </g>
        <g id="Grupo_56689" data-name="Grupo 56689" transform="translate(8.783 15.538)">
          <path id="Trazado_105770" data-name="Trazado 105770" d="M326.413,5458.574a.045.045,0,0,1-.006-.09l.521-.068a.044.044,0,0,1,.051.039.046.046,0,0,1-.039.051l-.522.068Z" transform="translate(-326.368 -5458.415)" fill="#152d3b"/>
        </g>
        <g id="Grupo_56690" data-name="Grupo 56690" transform="translate(7.413 13.098)">
          <path id="Trazado_105771" data-name="Trazado 105771" d="M324.641,5455.418a.045.045,0,0,1-.044-.04.043.043,0,0,1,.039-.049l.521-.069a.043.043,0,0,1,.05.039.045.045,0,0,1-.039.051l-.521.068Z" transform="translate(-324.596 -5455.259)" fill="#152d3b"/>
        </g>
        <g id="Grupo_56691" data-name="Grupo 56691" transform="translate(6.234 10.839)">
          <path id="Trazado_105772" data-name="Trazado 105772" d="M323.116,5452.5a.046.046,0,0,1-.045-.04.044.044,0,0,1,.039-.05l.521-.069a.043.043,0,0,1,.051.039.045.045,0,0,1-.039.05l-.522.069Z" transform="translate(-323.071 -5452.337)" fill="#152d3b"/>
        </g>
        <g id="Grupo_56692" data-name="Grupo 56692" transform="translate(4.921 8.598)">
          <path id="Trazado_105773" data-name="Trazado 105773" d="M321.418,5449.6a.045.045,0,0,1-.006-.089l.521-.069a.043.043,0,0,1,.051.039.044.044,0,0,1-.039.05l-.521.069Z" transform="translate(-321.373 -5449.438)" fill="#152d3b"/>
        </g>
        <g id="Grupo_56693" data-name="Grupo 56693" transform="translate(3.672 6.348)">
          <path id="Trazado_105774" data-name="Trazado 105774" d="M319.8,5446.687a.045.045,0,0,1-.045-.038.046.046,0,0,1,.039-.052l.521-.068a.042.042,0,0,1,.05.039.044.044,0,0,1-.038.05l-.522.069Z" transform="translate(-319.758 -5446.529)" fill="#152d3b"/>
        </g>
        <g id="Grupo_56694" data-name="Grupo 56694" transform="translate(2.372 4.104)">
          <path id="Trazado_105775" data-name="Trazado 105775" d="M318.122,5443.787a.047.047,0,0,1-.045-.041.046.046,0,0,1,.039-.051l.522-.068a.043.043,0,0,1,.05.039.045.045,0,0,1-.039.051l-.521.069Z" transform="translate(-318.077 -5443.626)" fill="#152d3b"/>
        </g>
        <g id="Grupo_56695" data-name="Grupo 56695" transform="translate(1.087 1.859)">
          <path id="Trazado_105776" data-name="Trazado 105776" d="M316.46,5440.881a.045.045,0,0,1-.006-.089l.521-.069a.042.042,0,0,1,.05.04.043.043,0,0,1-.039.049l-.521.069Z" transform="translate(-316.415 -5440.723)" fill="#152d3b"/>
        </g>
      </g>
      <g id="Grupo_56697" data-name="Grupo 56697" transform="translate(1.728)">
        <path id="Trazado_105777" data-name="Trazado 105777" d="M292.4,5459.377c1.451,1.286,9.2-4.709,11.467-6.6a5.155,5.155,0,0,0,1.326-1.7l3.43-9.365-1.655-1.277-5.383,8.941S289.749,5457.031,292.4,5459.377Z" transform="translate(-292.01 -5434.778)" fill="#faa07f"/>
        <path id="Trazado_105778" data-name="Trazado 105778" d="M311.081,5439.121l.775-3.049,3.952-2.951s1.365,2.129-1.527,4.319c-.9,1.916-1.335,2.61-1.335,2.61Z" transform="translate(-296.337 -5433.12)" fill="#faa07f"/>
        <path id="Trazado_105779" data-name="Trazado 105779" d="M314.034,5439.707l-.51.037-.159,1.431,1.007-.165,2.439-1.25S316.76,5438.525,314.034,5439.707Z" transform="translate(-296.855 -5434.499)" fill="#faa07f"/>
      </g>
      <path id="Trazado_105780" data-name="Trazado 105780" d="M290.849,5463.883c-1.612-.8-1.24-2.324,0-3.943a13.344,13.344,0,0,1,4.746-3.559,4.06,4.06,0,0,1,3.3,3.945,5.162,5.162,0,0,1-2.132,1.94C294.32,5463.609,292.357,5464.632,290.849,5463.883Z" transform="translate(-289.775 -5438.396)" fill="#ce4761"/>
      <g id="Grupo_56702" data-name="Grupo 56702" transform="translate(2.427 45.573)">
        <g id="Grupo_56699" data-name="Grupo 56699">
          <g id="Grupo_56698" data-name="Grupo 56698" transform="translate(0 38.066)">
            <path id="Trazado_105781" data-name="Trazado 105781" d="M293.372,5541.759a3.358,3.358,0,0,0,.247,3.715c.473.137.656.031.71,0a1.567,1.567,0,0,1,1.727-1.476c1.007.07,2.39-1.513,2.132-2.374s-1.57.265-1.686.265a2.3,2.3,0,0,1-.934-.265A8.21,8.21,0,0,0,293.372,5541.759Z" transform="translate(-292.914 -5541.301)" fill="url(#linear-gradient-15)"/>
            <path id="Trazado_105782" data-name="Trazado 105782" d="M295.575,5544.8a5.615,5.615,0,0,0-1.222.27,1.046,1.046,0,0,1-1.4-.341,2.931,2.931,0,0,0,.676,1.521c.472.137.656.032.71,0a1.6,1.6,0,0,1,1.239-1.443Z" transform="translate(-292.922 -5542.079)" fill="#44181c"/>
            <path id="Trazado_105783" data-name="Trazado 105783" d="M295.045,5541.683a1.976,1.976,0,0,0,.6.42,3.961,3.961,0,0,0,1.734.136c.351-.127-.047-.2-.4-.271a2.3,2.3,0,0,1-.934-.265A2.5,2.5,0,0,0,295.045,5541.683Z" transform="translate(-293.398 -5541.378)" fill="#fff"/>
          </g>
          <path id="Trazado_105784" data-name="Trazado 105784" d="M297.948,5492.091c-4.286.8-6.163,12.782-1.215,20.917-3.849,3.279-2.957,9.746-3.227,17.581.472.787,2.215.345,2.463,0,1.2-5.042,2.735-8.354,4.7-16.284C300.528,5509.923,302.373,5491.269,297.948,5492.091Z" transform="translate(-293.048 -5492.065)" fill="#faa07f"/>
        </g>
        <g id="Grupo_56701" data-name="Grupo 56701" transform="translate(6.487 2.088)">
          <path id="Trazado_105785" data-name="Trazado 105785" d="M305.729,5544.847a3.014,3.014,0,0,0,.2,3.251.865.865,0,0,0,.8,0,1.339,1.339,0,0,1,.8-1.1c.726-.257,1.091.293,2.061.046,1.2-.3,2.3-1.111,2.343-1.94.044-.936-2.265.257-3.71-.435A2.356,2.356,0,0,0,305.729,5544.847Z" transform="translate(-302.221 -5506.025)" fill="url(#linear-gradient-16)"/>
          <path id="Trazado_105786" data-name="Trazado 105786" d="M310.677,5544.854a3.609,3.609,0,0,1-1.911-.186,2.611,2.611,0,0,0-1-.263,2.68,2.68,0,0,0,2.23.878C310.766,5545.206,311.439,5545.009,310.677,5544.854Z" transform="translate(-302.772 -5506.027)" fill="#fff"/>
          <g id="Grupo_56700" data-name="Grupo 56700" transform="translate(3.164 40.811)">
            <path id="Trazado_105787" data-name="Trazado 105787" d="M307.179,5547.728c-.309.1-1.566.369-1.782-.176a2.82,2.82,0,0,0,.542,1.262.865.865,0,0,0,.8,0,1.34,1.34,0,0,1,.8-1.1,1.2,1.2,0,0,1,.308-.063A2.051,2.051,0,0,0,307.179,5547.728Z" transform="translate(-305.397 -5547.552)" fill="#44181c"/>
            <path id="Trazado_105788" data-name="Trazado 105788" d="M308.913,5547.688h-.02l.02,0Z" transform="translate(-306.19 -5547.583)" fill="#762f32"/>
          </g>
          <path id="Trazado_105789" data-name="Trazado 105789" d="M304.386,5494.837c-4.152,1.329-4.51,13.455,1.421,20.9-3.407,3.737-1.709,10.04-.994,17.847a1.925,1.925,0,0,0,2.486-.18c.562-5.153,1.623-8.765,2.572-16.877C309.184,5512.2,308.673,5493.466,304.386,5494.837Z" transform="translate(-301.305 -5494.766)" fill="#ffb28e"/>
        </g>
      </g>
      <path id="Trazado_105790" data-name="Trazado 105790" d="M292.221,5493.44c-.107,1.409-1.333,17,.434,22.136,4.331,4.137,13.33,4.218,15.915.84.856-5.595-1.319-19.028-1.958-22.082S292.681,5487.386,292.221,5493.44Z" transform="translate(-290.214 -5446.081)" fill="#ffa6b7"/>
      <path id="Trazado_105791" data-name="Trazado 105791" d="M300.323,5459.531c-2.489-1.151-6.29-.577-7.448-.352-.751.146-4.719,4.183-.871,12.928s-.35,6.748-.35,14.292c1.886,3.625,11.012,6.138,14.948,1.5-.143-4.567-1.734-6.618-1.734-9.887s2.624-7.684,2.343-10.871S303.646,5461.067,300.323,5459.531Z" transform="translate(-289.905 -5438.954)" fill="#ea526f"/>
      <path id="Trazado_105792" data-name="Trazado 105792" d="M298.466,5453.42s-.363,4.13.29,5.313a2.856,2.856,0,0,0,3.62,1.335c1.757-1.055-.27-2.515,0-4.859S298.65,5452.3,298.466,5453.42Z" transform="translate(-291.724 -5437.598)" fill="#faa07f"/>
      <path id="Trazado_105793" data-name="Trazado 105793" d="M299.593,5439.136c-3.513,1.008-4.479,3.431-4.479,6.8s4.937,8.332,8.258,6.014c1.856-1.294,4.087-2.294,1.477-10.078A4.279,4.279,0,0,0,299.593,5439.136Z" transform="translate(-290.986 -5434.444)" fill="#ffb28e"/>
      <path id="Trazado_105794" data-name="Trazado 105794" d="M302.093,5445.476c1.874-1.117,2.811-1.96,3-3.084-.937-3.374-2.925-5.333-6.851-4.447s-9.64,4.651-5.426,14.328c3.093,4.364,9.385,2.864,11.815.709A35.941,35.941,0,0,0,302.093,5445.476Z" transform="translate(-290.128 -5434.167)" fill="#170f01"/>
      <path id="Trazado_105795" data-name="Trazado 105795" d="M303.965,5445.364a1.283,1.283,0,0,0-.235-.508s-.087-7.4-4.143-6.889C301.624,5435.707,306.964,5438.811,303.965,5445.364Z" transform="translate(-292.001 -5434.052)" fill="#fbeaaa"/>
      <g id="Grupo_56703" data-name="Grupo 56703" transform="translate(13.903 26.579)">
        <path id="Trazado_105796" data-name="Trazado 105796" d="M307.869,5468.03c-1.076,1.612,5.919,8.476,8.1,10.459a4.422,4.422,0,0,0,1.865,1.082c.87.271,11.629-3.233,11.629-3.233l-.98-1.583-9.875.565S309.832,5465.086,307.869,5468.03Z" transform="translate(-307.757 -5467.498)" fill="#ffb28e"/>
        <path id="Trazado_105797" data-name="Trazado 105797" d="M334.218,5475.948l.136-2.359s1-.092.83,2.354A9.39,9.39,0,0,1,334.218,5475.948Z" transform="translate(-313.76 -5468.879)" fill="#faa07f"/>
        <path id="Trazado_105798" data-name="Trazado 105798" d="M334.038,5475.851l1.893-2.5,3.865-1s1.366,2.255-2.141,3.181c-1.564,1.429-2.227,1.907-2.227,1.907Z" transform="translate(-313.719 -5468.599)" fill="#ffb28e"/>
      </g>
      <path id="Trazado_105799" data-name="Trazado 105799" d="M306.545,5466.629c.574-1.706,2.133-1.544,3.906-.533a13.321,13.321,0,0,1,4.172,4.217,4.06,4.06,0,0,1-3.458,3.806,5.157,5.157,0,0,1-2.214-1.849C307.288,5470.031,306.007,5468.225,306.545,5466.629Z" transform="translate(-293.551 -5440.429)" fill="#ce4761"/>
    </g>
    <g id="Grupo_56713" data-name="Grupo 56713" transform="translate(114.926 5423.029)">
      <g id="Grupo_56712" data-name="Grupo 56712">
        <g id="Grupo_56705" data-name="Grupo 56705" transform="translate(10.162)">
          <path id="Trazado_105800" data-name="Trazado 105800" d="M152.656,5491.1c-1.451,1.286-9.2-4.708-11.467-6.6a5.159,5.159,0,0,1-1.326-1.7l-3.43-9.365,1.655-1.278,5.383,8.94S155.3,5488.751,152.656,5491.1Z" transform="translate(-133.085 -5466.498)" fill="#faa07f"/>
          <path id="Trazado_105801" data-name="Trazado 105801" d="M137.364,5470.842l-.775-3.05-3.952-2.952s-1.366,2.13,1.527,4.319c.9,1.917,1.335,2.611,1.335,2.611Z" transform="translate(-132.151 -5464.84)" fill="#faa07f"/>
          <path id="Trazado_105802" data-name="Trazado 105802" d="M134.881,5471.428l.51.036.159,1.431-1.007-.165-2.44-1.249S132.155,5470.245,134.881,5471.428Z" transform="translate(-132.103 -5466.219)" fill="#faa07f"/>
        </g>
        <path id="Trazado_105803" data-name="Trazado 105803" d="M156.4,5495.6c1.612-.8,1.239-2.323,0-3.942a13.359,13.359,0,0,0-4.746-3.56,4.063,4.063,0,0,0-3.3,3.946,5.164,5.164,0,0,0,2.133,1.939C152.93,5495.33,154.893,5496.353,156.4,5495.6Z" transform="translate(-125.627 -5470.116)" fill="#ea526f"/>
        <g id="Grupo_56710" data-name="Grupo 56710" transform="translate(10.054 46.48)">
          <g id="Grupo_56707" data-name="Grupo 56707" transform="translate(12.894)">
            <g id="Grupo_56706" data-name="Grupo 56706" transform="translate(6.145 37.717)">
              <path id="Trazado_105804" data-name="Trazado 105804" d="M161.4,5573.761a3.359,3.359,0,0,1,.182,3.72c-.454.19-.648.105-.7.081a1.568,1.568,0,0,0-1.886-1.268c-.993.186-2.548-1.229-2.391-2.113s1.59.083,1.706.069a2.3,2.3,0,0,0,.9-.371A8.253,8.253,0,0,1,161.4,5573.761Z" transform="translate(-156.589 -5573.742)" fill="url(#linear-gradient-17)"/>
              <path id="Trazado_105805" data-name="Trazado 105805" d="M160.327,5576.9a5.628,5.628,0,0,1,1.245.128c.655.168,1.174-.033,1.354-.5a2.927,2.927,0,0,1-.5,1.589c-.454.191-.648.106-.7.082a1.6,1.6,0,0,0-1.4-1.291Z" transform="translate(-157.437 -5574.372)" fill="#44181c"/>
              <path id="Trazado_105806" data-name="Trazado 105806" d="M160.553,5573.746a1.988,1.988,0,0,1-.551.487,3.975,3.975,0,0,1-1.707.334c-.363-.087.024-.2.365-.315a2.287,2.287,0,0,0,.9-.371A2.5,2.5,0,0,1,160.553,5573.746Z" transform="translate(-156.943 -5573.743)" fill="#fff"/>
            </g>
            <path id="Trazado_105807" data-name="Trazado 105807" d="M150.763,5524.962c4.349.3,7.59,11.989,3.608,20.638,4.2,2.817,4.057,9.343,5.224,17.094-.379.836-2.16.6-2.448.279-1.775-4.869-3.676-7.985-6.534-15.636C150.248,5542.97,146.273,5524.653,150.763,5524.962Z" transform="translate(-148.641 -5524.958)" fill="#faa07f"/>
          </g>
          <g id="Grupo_56709" data-name="Grupo 56709" transform="translate(0 1.176)">
            <path id="Trazado_105808" data-name="Trazado 105808" d="M138.625,5574.282a3.013,3.013,0,0,1,.087,3.255.866.866,0,0,1-.793.069,1.337,1.337,0,0,0-.89-1.027c-.746-.194-1.062.385-2.05.225-1.227-.2-2.392-.906-2.5-1.728-.126-.929,2.278.058,3.658-.758A2.351,2.351,0,0,1,138.625,5574.282Z" transform="translate(-132.079 -5537.248)" fill="url(#linear-gradient-18)"/>
            <path id="Trazado_105809" data-name="Trazado 105809" d="M134.672,5574.677a3.612,3.612,0,0,0,1.887-.351,2.622,2.622,0,0,1,.969-.35,2.677,2.677,0,0,1-2.144,1.07C134.614,5575.036,133.927,5574.9,134.672,5574.677Z" transform="translate(-132.506 -5537.253)" fill="#fff"/>
            <g id="Grupo_56708" data-name="Grupo 56708" transform="translate(4.359 38.986)">
              <path id="Trazado_105810" data-name="Trazado 105810" d="M138.627,5577.233c.316.074,1.593.231,1.76-.329a2.808,2.808,0,0,1-.43,1.3.864.864,0,0,1-.793.069,1.339,1.339,0,0,0-.89-1.027,1.131,1.131,0,0,0-.313-.035A2.124,2.124,0,0,1,138.627,5577.233Z" transform="translate(-137.683 -5576.904)" fill="#44181c"/>
              <path id="Trazado_105811" data-name="Trazado 105811" d="M137.6,5577.347l.019,0-.02,0Z" transform="translate(-137.602 -5577.004)" fill="#762f32"/>
            </g>
            <path id="Trazado_105812" data-name="Trazado 105812" d="M141.761,5526.557c4.152,1.328,2.619,13.613-4.775,19.612,2.524,4.383,1.555,9.506,1.524,17.345a1.925,1.925,0,0,1-2.492.037c-.92-4.633-2.613-8.854-3.912-15.1a6.8,6.8,0,0,1,.191-3.488C134.174,5539.19,137.906,5525.323,141.761,5526.557Z" transform="translate(-131.964 -5526.479)" fill="#ffb28e"/>
          </g>
        </g>
        <path id="Trazado_105813" data-name="Trazado 105813" d="M151.391,5525.161c.107,1.408,2.869,15.338,1.626,20.629-1.856,2.4-6.768.063-11.154-.224-5.75-.376-11.13.99-11.474-2.111,1.426-5.477,5.973-14.346,6.611-17.4S150.931,5519.106,151.391,5525.161Z" transform="translate(-121.552 -5477.801)" fill="#ffa6b7"/>
        <path id="Trazado_105814" data-name="Trazado 105814" d="M144.65,5491.25c2.489-1.15,6.29-.576,7.448-.352.751.146,4.719,4.182.87,12.928s.351,6.748.351,14.291c-1.886,3.626-11.012,6.138-14.948,1.5.143-4.567,1.734-6.617,1.734-9.886s-2.624-7.685-2.343-10.872S141.326,5492.787,144.65,5491.25Z" transform="translate(-123.22 -5470.673)" fill="#ea526f"/>
        <path id="Trazado_105815" data-name="Trazado 105815" d="M150.07,5485.14s.363,4.13-.29,5.314a2.855,2.855,0,0,1-3.62,1.335c-1.757-1.055.27-2.515,0-4.859S149.886,5484.016,150.07,5485.14Z" transform="translate(-124.966 -5469.318)" fill="#faa07f"/>
        <path id="Trazado_105816" data-name="Trazado 105816" d="M147.128,5470.855c3.513,1.008,4.479,3.431,4.479,6.8s-4.937,8.332-8.258,6.015c-1.856-1.294-4.087-2.294-1.477-10.079A4.282,4.282,0,0,1,147.128,5470.855Z" transform="translate(-123.888 -5466.164)" fill="#ffb28e"/>
        <path id="Trazado_105817" data-name="Trazado 105817" d="M143.8,5477.2c-1.874-1.118-2.811-1.961-3-3.084.937-3.374,2.925-5.333,6.851-4.448s9.64,4.651,5.425,14.327c-3.093,4.365-9.385,2.866-11.815.709A35.924,35.924,0,0,1,143.8,5477.2Z" transform="translate(-123.914 -5465.887)" fill="#170f01"/>
        <path id="Trazado_105818" data-name="Trazado 105818" d="M144.414,5477.083a1.288,1.288,0,0,1,.234-.508s.088-7.406,4.144-6.889C146.756,5467.426,141.416,5470.53,144.414,5477.083Z" transform="translate(-124.531 -5465.772)" fill="#fbeaaa"/>
        <g id="Grupo_56711" data-name="Grupo 56711" transform="translate(0 6.061)">
          <path id="Trazado_105819" data-name="Trazado 105819" d="M136.245,5496.909c-1.049,1.631-10.134-2.043-12.825-3.255a4.659,4.659,0,0,1-1.575-1.1c-.663-.625-2.885-11.72-2.885-11.72l1.861.078,4.349,8.883S138.159,5493.933,136.245,5496.909Z" transform="translate(-118.96 -5474.529)" fill="#ffb28e"/>
          <path id="Trazado_105820" data-name="Trazado 105820" d="M121.614,5480.652l1.989-1.274s-.411-.92-2.458.43A9.358,9.358,0,0,0,121.614,5480.652Z" transform="translate(-119.456 -5474.13)" fill="#faa07f"/>
          <path id="Trazado_105821" data-name="Trazado 105821" d="M121.026,5479.415l1.256-2.878-1.028-3.857s-2.634-.085-1.723,3.425c-.479,2.064-.571,2.876-.571,2.876Z" transform="translate(-118.96 -5472.679)" fill="#ffb28e"/>
        </g>
        <path id="Trazado_105822" data-name="Trazado 105822" d="M140.526,5501.351c1.335-1.208,1.28-3.689-.963-4.961a17.647,17.647,0,0,0-5.833-1.7,4.061,4.061,0,0,0-2.108,4.69,9.726,9.726,0,0,0,2.769,1.972C137.906,5502.861,139.277,5502.48,140.526,5501.351Z" transform="translate(-121.804 -5471.61)" fill="#ea526f"/>
        <path id="Trazado_105823" data-name="Trazado 105823" d="M142.356,5540.39a88.248,88.248,0,0,0-4.425,8.377c1.708-.03,3.653-.108,5.642.022a39.761,39.761,0,0,1,5.111.858c.363-3.175.148-8.055,3-13.464a10.05,10.05,0,0,1-5.46,1.9C144.385,5538.293,143.251,5538.769,142.356,5540.39Z" transform="translate(-123.264 -5481.024)" opacity="0.3" fill="url(#linear-gradient-19)" style="mix-blend-mode: multiply;isolation: isolate"/>
      </g>
    </g>
  </g>
</svg>
