<svg xmlns="http://www.w3.org/2000/svg" xmlns:xlink="http://www.w3.org/1999/xlink" width="401.043" height="395.29" viewBox="0 0 401.043 395.29">
  <defs>
    <clipPath id="clip-path">
      <circle id="Elipse_4134" data-name="Elipse 4134" cx="175.718" cy="175.718" r="175.718" fill="none"/>
    </clipPath>
  </defs>
  <g id="Grupo_56744" data-name="Grupo 56744" transform="translate(-501.026 -199.642)">
    <g id="Grupo_56743" data-name="Grupo 56743" transform="translate(522.382 222.673)">
      <g id="Grupo_56742" data-name="Grupo 56742" transform="translate(0)" clip-path="url(#clip-path)">
        <circle id="Elipse_4133" data-name="Elipse 4133" cx="175.718" cy="175.718" r="175.718" fill="#fceade" opacity="0.3"/>
        <g id="Grupo_56728" data-name="Grupo 56728" transform="translate(294.168 132.855)" opacity="0.5" style="mix-blend-mode: multiply;isolation: isolate">
          <rect id="Rectángulo_5666" data-name="Rectángulo 5666" width="40.253" height="17.506" transform="translate(0 19.239)" fill="#ffcd91"/>
          <rect id="Rectángulo_5667" data-name="Rectángulo 5667" width="40.253" height="17.506" transform="translate(43.397 19.239)" fill="#ffcd91"/>
          <rect id="Rectángulo_5668" data-name="Rectángulo 5668" width="40.253" height="17.506" transform="translate(21.424 39.938)" fill="#ffcd91"/>
          <rect id="Rectángulo_5669" data-name="Rectángulo 5669" width="40.253" height="17.506" transform="translate(63.524)" fill="#ffcd91"/>
        </g>
        <g id="Grupo_56729" data-name="Grupo 56729" transform="translate(167.018 261.255)" opacity="0.5" style="mix-blend-mode: multiply;isolation: isolate">
          <rect id="Rectángulo_5670" data-name="Rectángulo 5670" width="40.253" height="17.506" transform="translate(103.776 36.745) rotate(180)" fill="#ffcd91"/>
          <rect id="Rectángulo_5671" data-name="Rectángulo 5671" width="40.253" height="17.506" transform="translate(60.379 36.745) rotate(180)" fill="#ffcd91"/>
          <rect id="Rectángulo_5672" data-name="Rectángulo 5672" width="40.253" height="17.506" transform="translate(82.353 57.444) rotate(180)" fill="#ffcd91"/>
          <rect id="Rectángulo_5673" data-name="Rectángulo 5673" width="40.253" height="17.506" transform="translate(40.253 17.506) rotate(180)" fill="#ffcd91"/>
        </g>
        <g id="Grupo_56730" data-name="Grupo 56730" transform="translate(-19.725 206.038)" opacity="0.5" style="mix-blend-mode: multiply;isolation: isolate">
          <rect id="Rectángulo_5674" data-name="Rectángulo 5674" width="40.253" height="17.506" transform="translate(0 19.239)" fill="#ffcd91"/>
          <rect id="Rectángulo_5675" data-name="Rectángulo 5675" width="40.253" height="17.506" transform="translate(43.397 19.239)" fill="#ffcd91"/>
          <rect id="Rectángulo_5676" data-name="Rectángulo 5676" width="40.253" height="17.506" transform="translate(21.424 39.938)" fill="#ffcd91"/>
          <rect id="Rectángulo_5677" data-name="Rectángulo 5677" width="40.253" height="17.506" transform="translate(63.524)" fill="#ffcd91"/>
        </g>
        <g id="Grupo_56731" data-name="Grupo 56731" transform="translate(96.686 11.648)">
          <rect id="Rectángulo_5678" data-name="Rectángulo 5678" width="100.126" height="131.115" transform="matrix(0.976, -0.22, 0.22, 0.976, 0, 22.022)" fill="#fff"/>
          <path id="Trazado_105824" data-name="Trazado 105824" d="M738.322,322.232l-13.345,3.009-13.346,3.009s-4.934,48.223-5.176,48.728,28.727-6.477,28.727-6.477,29.163-6.124,28.726-6.477S738.322,322.232,738.322,322.232Z" transform="translate(-662.462 -260.172)" fill="#ef798a"/>
          <path id="Trazado_105825" data-name="Trazado 105825" d="M728.968,267.806l-7.464,1.683-3.146,25.055-13.593-21.281-7.465,1.683-1.688,17.813,12.818,19.952,13.345-3.009,13.346-3.009,3.016-23.522Z" transform="translate(-660.166 -248.646)" fill="#ef798a"/>
          <rect id="Rectángulo_5679" data-name="Rectángulo 5679" width="85.782" height="2.099" transform="matrix(0.976, -0.22, 0.22, 0.976, 32.02, 128.099)" fill="#e5c3d1"/>
          <rect id="Rectángulo_5680" data-name="Rectángulo 5680" width="85.782" height="2.099" transform="matrix(0.976, -0.22, 0.22, 0.976, 32.947, 132.21)" fill="#e5c3d1"/>
          <rect id="Rectángulo_5681" data-name="Rectángulo 5681" width="85.782" height="2.099" transform="translate(33.873 136.321) rotate(-12.706)" fill="#e5c3d1"/>
          <rect id="Rectángulo_5682" data-name="Rectángulo 5682" width="14.693" height="16.589" transform="translate(16.24 49.196) rotate(-12.706)" fill="#e5c3d1"/>
          <rect id="Rectángulo_5683" data-name="Rectángulo 5683" width="11.32" height="12.781" transform="matrix(0.976, -0.22, 0.22, 0.976, 18.304, 50.682)" fill="#613f75"/>
          <rect id="Rectángulo_5684" data-name="Rectángulo 5684" width="19.832" height="22.391" transform="translate(83.843 50.108) rotate(-12.706)" fill="#613f75"/>
          <rect id="Rectángulo_5685" data-name="Rectángulo 5685" width="15.279" height="17.25" transform="matrix(0.976, -0.22, 0.22, 0.976, 86.629, 52.114)" fill="#f7a9a8"/>
          <path id="Trazado_105826" data-name="Trazado 105826" d="M683.149,322.349c-.1,3.247-.107,6.659,1.428,9.522s5.131,4.889,8.1,3.58a3.7,3.7,0,0,0,2.325-3.192,2.459,2.459,0,0,0-2.711-2.444,2.869,2.869,0,0,0-1.445.9c-2.05,2.194-1.655,5.752-.363,8.462a16.608,16.608,0,0,0,10.4,8.728,24.316,24.316,0,0,1-2.557-3.2,16.16,16.16,0,0,0,2.539,3.2l-5.168.854" transform="translate(-657.519 -260.197)" fill="none" stroke="#613f75" stroke-linecap="round" stroke-linejoin="round" stroke-width="0.958"/>
          <path id="Trazado_105827" data-name="Trazado 105827" d="M745.714,273.329c3.753-.829,7.759.759,10.523,3.431a22.412,22.412,0,0,1,5.507,9.983c1.079,3.689,1.631,7.51,2.528,11.248" transform="translate(-670.776 -249.769)" fill="none" stroke="#613f75" stroke-linecap="round" stroke-linejoin="round" stroke-width="0.958"/>
          <path id="Trazado_105828" data-name="Trazado 105828" d="M766.272,301.314a31.783,31.783,0,0,1,2.409,2.887,14.749,14.749,0,0,1,.913-3.166" transform="translate(-675.13 -255.683)" fill="none" stroke="#613f75" stroke-linecap="round" stroke-linejoin="round" stroke-width="0.958"/>
          <path id="Trazado_105829" data-name="Trazado 105829" d="M704.645,274.054l16.4,26.367,4.33-31.041-1.961.442-3.146,25.054L706.678,273.6Z" transform="translate(-662.079 -248.98)" fill="#eb3059"/>
          <path id="Trazado_105830" data-name="Trazado 105830" d="M739.63,322.232l-26.691,6.018-.31,3.02,28.577-6.443Z" transform="translate(-663.77 -260.172)" fill="#eb3059"/>
          <path id="Trazado_105831" data-name="Trazado 105831" d="M720.174,342.169l-2.844,37.3,2.527-.58Z" transform="translate(-664.765 -264.394)" fill="#ef798a" style="mix-blend-mode: multiply;isolation: isolate"/>
          <path id="Trazado_105832" data-name="Trazado 105832" d="M731.178,339.86l.556,36.533,1.724-.4Z" transform="translate(-667.698 -263.905)" fill="#ef798a" style="mix-blend-mode: multiply;isolation: isolate"/>
          <path id="Trazado_105833" data-name="Trazado 105833" d="M737.62,338.408l15.174,33.237-1.728.379Z" transform="translate(-669.062 -263.598)" fill="#ef798a" style="mix-blend-mode: multiply;isolation: isolate"/>
          <path id="Trazado_105834" data-name="Trazado 105834" d="M746.128,336.489l18.575,32.47-2.531.56Z" transform="translate(-670.864 -263.191)" fill="#ef798a" style="mix-blend-mode: multiply;isolation: isolate"/>
          <path id="Trazado_105835" data-name="Trazado 105835" d="M650.643,271.438l28.838,127.9,97.674-22.022L674.762,406.1Z" transform="translate(-650.643 -249.415)" fill="#f6e9ee" style="mix-blend-mode: multiply;isolation: isolate"/>
        </g>
        <g id="Grupo_56732" data-name="Grupo 56732" transform="translate(23.128 77.832)">
          <rect id="Rectángulo_5686" data-name="Rectángulo 5686" width="76.254" height="91.886" transform="translate(21.462 0) rotate(13.507)" fill="#fff"/>
          <rect id="Rectángulo_5687" data-name="Rectángulo 5687" width="13.545" height="13.545" transform="matrix(0.972, 0.234, -0.234, 0.972, 25.618, 8.162)" fill="#ef798a"/>
          <rect id="Rectángulo_5688" data-name="Rectángulo 5688" width="13.545" height="13.545" transform="translate(41.562 11.992) rotate(13.507)" fill="#f7a9a8"/>
          <rect id="Rectángulo_5689" data-name="Rectángulo 5689" width="13.545" height="13.545" transform="translate(57.505 15.822) rotate(13.507)" fill="#7d82b8"/>
          <rect id="Rectángulo_5690" data-name="Rectángulo 5690" width="13.545" height="13.545" transform="translate(73.448 19.652) rotate(13.507)" fill="#613f75"/>
          <rect id="Rectángulo_5691" data-name="Rectángulo 5691" width="13.545" height="13.545" transform="translate(21.747 24.279) rotate(13.507)" fill="#f7a9a8"/>
          <rect id="Rectángulo_5692" data-name="Rectángulo 5692" width="13.545" height="13.545" transform="matrix(0.972, 0.234, -0.234, 0.972, 37.69, 28.109)" fill="#f7a9a8"/>
          <rect id="Rectángulo_5693" data-name="Rectángulo 5693" width="13.545" height="13.545" transform="translate(53.634 31.939) rotate(13.507)" fill="#7d82b8"/>
          <rect id="Rectángulo_5694" data-name="Rectángulo 5694" width="13.545" height="13.545" transform="translate(69.577 35.768) rotate(13.507)" fill="#613f75"/>
          <rect id="Rectángulo_5695" data-name="Rectángulo 5695" width="13.545" height="13.545" transform="translate(17.875 40.396) rotate(13.507)" fill="#7d82b8"/>
          <rect id="Rectángulo_5696" data-name="Rectángulo 5696" width="13.545" height="13.545" transform="translate(33.819 44.226) rotate(13.507)" fill="#f7a9a8"/>
          <rect id="Rectángulo_5697" data-name="Rectángulo 5697" width="13.545" height="13.545" transform="matrix(0.972, 0.234, -0.234, 0.972, 49.762, 48.055)" fill="#7d82b8"/>
          <rect id="Rectángulo_5698" data-name="Rectángulo 5698" width="13.545" height="13.545" transform="translate(65.706 51.885) rotate(13.507)" fill="#613f75"/>
          <rect id="Rectángulo_5699" data-name="Rectángulo 5699" width="13.545" height="13.545" transform="translate(14.004 56.513) rotate(13.507)" fill="#613f75"/>
          <rect id="Rectángulo_5700" data-name="Rectángulo 5700" width="13.545" height="13.545" transform="translate(29.947 60.342) rotate(13.507)" fill="#f7a9a8"/>
          <rect id="Rectángulo_5701" data-name="Rectángulo 5701" width="13.545" height="13.545" transform="matrix(0.972, 0.234, -0.234, 0.972, 45.891, 64.172)" fill="#7d82b8"/>
          <rect id="Rectángulo_5702" data-name="Rectángulo 5702" width="13.545" height="13.545" transform="translate(61.834 68.002) rotate(13.507)" fill="#613f75"/>
          <rect id="Rectángulo_5703" data-name="Rectángulo 5703" width="13.545" height="13.545" transform="translate(10.133 72.629) rotate(13.507)" fill="#e5c3d1"/>
          <rect id="Rectángulo_5704" data-name="Rectángulo 5704" width="13.545" height="13.545" transform="translate(26.076 76.459) rotate(13.507)" fill="#f7a9a8"/>
          <rect id="Rectángulo_5705" data-name="Rectángulo 5705" width="13.545" height="13.545" transform="translate(42.019 80.289) rotate(13.507)" fill="#7d82b8"/>
          <rect id="Rectángulo_5706" data-name="Rectángulo 5706" width="13.545" height="13.545" transform="matrix(0.972, 0.234, -0.234, 0.972, 57.963, 84.119)" fill="#613f75"/>
        </g>
        <g id="Grupo_56735" data-name="Grupo 56735" transform="translate(170.809 40.109)">
          <path id="Trazado_105836" data-name="Trazado 105836" d="M750.908,538.329l104.058,21.383-10.1-50.521L796.415,496.06Z" transform="translate(-746 -325.446)" fill="#c6556c"/>
          <rect id="Rectángulo_5707" data-name="Rectángulo 5707" width="8.075" height="85.314" transform="translate(75.55 214.797)" fill="#613f75"/>
          <g id="Grupo_56734" data-name="Grupo 56734" transform="translate(25.075)">
            <path id="Trazado_105837" data-name="Trazado 105837" d="M792.017,348.818a30.765,30.765,0,0,0,.854-10.373,38.516,38.516,0,0,0-4.795-16.707,27.51,27.51,0,0,0-11.251-10.867c-.209.011-.332.016-.332.016v56.094l.108.19a53.174,53.174,0,0,0,5.424-3.947C786.576,359.416,790.414,354.53,792.017,348.818Z" transform="translate(-776.493 -286.228)" fill="#e5c3d1"/>
            <path id="Trazado_105838" data-name="Trazado 105838" d="M832.734,320.228c6.547,11.1,9.988,23.752,12.5,36.394a166.823,166.823,0,0,0,7.6-60.731,15.675,15.675,0,0,1-1.84-1.11c-4.607-3.252-4.607-15.175-4.607-15.175H816.846s-.271,12.465-6.775,18.155c-.132.116-.278.226-.42.337C819.326,302.737,827.243,310.916,832.734,320.228Z" transform="translate(-783.515 -279.607)" fill="#e5c3d1"/>
            <g id="Grupo_56733" data-name="Grupo 56733" transform="translate(0.108 16.285)">
              <path id="Trazado_105839" data-name="Trazado 105839" d="M830.916,403.8c8.083.273,16.243.132,24.154-1.557a53.369,53.369,0,0,0,11.176-3.664l5.392-35.3s9.755-13.007,8.942-19.24-25.743-40.918-25.743-40.918a24.706,24.706,0,0,1-4.587-.761,140.115,140.115,0,0,1-14.021,70.4c-1.9-14.1-4.779-28.263-11.119-41-5.6-11.239-14.172-21.344-25.182-27.21-7.518,3.576-20.843,4.4-23.074,4.515a27.509,27.509,0,0,1,11.251,10.867,38.515,38.515,0,0,1,4.795,16.707,30.774,30.774,0,0,1-.854,10.373c-1.6,5.712-5.441,10.6-9.992,14.406a53.173,53.173,0,0,1-5.424,3.947l15.9,27.916a47.51,47.51,0,0,0,16.938,7.889A99.174,99.174,0,0,0,830.916,403.8Z" transform="translate(-776.63 -300.711)" fill="#ef798a"/>
              <path id="Trazado_105840" data-name="Trazado 105840" d="M831.369,331.32c6.34,12.733,9.214,26.9,11.119,41a140.118,140.118,0,0,0,14.021-70.4,21.4,21.4,0,0,1-4.413-1.651A166.81,166.81,0,0,1,844.5,361c-2.509-12.642-5.949-25.292-12.5-36.394-5.491-9.312-13.408-17.491-23.083-22.129a14.746,14.746,0,0,1-2.731,1.636C817.2,309.976,825.774,320.081,831.369,331.32Z" transform="translate(-782.889 -300.267)" fill="#eb3059"/>
              <path id="Trazado_105841" data-name="Trazado 105841" d="M859.343,426.671c-7.911,1.688-16.07,1.83-24.154,1.557a99.176,99.176,0,0,1-21.444-2.626,47.507,47.507,0,0,1-16.937-7.889l4.677,8.211c8.708,5.836,19.45,8.533,29.992,9.524a77.013,77.013,0,0,0,26.009-1.527,52.327,52.327,0,0,0,12.076-4.658l.955-6.256A53.357,53.357,0,0,1,859.343,426.671Z" transform="translate(-780.903 -325.139)" fill="#eb3059"/>
              <path id="Trazado_105842" data-name="Trazado 105842" d="M832.734,437.654c-10.542-.992-21.284-3.688-29.992-9.524l1.669,2.93,37.8,18.076,28.516-17.059.093-.607a52.321,52.321,0,0,1-12.077,4.658A77.014,77.014,0,0,1,832.734,437.654Z" transform="translate(-782.16 -327.345)" fill="#ef798a"/>
            </g>
          </g>
          <path id="Trazado_105843" data-name="Trazado 105843" d="M792.116,431.847c1.669.8,17.463,8.332,35.093,7.69a93.41,93.41,0,0,0,31.222-6.673l30.12,112.918s-12.5,7.311-34.9.332a97.575,97.575,0,0,1-37.09-22l-10.836-11.619-9.838-1.64s-8.563,5.22-24.873,8.484a188.212,188.212,0,0,1-26.33,3.673Z" transform="translate(-744.681 -311.847)" fill="#ef798a"/>
          <path id="Trazado_105844" data-name="Trazado 105844" d="M882.924,454.146l25.717,99.162-4.243.454Z" transform="translate(-773.957 -316.569)" fill="#ef798a" style="mix-blend-mode: multiply;isolation: isolate"/>
          <path id="Trazado_105845" data-name="Trazado 105845" d="M880.6,551.874l-8.647-92.831,3.091,90.881Z" transform="translate(-771.634 -317.607)" fill="#ef798a" style="mix-blend-mode: multiply;isolation: isolate"/>
          <path id="Trazado_105846" data-name="Trazado 105846" d="M847.617,461.068,835.868,530.3l5.306,4.7Z" transform="translate(-763.992 -318.035)" fill="#ef798a" style="mix-blend-mode: multiply;isolation: isolate"/>
          <path id="Trazado_105847" data-name="Trazado 105847" d="M824.537,454.795c-.264,1.557-21.8,63.566-21.8,63.566l5.438-2.649Z" transform="translate(-756.977 -316.707)" fill="#ef798a" style="mix-blend-mode: multiply;isolation: isolate"/>
          <path id="Trazado_105848" data-name="Trazado 105848" d="M806.641,446.409l-36.947,77.245,6.614-1.234Z" transform="translate(-749.978 -314.931)" fill="#ef798a" style="mix-blend-mode: multiply;isolation: isolate"/>
        </g>
        <path id="Trazado_105849" data-name="Trazado 105849" d="M848.316,279.607s-3.069,7.45-13.839,7.381-15.7-7.381-15.7-7.381Z" transform="translate(-589.563 -239.498)" fill="#d2aad1"/>
        <g id="Grupo_56741" data-name="Grupo 56741" transform="translate(32.163 93.46)">
          <g id="Grupo_56737" data-name="Grupo 56737" transform="translate(80.266 55.555)">
            <path id="Trazado_105850" data-name="Trazado 105850" d="M670.616,487.487l44.209,26.9,34.619-55.671s-5.146-15.438,0-23.157,16.14-13.333,17.543-12.865,1.17,5.614,0,7.719.967,3.509.967,3.509,11.407-7.27,13.331-5.466,1.924,7.575.721,8.537-2.886,2.4-2.886,2.4,4.69,2.4,4.57,7.335-.6,12.865-3.607,14.068-13.707.841-13.707.841L730.8,538.368l-42.374-1.741Z" transform="translate(-670.616 -418.808)" fill="#f7a9a8"/>
            <path id="Trazado_105851" data-name="Trazado 105851" d="M789.859,433.137a7.407,7.407,0,0,1-3.2,3.484.988.988,0,0,0-.5.439.962.962,0,0,0,.089.673,12.544,12.544,0,0,1-6.218,15.764" transform="translate(-693.786 -421.025)" fill="none" stroke="#613f75" stroke-miterlimit="10" stroke-width="0.958"/>
            <path id="Trazado_105852" data-name="Trazado 105852" d="M793.71,436.8a4.085,4.085,0,0,0,.391,6.9,5.812,5.812,0,0,0,2.343.637c2.992.253,5.924-.839,8.673-2.048" transform="translate(-696.32 -421.801)" fill="none" stroke="#613f75" stroke-miterlimit="10" stroke-width="0.958"/>
            <path id="Trazado_105853" data-name="Trazado 105853" d="M793.265,445.608a6.917,6.917,0,0,0-4.59,4.148,15.909,15.909,0,0,0-1.025,6.3,19.669,19.669,0,0,0,.631,5.6,9.1,9.1,0,0,0,3,4.685" transform="translate(-695.401 -423.666)" fill="none" stroke="#613f75" stroke-miterlimit="10" stroke-width="0.958"/>
            <path id="Trazado_105854" data-name="Trazado 105854" d="M787.8,453.543a176.35,176.35,0,0,1,20.5-4.6" transform="translate(-695.432 -424.372)" fill="none" stroke="#613f75" stroke-miterlimit="10" stroke-width="0.958"/>
            <path id="Trazado_105855" data-name="Trazado 105855" d="M787.781,462.83a91.08,91.08,0,0,0,20.105-1.762" transform="translate(-695.428 -426.94)" fill="none" stroke="#613f75" stroke-miterlimit="10" stroke-width="0.958"/>
            <g id="Grupo_56736" data-name="Grupo 56736" transform="translate(94.319)">
              <path id="Trazado_105856" data-name="Trazado 105856" d="M794.671,434.045a2.2,2.2,0,1,1-2.2-2.2A2.2,2.2,0,0,1,794.671,434.045Z" transform="translate(-790.275 -420.752)" fill="#613f75"/>
              <line id="Línea_185" data-name="Línea 185" x1="18.596" y2="13.293" transform="translate(2.198)" fill="none" stroke="#5c3b75" stroke-miterlimit="10" stroke-width="0.958"/>
            </g>
          </g>
          <path id="Trazado_105857" data-name="Trazado 105857" d="M626.384,459.474a54.055,54.055,0,0,0,30.175,11.63,45.809,45.809,0,0,1-3.239-20.138c4.213-.059,8.425.542,12.632.312s8.585-1.424,11.511-4.457a23,23,0,0,0,4.034-6.78c.7-1.553,1.254-3.091,1.95-4.643a22.791,22.791,0,0,1-7.484-12.745,21.632,21.632,0,0,0,8.882,7.71l.511-8.344,7.326-3.492-8.8-19.353s2.56-7.358-1.919-18.714-43.185-7.357-43.185-7.357c-6.854,2.585-12.079,8.818-14.648,15.677s-2.887,14.365-2.406,21.673a104.731,104.731,0,0,0,2.325,16.1c.886,3.94,2,7.836,2.55,11.838A83.387,83.387,0,0,1,626.384,459.474Z" transform="translate(-579.957 -352.613)" fill="#f7a9a8"/>
          <path id="Trazado_105858" data-name="Trazado 105858" d="M690.6,412.969c-.282,1.871-1.295,3.269-2.263,3.123s-1.523-1.781-1.241-3.651,1.3-3.269,2.263-3.123S690.886,411.1,690.6,412.969Z" transform="translate(-593.825 -360.424)" fill="#613f75"/>
          <path id="Trazado_105859" data-name="Trazado 105859" d="M680.741,405.528a9.2,9.2,0,0,1,9.833-6.817" transform="translate(-592.494 -358.171)" fill="none" stroke="#604075" stroke-miterlimit="10" stroke-width="2.874"/>
          <path id="Trazado_105860" data-name="Trazado 105860" d="M642.109,413.592a3.613,3.613,0,0,1,4.331-1.7,5.523,5.523,0,0,1,3.335,3.6,12.289,12.289,0,0,1,.355,5.046,14.451,14.451,0,0,0-2.27,1.388,3.1,3.1,0,0,0-.815.8,2.355,2.355,0,0,0,.354,2.625,6.9,6.9,0,0,0,2.291,1.617" transform="translate(-584.313 -360.935)" fill="none" stroke="#513570" stroke-miterlimit="10" stroke-width="0.958"/>
          <path id="Trazado_105861" data-name="Trazado 105861" d="M690.066,429.457c0,1.55-1.975,2.808-4.412,2.808s-4.413-1.257-4.413-2.808,1.976-2.808,4.413-2.808S690.066,427.906,690.066,429.457Z" transform="translate(-592.6 -364.097)" fill="#f7a9a8" opacity="0.5" style="mix-blend-mode: multiply;isolation: isolate"/>
          <g id="Grupo_56738" data-name="Grupo 56738" transform="translate(26.756 103.377)">
            <path id="Trazado_105862" data-name="Trazado 105862" d="M616.5,537.321a128.466,128.466,0,0,1-2.507-35.281c-5.31,12.218-11.092,27.678-11.254,37.391-.3,18.058,12.557,68.022,12.557,68.022l31.269,25.926,14.575,2.559c-10.889-14.425-19.289-30.678-26.767-47.176C626.858,572.194,620.145,555.142,616.5,537.321Z" transform="translate(-602.729 -483.439)" fill="#7ac4e2"/>
            <path id="Trazado_105863" data-name="Trazado 105863" d="M683.1,577.417l4.153-18.687s7.739-21.9,5.474-29.258-18.121-16.044-27.181-24.916-12.758-20.731-12.758-20.731a37.107,37.107,0,0,1-12.216-.47,89.515,89.515,0,0,1-14.865-4.912s-4.215,8.1-8.777,18.6a128.458,128.458,0,0,0,2.507,35.281c3.649,17.821,10.362,34.873,17.872,51.441,7.479,16.5,15.878,32.751,26.767,47.176l34.88,6.124Z" transform="translate(-605.669 -478.442)" fill="#39a4ce"/>
          </g>
          <path id="Trazado_105864" data-name="Trazado 105864" d="M635.516,509.249c9.623-9.943,34.9,12.648,44.737,26.7s32.791,43.331,32.791,43.331L764.1,542.274s-.234-6.793,1.874-10.306a16.746,16.746,0,0,1,5.387-5.387l9.838,1.64c.236.206.152-.107.331-.365,4.495-6.468,5.84-14.893,11.093-20.762.531-.593,1.308-1.2,2.042-.9.655.274.833,1.112.845,1.822a18.319,18.319,0,0,1-.961,5.406,105.987,105.987,0,0,1-7.481,18.71A101.5,101.5,0,0,0,797.545,516.2c1.2-2.329,2.356-4.761,4.269-6.553a1.3,1.3,0,0,1,1.141-.475,1.137,1.137,0,0,1,.6.506c.98,1.458.651,3.4.207,5.1a58.991,58.991,0,0,1-10.078,20.744,81.074,81.074,0,0,0,12.071-16.22,12.521,12.521,0,0,1,3.429-4.528c.523-.36,1.266-.62,1.755-.217a1.529,1.529,0,0,1,.435,1.073,12.916,12.916,0,0,1-1.435,6.23A69.3,69.3,0,0,1,801.4,536.38a4.633,4.633,0,0,1-2.507,1.991c5.078-1.075,7.293-7.174,12.233-8.767.589,1,.195,2.277-.265,3.346a34.871,34.871,0,0,1-35.83,20.9s-16.344,21-27.346,31.439S712.7,611.669,712.7,611.669s-47.355-37.679-62.486-55.01C634.7,538.886,619.968,525.313,635.516,509.249Z" transform="translate(-581.516 -380.926)" fill="#f7a9a8"/>
          <path id="Trazado_105865" data-name="Trazado 105865" d="M723.369,608.8a63.678,63.678,0,0,1,10.69-10.877" transform="translate(-601.522 -400.368)" fill="none" stroke="#613f75" stroke-miterlimit="10" stroke-width="0.958"/>
          <path id="Trazado_105866" data-name="Trazado 105866" d="M649.559,426.973a6.9,6.9,0,0,1-2.291-1.617,2.354,2.354,0,0,1-.354-2.625,3.1,3.1,0,0,1,.815-.8,14.463,14.463,0,0,1,2.27-1.388,12.289,12.289,0,0,0-.355-5.046,5.523,5.523,0,0,0-3.335-3.6,3.613,3.613,0,0,0-4.331,1.7,13.483,13.483,0,0,0,1.067,9.895C645.734,428.784,649.559,426.973,649.559,426.973Z" transform="translate(-584.182 -360.935)" fill="#f7a9a8" opacity="0.5" style="mix-blend-mode: multiply;isolation: isolate"/>
          <g id="Grupo_56739" data-name="Grupo 56739" transform="translate(64.362 91.322)" opacity="0.5" style="mix-blend-mode: multiply;isolation: isolate">
            <path id="Trazado_105867" data-name="Trazado 105867" d="M650.439,463.148a56.361,56.361,0,0,0,8.911,10.175c0-1.049.018-2.1.09-3.144,4.213-.059,8.425.542,12.632.312s8.585-1.424,11.511-4.457a12.515,12.515,0,0,0,.822-.958c-2.755,1.993-6.448,2.553-9.915,2.668A55.8,55.8,0,0,1,650.439,463.148Z" transform="translate(-650.439 -463.148)" fill="#f7a9a8"/>
          </g>
          <g id="Grupo_56740" data-name="Grupo 56740">
            <path id="Trazado_105868" data-name="Trazado 105868" d="M629.012,431.8a35.117,35.117,0,0,1-6.81-3.641,5.323,5.323,0,0,1-1.672-1.418,5.208,5.208,0,0,1-.654-1.87q-.817-3.912-1.4-7.868a44.286,44.286,0,0,0-4.486,8.794q.8-16.205,1.6-32.411-5.563,14.724-11.125,29.447c-.849,2.246-1.939,4.742-4.193,5.57a59.7,59.7,0,0,1,1.094-12.821,344.569,344.569,0,0,1,9.52-41.523c-8.021,16.645-17.248,32.676-26.466,48.689,4.894-13.242,7.278-27.267,11.363-40.781a264.106,264.106,0,0,1,10.844-28.588,23.971,23.971,0,0,0-3.837,3.415c-3.659,3.874-34.008,76.2-34.008,76.2l45.889,14.227,2.673-12.16.948,13.282,1.927.6.978-9.078,1.2,9.753,17.2,5.332-1.3-22.463A17.7,17.7,0,0,1,629.012,431.8Z" transform="translate(-568.785 -348.58)" fill="#523669"/>
            <path id="Trazado_105869" data-name="Trazado 105869" d="M679.062,375.043a27.29,27.29,0,0,1,1.474,11.7,16.054,16.054,0,0,0,2.731-7.442,19.659,19.659,0,0,0-.649-7,25.591,25.591,0,0,0-9.526-13.959,25.031,25.031,0,0,0-4.409-2.575c-4.383-.062-8.094.16-8.094.16s-15.067-9.255-30.349-8.61c-10.608.449-15.925,2.349-19.409,4.765a264.075,264.075,0,0,0-10.843,28.588c-4.085,13.513-6.469,27.538-11.363,40.781,9.218-16.013,18.445-32.044,26.466-48.689a344.564,344.564,0,0,0-9.519,41.523,59.681,59.681,0,0,0-1.094,12.821c2.254-.828,3.344-3.324,4.193-5.57q5.562-14.724,11.125-29.447-.8,16.205-1.6,32.411a44.3,44.3,0,0,1,4.486-8.794q.582,3.954,1.4,7.868a5.209,5.209,0,0,0,.653,1.87,5.322,5.322,0,0,0,1.672,1.418,35.109,35.109,0,0,0,6.81,3.641,17.7,17.7,0,0,0,9.288.681l-.853-14.749s-10.773,2.689-13.489-7.383,3.281-16.974,9.166-14.71,5.205,11.542,5.205,11.542A23.12,23.12,0,0,0,652.715,392.2a85.087,85.087,0,0,0,2.064-20.122s19.613-.884,21.094,5.494a50,50,0,0,1,1.012,8.6A15.247,15.247,0,0,0,679.062,375.043Z" transform="translate(-572.986 -347.291)" fill="#613f75"/>
            <path id="Trazado_105870" data-name="Trazado 105870" d="M703.623,360.365c-1.993-1.758-8.193-2.239-13.431-2.313a25.025,25.025,0,0,1,4.409,2.575,25.59,25.59,0,0,1,9.526,13.959,19.663,19.663,0,0,1,.65,7,16.055,16.055,0,0,1-2.731,7.442,27.292,27.292,0,0,0-1.474-11.7,15.247,15.247,0,0,1-2.178,11.123c.186,4.182.032,7.688.032,7.688s11.87-8.432,12.731-14.889S707.282,363.593,703.623,360.365Z" transform="translate(-594.496 -349.57)" fill="#523669"/>
          </g>
        </g>
        <path id="Trazado_105871" data-name="Trazado 105871" d="M658.359,433.858a3.078,3.078,0,1,1-3.078-3.078A3.078,3.078,0,0,1,658.359,433.858Z" transform="translate(-554.287 -271.512)" fill="#fff"/>
        <path id="Trazado_105872" data-name="Trazado 105872" d="M654.179,438.591a7.181,7.181,0,1,0,7.181,7.181A7.181,7.181,0,0,0,654.179,438.591Zm0,12.772a5.592,5.592,0,1,1,5.593-5.592A5.592,5.592,0,0,1,654.179,451.363Z" transform="translate(-553.185 -273.166)" fill="#fff"/>
      </g>
    </g>
    <ellipse id="Elipse_4135" data-name="Elipse 4135" cx="173.205" cy="169.618" rx="173.205" ry="169.618" transform="matrix(0.111, -0.994, 0.994, 0.111, 501.543, 544.413)" fill="none" stroke="#ffa06d" stroke-miterlimit="10" stroke-width="0.934" stroke-dasharray="2.803"/>
    <ellipse id="Elipse_4136" data-name="Elipse 4136" cx="172.365" cy="177.11" rx="172.365" ry="177.11" transform="translate(511.128 554.949) rotate(-83.605)" fill="none" stroke="#b16040" stroke-miterlimit="10" stroke-width="0.952" stroke-dasharray="2.857" opacity="0.4"/>
  </g>
</svg>
