<svg xmlns="http://www.w3.org/2000/svg" width="1326.811" height="771.652" viewBox="0 0 1326.811 771.652">
  <g id="Grupo_56862" data-name="Grupo 56862" transform="translate(-137 -796)">
    <rect id="background" width="1326.811" height="771.652" transform="translate(137 796)" fill="#ffe8de"/>
    <g id="Grupo_54138" data-name="Grupo 54138" transform="translate(90.076 -333.997)">
      <g id="Grupo_54125" data-name="Grupo 54125" transform="translate(158.306 1192.368)">
        <rect id="Rectángulo_5534" data-name="Rectángulo 5534" width="217.317" height="56.477" rx="8.337" fill="#ffcad7"/>
        <rect id="Rectángulo_5535" data-name="Rectángulo 5535" width="218.823" height="56.477" rx="8.337" fill="none" stroke="#ea526f" stroke-miterlimit="10" stroke-width="4"/>
      </g>
      <g id="Grupo_54133" data-name="Grupo 54133" transform="translate(103.616 1281.294)">
        <g id="Grupo_54126" data-name="Grupo 54126" transform="translate(477.709 42.125)">
          <rect id="Rectángulo_5431" data-name="Rectángulo 5431" width="18.137" height="35.471" transform="translate(96.983 81.326) rotate(180)" fill="#f8a9a3"/>
          <path id="Trazado_101113" data-name="Trazado 101113" d="M621.594,1370.032c2.645.45,5.335,2.266,8.051,2.294,2.266.022,4.532-.036,6.8-.12,1.078-.041,2.2-2.064,3.29-2.174v9.054a29.258,29.258,0,0,1-7,1.121c-.661.086-1.308.145-1.927.181a26.061,26.061,0,0,1-9.21-1.134Z" transform="translate(-542.748 -1310.187)" fill="#ed8e87"/>
          <path id="Trazado_101114" data-name="Trazado 101114" d="M643.1,1358.25a67,67,0,0,0,2.254-14.365,1.207,1.207,0,0,1,1.691-1.073,10.343,10.343,0,0,0-1.374-2.829c-.881-1.274,1.192-2.465,2.071-1.21,4.973,7.107.422,16.072-2.163,23.185-.437,1.2-2.449,1.128-2.373-.321.04-.754.107-1.505.194-2.253A1.1,1.1,0,0,1,643.1,1358.25Z" transform="translate(-541.15 -1312.554)" fill="#28282b"/>
          <path id="Trazado_101115" data-name="Trazado 101115" d="M614.326,1360.183c.523,1.132,2.313.482,2.271-.6.443,1.026,2.452.654,2.291-.582-.305-2.347-1.409-4.46-2.011-6.741a30.913,30.913,0,0,1-.974-8.131,1.132,1.132,0,0,0-1.02-1.16c.186-.58.393-1.163.639-1.747.529-1.255-1.658-2.156-2.192-.924C610.394,1347.08,611.3,1353.625,614.326,1360.183Zm2.153-1.093a20.823,20.823,0,0,1-.886-3.23A19.019,19.019,0,0,1,616.48,1359.09Z" transform="translate(-543.498 -1312.445)" fill="#28282b"/>
          <path id="Trazado_101116" data-name="Trazado 101116" d="M731.567,1518.735c-.214-2.239-.577-4.666-2.237-6.325-1.969-1.97-5.127-1.556-7.182-3.183-.2-.267-.4-.538-.593-.821-11.671-19.6-19.762-38.869-33.256-59.269-1.824-2.757-11.414,12.459-10.61,13.71,11,17.129,24.151,34.45,35.188,51.268.755,1.319,3.365,5.357,5.786,8.62,2.75,3.707,5.775,3.465,6.886,3.125,1.89-.578,6.575-3.107,6.556-5.3A3.836,3.836,0,0,0,731.567,1518.735Z" transform="translate(-538.574 -1304.32)" fill="#f8a9a3"/>
          <path id="Trazado_101117" data-name="Trazado 101117" d="M548.44,1319.915c-.3,2.23-.5,4.676.741,6.668,1.471,2.365,4.64,2.68,6.272,4.731.135.305.268.615.391.934,6.915,21.736,4.247,14.761,12.757,37.693,1.15,3.1,8.3-12.367,7.8-13.768-6.82-19.179-3.883-8.628-10.811-27.512-.436-1.458-2.061-5.983-3.677-9.71-1.836-4.234-4.838-4.686-6-4.607-1.973.134-7.109,1.533-7.59,3.674A3.824,3.824,0,0,0,548.44,1319.915Z" transform="translate(-548.214 -1314.335)" fill="#f8a9a3"/>
          <path id="Trazado_101118" data-name="Trazado 101118" d="M612.126,1354.61a2.021,2.021,0,0,1,2.334-1.879c1.469.2,2.029,1.532,2.561,2.742a1.305,1.305,0,0,1-.7,1.722,1.153,1.153,0,0,1-.044.175,22.3,22.3,0,0,0,1.194,4.239c.477,1.228-1.2,1.885-2.023,1.178A10.113,10.113,0,0,1,612.126,1354.61Z" transform="translate(-543.457 -1311.477)" fill="#ed8e87"/>
          <path id="Trazado_101119" data-name="Trazado 101119" d="M648.354,1355.169a2.02,2.02,0,0,0-2.333-1.879c-1.47.2-2.03,1.532-2.562,2.742a1.305,1.305,0,0,0,.7,1.722,1.16,1.16,0,0,0,.044.175,22.217,22.217,0,0,1-1.193,4.239c-.478,1.228,1.2,1.883,2.022,1.177A10.109,10.109,0,0,0,648.354,1355.169Z" transform="translate(-541.16 -1311.435)" fill="#ed8e87"/>
          <path id="Trazado_101120" data-name="Trazado 101120" d="M612.788,1680.974l1.738-35.033h-12.65v33.552a34.127,34.127,0,0,0-1.207,4.809,4.663,4.663,0,0,0,2.184,2.2,3.375,3.375,0,0,0,1.771.433c.626,2.458,2.039,4.3,5.439,4.1,3.115-.179,4.734-.856,4.142-3.768C613.754,1685.036,613.019,1683.149,612.788,1680.974Z" transform="translate(-544.307 -1289.638)" fill="#f8a9a3"/>
          <path id="Trazado_101121" data-name="Trazado 101121" d="M611.727,1683.632a6.273,6.273,0,0,1-3.929-1.256,11.122,11.122,0,0,1-2.435-3.055c-.936-1.365-2.217-2.469-3.769-.935-.079.078-.178,4.035-7.469,7.165-2.707,1.16-5.527,2.353-6.717,5.237-.776,1.88-.676,3.518,2.051,3.993a16.246,16.246,0,0,0,4.432.077l6.389-.8c3.817-.479,7.637-.933,11.452-1.437,3.464-.459,4.08-2.031,4.2-5.344q.055-1.491.025-2.983a1.368,1.368,0,0,0-1.86-1.251A7.054,7.054,0,0,1,611.727,1683.632Z" transform="translate(-545.326 -1287.277)" fill="#28282b"/>
          <path id="Trazado_101122" data-name="Trazado 101122" d="M620.048,1336.108c4.3-4.379,10.744-4.72,16.768-3.2,7.341,1.851,11.2,12.88,11.219,13.692a54.971,54.971,0,0,1-3.537,20.574c-2.087,5.36-7.035,10.712-13.063,11.77-3.6.633-8.229-2.969-11.551-7.687a30.859,30.859,0,0,1-5.588-17.418C614.3,1347.364,615.336,1340.905,620.048,1336.108Z" transform="translate(-543.292 -1313.013)" fill="#f8a9a3"/>
          <path id="Trazado_101123" data-name="Trazado 101123" d="M640.549,1680.006l-1.74-35.034h12.65v33.552a33.954,33.954,0,0,1,1.207,4.81,4.661,4.661,0,0,1-2.184,2.2,3.379,3.379,0,0,1-1.77.433c-.628,2.458-2.039,4.3-5.439,4.1-3.116-.181-4.734-.856-4.143-3.768C639.583,1684.068,640.318,1682.181,640.549,1680.006Z" transform="translate(-541.466 -1289.71)" fill="#f8a9a3"/>
          <path id="Trazado_101124" data-name="Trazado 101124" d="M629.961,1529.221c.648-1.693,2.028-2.866,3.783-2.359a3.584,3.584,0,0,1,2.265,2.742c.084.013.167.024.251.043,4.416.994,9.028-2.6,13.011-5.018a2.908,2.908,0,0,1,2.771-2.021c.059-.476.124-.951.2-1.424.5-2.929,4.32-3.167,5.6-.847.4-.184.8-.369,1.194-.55.3-.963.641-1.909,1.03-2.833a2.989,2.989,0,0,1,3.478-1.554,2.82,2.82,0,0,1,1.555,1.172,4.961,4.961,0,0,1,1.307-.524q-.4-7.227-1.073-14.44c-.407-4.3,5.356-1.46,5.766,2.8.9,9.332,8,155,4.688,155.972-4.041,1.179-41.732,3.965-42.016,1.6-.363-3.01-3.848-108.77-3.938-115.289C629.758,1540.821,627.859,1534.717,629.961,1529.221Z" transform="translate(-542.199 -1300.547)" fill="#ffd9d9"/>
          <path id="Trazado_101125" data-name="Trazado 101125" d="M580.243,1656.86c.1,3.656,44.84,7.458,45.125,5.094.363-3.01,9.771-121.55,9.862-128.069.082-5.875-5.861,1.483-7.964-4.014-.648-1.693-2.029-2.866-3.783-2.357a3.587,3.587,0,0,0-2.266,2.742c-.083.013-.165.024-.25.043-4.416.994-9.028-2.6-13.011-5.019a2.906,2.906,0,0,0-2.771-2.02c-.059-.476-.124-.951-.2-1.425-.5-2.929-4.32-3.166-5.6-.846-.4-.184-.8-.369-1.193-.55-.3-.963-.642-1.909-1.031-2.833a2.408,2.408,0,0,0-.39-.611,19.24,19.24,0,0,0,2.487-.094c.269-4.818.421-11.764.876-16.573.406-4.3-11.157,9.145-11.327,13.428C588.227,1528.242,579.987,1647.651,580.243,1656.86Z" transform="translate(-545.829 -1300.545)" fill="#ffd9d9"/>
          <path id="Trazado_101126" data-name="Trazado 101126" d="M588.956,1489.55c.071-2.291,2.166,21.5,4.3,23.15,4.48,3.474,9.922,3.956,15.373,4.321,2.93.2,5.856.388,8.762.824,2.8.42,6.309.956,8.594,2.762a5.781,5.781,0,0,1,.919.906,4.266,4.266,0,0,0,5.652-.64l33.37-.3a3.243,3.243,0,0,1,2.81,1.617c.264-.842.526-1.686.778-2.532,1.224-4.119,5.643-6.33,5.768-1.972.832,28.952-13.822,38.09-25.11,53.382-1.526,2.067-1.689,2.3-3.091.092-4.716-7.431-12.957-25.855-14.225-28.695-.763,3.719-8.727,26.016-10.065,30.255-.231.732-.667,2.614-2.962-.613-8.086-11.368-31.82-40.3-33.166-46.956C585.044,1517.156,588.706,1497.663,588.956,1489.55Z" transform="translate(-545.381 -1301.297)" fill="#fff"/>
          <path id="Trazado_101127" data-name="Trazado 101127" d="M555.481,1334.669c.457-.418,12.578-2.677,13.155-.764,5.046,16.738,16.432,39.386,16.535,39.434,6.358,2.965,19.122,7.678,25.583,10.436,5.755-3.983,12.009-6.594,16.771-1.305,2.478,2.751,7.728,10.644,9.008,10.644,1.806,0,12.356-8.49,19.1-7.038,6.1,1.314,8,9.248,8.085,9.489,12.511,8.984,22.3,23.057,36.868,52.28,9.079,18.208,18.184,33.192,26.047,51.957.548,1.308-13.235,11.152-14.471,9.218-4.16-6.507-32.4-43.393-36.972-51.362.409,6.194,3.346,54.219,2.426,87.173,0,0-86.648-12.008-87.092-22.257-.239-5.51,5.243-96.68,3-100.878-4.49-8.409-26.956-33.4-28.716-43.046C563.013,1368.821,554.521,1335.551,555.481,1334.669Z" transform="translate(-547.678 -1312.934)" fill="#2b6ab9"/>
          <path id="Trazado_101128" data-name="Trazado 101128" d="M642.657,1682.663a6.265,6.265,0,0,0,3.929-1.256,11.1,11.1,0,0,0,2.436-3.053c.935-1.365,2.217-2.469,3.768-.936.079.078.179,4.036,7.47,7.165,2.706,1.161,5.331,2.474,6.52,5.357.776,1.88.871,3.4-1.855,3.872a16.3,16.3,0,0,1-4.432.078l-6.389-.8c-3.817-.479-7.639-.933-11.452-1.437-3.464-.459-4.081-2.03-4.2-5.343q-.055-1.491-.026-2.984a1.37,1.37,0,0,1,1.861-1.251A7.006,7.006,0,0,0,642.657,1682.663Z" transform="translate(-541.496 -1287.349)" fill="#28282b"/>
          <path id="Trazado_101129" data-name="Trazado 101129" d="M612.59,1338.4a37.255,37.255,0,0,0,3.091-5.763,9.29,9.29,0,0,1,13.5-4.419,8.083,8.083,0,0,1,10.087-1.593c1.968,1.152,3.016,3.092,4.36,4.844,1.8,2.338,4.582,2.688,6.6,4.66a4.728,4.728,0,0,1,1.426,4.619,8.384,8.384,0,0,0-.447,3.272,2.386,2.386,0,0,1-.564,2.193c-3.234,3.446-8.185-1.487-10.18-3.8a9.787,9.787,0,0,0-3.122-2.779c-1.295-.578-2.77-.415-4.128-.7a6.81,6.81,0,0,1-2.317-.932c-.891,1.365-2.617,2.024-4.44,2.463a12.378,12.378,0,0,0-5.31,2.621c-1.345,1.165-2.327,2.824-3.936,3.675a4.218,4.218,0,0,1-6.111-3.57A7.747,7.747,0,0,1,612.59,1338.4Z" transform="translate(-543.531 -1313.501)" fill="#28282b"/>
          <ellipse id="Elipse_4094" data-name="Elipse 4094" cx="0.907" cy="1.411" rx="0.907" ry="1.411" transform="translate(79.777 40.938)" fill="#28282b"/>
          <path id="Trazado_101130" data-name="Trazado 101130" d="M637.973,1354.062c0,.779-.406,1.411-.908,1.411s-.907-.632-.907-1.411.406-1.411.907-1.411S637.973,1353.283,637.973,1354.062Z" transform="translate(-541.664 -1311.481)" fill="#28282b"/>
          <path id="Trazado_101131" data-name="Trazado 101131" d="M629.858,1367.674h.48c2.554,0,4.625-.857,4.625-3.411h-9.728C625.235,1366.817,627.305,1367.674,629.858,1367.674Z" transform="translate(-542.477 -1310.616)" fill="#fff"/>
          <path id="Trazado_101132" data-name="Trazado 101132" d="M627.87,1358.181a11.286,11.286,0,0,1,.608-2.577c.183-.5.422-1.434.911-1.73.326-.2.812-.241,1.139.441.063.133.328.874.4,1.1.5,1.494,1.094,3.59.434,5.047-.3.649-1.707.634-2.162.578C627.745,1360.867,627.737,1359.314,627.87,1358.181Z" transform="translate(-542.285 -1311.399)" fill="#ed8e87"/>
          <path id="Trazado_101133" data-name="Trazado 101133" d="M619.345,1349.025a5.225,5.225,0,0,1,3.443-1.213c1.3-.078,2.77-.151,3.811.725a.878.878,0,0,1-.154,1.372,6.722,6.722,0,0,1-3.273.494,9.165,9.165,0,0,1-3.652-.289A.642.642,0,0,1,619.345,1349.025Z" transform="translate(-542.933 -1311.845)" fill="#28282b"/>
          <path id="Trazado_101134" data-name="Trazado 101134" d="M641.308,1349a5.228,5.228,0,0,0-3.45-1.191c-1.3-.07-2.771-.131-3.806.751a.878.878,0,0,0,.162,1.371,6.715,6.715,0,0,0,3.275.473,9.182,9.182,0,0,0,3.651-.313A.642.642,0,0,0,641.308,1349Z" transform="translate(-541.84 -1311.844)" fill="#28282b"/>
          <path id="Trazado_101135" data-name="Trazado 101135" d="M643.78,1342.74a5.974,5.974,0,0,1,1.3,2c-.008-.178-.008-.357-.019-.535-.106-1.554,2.307-1.545,2.417,0a31.448,31.448,0,0,1-.4,6.819c-.211,1.444-.392,3.649-2.34,3.677-1.429.019-2.046-1.329-1.942-2.583.209-2.495,1.309-5.583-.71-7.684A1.2,1.2,0,0,1,643.78,1342.74Z" transform="translate(-541.248 -1312.246)" fill="#28282b"/>
          <path id="Trazado_101136" data-name="Trazado 101136" d="M617.119,1342.516a5.974,5.974,0,0,0-1.3,2c.009-.178.008-.356.02-.535.106-1.554-2.307-1.544-2.418,0a31.587,31.587,0,0,0,.4,6.819c.212,1.444.392,3.65,2.341,3.677,1.429.021,2.046-1.329,1.94-2.582-.208-2.495-1.308-5.584.71-7.685A1.2,1.2,0,0,0,617.119,1342.516Z" transform="translate(-543.361 -1312.262)" fill="#28282b"/>
        </g>
        <g id="Grupo_54127" data-name="Grupo 54127" transform="translate(170.001)">
          <rect id="Rectángulo_5432" data-name="Rectángulo 5432" width="16.56" height="30.953" transform="translate(115.006 84.755) rotate(180)" fill="#f8b286"/>
          <path id="Trazado_101137" data-name="Trazado 101137" d="M353.456,1331.65c.724.21,1.442.472,2.153.661a47.56,47.56,0,0,0,5.694,1.157c2.684.373,5.995.9,8.713.041v7a19.092,19.092,0,0,1-11.316,1.6,16.855,16.855,0,0,1-5.243-2.176Z" transform="translate(-255.01 -1270.921)" fill="#e89a68"/>
          <path id="Trazado_101138" data-name="Trazado 101138" d="M262.182,1492.355c-.1-2.5-.061-5.224,1.519-7.3,1.875-2.462,5.413-2.477,7.432-4.574.183-.323.361-.652.531-.992,9.928-23.314,15.963-45.737,27.781-70.206,1.6-3.308,14.424,12.015,13.725,13.513-9.555,20.5-21.456,41.525-31.1,61.685-.635,1.567-2.906,6.4-5.086,10.354-2.474,4.49-5.842,4.675-7.115,4.467-2.167-.356-7.7-2.441-8.008-4.859A4.232,4.232,0,0,1,262.182,1492.355Z" transform="translate(-261.834 -1265.173)" fill="#f8b286"/>
          <path id="Trazado_101139" data-name="Trazado 101139" d="M470.518,1281.33c.334,2.477.553,5.194-.824,7.409-1.634,2.627-5.154,2.976-6.967,5.255-.151.339-.3.683-.435,1.038-7.682,24.148-4.719,16.4-14.172,41.876-1.278,3.444-9.223-13.74-8.669-15.3,7.576-21.307,4.314-9.584,12.012-30.564.485-1.619,2.289-6.646,4.084-10.788,2.039-4.7,5.375-5.206,6.663-5.119,2.191.149,7.9,1.7,8.431,4.081A4.243,4.243,0,0,1,470.518,1281.33Z" transform="translate(-248.608 -1275.13)" fill="#f8b286"/>
          <path id="Trazado_101140" data-name="Trazado 101140" d="M334.83,1482.98c2.688-21.357,5.871-42.721,7.56-64.186,1.633-20.77,2.319-41.692,6.811-62.109a2,2,0,0,1,1.649-1.487,3.222,3.222,0,0,1,1.048-1.244c1.668-1.2,4.673-.913,6.612-1.02a138.178,138.178,0,0,1,16.756.127,2.153,2.153,0,0,1,1.05.362c1.685-.224,2.57,1.771,1.888,3.151,5.63,42.373,15.948,84.405,14.736,127.41-.049,1.732-2.374,2.967-3.645,1.509l-1.049-1.2a7.056,7.056,0,0,1-4.385,1.585c-5.022.224-10.131-.134-15.16-.142q-15.672-.026-31.338.5a1.9,1.9,0,0,1-2.031-1.705A1.7,1.7,0,0,1,334.83,1482.98Z" transform="translate(-256.399 -1269.35)" fill="#f6f3e8"/>
          <path id="Trazado_101141" data-name="Trazado 101141" d="M338.636,1300.844c.177-2.666,6.482-2.653,7.8-1.131,1.419-.781,3.423-.459,3.818,1.53a37.922,37.922,0,0,0,3.978,11.152c1.449,2.607,3.446,6.409,6.457,7.527,1.175-.106,2.347-.255,3.519-.394a38.423,38.423,0,0,1,9.539-.272,3.631,3.631,0,0,1,.423.078,38.137,38.137,0,0,0,1.616-8.652c-1.373-.667-2.358-2.337-1.287-3.755a12.914,12.914,0,0,1,2.09-2.293,2.727,2.727,0,0,1,4.319.846c1.46-1.373,7.866-.708,7.9,1.9.11,9.779-7.291,19.185-14.292,25.982-1.345,1.308-4.1.871-4.481-1.183-.367-1.978.3-3.317,1.094-5.016a11.094,11.094,0,0,1-4.208.723,2.587,2.587,0,0,1-2.543-3c-.9.1-1.8.208-2.7.3a2.833,2.833,0,0,1-1.466.153c-.017,0-.033-.006-.049-.01a16.709,16.709,0,0,1-5.228-.124q.872,2.221,1.845,4.4a2.7,2.7,0,0,1-4.214,3.251c-4.147-3.547-6.661-8.428-8.285-13.568C342.482,1313.624,338.239,1306.8,338.636,1300.844Z" transform="translate(-256.116 -1273.376)" fill="#28282b"/>
          <path id="Trazado_101142" data-name="Trazado 101142" d="M342.4,1317.615a2.246,2.246,0,0,1,2.593-2.089c1.632.227,2.254,1.7,2.845,3.047a1.45,1.45,0,0,1-.78,1.914,1.237,1.237,0,0,1-.048.193,24.688,24.688,0,0,0,1.326,4.709c.53,1.365-1.338,2.094-2.248,1.309A11.238,11.238,0,0,1,342.4,1317.615Z" transform="translate(-255.838 -1272.123)" fill="#e89a68"/>
          <path id="Trazado_101143" data-name="Trazado 101143" d="M380.724,1319.286a2.245,2.245,0,0,0-2.374-2.334c-1.647.064-2.411,1.471-3.132,2.75a1.45,1.45,0,0,0,.587,1.981,1.169,1.169,0,0,0,.03.2,24.649,24.649,0,0,1-1.785,4.556c-.662,1.305,1.124,2.216,2.107,1.524A11.234,11.234,0,0,0,380.724,1319.286Z" transform="translate(-253.487 -1272.015)" fill="#e89a68"/>
          <path id="Trazado_101144" data-name="Trazado 101144" d="M373.362,1683.528l-1.931-38.922h14.053l-.131,39.157c1.949,4.093,2.695,2.891,2.668,3.536a27.188,27.188,0,0,1-3.623,2.364,3.747,3.747,0,0,1-1.966.481c-.7,2.731-2.266,4.776-6.043,4.558-3.461-.2-5.26-.952-4.6-4.187C372.289,1688.04,373.106,1685.944,373.362,1683.528Z" transform="translate(-253.672 -1247.613)" fill="#f8b286"/>
          <path id="Trazado_101145" data-name="Trazado 101145" d="M371,1686.918a1.522,1.522,0,0,1,2.066-1.391,11.614,11.614,0,0,0,7.513.028,31.04,31.04,0,0,1,6.311-1.734,3.786,3.786,0,0,1,2.822.833c1.89,1.269,12.989,5.6,14.281,8.733.862,2.089-.524,4.657-3.553,5.183a18.087,18.087,0,0,1-4.924.087l-7.1-.892c-4.241-.532-8.486-1.036-12.723-1.6-3.849-.51-4.533-2.255-4.668-5.938Q370.971,1688.576,371,1686.918Z" transform="translate(-253.704 -1244.694)" fill="#87553f"/>
          <path id="Trazado_101146" data-name="Trazado 101146" d="M321.451,1647.91h-14.3l-8.826,32.428c-1.751,4.18-7.784,7.077-7.725,7.719a27.236,27.236,0,0,0,3.732,2.189,3.756,3.756,0,0,0,1.988.386c.826,2.695,2.492,4.662,6.255,4.262,3.448-.365,5.208-1.2,4.4-4.4C306.345,1688.043,321.451,1647.91,321.451,1647.91Z" transform="translate(-259.692 -1247.367)" fill="#f8b286"/>
          <path id="Trazado_101147" data-name="Trazado 101147" d="M308.834,1687.034a1.521,1.521,0,0,0-2.131-1.289,11.613,11.613,0,0,1-7.5.388,30.939,30.939,0,0,0-6.388-1.429,3.777,3.777,0,0,0-2.779.967c-1.827,1.357-12.707,6.219-13.846,9.407-.761,2.129.747,4.627,3.8,5.007a18.1,18.1,0,0,0,4.923-.149l7.046-1.23c4.21-.735,8.426-1.442,12.632-2.206,3.82-.693,4.419-2.47,4.377-6.154Q308.946,1688.689,308.834,1687.034Z" transform="translate(-260.779 -1244.627)" fill="#87553f"/>
          <path id="Trazado_101148" data-name="Trazado 101148" d="M344.222,1315.157c.269-8.381,3.323-18.554,12.121-22.713a16.414,16.414,0,0,1,21.629,7.524c3.583,7.055,3.149,16.526,1.126,24.084-.871,3.254-2.361,14-12.832,17.872-4.606,1.7-9.153-.107-12.595-2.99C346.672,1333.069,343.953,1323.574,344.222,1315.157Z" transform="translate(-255.699 -1273.958)" fill="#f8b286"/>
          <path id="Trazado_101149" data-name="Trazado 101149" d="M327.19,1490.167c.244-7.488,5.19-21.957,5.19-21.957l79.994,1.351s-6.488,129.29-17.324,212.731c-.33,2.539-21.089,1.879-21.2.138-.343-5.346-.575-15.873-.91-21.213-.351-5.593-4.074-104.286-5.373-129.067-.345,5.665-48.111,142.583-49.9,152.883-.188,1.084-20.049.24-20.016-1.357C297.653,1683.675,326.287,1517.818,327.19,1490.167Z" transform="translate(-259.166 -1260.75)" fill="#2b6ab9"/>
          <path id="Trazado_101150" data-name="Trazado 101150" d="M337.142,1295.574c1.3-2.183,3.561-2.478,5.732-3.291a12.389,12.389,0,0,0,6.294-5.527c1.429-2.388,2.809-4.854,5.267-6.331a11.425,11.425,0,0,1,15.439,3.935,11.176,11.176,0,0,1,10.1-.428,12.757,12.757,0,0,1,5.769,5.523c1.573,2.783,1.963,6.232,4.125,8.625,3.609,3.993,7.6,8.98,4.614,14.607a7.766,7.766,0,0,1-6.161,4.076c-1.8.236-3.4.188-5.09.946-1.343.6-5.377-.268-6.979-.9-2.368-.934-6.332-2.4-8.272-7.338a9.581,9.581,0,0,1-2.473,4.081c-3.387,2.905-10.247,2.289-13.176-.951-.682-.754-1.2-1.962-2.241-2.275-.933-.282-2.221.2-3.121.354-2.328.4-4.591.592-6.672-.741C336.235,1307.337,334.7,1299.683,337.142,1295.574Z" transform="translate(-256.312 -1274.849)" fill="#28282b"/>
          <path id="Trazado_101151" data-name="Trazado 101151" d="M272.991,1474.708c1.583-4.287,32.14-94.2,43.316-103.8,6.749-5.8,31.507-19.321,41.638-24.5,1.77-.892,1.405.646,1.477,2.653.158,4.358-.212,31.981-2.6,46.7-2.238,13.8-2.777,25.561-3.753,39.516-.952,13.6-2.785,76.615-2.785,76.615-4.833,2.9-24.355-3.86-24.63-4.091a2.532,2.532,0,0,1-1.476-2.3c-.318-9.564-1.514-50.234-2.237-82.549-3.757,6.487-29.364,53.445-35.156,59.637C284.381,1485.156,271.7,1478.2,272.991,1474.708Z" transform="translate(-261.01 -1269.841)" fill="#ec9625"/>
          <path id="Trazado_101152" data-name="Trazado 101152" d="M351.946,1316.573c0,.865.451,1.568,1.009,1.568s1.008-.7,1.008-1.568-.451-1.568-1.008-1.568S351.946,1315.708,351.946,1316.573Z" transform="translate(-255.123 -1272.16)" fill="#28282b"/>
          <path id="Trazado_101153" data-name="Trazado 101153" d="M370.855,1317.134c0,.866-.451,1.568-1.008,1.568s-1.008-.7-1.008-1.568.451-1.568,1.008-1.568S370.855,1316.269,370.855,1317.134Z" transform="translate(-253.865 -1272.119)" fill="#28282b"/>
          <path id="Trazado_101154" data-name="Trazado 101154" d="M361.1,1331.552h.534c2.837,0,5.136-.952,5.136-3.79H355.966C355.966,1330.6,358.266,1331.552,361.1,1331.552Z" transform="translate(-254.823 -1271.21)" fill="#fff"/>
          <path id="Trazado_101155" data-name="Trazado 101155" d="M358.893,1321.97a12.606,12.606,0,0,1,.676-2.864c.2-.551.468-1.594,1.012-1.921.361-.217.9-.268,1.265.489.071.148.364.971.441,1.226.556,1.659,1.215,3.989.481,5.606-.328.722-1.9.7-2.4.644C358.755,1324.954,358.746,1323.229,358.893,1321.97Z" transform="translate(-254.61 -1272.008)" fill="#e89a68"/>
          <path id="Trazado_101156" data-name="Trazado 101156" d="M350.8,1322.5c3.532.685,8.595-1.128,9.647-4.89a6.151,6.151,0,0,0,.066-3.336,7.858,7.858,0,0,1,3.977-.048,6.122,6.122,0,0,0-.273,3.389c.689,3.845,5.557,6.132,9.137,5.785,4.322-.418,7.684-4.195,7.433-7.942a8.929,8.929,0,0,0-.975-2.225c-3.112-4.218-11.335-4.275-14.47-.438a9.313,9.313,0,0,0-5.5,0c-2.7-4.195-10.98-4.958-14.5-1.027a8.882,8.882,0,0,0-1.182,2.122C343.546,1317.6,346.533,1321.675,350.8,1322.5Zm28.374-7.09a4.321,4.321,0,0,1-.056.954,6.691,6.691,0,0,1-5.689,5.424c-2.929.383-7.24-1.5-7.635-4.732C364.934,1310.06,377.152,1310.016,379.17,1315.414ZM345.762,1314c2.522-5.182,14.68-3.976,13.163,2.911-.7,3.185-5.171,4.644-8.051,3.985a6.694,6.694,0,0,1-5.148-5.941A4.265,4.265,0,0,1,345.762,1314Z" transform="translate(-255.709 -1272.593)" fill="#fff"/>
          <path id="Trazado_101157" data-name="Trazado 101157" d="M362.954,1464.312a1.847,1.847,0,0,1,1.189-.832c2.126-.438,3.443.564,5.182,1.7l3.3,2.148c.138.09,1.033.731,1.765,1.268a2.219,2.219,0,0,1,3.956,1.21,4.452,4.452,0,0,1-.005.957q0,.6-.006,1.206c.314,1.165.575,2.339.775,3.542a2.109,2.109,0,0,1,.018.479c.78.577,1.548,1.162,2.289,1.769,1.408,1.156.274,3.8-1.516,3.66-4.623-.361-9.427-1.108-13.244-3.942-3.749-2.783-5.68-7.011-7.421-11.206C358.366,1464.172,361.79,1462.584,362.954,1464.312Z" transform="translate(-254.59 -1261.11)" fill="#f6f3e8"/>
          <path id="Trazado_101158" data-name="Trazado 101158" d="M368.87,1352.779c.073-2.007-.421-3.218,1.477-2.653,7.473,2.223,17.058,3.6,23.8,4.753,5.47.934,32.488-8,40.833-14.782,3.4-8.881,13.748-42.423,15.959-43.7,2.364-1.364,14.3,5.194,14.705,5.539.863.733-12.273,53.513-18.53,63.935-3.5,8.1-26.2,18.334-32.02,25.564-1.867,29.167-7.569,99.756-8.026,113.51a2.53,2.53,0,0,1-1.476,2.3c-.275.232-24.09,11.537-28.923,8.637,0,0-2.964-102.608-5.2-116.406C369.083,1384.76,368.712,1357.137,368.87,1352.779Z" transform="translate(-253.865 -1273.56)" fill="#ec9625"/>
        </g>
        <g id="Grupo_54128" data-name="Grupo 54128" transform="translate(348.068 82.076)">
          <path id="Trazado_101159" data-name="Trazado 101159" d="M523.19,1434.456c.054.327-4.721,10.741-2.9,10.493,10.015-1.359,25.693,30.705,30.322,42.513,2.057,5.243,10.745,32.65,12.907,42.8.018.209.031.362.035.424a30.824,30.824,0,0,0,.49,3.8c-.005,1.409,4.161,8.656,5.84,10.406l0,.007h0c.072.075.138.154.211.228a1.01,1.01,0,0,0,1.34.121q.869.651,1.808,1.237a1.184,1.184,0,0,0,1.665-.769c.287.078.577.151.876.212a1.217,1.217,0,0,0,1.417-1.3q-.163-.917-.325-1.833a1.181,1.181,0,0,0,.492-.385,1.151,1.151,0,0,0,1.651-1.168c-.789-5.725-4.608-9.946-8.491-13.941-.7-3.273-1.887-8.822-2.539-12.072s-6.238-30.474-8.139-37.978a101.072,101.072,0,0,0-7.767-21.2c-3.534-6.957-26.345-46.7-25.24-43.8C528.218,1415.827,522.811,1432.133,523.19,1434.456Z" transform="translate(-420.683 -1347.006)" fill="#f8a9a3"/>
          <path id="Trazado_101160" data-name="Trazado 101160" d="M429.223,1541.476a1.184,1.184,0,0,0,.493.385q-.163.917-.324,1.833a1.217,1.217,0,0,0,1.416,1.3c.3-.061.589-.134.876-.213a1.185,1.185,0,0,0,1.665.769q.943-.585,1.808-1.237a1.008,1.008,0,0,0,1.341-.121c.073-.074.138-.153.21-.227h0l0-.006c1.678-1.75,5.846-9,5.84-10.405a31.085,31.085,0,0,0,.491-3.8c.006-.1.034-.435.079-.9,4.165-7.013,12-37.18,14.058-42.423,4.63-11.807,20.308-43.872,30.323-42.513,1.826.248-2.949-10.167-2.9-10.493.378-2.323,1.429-22.839-4.013-20.785-2.9,1.095-21.356,35.42-24.89,42.377a101.017,101.017,0,0,0-7.767,21.2c-1.9,7.5-7.487,34.735-8.139,37.978-.968,4.821-1.562,8.58-3.716,12.148-3.89,4-7.721,8.227-8.512,13.964A1.151,1.151,0,0,0,429.223,1541.476Z" transform="translate(-427.559 -1346.976)" fill="#f8a9a3"/>
          <path id="Trazado_101161" data-name="Trazado 101161" d="M483.472,1410.945c2.734-.513,13.382-2.795,13.382-9.921,0-3.959,2.93.468,5.6-2.391,1.417-1.519,3.811-.551,4.563,1.1.424.148,3.131-.348,3.131.209,0,3.783,3.51,7.723,5.665,8.767,4.267,2.066,8.706,2.883,10.675,2.6.838.288,1.668.6,2.477.943a2.6,2.6,0,0,1,.387.151c.11.054.215.113.323.168,2.873,1.316,7.095,15.161,6.815,15.994-2,14.675-7.618,44.728-8.85,57.744-.289,3.044-45.647,3.876-46.086-.389-.46-4.468-6.164-48.343-6.392-53.437-.9-20.047-2.456-8.4-2.318-13.075C478.151,1411.339,479.96,1411.6,483.472,1410.945Z" transform="translate(-424.187 -1348.065)" fill="#f8a9a3"/>
          <path id="Trazado_101162" data-name="Trazado 101162" d="M474.777,1393.734c.234,2.654,2.746,4.089,5.2,4.171,1.913.065,3.711-.653,5.628-.245,1.426.3,2.767.922,4.18,1.277a14.164,14.164,0,0,0,8.3-.389l-.034-.027c-3.9-3.331-6.268-8.187-7.392-13.253.407-.251.818-.487,1.171-.734a19.292,19.292,0,0,0,3.655-3.274,15.185,15.185,0,0,0,3.472-8.037,14.079,14.079,0,0,1,1.67-4.447c.113-2.074.163-4.149.116-6.228a13.832,13.832,0,0,0,2.338,1.611,13.173,13.173,0,0,0,.745-2.569,12.232,12.232,0,0,0,1.88,3.556,7.246,7.246,0,0,0,3.586-.114,1.974,1.974,0,0,0,1.271-2.437q-.1-.346-.213-.687a1.586,1.586,0,0,0,.814-.494,5.241,5.241,0,0,1,.936.289,2.066,2.066,0,0,0,.2,2.408,39.9,39.9,0,0,1,4.395,6.108c.187.32.368.639.548.957a16.27,16.27,0,0,1,.182,4.319,1.929,1.929,0,0,0-2.158,1.967q.047.612.095,1.224a18.751,18.751,0,0,0,1.88,3.438q.35.5.73.971c-.1.629-.212,1.251-.336,1.856-.515,2.486-3.422,9.614-7.615,13.849-.256.258-.177.7-.45.931a10.033,10.033,0,0,0,6.941.5,32.009,32.009,0,0,1,5.54-.992,42.329,42.329,0,0,0,5.3-.275,10.121,10.121,0,0,0,6.145-4.171c1.358-1.81,3.2-4.32,3.272-6.668.081-2.693-2.091-5.588-3.457-7.762-1.676-2.668-3.431-5.267-4.865-8.078-2.726-5.339-4.868-11.079-9.262-15.337-3.832-3.713-9.094-5.3-14.814-5.422-6.6-.136-10.878.694-15.63,5.75-4.125,4.387-5,10.463-6.938,16.444-1.084,3.345-3.213,7.543-4.294,10.9C476.605,1387.426,474.513,1390.749,474.777,1393.734Zm28.874-33.764c.408-.126.825-.249,1.255-.365.072.108.141.214.21.321a2.228,2.228,0,0,0-.039.978A8.409,8.409,0,0,1,503.651,1359.97Z" transform="translate(-424.044 -1351.517)" fill="#ffd9d9"/>
          <rect id="Rectángulo_5433" data-name="Rectángulo 5433" width="13.29" height="27.861" transform="translate(85.957 60.085) rotate(180)" fill="#f8a9a3"/>
          <rect id="Rectángulo_5434" data-name="Rectángulo 5434" width="13.29" height="27.861" transform="translate(85.957 60.085) rotate(180)" fill="#f8a9a3"/>
          <path id="Trazado_101163" data-name="Trazado 101163" d="M495.188,1393.974c1.64,1.655,5.659,1.906,7.837,2.089a37.462,37.462,0,0,0,5.453-.191v4.155a18.509,18.509,0,0,1-8.319.939,9.949,9.949,0,0,1-4.972-2.311Z" transform="translate(-422.522 -1348.355)" fill="#ed8e87"/>
          <path id="Trazado_101164" data-name="Trazado 101164" d="M485.531,1691.416c.473-2.656.8-3.1.762-5.468.853-18.451,9.247-96.821,9.247-96.821s-22.592,7.228-22.258,9.339c4.837,30.57,4.543,64.588,5.863,87.218-.152,2.336-4.183,13.5-1.78,15.1C483.13,1704.626,485.04,1694.175,485.531,1691.416Z" transform="translate(-424.154 -1333.821)" fill="#f8a9a3"/>
          <path id="Trazado_101165" data-name="Trazado 101165" d="M506.428,1689.417c-.473-2.655-.394-1.37-.305-7.224,0-.048.009-.085.012-.128-.154-18.163,3.35-90.29,3.35-90.29s15.893,12.707,15.558,14.818c-4.838,30.57-8.477,52.992-11.529,77.019.151,2.336,4.084,16.733,1.682,18.334C509.431,1705.79,506.92,1692.176,506.428,1689.417Z" transform="translate(-421.713 -1333.624)" fill="#f8a9a3"/>
          <path id="Trazado_101166" data-name="Trazado 101166" d="M518.022,1379.073a2.022,2.022,0,0,0-2.334-1.879c-1.469.2-2.029,1.532-2.562,2.742a1.306,1.306,0,0,0,.7,1.722,1.048,1.048,0,0,0,.044.175,22.29,22.29,0,0,1-1.194,4.239c-.477,1.228,1.2,1.885,2.023,1.178A10.116,10.116,0,0,0,518.022,1379.073Z" transform="translate(-421.226 -1349.607)" fill="#ed8e87"/>
          <path id="Trazado_101167" data-name="Trazado 101167" d="M482.974,1386.1c.591-5.485,1.294-11.112,4.078-15.988a77.912,77.912,0,0,0,4.043-7.13c1.072-2.434,1.854-5.2,3.957-6.971a3.01,3.01,0,0,1,3.115-.48c-.008-.1-.014-.191-.023-.289-.224-2.58,2.818-3.24,4.333-1.859a2.427,2.427,0,0,1,1.126-.75,2.781,2.781,0,0,1,2.911.951,1.873,1.873,0,0,1,1.371-.041,4.433,4.433,0,0,1,2.659,2.9,8.221,8.221,0,0,0,2.418,3.19c2.42,2.067,4.55,3.872,5.974,6.806,1.361,2.8,2.072,5.818,3.134,8.733a44.99,44.99,0,0,0,5.355,9.494c1.5,2.233-1.175,4.774-3.419,3.672a19.471,19.471,0,0,1-7.376-6.3,19.19,19.19,0,0,1-2.136-4.045c-.615-1.572-.785-3.328-1.627-4.8-1.689-2.954-4.531-4.83-6.895-7.144a11.479,11.479,0,0,1-2.763-4.545,12.891,12.891,0,0,1-1.071,3.309c-1.356,2.8-3.277,5.172-3.8,8.324a15.185,15.185,0,0,1-3.472,8.037,19.292,19.292,0,0,1-3.655,3.274c-1.115.78-2.786,1.437-3.191,2.846C487.079,1390.6,482.623,1389.358,482.974,1386.1Z" transform="translate(-423.433 -1351.442)" fill="#ffd9d9"/>
          <path id="Trazado_101168" data-name="Trazado 101168" d="M490.724,1383.837a19.288,19.288,0,0,0,3.655-3.274,15.185,15.185,0,0,0,3.472-8.037c.52-3.152,2.441-5.523,3.8-8.324a12.892,12.892,0,0,0,1.071-3.31,11.478,11.478,0,0,0,2.763,4.545c2.364,2.314,5.206,4.19,6.895,7.144.841,1.473,1.012,3.229,1.627,4.8a19.19,19.19,0,0,0,2.136,4.045q.35.5.73.971c-.1.629-.212,1.251-.336,1.856-.587,2.834-2.481,12.1-10.617,15.739-3.579,1.6-5.725.713-8.527-1.681a26.126,26.126,0,0,1-7.836-13.742C489.96,1384.32,490.371,1384.084,490.724,1383.837Z" transform="translate(-422.942 -1350.819)" fill="#f8a9a3"/>
          <path id="Trazado_101169" data-name="Trazado 101169" d="M484.394,1418.488a70.562,70.562,0,0,0-1.627-7.738.719.719,0,0,1,1.386-.381c1.327,4.837,1.67,4.51,2.145,8.054.28.043,39.963-.387,40.243-.228-.467-4.576-.12-2.406-.8-6.964-.133-.893,1.224-1.289,1.376-.379q.614,3.684,1.087,7.394c.522,4.074,1.875,20.787,5.148,27.72-.126.941-3.212,18.82-3.882,23.793-25.213-.75-25.864.531-50.227-1.173-.443-5-2.232-16.361-2.682-21.858C482.29,1438.553,484.744,1420.791,484.394,1418.488Z" transform="translate(-423.909 -1347.172)" fill="#28282b"/>
          <path id="Trazado_101170" data-name="Trazado 101170" d="M483.758,1365.033a20.784,20.784,0,0,1,4.332-7.752c4.752-5.055,9.026-5.886,15.63-5.75,5.719.119,10.982,1.708,14.814,5.423a26.106,26.106,0,0,1,4.033,5.141,11.584,11.584,0,0,1-3.3,5.163l0,.011c-.1.092-.215.182-.321.273a1.381,1.381,0,0,1-.272.231l-.015.013a13.793,13.793,0,0,1-7,2.589,8.408,8.408,0,0,1-1.012.045c-1.473-1.512-3.173-2.81-4.679-4.285a9.855,9.855,0,0,1-.877-.982l-.063-.012a12.158,12.158,0,0,1-1.842-3.463,12.839,12.839,0,0,1-1.052,3.221c-1.148,2.369-2.695,4.433-3.461,6.92a8.058,8.058,0,0,1-1.974.587c-.354.053-.709.085-1.065.1a11.763,11.763,0,0,1-6.971-1.952c-.4-.261-.764-.54-1.118-.827-.063-.051-.133-.1-.193-.149l0-.008A14.71,14.71,0,0,1,483.758,1365.033Z" transform="translate(-423.373 -1351.518)" fill="#87553f"/>
          <path id="Trazado_101171" data-name="Trazado 101171" d="M471.517,1528.258c-.1-11.836,4.887-29.825,8.9-39.991a23.941,23.941,0,0,0,1.439-8.9l45.875.875s-.439,5.3.843,8.863c3.847,10.685,9.255,31.8,8.727,39.31-2.248,31.935-1.616,68.365-11.369,143.47-.3,2.286-17.273,1.408-17.373-.16-.308-4.812-3.13-115.907-4.3-138.212-.311,5.1-11.1,129.468-12.707,138.74-.17.976-16.571.11-16.54-1.328C475.015,1670.927,471.734,1553.158,471.517,1528.258Z" transform="translate(-424.285 -1341.995)" fill="#28282b"/>
          <path id="Trazado_101172" data-name="Trazado 101172" d="M514.242,1375.333a8.054,8.054,0,0,0-3.549-.571,7.76,7.76,0,0,0-3.713.62c-.393.242-.188.679.3.823a10.956,10.956,0,0,0,3.305.143,14.489,14.489,0,0,0,3.6-.348C514.636,1375.877,514.623,1375.5,514.242,1375.333Z" transform="translate(-421.659 -1349.786)" fill="#87553f"/>
          <path id="Trazado_101173" data-name="Trazado 101173" d="M491.322,1375.438a8.061,8.061,0,0,1,3.532-.675,7.763,7.763,0,0,1,3.729.512c.4.23.207.674-.271.832a10.99,10.99,0,0,1-3.3.24,14.52,14.52,0,0,1-3.61-.243C490.945,1375.995,490.946,1375.619,491.322,1375.438Z" transform="translate(-422.83 -1349.787)" fill="#87553f"/>
          <path id="Trazado_101174" data-name="Trazado 101174" d="M494.655,1379.229c0,.779.407,1.411.908,1.411s.907-.632.907-1.411-.406-1.411-.907-1.411S494.655,1378.45,494.655,1379.229Z" transform="translate(-422.562 -1349.559)" fill="#28282b"/>
          <path id="Trazado_101175" data-name="Trazado 101175" d="M509.943,1379.445c0,.779-.406,1.411-.907,1.411s-.908-.632-.908-1.411.406-1.412.908-1.412S509.943,1378.665,509.943,1379.445Z" transform="translate(-421.558 -1349.543)" fill="#28282b"/>
          <path id="Trazado_101176" data-name="Trazado 101176" d="M501.914,1391.53h.48c2.554,0,4.623-.857,4.623-3.41h-9.727C497.291,1390.673,499.362,1391.53,501.914,1391.53Z" transform="translate(-422.365 -1348.792)" fill="#fff"/>
          <path id="Trazado_101177" data-name="Trazado 101177" d="M502.011,1378.772c.325-.2.811-.241,1.138.441.063.132,1.35,5.3.83,6.148-.372.609-2.524.689-3.2-.015C500.282,1384.824,501.521,1379.067,502.011,1378.772Z" transform="translate(-422.114 -1349.497)" fill="#ed8e87"/>
          <path id="Trazado_101178" data-name="Trazado 101178" d="M506.223,1678.054c.4,2.4.542,2.436,1.084,4.81.492,2.157,2.413,4.522,3.219,4.857,2.683,1.115,3.6-1.9,3.443-3.8-.215-2.63-.107-3.336-.44-5.945-.09-.7.154-.6.32-.079.12.375,1.388,4.826,2,7.786.55,2.66.957,3.363.62,7.186-.29,3.289-1.063,5.506-1.641,5.164-2.433-1.442-5.886-4.559-6.5-6.023-1.428-3.409-2.341-12.184-2.47-14.012C505.8,1677.041,506.223,1677.475,506.223,1678.054Z" transform="translate(-421.728 -1327.245)" fill="#28282b"/>
          <path id="Trazado_101179" data-name="Trazado 101179" d="M486.067,1679.5c-.4,2.4-.336,2.236-.879,4.611-.492,2.158-2.413,4.522-3.218,4.857-2.684,1.115-3.6-1.9-3.444-3.8.215-2.63.107-3.336.44-5.945.09-.7-.154-.6-.32-.079-.12.375-1.388,4.827-2,7.786-.55,2.661-.957,3.363-.62,7.186.29,3.289,1.063,5.507,1.641,5.164,2.433-1.442,5.886-4.559,6.5-6.022,1.427-3.409,2.134-11.985,2.263-13.812C486.494,1678.487,486.067,1678.92,486.067,1679.5Z" transform="translate(-423.958 -1327.149)" fill="#28282b"/>
          <path id="Trazado_101180" data-name="Trazado 101180" d="M479.293,1632.476q.869,19.971,2.163,39.92c1.448.12,2.955.205,4.337.246q-4.784-76.606-3.79-153.4.292-19.924.995-39.838l-1.571-.03a23.916,23.916,0,0,1-1.439,8.9c-.574,1.453-1.167,3.069-1.763,4.8Q476.219,1562.758,479.293,1632.476ZM493.4,1479.6q-2.843,77.18.571,154.431c.107,2.461.226,4.92.342,7.38.948-10.1,2.01-21.745,3.073-33.581q-1.314-43.5-.7-87.037.3-20.561,1.038-41.11Zm17.506,38.535q-.811,50.816-4.3,101.514c.462,16.327.876,31.22,1.16,40.891q1.306-14.56,2.39-29.138,5.6-75.543,5.309-151.382l-4.327-.083Q511.188,1499.035,510.9,1518.133Zm14.882-1.13q-1.249,78.279-8.76,156.258c1.513.037,3.018.017,4.331-.08q2.1-21.432,3.676-42.91,4.979-67.115,5.311-134.478c-.754-2.474-1.5-4.751-2.2-6.684-1.282-3.562-.843-8.863-.843-8.863l-1.283-.025Q526.059,1498.611,525.785,1517Z" transform="translate(-423.844 -1341.995)" fill="#fff"/>
        </g>
        <g id="Grupo_54129" data-name="Grupo 54129" transform="translate(1057.067 50.699)">
          <path id="Trazado_101181" data-name="Trazado 101181" d="M1179.24,1683.149l.017-.092c5.478-24.408,15.16-89.814,15.16-89.814s-10.078-67.524-11.565-68.11c-5.528-2.178-10.879,153.446-11.154,158.152h0c-.528,3.709.171,5.1,2.47,9.675,1.156,2.3,4.137,6.573,7.161,6.647,4.108.1,2.526-4.753,1.479-6.858C1181.348,1689.812,1179.708,1686.313,1179.24,1683.149Z" transform="translate(-1081.149 -1307.212)" fill="#f8b286"/>
          <rect id="Rectángulo_5435" data-name="Rectángulo 5435" width="18.137" height="35.471" transform="translate(76.137 34.877)" fill="#f8b286"/>
          <path id="Trazado_101182" data-name="Trazado 101182" d="M1162.986,1682.177a17.174,17.174,0,0,1-4.074,5.018c-1.3,1.1-6.875,5.241-7.982,1.747-.312-.984-3.27,1.4-2.962,2.394.915,2.966,5.768,1.684,7.971.281a26.818,26.818,0,0,0,8.4-8.825C1164.825,1681.874,1163.485,1681.26,1162.986,1682.177Z" transform="translate(-1082.906 -1295.548)" fill="#28282b"/>
          <path id="Trazado_101183" data-name="Trazado 101183" d="M1164.843,1677.781c-.175-.545-.623,1.636-1.067,2.2a24.012,24.012,0,0,0-1.559,2.32c-.382.619-1.212,1.477-.943,2.26.119.345.473.385.781.594.906.616,2.624-2.524,3.191-3.838C1165.439,1680.865,1165.784,1678.706,1164.843,1677.781Z" transform="translate(-1081.917 -1295.848)" fill="#28282b"/>
          <path id="Trazado_101184" data-name="Trazado 101184" d="M1087.727,1503.164c-.089-2.248-.055-4.7,1.368-6.569,1.688-2.216,4.873-2.229,6.691-4.116.163-.292,7.422-18.811,7.422-18.811l12.911-2.1s-6.065,12.85-13.151,25.94c-.572,1.41.045,4.332-1.916,7.891-2.227,4.042-5.258,4.209-6.4,4.021-1.95-.32-6.933-2.2-7.209-4.374A3.822,3.822,0,0,1,1087.727,1503.164Z" transform="translate(-1087.414 -1311.199)" fill="#f8b286"/>
          <path id="Trazado_101185" data-name="Trazado 101185" d="M1246.637,1493.87c-.034-2.25-.2-4.7-1.726-6.484-1.807-2.12-4.988-1.96-6.907-3.745-.179-.282-8.442-18.375-8.442-18.375l-13.005-1.391s6.76,12.5,14.553,25.179c.648,1.376.193,4.328,2.346,7.774,2.447,3.914,5.482,3.913,6.616,3.663,1.931-.427,6.8-2.574,6.958-4.762A3.817,3.817,0,0,0,1246.637,1493.87Z" transform="translate(-1077.796 -1311.772)" fill="#f8b286"/>
          <path id="Trazado_101186" data-name="Trazado 101186" d="M1197.061,1356.288c-1.616-2.487-4.932-4.284-5.579-7.3-.688-3.207-.143-6.76-.762-10.067a20.987,20.987,0,0,0-11.228-14.381c-5.323-2.614-12.682-3.445-17.471.382-.072,0-.141-.013-.214-.014-5.023-.063-8.75,3.86-11,8.209a26.958,26.958,0,0,0-2.369,6.437c-.478,2.152-.646,4.37-1.169,6.512a4.585,4.585,0,0,1-1.618,3.04c-1.864,1.394-4.011,2.066-5.747,3.717-3.632,3.452-5.634,9.642-2.646,14.169a48.884,48.884,0,0,0,4.865,5.962,11.415,11.415,0,0,0,18.626-1.822,14.175,14.175,0,0,0,1.748-9,11.83,11.83,0,0,0,8.354,3.417,12.662,12.662,0,0,0,1.577-.058l.01.017a11.365,11.365,0,0,0,1.375,1.9,15.914,15.914,0,0,0,15.432,5.332,12.527,12.527,0,0,0,8.259-5.521A10.3,10.3,0,0,0,1197.061,1356.288Z" transform="translate(-1083.809 -1322.315)" fill="#28282b"/>
          <path id="Trazado_101187" data-name="Trazado 101187" d="M1145.948,1595.36c4.822,30.477,10.212,61.949,13.215,85.974-1.152,2.983-3.524,5.406-5.6,7.949-1.484,1.822-4.095,6.212-.065,7.016,2.968.592,6.814-2.923,8.448-4.91,4.671-5.683,4.671-5.683,4.671-15.691,0-4.715,2.112-90.915,2.112-90.915S1145.614,1593.249,1145.948,1595.36Z" transform="translate(-1083.055 -1302.767)" fill="#f8b286"/>
          <path id="Trazado_101188" data-name="Trazado 101188" d="M1184.089,1350.92a2.021,2.021,0,0,0-2.334-1.879c-1.469.2-2.029,1.532-2.562,2.742a1.306,1.306,0,0,0,.7,1.722,1.012,1.012,0,0,0,.044.175,22.3,22.3,0,0,1-1.194,4.239c-.477,1.228,1.2,1.885,2.023,1.178A10.116,10.116,0,0,0,1184.089,1350.92Z" transform="translate(-1080.618 -1320.326)" fill="#e89a68"/>
          <path id="Trazado_101189" data-name="Trazado 101189" d="M1148.958,1351.318a2.021,2.021,0,0,1,2.333-1.88c1.47.2,2.03,1.532,2.562,2.743a1.306,1.306,0,0,1-.7,1.722,1.143,1.143,0,0,1-.044.174,22.2,22.2,0,0,0,1.193,4.24c.478,1.228-1.2,1.884-2.022,1.178A10.11,10.11,0,0,1,1148.958,1351.318Z" transform="translate(-1082.834 -1320.297)" fill="#e89a68"/>
          <path id="Trazado_101190" data-name="Trazado 101190" d="M1176.411,1362.08c-.981.227-1.958.672-2.952.966a28.686,28.686,0,0,1-5.855,1.02c-1.975.16-3.967.252-5.948.293a28.537,28.537,0,0,1-3.382-.3v10.272a26.378,26.378,0,0,0,8.457,1.06,27.7,27.7,0,0,0,9.68-2.009Z" transform="translate(-1082.136 -1319.353)" fill="#e89a68"/>
          <path id="Trazado_101191" data-name="Trazado 101191" d="M1178.253,1335.324a17.792,17.792,0,0,0-16.105-4.568c-7.008,1.673-9.623,6.545-10.037,12.2a3.407,3.407,0,0,0-.574,1.849c-.176,6.03-.266,12.3,2.083,18.016,1.991,4.844,6.483,10.793,12.161,12.1,5.9,1.361,10.469-3.591,13.64-7.854,3.393-4.563,4.331-10.257,4.324-15.724C1183.737,1345.495,1182.751,1339.658,1178.253,1335.324Z" transform="translate(-1082.644 -1321.719)" fill="#f8b286"/>
          <path id="Trazado_101192" data-name="Trazado 101192" d="M1189.071,1347.921a71.989,71.989,0,0,1-10.159-16.594c-.759-1.714-2.7-1.277-3.546-.037-.288-.329-.586-.647-.9-.95a9.352,9.352,0,0,0-1.64-1.262c.069-.539.131-1.078.191-1.614.228-2.018-2.014-2.553-3.369-1.633a2.25,2.25,0,0,0-.382-.146c-5.2-1.422-9.711,1.283-12.644,5.267a17.139,17.139,0,0,0-2.6,2.21c-3.782,3.931-5.542,9.285-7.173,14.362a2.132,2.132,0,0,0,1.478,2.608,41.089,41.089,0,0,0-2.072,4c-.6,1.376.056,3.38,1.874,3.265,3.378-.213,5.912-2.177,7.792-4.9,2.093-3.029,2.958-6.827,6.132-9.007,2.781-1.91,5.962-3.087,8-5.922a12.942,12.942,0,0,0,1.813-3.727,28.062,28.062,0,0,1,2.594,3.659A90.4,90.4,0,0,0,1186,1350.99C1188,1353.017,1190.811,1350.039,1189.071,1347.921Z" transform="translate(-1083.048 -1322.093)" fill="#28282b"/>
          <path id="Trazado_101193" data-name="Trazado 101193" d="M1242.338,1478.958c-13.13-30.584-26.544-70.129-37-82.268-1.287-1.494-2.583-2.862-3.862-4.113-.027-.027-.112-.131-.139-.158-7.126-6.949-16.317-6.611-17.7-7.437-5.487-3.288-29.988.591-30.164.68-1.929.971-7.093,1.387-12.05,5.718-.046.041-.256.2-.3.242a43.743,43.743,0,0,0-8.884,10.513c-5.445,9.265-32.954,81.493-33.089,85.225-.1,2.7,9.683,7.2,10.873,4.783,3.506-7.125,29.462-56.674,30.62-59.67,1.755,4.645,2.153,12.255,2.822,14.942-9.494,58.817-14.878,102.493-21.262,148.009-1.883,13.419-4.1,26.793-7,40.031-.608,2.77,43.611,10.02,60.557,10.291a2.45,2.45,0,0,0,2.335-1.778c5.259-23.579,7.949-44.2,11.306-71.7,2.021,23.092,1.3,47.224,2.344,70.38a2.458,2.458,0,0,0,3.062,2.333,285.82,285.82,0,0,0,32.25-8.34,2.45,2.45,0,0,0,1.775-2.33c-5.736-47.217-14.642-93.954-23.669-140.63-2.522-13.041-12.26-43.726-13.1-48.026a158.537,158.537,0,0,1,8.96-14.422c.159.546,17.62,28.192,31.05,52.433C1232.65,1484.711,1242.9,1480.269,1242.338,1478.958Z" transform="translate(-1086.54 -1317.746)" fill="#f0551c"/>
          <path id="Trazado_101194" data-name="Trazado 101194" d="M1175.142,1351.3c0,.779-.406,1.411-.907,1.411s-.908-.632-.908-1.411.406-1.411.908-1.411S1175.142,1350.519,1175.142,1351.3Z" transform="translate(-1081.015 -1320.262)" fill="#28282b"/>
          <path id="Trazado_101195" data-name="Trazado 101195" d="M1157.8,1351.3c0,.779.406,1.411.907,1.411s.908-.632.908-1.411-.406-1.411-.908-1.411S1157.8,1350.519,1157.8,1351.3Z" transform="translate(-1082.172 -1320.262)" fill="#28282b"/>
          <path id="Trazado_101196" data-name="Trazado 101196" d="M1166.9,1365h-.48c-2.554,0-4.623-.858-4.623-3.411h9.727C1171.519,1364.139,1169.449,1365,1166.9,1365Z" transform="translate(-1081.874 -1319.39)" fill="#fff"/>
          <path id="Trazado_101197" data-name="Trazado 101197" d="M1167.2,1351.551c-.325-.2-.811-.242-1.138.44-.063.133-1.35,5.3-.829,6.149.372.609,2.524.689,3.2-.016C1168.934,1357.6,1167.695,1351.845,1167.2,1351.551Z" transform="translate(-1081.627 -1320.147)" fill="#e89a68"/>
          <path id="Trazado_101198" data-name="Trazado 101198" d="M1177.954,1346.308a6.5,6.5,0,0,0-4.1-.752c-1.184.078-3.026.178-3.6,1.36a.294.294,0,0,0,.171.371c.961.461,2.328-.146,3.362-.206,1.321-.078,2.628.251,3.937.13A.509.509,0,0,0,1177.954,1346.308Z" transform="translate(-1081.246 -1320.587)" fill="#28282b"/>
          <path id="Trazado_101199" data-name="Trazado 101199" d="M1154.825,1346.706a6.507,6.507,0,0,1,4.095-.752c1.184.078,3.027.178,3.6,1.361a.294.294,0,0,1-.171.37c-.961.461-2.328-.145-3.362-.206-1.32-.078-2.628.251-3.937.131A.509.509,0,0,1,1154.825,1346.706Z" transform="translate(-1082.408 -1320.557)" fill="#28282b"/>
          <path id="Trazado_101200" data-name="Trazado 101200" d="M1162.778,1682.421c-.636-.757-1.835-.615-2.706-.545a10.047,10.047,0,0,0-1.985.356c-1.645-1.329-3.386-2.452-3.679-2.1-.437.534-.885,1.064-1.332,1.594s-.874,1.034-1.3,1.555c-1.662,2.042-6.66,8.887-2.147,9.788,2.334.465,7.225-3.27,9.33-5.155.7-.646,1.3-1.258,1.764-1.769l.008,0c.155-.173.3-.343.431-.5.752-.914,1.393-1.694,1.944-2.4A1.323,1.323,0,0,0,1162.778,1682.421Z" transform="translate(-1082.917 -1295.671)" fill="#28282b"/>
          <path id="Trazado_101201" data-name="Trazado 101201" d="M1173.514,1679.919a17.991,17.991,0,0,0,3.01,6.071c1.076,1.423,5.822,6.944,7.759,3.626.545-.935,3.021,2.183,2.478,3.131-1.619,2.821-6.286.391-8.215-1.55a28.08,28.08,0,0,1-6.551-10.96A.778.778,0,1,1,1173.514,1679.919Z" transform="translate(-1081.118 -1295.73)" fill="#28282b"/>
          <path id="Trazado_101202" data-name="Trazado 101202" d="M1171.793,1674.8c.3-.517.26,1.816.584,2.491a25.058,25.058,0,0,1,1.059,2.731c.249.721.9,1.79.444,2.527-.2.326-.572.285-.936.429-1.068.42-2.1-3.186-2.379-4.661C1170.472,1677.815,1170.616,1675.528,1171.793,1674.8Z" transform="translate(-1081.223 -1296.069)" fill="#28282b"/>
          <path id="Trazado_101203" data-name="Trazado 101203" d="M1173.625,1680.072c.825-.626,2.018-.205,2.892.067a10.506,10.506,0,0,1,1.948.822c1.989-.98,4.028-1.727,4.245-1.294.324.647.661,1.292,1,1.936.327.63.654,1.258.968,1.889,1.228,2.47,4.76,10.623-.061,10.5-2.494-.062-6.634-5.009-8.352-7.422-.564-.821-1.042-1.587-1.4-2.214l-.006-.006c-.118-.214-.228-.42-.326-.613-.558-1.109-1.033-2.054-1.433-2.9A1.39,1.39,0,0,1,1173.625,1680.072Z" transform="translate(-1081.032 -1295.71)" fill="#28282b"/>
          <path id="Trazado_101204" data-name="Trazado 101204" d="M1198.4,1392.765a68.253,68.253,0,0,0-14.994-11c-5.487-3.288-22.518-4.665-32.752,1.841-.167.105-.354.176-.529.264a59.156,59.156,0,0,0-11.636,7.855,46.683,46.683,0,0,0,33.318,10.7c7.844-.659,15.186-3.453,22.116-7.09Q1196.2,1394.142,1198.4,1392.765Z" transform="translate(-1083.61 -1318.092)" fill="#f8b286"/>
        </g>
        <g id="Grupo_54130" data-name="Grupo 54130" transform="translate(670.607 36.604)">
          <path id="Trazado_101205" data-name="Trazado 101205" d="M772.783,1684.132a18.647,18.647,0,0,1-5.181,4.751c-1.574.976-8.232,4.547-8.867.611-.178-1.109-3.74.984-3.568,2.1.513,3.335,5.939,2.728,8.531,1.57a29.162,29.162,0,0,0,10.439-8.161C774.81,1684.1,773.466,1683.224,772.783,1684.132Z" transform="translate(-725.699 -1281.302)" fill="#87553f"/>
          <path id="Trazado_101206" data-name="Trazado 101206" d="M838.345,1684.4a18.693,18.693,0,0,0,4.81,5.126c1.5,1.091,7.868,5.15,8.8,1.273.262-1.093,3.657,1.261,3.4,2.366-.762,3.288-6.127,2.276-8.626.926a29.147,29.147,0,0,1-9.8-8.919C836.327,1684.209,837.733,1683.439,838.345,1684.4Z" transform="translate(-719.62 -1281.286)" fill="#87553f"/>
          <path id="Trazado_101207" data-name="Trazado 101207" d="M843.2,1604.27s2.393,54.769,2.1,81.1c1.613,3.083,4.475,5.408,7.027,7.9,1.828,1.787,5.291,6.575.934,7.574-2.357.54-7.873-2.844-9.882-4.79-5.747-5.568-5.6-5.042-6.83-15.858-.58-5.094-14.513-83.729-14.513-83.729Z" transform="translate(-720.718 -1287.802)" fill="#f8a9a3"/>
          <rect id="Rectángulo_5436" data-name="Rectángulo 5436" width="19.727" height="38.581" transform="translate(80.505 45.242)" fill="#f8a9a3"/>
          <path id="Trazado_101208" data-name="Trazado 101208" d="M822.393,1363.09c-1.316-.7-3.161-.362-4.913.089a21.9,21.9,0,0,1-5.93-1.384c-1.893-.775-3.125.775-3.12,2.4-.21,0-.418,0-.626,0a23.227,23.227,0,0,1-3.278-.1,2.347,2.347,0,0,0-1.86-1.044v9.677a32.15,32.15,0,0,0,6.343.6c4.228.219,8.64.664,12.773-.539q.308-.09.611-.211Z" transform="translate(-722.161 -1305.295)" fill="#ed8e87"/>
          <path id="Trazado_101209" data-name="Trazado 101209" d="M848.261,1683.237c.535.505,1.07,1.01,1.593,1.521,2.047,2,8.291,8.784,3.525,10.313-2.465.791-8.211-2.644-10.718-4.423-.833-.611-1.563-1.2-2.124-1.693l-.009,0c-.188-.169-.367-.333-.528-.489C839.077,1687.566,847.712,1682.72,848.261,1683.237Z" transform="translate(-719.386 -1281.343)" fill="#87553f"/>
          <path id="Trazado_101210" data-name="Trazado 101210" d="M848.413,1693.66c1.134.6,3.464.688,4.481-.107a2.195,2.195,0,0,0,.871-1.947c.018-.956-.533-2.494-1.664-2.45-1.415.055-2.767,1.372-3.8,2.2S847.2,1693.017,848.413,1693.66Z" transform="translate(-718.821 -1280.899)" fill="#f8a9a3"/>
          <path id="Trazado_101211" data-name="Trazado 101211" d="M836.107,1678.518c2.736-.56,5.467-.758,8.142-1.574.645-.2.921.811.277,1.009-2.694.826-5.389,1.01-8.14,1.577C835.727,1679.665,835.445,1678.653,836.107,1678.518Z" transform="translate(-719.699 -1281.81)" fill="#87553f"/>
          <path id="Trazado_101212" data-name="Trazado 101212" d="M775.443,1603.863s-6.488,54.436-8.174,80.717c-1.838,2.953-4.867,5.057-7.6,7.353-1.957,1.646-5.768,6.161-1.5,7.484,2.309.714,8.063-2.247,10.213-4.037,6.148-5.121,5.96-4.609,8-15.3.961-5.037,20.744-82.406,20.744-82.406Z" transform="translate(-725.62 -1287.712)" fill="#f8a9a3"/>
          <path id="Trazado_101213" data-name="Trazado 101213" d="M762.753,1682.272c-.572.463-1.143.926-1.7,1.4-2.192,1.843-8.926,8.139-4.288,10.021,2.4.974,8.385-2.021,11.019-3.607.876-.548,1.648-1.079,2.245-1.53l.01,0c.2-.154.391-.305.563-.448C771.587,1687.277,763.338,1681.8,762.753,1682.272Z" transform="translate(-725.699 -1281.414)" fill="#87553f"/>
          <path id="Trazado_101214" data-name="Trazado 101214" d="M837.831,1328.752c-1.044-4.345-4.65-7.405-8.768-8.763a26.883,26.883,0,0,0-7.139-1.063c-.633-.03-1.282-.021-1.9-.088a18.782,18.782,0,0,0-10.881-4.056c-5.521-.048-9.692,3.063-12.19,7.817a37.326,37.326,0,0,1-3.878,6.443,15,15,0,0,0-3.493,7.225,14.237,14.237,0,0,0,1.046,8.045c1.094,2.45,3.213,4.088,4.472,6.4,2.091,3.841,7.958.417,5.866-3.428-1.758-3.231-5.122-5.224-4.781-9.33.313-3.754,3.929-6.555,5.569-9.8,1.624-3.216,2.929-6.4,7.009-6.568a9.269,9.269,0,0,1,3.96.756c.039.054.074.109.117.162a7.082,7.082,0,0,0,.484.539c-3.9-.105-8.165.347-8.882,4.273-.71,3.892,4.651,5.757,6.209,2.812a3.245,3.245,0,0,0,.725-.1h2.035q2.034,0,4.069.018t4.07.04c.9.012,2.882-.323,3.68.205,1.523,1.007,2.17,4.276,2.521,5.917a24.369,24.369,0,0,1,.4,6.963,8.256,8.256,0,0,1-1.76,5.024c-1.422,1.591-2.866,2.892-2.018,5.259,1.634,4.559,7.419,2.258,9.741-.318,3.266-3.625,2.948-8.276,1.9-12.7-.515-2.163.433-3.5,1.216-5.484A10.2,10.2,0,0,0,837.831,1328.752Z" transform="translate(-723.149 -1308.781)" fill="#f0551c"/>
          <path id="Trazado_101215" data-name="Trazado 101215" d="M775.9,1422.808q-2.184,4.041-4.386,8.069a2.568,2.568,0,0,0-2.454-1.207,2.346,2.346,0,0,0-3.111-2.366c.117-.571.24-1.14.354-1.71.614-3.062-4.193-4.437-4.81-1.351-2.673,13.344-15.034,53.551-21.621,70.889-1.31,1.208-2.97,1.428-4.7,2.079a9.831,9.831,0,0,0-4.144,3.074c-1.851,2.277-4.108,6.306-2.993,9.2a1.783,1.783,0,0,0,1.5,1.173c-.249,1.572-.2,3.281,1.181,4.041a1.822,1.822,0,0,0,2.311-.15,3.485,3.485,0,0,0,1.9.668c3.057.159,6.205-2.893,7.974-5.027a17.911,17.911,0,0,0,3.8-8.1l.012-.014c12.012-20.787,32.55-69.555,30.906-69.3,1.4-2.578,1.166-4.9,2.562-7.479C781.683,1422.516,777.414,1420.006,775.9,1422.808Z" transform="translate(-727.741 -1300.827)" fill="#f8a9a3"/>
          <path id="Trazado_101216" data-name="Trazado 101216" d="M844.642,1409.691q2.459,3.613,4.936,7.215a2.419,2.419,0,0,1,2.146-1.452,2.246,2.246,0,0,1,2.628-2.642c-.17-.534-.345-1.066-.512-1.6-.9-2.865,3.409-4.758,4.315-1.872,3.915,12.482,19.708,49.575,27.683,65.419,1.344,1,2.906,1.014,4.577,1.431a9.016,9.016,0,0,1,4.173,2.453c1.961,1.962,4.487,5.557,3.766,8.469a1.715,1.715,0,0,1-1.262,1.307c.4,1.477.535,3.125-.66,4.017a1.657,1.657,0,0,1-2.16.133,3.241,3.241,0,0,1-1.685.868c-2.816.519-6.063-2.031-7.934-3.867a17.222,17.222,0,0,1-4.4-7.314l-.012-.012c-13.376-18.5-37.672-62.83-36.121-62.781-1.579-2.3-1.609-4.56-3.18-6.87C839.25,1410.1,842.936,1407.183,844.642,1409.691Z" transform="translate(-719.343 -1301.845)" fill="#f8a9a3"/>
          <path id="Trazado_101217" data-name="Trazado 101217" d="M824.856,1325.486a19.555,19.555,0,0,0-18.472-5.077c-7.936,2.2-10.781,8.126-11.1,14.942a4.277,4.277,0,0,0-.6,2.239c-.035,7.262,2.255,14.481,3.626,21.731,1.09,5.758,8.813,13.687,13.771,13.856,6.92.237,13.574-7.707,16.317-13.846s3.314-8.129,3.155-14.708C831.383,1337.584,830.1,1330.587,824.856,1325.486Z" transform="translate(-722.756 -1308.408)" fill="#f8a9a3"/>
          <path id="Trazado_101218" data-name="Trazado 101218" d="M831.681,1333.15a2.2,2.2,0,0,0,.7-3.087c-8.487-12.152-25.824-14.324-36.437-3.555a2.349,2.349,0,0,0-.242,3,14.158,14.158,0,0,0-1.207,1.378c-1.414-.543-3.271.129-3.127,2.049a32.958,32.958,0,0,0,1.454,7.71,2.385,2.385,0,0,0,4.3.562c4.352-7.225,14.2-9.711,22.227-7.152a19.583,19.583,0,0,1,9.329,7.03c1.121,1.515,3.831,1.6,4.334-.566A8.674,8.674,0,0,0,831.681,1333.15Z" transform="translate(-723.003 -1308.425)" fill="#f0551c"/>
          <path id="Trazado_101219" data-name="Trazado 101219" d="M874.435,1428.976c-4.836-17.223-15.009-33.9-29-44.377-8.782-6.575-54.183-2.814-63.049,3.062a62.663,62.663,0,0,0-7.46,5.767c-9.969,9.03-22.125,38.512-20.878,40.573.792,1.593,17.027,6.724,23.338,8.758.685.22,6.751,1.7,7.441,1.578.076,1.641,4.772,19.372,6.084,14.846a5.807,5.807,0,0,0,4.642,1.784c11.993.9,24.364-5.19,36.117-1.518a4.714,4.714,0,0,0,3-.151,4.8,4.8,0,0,0,3.472,2.169c2.219.263,3.746-12.115,4.286-16.781C843.52,1445.166,875.469,1432.659,874.435,1428.976Z" transform="translate(-725.789 -1303.839)" fill="#f6f3e8"/>
          <path id="Trazado_101220" data-name="Trazado 101220" d="M840.551,1383.7a61.858,61.858,0,0,0-27.58-10.055,4.138,4.138,0,0,0-3.4,1.376c-10.558,3.677-21.25,7.724-30.431,14.134a46.59,46.59,0,0,0,34.855,9.96C824.619,1397.739,834.6,1392.387,840.551,1383.7Z" transform="translate(-723.913 -1304.399)" fill="#f8a9a3"/>
          <path id="Trazado_101221" data-name="Trazado 101221" d="M838.222,1417.147c.978-5.71,8.614-27.883,9.144-29.912.994-3.806-.195-3.478-2.743-4.931-1.311-.748-2.286.032-2.958,1.149-.2.33-8.377,21.03-11.063,32.09-11.687-.136-26.116-.3-37.8-.541-1.917-10.062-5.756-19.653-9.693-29.14a2.14,2.14,0,0,0-3.075-1.251,9.25,9.25,0,0,0-2.394,1.554,2.187,2.187,0,0,0-.384,2.613c3.047,8.27,5.928,16.506,7.151,25.128.316,22.982-4.92,46.215-8.839,78.088-.226,1.837-8.115,140.836-9.489,185.039-.167,5.354,17.522,3.05,17.885,1.411,7.75-35.149,20.5-104.707,26.86-141.275,1.031,9.762,20.858,126.139,22.429,137.425.7,5.036,17.9,1.635,18.091-.87,3.006-38.6-1.91-178.583-2.278-181.076C845.46,1468.228,838.633,1417.819,838.222,1417.147Z" transform="translate(-724.886 -1303.774)" fill="#ec9625"/>
          <path id="Trazado_101222" data-name="Trazado 101222" d="M829.366,1313.2a5.269,5.269,0,0,0-8.77-2.556,8.957,8.957,0,0,0-2.053,2.776c-2.112-1.69-5.634-2.789-7.328.126-1.52,2.617.942,5.2,2.619,7.02a25.568,25.568,0,0,0,5.273,4.3,3.056,3.056,0,0,0,4.286-.874,12.547,12.547,0,0,0,2.163-1.684C828.178,1319.944,830.294,1316.926,829.366,1313.2Z" transform="translate(-721.56 -1309.197)" fill="#f0551c"/>
          <path id="Trazado_101223" data-name="Trazado 101223" d="M801.1,1328.871a17.971,17.971,0,0,0-3.45,2.852c-.84-1.468-3.09-2.064-3.974-.14-1.566,3.406-3.017,6.873-2.64,10.7.343,3.475,2,6.593,2.58,10,.682,3.987-1.984,6.46-3.093,10.022-.813,2.61-.547,6.137,2.517,7.066,3.138.95,4.495-1.732,4.728-4.338.35-3.9,1.953-7.215,1.536-11.248-.413-3.98-1.924-8.006-1.478-12.038a12.09,12.09,0,0,1,5.648-8.82C806.022,1331.314,803.665,1327.243,801.1,1328.871Z" transform="translate(-723.095 -1307.76)" fill="#f0551c"/>
          <path id="Trazado_101224" data-name="Trazado 101224" d="M833.86,1346.86a24.765,24.765,0,0,0-2.438-10.517c-1.3-2.952-2.613-6.36-5.846-7.539a2.035,2.035,0,0,0-2.785,1.638c-2.3-1.119-4.293,2.625-1.988,4.289a14.458,14.458,0,0,1,5.661,8.741c.8,3.832-.443,7.5-1.25,11.21-.776,3.574-1.229,7.425.167,10.911.976,2.436,3.649,5.11,6.3,2.934,2.686-2.206,1.127-6.734.945-9.616C832.364,1354.828,833.767,1350.92,833.86,1346.86Z" transform="translate(-720.887 -1307.748)" fill="#f0551c"/>
          <path id="Trazado_101225" data-name="Trazado 101225" d="M832.183,1338.286c-.489-2.411-3.582-2.03-4.393-.209h0c-.237-.249-.6-.431-.862-.672a7.518,7.518,0,0,1-1.49-1.991,10.846,10.846,0,0,1-1.187-4.6,2.439,2.439,0,0,0-4.43-1.219,2.469,2.469,0,0,0-2.178-.89,2.418,2.418,0,0,0-2.492-1.094c-3.956.672-7.427,3.127-11.269,4.237-2.179.63-5.984.47-7.535,2.334a2.264,2.264,0,0,0-2.628,2.25c-.018,2.741-.255,5.373,3.108,5.791a39.937,39.937,0,0,0,10.507-.318c5.159-.774,10.971-3.4,12.52-8.555a13.124,13.124,0,0,0,4.393,7.931c1.533,1.248,3.442,2.207,5.442,1.583A3.782,3.782,0,0,0,832.183,1338.286Z" transform="translate(-722.828 -1307.828)" fill="#f0551c"/>
          <path id="Trazado_101226" data-name="Trazado 101226" d="M761.452,1690.349c-.972-.9-2.221-2.319-3.628-2.48-1.125-.129-1.789,1.363-1.843,2.318a2.193,2.193,0,0,0,.723,2.007c.954.869,3.285.958,4.46.443C762.419,1692.086,762.42,1691.25,761.452,1690.349Z" transform="translate(-725.639 -1280.995)" fill="#f8a9a3"/>
          <path id="Trazado_101227" data-name="Trazado 101227" d="M774.76,1678.48c-2.685-.763-5.394-1.166-8-2.18-.63-.244-.979.74-.353.985,2.625,1.026,5.3,1.411,8,2.182C775.053,1679.652,775.41,1678.663,774.76,1678.48Z" transform="translate(-724.886 -1281.859)" fill="#87553f"/>
          <path id="Trazado_101228" data-name="Trazado 101228" d="M821.073,1348.036c0,.848-.443,1.534-.987,1.534s-.986-.687-.986-1.534.442-1.534.986-1.534S821.073,1347.189,821.073,1348.036Z" transform="translate(-720.937 -1306.418)" fill="#28282b"/>
          <path id="Trazado_101229" data-name="Trazado 101229" d="M802.09,1348.2c0,.848.442,1.536.987,1.536s.986-.688.986-1.536-.442-1.534-.986-1.534S802.09,1347.349,802.09,1348.2Z" transform="translate(-722.204 -1306.406)" fill="#28282b"/>
          <path id="Trazado_101230" data-name="Trazado 101230" d="M812.282,1361.006h-.522c-2.778,0-5.01-1.295-5.01-4.072h10.58C817.33,1359.712,815.06,1361.006,812.282,1361.006Z" transform="translate(-721.857 -1305.641)" fill="#fff"/>
          <path id="Trazado_101231" data-name="Trazado 101231" d="M812.387,1347.407c-.354-.214-.883-.263-1.238.478-.07.145-1.469,5.761-.9,6.689.4.662,2.745.749,3.478-.018C814.267,1353.99,812.919,1347.728,812.387,1347.407Z" transform="translate(-721.607 -1306.361)" fill="#ed8e87"/>
          <path id="Trazado_101232" data-name="Trazado 101232" d="M806.969,1343.362c-2.494-.473-5.471-.634-7.727.706a.365.365,0,0,0,.229.662,44.192,44.192,0,0,1,7.381.055C807.668,1344.819,807.758,1343.511,806.969,1343.362Z" transform="translate(-722.428 -1306.678)" fill="#f0551c"/>
          <path id="Trazado_101233" data-name="Trazado 101233" d="M817.017,1343.141c2.513-.352,5.495-.368,7.683,1.079a.365.365,0,0,1-.26.649,44.288,44.288,0,0,0-7.374-.3C816.249,1344.562,816.222,1343.252,817.017,1343.141Z" transform="translate(-721.136 -1306.683)" fill="#f0551c"/>
        </g>
        <g id="Grupo_54131" data-name="Grupo 54131" transform="translate(859.43 17.814)">
          <path id="Trazado_101234" data-name="Trazado 101234" d="M984.784,1677.48l1.739-35.033h-12.65l.118,35.246c-1.755,3.683-2.426,2.6-2.4,3.183A24.616,24.616,0,0,0,974.85,1683a3.379,3.379,0,0,0,1.77.432c.628,2.458,2.039,4.3,5.439,4.1,3.116-.179,4.735-.855,4.143-3.768C985.749,1681.542,985.015,1679.655,984.784,1677.48Z" transform="translate(-898.404 -1265.588)" fill="#f8b286"/>
          <path id="Trazado_101235" data-name="Trazado 101235" d="M987.945,1680.532a1.369,1.369,0,0,0-1.86-1.251,10.458,10.458,0,0,1-6.762.025,27.893,27.893,0,0,0-5.682-1.561,3.4,3.4,0,0,0-2.539.75c-1.7,1.141-11.692,5.044-12.855,7.86-.776,1.881.472,4.193,3.2,4.667a16.269,16.269,0,0,0,4.433.077l6.388-.8c3.818-.479,7.638-.933,11.452-1.438,3.464-.459,4.081-2.031,4.2-5.344Q987.974,1682.024,987.945,1680.532Z" transform="translate(-899.414 -1262.961)" fill="#28282b"/>
          <path id="Trazado_101236" data-name="Trazado 101236" d="M1041.876,1679.367l-8.064-35.033h12.65l6.206,35.246c1.756,3.683,2.426,2.6,2.4,3.183a24.622,24.622,0,0,1-3.262,2.128,3.381,3.381,0,0,1-1.77.432c-.627,2.458-2.039,4.3-5.439,4.1-3.116-.179-4.734-.856-4.143-3.768C1040.91,1683.429,1041.645,1681.542,1041.876,1679.367Z" transform="translate(-893.769 -1265.448)" fill="#f8b286"/>
          <path id="Trazado_101237" data-name="Trazado 101237" d="M1039.315,1682.419a1.369,1.369,0,0,1,1.861-1.251,10.456,10.456,0,0,0,6.762.025,27.887,27.887,0,0,1,5.681-1.561,3.4,3.4,0,0,1,2.54.75c1.7,1.141,11.692,5.043,12.854,7.86.776,1.882-.472,4.192-3.2,4.667a16.261,16.261,0,0,1-4.432.077l-6.389-.8c-3.817-.479-7.638-.933-11.452-1.438-3.464-.459-4.081-2.031-4.2-5.344Q1039.286,1683.911,1039.315,1682.419Z" transform="translate(-893.36 -1262.821)" fill="#28282b"/>
          <path id="Trazado_101238" data-name="Trazado 101238" d="M1038.57,1481.087c-.653-2.9-12.573-1.833-13.011.877.206-.342.2-.283-.016.169.061-.146-6.968,4.071-8.227,4.714a6.117,6.117,0,0,0-3.23,1.649l-3.806,1.943c-1.12.572-43.547-6.277-43.855-3.319-1.236,11.917,3.667,155.421,5.168,187.351.108,2.29,16.552,2.175,16.646-.083,1.167-28.409,18.049-132.6,18.494-137.386,1.216,5.807,24.339,108.564,31.224,136.585.54,2.194,18.307.05,18.254-2.241C1055.873,1656.652,1041.2,1492.775,1038.57,1481.087Z" transform="translate(-898.803 -1277.734)" fill="#28282b"/>
          <path id="Trazado_101239" data-name="Trazado 101239" d="M904.164,1500.053c.391-2.216.947-4.606,2.732-6.129,2.12-1.806,5.235-1.143,7.413-2.6.222-.25,30.069-69.29,30.069-69.29l20.313,4.682s-34.728,59.761-44.433,71.047c-.858,1.256-.876,4.243-3.549,7.3-3.034,3.477-6.032,3-7.112,2.568-1.838-.727-6.307-3.62-6.115-5.805A3.807,3.807,0,0,1,904.164,1500.053Z" transform="translate(-903.476 -1282.004)" fill="#f8a9a3"/>
          <path id="Trazado_101240" data-name="Trazado 101240" d="M1086.588,1507.5c-.138-2.246-.418-4.684-2.021-6.4-1.9-2.035-5.072-1.729-7.07-3.424-.192-.274-26.344-85.336-26.344-85.336l-16.4,15.44s27.74,63.308,36.1,75.62c.71,1.345.39,4.315,2.7,7.659,2.622,3.8,5.655,3.659,6.777,3.357,1.908-.515,6.676-2.883,6.733-5.076A3.827,3.827,0,0,0,1086.588,1507.5Z" transform="translate(-893.7 -1282.725)" fill="#f8a9a3"/>
          <path id="Trazado_101241" data-name="Trazado 101241" d="M1066.755,1415.016c-.588-3.537-3.451-4.738-6.461-4.491-.08-.306-.157-.609-.228-.906-3.339-13.9-2.219-31.357-37.161-39.942-8.4-2.064-17.2-4.588-25.836-3.771a6.34,6.34,0,0,0-4.261,2.106c-41.946,9.125-42.827,26.454-50.078,47.767a4.122,4.122,0,0,0-4.086,1.4c-6.3,7.448,7.722,14.4,13.527,16.179,4.007,1.228,8.944,2.492,13.327,1.9.36,10.59.877,54.7,2.9,64.4.614,2.937,72.836-.558,73.063-5.531.378-8.306-.864-48.38-1.111-61.936a61.191,61.191,0,0,0,5.935-1.639c2.532-.807,5.055-1.757,7.53-2.809a14.2,14.2,0,0,0,5.016-2.3l.186-.09C1062.971,1423.395,1067.6,1420.122,1066.755,1415.016Z" transform="translate(-900.976 -1286.196)" fill="#ffd9d9"/>
          <path id="Trazado_101242" data-name="Trazado 101242" d="M1015.5,1316.069c4.384-2.91,5.517-8.557,4.2-13.433-2.886-10.712-15.125-13.581-24.14-8.46a15.517,15.517,0,0,0-7.965,13.6,12.96,12.96,0,0,0,.4,2.741,16.752,16.752,0,0,0-4.631,7.559c-3.255,6.492-2.442,13.87-.408,20.619,2.059,6.829,12.578,3.983,10.716-2.954q-.151-.566-.279-1.137a5.132,5.132,0,0,0,.512-.765,6.809,6.809,0,0,0,4.25,2.587c3.085.523,5.511-1.284,7.09-3.772.254-.4.489-.817.712-1.241.186,2.034.324,4.069.674,6.1.96,5.568,9.425,5.035,10.737,0,1.736-6.666,1.806-13.594-1.1-19.939C1016.043,1317.061,1015.779,1316.563,1015.5,1316.069Z" transform="translate(-897.689 -1291.71)" fill="#87553f"/>
          <path id="Trazado_101243" data-name="Trazado 101243" d="M979.335,1335.584a2.173,2.173,0,0,1,2.49-2.045c1.582.205,2.2,1.627,2.781,2.923a1.4,1.4,0,0,1-.738,1.859,1.164,1.164,0,0,1-.045.188,23.909,23.909,0,0,0,1.326,4.546c.525,1.315-1.275,2.037-2.163,1.286A10.868,10.868,0,0,1,979.335,1335.584Z" transform="translate(-897.83 -1288.596)" fill="#ed8e87"/>
          <path id="Trazado_101244" data-name="Trazado 101244" d="M1018.88,1335.584a2.173,2.173,0,0,0-2.49-2.045c-1.582.205-2.2,1.627-2.781,2.923a1.4,1.4,0,0,0,.738,1.859,1.177,1.177,0,0,0,.045.188,23.9,23.9,0,0,1-1.326,4.546c-.525,1.315,1.275,2.037,2.163,1.286A10.868,10.868,0,0,0,1018.88,1335.584Z" transform="translate(-895.322 -1288.596)" fill="#ed8e87"/>
          <path id="Trazado_101245" data-name="Trazado 101245" d="M1010.957,1322.009a16.866,16.866,0,0,0-16.522-4.078c-7.3,2.019-10.088,7.205-11.218,15.206a38.418,38.418,0,0,0,2.637,19.883c2.208,5.311,6.167,11.079,12.146,12.391,6.218,1.365,11.769-3.516,14.981-8.309,3.439-5.128,4.279-11.449,4.132-17.5C1016.958,1333.131,1015.777,1326.7,1010.957,1322.009Z" transform="translate(-897.563 -1289.807)" fill="#f8a9a3"/>
          <rect id="Rectángulo_5437" data-name="Rectángulo 5437" width="18.137" height="35.471" transform="translate(93.539 58.096)" fill="#f8a9a3"/>
          <path id="Trazado_101246" data-name="Trazado 101246" d="M1017.774,1357.953c-.154-4.455-.093-8.908.155-13.36a1.182,1.182,0,0,0-2.014-.849.617.617,0,0,0-.257.114,21.115,21.115,0,0,1-30.276-.537,1.058,1.058,0,0,0-1.465-.142,1.227,1.227,0,0,0-.959,1.091,99.233,99.233,0,0,0,.174,22.886c.7,5.354,2.321,10.988,7.01,14.194,4.851,3.316,11.986,3.223,17.376,1.386,5.6-1.907,8.867-6.934,9.909-12.58C1018.171,1366.125,1017.914,1362.023,1017.774,1357.953Z" transform="translate(-897.6 -1287.894)" fill="#87553f"/>
          <path id="Trazado_101247" data-name="Trazado 101247" d="M1015.231,1329.953c-4.252-.186-8.508-.271-12.764-.279-.586,0-.678.248-.681,1.155,0,.259-.028.539-.036.836a9.479,9.479,0,0,0-3.622-.2c-.008-.222-.024-.436-.029-.635-.021-.866-.1-1.157-.681-1.155-4.256.009-8.512.094-12.764.279-.578,0-1.1.228-1.011.864.324,2.3.576,5.784,2.291,7.572,1.458,1.52,3.823,1.354,5.741,1.358,1.893.005,4.229.36,5.379-1.507a11.384,11.384,0,0,0,1.088-5.307,8.238,8.238,0,0,1,3.607.224,11.028,11.028,0,0,0,1.083,5.082c1.15,1.868,3.486,1.513,5.379,1.507,1.918,0,4.283.162,5.741-1.358,1.715-1.788,1.966-5.274,2.291-7.572C1016.333,1330.181,1015.8,1329.969,1015.231,1329.953Zm-19.007,6.232c-.685,2.433-3.378,2.124-5.316,2.111-2.163-.013-3.988-.32-4.765-2.646a26.725,26.725,0,0,1-.974-4.274c3.831-.138,7.66-.227,11.494-.246A17.02,17.02,0,0,1,996.224,1336.185Zm17.518-.535c-.777,2.326-2.6,2.634-4.765,2.646-1.937.013-4.631.321-5.315-2.111a17.008,17.008,0,0,1-.439-5.055c3.834.019,7.663.109,11.494.246A26.711,26.711,0,0,1,1013.742,1335.65Z" transform="translate(-897.507 -1288.882)" fill="#f0551c"/>
          <path id="Trazado_101248" data-name="Trazado 101248" d="M1006.789,1334.118c0,.779-.407,1.411-.908,1.411s-.907-.633-.907-1.412.407-1.411.908-1.411S1006.79,1333.339,1006.789,1334.118Z" transform="translate(-895.917 -1288.656)" fill="#28282b"/>
          <path id="Trazado_101249" data-name="Trazado 101249" d="M992.365,1333.916c0,.779-.407,1.411-.909,1.411s-.907-.632-.906-1.412.406-1.411.908-1.411S992.365,1333.137,992.365,1333.916Z" transform="translate(-896.991 -1288.672)" fill="#28282b"/>
          <path id="Rectángulo_5438" data-name="Rectángulo 5438" d="M0,0H11.842a0,0,0,0,1,0,0V1.962a2.19,2.19,0,0,1-2.19,2.19H2.19A2.19,2.19,0,0,1,0,1.962V0A0,0,0,0,1,0,0Z" transform="translate(96.432 56.021)" fill="#fff"/>
          <path id="Trazado_101250" data-name="Trazado 101250" d="M1000.864,1337.568a11.609,11.609,0,0,0-.628-2.668c-.188-.514-.436-1.485-.942-1.79-.336-.2-.84-.25-1.178.455-.067.137-.341.9-.411,1.141-.518,1.546-1.134,3.715-.45,5.223.3.673,1.766.657,2.236.6C1000.993,1340.348,1001,1338.74,1000.864,1337.568Z" transform="translate(-896.515 -1288.636)" fill="#ed8e87"/>
          <path id="Trazado_101251" data-name="Trazado 101251" d="M1009.956,1345.889c-3.07-1.835-6.437-4.386-9.9-5.355a2.554,2.554,0,0,1-.827-.019c-3.547.568-7.183,2.718-10.443,4.19-1.623.734-2.327,2.013-.424,3.191,2.09,1.294,5.391-.144,7.319-1.127a14.905,14.905,0,0,0,3.755-2.434,15.075,15.075,0,0,0,3.431,2.817c1.8,1.2,4.92,3,7.143,1.954C1012.038,1348.153,1011.485,1346.8,1009.956,1345.889Z" transform="translate(-897.239 -1288.076)" fill="#87553f"/>
          <path id="Trazado_101252" data-name="Trazado 101252" d="M1011.142,1326.807c-.926-1.773-2.943-1.424-4.668-1.26-1.666.157-3.95.257-5.11,1.582a.833.833,0,0,0,.4,1.371c1.412.427,2.915-.213,4.348-.4,1.591-.2,3.192-.032,4.72-.526A.59.59,0,0,0,1011.142,1326.807Z" transform="translate(-896.203 -1289.2)" fill="#87553f"/>
          <path id="Trazado_101253" data-name="Trazado 101253" d="M986.766,1326.807c.926-1.773,2.944-1.424,4.669-1.26,1.667.157,3.951.257,5.111,1.582a.834.834,0,0,1-.4,1.371c-1.412.427-2.915-.213-4.348-.4-1.591-.2-3.192-.032-4.72-.526A.59.59,0,0,1,986.766,1326.807Z" transform="translate(-897.277 -1289.2)" fill="#87553f"/>
        </g>
        <g id="Grupo_54132" data-name="Grupo 54132" transform="translate(0 79.141)">
          <rect id="Rectángulo_5439" data-name="Rectángulo 5439" width="18.137" height="35.471" transform="translate(84.52 35.935)" fill="#f8a9a3"/>
          <path id="Trazado_101254" data-name="Trazado 101254" d="M200.415,1389.966a3.328,3.328,0,0,0-2.99,2.862c-.127.87.3.292-.421.883a4.7,4.7,0,0,1-1.077.547,13.75,13.75,0,0,1-3.875.991,23.472,23.472,0,0,1-4.075.044c-.806-.049-2.624.046-3.27-.544a4.075,4.075,0,0,0-2.429-1.11v8.986c3.721,1.431,8.494,1.123,12.073.55a18.486,18.486,0,0,0,6.064-2Z" transform="translate(-97.758 -1345.719)" fill="#ed8e87"/>
          <path id="Trazado_101255" data-name="Trazado 101255" d="M180.656,1684.705a17.165,17.165,0,0,1-4.073,5.018c-1.3,1.1-6.876,5.24-7.982,1.747-.312-.984-3.27,1.4-2.962,2.394.914,2.965,5.768,1.683,7.97.281a26.792,26.792,0,0,0,8.4-8.825C182.495,1684.4,181.154,1683.788,180.656,1684.705Z" transform="translate(-98.999 -1323.802)" fill="#28282b"/>
          <path id="Trazado_101256" data-name="Trazado 101256" d="M182.513,1680.309c-.175-.546-.623,1.635-1.067,2.2a23.789,23.789,0,0,0-1.559,2.32c-.384.619-1.212,1.477-.943,2.259.119.345.473.385.781.6.906.616,2.624-2.524,3.191-3.839C183.109,1683.393,183.454,1681.233,182.513,1680.309Z" transform="translate(-98.01 -1324.102)" fill="#28282b"/>
          <path id="Trazado_101257" data-name="Trazado 101257" d="M163.618,1597.888c4.822,30.476,10.212,61.949,13.215,85.973-1.152,2.984-3.524,5.406-5.6,7.949-1.484,1.823-4.095,6.212-.066,7.016,2.968.592,6.814-2.923,8.448-4.909,4.671-5.684,4.671-5.684,4.671-15.692,0-4.714,2.112-90.915,2.112-90.915S163.284,1595.776,163.618,1597.888Z" transform="translate(-99.148 -1331.021)" fill="#f8a9a3"/>
          <path id="Trazado_101258" data-name="Trazado 101258" d="M195.2,1682.09a17.183,17.183,0,0,0,4.073,5.018c1.3,1.1,6.876,5.241,7.982,1.747.312-.984,3.27,1.4,2.963,2.394-.915,2.964-5.768,1.683-7.97.28a26.783,26.783,0,0,1-8.4-8.825C193.366,1681.787,194.706,1681.173,195.2,1682.09Z" transform="translate(-96.903 -1323.997)" fill="#28282b"/>
          <path id="Trazado_101259" data-name="Trazado 101259" d="M192.5,1677.694c.175-.546.624,1.635,1.067,2.2a23.773,23.773,0,0,1,1.559,2.32c.384.619,1.212,1.477.943,2.259-.119.345-.472.385-.781.6-.906.616-2.624-2.524-3.191-3.839C191.9,1680.778,191.557,1678.618,192.5,1677.694Z" transform="translate(-97.043 -1324.297)" fill="#28282b"/>
          <path id="Trazado_101260" data-name="Trazado 101260" d="M215.713,1614.528c-4.822,30.477-12.888,53.321-16.466,65.063,1.152,2.984,3.525,5.406,5.6,7.949,1.485,1.823,4.095,6.212.066,7.016-2.968.592-6.814-2.923-8.448-4.909-4.671-5.684-4.037-5.043-2.64-14.953,1.151-8.166,7.251-67.777,7.251-67.777S216.047,1612.417,215.713,1614.528Z" transform="translate(-96.974 -1329.561)" fill="#f8a9a3"/>
          <path id="Trazado_101261" data-name="Trazado 101261" d="M209,1432.514c.2,4.137,11.171,23.919,23.416,42.848,9.37,14.487,20.18,28.475,23.343,34.564.021,1.479-.789,2.581-1.36,3.976a7.777,7.777,0,0,0-.41,4.237c.394,2.423,1.674,6.114,4.16,7.16a1.536,1.536,0,0,0,1.607-.19c.861,1.07,1.982,2.043,3.256,1.68a1.421,1.421,0,0,0,1.227-1.444,2.827,2.827,0,0,0,1.512-.719c1.851-1.7,1.706-5.338,1.356-7.63a15.443,15.443,0,0,0-2.995-6.985l0-.015c-3.183-9.588-12.37-26.442-19.225-41.24-6.911-14.921-11.478-27.75-11.9-28.923C232.064,1437.314,208.868,1429.849,209,1432.514Z" transform="translate(-95.768 -1342.592)" fill="#f8a9a3"/>
          <path id="Trazado_101262" data-name="Trazado 101262" d="M163,1419.357c-2.9,1.572-10.431,29.541-20.409,49.942-8.986,18.371-20.353,29.093-25.256,35.066-1.409.627-2.812.323-4.395.361a8.287,8.287,0,0,0-4.238,1.359c-2.154,1.366-5.146,4.081-5.085,6.838a1.574,1.574,0,0,0,.869,1.426c-.658,1.245-1.11,2.695-.218,3.737a1.524,1.524,0,0,0,1.91.556,2.988,2.988,0,0,0,1.336,1.119c2.422,1.033,5.849-.6,7.9-1.871a15.815,15.815,0,0,0,5.418-5.674l.014-.009c9-7.953,24.168-19.738,34.061-35.549,7.4-11.827,15.6-29.086,16.4-29.837C173.326,1444.927,165.445,1418.032,163,1419.357Z" transform="translate(-103.616 -1343.534)" fill="#f8a9a3"/>
          <path id="Trazado_101263" data-name="Trazado 101263" d="M212.511,1359.369c-3.9-6.478-11.457-10.924-19.1-10.562-7.593.36-14.99,4.875-18.187,11.886a20.65,20.65,0,0,0,1.629,20.013c-1.473,2.164-2.478,4.766-4.418,6.7-3.243,3.231-7.818,4.782-11.833,6.792-3.944,1.974-7.782,4.539-9.756,8.63-1.222,2.531-1.618,5.319-2.612,7.926-1.1,2.885-3.344,4.8-5.279,7.108-3.155,3.758-4.489,8.339-1.977,12.857a10.081,10.081,0,0,0,11.93,4.75c4.82-1.533,8.02-5.64,9.783-10.193,1.068-2.759,1.836-5.58,4.288-7.466,2.228-1.715,4.98-2.619,7.352-4.106,9.968-6.25,12.225-18.306,9.15-28.827,3.245,1.1,7.446-.551,7.385-5.009-.047-3.439-.256-7.327,1.221-10.546.867-1.888,2.886-3.606,4.208-3.788a2.046,2.046,0,0,1,2.058.526,7.517,7.517,0,0,1,1.784,2.8,25.169,25.169,0,0,1,1.34,11.168c-.446,5.855,7.6,7.118,10.391,2.814A22.559,22.559,0,0,0,212.511,1359.369Z" transform="translate(-100.931 -1348.786)" fill="#87553f"/>
          <path id="Trazado_101264" data-name="Trazado 101264" d="M236.687,1585.706c-.4-6.531-9.582-89.3-12.1-103.767-.418-2.4-68.269,1.884-68.532,4.324-1.338,12.374-5.089,45.536-4.381,58.464.7,12.9,2.4,25.754,3.764,38.592,1.388,13.019,7.069,50.563,8.639,65.329.249,2.341,27.475,2.573,27.481-.02.1-43.406,1.275-67.268,2.075-103.76,3.8,15.7,6.42,38.289,10.713,53.861-1.206,9.169-6.127,47.172-6.2,51-.088,4.434,23.173,10.55,23.968,7.462C227.326,1636.94,236.931,1589.681,236.687,1585.706Z" transform="translate(-100.044 -1338.922)" fill="#28282b"/>
          <path id="Trazado_101265" data-name="Trazado 101265" d="M250.267,1458.181c-.114-1.884-1.137-3.668-1.845-5.387l-2.369-5.753c-2.751-6.681-5.174-13.719-9.006-19.878a50.69,50.69,0,0,0-12.265-13.422,49.938,49.938,0,0,0-5.186-3.481q-.271-.158-.545-.314c-8.841-5.015-16.538,3.07-26.714,4.168-8.387.9-18.814-6.61-25.656-2.1q-.3.2-.608.407a54.556,54.556,0,0,0-9.7,8.446c-9.19,10.115-15.121,22.624-20.588,35.009a4.784,4.784,0,0,0,.963,5.716,3.535,3.535,0,0,0,.942,1.259c7.075,5.927,11.389,8.472,20.363,11.107.072.874-1.419,17.525-.787,17.73,7.647,2.481,66.163,1.069,69.173-2.081.531-.556-.91-16.372-.952-16.782,2.13-.67,13.88-3.554,19.235-7.074C247.5,1463.934,250.493,1461.893,250.267,1458.181Z" transform="translate(-101.259 -1344.352)" fill="#f0551c"/>
          <path id="Trazado_101266" data-name="Trazado 101266" d="M187.438,1404.03a51.7,51.7,0,0,0-22.536,7.957,26.58,26.58,0,0,0,10.334,3.643,104.032,104.032,0,0,0,16.73,1.176c8.569-.1,17.409-1.9,24.458-6.755A49.043,49.043,0,0,0,187.438,1404.03Z" transform="translate(-99.052 -1344.692)" fill="#f8a9a3"/>
          <path id="Trazado_101267" data-name="Trazado 101267" d="M173.043,1377.248a2.021,2.021,0,0,1,2.274-1.952c1.474.158,2.076,1.469,2.645,2.661a1.306,1.306,0,0,1-.648,1.744,1.055,1.055,0,0,1-.039.175,22.292,22.292,0,0,0,1.326,4.2c.516,1.212-1.144,1.921-1.986,1.24A10.111,10.111,0,0,1,173.043,1377.248Z" transform="translate(-98.447 -1346.812)" fill="#ed8e87"/>
          <path id="Trazado_101268" data-name="Trazado 101268" d="M208.917,1376.831a2.02,2.02,0,0,0-2.273-1.952c-1.475.158-2.077,1.469-2.646,2.661a1.307,1.307,0,0,0,.648,1.744,1.179,1.179,0,0,0,.039.175,22.211,22.211,0,0,1-1.326,4.2c-.515,1.212,1.144,1.921,1.986,1.24A10.111,10.111,0,0,0,208.917,1376.831Z" transform="translate(-96.195 -1346.844)" fill="#ed8e87"/>
          <path id="Trazado_101269" data-name="Trazado 101269" d="M202.644,1358.494a17.977,17.977,0,0,0-16.982-4.667c-7.3,2.019-9.868,7.855-10.2,13.737-.038.656-.522,15.678,2.082,21.942,2.208,5.311,6.167,11.079,12.146,12.391,6.218,1.366,11.77-3.516,14.982-8.308,3.438-5.129,4.277-11.451,4.131-17.5C208.645,1369.616,207.465,1363.183,202.644,1358.494Z" transform="translate(-98.27 -1348.453)" fill="#f8a9a3"/>
          <path id="Trazado_101270" data-name="Trazado 101270" d="M211.476,1368.753c-.619-.669-1.271-1.314-1.939-1.948a3.412,3.412,0,0,0,.641-3.67c-2.62-7.3-10.355-10.73-17.615-11.7a13.131,13.131,0,0,0-9.593,1.879c-3.593,1.329-6.281,4.707-8.1,7.95a3.77,3.77,0,0,0,.118,4.275c-.056.067-.115.13-.17.2-.682.843-.132,1.723.79,2.149-1.75,2.286-2.125,1.735-2.5,4.383-.232,1.644,2.1,5.834,3.122,4.552,2.441-3.069,6.783-5.815,9.806-8.543a29.827,29.827,0,0,0,4.843-5.568c4.926-.31,5.595.543,8.32,2.242,3.671,2.292,5.751,7.875,8.414,10.948,1.184,1.366,3.942.788,4.055-.811a6.353,6.353,0,0,0-1.246-4.112C211.569,1370.645,212.365,1369.715,211.476,1368.753Z" transform="translate(-98.442 -1348.603)" fill="#87553f"/>
          <path id="Trazado_101271" data-name="Trazado 101271" d="M179.318,1375.062a8.071,8.071,0,0,1,3.549-.571,7.773,7.773,0,0,1,3.713.62c.393.242.188.679-.3.823a11,11,0,0,1-3.305.144,14.546,14.546,0,0,1-3.6-.348C178.923,1375.606,178.936,1375.231,179.318,1375.062Z" transform="translate(-97.999 -1346.871)" fill="#87553f"/>
          <path id="Trazado_101272" data-name="Trazado 101272" d="M202.237,1375.167a8.061,8.061,0,0,0-3.532-.674,7.759,7.759,0,0,0-3.73.51c-.4.23-.207.674.271.832a11,11,0,0,0,3.3.24,14.475,14.475,0,0,0,3.61-.242C202.614,1375.724,202.613,1375.348,202.237,1375.167Z" transform="translate(-96.828 -1346.872)" fill="#87553f"/>
          <path id="Trazado_101273" data-name="Trazado 101273" d="M198.238,1379.541c0,.779-.406,1.411-.907,1.411s-.907-.632-.907-1.411.406-1.412.907-1.412S198.238,1378.761,198.238,1379.541Z" transform="translate(-96.704 -1346.601)" fill="#28282b"/>
          <path id="Trazado_101274" data-name="Trazado 101274" d="M182.951,1379.756c0,.78.406,1.412.907,1.412s.908-.632.908-1.412-.407-1.411-.908-1.411S182.951,1378.977,182.951,1379.756Z" transform="translate(-97.708 -1346.584)" fill="#28282b"/>
          <path id="Trazado_101275" data-name="Trazado 101275" d="M191.528,1391.842h-.48c-2.554,0-4.623-.857-4.623-3.411h9.727C196.151,1390.985,194.081,1391.842,191.528,1391.842Z" transform="translate(-97.449 -1345.833)" fill="#fff"/>
          <path id="Trazado_101276" data-name="Trazado 101276" d="M190.995,1379.084c-.324-.2-.811-.242-1.138.44-.063.133-1.351,5.3-.829,6.149.372.609,2.524.689,3.2-.016C192.724,1385.136,191.485,1379.378,190.995,1379.084Z" transform="translate(-97.264 -1346.539)" fill="#ed8e87"/>
          <path id="Trazado_101277" data-name="Trazado 101277" d="M184.507,1677.242c-.516-1.621-1.734-.8-2.464.179-.283.377-1.112,1.86-1.774,1.761-.406-.061-.545-.564-.746-.841a3.09,3.09,0,0,0-1.942-1.248,2.567,2.567,0,0,0-2.867,1.624c-2.125,3.048-4.3,6.075-6.3,9.2-.977,1.528-3.822,5.244-2.525,7.092.2.289.852,0,1.165-.058a1.486,1.486,0,0,0,.957-.615,1.082,1.082,0,0,0,.655.621,2.029,2.029,0,0,0,1.931-.311.186.186,0,0,0,.026,0c2.956-.66,5.04-2.892,7.164-4.908a32.838,32.838,0,0,0,4.79-4.9c.517.187,1.439-1.225,1.545-1.86.244-1.458.243-1.671.488-3.129A6.588,6.588,0,0,0,184.507,1677.242Z" transform="translate(-99.003 -1324.392)" fill="#28282b"/>
          <path id="Trazado_101278" data-name="Trazado 101278" d="M192.194,1675.033c.516-1.621,1.279-.714,2.009.261.282.377.816,1.86,1.477,1.761.406-.061.545-.563.746-.841a3.09,3.09,0,0,1,1.943-1.246,2.564,2.564,0,0,1,2.867,1.624c2.125,3.047,4.3,6.074,6.3,9.2.977,1.528,3.849,4.781,2.553,6.63a1.521,1.521,0,0,1-1.193.405,1.5,1.5,0,0,1-.958-.615,1.078,1.078,0,0,1-.655.62,2.029,2.029,0,0,1-1.931-.309l-.026,0c-2.956-.661-5.039-2.894-7.162-4.908a32.8,32.8,0,0,1-4.791-4.9c-.517.188-1.438-1.225-1.544-1.859A21.725,21.725,0,0,1,192.194,1675.033Z" transform="translate(-97.052 -1324.555)" fill="#28282b"/>
        </g>
      </g>
      <g id="_Cómo_finalizar_este_componente_de_formación_" data-name=" Cómo finalizar este componente de formación " transform="translate(211.025 1200.318)">
        <text id="Anatomía" transform="translate(0 27)" fill="#ea526f" font-size="26" font-family="Roboto-Bold, Roboto" font-weight="700" style="isolation: isolate"><tspan x="0" y="0">Anatomía</tspan></text>
      </g>
      <g id="Grupo_54134" data-name="Grupo 54134" transform="translate(420.824 1782.802)">
        <rect id="Rectángulo_5534-2" data-name="Rectángulo 5534" width="217.317" height="56.477" rx="8.337" fill="#ffcad7"/>
        <rect id="Rectángulo_5535-2" data-name="Rectángulo 5535" width="218.823" height="56.477" rx="8.337" fill="none" stroke="#ea526f" stroke-miterlimit="10" stroke-width="4"/>
      </g>
      <g id="_Cómo_finalizar_este_componente_de_formación_2" data-name=" Cómo finalizar este componente de formación " transform="translate(466.65 1790.752)">
        <text id="Ergonomía" transform="translate(0 27)" fill="#ea526f" font-size="26" font-family="Roboto-Bold, Roboto" font-weight="700" style="isolation: isolate"><tspan x="0" y="0">Ergonomía</tspan></text>
      </g>
      <g id="Grupo_54135" data-name="Grupo 54135" transform="translate(853.635 1782.802)">
        <rect id="Rectángulo_5534-3" data-name="Rectángulo 5534" width="217.317" height="56.477" rx="8.337" fill="#ffcad7"/>
        <rect id="Rectángulo_5535-3" data-name="Rectángulo 5535" width="218.823" height="56.477" rx="8.337" fill="none" stroke="#ea526f" stroke-miterlimit="10" stroke-width="4"/>
      </g>
      <g id="_Cómo_finalizar_este_componente_de_formación_3" data-name=" Cómo finalizar este componente de formación " transform="translate(877.951 1790.752)">
        <text id="Antropometría" transform="translate(0 27)" fill="#ea526f" font-size="26" font-family="Roboto-Bold, Roboto" font-weight="700" style="isolation: isolate"><tspan x="0" y="0">Antropometría</tspan></text>
      </g>
      <g id="Grupo_54136" data-name="Grupo 54136" transform="translate(650.883 1192.368)">
        <rect id="Rectángulo_5534-4" data-name="Rectángulo 5534" width="217.317" height="56.477" rx="8.337" fill="#ffcad7"/>
        <rect id="Rectángulo_5535-4" data-name="Rectángulo 5535" width="218.823" height="56.477" rx="8.337" fill="none" stroke="#ea526f" stroke-miterlimit="10" stroke-width="4"/>
      </g>
      <g id="_Cómo_finalizar_este_componente_de_formación_4" data-name=" Cómo finalizar este componente de formación " transform="translate(684.28 1200.318)">
        <text id="Biomecánica" transform="translate(0 27)" fill="#ea526f" font-size="26" font-family="Roboto-Bold, Roboto" font-weight="700" style="isolation: isolate"><tspan x="0" y="0">Biomecánica</tspan></text>
      </g>
      <g id="Grupo_54137" data-name="Grupo 54137" transform="translate(1065.623 1192.368)">
        <rect id="Rectángulo_5534-5" data-name="Rectángulo 5534" width="217.317" height="56.477" rx="8.337" fill="#ffcad7"/>
        <rect id="Rectángulo_5535-5" data-name="Rectángulo 5535" width="218.823" height="56.477" rx="8.337" fill="none" stroke="#ea526f" stroke-miterlimit="10" stroke-width="4"/>
      </g>
      <g id="_Cómo_finalizar_este_componente_de_formación_5" data-name=" Cómo finalizar este componente de formación " transform="translate(1110.541 1200.318)">
        <text id="Morfología" transform="translate(0 27)" fill="#ea526f" font-size="26" font-family="Roboto-Bold, Roboto" font-weight="700" style="isolation: isolate"><tspan x="0" y="0">Morfología</tspan></text>
      </g>
    </g>
  </g>
</svg>
