<svg xmlns="http://www.w3.org/2000/svg" width="309.47" height="436.631" viewBox="0 0 309.47 436.631">
  <g id="Grupo_53946" data-name="Grupo 53946" transform="translate(-117.047 -223.735)">
    <g id="Grupo_53921" data-name="Grupo 53921" transform="translate(297.148 223.736)">
      <path id="Trazado_100683" data-name="Trazado 100683" d="M372.474,693.4H294.957a7.521,7.521,0,0,1,0-15.042h77.517a7.521,7.521,0,1,1,0,15.042Z" transform="translate(-268.528 -256.766)" fill="#ded4db" style="mix-blend-mode: multiply;isolation: isolate"/>
      <g id="Grupo_53903" data-name="Grupo 53903" transform="translate(36.747 26.292)">
        <path id="Trazado_100684" data-name="Trazado 100684" d="M370.052,280.734c0-.254.007-.509.007-.763,0-15.4-14.093-27.882-31.478-27.882a34.488,34.488,0,0,0-7.677.866,32.317,32.317,0,0,0-18.736,11.956,27.757,27.757,0,0,0-4.487,9.743c-1.133,4.385-.852,8.787-.852,13.317,0,4.155-.394,8.486.069,12.624a25.777,25.777,0,0,0,11.565,18.567c7.475,4.822,17.2,2.623,24.843-.655a47.684,47.684,0,0,0,18.944-14.782A39.837,39.837,0,0,0,370.052,280.734Z" transform="translate(-306.673 -252.088)" fill="#ffa898"/>
        <path id="Trazado_100685" data-name="Trazado 100685" d="M314.483,286.56a3.264,3.264,0,0,0-4.292,3.371c-.045,3.267,2.037,3.5,2.014,6.429-.014,1.814-.665,2.467-.69,4.255-.022,1.615.62,3.523,2.164,3.892,2.535.6,5.156-3.591,5.557-7.683C319.647,292.632,318.447,287.506,314.483,286.56Z" transform="translate(-306.929 -254.583)" fill="#f8918c"/>
      </g>
      <path id="Trazado_100686" data-name="Trazado 100686" d="M307.251,309.657c-.26-3.1-.439-5.4-.438-6.216.681,5.327,3.737,7.4,7.105,8.813a37.351,37.351,0,0,0,12.884,2.507c4.077,0,21.22-2.193,28.513-8.628-1.4,9.949-4,20.542-8.835,25.942-3.938,4.4-15.441,4.868-19.678,4.868-9.2,0-16.126-2.359-18.693-7.118C304.987,324.041,307.753,315.624,307.251,309.657Z" transform="translate(-269.92 -229.527)" fill="#934023"/>
      <g id="Grupo_53906" data-name="Grupo 53906" transform="translate(36.755 26.292)">
        <path id="Trazado_100687" data-name="Trazado 100687" d="M370.06,280.735q.007-.383.007-.764c0-15.4-14.093-27.882-31.478-27.882a34.5,34.5,0,0,0-7.677.866,32.318,32.318,0,0,0-18.735,11.956,27.756,27.756,0,0,0-4.487,9.743c-1.134,4.385-.852,8.787-.852,13.317,0,4.155-.394,8.486.069,12.624a25.78,25.78,0,0,0,11.565,18.568c7.475,4.821,17.2,2.622,24.843-.656a47.684,47.684,0,0,0,18.944-14.782A39.836,39.836,0,0,0,370.06,280.735Z" transform="translate(-306.681 -252.088)" fill="#ffa898"/>
        <g id="Grupo_53905" data-name="Grupo 53905" transform="translate(23.579 40.193)">
          <circle id="Elipse_4052" data-name="Elipse 4052" cx="7.521" cy="7.521" r="7.521" transform="matrix(0.722, -0.692, 0.692, 0.722, 2.47, 38.83)" fill="#ffa898"/>
          <g id="Grupo_53904" data-name="Grupo 53904">
            <path id="Trazado_100688" data-name="Trazado 100688" d="M344.243,351.079a9.858,9.858,0,0,1-8.074-8.624l-4-36.078a9.856,9.856,0,1,1,19.593-2.171l4,36.078a9.864,9.864,0,0,1-11.518,10.8Z" transform="translate(-332.108 -295.43)" fill="#ffa898"/>
          </g>
        </g>
        <path id="Trazado_100689" data-name="Trazado 100689" d="M314.491,286.56a3.264,3.264,0,0,0-4.292,3.371c-.045,3.267,2.037,3.5,2.014,6.429-.014,1.814-.665,2.467-.69,4.255-.022,1.615.62,3.523,2.164,3.892,2.535.6,5.156-3.591,5.557-7.683C319.655,292.632,318.455,287.506,314.491,286.56Z" transform="translate(-306.937 -254.583)" fill="#f8918c"/>
      </g>
      <g id="Grupo_53907" data-name="Grupo 53907" transform="translate(36.677 17.769)">
        <path id="Trazado_100690" data-name="Trazado 100690" d="M308.956,296.414V286.236a.45.45,0,0,0-.263-.41l-1.364-.617a.449.449,0,0,0-.634.419c.037,1.422.137,3.739.137,4.744,0,3.907-.339,7.969,0,11.88-.007-.047.156,2.98.415,6.076.5,5.967-2.264,14.384.858,20.168,1.462,2.711,4.341,4.642,8.247,5.8a3.418,3.418,0,0,0,4.378-3.28v-8.186C308.147,316.1,308.956,298.686,308.956,296.414Z" transform="translate(-306.598 -245.968)" fill="#934023"/>
        <path id="Trazado_100691" data-name="Trazado 100691" d="M366.583,266.146c-4.991-6.843-27.887.17-36.805-2.978-6.449-2.277-10.959-3.123-12.969-2.6-4.347,1.14-8.363,7.475-9.468,12.97a42.929,42.929,0,0,0-.614,10.42,1.75,1.75,0,0,0,1.046,1.5c.167.073.339.146.5.207a.534.534,0,0,0,.718-.42,3.588,3.588,0,0,1,3.729-3.274c2.215-.083,4.959,1.218,6.919,5.064,3.838,7.532,7.164,20.838,29.025,20.838,3.6,0,9.557,0,14.752-5.2,0,0,3.835-3.6,6.387-12.882C372.4,280.339,370.5,271.787,366.583,266.146Z" transform="translate(-306.601 -244.17)" fill="#934023"/>
        <path id="Trazado_100692" data-name="Trazado 100692" d="M328.336,262.4c4.844,3.929,16.863,11.771,25.062,11.771h11.925a4.719,4.719,0,0,0,4.69-4.251c.883-8.55-.712-27.021-30.977-27.021-20.728,0-20.74,10.187-20.075,13.845a2,2,0,0,0,1.423,1.565A23.11,23.11,0,0,1,328.336,262.4Z" transform="translate(-307.482 -242.897)" fill="#7d2e1e"/>
      </g>
      <g id="Grupo_53908" data-name="Grupo 53908" transform="translate(73.003 226.921)">
        <path id="Trazado_100693" data-name="Trazado 100693" d="M364.466,662.473a7.522,7.522,0,0,1-7.425-6.388l-7.9-51.8a295.456,295.456,0,0,1-1.573-77.071l5.778-52.083a7.522,7.522,0,0,1,14.952,1.659l-5.779,52.082a280.417,280.417,0,0,0,1.492,73.145l7.9,51.8a7.522,7.522,0,0,1-6.3,8.569A7.619,7.619,0,0,1,364.466,662.473Z" transform="translate(-345.77 -468.435)" fill="#341731"/>
      </g>
      <g id="Grupo_53909" data-name="Grupo 53909" transform="translate(37.614 226.921)">
        <path id="Trazado_100694" data-name="Trazado 100694" d="M326.3,662.473a7.522,7.522,0,0,1-7.425-6.388l-7.9-51.8a295.5,295.5,0,0,1-1.573-77.071l5.779-52.083a7.521,7.521,0,0,1,14.951,1.659l-5.779,52.082a280.456,280.456,0,0,0,1.492,73.145l7.9,51.8a7.521,7.521,0,0,1-6.3,8.569A7.611,7.611,0,0,1,326.3,662.473Z" transform="translate(-307.608 -468.435)" fill="#341731"/>
      </g>
      <path id="Trazado_100695" data-name="Trazado 100695" d="M362.282,657.375c6.18,0,9.1,6.391,10.281,10.213s4.887,14.573-1.685,14.573H337.171s-2.19-.3-2.19-4.062,3.6-4.18,5.393-4.837a28.376,28.376,0,0,0,10.5-6.928C355.372,661.795,357.676,657.375,362.282,657.375Z" transform="translate(-271.982 -255.242)" fill="#230a24"/>
      <g id="Grupo_53912" data-name="Grupo 53912" transform="translate(61.818 406.812)">
        <path id="Trazado_100696" data-name="Trazado 100696" d="M374.958,682.512H334.585a.877.877,0,0,0-.877.877v.909a1.88,1.88,0,0,0,1.88,1.88h38.367a1.88,1.88,0,0,0,1.881-1.88v-.909A.877.877,0,0,0,374.958,682.512Z" transform="translate(-333.708 -663.88)" fill="#2e122d"/>
        <g id="Grupo_53910" data-name="Grupo 53910" transform="translate(36.18 1.681)">
          <path id="Trazado_100697" data-name="Trazado 100697" d="M372.723,664.233a6.442,6.442,0,0,1,1.435.453,1.837,1.837,0,0,1,.95.989c.324.789.587,1.547.8,2.226l.191.612c.754,2.409,1.948,6.223,1.948,9.38h0a14.257,14.257,0,0,1-.287,3.29h-2.222C376.62,675.242,373.728,667.354,372.723,664.233Z" transform="translate(-372.723 -664.233)" fill="#3d1f39"/>
        </g>
        <g id="Grupo_53911" data-name="Grupo 53911" transform="translate(3.773)">
          <path id="Trazado_100698" data-name="Trazado 100698" d="M339.486,673.32h0c.319-.1.616-.185.875-.28a28.084,28.084,0,0,0,10.274-6.78c1.123-1.134,2.095-2.247,3.035-3.323l.306-.351a.492.492,0,0,1,.852.245c.358,1.9,1.536,3.721,4.726,3.721,3.662,0,4.232-1.724,7.37-2.327.8,2.334,4.218,10.044,2.937,16.827H337.926C337.456,678.245,338.128,674.415,339.486,673.32Z" transform="translate(-337.777 -662.42)" fill="#3d1f39"/>
        </g>
        <path id="Trazado_100699" data-name="Trazado 100699" d="M369.209,664.351a12.619,12.619,0,0,1,2.4-.206,4.8,4.8,0,0,1,.863.082c1.005,3.121,3.9,11.01,2.811,16.951h-3.133C373.427,674.395,370.012,666.685,369.209,664.351Z" transform="translate(-336.287 -662.545)" fill="#4b2c46"/>
        <path id="Trazado_100700" data-name="Trazado 100700" d="M334.3,679.368h0v-.048c0-3.665,3.085-4.592,4.929-5.146-1.359,1.1-2.03,4.925-1.56,7.732H334.63A9.567,9.567,0,0,1,334.3,679.368Z" transform="translate(-333.751 -663.274)" fill="#4b2c46"/>
        <path id="Trazado_100701" data-name="Trazado 100701" d="M346.724,671.872h0a2.271,2.271,0,0,1,.505-1.672c.328-.232.578-.431.7-.519a2.216,2.216,0,0,0-1.817.683c-.614.721-.685,1.9-.216,3.6a.556.556,0,0,0,.693.394.562.562,0,0,0,.394-.693A5.684,5.684,0,0,1,346.724,671.872Z" transform="translate(-334.571 -662.947)" fill="#290e28"/>
        <path id="Trazado_100702" data-name="Trazado 100702" d="M349.548,669.985h0c-.033-.8,0-1.627.355-1.937.369-.324.635-.589.772-.712a2.366,2.366,0,0,0-1.68.789c-.623.742-.738,1.935-.338,3.548a.563.563,0,0,0,1.094-.269A6.09,6.09,0,0,1,349.548,669.985Z" transform="translate(-334.777 -662.777)" fill="#290e28"/>
        <path id="Trazado_100703" data-name="Trazado 100703" d="M352.265,667.332a3.166,3.166,0,0,1,.421-2.025h0q.211-.228.417-.455a2.1,2.1,0,0,0-1.423.711c-.642.763-.716,2.008-.229,3.809a.564.564,0,0,0,1.09-.294A6.783,6.783,0,0,1,352.265,667.332Z" transform="translate(-334.974 -662.597)" fill="#290e28"/>
      </g>
      <path id="Trazado_100704" data-name="Trazado 100704" d="M324.121,657.375c6.179,0,9.1,6.391,10.28,10.213s4.887,14.573-1.685,14.573H299.009s-2.19-.3-2.19-4.062,3.6-4.18,5.393-4.837a28.376,28.376,0,0,0,10.505-6.928C317.211,661.795,319.514,657.375,324.121,657.375Z" transform="translate(-269.21 -255.242)" fill="#341731"/>
      <g id="Grupo_53913" data-name="Grupo 53913" transform="translate(26.429 406.812)">
        <path id="Trazado_100705" data-name="Trazado 100705" d="M336.8,682.512H296.423a.877.877,0,0,0-.877.877v.909a1.88,1.88,0,0,0,1.881,1.88h38.367a1.88,1.88,0,0,0,1.88-1.88v-.909A.877.877,0,0,0,336.8,682.512Z" transform="translate(-295.546 -663.88)" fill="#3e203a"/>
        <path id="Trazado_100706" data-name="Trazado 100706" d="M334.562,664.233a6.449,6.449,0,0,1,1.434.453,1.837,1.837,0,0,1,.95.989c.325.789.587,1.547.8,2.226l.191.612c.755,2.409,1.948,6.223,1.948,9.38h0a14.206,14.206,0,0,1-.287,3.29h-2.222C338.458,675.242,335.566,667.354,334.562,664.233Z" transform="translate(-298.381 -662.552)" fill="#4c2d47"/>
        <path id="Trazado_100707" data-name="Trazado 100707" d="M301.324,673.32h0c.319-.1.617-.185.875-.28a28.076,28.076,0,0,0,10.274-6.78c1.123-1.134,2.095-2.247,3.035-3.323l.306-.351a.491.491,0,0,1,.852.245c.359,1.9,1.536,3.721,4.726,3.721,3.663,0,4.231-1.724,7.37-2.327.8,2.334,4.218,10.044,2.937,16.827H299.764C299.294,678.245,299.966,674.415,301.324,673.32Z" transform="translate(-295.842 -662.42)" fill="#4c2d47"/>
        <path id="Trazado_100708" data-name="Trazado 100708" d="M331.047,664.351a12.62,12.62,0,0,1,2.4-.206,4.823,4.823,0,0,1,.864.082c1,3.121,3.9,11.01,2.81,16.951h-3.133C335.265,674.395,331.85,666.685,331.047,664.351Z" transform="translate(-298.125 -662.545)" fill="#593b54"/>
        <path id="Trazado_100709" data-name="Trazado 100709" d="M296.144,679.368h0v-.048c0-3.665,3.084-4.592,4.928-5.146-1.359,1.1-2.03,4.925-1.56,7.732h-3.044A9.592,9.592,0,0,1,296.144,679.368Z" transform="translate(-295.589 -663.274)" fill="#593b54"/>
        <path id="Trazado_100710" data-name="Trazado 100710" d="M308.563,671.872h0a2.275,2.275,0,0,1,.505-1.672c.328-.232.578-.431.7-.519a2.214,2.214,0,0,0-1.816.683c-.615.721-.686,1.9-.217,3.6a.556.556,0,0,0,.693.394.562.562,0,0,0,.394-.693A5.649,5.649,0,0,1,308.563,671.872Z" transform="translate(-296.409 -662.947)" fill="#391b36"/>
        <path id="Trazado_100711" data-name="Trazado 100711" d="M311.386,669.985h0c-.034-.8,0-1.627.355-1.937s.634-.589.772-.712a2.368,2.368,0,0,0-1.68.789c-.622.742-.737,1.935-.339,3.548a.563.563,0,1,0,1.094-.269A6.141,6.141,0,0,1,311.386,669.985Z" transform="translate(-296.615 -662.777)" fill="#391b36"/>
        <path id="Trazado_100712" data-name="Trazado 100712" d="M314.1,667.332a3.166,3.166,0,0,1,.421-2.025h0c.141-.152.279-.3.416-.455a2.1,2.1,0,0,0-1.423.711c-.642.763-.716,2.008-.229,3.809a.564.564,0,0,0,1.09-.294A6.826,6.826,0,0,1,314.1,667.332Z" transform="translate(-296.812 -662.597)" fill="#391b36"/>
      </g>
      <path id="Trazado_100713" data-name="Trazado 100713" d="M309.118,342.144a7.83,7.83,0,0,1,3.816-1.312h6.736a3.76,3.76,0,0,1,3.76,3.76V373.23a3.76,3.76,0,0,1-3.76,3.76h-7.518a3.465,3.465,0,0,1-3.034-1.3C308.962,365.013,301.14,348.263,309.118,342.144Z" transform="translate(-269.843 -232.243)" fill="#957c8c"/>
      <path id="Trazado_100714" data-name="Trazado 100714" d="M394.593,474.606a5.641,5.641,0,0,1-5.472-5.8l1.027-34.983a186.593,186.593,0,0,0-4.935-48.451l-8.061-34.057a5.641,5.641,0,0,1,10.978-2.6l8.061,34.057a197.974,197.974,0,0,1,5.234,51.381L400.4,469.134A5.641,5.641,0,0,1,394.593,474.606Z" transform="translate(-275.035 -232.5)" fill="#ffa898"/>
      <path id="Trazado_100715" data-name="Trazado 100715" d="M401.541,493.958a1.979,1.979,0,0,1-1.152-.472.35.35,0,0,0-.556.144,2.353,2.353,0,0,1-3.951.765.351.351,0,0,0-.589.114,2.694,2.694,0,0,1-5.155-.33.35.35,0,0,0-.585-.175,2.338,2.338,0,0,1-1.793.655,2.362,2.362,0,0,1-2.2-2.521s.127-2.353.165-3.29a.372.372,0,0,0-.342-.387c-2.649-.207-3.13-3.676-1.936-7.6,1.4-4.61,6.45-12.41,12.372-11.687,4.933.6,9.064,5.666,8.719,12.392-.062,1.2.1-.977-.818,10.536A2.028,2.028,0,0,1,401.541,493.958Z" transform="translate(-275.459 -241.564)" fill="#ffa898"/>
      <g id="Grupo_53914" data-name="Grupo 53914" transform="translate(36.89 105.547)">
        <circle id="Elipse_4053" data-name="Elipse 4053" cx="7.521" cy="7.521" r="7.521" transform="translate(8.284 121.374)" fill="#ffa898"/>
        <circle id="Elipse_4054" data-name="Elipse 4054" cx="7.521" cy="7.521" r="7.521" transform="translate(43.71 121.374)" fill="#ffa898"/>
        <path id="Trazado_100716" data-name="Trazado 100716" d="M318.108,350.01a5.641,5.641,0,1,1-5.641-5.64A5.641,5.641,0,0,1,318.108,350.01Z" transform="translate(-306.827 -338.047)" fill="#ffa898"/>
        <path id="Trazado_100717" data-name="Trazado 100717" d="M388.278,350.01a5.641,5.641,0,1,1-5.641-5.64A5.642,5.642,0,0,1,388.278,350.01Z" transform="translate(-311.925 -338.047)" fill="#ffa898"/>
        <path id="Trazado_100718" data-name="Trazado 100718" d="M381.034,345.067c-7.267-6.363-27.323-7.621-36.532-7.505-9.938-.108-32.171.5-37,9.255l-.013.023a4.094,4.094,0,0,0-.547,1.566h0a5.588,5.588,0,0,0,.493,3.717A5.684,5.684,0,0,0,308,353a16.367,16.367,0,0,1,3.445,10.988c-.543,9.847.123,24.01,2.853,35.494a95.014,95.014,0,0,1,.719,40.7,31.879,31.879,0,0,0-.621,6.2h0c0,1.735,0,3.433.032,5.086.027,16.585-1.214,23.088,27.234,23.091h.028c21.554,0,24.881-4.361,25.058-21.364.191-7.448-1.726-12.514-3.856-17.349a44.211,44.211,0,0,1,.226-36.135c2.586-5.685,4.584-11.388,6.581-15.821,2.2-4.882,5.051-12.182,5.935-19.553a16.388,16.388,0,0,1,5.63-10.514,5.575,5.575,0,0,0,1.84-5.415A5.956,5.956,0,0,0,381.034,345.067Z" transform="translate(-306.827 -337.552)" fill="#ffa898"/>
      </g>
      <path id="Trazado_100719" data-name="Trazado 100719" d="M279.9,471.443a5.64,5.64,0,0,1-3.22-7.3l12.654-32.63A186.655,186.655,0,0,0,300.866,384.2l3.776-34.794a5.641,5.641,0,0,1,11.216,1.217l-3.777,34.794a197.906,197.906,0,0,1-12.229,50.179L287.2,468.224A5.639,5.639,0,0,1,279.9,471.443Z" transform="translate(-267.719 -232.5)" fill="#ffa898"/>
      <path id="Trazado_100720" data-name="Trazado 100720" d="M281.942,492.172a1.977,1.977,0,0,1-.928-.829.35.35,0,0,0-.572-.05,2.353,2.353,0,0,1-3.979-.6.35.35,0,0,0-.593-.088,2.694,2.694,0,0,1-4.749-2.034.35.35,0,0,0-.492-.361,2.359,2.359,0,0,1-3.137-3.092s.905-2.175,1.255-3.046a.372.372,0,0,0-.194-.479c-2.428-1.08-1.722-4.511.713-7.812,2.862-3.877,10.226-9.543,15.565-6.884,4.449,2.215,6.651,8.367,4.078,14.593-.457,1.108.424-.887-4.289,9.657A2.028,2.028,0,0,1,281.942,492.172Z" transform="translate(-267.047 -241.353)" fill="#ffa898"/>
      <g id="Grupo_53915" data-name="Grupo 53915" transform="translate(100.746 110.616)">
        <path id="Trazado_100721" data-name="Trazado 100721" d="M402.589,434.089a199.222,199.222,0,0,0-5.267-51.707l-8.061-34.057a6.882,6.882,0,0,0-13.014-1.161,7.271,7.271,0,0,0-.339,4.608l8,33.786a185.39,185.39,0,0,1,4.9,48.126l-.507,17.251a.628.628,0,0,0,.608.645l12.528.368a.628.628,0,0,0,.645-.608Z" transform="translate(-375.686 -343.018)" fill="#e2dfe5"/>
        <path id="Trazado_100722" data-name="Trazado 100722" d="M389.928,460.083l12.529.368-.272,9.246a.626.626,0,0,1-.645.608l-11.276-.331a.627.627,0,0,1-.608-.645Z" transform="translate(-376.701 -351.523)" fill="#f4eee8"/>
      </g>
      <g id="Grupo_53916" data-name="Grupo 53916" transform="translate(35.609 95.129)">
        <path id="Trazado_100723" data-name="Trazado 100723" d="M341.56,475.714c-13.873,0-21.048-1.528-24.785-5.272-4.268-4.275-3.754-10.7-3.754-24.159a33.079,33.079,0,0,1,.646-6.453,94.134,94.134,0,0,0-.71-40.156c-2.912-12.254-3.374-26.973-2.884-35.854a15.127,15.127,0,0,0-3.181-10.148,6.952,6.952,0,0,1-.622-7.53c5.176-9.391,27.462-10.043,38.124-9.931,9.837-.122,29.895,1.293,37.344,7.816a6.917,6.917,0,0,1,.219,10.651,15.1,15.1,0,0,0-5.2,9.71,69.846,69.846,0,0,1-6.036,19.918c-1.986,4.407-3.976,10.1-6.584,15.826a42.991,42.991,0,0,0-.219,35.11c2.113,4.8,4.16,10.132,3.961,17.887-.183,17.493-3.657,22.585-26.311,22.585Z" transform="translate(-305.446 -327.036)" fill="#fcf6f4"/>
        <path id="Trazado_100724" data-name="Trazado 100724" d="M350.448,326.318c-10.128,0-15.667,3.031-17.659,4.6a20.7,20.7,0,0,0-3.027,3.642,1.251,1.251,0,0,0,.842,2.015c4.735.506,12.547,2.049,19.734,2.044a22.2,22.2,0,0,0,10-2.019,1.245,1.245,0,0,0,.273-1.964c-2.635-2.774-3.3-6.121-4.465-6.982C354.907,326.738,352.687,326.318,350.448,326.318Z" transform="translate(-307.193 -326.318)" fill="#f3f0f3"/>
      </g>
      <g id="Grupo_53917" data-name="Grupo 53917" transform="translate(11.191 110.619)">
        <path id="Trazado_100725" data-name="Trazado 100725" d="M301.468,435.948a199.26,199.26,0,0,0,12.306-50.5l3.777-34.794a6.883,6.883,0,0,0-11.88-5.442,7.279,7.279,0,0,0-1.857,4.231l-3.747,34.518a185.331,185.331,0,0,1-11.454,47l-6.239,16.091a.627.627,0,0,0,.357.811l11.686,4.531a.627.627,0,0,0,.811-.357Z" transform="translate(-279.348 -343.021)" fill="#f3f0f3"/>
        <path id="Trazado_100726" data-name="Trazado 100726" d="M282.5,456.078l11.686,4.532-3.345,8.625a.626.626,0,0,1-.81.357l-10.518-4.078a.626.626,0,0,1-.358-.81Z" transform="translate(-279.114 -351.235)" fill="#fcf6f4"/>
      </g>
      <path id="Trazado_100727" data-name="Trazado 100727" d="M347.15,604.422l6.262,41.1a1.879,1.879,0,0,0,1.858,1.6h15.222a1.881,1.881,0,0,0,1.859-2.164l-6.626-43.374a278.646,278.646,0,0,1-1.48-72.65l5.779-52.081a9.4,9.4,0,0,0-8.311-10.379,9.544,9.544,0,0,0-1.04-.063,9.4,9.4,0,0,0-9.337,8.373l-5.779,52.082A297.614,297.614,0,0,0,347.15,604.422Z" transform="translate(-272.62 -241.367)" fill="#43253f"/>
      <path id="Trazado_100728" data-name="Trazado 100728" d="M308.979,604.422l6.262,41.1a1.88,1.88,0,0,0,1.858,1.6h15.223a1.881,1.881,0,0,0,1.859-2.164l-6.615-43.375a278.645,278.645,0,0,1-1.479-72.65l5.778-52.081a9.413,9.413,0,0,0-8.31-10.379,9.758,9.758,0,0,0-1.04-.063,9.384,9.384,0,0,0-9.338,8.373L307.4,526.859A297.611,297.611,0,0,0,308.979,604.422Z" transform="translate(-269.847 -241.367)" fill="#43253f"/>
      <path id="Trazado_100729" data-name="Trazado 100729" d="M313,461.165c-.013,7.872-.025,13.575,3.911,17.511,5.266,5.284,17.4,5.453,25.232,5.453,21.709,0,26.736-4.35,26.937-23.226a37.523,37.523,0,0,0-3.088-15.96,2.512,2.512,0,0,0-2.326-1.564H316.5a2.514,2.514,0,0,0-2.472,2.093C312.978,451.607,313,448.278,313,461.165Z" transform="translate(-270.386 -239.694)" fill="#43253f"/>
      <g id="Grupo_53918" data-name="Grupo 53918" transform="translate(39.274 99.884)">
        <path id="Trazado_100730" data-name="Trazado 100730" d="M368.268,336.809c-3.158-.716-6.664-3.132-9.646-4.454-1.9-.843-8.655-.91-11.959-.91-9.651,0-14.192,4.037-18.69,4.476-.464,1.839,2.811,10.486,15.973,10.486S368.268,336.809,368.268,336.809Z" transform="translate(-310.745 -331.445)" fill="#ece1d8"/>
        <path id="Trazado_100731" data-name="Trazado 100731" d="M321.736,359.689c.454-5.91.052-13.334-3.131-16.471a8.151,8.151,0,0,0-9.208-1.478,24.561,24.561,0,0,1,8.571-3.823c8.686-2.442,19.674-2.741,26.673-2.653,9.079-.118,23.368.962,32.3,4.689a3.87,3.87,0,0,1,1.507,1.116c4.613,5.624-.2,18.75-.538,23.352a70.682,70.682,0,0,1-6.107,20.175c-1.988,4.414-3.967,10.078-6.585,15.829a42.114,42.114,0,0,0-.214,34.392,49.286,49.286,0,0,1,3.1,8.782,1.256,1.256,0,0,1-.7,1.425,49.813,49.813,0,0,1-19.872,4.6c-10.87,0-22.622-7.612-31.788-7.612h-1.516a1.25,1.25,0,0,1-1.241-1.436c.1-.661.209-1.354.324-2.083,1.312-8.338,3.3-20.938-.92-38.69a128.118,128.118,0,0,1-2.994-24.522,6.643,6.643,0,0,0,2.875.7C318.278,375.989,321.112,367.8,321.736,359.689Z" transform="translate(-309.398 -331.721)" fill="#ece1d8"/>
      </g>
      <path id="Trazado_100732" data-name="Trazado 100732" d="M404.093,434.005l-.682,23.217a1.88,1.88,0,0,1-1.934,1.824l-13.281-.39a1.88,1.88,0,0,1-1.824-1.934l.683-23.217a183.3,183.3,0,0,0-4.869-47.694l-8.053-34.057a8.532,8.532,0,0,1,6.321-10.26,8.335,8.335,0,0,1,2.226-.223,8.515,8.515,0,0,1,8.034,6.556l8.066,34.057A200.755,200.755,0,0,1,404.093,434.005Z" transform="translate(-274.81 -232.275)" fill="#43253f"/>
      <g id="Grupo_53919" data-name="Grupo 53919" transform="translate(34.013 94.857)">
        <path id="Trazado_100733" data-name="Trazado 100733" d="M304.8,345.136c5.648-10.081,27.827-10.82,39.452-10.683,10.391-.134,30.458,1.3,38.4,8.161a8.569,8.569,0,0,1,.374,13.084,13.835,13.835,0,0,0-4.741,8.73c-1.241,10.4-5.464,18.388-8.93,27.085-1.18,2.963-2.4,6.027-3.828,9.166-5.633,12.376-4.422,23.671.536,35.513h0c4.819,11.769,20.487,30.056,20.487,65.471,0,22.689-11.24,39.3-22.47,44.76a1.251,1.251,0,0,1-1.8-1.156c.611-23.86-1.466-73.6-5.294-84.42.847,17.031,2.358,50.418.677,85.123a2.506,2.506,0,0,1-2.562,2.384,48.458,48.458,0,0,1-7.571-.794c-39.595-7.632-30.472-67.374-30.472-76.685,0-13.986-3.121-28.49-4.661-31.086a2.1,2.1,0,0,1-.22-1.454c.2-1.088.381-2.143.381-2.143h0a92.694,92.694,0,0,0-1.282-36.269c-2.95-12.413-3.446-26.9-2.928-36.32a13.5,13.5,0,0,0-2.838-9.055A8.6,8.6,0,0,1,304.8,345.136Z" transform="translate(-303.724 -326.636)" fill="#4c2d47"/>
        <path id="Trazado_100734" data-name="Trazado 100734" d="M344.939,442.255l2.478-3.006a2.882,2.882,0,0,1,2.215-1.106h10.682a2.882,2.882,0,0,1,2.215,1.106l2.478,3.006a3.209,3.209,0,0,1,0,3.942L362.53,449.2a2.882,2.882,0,0,1-2.215,1.106H349.632a2.882,2.882,0,0,1-2.215-1.106l-2.478-3.007A3.209,3.209,0,0,1,344.939,442.255Z" transform="translate(-306.669 -334.171)" fill="#43253f"/>
        <path id="Trazado_100735" data-name="Trazado 100735" d="M346.015,444.572a1.428,1.428,0,1,0,1.408-1.671A1.556,1.556,0,0,0,346.015,444.572Z" transform="translate(-306.797 -334.517)" fill="#341731"/>
        <path id="Trazado_100736" data-name="Trazado 100736" d="M365.389,444.572a1.428,1.428,0,1,1-1.408-1.671A1.557,1.557,0,0,1,365.389,444.572Z" transform="translate(-308 -334.517)" fill="#341731"/>
        <path id="Trazado_100737" data-name="Trazado 100737" d="M324.214,335.471a1.236,1.236,0,0,1-.326-2.283c5.3-3.054,9.26-7.163,19.606-7.163h7.928c7.839,0,8.588,3.121,13.54,6.985a1.2,1.2,0,0,1-.223,2.05,43.161,43.161,0,0,1-17.225,3.756C340.024,338.816,329.505,336.67,324.214,335.471Z" transform="translate(-305.143 -326.025)" fill="#65465e"/>
      </g>
      <path id="Trazado_100738" data-name="Trazado 100738" d="M302.7,436.408l-8.4,21.655a1.879,1.879,0,0,1-2.432,1.073l-12.387-4.8a1.882,1.882,0,0,1-1.074-2.433l8.4-21.655a183.3,183.3,0,0,0,11.341-46.581l3.784-34.79a8.532,8.532,0,0,1,9.385-7.56,8.375,8.375,0,0,1,2.173.533,8.516,8.516,0,0,1,5.382,8.863L315.1,385.5A200.792,200.792,0,0,1,302.7,436.408Z" transform="translate(-267.863 -232.275)" fill="#55364f"/>
      <g id="Grupo_53920" data-name="Grupo 53920" transform="translate(27.237)">
        <path id="Trazado_100739" data-name="Trazado 100739" d="M382.322,280.137c-4.846,3.673-22.337,4.319-43.015,1.27-23.511-3.466-37.952-9.119-41.118-14-.491-.757-2.38-6.909.007-6.96,3.76-.081,14.387-.033,22.256.015,7.073.043,32.637-1.6,41.293-.96,9.519.707,17.938,4.017,22.024,7.646C386.276,269.375,385.173,277.976,382.322,280.137Z" transform="translate(-296.462 -226.324)" fill="#55364f"/>
        <path id="Trazado_100740" data-name="Trazado 100740" d="M372.535,273.93h.01a193.192,193.192,0,0,1,2.819-38.362l-29.089-4.288-29.09-4.289a193.141,193.141,0,0,1-8.372,37.544h.01a.893.893,0,0,0-.046.149c-.421,2.853,13.511,7.271,31.118,9.867s32.221,2.387,32.642-.466A.878.878,0,0,0,372.535,273.93Z" transform="translate(-297.315 -223.972)" fill="#4c2d47"/>
        <path id="Trazado_100741" data-name="Trazado 100741" d="M376.023,235.331c-.481,3.268-13.9,4-29.962,1.627s-28.7-6.937-28.217-10.2,13.9-4,29.962-1.628S376.505,232.064,376.023,235.331Z" transform="translate(-297.974 -223.736)" fill="#65465e"/>
        <path id="Trazado_100742" data-name="Trazado 100742" d="M372.545,275.491c-.186-6.6.022-12.834.4-18.282l0,.018c-.448,3.039-14.07,3.548-30.423,1.137s-29.249-6.83-28.8-9.869c0-.007,0-.013,0-.019-1.216,5.324-2.815,11.352-4.9,17.619h.01a.894.894,0,0,0-.046.149c-.421,2.853,13.511,7.271,31.118,9.867s32.221,2.387,32.642-.466a.878.878,0,0,0,0-.156Z" transform="translate(-297.315 -225.533)" fill="#65465e"/>
        <path id="Trazado_100743" data-name="Trazado 100743" d="M382.279,280.119c-4.846,3.673-22.337,4.319-43.015,1.27-23.511-3.466-37.952-9.119-41.118-14-.491-.757-3.131-8.227-.743-8.278.836-.018,19.951,6.684,25.717,8.727,8.116,2.877,22.776,10.089,35.061,10.83a79.123,79.123,0,0,0,14.594-.289c11.757-1.434,11.533-6.121,12.225-8.328C385.515,273.509,384.365,278.538,382.279,280.119Z" transform="translate(-296.418 -226.306)" fill="#4c2d47"/>
      </g>
    </g>
    <g id="Grupo_53945" data-name="Grupo 53945" transform="translate(117.047 223.735)">
      <path id="Trazado_100744" data-name="Trazado 100744" d="M221.387,693.4H143.87a7.521,7.521,0,0,1,0-15.042h77.517a7.521,7.521,0,0,1,0,15.042Z" transform="translate(-118.449 -256.766)" fill="#ded4db" style="mix-blend-mode: multiply;isolation: isolate"/>
      <g id="Grupo_53922" data-name="Grupo 53922" transform="translate(65.52 226.921)">
        <path id="Trazado_100745" data-name="Trazado 100745" d="M195.232,662.473a7.523,7.523,0,0,0,7.425-6.388l7.9-51.8a295.5,295.5,0,0,0,1.573-77.071l-5.779-52.083a7.521,7.521,0,0,0-14.951,1.659l5.779,52.082a280.458,280.458,0,0,1-1.492,73.145l-7.9,51.8a7.521,7.521,0,0,0,6.3,8.569A7.61,7.61,0,0,0,195.232,662.473Z" transform="translate(-187.7 -468.435)" fill="#341731"/>
      </g>
      <g id="Grupo_53923" data-name="Grupo 53923" transform="translate(30.131 226.921)">
        <path id="Trazado_100746" data-name="Trazado 100746" d="M157.07,662.473a7.522,7.522,0,0,0,7.425-6.388l7.9-51.8a295.5,295.5,0,0,0,1.573-77.071l-5.778-52.083a7.522,7.522,0,0,0-14.952,1.659l5.779,52.082a280.417,280.417,0,0,1-1.492,73.145l-7.9,51.8a7.522,7.522,0,0,0,6.3,8.569A7.619,7.619,0,0,0,157.07,662.473Z" transform="translate(-149.538 -468.435)" fill="#341731"/>
      </g>
      <path id="Trazado_100747" data-name="Trazado 100747" d="M196.36,657.375c-6.179,0-9.1,6.391-10.28,10.213s-4.887,14.573,1.685,14.573h33.705s2.191-.3,2.191-4.062-3.6-4.18-5.392-4.837a28.376,28.376,0,0,1-10.5-6.928C203.27,661.795,200.967,657.375,196.36,657.375Z" transform="translate(-121.909 -255.241)" fill="#230a24"/>
      <g id="Grupo_53925" data-name="Grupo 53925" transform="translate(60.81 406.576)">
        <path id="Trazado_100748" data-name="Trazado 100748" d="M183.5,682.512h40.373a.877.877,0,0,1,.877.877v.909a1.88,1.88,0,0,1-1.881,1.88H184.5a1.88,1.88,0,0,1-1.88-1.88v-.909A.877.877,0,0,1,183.5,682.512Z" transform="translate(-182.621 -663.644)" fill="#2e122d"/>
        <path id="Trazado_100749" data-name="Trazado 100749" d="M208.837,680.612c0-6.228,4.132-7.17,8.832-7.17h1.607q.506.211,1.018.4c.26.095.556.184.875.28,1.844.554,4.93,1.481,4.93,5.146v.048h0a9.6,9.6,0,0,1-.324,2.538H208.837Z" transform="translate(-184.526 -662.985)" fill="#4b2c46"/>
        <g id="Grupo_53924" data-name="Grupo 53924" transform="translate(1.973 1.166)">
          <path id="Trazado_100750" data-name="Trazado 100750" d="M207.087,679.884v1.241H184.928c-.914-6.17,1.907-13.621,3.157-16.144a5.75,5.75,0,0,0,4.142,1.644c3.695,0,5.142-1.909,7.268-3.2a46.585,46.585,0,0,0,9.222,9.325,1.243,1.243,0,0,1,.133,1.916C207.751,675.741,207.087,677.388,207.087,679.884Z" transform="translate(-184.749 -663.423)" fill="#3d1f39"/>
        </g>
        <path id="Trazado_100751" data-name="Trazado 100751" d="M218.681,672.623h-1.607c-2.813,0-5.423.338-7.065,1.945a1.245,1.245,0,0,0-.138-1.911,46.585,46.585,0,0,1-9.222-9.325,7.628,7.628,0,0,1,4.2-1.166h.045a1.929,1.929,0,0,1,1.428.672l.07.08c.94,1.076,1.912,2.188,3.035,3.323a28.513,28.513,0,0,0,9.256,6.381Z" transform="translate(-183.931 -662.166)" fill="#341731"/>
        <path id="Trazado_100752" data-name="Trazado 100752" d="M187.979,665.051c-1.25,2.523-4.071,9.974-3.157,16.144h-.873c-1.659-3.235.245-9.314,1.3-12.67l.191-.612a25.426,25.426,0,0,1,1.238-3.235.509.509,0,0,1,.852-.111C187.669,664.734,187.82,664.9,187.979,665.051Z" transform="translate(-182.67 -662.327)" fill="#4b2c46"/>
        <path id="Trazado_100753" data-name="Trazado 100753" d="M206.811,673.833c.871-2.178,3.759-3.889,5.909-4.12a2.5,2.5,0,0,1,2.242.652,2.092,2.092,0,0,1,.433.875c-.182-.113-.363-.228-.543-.347l-.007,0a5.3,5.3,0,0,0-2.385,0h0c-1.742.342-3.96,1.755-4.6,3.359a.565.565,0,0,1-.524.355.571.571,0,0,1-.209-.041A.565.565,0,0,1,206.811,673.833Z" transform="translate(-184.376 -662.712)" fill="#290e28"/>
        <path id="Trazado_100754" data-name="Trazado 100754" d="M204.01,671.518c.772-2.05,3.846-4.044,5.725-4.179a2.727,2.727,0,0,1,2.347.785,2.4,2.4,0,0,1,.5,1.107c-.136-.109-.273-.217-.408-.328h0a3.456,3.456,0,0,0-2.879-.348h0c-1.517.394-3.7,1.945-4.231,3.36a.564.564,0,0,1-1.055-.4Z" transform="translate(-184.172 -662.541)" fill="#290e28"/>
        <path id="Trazado_100755" data-name="Trazado 100755" d="M201.211,669.19c.765-2.128,4.1-4.173,5.831-4.332a2.618,2.618,0,0,1,2.348.7,2.413,2.413,0,0,1,.52,1.315q-.152-.147-.3-.3h0a3.156,3.156,0,0,0-2.748-.555c-1.323.286-4,1.91-4.586,3.548a.566.566,0,0,1-.531.373.6.6,0,0,1-.191-.032A.565.565,0,0,1,201.211,669.19Z" transform="translate(-183.969 -662.359)" fill="#290e28"/>
      </g>
      <path id="Trazado_100756" data-name="Trazado 100756" d="M158.2,657.375c-6.18,0-9.1,6.391-10.281,10.213s-4.887,14.573,1.685,14.573H183.31s2.19-.3,2.19-4.062-3.6-4.18-5.393-4.837a28.376,28.376,0,0,1-10.5-6.928C165.109,661.795,162.805,657.375,158.2,657.375Z" transform="translate(-119.137 -255.241)" fill="#341731"/>
      <g id="Grupo_53926" data-name="Grupo 53926" transform="translate(25.42 406.576)">
        <path id="Trazado_100757" data-name="Trazado 100757" d="M145.336,682.512h40.373a.877.877,0,0,1,.877.877v.909a1.88,1.88,0,0,1-1.881,1.88H146.34a1.88,1.88,0,0,1-1.881-1.88v-.909A.877.877,0,0,1,145.336,682.512Z" transform="translate(-144.459 -663.644)" fill="#3e203a"/>
        <path id="Trazado_100758" data-name="Trazado 100758" d="M170.675,680.612c0-6.228,4.132-7.17,8.833-7.17h1.606q.506.211,1.019.4c.259.095.556.184.874.28,1.844.554,4.93,1.481,4.93,5.146v.048h0a9.6,9.6,0,0,1-.324,2.538H170.675Z" transform="translate(-146.364 -662.985)" fill="#593b54"/>
        <path id="Trazado_100759" data-name="Trazado 100759" d="M168.925,679.884v1.241H146.766c-.913-6.17,1.907-13.621,3.158-16.144a5.746,5.746,0,0,0,4.142,1.644c3.7,0,5.142-1.909,7.268-3.2a46.611,46.611,0,0,0,9.222,9.325,1.243,1.243,0,0,1,.133,1.916C169.589,675.741,168.925,677.388,168.925,679.884Z" transform="translate(-144.614 -662.257)" fill="#4c2d47"/>
        <path id="Trazado_100760" data-name="Trazado 100760" d="M180.519,672.623h-1.606c-2.814,0-5.423.338-7.065,1.945a1.244,1.244,0,0,0-.138-1.911,46.611,46.611,0,0,1-9.222-9.325,7.628,7.628,0,0,1,4.2-1.166h.045a1.929,1.929,0,0,1,1.428.672l.07.08c.939,1.076,1.911,2.188,3.034,3.323a28.513,28.513,0,0,0,9.256,6.381Z" transform="translate(-145.769 -662.166)" fill="#43253f"/>
        <path id="Trazado_100761" data-name="Trazado 100761" d="M149.818,665.051c-1.251,2.523-4.071,9.974-3.158,16.144h-.872c-1.66-3.235.244-9.314,1.295-12.67l.191-.612a25.428,25.428,0,0,1,1.238-3.235.509.509,0,0,1,.852-.111C149.507,664.734,149.658,664.9,149.818,665.051Z" transform="translate(-144.508 -662.327)" fill="#593b54"/>
        <path id="Trazado_100762" data-name="Trazado 100762" d="M168.65,673.833c.87-2.178,3.758-3.889,5.908-4.12a2.5,2.5,0,0,1,2.242.652,2.092,2.092,0,0,1,.433.875c-.182-.113-.363-.228-.542-.347l-.007,0a5.3,5.3,0,0,0-2.385,0h0c-1.742.342-3.961,1.755-4.6,3.359a.566.566,0,0,1-.524.355.572.572,0,0,1-.21-.041A.565.565,0,0,1,168.65,673.833Z" transform="translate(-146.214 -662.712)" fill="#391b36"/>
        <path id="Trazado_100763" data-name="Trazado 100763" d="M165.849,671.518c.772-2.05,3.845-4.044,5.724-4.179a2.729,2.729,0,0,1,2.348.785,2.406,2.406,0,0,1,.5,1.107c-.137-.109-.274-.217-.409-.328h0a3.458,3.458,0,0,0-2.88-.348h0c-1.517.394-3.7,1.945-4.231,3.36a.564.564,0,0,1-1.055-.4Z" transform="translate(-146.01 -662.541)" fill="#391b36"/>
        <path id="Trazado_100764" data-name="Trazado 100764" d="M163.049,669.19c.765-2.128,4.1-4.173,5.831-4.332a2.618,2.618,0,0,1,2.348.7,2.406,2.406,0,0,1,.52,1.315q-.152-.147-.3-.3h0a3.157,3.157,0,0,0-2.749-.555c-1.323.286-4,1.91-4.586,3.548a.566.566,0,0,1-.531.373.6.6,0,0,1-.191-.032A.566.566,0,0,1,163.049,669.19Z" transform="translate(-145.807 -662.359)" fill="#391b36"/>
      </g>
      <g id="Grupo_53927" data-name="Grupo 53927" transform="translate(12.447 94.636)">
        <path id="Trazado_100765" data-name="Trazado 100765" d="M199.361,335.915c-8.18-6.264-13.821-10.129-22.6-10.129h-9.9c-6.5,0-10.925,9.27-10.925,9.27s6.408,3.521,16.8,3.521S199.361,335.915,199.361,335.915Z" transform="translate(-132.32 -325.786)" fill="#65465e"/>
        <path id="Trazado_100766" data-name="Trazado 100766" d="M150.956,435.759h1.224a6.389,6.389,0,0,0,6.389-6.389V335.563a5.27,5.27,0,0,1,2.161-4.27c2.163-1.568,4.618-2.8,6.991-2.8h7.193c7.995,0,13.387,3.208,20.469,8.516a5.31,5.31,0,0,1,2.126,4.242v88.123a6.389,6.389,0,0,0,6.39,6.389h.555s.314,1.858.583,3.187c-1.283,0-5.082,16.063-5.082,31.5,0,9.5,9.49,71.457-32.9,77.078a49.6,49.6,0,0,1-5.15.4,2.509,2.509,0,0,1-2.554-2.39c-1.681-34.7-.17-68.084.678-85.113-3.829,10.818-5.905,60.55-5.3,84.413a1.256,1.256,0,0,1-1.8,1.161c-11.226-5.465-22.462-22.073-22.462-44.757C130.469,465.815,146.137,447.528,150.956,435.759Z" transform="translate(-130.469 -325.982)" fill="#341731"/>
      </g>
      <g id="Grupo_53928" data-name="Grupo 53928" transform="translate(16.294 99.884)">
        <path id="Trazado_100767" data-name="Trazado 100767" d="M152.254,336.81c3.158-.716,6.664-3.132,9.645-4.455,1.9-.842,8.656-.91,11.96-.91,9.65,0,13.686,3.983,18.183,4.423,4.913,1.885,6.561,21.194-.593,39.056h-1.4C174.967,366.934,152.254,336.81,152.254,336.81Z" transform="translate(-135.899 -331.445)" fill="#957c8c"/>
        <path id="Trazado_100768" data-name="Trazado 100768" d="M137.932,341.91a7.175,7.175,0,0,1,3.944-1.078h7.245a3.761,3.761,0,0,1,3.76,3.76V373.23a3.76,3.76,0,0,1-3.76,3.76h-1.615a14.86,14.86,0,0,1-4.921-.6C138.374,363.973,129.942,348.061,137.932,341.91Z" transform="translate(-134.618 -332.127)" fill="#957c8c"/>
      </g>
      <path id="Trazado_100769" data-name="Trazado 100769" d="M170.632,326.318c10.128,0,15.667,3.031,17.659,4.6a36.391,36.391,0,0,1,3.946,4.181,4.467,4.467,0,0,1,1.036,1.813c.666,2.472-5.2,4.989-13.808,4.9-8.177-.087-19.073-2.652-19.984-5.282a1.239,1.239,0,0,1,.387-1.3c3.143-2.868,3.815-6.648,5.066-7.571S168.392,326.318,170.632,326.318Z" transform="translate(-120.126 -231.189)" fill="#f3f0f3"/>
      <g id="Grupo_53930" data-name="Grupo 53930" transform="translate(45.289 66.486)">
        <circle id="Elipse_4055" data-name="Elipse 4055" cx="7.521" cy="7.521" r="7.521" transform="translate(0 39.058) rotate(-45)" fill="#ffa898"/>
        <g id="Grupo_53929" data-name="Grupo 53929" transform="translate(0.025)">
          <path id="Trazado_100770" data-name="Trazado 100770" d="M177.489,351.079a9.858,9.858,0,0,0,8.075-8.624l4-36.078a9.856,9.856,0,1,0-19.593-2.171l-4,36.078a9.863,9.863,0,0,0,11.517,10.8Z" transform="translate(-165.911 -295.43)" fill="#ffa898"/>
        </g>
        <path id="Trazado_100771" data-name="Trazado 100771" d="M168.111,322.431l2.02-18.225a9.856,9.856,0,1,1,19.593,2.171L187.136,329.7a49.4,49.4,0,0,1-11.946-3.541A52.631,52.631,0,0,1,168.111,322.431Z" transform="translate(-166.046 -295.43)" fill="#f48989"/>
      </g>
      <path id="Trazado_100772" data-name="Trazado 100772" d="M240.588,471.443a5.64,5.64,0,0,0,3.22-7.3l-12.655-32.63A186.694,186.694,0,0,1,219.623,384.2L215.846,349.4a5.641,5.641,0,0,0-11.215,1.217l3.777,34.794a197.943,197.943,0,0,0,12.228,50.179l12.655,32.631A5.639,5.639,0,0,0,240.588,471.443Z" transform="translate(-123.408 -232.5)" fill="#ffa898"/>
      <path id="Trazado_100773" data-name="Trazado 100773" d="M239.85,492.172a1.977,1.977,0,0,0,.928-.829.35.35,0,0,1,.572-.05,2.353,2.353,0,0,0,3.979-.6.35.35,0,0,1,.593-.088,2.695,2.695,0,0,0,4.749-2.034.35.35,0,0,1,.492-.361,2.359,2.359,0,0,0,3.137-3.092s-.905-2.175-1.255-3.046a.372.372,0,0,1,.194-.479c2.428-1.08,1.722-4.511-.714-7.812-2.861-3.877-10.225-9.543-15.565-6.884-4.449,2.215-6.651,8.367-4.078,14.593.457,1.108-.424-.887,4.289,9.657A2.028,2.028,0,0,0,239.85,492.172Z" transform="translate(-125.384 -241.353)" fill="#ffa898"/>
      <g id="Grupo_53931" data-name="Grupo 53931" transform="translate(16.073 105.547)">
        <circle id="Elipse_4056" data-name="Elipse 4056" cx="7.521" cy="7.521" r="7.521" transform="translate(53.074 121.374)" fill="#ffa898"/>
        <circle id="Elipse_4057" data-name="Elipse 4057" cx="7.521" cy="7.521" r="7.521" transform="translate(17.647 121.374)" fill="#ffa898"/>
        <path id="Trazado_100774" data-name="Trazado 100774" d="M204.6,350.01a5.641,5.641,0,1,0,5.64-5.64A5.641,5.641,0,0,0,204.6,350.01Z" transform="translate(-139.481 -338.047)" fill="#ffa898"/>
        <path id="Trazado_100775" data-name="Trazado 100775" d="M134.429,350.01a5.641,5.641,0,1,0,5.641-5.64A5.642,5.642,0,0,0,134.429,350.01Z" transform="translate(-134.383 -338.047)" fill="#ffa898"/>
        <path id="Trazado_100776" data-name="Trazado 100776" d="M136.571,345.067c7.267-6.363,27.323-7.621,36.532-7.505,9.938-.108,32.171.5,37,9.255l.013.023a4.094,4.094,0,0,1,.547,1.566h0A5.567,5.567,0,0,1,209.6,353a16.367,16.367,0,0,0-3.445,10.988c.543,9.847-.123,24.01-2.853,35.494a95.014,95.014,0,0,0-.719,40.7,31.881,31.881,0,0,1,.621,6.2h0c0,1.735,0,3.433-.032,5.086-.027,16.585,1.214,23.088-27.234,23.091h-.028c-21.555,0-24.881-4.361-25.058-21.364-.191-7.448,1.726-12.514,3.856-17.349a44.211,44.211,0,0,0-.226-36.135c-2.586-5.685-4.584-11.388-6.581-15.821-2.2-4.882-5.051-12.182-5.935-19.553a16.389,16.389,0,0,0-5.63-10.514,5.578,5.578,0,0,1-1.841-5.415A5.962,5.962,0,0,1,136.571,345.067Z" transform="translate(-134.379 -337.552)" fill="#ffa898"/>
      </g>
      <path id="Trazado_100777" data-name="Trazado 100777" d="M127.078,474.606a5.641,5.641,0,0,0,5.472-5.8l-1.028-34.983a186.634,186.634,0,0,1,4.936-48.451l8.061-34.057a5.641,5.641,0,0,0-10.978-2.6l-8.061,34.057a197.931,197.931,0,0,0-5.234,51.381l1.027,34.984A5.641,5.641,0,0,0,127.078,474.606Z" transform="translate(-117.273 -232.5)" fill="#ffa898"/>
      <path id="Trazado_100778" data-name="Trazado 100778" d="M120.347,493.958a1.979,1.979,0,0,0,1.152-.472.35.35,0,0,1,.556.144,2.353,2.353,0,0,0,3.95.765.35.35,0,0,1,.588.114,2.694,2.694,0,0,0,5.156-.33.35.35,0,0,1,.584-.175,2.36,2.36,0,0,0,3.99-1.867s-.127-2.353-.166-3.29a.373.373,0,0,1,.343-.387c2.649-.207,3.13-3.676,1.936-7.6-1.4-4.61-6.451-12.41-12.372-11.687-4.933.6-9.064,5.666-8.719,12.392.061,1.2-.1-.977.818,10.536A2.028,2.028,0,0,0,120.347,493.958Z" transform="translate(-117.067 -241.564)" fill="#ffa898"/>
      <g id="Grupo_53932" data-name="Grupo 53932" transform="translate(79.936 110.619)">
        <path id="Trazado_100779" data-name="Trazado 100779" d="M219.369,435.948a199.26,199.26,0,0,1-12.306-50.5l-3.777-34.794a6.883,6.883,0,0,1,11.879-5.442,7.274,7.274,0,0,1,1.858,4.231l3.747,34.518a185.368,185.368,0,0,0,11.453,47l6.24,16.091a.627.627,0,0,1-.357.811L226.419,452.4a.626.626,0,0,1-.811-.357Z" transform="translate(-203.246 -343.021)" fill="#e2dfe5"/>
        <path id="Trazado_100780" data-name="Trazado 100780" d="M239.916,456.078,228.23,460.61l3.344,8.625a.627.627,0,0,0,.811.357l10.518-4.078a.626.626,0,0,0,.358-.81Z" transform="translate(-205.061 -351.235)" fill="#f4eee8"/>
      </g>
      <g id="Grupo_53934" data-name="Grupo 53934" transform="translate(14.823 98.867)">
        <path id="Trazado_100781" data-name="Trazado 100781" d="M135.647,344.028c6.646-5.82,23.328-7.574,33.834-7.8l.013.007a107.256,107.256,0,0,0,11.812,5.5,12.58,12.58,0,0,0,4.874-5.112v0c10.222.835,21.451,3.2,24.934,9.516a6.952,6.952,0,0,1-.622,7.53,15.128,15.128,0,0,0-3.181,10.148c.49,8.881.028,23.6-2.884,35.854a94.134,94.134,0,0,0-.71,40.156,33.148,33.148,0,0,1,.646,6.453c0,13.464.514,19.884-3.754,24.159-3.737,3.744-10.912,5.271-24.785,5.272h-.008c-22.653,0-26.128-5.092-26.311-22.585-.2-7.754,1.847-13.089,3.961-17.887a42.994,42.994,0,0,0-.219-35.11c-2.608-5.728-4.6-11.419-6.584-15.826a69.846,69.846,0,0,1-6.036-19.918,15.1,15.1,0,0,0-5.2-9.71A6.916,6.916,0,0,1,135.647,344.028Z" transform="translate(-133.031 -330.776)" fill="#fcf6f4"/>
        <g id="Grupo_53933" data-name="Grupo 53933" transform="translate(24.49)">
          <path id="Trazado_100782" data-name="Trazado 100782" d="M190.375,335.119a2.572,2.572,0,0,0-.029-1.238.894.894,0,0,1,.4-.99h0a.9.9,0,0,1,1.144.158c.662.732,1.36,1.576,2.26,2.567a4.243,4.243,0,0,1,.972,1.692c1.1,3.966-.147,10.471-.62,12.63a.411.411,0,0,1-.695.2l-8.713-8.646S189.514,339.037,190.375,335.119Z" transform="translate(-161.304 -330.523)" fill="#f3f0f3"/>
          <path id="Trazado_100783" data-name="Trazado 100783" d="M159.887,335.5a14.62,14.62,0,0,0,3.055-4.168,1.838,1.838,0,0,1,2.305-.855h0a.845.845,0,0,1,.521.554c1.027,3.9,17.457,10.285,17.457,10.285l-5.725,8.243a1.248,1.248,0,0,1-1.637.382c-3.445-1.926-14.759-8.533-16.372-13.1A1.386,1.386,0,0,1,159.887,335.5Z" transform="translate(-159.44 -330.348)" fill="#f3f0f3"/>
        </g>
        <path id="Trazado_100784" data-name="Trazado 100784" d="M176,350.65a1.249,1.249,0,0,0,1.637-.382l5.724-8.244,8.714,8.647a.411.411,0,0,0,.695-.2,48.8,48.8,0,0,0,.983-6.6,43.34,43.34,0,0,1-.892,6.872c-.149.769-.415,1.306-.855,1.306a1.4,1.4,0,0,1-1.049-.486l-7.355-7.685-4.935,7.107a2.5,2.5,0,0,1-3.278.76c-3.64-2.034-11.069-7.357-14.106-11.631C164.974,344.3,173.157,349.063,176,350.65Z" transform="translate(-135.084 -331.058)" fill="#f4eee8"/>
      </g>
      <g id="Grupo_53935" data-name="Grupo 53935" transform="translate(1.634 110.616)">
        <path id="Trazado_100785" data-name="Trazado 100785" d="M118.9,434.089a199.18,199.18,0,0,1,5.267-51.707l8.061-34.057a6.882,6.882,0,0,1,13.014-1.161,7.277,7.277,0,0,1,.338,4.608l-8,33.786a185.39,185.39,0,0,0-4.9,48.126l.507,17.251a.628.628,0,0,1-.608.645l-12.528.368a.627.627,0,0,1-.645-.608Z" transform="translate(-118.809 -343.018)" fill="#f3f0f3"/>
        <path id="Trazado_100786" data-name="Trazado 100786" d="M132.668,460.083l-12.529.368.272,9.246a.626.626,0,0,0,.645.608l11.277-.331a.626.626,0,0,0,.607-.645Z" transform="translate(-118.906 -351.523)" fill="#fcf6f4"/>
      </g>
      <g id="Grupo_53936" data-name="Grupo 53936" transform="translate(54.364 108.345)">
        <path id="Trazado_100787" data-name="Trazado 100787" d="M195.126,340.569c.39,0,1.245,2.315,1.245,5.171s-.856,5.17-1.245,5.17c-3.983,0-10.022-5.17-10.022-5.17S191.143,340.569,195.126,340.569Z" transform="translate(-176.355 -340.569)" fill="#ece1d8"/>
        <path id="Trazado_100788" data-name="Trazado 100788" d="M176.915,340.569c-.39,0-1.245,2.315-1.245,5.171s.856,5.17,1.245,5.17c3.983,0,10.022-5.17,10.022-5.17S180.9,340.569,176.915,340.569Z" transform="translate(-175.67 -340.569)" fill="#ece1d8"/>
        <rect id="Rectángulo_5225" data-name="Rectángulo 5225" width="4.535" height="6.528" rx="2.007" transform="translate(7.74 1.906)" fill="#ece1d8"/>
      </g>
      <path id="Trazado_100789" data-name="Trazado 100789" d="M189.037,647.115h15.21a1.881,1.881,0,0,0,1.859-1.6l6.261-41.1a297.048,297.048,0,0,0,1.592-77.563l-5.778-52.082a9.4,9.4,0,0,0-9.338-8.373,9.543,9.543,0,0,0-1.04.063,9.4,9.4,0,0,0-8.31,10.379l5.778,52.081a278.646,278.646,0,0,1-1.479,72.65l-6.615,43.375A1.881,1.881,0,0,0,189.037,647.115Z" transform="translate(-122.141 -241.366)" fill="#43253f"/>
      <path id="Trazado_100790" data-name="Trazado 100790" d="M150.866,647.115h15.223a1.879,1.879,0,0,0,1.858-1.6l6.262-41.1a297.653,297.653,0,0,0,1.592-77.563l-5.779-52.082a9.4,9.4,0,0,0-9.337-8.373,9.8,9.8,0,0,0-1.053.063,9.4,9.4,0,0,0-8.3,10.379l5.778,52.081a278.084,278.084,0,0,1-1.491,72.65l-6.614,43.375A1.879,1.879,0,0,0,150.866,647.115Z" transform="translate(-119.368 -241.366)" fill="#43253f"/>
      <path id="Trazado_100791" data-name="Trazado 100791" d="M150.125,460.928c.188,18.851,5.227,23.2,26.937,23.2,14.064,0,21.372-1.579,25.232-5.453,3.924-3.936,3.924-9.627,3.911-17.511,0-12.88.021-9.583-1.027-15.693a2.512,2.512,0,0,0-2.471-2.093H155.538a2.514,2.514,0,0,0-2.326,1.563A37.389,37.389,0,0,0,150.125,460.928Z" transform="translate(-119.449 -239.694)" fill="#43253f"/>
      <path id="Trazado_100792" data-name="Trazado 100792" d="M208.561,361.98v0a14.1,14.1,0,0,0,0,1.521c.517,9.368.023,23.772-2.906,36.1-4.218,17.752-2.234,30.353-.922,38.691.283,1.793.531,3.37.692,4.79a1.246,1.246,0,0,1-.738,1.27l-5.371,2.4a2.507,2.507,0,0,1-3.228-1.1l-5.653-10.491a1.253,1.253,0,0,0-2.057-.219L178.6,446.418a2.5,2.5,0,0,1-2.666.763c-4-1.282-14.874-4.535-24.031-5.112a1.251,1.251,0,0,1-1.141-1.61,59.321,59.321,0,0,1,2.279-5.842,42.11,42.11,0,0,0-.214-34.392c-1.421-3.123-2.637-6.179-3.815-9.134-.964-2.419-1.872-4.7-2.77-6.695a91.759,91.759,0,0,1-3.4-8.608c3.391-.789,6.367-8.188,6.99-16.3.454-5.91.163-12.5-2.908-15.745-3.427-3.623-7.7-3.008-8.738-2.436,1.247-1.147,4.03-2.037,5.678-2.578a59.261,59.261,0,0,1,7.366-1.844c3.108-.7,6.554-3.056,9.5-4.39-2.571,2.161,4.009,7.147,9.053,13.4,7.165,8.886,15.321,19.675,19.779,26.869,3.314-7.74,5.257-19.471,4.106-27.8-.653-4.723-1.766-7.972-2.653-9.028,5.86.747,11.357,2.047,15.43,4.2a2.364,2.364,0,0,1,.7.554C211.966,346.4,208.471,357.828,208.561,361.98Z" transform="translate(-118.583 -231.637)" fill="#ece1d8"/>
      <path id="Trazado_100793" data-name="Trazado 100793" d="M217.717,436.408l8.4,21.655a1.881,1.881,0,0,0,2.433,1.073l12.387-4.8a1.881,1.881,0,0,0,1.073-2.433l-8.4-21.655a183.3,183.3,0,0,1-11.341-46.581l-3.785-34.79a8.532,8.532,0,0,0-9.385-7.56,8.366,8.366,0,0,0-2.173.533,8.516,8.516,0,0,0-5.382,8.863l3.772,34.8A200.792,200.792,0,0,0,217.717,436.408Z" transform="translate(-123.182 -232.274)" fill="#43253f"/>
      <g id="Grupo_53937" data-name="Grupo 53937" transform="translate(13.116 95.108)">
        <path id="Trazado_100794" data-name="Trazado 100794" d="M150.88,435.908c.287-.695.581-1.373.875-2.043a41.365,41.365,0,0,0-.211-33.779c-1.428-3.138-2.648-6.2-3.828-9.166-.961-2.41-1.868-4.688-2.758-6.665a71.018,71.018,0,0,1-6.2-20.616,13.253,13.253,0,0,0-4.66-8.483,8.568,8.568,0,0,1,.316-13.134c4.232-3.658,11.908-5.773,19.727-6.93h0l8.38-8.8c-1.525,2.458,4.1,12.949,5.821,15.822,4.162,6.936,16.373,28.829,17.7,77.818a89.294,89.294,0,0,1-9.548,22.94,2.5,2.5,0,0,1-2.875,1.1c-4.257-1.308-14.821-4.437-18.443-4.437h-6.024C149.818,438.258,150.4,437.052,150.88,435.908Z" transform="translate(-131.191 -326.295)" fill="#4c2d47"/>
        <path id="Trazado_100795" data-name="Trazado 100795" d="M202.1,336.306c6.562,1.54,12.229,4.166,14.709,8.592a8.6,8.6,0,0,1-.715,9.411,13.5,13.5,0,0,0-2.838,9.056c.518,9.42.022,23.907-2.928,36.32a92.694,92.694,0,0,0-1.267,36.36c.056.326.252,1.468.452,2.508.039.2.078.392.118.589.152.754.28,1.525.382,2.3a1.263,1.263,0,0,1-.683,1.28l-1.379.7a2.508,2.508,0,0,1-3.461-1.295l-8.834-21.844s4.335-29.169,4.335-54.538c0-17.944-3.481-28.048-6.2-33.118a1,1,0,0,1,1.428-1.308C197.391,332.739,199.631,334.412,202.1,336.306Z" transform="translate(-135.73 -326.648)" fill="#4c2d47"/>
        <path id="Trazado_100796" data-name="Trazado 100796" d="M193.8,332.641a1,1,0,0,1,1.427-1.308c.841.549,1.694,1.137,2.568,1.762.95.68,2.919,2.162,4.041,3.009a.391.391,0,0,1-.212.7l-3.389.239,3.529,6.376a1.255,1.255,0,0,0,1.047.645l6.541.26a1.246,1.246,0,0,1,1.2,1.352c-.849,9.714-6.767,49.008-14.9,74.611,0,0,4.335-29.169,4.335-54.538C199.994,347.816,196.517,337.713,193.8,332.641Z" transform="translate(-135.731 -326.649)" fill="#65465e"/>
        <path id="Trazado_100797" data-name="Trazado 100797" d="M152.774,343.941l7.835-.234a1.252,1.252,0,0,0,1.12-.772l2.509-6.042-5.636.4a1.779,1.779,0,0,1-1.078-.27c-.816-.513-2.285-1.525-1.9-1.935a24.441,24.441,0,0,1,2.783-4.338c1.392-1.723,3.719-3.845,5.6-4.46-1.422,2.709,4.1,12.961,5.821,15.822,4.162,6.936,16.373,28.829,17.7,77.818-14.373-46.538-30.358-67.768-35.672-73.926A1.251,1.251,0,0,1,152.774,343.941Z" transform="translate(-132.67 -326.295)" fill="#65465e"/>
        <path id="Trazado_100798" data-name="Trazado 100798" d="M174.449,414.827a2.141,2.141,0,1,0,2.141-2.141A2.141,2.141,0,0,0,174.449,414.827Z" transform="translate(-134.333 -332.572)" fill="#341731"/>
        <path id="Trazado_100799" data-name="Trazado 100799" d="M174.449,443.211a2.141,2.141,0,1,0,2.141-2.141A2.14,2.14,0,0,0,174.449,443.211Z" transform="translate(-134.333 -334.634)" fill="#341731"/>
        <circle id="Elipse_4058" data-name="Elipse 4058" cx="2.141" cy="2.141" r="2.141" transform="translate(44.931 93.693)" fill="#341731"/>
        <path id="Trazado_100800" data-name="Trazado 100800" d="M160,387.788h10.786a.626.626,0,0,0,.626-.626V385.4a1.7,1.7,0,0,0-1.7-1.705H161.08a1.7,1.7,0,0,0-1.705,1.705v1.763A.626.626,0,0,0,160,387.788Z" transform="translate(-133.238 -330.465)" fill="#341731"/>
        <ellipse id="Elipse_4059" data-name="Elipse 4059" cx="0.976" cy="2.141" rx="0.976" ry="2.141" transform="translate(64.965 93.693)" fill="#341731"/>
        <path id="Trazado_100801" data-name="Trazado 100801" d="M205.5,443.211c-.127-1.182.208-2.141.747-2.141s1.078.959,1.2,2.141-.208,2.141-.747,2.141S205.63,444.395,205.5,443.211Z" transform="translate(-136.588 -334.634)" fill="#341731"/>
        <path id="Trazado_100802" data-name="Trazado 100802" d="M203.209,414.827c-.153,1.182.16,2.141.7,2.141s1.1-.959,1.253-2.141-.16-2.141-.7-2.141S203.362,413.644,203.209,414.827Z" transform="translate(-136.42 -332.572)" fill="#341731"/>
      </g>
      <path id="Trazado_100803" data-name="Trazado 100803" d="M117.133,434.005l.683,23.217a1.88,1.88,0,0,0,1.934,1.824l13.281-.39a1.88,1.88,0,0,0,1.824-1.934l-.683-23.217a183.3,183.3,0,0,1,4.869-47.694l8.053-34.057a8.532,8.532,0,0,0-6.321-10.26,8.339,8.339,0,0,0-2.226-.223,8.515,8.515,0,0,0-8.034,6.556l-8.066,34.057A200.8,200.8,0,0,0,117.133,434.005Z" transform="translate(-117.047 -232.275)" fill="#55364f"/>
      <g id="Grupo_53944" data-name="Grupo 53944" transform="translate(13.393)">
        <path id="Trazado_100804" data-name="Trazado 100804" d="M134.333,280.119c4.847,3.673,22.337,4.319,43.015,1.27,23.511-3.466,37.952-9.119,41.118-14,.491-.757,3.13-8.227.742-8.278-.836-.018-3.238,1.23-5.224,1.278-5.106.125-11.664.018-17.783.055-7.073.044-32.637-1.6-41.293-.959-9.519.707-17.938,4.017-22.024,7.646C130.38,269.357,131.483,277.958,134.333,280.119Z" transform="translate(-131.49 -226.306)" fill="#4c2d47"/>
        <g id="Grupo_53938" data-name="Grupo 53938" transform="translate(15.835 26.293)">
          <path id="Trazado_100805" data-name="Trazado 100805" d="M180.042,252.088a34.488,34.488,0,0,1,7.677.866,32.319,32.319,0,0,1,18.737,11.956,27.789,27.789,0,0,1,4.487,9.743c1.133,4.385.852,8.787.852,13.317,0,4.155.394,8.486-.069,12.624a25.777,25.777,0,0,1-11.565,18.567c-7.477,4.822-17.2,2.623-24.844-.655a47.688,47.688,0,0,1-18.943-14.782,39.822,39.822,0,0,1-7.8-22.991c0-.254-.007-.509-.007-.763C148.565,264.571,162.658,252.088,180.042,252.088Z" transform="translate(-148.565 -252.088)" fill="#ffa898"/>
          <path id="Trazado_100806" data-name="Trazado 100806" d="M157.489,286.56a3.736,3.736,0,0,1,4.729,3.371c.468,3.267-1.585,3.5-1.181,6.429.249,1.814.985,2.467,1.241,4.255.232,1.615-.163,3.523-1.66,3.892-2.457.6-5.621-3.591-6.552-7.683C153.112,292.632,153.647,287.506,157.489,286.56Z" transform="translate(-148.935 -254.583)" fill="#f8918c"/>
          <path id="Trazado_100807" data-name="Trazado 100807" d="M185.816,308.082a.989.989,0,0,1,1.366.279c.019.03,1.981,2.9,7.315,2.9,5.256,0,7.23-2.777,7.321-2.908a.986.986,0,0,1,1.641,1.092c-.1.155-2.577,3.788-8.963,3.788s-8.857-3.633-8.96-3.788A.987.987,0,0,1,185.816,308.082Z" transform="translate(-151.239 -256.144)" fill="#dd7d80"/>
          <path id="Trazado_100808" data-name="Trazado 100808" d="M175.547,287.512c2.8-2.142,7.69-1.617,8.239-1.551a1.254,1.254,0,0,1-.3,2.489c-1.208-.147-4.715-.245-6.412,1.053a1.254,1.254,0,0,1-1.524-1.991Z" transform="translate(-150.49 -254.541)" fill="#7d2e1e"/>
          <path id="Trazado_100809" data-name="Trazado 100809" d="M206.171,288.45a1.24,1.24,0,0,1-1.393-1.094,1.253,1.253,0,0,1,1.092-1.395c.548-.066,5.438-.591,8.238,1.551a1.253,1.253,0,1,1-1.523,1.991C210.9,288.212,207.383,288.306,206.171,288.45Z" transform="translate(-152.648 -254.541)" fill="#7d2e1e"/>
          <path id="Trazado_100810" data-name="Trazado 100810" d="M210.434,294.543v1.347a2.052,2.052,0,0,1-1.925,2.158h0a2.053,2.053,0,0,1-1.926-2.158v-1.346a1.939,1.939,0,1,1,3.852,0Z" transform="translate(-152.78 -255.016)" fill="#532442"/>
          <path id="Trazado_100811" data-name="Trazado 100811" d="M181.621,298.048h0a2.053,2.053,0,0,1-1.926-2.158v-1.346a1.939,1.939,0,1,1,3.852,0v1.347A2.052,2.052,0,0,1,181.621,298.048Z" transform="translate(-150.827 -255.016)" fill="#532442"/>
          <path id="Trazado_100812" data-name="Trazado 100812" d="M183.212,300.959a1.972,1.972,0,0,1,1.3,3.723c-.811.289-2.121,1.082-2.355,1.863a1.971,1.971,0,1,1-3.777-1.13C179.283,302.4,182.813,301.1,183.212,300.959Z" transform="translate(-150.725 -255.631)" fill="#f8918c"/>
          <path id="Trazado_100813" data-name="Trazado 100813" d="M204.125,302.169a1.973,1.973,0,0,1,2.5-1.21c.4.138,3.929,1.438,4.832,4.456a1.972,1.972,0,1,1-3.778,1.13c-.233-.781-1.542-1.574-2.354-1.863A1.976,1.976,0,0,1,204.125,302.169Z" transform="translate(-152.594 -255.631)" fill="#f8918c"/>
        </g>
        <path id="Trazado_100814" data-name="Trazado 100814" d="M215.92,285a2.358,2.358,0,0,1-2.2-1.52l-8.762-23.046c4.53,0,9.666,6.981,10.771,12.476a41.065,41.065,0,0,1,.2,12.091Z" transform="translate(-136.827 -226.402)" fill="#934023"/>
        <g id="Grupo_53939" data-name="Grupo 53939" transform="translate(15.835 26.293)">
          <path id="Trazado_100815" data-name="Trazado 100815" d="M180.042,252.088a34.488,34.488,0,0,1,7.677.866,32.319,32.319,0,0,1,18.737,11.956,27.789,27.789,0,0,1,4.487,9.743c1.133,4.385.852,8.787.852,13.317,0,4.155.394,8.486-.069,12.624a25.783,25.783,0,0,1-11.565,18.568c-7.477,4.821-17.2,2.622-24.844-.656a47.678,47.678,0,0,1-18.942-14.782,39.816,39.816,0,0,1-7.8-22.99q-.007-.383-.007-.764C148.565,264.571,162.658,252.088,180.042,252.088Z" transform="translate(-148.565 -252.088)" fill="#ffa898"/>
          <path id="Trazado_100816" data-name="Trazado 100816" d="M157.489,286.56a3.736,3.736,0,0,1,4.729,3.371c.468,3.267-1.585,3.5-1.181,6.429.249,1.814.985,2.467,1.241,4.255.232,1.615-.163,3.523-1.66,3.892-2.457.6-5.621-3.591-6.552-7.683C153.112,292.632,153.647,287.506,157.489,286.56Z" transform="translate(-148.935 -254.583)" fill="#f8918c"/>
          <path id="Trazado_100817" data-name="Trazado 100817" d="M185.816,308.083a.988.988,0,0,1,1.366.278c.019.03,1.981,2.9,7.315,2.9,5.256,0,7.23-2.777,7.321-2.908a.986.986,0,0,1,1.641,1.092c-.1.155-2.577,3.788-8.963,3.788s-8.857-3.633-8.96-3.788A.985.985,0,0,1,185.816,308.083Z" transform="translate(-151.239 -256.144)" fill="#dd7d80"/>
          <path id="Trazado_100818" data-name="Trazado 100818" d="M175.548,287.512c2.8-2.142,7.69-1.617,8.238-1.551a1.254,1.254,0,0,1-.3,2.489c-1.208-.147-4.715-.245-6.412,1.053a1.253,1.253,0,1,1-1.523-1.991Z" transform="translate(-150.49 -254.541)" fill="#7d2e1e"/>
          <path id="Trazado_100819" data-name="Trazado 100819" d="M206.171,288.45a1.24,1.24,0,0,1-1.393-1.094,1.253,1.253,0,0,1,1.092-1.395c.548-.066,5.438-.591,8.238,1.551a1.253,1.253,0,1,1-1.523,1.991C210.9,288.212,207.383,288.306,206.171,288.45Z" transform="translate(-152.648 -254.541)" fill="#7d2e1e"/>
          <path id="Trazado_100820" data-name="Trazado 100820" d="M210.434,294.543v1.347a2.052,2.052,0,0,1-1.925,2.158h0a2.053,2.053,0,0,1-1.926-2.158v-1.346a1.939,1.939,0,1,1,3.852,0Z" transform="translate(-152.78 -255.016)" fill="#532442"/>
          <path id="Trazado_100821" data-name="Trazado 100821" d="M181.621,298.048h0a2.053,2.053,0,0,1-1.926-2.158v-1.346a1.939,1.939,0,1,1,3.852,0v1.347A2.052,2.052,0,0,1,181.621,298.048Z" transform="translate(-150.827 -255.016)" fill="#532442"/>
          <path id="Trazado_100822" data-name="Trazado 100822" d="M183.212,300.959a1.972,1.972,0,0,1,1.3,3.723c-.811.289-2.121,1.082-2.355,1.863a1.971,1.971,0,1,1-3.777-1.13C179.283,302.4,182.813,301.1,183.212,300.959Z" transform="translate(-150.725 -255.631)" fill="#f8918c"/>
          <path id="Trazado_100823" data-name="Trazado 100823" d="M204.125,302.169a1.973,1.973,0,0,1,2.5-1.21c.4.138,3.929,1.438,4.832,4.456a1.972,1.972,0,1,1-3.778,1.13c-.233-.781-1.543-1.574-2.354-1.863A1.976,1.976,0,0,1,204.125,302.169Z" transform="translate(-152.594 -255.631)" fill="#f8918c"/>
        </g>
        <g id="Grupo_53940" data-name="Grupo 53940" transform="translate(14.9 17.769)">
          <path id="Trazado_100824" data-name="Trazado 100824" d="M162.7,282.586c.019,3.914.479,36.708,10.468,47.875,3.938,4.4,15.441,4.868,19.678,4.868,9.2,0,16.126-2.359,18.694-7.118,2.961-5.489.857-13.21.857-20.168,0-3,.439-5.3.438-6.216a9.83,9.83,0,0,1-6,8.316,1.137,1.137,0,0,1-1.533-.529c-1-2.191-3.4-6.747-12.457-6.747-11.248,0-13.684,4.516-14.8,6.673a1.116,1.116,0,0,1-1.454.522c-10.063-4.8-10.742-20.054-10.777-28.272a.581.581,0,0,0-.8-.531c-.83.327-1.551.625-1.959.795A.571.571,0,0,0,162.7,282.586Zm20.417,26.644c.473-1.772,2.421-2.5,5.2-2.5,1.852,0,2.966-1.9,4.525-1.9,1.467,0,2.514,1.9,4.256,1.9,2.616,0,4.448.733,4.894,2.5.418,1.669-1.934,3.988-4.569,4.461a2.186,2.186,0,0,1-1.495-.313,6.33,6.33,0,0,0-3.1-.7,6.2,6.2,0,0,0-3.108.721,2.191,2.191,0,0,1-1.486.339C185.337,313.275,182.662,310.95,183.121,309.229Z" transform="translate(-148.658 -245.681)" fill="#934023"/>
          <path id="Trazado_100825" data-name="Trazado 100825" d="M192.231,258.03c-4.41,0-10.8.01-17.081,0-7.66-.012-13.906.839-18.988,4.463a1.242,1.242,0,0,1-1.947-1.254c1.273-6.019,6.359-18.343,26.667-18.343,21.366,0,20.721,10.823,20.013,14.163a1.237,1.237,0,0,1-1.217.97Z" transform="translate(-148.039 -242.897)" fill="#7d2e1e"/>
          <path id="Trazado_100826" data-name="Trazado 100826" d="M151.972,266.176c4.166-5.711,15.138-5.487,18.656-5.257a.625.625,0,0,1,.485.951c-1.17,2.1-1.358,5.608-1.5,7.456-.313,4.126.117,9.593-5.367,14.1l-.971.7a2.01,2.01,0,0,1-2.432.008,3.754,3.754,0,0,0-2.456-.827c-3.6,0-8.267,6.555-3.252,19.4,0,0-3.835-3.6-6.388-12.882C146.152,280.368,148.055,271.816,151.972,266.176Z" transform="translate(-147.557 -244.2)" fill="#934023"/>
        </g>
        <g id="Grupo_53943" data-name="Grupo 53943">
          <g id="Grupo_53941" data-name="Grupo 53941" transform="translate(10.642)">
            <path id="Trazado_100827" data-name="Trazado 100827" d="M209.093,264.018a.366.366,0,0,1-.564.415c-4.075-3.143-16.95-4.011-31.806-1.82S149.79,269.35,146.8,273.535a.366.366,0,0,1-.66-.235,211.549,211.549,0,0,0-3.157-37.969c-.481-3.267,12.152-7.836,28.217-10.2s29.48-1.64,29.962,1.628A211.544,211.544,0,0,0,209.093,264.018Z" transform="translate(-142.966 -223.735)" fill="#4c2d47"/>
          </g>
          <g id="Grupo_53942" data-name="Grupo 53942" transform="translate(13.144 20.305)">
            <path id="Trazado_100828" data-name="Trazado 100828" d="M176.919,264.2c-14.861,2.19-26.94,6.74-29.931,10.926a.365.365,0,0,1-.659-.234c.089-6.56-.213-12.882-.665-18.421,1.015-3,13.343-7.052,28.741-9.323s28.371-1.951,30.208.631c1.167,5.435,2.7,11.574,4.68,17.829a.366.366,0,0,1-.565.414C204.658,262.882,191.78,262.013,176.919,264.2Z" transform="translate(-145.664 -245.631)" fill="#65465e"/>
          </g>
          <path id="Trazado_100829" data-name="Trazado 100829" d="M132.885,267.133c4.087-3.629,12.505-6.939,22.024-7.646,8.656-.643,34.22,1,41.293.959,6.119-.037,12.677.07,17.783-.055,1.985-.048,4.387-1.3,5.224-1.278,2.388.051-.251,7.522-.742,8.278a9.45,9.45,0,0,1-2.118,2.19,4.088,4.088,0,0,1-4.274.372c-6.38-3.006-20.136-3.738-35.694-1.445-16.063,2.368-29.353,7.271-34.242,12.143a4.153,4.153,0,0,1-4.044,1.142,11.537,11.537,0,0,1-3.76-1.674C131.483,277.958,130.38,269.357,132.885,267.133Z" transform="translate(-131.49 -226.306)" fill="#4c2d47"/>
        </g>
      </g>
    </g>
  </g>
</svg>
