<svg xmlns="http://www.w3.org/2000/svg" width="137.794" height="301.958" viewBox="0 0 137.794 301.958">
  <g id="Grupo_54119" data-name="Grupo 54119" transform="translate(-101.006 -774.594)">
    <path id="Trazado_100880" data-name="Trazado 100880" d="M228.146,954.977c-6.982-23.945-22.16-31.55-24.134-49.26s5.468-23.691,12.45-42.024,5.521-44.8,4.914-45.3-13.549-4.8-23.061-11.952a73.386,73.386,0,0,1-15.359-15.922l-13.606.067-13.52-.067a72.337,72.337,0,0,1-15.306,15.922c-9.513,7.151-22.428,11.453-23.035,11.952s-2.056,26.97,4.927,45.3,14.43,24.314,12.457,42.024-17.149,25.315-24.131,49.26S104.7,999.624,105,1002.118c.289,2.372,19.033,13.315,60.746,14.381v.085c.878,0,2.413-.009,3.512-.023,1.1.014,1.757.023,3.513.023v-.085c41.712-1.066,60.642-12.009,60.931-14.381C234.006,999.624,235.129,978.922,228.146,954.977Z" fill="#f4f3ea"/>
    <path id="Trazado_100881" data-name="Trazado 100881" d="M156.075,790.625h26.716a76.543,76.543,0,0,0,15.616,15.951c10.189,7.857,23.062,11.883,23.062,11.883s3.128,23.41-4.721,44.748S204.139,885.4,203.787,900.74s9.307,24.033,14.685,33.447,16.244,17.053,15.277,67.935c0,0-2.041,8.4-43.3,13.261s-80.223-5.613-85.23-13.264c0,0,17.662,12.137,58.141,6.151s47.158-19.29,48.372-30.431-1.821-27.271-11.334-39.078-17-18.291-18.418-30.43,7.489-20.952,7.894-26.107a31.709,31.709,0,0,1-17.811-9.312s-6.477,5.155-20.139,3.658S133.1,861.1,133.1,861.1s4.25,8.231,16.5,10.559,22.365-9.4,22.365-9.4a19.468,19.468,0,0,0,15.078,9.021c15.18,1.372,25.7-8.189,28.74-18.333S218.21,820.2,218.21,820.2a90.071,90.071,0,0,1-23.478-12.306c-12.548-8.979-13.56-15.826-13.56-15.826Z" fill="#dddacc"/>
    <path id="Trazado_100882" data-name="Trazado 100882" d="M139.073,909.162a36.083,36.083,0,0,1-4.857,14.8c-4.25,6.651-13.561,19.788-18.216,42.4s-4.452,32.592-1.619,34.588,45.224,10.642,54.939-9.645S172.772,908.165,139.073,909.162Z" fill="#fcfbf2"/>
    <path id="Trazado_100883" data-name="Trazado 100883" d="M156.075,790.35s1.682,5.612,13.44,5.612,13.276-5.612,13.276-5.612-1.05-2.931-13.276-3.055S156.075,790.35,156.075,790.35Z" fill="#dddacc"/>
    <path id="Trazado_100884" data-name="Trazado 100884" d="M124.527,821.842c-3.65,1.615-1.089,23.757,16.672,25.628s25.158-9.751,29.1-9.876,11.168,9.59,25.441,8.379c15.686-1.33,18.317-13.1,8.9-23.7s-23.376-20.2-25.2-21.077-12.295-2.619-19.43,1.123S146.234,812.239,124.527,821.842Z" fill="#fcfbf2"/>
    <path id="Trazado_100885" data-name="Trazado 100885" d="M133.533,877.963s4.478,8.044,5.54,14.9a62.235,62.235,0,0,1,.608,12.783s17.507.146,17.81-10.455S137.625,876.792,133.533,877.963Z" fill="#fcfbf2"/>
    <path id="Trazado_100886" data-name="Trazado 100886" d="M127.537,822.443s6.072-1.579,15.685-6.817a105,105,0,0,0,17-11.724s-3.239,19.207-16.8,27.687S127.537,822.443,127.537,822.443Z" fill="#fff"/>
    <path id="Trazado_100887" data-name="Trazado 100887" d="M221.58,840.918s-.273,8.715-4.453,21.227-9.677,20.629-11.431,26.382-4.1,17.648,2.386,29.534,20.129,24.812,23.3,45.766a217.958,217.958,0,0,1,2.367,38.295s-2.413,5.891-21.98,9.8c0,0,10.033-3.447,14.132-11.054s4.1-41.78-9.563-57.993-21.555-28.56-18.823-42.528,2.682-17.128,2.682-17.128-4.807,1.164-18.924-6.194c0,0,15.938,6.485,24.287-2.494A63.719,63.719,0,0,0,221.58,840.918Z" fill="#cecaba"/>
    <path id="Trazado_100888" data-name="Trazado 100888" d="M148.254,799.613c.982,2.407-.958,232.949-.958,232.949s-37.436-5.269-46.287-17.783c0,0-.084-2.238.631-21.3,1.236-32.933,9.291-48.2,20.2-65.715,14.489-23.271,4.72-39.992-.768-61.287s-4.94-47.86-4.72-49.067,7.683-4.062,18.111-10.209S147.666,798.173,148.254,799.613Z" fill="#0075a4"/>
    <g id="Grupo_54025" data-name="Grupo 54025">
      <g id="Grupo_53991" data-name="Grupo 53991">
        <path id="Trazado_100889" data-name="Trazado 100889" d="M145.383,1022.893l-.026,4.617a.439.439,0,0,1-.878-.006l.026-4.617a.439.439,0,0,1,.878.006Z" fill="#fff"/>
      </g>
      <g id="Grupo_53992" data-name="Grupo 53992">
        <path id="Trazado_100890" data-name="Trazado 100890" d="M145.427,1015.337l-.027,4.618a.439.439,0,0,1-.878-.007l.027-4.617a.439.439,0,0,1,.878.006Z" fill="#fff"/>
      </g>
      <g id="Grupo_53993" data-name="Grupo 53993">
        <path id="Trazado_100891" data-name="Trazado 100891" d="M145.47,1007.781l-.026,4.618a.44.44,0,0,1-.879-.007l.027-4.617a.439.439,0,0,1,.878.006Z" fill="#fff"/>
      </g>
      <g id="Grupo_53994" data-name="Grupo 53994">
        <path id="Trazado_100892" data-name="Trazado 100892" d="M145.514,1000.226l-.027,4.617a.439.439,0,0,1-.878-.006l.027-4.618a.439.439,0,0,1,.878.007Z" fill="#fff"/>
      </g>
      <g id="Grupo_53995" data-name="Grupo 53995">
        <path id="Trazado_100893" data-name="Trazado 100893" d="M145.557,992.67l-.026,4.617a.439.439,0,0,1-.878-.006l.026-4.618a.439.439,0,0,1,.878.007Z" fill="#fff"/>
      </g>
      <g id="Grupo_53996" data-name="Grupo 53996">
        <path id="Trazado_100894" data-name="Trazado 100894" d="M145.6,985.114l-.027,4.618a.439.439,0,0,1-.878-.007l.027-4.618a.439.439,0,0,1,.878.007Z" fill="#fff"/>
      </g>
      <g id="Grupo_53997" data-name="Grupo 53997">
        <path id="Trazado_100895" data-name="Trazado 100895" d="M145.644,977.559l-.026,4.617a.439.439,0,0,1-.878-.007l.026-4.618a.439.439,0,0,1,.878.008Z" fill="#fff"/>
      </g>
      <g id="Grupo_53998" data-name="Grupo 53998">
        <path id="Trazado_100896" data-name="Trazado 100896" d="M145.69,969.583l-.026,4.617a.44.44,0,0,1-.879-.007l.027-4.618a.439.439,0,0,1,.878.008Z" fill="#fff"/>
      </g>
      <g id="Grupo_53999" data-name="Grupo 53999">
        <path id="Trazado_100897" data-name="Trazado 100897" d="M145.734,962.027l-.027,4.618a.439.439,0,0,1-.878-.008l.027-4.617a.439.439,0,0,1,.878.007Z" fill="#fff"/>
      </g>
      <g id="Grupo_54000" data-name="Grupo 54000">
        <path id="Trazado_100898" data-name="Trazado 100898" d="M145.777,954.472l-.026,4.617a.44.44,0,0,1-.879-.008l.027-4.617a.439.439,0,0,1,.878.008Z" fill="#fff"/>
      </g>
      <g id="Grupo_54001" data-name="Grupo 54001">
        <path id="Trazado_100899" data-name="Trazado 100899" d="M145.821,946.916l-.027,4.617a.439.439,0,0,1-.878-.008l.027-4.617a.439.439,0,0,1,.878.008Z" fill="#fff"/>
      </g>
      <g id="Grupo_54002" data-name="Grupo 54002">
        <path id="Trazado_100900" data-name="Trazado 100900" d="M145.864,939.36l-.026,4.618a.44.44,0,0,1-.879-.009l.027-4.617a.439.439,0,0,1,.878.008Z" fill="#fff"/>
      </g>
      <g id="Grupo_54003" data-name="Grupo 54003">
        <path id="Trazado_100901" data-name="Trazado 100901" d="M145.908,931.8l-.027,4.618a.426.426,0,0,1-.441.415.432.432,0,0,1-.437-.424l.027-4.617a.428.428,0,0,1,.441-.416A.434.434,0,0,1,145.908,931.8Z" fill="#fff"/>
      </g>
      <g id="Grupo_54004" data-name="Grupo 54004">
        <path id="Trazado_100902" data-name="Trazado 100902" d="M145.951,924.249l-.026,4.617a.427.427,0,0,1-.442.415.432.432,0,0,1-.437-.424l.027-4.617a.428.428,0,0,1,.442-.416A.433.433,0,0,1,145.951,924.249Z" fill="#fff"/>
      </g>
      <g id="Grupo_54005" data-name="Grupo 54005">
        <path id="Trazado_100903" data-name="Trazado 100903" d="M146.014,916.692l-.039,4.618a.439.439,0,0,1-.878-.008l.039-4.617a.439.439,0,0,1,.878.007Z" fill="#fff"/>
      </g>
      <g id="Grupo_54006" data-name="Grupo 54006">
        <path id="Trazado_100904" data-name="Trazado 100904" d="M146.058,909.135l-.026,4.618a.439.439,0,0,1-.878-.006l.026-4.616a.439.439,0,0,1,.878,0Z" fill="#fff"/>
      </g>
      <g id="Grupo_54007" data-name="Grupo 54007">
        <path id="Trazado_100905" data-name="Trazado 100905" d="M146.09,901.578l-.017,4.618a.439.439,0,0,1-.878,0l.017-4.617a.439.439,0,0,1,.878,0Z" fill="#fff"/>
      </g>
      <g id="Grupo_54008" data-name="Grupo 54008">
        <path id="Trazado_100906" data-name="Trazado 100906" d="M146.111,894.022l-.011,4.618a.439.439,0,0,1-.878,0l.011-4.617a.439.439,0,0,1,.878,0Z" fill="#fff"/>
      </g>
      <g id="Grupo_54009" data-name="Grupo 54009">
        <path id="Trazado_100907" data-name="Trazado 100907" d="M146.125,886.466l-.008,4.617a.439.439,0,0,1-.878,0l.008-4.618a.439.439,0,0,1,.878,0Z" fill="#fff"/>
      </g>
      <g id="Grupo_54010" data-name="Grupo 54010">
        <path id="Trazado_100908" data-name="Trazado 100908" d="M146.131,878.909l0,4.618a.439.439,0,0,1-.878,0l0-4.617a.439.439,0,0,1,.878,0Z" fill="#fff"/>
      </g>
      <g id="Grupo_54011" data-name="Grupo 54011">
        <path id="Trazado_100909" data-name="Trazado 100909" d="M146.131,871.353v4.618a.439.439,0,0,1-.878,0v-4.618a.439.439,0,0,1,.878,0Z" fill="#fff"/>
      </g>
      <g id="Grupo_54012" data-name="Grupo 54012">
        <path id="Trazado_100910" data-name="Trazado 100910" d="M146.127,863.8l0,4.617a.439.439,0,0,1-.878,0l0-4.618a.439.439,0,0,1,.878,0Z" fill="#fff"/>
      </g>
      <g id="Grupo_54013" data-name="Grupo 54013">
        <path id="Trazado_100911" data-name="Trazado 100911" d="M146.119,856.241l0,4.617a.439.439,0,0,1-.878,0l-.005-4.617a.439.439,0,0,1,.878,0Z" fill="#fff"/>
      </g>
      <g id="Grupo_54014" data-name="Grupo 54014">
        <path id="Trazado_100912" data-name="Trazado 100912" d="M146.1,847.845l.007,4.617a.439.439,0,0,1-.878,0l-.007-4.617a.439.439,0,0,1,.878,0Z" fill="#fff"/>
      </g>
      <g id="Grupo_54015" data-name="Grupo 54015">
        <path id="Trazado_100913" data-name="Trazado 100913" d="M146.088,840.289l.01,4.617a.439.439,0,0,1-.878,0l-.01-4.617a.439.439,0,0,1,.878,0Z" fill="#fff"/>
      </g>
      <g id="Grupo_54016" data-name="Grupo 54016">
        <path id="Trazado_100914" data-name="Trazado 100914" d="M146.068,832.733l.013,4.617a.44.44,0,0,1-.879,0l-.012-4.617a.439.439,0,0,1,.878,0Z" fill="#fff"/>
      </g>
      <g id="Grupo_54017" data-name="Grupo 54017">
        <path id="Trazado_100915" data-name="Trazado 100915" d="M146.045,825.176l.015,4.618a.439.439,0,0,1-.878,0l-.015-4.618a.439.439,0,0,1,.878,0Z" fill="#fff"/>
      </g>
      <g id="Grupo_54018" data-name="Grupo 54018">
        <path id="Trazado_100916" data-name="Trazado 100916" d="M146.019,817.62l.017,4.618a.44.44,0,0,1-.879,0l-.016-4.617a.439.439,0,0,1,.878,0Z" fill="#fff"/>
      </g>
      <g id="Grupo_54019" data-name="Grupo 54019">
        <path id="Trazado_100917" data-name="Trazado 100917" d="M145.99,810.064l.019,4.618a.44.44,0,0,1-.879,0l-.018-4.617a.439.439,0,0,1,.878,0Z" fill="#fff"/>
      </g>
      <g id="Grupo_54020" data-name="Grupo 54020">
        <path id="Trazado_100918" data-name="Trazado 100918" d="M145.958,802.5l.02,4.63a.439.439,0,0,1-.878,0l-.02-4.6a.3.3,0,0,0,.128-.092c.079-.076.188-.22.309-.343s.23-.173.31-.1A.758.758,0,0,1,145.958,802.5Z" fill="#fff"/>
      </g>
      <g id="Grupo_54021" data-name="Grupo 54021">
        <path id="Trazado_100919" data-name="Trazado 100919" d="M140.38,805.412l.561-.444c.335-.27.788-.621,1.22-1,.883-.729,1.714-1.513,1.714-1.513a.432.432,0,0,1,.6.034.427.427,0,0,1-.006.608s-.85.8-1.747,1.543c-.44.381-.9.738-1.24,1.011l-.569.452a.435.435,0,0,1-.6-.095A.427.427,0,0,1,140.38,805.412Z" fill="#fff"/>
      </g>
      <g id="Grupo_54022" data-name="Grupo 54022">
        <path id="Trazado_100920" data-name="Trazado 100920" d="M134.18,809.634l.612-.373c.37-.221.858-.522,1.333-.843l1.316-.869.585-.413a.439.439,0,0,1,.5.719l-.594.418-1.332.881c-.482.325-.976.63-1.35.854l-.62.378a.425.425,0,0,1-.585-.157A.435.435,0,0,1,134.18,809.634Z" fill="#fff"/>
      </g>
      <g id="Grupo_54023" data-name="Grupo 54023">
        <path id="Trazado_100921" data-name="Trazado 100921" d="M127.558,813.17l.65-.3c.393-.175.9-.437,1.412-.7l1.4-.723c.382-.2.629-.346.629-.346a.426.426,0,0,1,.577.179.433.433,0,0,1-.155.591s-.249.149-.635.35l-1.419.732c-.515.268-1.032.533-1.429.711l-.657.308a.439.439,0,0,1-.375-.794Z" fill="#fff"/>
      </g>
      <g id="Grupo_54024" data-name="Grupo 54024">
        <path id="Trazado_100922" data-name="Trazado 100922" d="M120.619,816.043l2.15-.807c.541-.192,1.064-.43,1.462-.594l.661-.279a.435.435,0,0,1,.559.241.426.426,0,0,1-.215.567l-.669.283c-.4.165-.931.406-1.478.6l-2.174.816a.42.42,0,0,1-.541-.266A.441.441,0,0,1,120.619,816.043Z" fill="#fff"/>
      </g>
    </g>
    <g id="Grupo_54055" data-name="Grupo 54055">
      <g id="Grupo_54026" data-name="Grupo 54026">
        <path id="Trazado_100923" data-name="Trazado 100923" d="M117.988,823.052l.016-.686c.008-.412.024-.961.047-1.51.036-1.1.1-2.2.1-2.2a.418.418,0,0,1,.464-.37.425.425,0,0,1,.413.425s-.067,1.085-.1,2.176c-.022.546-.038,1.091-.046,1.5l-.016.682a.423.423,0,0,1-.449.389A.416.416,0,0,1,117.988,823.052Z" fill="#fff"/>
      </g>
      <g id="Grupo_54027" data-name="Grupo 54027">
        <path id="Trazado_100924" data-name="Trazado 100924" d="M118.006,830.239l-.041-2.2c0-1.1-.009-2.2-.009-2.2a.418.418,0,0,1,.44-.4.423.423,0,0,1,.438.4s0,1.093.009,2.185l.041,2.184a.424.424,0,0,1-.431.409A.418.418,0,0,1,118.006,830.239Z" fill="#fff"/>
      </g>
      <g id="Grupo_54028" data-name="Grupo 54028">
        <path id="Trazado_100925" data-name="Trazado 100925" d="M118.338,837.417l-.05-.684c-.022-.411-.052-.959-.081-1.508s-.059-1.1-.081-1.507l-.027-.686a.441.441,0,0,1,.877-.036l.027.682c.022.409.051.955.08,1.5s.059,1.091.081,1.5l.05.68a.441.441,0,0,1-.876.059Z" fill="#fff"/>
      </g>
      <g id="Grupo_54029" data-name="Grupo 54029">
        <path id="Trazado_100926" data-name="Trazado 100926" d="M118.985,844.575s-.138-1.09-.232-2.184-.207-2.186-.207-2.186a.441.441,0,0,1,.875-.075l.206,2.175c.093,1.088.23,2.171.23,2.171a.441.441,0,0,1-.872.1Z" fill="#fff"/>
      </g>
      <g id="Grupo_54030" data-name="Grupo 54030">
        <path id="Trazado_100927" data-name="Trazado 100927" d="M119.969,851.7l-.117-.677c-.068-.406-.14-.95-.22-1.494-.157-1.087-.313-2.174-.313-2.174a.416.416,0,0,1,.383-.453.423.423,0,0,1,.487.338l.312,2.161c.08.539.151,1.081.218,1.484l.116.673a.416.416,0,0,1-.365.463A.422.422,0,0,1,119.969,851.7Z" fill="#fff"/>
      </g>
      <g id="Grupo_54031" data-name="Grupo 54031">
        <path id="Trazado_100928" data-name="Trazado 100928" d="M121.328,858.758s-.068-.266-.146-.671-.193-.942-.3-1.48l-.3-1.481c-.086-.4-.132-.674-.132-.674a.426.426,0,0,1,.364-.473.415.415,0,0,1,.5.312s.046.269.131.67.191.935.3,1.469.219,1.069.3,1.47.145.666.145.666a.415.415,0,0,1-.336.484A.427.427,0,0,1,121.328,858.758Z" fill="#fff"/>
      </g>
      <g id="Grupo_54032" data-name="Grupo 54032">
        <path id="Trazado_100929" data-name="Trazado 100929" d="M123.117,865.727l-.582-2.12c-.144-.531-.288-1.061-.4-1.459l-.159-.668a.424.424,0,0,1,.333-.494.416.416,0,0,1,.519.281l.158.663c.107.4.251.921.394,1.448l.577,2.1a.415.415,0,0,1-.305.5A.425.425,0,0,1,123.117,865.727Z" fill="#fff"/>
      </g>
      <g id="Grupo_54033" data-name="Grupo 54033">
        <path id="Trazado_100930" data-name="Trazado 100930" d="M125.316,872.572l-.228-.647-.476-1.434c-.172-.521-.345-1.042-.475-1.433s-.205-.656-.205-.656a.424.424,0,0,1,.3-.512.416.416,0,0,1,.535.249s.075.262.2.651l.473,1.425.473,1.425.226.644a.417.417,0,0,1-.282.519A.422.422,0,0,1,125.316,872.572Z" fill="#fff"/>
      </g>
      <g id="Grupo_54034" data-name="Grupo 54034">
        <path id="Trazado_100931" data-name="Trazado 100931" d="M127.747,879.321l-1.5-4.117a.441.441,0,0,1,.826-.3l1.5,4.114a.441.441,0,0,1-.825.3Z" fill="#fff"/>
      </g>
      <g id="Grupo_54035" data-name="Grupo 54035">
        <path id="Trazado_100932" data-name="Trazado 100932" d="M130.073,886.079l-.2-.651-.477-1.423c-.34-1.036-.711-2.064-.711-2.064a.441.441,0,0,1,.828-.292s.373,1.032.715,2.077l.481,1.433.2.658a.441.441,0,0,1-.838.262Z" fill="#fff"/>
      </g>
      <g id="Grupo_54036" data-name="Grupo 54036">
        <path id="Trazado_100933" data-name="Trazado 100933" d="M131.873,892.967s-.232-1.062-.463-2.125l-.554-2.1a.428.428,0,0,1,.322-.5.414.414,0,0,1,.525.269s.28,1.066.561,2.132c.234,1.077.469,2.155.469,2.155a.412.412,0,0,1-.345.477A.43.43,0,0,1,131.873,892.967Z" fill="#fff"/>
      </g>
      <g id="Grupo_54037" data-name="Grupo 54037">
        <path id="Trazado_100934" data-name="Trazado 100934" d="M132.875,900.007l-.011-.187c0-.119-.021-.288-.046-.49-.046-.405-.108-.946-.17-1.486s-.114-1.081-.178-1.483l-.112-.671a.418.418,0,0,1,.369-.46.423.423,0,0,1,.5.325l.114.681c.064.408.114.958.18,1.505s.125,1.1.172,1.507c.025.206.043.377.047.5l.012.189a.429.429,0,0,1-.414.433A.413.413,0,0,1,132.875,900.007Z" fill="#fff"/>
      </g>
      <g id="Grupo_54038" data-name="Grupo 54038">
        <path id="Trazado_100935" data-name="Trazado 100935" d="M133.065,907.116s.019-.268.028-.673l-.016-1.5c0-.544-.011-1.088-.015-1.5l0-.494-.012-.186a.412.412,0,0,1,.414-.415.431.431,0,0,1,.464.381l.011.189.006.5c0,.413.01.964.015,1.515s.012,1.1.016,1.515-.029.694-.029.694a.441.441,0,0,1-.877-.032Z" fill="#fff"/>
      </g>
      <g id="Grupo_54039" data-name="Grupo 54039">
        <path id="Trazado_100936" data-name="Trazado 100936" d="M131.955,914.077l.053-.178.114-.477c.094-.394.219-.92.344-1.446l.265-1.461c.038-.2.067-.366.077-.483l.021-.184a.416.416,0,0,1,.482-.336.425.425,0,0,1,.388.455l-.022.19c-.011.121-.04.292-.079.5l-.272,1.5-.352,1.483-.118.488-.054.182a.426.426,0,0,1-.537.266A.412.412,0,0,1,131.955,914.077Z" fill="#fff"/>
      </g>
      <g id="Grupo_54040" data-name="Grupo 54040">
        <path id="Trazado_100937" data-name="Trazado 100937" d="M129.538,920.751l.269-.624c.167-.373.375-.875.567-1.383.412-1.006.755-2.035.755-2.035a.423.423,0,0,1,.545-.233.417.417,0,0,1,.285.52s-.351,1.049-.768,2.071c-.195.516-.407,1.026-.576,1.4l-.273.633a.416.416,0,0,1-.56.189A.424.424,0,0,1,129.538,920.751Z" fill="#fff"/>
      </g>
      <g id="Grupo_54041" data-name="Grupo 54041">
        <path id="Trazado_100938" data-name="Trazado 100938" d="M126.393,927.15s.508-.965,1.015-1.931l.974-1.95a.416.416,0,0,1,.564-.17.424.424,0,0,1,.226.552l-.982,1.969-1.023,1.946a.424.424,0,0,1-.578.142A.419.419,0,0,1,126.393,927.15Z" fill="#fff"/>
      </g>
      <g id="Grupo_54042" data-name="Grupo 54042">
        <path id="Trazado_100939" data-name="Trazado 100939" d="M122.683,933.727l1.1-1.894,1.081-1.9a.441.441,0,0,1,.765.431l-1.084,1.907-1.1,1.9a.441.441,0,0,1-.759-.441Z" fill="#fff"/>
      </g>
      <g id="Grupo_54043" data-name="Grupo 54043">
        <path id="Trazado_100940" data-name="Trazado 100940" d="M119.069,939.917l2.209-3.785a.441.441,0,0,1,.758.444l-2.207,3.781a.441.441,0,0,1-.76-.44Z" fill="#fff"/>
      </g>
      <g id="Grupo_54044" data-name="Grupo 54044">
        <path id="Trazado_100941" data-name="Trazado 100941" d="M115.545,946.173s.518-.968,1.057-1.924l1.076-1.912a.441.441,0,0,1,.763.434l-1.072,1.905c-.537.952-1.052,1.915-1.052,1.915a.441.441,0,0,1-.772-.418Z" fill="#fff"/>
      </g>
      <g id="Grupo_54045" data-name="Grupo 54045">
        <path id="Trazado_100942" data-name="Trazado 100942" d="M112.276,952.577l.293-.622.669-1.354c.482-.989,1-1.959,1-1.959a.441.441,0,0,1,.78.4s-.512.965-.989,1.946l-.666,1.345-.289.617a.442.442,0,0,1-.794-.377Z" fill="#fff"/>
      </g>
      <g id="Grupo_54046" data-name="Grupo 54046">
        <path id="Trazado_100943" data-name="Trazado 100943" d="M109.427,959.189s.091-.26.246-.643l.571-1.4c.2-.512.419-1.018.59-1.394l.277-.629a.418.418,0,0,1,.562-.187.423.423,0,0,1,.241.542l-.275.623c-.169.373-.382.874-.583,1.381l-.566,1.387c-.153.378-.243.635-.243.635a.416.416,0,0,1-.549.216A.423.423,0,0,1,109.427,959.189Z" fill="#fff"/>
      </g>
      <g id="Grupo_54047" data-name="Grupo 54047">
        <path id="Trazado_100944" data-name="Trazado 100944" d="M107.165,966.033s.073-.266.191-.662l.431-1.453c.148-.531.34-1.048.466-1.441l.219-.653a.415.415,0,0,1,.542-.235.425.425,0,0,1,.289.52l-.216.645c-.126.388-.316.9-.461,1.423l-.425,1.435c-.117.391-.189.653-.189.653a.414.414,0,0,1-.522.27A.427.427,0,0,1,107.165,966.033Z" fill="#fff"/>
      </g>
      <g id="Grupo_54048" data-name="Grupo 54048">
        <path id="Trazado_100945" data-name="Trazado 100945" d="M105.667,973.091l.363-2.177.456-2.158a.412.412,0,0,1,.513-.292.431.431,0,0,1,.344.487l-.45,2.127-.358,2.144a.431.431,0,0,1-.5.327A.409.409,0,0,1,105.667,973.091Z" fill="#fff"/>
      </g>
      <g id="Grupo_54049" data-name="Grupo 54049">
        <path id="Trazado_100946" data-name="Trazado 100946" d="M104.858,980.239s.07-1.1.213-2.186l.253-2.184a.414.414,0,0,1,.481-.342.424.424,0,0,1,.39.449l-.25,2.167c-.142,1.082-.212,2.173-.212,2.173a.416.416,0,0,1-.468.359A.426.426,0,0,1,104.858,980.239Z" fill="#fff"/>
      </g>
      <g id="Grupo_54050" data-name="Grupo 54050">
        <path id="Trazado_100947" data-name="Trazado 100947" d="M104.351,987.4l.034-.685c.018-.41.048-.958.1-1.505l.166-2.188a.441.441,0,0,1,.876.066l-.166,2.179c-.047.545-.077,1.09-.094,1.5l-.034.683a.418.418,0,0,1-.458.373A.424.424,0,0,1,104.351,987.4Z" fill="#fff"/>
      </g>
      <g id="Grupo_54051" data-name="Grupo 54051">
        <path id="Trazado_100948" data-name="Trazado 100948" d="M104.015,994.57s.025-1.1.088-2.19l.109-2.191a.441.441,0,0,1,.877.043l-.108,2.185c-.063,1.092-.088,2.186-.088,2.186a.417.417,0,0,1-.451.382A.424.424,0,0,1,104.015,994.57Z" fill="#fff"/>
      </g>
      <g id="Grupo_54052" data-name="Grupo 54052">
        <path id="Trazado_100949" data-name="Trazado 100949" d="M103.795,1001.741l.134-4.382a.441.441,0,0,1,.877.028l-.133,4.374a.417.417,0,0,1-.446.388A.422.422,0,0,1,103.795,1001.741Z" fill="#fff"/>
      </g>
      <g id="Grupo_54053" data-name="Grupo 54053">
        <path id="Trazado_100950" data-name="Trazado 100950" d="M103.673,1008.912l.075-4.382a.418.418,0,0,1,.445-.39.423.423,0,0,1,.433.407l-.075,4.376a.423.423,0,0,1-.446.393A.418.418,0,0,1,103.673,1008.912Z" fill="#fff"/>
      </g>
      <g id="Grupo_54054" data-name="Grupo 54054">
        <path id="Trazado_100951" data-name="Trazado 100951" d="M103.616,1016.083l.027-4.382a.441.441,0,0,1,.878.008l-.027,4.378a.441.441,0,0,1-.878,0Z" fill="#fff"/>
      </g>
    </g>
    <path id="Trazado_100952" data-name="Trazado 100952" d="M205.255,912.107c-.044-.15-.084-.3-.126-.452h0q-.095-.344-.183-.689l-.015-.061c-.053-.21-.1-.419-.151-.63-.012-.05-.023-.1-.034-.15-.041-.187-.081-.375-.119-.562-.015-.076-.029-.152-.044-.228q-.048-.25-.092-.5c-.016-.1-.031-.2-.046-.294-.024-.15-.047-.3-.067-.45-.017-.122-.03-.245-.045-.367s-.032-.26-.045-.39c-.015-.154-.026-.308-.038-.462-.007-.1.077-.2.071-.3-.015-.254.063-.51.063-.766v-.011l-.878.062h0l-.068.011a3.478,3.478,0,0,0-.518.153,3.608,3.608,0,0,0-1.631.529h.006l-.684.111c-.021.006-.042-.027-.063-.021-.329.09-.738.16-1.065.249a5.591,5.591,0,0,1-.807.164v-.006l-.016.02c-.055.013-.07.025-.125.038s-.1-.1-.164-.086l-.413-.03h.005c-.453.44-.9.254-1.352.361-.066.013-.13.079-.2.079h0l-.812.314v.022c-1.317.27-2.635.531-3.952.753v.005l-.268.039c-.825.136-1.676.265-2.494.372-1.834.256-3.769.465-5.55.634l-.469.031v0c-.439.052-1.024.1-1.588.146-.006,0,.279,0,.27,0-.835.066-1.317.12-2.2.169v0l-.553.033c-.681.038-1.642.072-2.081.1v-.005l-1.2.458h-.033c-.4,0-.818-.181-1.214-.17-5.738.154-11.049-.1-15.838-.4l-.2-.064c-2.856-.18-5.531-.438-8-.687-3.712-.381-6.973-.822-9.742-1.234l-.381-.064c-.936-.141-1.813-.27-2.631-.4l-.375-.052h-.038a7.643,7.643,0,0,1-1.62-.311h0l-.878-.161h0a8.593,8.593,0,0,0-1.653-.407h.007l-.881-.116c-.46-.091-.856-.144-1.191-.213-.861-.185-1.3-.266-1.3-.266l-2.082,10.59s.513.114,1.508.328c.967.2,2.389.483,4.241.815,3.7.658,9.128,1.527,16.078,2.241a196.427,196.427,0,0,0,25.224,1.01,139.631,139.631,0,0,0,15.624-1.273c2.753-.362,5.572-.894,8.453-1.491l2.169-.513,1.094-.26,1.1-.3,1.8-.5c.576-.059.652-.149,1.364-.248.12-.016.542-.2.629-.456A28.736,28.736,0,0,1,205.255,912.107Z" opacity="0.32"/>
    <g id="Grupo_54056" data-name="Grupo 54056">
      <path id="Trazado_100953" data-name="Trazado 100953" d="M206.191,910.892a21.331,21.331,0,0,1-1.085-5.983l-.284.026-.45.042a3.76,3.76,0,0,0-.551.071l-2.452.623-1.007.254-1.015.222-2.011.44c-2.69.513-5.332.978-7.945,1.294a144.508,144.508,0,0,1-14.966,1.124,207.584,207.584,0,0,1-24.615-.914c-6.825-.647-12.161-1.437-15.77-2.029-1.8-.3-3.177-.551-4.09-.725l-1.337-.265-2.134,10.02,1.546.307c.991.189,2.447.457,4.345.771,3.795.623,9.354,1.445,16.476,2.121a217.73,217.73,0,0,0,25.848.956,154.982,154.982,0,0,0,16.011-1.206c2.82-.342,5.71-.846,8.662-1.412l2.222-.485,1.121-.246,1.123-.283,1.843-.47c.59-.055.668-.14,1.4-.234.122-.015.555-.185.645-.432A25.99,25.99,0,0,1,206.191,910.892Z" fill="#edeae8"/>
      <path id="Trazado_100954" data-name="Trazado 100954" d="M127.993,912.822l-.988-.2,1.608-7.551.864.174Z" fill="#a32338"/>
      <path id="Trazado_100955" data-name="Trazado 100955" d="M131.1,911.262l-.953-.17,1.007-5.53.922.165Z" fill="#a32338"/>
      <path id="Trazado_100956" data-name="Trazado 100956" d="M133.748,911.709l-.955-.157.926-5.544.929.152Z" fill="#a32338"/>
      <path id="Trazado_100957" data-name="Trazado 100957" d="M136.46,912.132l-.956-.146.854-5.556.932.143Z" fill="#a32338"/>
      <path id="Trazado_100958" data-name="Trazado 100958" d="M139.115,912.511l-.958-.133.789-5.565.935.13Z" fill="#a32338"/>
      <path id="Trazado_100959" data-name="Trazado 100959" d="M141.406,914.93l-.968-.122,1-7.655.937.118Z" fill="#a32338"/>
      <path id="Trazado_100960" data-name="Trazado 100960" d="M144.4,913.176l-.961-.111.665-5.582.939.109Z" fill="#a32338"/>
      <path id="Trazado_100961" data-name="Trazado 100961" d="M147.063,913.468l-.962-.1.6-5.589.94.1Z" fill="#a32338"/>
      <path id="Trazado_100962" data-name="Trazado 100962" d="M149.794,913.735l-.963-.091.539-5.6.941.089Z" fill="#a32338"/>
      <path id="Trazado_100963" data-name="Trazado 100963" d="M152.466,913.966l-.964-.08.476-5.6.941.078Z" fill="#a32338"/>
      <path id="Trazado_100964" data-name="Trazado 100964" d="M155.063,916.266l-.974-.069.563-7.7.942.066Z" fill="#a32338"/>
      <path id="Trazado_100965" data-name="Trazado 100965" d="M157.95,914.343l-.966-.055.343-5.611.942.054Z" fill="#a32338"/>
      <path id="Trazado_100966" data-name="Trazado 100966" d="M160.63,914.479l-.967-.042.275-5.614.942.041Z" fill="#a32338"/>
      <path id="Trazado_100967" data-name="Trazado 100967" d="M163.372,914.584l-.967-.028.2-5.617.941.027Z" fill="#a32338"/>
      <path id="Trazado_100968" data-name="Trazado 100968" d="M166.054,914.653l-.968-.019.132-5.62.941.019Z" fill="#a32338"/>
      <path id="Trazado_100969" data-name="Trazado 100969" d="M168.619,916.787l-.978-.013.082-7.72.94.013Z" fill="#a32338"/>
      <path id="Trazado_100970" data-name="Trazado 100970" d="M171.38,914.681l-.968,0-.02-5.621.939,0Z" fill="#a32338"/>
      <path id="Trazado_100971" data-name="Trazado 100971" d="M174.064,914.635l-.968.02-.1-5.62.938-.019Z" fill="#a32338"/>
      <path id="Trazado_100972" data-name="Trazado 100972" d="M176.808,914.548l-.968.038-.188-5.618.936-.037Z" fill="#a32338"/>
      <path id="Trazado_100973" data-name="Trazado 100973" d="M179.49,914.422l-.967.057-.277-5.614.933-.056Z" fill="#a32338"/>
      <path id="Trazado_100974" data-name="Trazado 100974" d="M182.329,916.349l-.489.037-.49.029-.51-7.7.467-.027.465-.036Z" fill="#a32338"/>
      <path id="Trazado_100975" data-name="Trazado 100975" d="M184.92,914.033l-.965.078-.472-5.6.929-.075Z" fill="#a32338"/>
      <path id="Trazado_100976" data-name="Trazado 100976" d="M187.592,913.759l-.964.1-.576-5.592.925-.1Z" fill="#a32338"/>
      <path id="Trazado_100977" data-name="Trazado 100977" d="M190.32,913.429l-.961.125-.688-5.579.92-.119Z" fill="#a32338"/>
      <path id="Trazado_100978" data-name="Trazado 100978" d="M192.981,913.053l-.958.15-.8-5.563.913-.144Z" fill="#a32338"/>
      <path id="Trazado_100979" data-name="Trazado 100979" d="M195.891,914.71l-.486.087-.488.077-1.266-7.616.457-.072.454-.081Z" fill="#a32338"/>
      <path id="Trazado_100980" data-name="Trazado 100980" d="M198.237,912.137l-.953.178-1.056-5.521.906-.169Z" fill="#a32338"/>
      <path id="Trazado_100981" data-name="Trazado 100981" d="M200.865,911.569l-.948.208-1.194-5.493.9-.2Z" fill="#a32338"/>
      <path id="Trazado_100982" data-name="Trazado 100982" d="M203.539,910.919l-.941.239-1.344-5.458.885-.225Z" fill="#a32338"/>
      <path id="Trazado_100983" data-name="Trazado 100983" d="M205.106,904.908l-.62.058.653,5.586.923-.087A20.78,20.78,0,0,1,205.106,904.908Z" fill="#a32338"/>
    </g>
    <path id="Trazado_100984" data-name="Trazado 100984" d="M158.4,885.036c-.348-11.825-.724-24.632-1.122-38.181q-.262-10.158-.539-20.837c-.161-7.1-.328-14.375-.4-21.707q-.011-1.372-.021-2.75c-.007-.919-.02-1.852.005-2.7q.021-1.311.043-2.626l.005-.329c.006-.094.02-.161.029-.243l.055-.471.045-.474c.021-.155.072-.3.1-.449l.1-.449a1.843,1.843,0,0,1,.123-.439c.108-.281.205-.566.3-.852.143-.265.278-.532.4-.8s.334-.507.487-.77a10.353,10.353,0,0,1,1.233-1.45c-1.386-.713-2.642-1.779-3.934-2.564a15.7,15.7,0,0,1-4.442-3.473l-.048.057,0,0a19.766,19.766,0,0,0-1.242,1.605c-.043.067-.087.133-.131.2h0l-.119.185c-.167.252-.335.505-.493.764l-.087.135.005,0c-.066.113-.132.226-.193.343q-.441.858-.857,1.727c-.008.019-.015.04-.022.059h0l-.445,1.215.006,0c-.063.177-.131.353-.193.53a7.361,7.361,0,0,0-.26.982l-.142.672h0a.38.38,0,0,0-.047.143l-.025.076c-.036.169-.076.322-.113.491-.018.084-.017.156-.032.223a.482.482,0,0,0-.013.19l-.126.915-.108,1.012a1.665,1.665,0,0,0-.045.463h0s-.041-.035-.08-.064a1.39,1.39,0,0,1,.033.152l.016.19c0,.012.009.023.009.035s0,.034,0,.044c-.005.253-.005.521-.005.521h0c-.012.439-.023,1.317-.034,1.757h0l-.007.5c0,.029-.044.076-.045.105-.027,1.011-.049,1.956-.049,2.893v.04l.045.244c0,.591.03,1.181.035,1.77l.011.037.018,1h0c.005.439.014.878.021,1.756h-.01l.01.878h.012c.007.439.013.878.021,1.756h0l.014.754c.013.869.138,1.7.153,2.567l.112.254h0c0,.564-.2,1.254-.186,1.693h0l.017.879h0c.011.439.024,1.317.036,1.756h-.005l.022.878h0c.011.878.022,1.317.033,1.756h0l.015.667c.044,2.013.089,3.982.134,5.971.011.436.023.827.034,1.266h-.005l.023.878h.006c.015.878.031,1.317.046,1.756h-.007l.024.878h.007c.015.878.03,1.317.046,1.757h-.009l.025,1.317h.008q.022.659.044,1.317h-.009l.024,1.317h.009c.016.439.031.878.046,1.757h-.01l.024.878h.01c.015.439.029.878.044,1.756h-.011l.026.878h.009c.016.439.031.878.046,1.756h-.007l.027.879h0c.014.439.028.878.041,1.756h0l-.142.75v0c0,.567.2,1,.218,1.88h0l.026.879h0c.017.439.035.878.052,1.756h-.008l.027.878h.009c.016.439.033.878.049,1.756h-.012l.027.878h.013c.017.44.035,1.318.052,1.757H147.3l.028.878h.015c.018.439.036,1.317.054,1.756h-.014l.028.878h.014c.017.879.033,1.318.05,1.757h-.015l.028.878h.015c.017.878.034,1.269.051,1.85l-.015.052.028.978.015.012c.017.564.033,1.133.05,1.694l-.016.086.028,1.036h.016c.017.439.034,1.088.051,1.669l-.016-.04.029.931.015-.1c.016.531.031,1.048.047,1.488h-.014l.029,1.317h.012q.026.659.05,1.317h-.01l.029,1.317h.009c.017.439.034.878.051,1.757h-.007l.029.878h.006c.017.439.033.878.05,1.756h0l.029.878h0c.017.439.034.878.051,1.756h0l.029.879h0c.008,0,.016.556.024.829.01.31.02.488.03.927h0l.03.878h0c.018.439.037,1.317.055,1.756h0l.03.878h0c.019.44.037,1.318.056,1.757h-.006l.03.878h.007c.018.439.036,1.317.055,1.756h-.009l.029.878h.01c.019.879.038,1.318.057,1.757h-.012l.03.878h.013c.017.878.034,1.132.051,1.658l-.014.038.03.97.015.009c.018.566.036,1.132.054,1.692l-.015-.024.03.926h.016c.019.439.038,1.2.057,1.774l-.016.014.03.958.017,0c.018.565.036,1.129.054,1.688l-.017-.06.031.892h.017c.019.878.038,1.231.057,1.811l-.018.031.031.966.017.007c.019.569.037,1.137.055,1.7l-.018-.1.031.853h.018c.019.878.037,1.227.055,1.786l-.019.05.031.977.019.011c.019.587.037,1.176.056,1.754l-.017,0,.031.953h.017q.027.851.055,1.687h-.017l.031.951h.016q.028.883.057,1.75h-.016l.032.951h.015q.025.8.051,1.582h-.015l.032.952h.014q.027.852.054,1.686l-.013.1.032,1.051h.012c.019.44.038.879.057,1.757h-.011l.031.878h.011c.018.439.036.878.054,1.756h-.008l.031.878h.008c.019.439.038.878.057,1.757h-.007l.032.878h.005c.02.439.039,1.317.057,1.756h0l.032.878h0c.018.439.037,1.317.055,1.757h0l-.052.911c0,.592.124,1.286.144,1.723h0l.032.878h0c.02.439.039,1.317.058,1.756h0l.032.879h0c.02.878.04,1.317.06,1.756h0l.032.878h0c.018.878.036,1.317.054,1.756h0l.033.879h0c.02.439.039,1.317.058,1.756h0l.032.878h0c.021.878.041,1.317.06,1.756h0l.033.878h0c.021.879.04,1.318.057,1.757h0l.032.878h0c.025.878.045,1.317.059,1.756h0l.033,1,10.239-.33s-.269-7.87-.739-21.666C159.8,928.392,159.162,908.688,158.4,885.036Z" opacity="0.32"/>
    <path id="Trazado_100985" data-name="Trazado 100985" d="M190.159,797.467l-.411,29.519-1.586,69.575s19.735-1.3,35.981-8.467c0,0,3.232-38.378,1.866-42.643-2.744-8.564-5.818-13.356-3.183-29.292,0,0-6-2.763-14.49-7.2s-15.167-11.234-16.145-11.675A2.45,2.45,0,0,0,190.159,797.467Z" fill="#ea526f"/>
    <g id="Grupo_54101" data-name="Grupo 54101">
      <path id="Trazado_100986" data-name="Trazado 100986" d="M192.288,799.5l-.83,91.5s15.231-.568,29.172-6.237l2.086-35.979s-7.481-8.82-3.85-31.242C218.866,817.547,196.987,810.573,192.288,799.5Z" fill="#ea526f"/>
      <g id="Grupo_54100" data-name="Grupo 54100">
        <g id="Grupo_54057" data-name="Grupo 54057">
          <path id="Trazado_100987" data-name="Trazado 100987" d="M191.818,802.957l.028-3.171c0-.16.2-.287.442-.285s.438.133.437.293l-.029,3.171c0,.159-.2.286-.442.284S191.816,803.116,191.818,802.957Z" fill="#fff"/>
        </g>
        <g id="Grupo_54058" data-name="Grupo 54058">
          <path id="Trazado_100988" data-name="Trazado 100988" d="M191.771,808.146l.028-3.171c0-.159.2-.286.442-.284s.438.133.436.292l-.028,3.171c0,.16-.2.287-.442.285S191.769,808.306,191.771,808.146Z" fill="#fff"/>
        </g>
        <g id="Grupo_54059" data-name="Grupo 54059">
          <path id="Trazado_100989" data-name="Trazado 100989" d="M191.723,813.336l.029-3.171c0-.16.2-.287.442-.285s.438.133.436.292l-.028,3.172c0,.159-.2.286-.442.284S191.722,813.495,191.723,813.336Z" fill="#fff"/>
        </g>
        <g id="Grupo_54060" data-name="Grupo 54060">
          <path id="Trazado_100990" data-name="Trazado 100990" d="M191.676,818.525l.029-3.171c0-.159.2-.287.442-.284s.438.133.436.292l-.029,3.171c0,.16-.2.287-.441.285S191.675,818.685,191.676,818.525Z" fill="#fff"/>
        </g>
        <g id="Grupo_54061" data-name="Grupo 54061">
          <path id="Trazado_100991" data-name="Trazado 100991" d="M191.629,823.715l.029-3.171c0-.16.2-.287.442-.285s.438.133.436.293l-.029,3.171c0,.159-.2.286-.441.284S191.628,823.874,191.629,823.715Z" fill="#fff"/>
        </g>
        <g id="Grupo_54062" data-name="Grupo 54062">
          <path id="Trazado_100992" data-name="Trazado 100992" d="M191.582,828.9l.029-3.171c0-.159.2-.286.442-.284s.438.133.436.292l-.029,3.171c0,.16-.2.287-.441.285S191.581,829.064,191.582,828.9Z" fill="#fff"/>
        </g>
        <g id="Grupo_54063" data-name="Grupo 54063">
          <path id="Trazado_100993" data-name="Trazado 100993" d="M191.535,834.094l.029-3.171c0-.16.2-.287.442-.285s.437.133.436.292l-.029,3.172c0,.159-.2.286-.441.284S191.534,834.253,191.535,834.094Z" fill="#fff"/>
        </g>
        <g id="Grupo_54064" data-name="Grupo 54064">
          <path id="Trazado_100994" data-name="Trazado 100994" d="M191.488,839.283l.029-3.171c0-.159.2-.287.441-.284s.438.133.437.292l-.029,3.171c0,.16-.2.287-.442.285S191.487,839.443,191.488,839.283Z" fill="#fff"/>
        </g>
        <g id="Grupo_54065" data-name="Grupo 54065">
          <path id="Trazado_100995" data-name="Trazado 100995" d="M191.441,844.473l.029-3.171c0-.16.2-.287.441-.285s.438.133.437.292l-.029,3.172c0,.159-.2.286-.442.284S191.439,844.632,191.441,844.473Z" fill="#fff"/>
        </g>
        <g id="Grupo_54066" data-name="Grupo 54066">
          <path id="Trazado_100996" data-name="Trazado 100996" d="M191.394,849.662l.029-3.171c0-.159.2-.287.441-.284s.438.133.437.292l-.029,3.171c0,.16-.2.287-.442.285S191.392,849.822,191.394,849.662Z" fill="#fff"/>
        </g>
        <g id="Grupo_54067" data-name="Grupo 54067">
          <path id="Trazado_100997" data-name="Trazado 100997" d="M191.347,854.852l.028-3.171c0-.16.2-.287.442-.285s.438.133.437.292l-.029,3.172c0,.159-.2.286-.442.284S191.345,855.011,191.347,854.852Z" fill="#fff"/>
        </g>
        <g id="Grupo_54068" data-name="Grupo 54068">
          <path id="Trazado_100998" data-name="Trazado 100998" d="M191.3,860.041l.028-3.171c0-.159.2-.287.442-.284s.438.133.437.292l-.029,3.171c0,.16-.2.287-.442.285S191.3,860.2,191.3,860.041Z" fill="#fff"/>
        </g>
        <g id="Grupo_54069" data-name="Grupo 54069">
          <path id="Trazado_100999" data-name="Trazado 100999" d="M191.253,865.231l.028-3.172c0-.159.2-.286.442-.284s.438.133.436.292l-.028,3.172c0,.159-.2.286-.442.284S191.251,865.39,191.253,865.231Z" fill="#fff"/>
        </g>
        <g id="Grupo_54070" data-name="Grupo 54070">
          <path id="Trazado_101000" data-name="Trazado 101000" d="M191.205,870.42l.029-3.171c0-.159.2-.287.442-.284s.438.133.436.292l-.028,3.171c0,.16-.2.287-.442.285S191.2,870.58,191.205,870.42Z" fill="#fff"/>
        </g>
        <g id="Grupo_54071" data-name="Grupo 54071">
          <path id="Trazado_101001" data-name="Trazado 101001" d="M191.158,875.61l.029-3.171c0-.16.2-.287.442-.285s.438.133.436.292l-.029,3.172c0,.159-.2.286-.441.284S191.157,875.769,191.158,875.61Z" fill="#fff"/>
        </g>
        <g id="Grupo_54072" data-name="Grupo 54072">
          <path id="Trazado_101002" data-name="Trazado 101002" d="M191.111,880.8l.029-3.171c0-.159.2-.287.442-.284s.438.133.436.292l-.029,3.171c0,.16-.2.287-.441.285S191.11,880.959,191.111,880.8Z" fill="#fff"/>
        </g>
        <g id="Grupo_54073" data-name="Grupo 54073">
          <path id="Trazado_101003" data-name="Trazado 101003" d="M191.062,886.277l.028-3.171c0-.159.2-.287.442-.285s.438.134.436.293l-.028,3.171c0,.159-.2.287-.442.284S191.06,886.436,191.062,886.277Z" fill="#fff"/>
        </g>
        <g id="Grupo_54074" data-name="Grupo 54074">
          <path id="Trazado_101004" data-name="Trazado 101004" d="M191.944,891.42l-.272.015-.311.014-.191.009c-.034,0,.029,0-.007,0-.015,0,.049.007.049,0V891.4c0-.415-.09-.969-.086-1.523.007-.793-.034-1.586-.034-1.586,0-.159.175-.286.417-.284s.426.133.425.292c0,0-.014.793-.021,1.586,0,.238-.007.476-.009.654h0c.152-.008.3.18.309.422S192.11,891.412,191.944,891.42Z" fill="#fff"/>
        </g>
        <g id="Grupo_54075" data-name="Grupo 54075">
          <path id="Trazado_101005" data-name="Trazado 101005" d="M197.142,890.953l-1.583.174-1.586.148c-.16.013-.305-.173-.325-.415s.093-.448.25-.46l1.572-.147,1.569-.172c.157-.02.309.159.338.4S197.3,890.933,197.142,890.953Z" fill="#fff"/>
        </g>
        <g id="Grupo_54076" data-name="Grupo 54076">
          <path id="Trazado_101006" data-name="Trazado 101006" d="M202.3,890.215l-1.572.254-1.576.226c-.158.023-.313-.153-.345-.394s.069-.453.226-.476l1.563-.225,1.559-.252c.156-.025.316.148.357.387S202.458,890.189,202.3,890.215Z" fill="#fff"/>
        </g>
        <g id="Grupo_54077" data-name="Grupo 54077">
          <path id="Trazado_101007" data-name="Trazado 101007" d="M207.417,889.232l-1.559.327c-.389.085-.78.158-1.074.211l-.489.091c-.157.029-.32-.141-.364-.379s.047-.456.2-.485l.485-.09c.292-.052.68-.125,1.065-.209l1.545-.324c.156-.033.324.133.376.37S207.574,889.2,207.417,889.232Z" fill="#fff"/>
        </g>
        <g id="Grupo_54078" data-name="Grupo 54078">
          <path id="Trazado_101008" data-name="Trazado 101008" d="M212.478,887.979l-1.54.41c-.385.105-.77.206-1.061.271l-.485.114c-.156.037-.327-.124-.383-.36s.024-.457.178-.494l.48-.113c.289-.064.67-.165,1.051-.268l1.525-.407c.153-.04.33.116.4.349S212.632,887.937,212.478,887.979Z" fill="#fff"/>
        </g>
        <g id="Grupo_54079" data-name="Grupo 54079">
          <path id="Trazado_101009" data-name="Trazado 101009" d="M217.457,886.421l-1.511.512c-.376.133-.758.245-1.045.331l-.477.143c-.153.046-.334-.1-.4-.337s0-.457.149-.5l.472-.142c.283-.084.662-.2,1.033-.327l1.494-.506c.149-.05.336.094.417.322S217.609,886.37,217.457,886.421Z" fill="#fff"/>
        </g>
        <g id="Grupo_54080" data-name="Grupo 54080">
          <path id="Trazado_101010" data-name="Trazado 101010" d="M221.164,883.148s-.052.9-.1,1.8l0,.074c0,.023.007.057-.026.058l-.139.053-.27.1-.314.12-.477.182-.466.179c-.15.057-.34-.081-.425-.308s-.035-.456.113-.513l1.157-.443c.04-.681.079-1.361.079-1.361.009-.159.213-.277.455-.263S221.173,882.99,221.164,883.148Z" fill="#fff"/>
        </g>
        <g id="Grupo_54081" data-name="Grupo 54081">
          <path id="Trazado_101011" data-name="Trazado 101011" d="M221.464,877.967l-.183,3.167c-.01.159-.213.276-.455.262s-.431-.154-.422-.313l.183-3.166c.01-.159.213-.277.455-.263S221.473,877.808,221.464,877.967Z" fill="#fff"/>
        </g>
        <g id="Grupo_54082" data-name="Grupo 54082">
          <path id="Trazado_101012" data-name="Trazado 101012" d="M221.764,872.786l-.183,3.167c-.009.159-.213.276-.455.262s-.431-.154-.422-.313l.184-3.166c.009-.159.213-.277.455-.263S221.774,872.627,221.764,872.786Z" fill="#fff"/>
        </g>
        <g id="Grupo_54083" data-name="Grupo 54083">
          <path id="Trazado_101013" data-name="Trazado 101013" d="M222.065,867.6l-.184,3.167c-.009.159-.213.276-.455.262s-.431-.154-.421-.313l.183-3.166c.009-.159.213-.277.455-.263S222.074,867.446,222.065,867.6Z" fill="#fff"/>
        </g>
        <g id="Grupo_54084" data-name="Grupo 54084">
          <path id="Trazado_101014" data-name="Trazado 101014" d="M222.365,862.424l-.183,3.167c-.01.159-.213.276-.455.262s-.431-.154-.422-.313l.183-3.166c.01-.159.213-.277.455-.263S222.374,862.265,222.365,862.424Z" fill="#fff"/>
        </g>
        <g id="Grupo_54085" data-name="Grupo 54085">
          <path id="Trazado_101015" data-name="Trazado 101015" d="M222.665,857.243l-.183,3.167c-.009.159-.213.276-.455.262s-.431-.154-.422-.313l.184-3.166c.009-.159.213-.277.455-.263S222.675,857.084,222.665,857.243Z" fill="#fff"/>
        </g>
        <g id="Grupo_54086" data-name="Grupo 54086">
          <path id="Trazado_101016" data-name="Trazado 101016" d="M222.966,852.062l-.184,3.167c-.009.159-.213.276-.455.262s-.431-.154-.421-.313l.183-3.166c.009-.159.213-.277.455-.263S222.975,851.9,222.966,852.062Z" fill="#fff"/>
        </g>
        <g id="Grupo_54087" data-name="Grupo 54087">
          <path id="Trazado_101017" data-name="Trazado 101017" d="M222.048,846.952l.243.417c.141.253.354.574.57.882.058.078.086.125.235.312.088.068.062.171.057.266l-.012.217-.03.507-.028.495c-.01.158-.213.276-.455.262s-.431-.154-.422-.313l.029-.495.029-.507,0-.066-.118-.162c-.24-.341-.464-.682-.613-.948l-.256-.44c-.085-.141.035-.354.247-.467S221.968,846.82,222.048,846.952Z" fill="#fff"/>
        </g>
        <g id="Grupo_54088" data-name="Grupo 54088">
          <path id="Trazado_101018" data-name="Trazado 101018" d="M220.1,842.25l.146.466.15.478.2.536c.14.364.271.732.383,1l.2.444c.063.143-.065.34-.285.441s-.453.062-.519-.087l-.205-.461c-.116-.279-.251-.659-.4-1.034l-.209-.554-.154-.491-.151-.479c-.048-.155.1-.336.333-.406S220.054,842.1,220.1,842.25Z" fill="#fff"/>
        </g>
        <g id="Grupo_54089" data-name="Grupo 54089">
          <path id="Trazado_101019" data-name="Trazado 101019" d="M218.853,836.7l.065.486c.054.289.127.674.2,1.06s.147.77.2,1.059c.025.145.056.264.077.346l.033.131c.038.152-.122.322-.357.378s-.459-.024-.5-.18l-.033-.134c-.022-.085-.053-.207-.079-.355-.056-.295-.132-.689-.207-1.082s-.149-.788-.2-1.083l-.066-.5c-.021-.16.156-.317.4-.351S218.833,836.54,218.853,836.7Z" fill="#fff"/>
        </g>
        <g id="Grupo_54090" data-name="Grupo 54090">
          <path id="Trazado_101020" data-name="Trazado 101020" d="M218.368,831.578l0,.135c0,.086.005.209.019.356l.081,1.078.12,1.567c.021.156-.158.3-.4.332s-.453-.081-.475-.24l-.122-1.6-.082-1.1c-.014-.15-.019-.275-.019-.362l0-.137c0-.161.191-.3.433-.307S218.365,831.42,218.368,831.578Z" fill="#fff"/>
        </g>
        <g id="Grupo_54091" data-name="Grupo 54091">
          <path id="Trazado_101021" data-name="Trazado 101021" d="M218.391,826.428s-.027.787-.053,1.574c-.045.787-.01,1.574-.01,1.574,0,.157-.19.288-.433.291s-.441-.124-.445-.285c0,0-.035-.8.01-1.6l.054-1.6c0-.16.206-.281.448-.269S218.4,826.27,218.391,826.428Z" fill="#fff"/>
        </g>
        <g id="Grupo_54092" data-name="Grupo 54092">
          <path id="Trazado_101022" data-name="Trazado 101022" d="M218.8,821.288s-.034.194-.061.489-.059.687-.093,1.079c-.067.786-.135,1.571-.135,1.571-.014.157-.221.272-.463.255s-.427-.159-.413-.319l.137-1.589.1-1.093c.026-.3.06-.494.06-.494.022-.159.235-.264.476-.235S218.817,821.131,218.8,821.288Z" fill="#fff"/>
        </g>
        <g id="Grupo_54093" data-name="Grupo 54093">
          <path id="Trazado_101023" data-name="Trazado 101023" d="M217.628,816.658l.686.241,1.037.343-.282,2.057c-.022.157-.234.257-.474.224s-.418-.188-.4-.347l.182-1.327-1.049-.364c-.151-.054-.206-.284-.123-.512S217.479,816.6,217.628,816.658Z" fill="#fff"/>
        </g>
        <g id="Grupo_54094" data-name="Grupo 54094">
          <path id="Trazado_101024" data-name="Trazado 101024" d="M212.824,814.768l1.456.607,1.467.582c.148.057.2.287.111.513s-.278.364-.427.307l-1.482-.588-1.47-.613c-.147-.064-.188-.3-.092-.519S212.679,814.705,212.824,814.768Z" fill="#fff"/>
        </g>
        <g id="Grupo_54095" data-name="Grupo 54095">
          <path id="Trazado_101025" data-name="Trazado 101025" d="M208.145,812.591s.7.357,1.414.7l1.429.668c.144.065.18.3.08.518s-.3.347-.445.282l-1.444-.676c-.719-.344-1.43-.705-1.43-.705-.143-.072-.17-.306-.06-.522S208,812.52,208.145,812.591Z" fill="#fff"/>
        </g>
        <g id="Grupo_54096" data-name="Grupo 54096">
          <path id="Trazado_101026" data-name="Trazado 101026" d="M203.636,810.1l.419.256.936.545c.682.392,1.375.768,1.375.768.139.075.16.307.045.521s-.322.328-.463.251c0,0-.7-.38-1.394-.778l-.949-.553-.426-.26c-.137-.084-.145-.319-.018-.526S203.5,810.014,203.636,810.1Z" fill="#fff"/>
        </g>
        <g id="Grupo_54097" data-name="Grupo 54097">
          <path id="Trazado_101027" data-name="Trazado 101027" d="M199.4,807.2l.386.3.871.637c.642.452,1.293.891,1.293.891.132.086.132.32,0,.523s-.349.3-.484.209c0,0-.664-.447-1.319-.908l-.889-.651-.4-.308c-.127-.1-.108-.334.042-.525S199.271,807.1,199.4,807.2Z" fill="#fff"/>
        </g>
        <g id="Grupo_54098" data-name="Grupo 54098">
          <path id="Trazado_101028" data-name="Trazado 101028" d="M195.629,803.751l.324.362.753.763c.278.272.571.531.785.732s.363.326.363.326c.12.1.089.332-.069.517s-.385.248-.509.144c0,0-.154-.128-.374-.335s-.522-.474-.809-.756l-.779-.789-.338-.376c-.108-.122-.047-.35.135-.509S195.526,803.635,195.629,803.751Z" fill="#fff"/>
        </g>
        <g id="Grupo_54099" data-name="Grupo 54099">
          <path id="Trazado_101029" data-name="Trazado 101029" d="M192.813,799.581l.206.432a9.639,9.639,0,0,0,.507.927,10.342,10.342,0,0,0,.574.89l.273.4c.094.124.017.341-.176.488s-.432.163-.531.033l-.288-.419a11,11,0,0,1-.606-.941,10.346,10.346,0,0,1-.54-.985l-.22-.462c-.071-.15.052-.347.276-.441S192.747,799.443,192.813,799.581Z" fill="#fff"/>
        </g>
      </g>
    </g>
    <path id="Trazado_101030" data-name="Trazado 101030" d="M198,819.165h0l-.2-.906v.025c0-.309,0-.6,0-.914,0-.277,0-.548,0-.825v-.952c0-.565.161-1.258.156-1.7h0l-.014-.878h-.005c-.007-.439-.067-1.049-.079-1.555,0-.077-.047-.169-.056-.249l.091-.83h0c-.012-.878-.024-1.554-.037-2.246l-.012-.828h0c-.013-.439.165-4.656.165-5.232l-.365-.292-.423-.343c-.257-.072-1.879-1.592-2.125-1.773-1.883-1.387-1.4,2.512-2.823.687a35.667,35.667,0,0,1-2.113-2.89,1.246,1.246,0,0,1-.327-.073,8.856,8.856,0,0,1-2.37-1.518,3.7,3.7,0,0,0-.751-.422c.062.271.124.542.193.811.069.37.094.793.147,1.186s.1.785.143,1.215l.087,1.4c.051.939.131,1.847.161,2.813l.1,2.888c.082,1.916.09,3.882.132,5.827s.05,3.908.065,5.867.031,3.919.024,5.885c0,15.715-.233,31.478-.518,46.991s-.642,30.788-1.017,45.569c-.751,29.563-1.574,57.158-2.317,80.81-.213,6.453-.416,12.61-.608,18.436,3.42-.062,6.837-.218,10.258-.2q.024-.758.05-1.522h.018l.03-.951h-.017q.028-.87.058-1.751h.016l.03-.952-.015.1c.017-.524.035-1.037.052-1.476h.014l.031-1.317h-.013q.027-.659.055-1.317h.012l.03-1.318h-.01c.019-.439.038-.878.057-1.756h.009l.03-.878h-.008c.019-.439.037-.878.056-1.756h.005l.03-.879h0c.02-.439.039-.878.058-1.756h0l.151-.394v-.007l-.054-.461-.033-.017c.018-.575,0-1.316.02-1.755h0l.03-.878h0c.017-.44.035-1.318.053-1.757h0l.03-.878h0c.018-.439-.045-1.184-.045-1.768v-.01l.16-.763a18.133,18.133,0,0,1,.279-4.586V983.2c0-.523-.113-1.141-.1-1.581h0l.029-.878h0c.017-.439.068-1.159.068-1.725V979l.109-.374a54.949,54.949,0,0,1,.33-7.68V970.1c0-.584-.151-1.208-.134-1.647h0l.133-1.058v-.1c0-3.2.084-6.31.179-9.823h0l.028-.878h0c.015-.439.031-.878.046-1.756h0l.187-.859v-6.962l.066-.961h0c.016-.439.032-1.317.049-1.756h0l.027-.878h0c.016-.439.031-1.317.047-1.757h0l.026-.878h0c.016-.439.225-1.142.225-1.706v-2.665l-.078-.9h0c.015-.878.031-1.317.046-1.756h0l.026-.878h0c.015-.878.031-1.317.046-1.756h0l.024-.878h0c.014-.879.028-1.318.042-1.757h0l.025-.878h0c.015-.439-.132-1.166-.132-1.728V924.9c0-.582.439-1.167.439-1.75v-.914c0-.561-.138-1.207-.123-1.646h0l.025-.878h0c.015-.878.03-1.318.045-1.757h0l.024-1.317h0a3.1,3.1,0,0,1-.088-.585c.076-2.992.118-5.955.118-8.985v-.008l.236-.96h0c.1-3.951.2-8.112.2-12.231v.017l.043-.023c.173-7.7.357-15.567.5-23.426,0-.234.029-.341.033-.78h0l.016-.878h0c.01-.439.019-.878.029-1.756h0l.016-.879h0c.01-.439.02-.878.03-1.756h0l.017-.878h0c.01-.439.02-1.317.03-1.756h0l.016-.879h0c.01-.439.021-1.317.03-1.756h0l0-.287c0-.016,0,.005,0-.01l.01-.581h0c.009-.439.016-1.317.024-1.756h0l.013-.878h0c.008-.879.015-1.318.023-1.757h0l.014-.878h0c.008-.878.016-1.317.024-1.756h0l.013-1.317h0q.01-.66.022-1.318h0l.011-.878h0c.007-.878.012-1.317.019-1.756h0l.011-.878h0c.006-.878.01-1.318.016-1.757h0l.011-.878H197.9c.006-.878.011-1.317.016-1.756h.008l.01-.878h-.009c.005-.878.012-1.317.017-1.757h.008l.006-1.317h-.005c0-.439.012-.878.015-1.756h0l.006-.878h0c0-.439,0-.878.006-1.757h.008l.006-.878h-.011c0-.439,0-.878.006-1.756H198l0-.878h-.017c0-.439.005-.878.006-1.756h.012v-.879H198c0-.439.005-1.317.006-1.756h0v-.878h0s0-.2,0-.261c0-.47,0-1.056,0-1.495h0v-.878h0C198,820.482,198,820.043,198,819.165Z" opacity="0.32"/>
    <g id="Grupo_54102" data-name="Grupo 54102">
      <path id="Trazado_101031" data-name="Trazado 101031" d="M179.507,1075.107s.277-7.882.763-21.675c.454-13.8,1.1-33.506,1.884-57.158.743-23.652,1.566-51.247,2.317-80.81.375-14.781.728-30.055,1.016-45.569s.518-31.276.518-46.991c.007-1.967-.008-3.926-.023-5.885s-.02-3.922-.065-5.868-.05-3.91-.132-5.826l-.1-2.888c-.03-.966-.109-1.874-.161-2.813l-.086-1.4c-.041-.429-.1-.808-.143-1.214s-.079-.816-.148-1.186q-.131-.519-.247-1.043a11.738,11.738,0,0,0-4.608-6.683l-.435-.311a3.239,3.239,0,0,0-.45-.3l-.94-.553-1-.476c-.329-.169-.7-.273-1.044-.417a20.019,20.019,0,0,0-4.47-1.069,23.287,23.287,0,0,0-4.662-.041,19.67,19.67,0,0,0-4.457.966,14.574,14.574,0,0,0-3.83,1.905,11.217,11.217,0,0,0-2.736,2.7c-.152.262-.354.5-.486.77s-.263.54-.406.8c-.1.286-.193.571-.3.852a1.84,1.84,0,0,0-.122.439l-.1.449c-.032.15-.083.294-.1.449l-.045.474-.055.471c-.009.082-.023.149-.029.243l-.005.329q-.022,1.316-.043,2.626c-.025.853-.013,1.786-.005,2.706s.014,1.835.02,2.75c.069,7.332.237,14.605.4,21.707q.276,10.666.539,20.839c.4,13.549.774,26.359,1.121,38.184.766,23.653,1.4,43.363,1.851,57.161.47,13.8.739,21.679.739,21.679l-10.239.357s-.269-7.888-.739-21.692c-.447-13.8-1.086-33.524-1.852-57.188-.348-11.836-.724-24.658-1.123-38.22q-.262-10.178-.539-20.879c-.162-7.133-.33-14.4-.4-21.866q-.011-1.4-.021-2.809c-.008-.937-.021-1.865.006-2.875q.027-1.486.054-2.977l.007-.373c.008-.139.028-.3.042-.455l.1-.926.109-.925c.046-.308.128-.617.193-.925l.215-.925a6.618,6.618,0,0,1,.261-.916c.211-.6.426-1.208.656-1.8q.417-.868.857-1.727c.3-.569.675-1.088,1.019-1.629a21.459,21.459,0,0,1,5.291-5.274,24.82,24.82,0,0,1,6.376-3.2,29.918,29.918,0,0,1,6.769-1.47,33.39,33.39,0,0,1,6.888.062,30.216,30.216,0,0,1,6.81,1.631,24.266,24.266,0,0,1,11.66,8.783,23.379,23.379,0,0,1,3.16,6.887l.426,1.821c.11.593.157,1.152.235,1.731s.146,1.162.2,1.71l.1,1.544c.057,1.022.144,2.074.176,3.074l.1,3.011c.084,2.017.092,3.991.136,5.987s.05,3.976.065,5.961.031,3.97.024,5.949c0,15.846-.233,31.642-.519,47.191s-.643,30.841-1.018,45.639c-.752,29.595-1.576,57.207-2.319,80.873l-1.885,57.189c-.486,13.8-.764,21.694-.764,21.694Z" fill="#edeae8"/>
      <rect id="Rectngulo_5281" data-name="Rectngulo 5281" width="7.72" height="0.952" transform="matrix(0.999, -0.035, 0.035, 0.999, 148.958, 962.848)" fill="#a32338"/>
      <rect id="Rectngulo_5282" data-name="Rectngulo 5282" width="5.621" height="0.952" transform="matrix(0.999, -0.034, 0.034, 0.999, 148.864, 960.145)" fill="#a32338"/>
      <rect id="Rectngulo_5283" data-name="Rectngulo 5283" width="5.621" height="0.952" transform="translate(148.774 957.508) rotate(-1.969)" fill="#a32338"/>
      <rect id="Rectngulo_5284" data-name="Rectngulo 5284" width="5.621" height="0.952" transform="translate(148.682 954.809) rotate(-1.951)" fill="#a32338"/>
      <rect id="Rectngulo_5285" data-name="Rectngulo 5285" width="5.621" height="0.952" transform="translate(148.592 952.172) rotate(-1.951)" fill="#a32338"/>
      <rect id="Rectngulo_5286" data-name="Rectngulo 5286" width="7.72" height="0.952" transform="translate(148.506 949.639) rotate(-1.952)" fill="#a32338"/>
      <rect id="Rectngulo_5287" data-name="Rectngulo 5287" width="5.621" height="0.952" transform="matrix(0.999, -0.034, 0.034, 0.999, 148.414, 946.936)" fill="#a32338"/>
      <rect id="Rectngulo_5288" data-name="Rectngulo 5288" width="5.621" height="0.952" transform="matrix(0.999, -0.034, 0.034, 0.999, 148.326, 944.299)" fill="#a32338"/>
      <rect id="Rectngulo_5289" data-name="Rectngulo 5289" width="5.621" height="0.952" transform="matrix(0.999, -0.034, 0.034, 0.999, 148.235, 941.601)" fill="#a32338"/>
      <rect id="Rectngulo_5290" data-name="Rectngulo 5290" width="5.621" height="0.952" transform="translate(148.146 938.964) rotate(-1.917)" fill="#a32338"/>
      <rect id="Rectngulo_5291" data-name="Rectngulo 5291" width="7.72" height="0.952" transform="translate(148.056 936.26) rotate(-1.904)" fill="#a32338"/>
      <rect id="Rectngulo_5292" data-name="Rectngulo 5292" width="5.621" height="0.952" transform="translate(147.966 933.559) rotate(-1.906)" fill="#a32338"/>
      <rect id="Rectngulo_5293" data-name="Rectngulo 5293" width="5.621" height="0.952" transform="matrix(0.999, -0.033, 0.033, 0.999, 147.878, 930.921)" fill="#a32338"/>
      <rect id="Rectngulo_5294" data-name="Rectngulo 5294" width="5.621" height="0.952" transform="matrix(0.999, -0.033, 0.033, 0.999, 147.789, 928.223)" fill="#a32338"/>
      <rect id="Rectngulo_5295" data-name="Rectngulo 5295" width="5.621" height="0.952" transform="translate(147.702 925.585) rotate(-1.875)" fill="#a32338"/>
      <rect id="Rectngulo_5296" data-name="Rectngulo 5296" width="7.72" height="0.952" transform="translate(147.619 923.052) rotate(-1.877)" fill="#a32338"/>
      <rect id="Rectngulo_5297" data-name="Rectngulo 5297" width="5.621" height="0.952" transform="matrix(0.999, -0.033, 0.033, 0.999, 147.531, 920.35)" fill="#a32338"/>
      <rect id="Rectngulo_5298" data-name="Rectngulo 5298" width="5.621" height="0.952" transform="translate(147.444 917.713) rotate(-1.875)" fill="#a32338"/>
      <rect id="Rectngulo_5299" data-name="Rectngulo 5299" width="5.621" height="0.952" transform="translate(147.356 915.015) rotate(-1.875)" fill="#a32338"/>
      <rect id="Rectngulo_5300" data-name="Rectngulo 5300" width="5.621" height="0.952" transform="matrix(0.999, -0.032, 0.032, 0.999, 147.271, 912.376)" fill="#a32338"/>
      <rect id="Rectngulo_5301" data-name="Rectngulo 5301" width="7.72" height="0.952" transform="translate(147.186 909.731) rotate(-1.84)" fill="#a32338"/>
      <rect id="Rectngulo_5302" data-name="Rectngulo 5302" width="5.621" height="0.952" transform="translate(147.099 907.029) rotate(-1.84)" fill="#a32338"/>
      <rect id="Rectngulo_5303" data-name="Rectngulo 5303" width="5.621" height="0.952" transform="matrix(0.999, -0.032, 0.032, 0.999, 147.014, 904.391)" fill="#a32338"/>
      <rect id="Rectngulo_5304" data-name="Rectngulo 5304" width="5.621" height="0.952" transform="translate(146.928 901.694) rotate(-1.841)" fill="#a32338"/>
      <rect id="Rectngulo_5305" data-name="Rectngulo 5305" width="5.621" height="0.952" transform="translate(146.843 899.054) rotate(-1.803)" fill="#a32338"/>
      <rect id="Rectngulo_5306" data-name="Rectngulo 5306" width="7.72" height="0.952" transform="translate(146.764 896.52) rotate(-1.796)" fill="#a32338"/>
      <rect id="Rectngulo_5307" data-name="Rectngulo 5307" width="5.621" height="0.952" transform="translate(146.679 893.819) rotate(-1.798)" fill="#a32338"/>
      <rect id="Rectngulo_5308" data-name="Rectngulo 5308" width="5.621" height="0.952" transform="matrix(1, -0.031, 0.031, 1, 146.596, 891.181)" fill="#a32338"/>
      <rect id="Rectngulo_5309" data-name="Rectngulo 5309" width="5.621" height="0.952" transform="translate(146.512 888.483) rotate(-1.795)" fill="#a32338"/>
      <rect id="Rectngulo_5310" data-name="Rectngulo 5310" width="5.621" height="0.952" transform="matrix(1, -0.031, 0.031, 1, 146.429, 885.846)" fill="#a32338"/>
      <rect id="Rectngulo_5311" data-name="Rectngulo 5311" width="7.72" height="0.952" transform="matrix(1, -0.03, 0.03, 1, 146.346, 883.14)" fill="#a32338"/>
      <rect id="Rectngulo_5312" data-name="Rectngulo 5312" width="5.621" height="0.952" transform="matrix(1, -0.03, 0.03, 1, 146.264, 880.438)" fill="#a32338"/>
      <rect id="Rectngulo_5313" data-name="Rectngulo 5313" width="5.621" height="0.952" transform="translate(146.183 877.8) rotate(-1.742)" fill="#a32338"/>
      <rect id="Rectngulo_5314" data-name="Rectngulo 5314" width="5.621" height="0.952" transform="translate(146.101 875.102) rotate(-1.742)" fill="#a32338"/>
      <rect id="Rectngulo_5315" data-name="Rectngulo 5315" width="5.621" height="0.952" transform="translate(146.021 872.464) rotate(-1.742)" fill="#a32338"/>
      <rect id="Rectngulo_5316" data-name="Rectngulo 5316" width="7.72" height="0.952" transform="translate(145.944 869.932) rotate(-1.742)" fill="#a32338"/>
      <rect id="Rectngulo_5317" data-name="Rectngulo 5317" width="5.621" height="0.952" transform="matrix(1, -0.029, 0.029, 1, 145.865, 867.225)" fill="#a32338"/>
      <rect id="Rectngulo_5318" data-name="Rectngulo 5318" width="5.621" height="0.952" transform="translate(145.788 864.587) rotate(-1.674)" fill="#a32338"/>
      <rect id="Rectngulo_5319" data-name="Rectngulo 5319" width="5.621" height="0.952" transform="translate(145.709 861.889) rotate(-1.674)" fill="#a32338"/>
      <rect id="Rectngulo_5320" data-name="Rectngulo 5320" width="5.621" height="0.952" transform="matrix(1, -0.029, 0.029, 1, 145.631, 859.251)" fill="#a32338"/>
      <rect id="Rectngulo_5321" data-name="Rectngulo 5321" width="7.72" height="0.952" transform="matrix(1, -0.029, 0.029, 1, 145.549, 856.435)" fill="#a32338"/>
      <rect id="Rectngulo_5322" data-name="Rectngulo 5322" width="5.621" height="0.952" transform="translate(145.472 853.728) rotate(-1.584)" fill="#a32338"/>
      <rect id="Rectngulo_5323" data-name="Rectngulo 5323" width="5.621" height="0.952" transform="translate(145.399 851.089) rotate(-1.584)" fill="#a32338"/>
      <rect id="Rectngulo_5324" data-name="Rectngulo 5324" width="5.621" height="0.952" transform="translate(145.324 848.39) rotate(-1.584)" fill="#a32338"/>
      <rect id="Rectngulo_5325" data-name="Rectngulo 5325" width="5.621" height="0.952" transform="translate(145.251 845.752) rotate(-1.586)" fill="#a32338"/>
      <rect id="Rectngulo_5326" data-name="Rectngulo 5326" width="7.72" height="0.952" transform="translate(145.181 843.219) rotate(-1.587)" fill="#a32338"/>
      <rect id="Rectngulo_5327" data-name="Rectngulo 5327" width="5.621" height="0.952" transform="translate(145.107 840.515) rotate(-1.563)" fill="#a32338"/>
      <rect id="Rectngulo_5328" data-name="Rectngulo 5328" width="5.621" height="0.952" transform="translate(145.039 837.871) rotate(-1.459)" fill="#a32338"/>
      <rect id="Rectngulo_5329" data-name="Rectngulo 5329" width="5.621" height="0.952" transform="matrix(1, -0.025, 0.025, 1, 144.97, 835.171)" fill="#a32338"/>
      <rect id="Rectngulo_5330" data-name="Rectngulo 5330" width="5.621" height="0.952" transform="translate(144.903 832.532) rotate(-1.462)" fill="#a32338"/>
      <rect id="Rectngulo_5331" data-name="Rectngulo 5331" width="7.72" height="0.952" transform="translate(144.834 829.829) rotate(-1.46)" fill="#a32338"/>
      <rect id="Rectngulo_5332" data-name="Rectngulo 5332" width="5.621" height="0.952" transform="matrix(1, -0.024, 0.024, 1, 144.767, 827.12)" fill="#a32338"/>
      <rect id="Rectngulo_5333" data-name="Rectngulo 5333" width="5.621" height="0.952" transform="translate(144.708 824.476) rotate(-1.277)" fill="#a32338"/>
      <rect id="Rectngulo_5334" data-name="Rectngulo 5334" width="5.621" height="0.952" transform="matrix(1, -0.022, 0.022, 1, 144.648, 821.775)" fill="#a32338"/>
      <rect id="Rectngulo_5335" data-name="Rectngulo 5335" width="5.621" height="0.952" transform="translate(144.589 819.135) rotate(-1.277)" fill="#a32338"/>
      <path id="Trazado_101032" data-name="Trazado 101032" d="M152.251,816.438l.021.951-7.719.159-.021-.953Z" fill="#a32338"/>
      <path id="Trazado_101033" data-name="Trazado 101033" d="M150.1,813.779l.016.951-5.62.108-.016-.955Z" fill="#a32338"/>
      <rect id="Rectngulo_5336" data-name="Rectngulo 5336" width="5.621" height="0.953" transform="translate(144.438 811.236) rotate(-0.983)" fill="#a32338"/>
      <path id="Trazado_101034" data-name="Trazado 101034" d="M150.012,808.444l.016.951-5.62.086-.016-.955Z" fill="#a32338"/>
      <path id="Trazado_101035" data-name="Trazado 101035" d="M149.973,805.807l.01.951-5.621.076-.01-.96Z" fill="#a32338"/>
      <path id="Trazado_101036" data-name="Trazado 101036" d="M152.052,803.15l.007.947-7.72.065-.007-.962Z" fill="#a32338"/>
      <path id="Trazado_101037" data-name="Trazado 101037" d="M149.933,800.464l.007.951-5.621.016-.007-.962Z" fill="#a32338"/>
      <path id="Trazado_101038" data-name="Trazado 101038" d="M149.952,797.836l-.016.946-5.621-.05.017-1.011Z" fill="#a32338"/>
      <path id="Trazado_101039" data-name="Trazado 101039" d="M150,795.155s-.005.057-.005.147l-.006.325-.008.473-5.616-.236.009-.506c.007-.257.006-.5.014-.514Z" fill="#a32338"/>
      <path id="Trazado_101040" data-name="Trazado 101040" d="M150.378,792.633l-.1.448-.071.308a.892.892,0,0,0-.023.142l-5.547-.908a1.112,1.112,0,0,1,.031-.2l.1-.431.141-.625Z" fill="#a32338"/>
      <path id="Trazado_101041" data-name="Trazado 101041" d="M153.039,791.124l-.259.734-7.29-2.541.445-1.215Z" fill="#a32338"/>
      <path id="Trazado_101042" data-name="Trazado 101042" d="M152.368,788.024l-.5.769L147,785.971l.7-1.084Z" fill="#a32338"/>
      <path id="Trazado_101043" data-name="Trazado 101043" d="M153.968,786.044s-.17.157-.324.328l-.292.356-4.277-3.648.409-.489c.212-.235.44-.451.44-.451Z" fill="#a32338"/>
      <path id="Trazado_101044" data-name="Trazado 101044" d="M155.929,784.315l-.72.579-3.6-4.315.965-.773Z" fill="#a32338"/>
      <path id="Trazado_101045" data-name="Trazado 101045" d="M158.1,782.945l-.408.221-.28.152-.121.08-2.928-4.8.159-.1.36-.2.525-.287Z" fill="#a32338"/>
      <path id="Trazado_101046" data-name="Trazado 101046" d="M161.245,783.781a1.209,1.209,0,0,0-.123.046l-.263.117-.382.169-3.112-7.066.54-.236.372-.161c.1-.043.171-.065.171-.065Z" fill="#a32338"/>
      <path id="Trazado_101047" data-name="Trazado 101047" d="M163,781.023l-.9.243-1.633-5.379,1.112-.3Z" fill="#a32338"/>
      <path id="Trazado_101048" data-name="Trazado 101048" d="M165.534,780.5c0-.019-.918.166-.918.166l-1.048-5.523.561-.108c.281-.06.563-.092.563-.092Z" fill="#a32338"/>
      <path id="Trazado_101049" data-name="Trazado 101049" d="M168.168,780.243l-.932.052-.469-5.6,1.133-.066Z" fill="#a32338"/>
      <path id="Trazado_101050" data-name="Trazado 101050" d="M170.756,780.239c0-.02-.933-.022-.933-.022l.086-5.62.567.007c.283,0,.566.021.566.021Z" fill="#a32338"/>
      <path id="Trazado_101051" data-name="Trazado 101051" d="M172.919,782.57l-.847-.124.853-7.673s.07.006.176.022l.388.056.564.083Z" fill="#a32338"/>
      <path id="Trazado_101052" data-name="Trazado 101052" d="M175.825,781.006l-.91-.2,1.205-5.49,1.118.252Z" fill="#a32338"/>
      <path id="Trazado_101053" data-name="Trazado 101053" d="M178.279,781.807l-.435-.167-.3-.115a1.1,1.1,0,0,0-.138-.047l1.792-5.328s.07.019.172.059l.375.142.545.207Z" fill="#a32338"/>
      <path id="Trazado_101054" data-name="Trazado 101054" d="M180.684,782.884a.969.969,0,0,0-.129-.067l-.288-.138-.42-.2,2.421-5.073.531.255.365.177a1.755,1.755,0,0,1,.164.085Z" fill="#a32338"/>
      <path id="Trazado_101055" data-name="Trazado 101055" d="M182.859,784.252l-.755-.537,3.047-4.723.986.695Z" fill="#a32338"/>
      <path id="Trazado_101056" data-name="Trazado 101056" d="M183.477,787.488c.019-.017-.6-.546-.6-.546l5.1-5.793.46.4a4.611,4.611,0,0,1,.442.424Z" fill="#a32338"/>
      <path id="Trazado_101057" data-name="Trazado 101057" d="M186.663,787.969l-.564-.731,4.319-3.6.76.98Z" fill="#a32338"/>
      <path id="Trazado_101058" data-name="Trazado 101058" d="M188.026,790.131l-.062-.13a1.81,1.81,0,0,0-.154-.277l-.242-.393,4.827-2.881.322.531a3.242,3.242,0,0,1,.206.372l.084.174Z" fill="#a32338"/>
      <path id="Trazado_101059" data-name="Trazado 101059" d="M189.042,792.544l-.305-.873,5.221-2.083.409,1.156Z" fill="#a32338"/>
      <path id="Trazado_101060" data-name="Trazado 101060" d="M189.7,795.022l-.212-.9,5.468-1.3L195.23,794Z" fill="#a32338"/>
      <path id="Trazado_101061" data-name="Trazado 101061" d="M187.92,797.687l-.1-.859,7.658-.976.133,1.114Z" fill="#a32338"/>
      <path id="Trazado_101062" data-name="Trazado 101062" d="M190.191,800.171l-.059-.945,5.607-.4.062,1Z" fill="#a32338"/>
      <path id="Trazado_101063" data-name="Trazado 101063" d="M190.324,802.8l-.033-.949,5.615-.257.034.971Z" fill="#a32338"/>
      <path id="Trazado_101064" data-name="Trazado 101064" d="M190.417,805.489l-.033-.949,5.618-.2.033.971Z" fill="#a32338"/>
      <path id="Trazado_101065" data-name="Trazado 101065" d="M190.487,808.122l-.017-.951,5.619-.138.017.962Z" fill="#a32338"/>
      <path id="Trazado_101066" data-name="Trazado 101066" d="M188.437,810.858l-.017-.946,7.719-.146.017.962Z" fill="#a32338"/>
      <path id="Trazado_101067" data-name="Trazado 101067" d="M190.581,813.523l-.013-.951,5.621-.075.013.96Z" fill="#a32338"/>
      <path id="Trazado_101068" data-name="Trazado 101068" d="M190.6,816.159l-.007-.951,5.621-.053.007.958Z" fill="#a32338"/>
      <rect id="Rectngulo_5337" data-name="Rectngulo 5337" width="5.621" height="0.954" transform="translate(190.612 817.908) rotate(-0.41)" fill="#a32338"/>
      <path id="Trazado_101069" data-name="Trazado 101069" d="M190.63,821.494v-.951l5.621-.017v.956Z" fill="#a32338"/>
      <rect id="Rectngulo_5338" data-name="Rectngulo 5338" width="7.72" height="0.953" transform="translate(188.53 823.074)" fill="#a32338"/>
      <rect id="Rectngulo_5339" data-name="Rectngulo 5339" width="5.621" height="0.953" transform="translate(190.628 825.781)" fill="#a32338"/>
      <rect id="Rectngulo_5340" data-name="Rectngulo 5340" width="0.953" height="5.621" transform="translate(190.622 829.366) rotate(-89.76)" fill="#a32338"/>
      <rect id="Rectngulo_5341" data-name="Rectngulo 5341" width="0.953" height="5.621" transform="translate(190.605 832.062) rotate(-89.64)" fill="#a32338"/>
      <rect id="Rectngulo_5342" data-name="Rectngulo 5342" width="0.953" height="5.621" transform="translate(190.589 834.704) rotate(-89.64)" fill="#a32338"/>
      <path id="Trazado_101070" data-name="Trazado 101070" d="M188.473,837.33l.006-.95,7.72.06-.006.954Z" fill="#a32338"/>
      <path id="Trazado_101071" data-name="Trazado 101071" d="M190.546,840.05l.01-.951,5.621.051-.01.954Z" fill="#a32338"/>
      <rect id="Rectngulo_5343" data-name="Rectngulo 5343" width="0.953" height="5.621" transform="matrix(0.011, -1, 1, 0.011, 190.517, 842.687)" fill="#a32338"/>
      <rect id="Rectngulo_5344" data-name="Rectngulo 5344" width="0.953" height="5.621" transform="matrix(0.011, -1, 1, 0.011, 190.488, 845.388)" fill="#a32338"/>
      <rect id="Rectngulo_5345" data-name="Rectngulo 5345" width="0.952" height="5.621" transform="matrix(0.012, -1, 1, 0.012, 190.459, 848.026)" fill="#a32338"/>
      <rect id="Rectngulo_5346" data-name="Rectngulo 5346" width="0.952" height="7.72" transform="matrix(0.014, -1, 1, 0.014, 188.324, 850.526)" fill="#a32338"/>
      <rect id="Rectngulo_5347" data-name="Rectngulo 5347" width="0.952" height="5.621" transform="matrix(0.014, -1, 1, 0.014, 190.384, 853.259)" fill="#a32338"/>
      <rect id="Rectngulo_5348" data-name="Rectngulo 5348" width="0.952" height="5.621" transform="matrix(0.014, -1, 1, 0.014, 190.347, 855.899)" fill="#a32338"/>
      <rect id="Rectngulo_5349" data-name="Rectngulo 5349" width="0.952" height="5.621" transform="translate(190.307 858.597) rotate(-89.13)" fill="#a32338"/>
      <rect id="Rectngulo_5350" data-name="Rectngulo 5350" width="0.952" height="5.621" transform="translate(190.262 861.231) rotate(-89.016)" fill="#a32338"/>
      <rect id="Rectngulo_5351" data-name="Rectngulo 5351" width="0.952" height="7.72" transform="translate(188.117 863.9) rotate(-89.016)" fill="#a32338"/>
      <rect id="Rectngulo_5352" data-name="Rectngulo 5352" width="0.952" height="5.621" transform="translate(190.169 866.64) rotate(-89.016)" fill="#a32338"/>
      <rect id="Rectngulo_5353" data-name="Rectngulo 5353" width="0.952" height="5.621" transform="matrix(0.017, -1, 1, 0.017, 190.124, 869.28)" fill="#a32338"/>
      <rect id="Rectngulo_5354" data-name="Rectngulo 5354" width="0.952" height="5.621" transform="translate(190.072 871.973) rotate(-88.879)" fill="#a32338"/>
      <rect id="Rectngulo_5355" data-name="Rectngulo 5355" width="0.952" height="5.621" transform="translate(190.02 874.612) rotate(-88.876)" fill="#a32338"/>
      <rect id="Rectngulo_5356" data-name="Rectngulo 5356" width="0.952" height="7.72" transform="translate(187.872 877.105) rotate(-88.879)" fill="#a32338"/>
      <rect id="Rectngulo_5357" data-name="Rectngulo 5357" width="0.952" height="5.621" transform="translate(189.918 879.85) rotate(-88.882)" fill="#a32338"/>
      <rect id="Rectngulo_5358" data-name="Rectngulo 5358" width="0.952" height="5.621" transform="matrix(0.022, -1, 1, 0.022, 189.863, 882.484)" fill="#a32338"/>
      <rect id="Rectngulo_5359" data-name="Rectngulo 5359" width="0.952" height="5.621" transform="translate(189.805 885.183) rotate(-88.763)" fill="#a32338"/>
      <rect id="Rectngulo_5360" data-name="Rectngulo 5360" width="0.952" height="5.621" transform="matrix(0.022, -1, 1, 0.022, 189.748, 887.822)" fill="#a32338"/>
      <rect id="Rectngulo_5361" data-name="Rectngulo 5361" width="0.952" height="7.72" transform="translate(187.588 890.594) rotate(-88.762)" fill="#a32338"/>
      <rect id="Rectngulo_5362" data-name="Rectngulo 5362" width="0.952" height="5.621" transform="translate(189.628 893.341) rotate(-88.728)" fill="#a32338"/>
      <rect id="Rectngulo_5363" data-name="Rectngulo 5363" width="0.952" height="5.621" transform="matrix(0.023, -1, 1, 0.023, 189.567, 895.976)" fill="#a32338"/>
      <rect id="Rectngulo_5364" data-name="Rectngulo 5364" width="0.952" height="5.621" transform="translate(189.504 898.675) rotate(-88.665)" fill="#a32338"/>
      <rect id="Rectngulo_5365" data-name="Rectngulo 5365" width="0.952" height="5.621" transform="translate(189.442 901.314) rotate(-88.662)" fill="#a32338"/>
      <rect id="Rectngulo_5366" data-name="Rectngulo 5366" width="0.952" height="7.72" transform="translate(187.284 903.798) rotate(-88.662)" fill="#a32338"/>
      <rect id="Rectngulo_5367" data-name="Rectngulo 5367" width="0.952" height="5.621" transform="translate(189.318 906.547) rotate(-88.578)" fill="#a32338"/>
      <rect id="Rectngulo_5368" data-name="Rectngulo 5368" width="0.952" height="5.621" transform="matrix(0.025, -1, 1, 0.025, 189.253, 909.185)" fill="#a32338"/>
      <rect id="Rectngulo_5369" data-name="Rectngulo 5369" width="0.952" height="5.621" transform="translate(189.186 911.884) rotate(-88.578)" fill="#a32338"/>
      <rect id="Rectngulo_5370" data-name="Rectngulo 5370" width="0.952" height="5.621" transform="matrix(0.025, -1, 1, 0.025, 189.12, 914.523)" fill="#a32338"/>
      <rect id="Rectngulo_5371" data-name="Rectngulo 5371" width="0.952" height="7.72" transform="matrix(0.025, -1, 1, 0.025, 186.954, 917.173)" fill="#a32338"/>
      <rect id="Rectngulo_5372" data-name="Rectngulo 5372" width="0.952" height="5.621" transform="matrix(0.026, -1, 1, 0.026, 188.983, 919.925)" fill="#a32338"/>
      <rect id="Rectngulo_5373" data-name="Rectngulo 5373" width="0.952" height="5.621" transform="translate(188.914 922.563) rotate(-88.501)" fill="#a32338"/>
      <rect id="Rectngulo_5374" data-name="Rectngulo 5374" width="0.952" height="5.621" transform="translate(188.843 925.262) rotate(-88.501)" fill="#a32338"/>
      <rect id="Rectngulo_5375" data-name="Rectngulo 5375" width="0.952" height="5.621" transform="translate(188.774 927.9) rotate(-88.501)" fill="#a32338"/>
      <rect id="Rectngulo_5376" data-name="Rectngulo 5376" width="0.952" height="7.72" transform="matrix(0.026, -1, 1, 0.026, 186.61, 930.379)" fill="#a32338"/>
      <rect id="Rectngulo_5377" data-name="Rectngulo 5377" width="0.952" height="5.621" transform="translate(188.634 933.133) rotate(-88.435)" fill="#a32338"/>
      <rect id="Rectngulo_5378" data-name="Rectngulo 5378" width="0.952" height="5.621" transform="translate(188.562 935.771) rotate(-88.435)" fill="#a32338"/>
      <rect id="Rectngulo_5379" data-name="Rectngulo 5379" width="0.952" height="5.621" transform="translate(188.489 938.47) rotate(-88.437)" fill="#a32338"/>
      <rect id="Rectngulo_5380" data-name="Rectngulo 5380" width="0.952" height="5.621" transform="translate(188.417 941.108) rotate(-88.435)" fill="#a32338"/>
      <rect id="Rectngulo_5381" data-name="Rectngulo 5381" width="0.952" height="7.72" transform="translate(186.245 943.693) rotate(-88.397)" fill="#a32338"/>
      <rect id="Rectngulo_5382" data-name="Rectngulo 5382" width="0.952" height="5.621" transform="translate(188.267 946.453) rotate(-88.377)" fill="#a32338"/>
      <rect id="Rectngulo_5383" data-name="Rectngulo 5383" width="0.952" height="5.621" transform="translate(188.193 949.091) rotate(-88.377)" fill="#a32338"/>
      <rect id="Rectngulo_5384" data-name="Rectngulo 5384" width="0.952" height="5.621" transform="translate(188.116 951.789) rotate(-88.377)" fill="#a32338"/>
      <rect id="Rectngulo_5385" data-name="Rectngulo 5385" width="0.952" height="5.621" transform="translate(188.041 954.427) rotate(-88.376)" fill="#a32338"/>
      <rect id="Rectngulo_5386" data-name="Rectngulo 5386" width="0.952" height="7.72" transform="translate(185.87 956.897) rotate(-88.326)" fill="#a32338"/>
      <rect id="Rectngulo_5387" data-name="Rectngulo 5387" width="0.952" height="5.621" transform="translate(187.889 959.66) rotate(-88.326)" fill="#a32338"/>
      <rect id="Rectngulo_5388" data-name="Rectngulo 5388" width="0.952" height="5.621" transform="matrix(0.029, -1, 1, 0.029, 187.812, 962.298)" fill="#a32338"/>
      <rect id="Rectngulo_5389" data-name="Rectngulo 5389" width="0.952" height="5.621" transform="matrix(0.029, -1, 1, 0.029, 187.733, 964.996)" fill="#a32338"/>
      <rect id="Rectngulo_5390" data-name="Rectngulo 5390" width="0.952" height="5.621" transform="matrix(0.029, -1, 1, 0.029, 187.656, 967.634)" fill="#a32338"/>
      <rect id="Rectngulo_5391" data-name="Rectngulo 5391" width="0.952" height="7.72" transform="translate(185.477 970.272) rotate(-88.278)" fill="#a32338"/>
      <rect id="Rectngulo_5392" data-name="Rectngulo 5392" width="0.952" height="5.621" transform="translate(187.494 973.037) rotate(-88.278)" fill="#a32338"/>
      <rect id="Rectngulo_5393" data-name="Rectngulo 5393" width="0.952" height="5.621" transform="translate(187.415 975.675) rotate(-88.276)" fill="#a32338"/>
      <rect id="Rectngulo_5394" data-name="Rectngulo 5394" width="0.952" height="5.621" transform="translate(187.333 978.373) rotate(-88.279)" fill="#a32338"/>
      <rect id="Rectngulo_5395" data-name="Rectngulo 5395" width="0.952" height="5.621" transform="matrix(0.031, -1, 1, 0.031, 187.253, 981.009)" fill="#a32338"/>
      <rect id="Rectngulo_5396" data-name="Rectngulo 5396" width="0.952" height="7.72" transform="translate(185.077 983.477) rotate(-88.234)" fill="#a32338"/>
      <rect id="Rectngulo_5397" data-name="Rectngulo 5397" width="0.952" height="5.621" transform="translate(187.092 986.244) rotate(-88.234)" fill="#a32338"/>
      <rect id="Rectngulo_5398" data-name="Rectngulo 5398" width="0.952" height="5.621" transform="translate(187.011 988.881) rotate(-88.234)" fill="#a32338"/>
      <rect id="Rectngulo_5399" data-name="Rectngulo 5399" width="0.952" height="5.621" transform="translate(186.928 991.579) rotate(-88.233)" fill="#a32338"/>
      <rect id="Rectngulo_5400" data-name="Rectngulo 5400" width="0.952" height="5.621" transform="translate(186.845 994.215) rotate(-88.194)" fill="#a32338"/>
      <rect id="Rectngulo_5401" data-name="Rectngulo 5401" width="0.952" height="7.72" transform="translate(184.662 996.838) rotate(-88.197)" fill="#a32338"/>
      <rect id="Rectngulo_5402" data-name="Rectngulo 5402" width="0.952" height="5.621" transform="matrix(0.032, -1, 1, 0.032, 186.675, 999.606)" fill="#a32338"/>
      <rect id="Rectngulo_5403" data-name="Rectngulo 5403" width="0.952" height="5.621" transform="matrix(0.032, -1, 1, 0.032, 186.592, 1002.243)" fill="#a32338"/>
      <rect id="Rectngulo_5404" data-name="Rectngulo 5404" width="0.952" height="5.621" transform="translate(186.506 1004.939) rotate(-88.157)" fill="#a32338"/>
      <rect id="Rectngulo_5405" data-name="Rectngulo 5405" width="0.952" height="5.621" transform="translate(186.421 1007.577) rotate(-88.159)" fill="#a32338"/>
      <rect id="Rectngulo_5406" data-name="Rectngulo 5406" width="0.952" height="7.72" transform="translate(184.242 1010.043) rotate(-88.16)" fill="#a32338"/>
      <rect id="Rectngulo_5407" data-name="Rectngulo 5407" width="0.952" height="5.621" transform="matrix(0.032, -0.999, 0.999, 0.032, 186.253, 1012.812)" fill="#a32338"/>
      <rect id="Rectngulo_5408" data-name="Rectngulo 5408" width="0.952" height="5.621" transform="translate(186.168 1015.448) rotate(-88.131)" fill="#a32338"/>
      <rect id="Rectngulo_5409" data-name="Rectngulo 5409" width="0.952" height="5.621" transform="matrix(0.033, -0.999, 0.999, 0.033, 186.08, 1018.146)" fill="#a32338"/>
      <rect id="Rectngulo_5410" data-name="Rectngulo 5410" width="0.952" height="5.621" transform="matrix(0.033, -0.999, 0.999, 0.033, 185.994, 1020.783)" fill="#a32338"/>
      <rect id="Rectngulo_5411" data-name="Rectngulo 5411" width="0.952" height="7.72" transform="matrix(0.033, -0.999, 0.999, 0.033, 183.807, 1023.417)" fill="#a32338"/>
      <rect id="Rectngulo_5412" data-name="Rectngulo 5412" width="0.952" height="5.621" transform="translate(185.816 1026.186) rotate(-88.099)" fill="#a32338"/>
      <rect id="Rectngulo_5413" data-name="Rectngulo 5413" width="0.952" height="5.621" transform="translate(185.729 1028.824) rotate(-88.099)" fill="#a32338"/>
      <rect id="Rectngulo_5414" data-name="Rectngulo 5414" width="0.952" height="5.621" transform="translate(185.639 1031.521) rotate(-88.099)" fill="#a32338"/>
      <rect id="Rectngulo_5415" data-name="Rectngulo 5415" width="0.952" height="5.621" transform="matrix(0.033, -0.999, 0.999, 0.033, 185.551, 1034.159)" fill="#a32338"/>
      <rect id="Rectngulo_5416" data-name="Rectngulo 5416" width="0.952" height="7.72" transform="translate(183.368 1036.62) rotate(-88.07)" fill="#a32338"/>
      <rect id="Rectngulo_5417" data-name="Rectngulo 5417" width="0.952" height="5.621" transform="translate(185.375 1039.392) rotate(-88.07)" fill="#a32338"/>
      <rect id="Rectngulo_5418" data-name="Rectngulo 5418" width="0.952" height="5.621" transform="translate(185.286 1042.029) rotate(-88.067)" fill="#a32338"/>
      <rect id="Rectngulo_5419" data-name="Rectngulo 5419" width="0.952" height="5.621" transform="translate(185.195 1044.726) rotate(-88.043)" fill="#a32338"/>
      <rect id="Rectngulo_5420" data-name="Rectngulo 5420" width="0.952" height="5.621" transform="translate(185.105 1047.363) rotate(-88.046)" fill="#a32338"/>
      <rect id="Rectngulo_5421" data-name="Rectngulo 5421" width="0.952" height="7.72" transform="translate(182.919 1049.853) rotate(-88.043)" fill="#a32338"/>
      <rect id="Rectngulo_5422" data-name="Rectngulo 5422" width="0.952" height="5.621" transform="translate(184.924 1052.625) rotate(-88.02)" fill="#a32338"/>
      <rect id="Rectngulo_5423" data-name="Rectngulo 5423" width="0.952" height="5.621" transform="translate(184.833 1055.263) rotate(-88.022)" fill="#a32338"/>
      <rect id="Rectngulo_5424" data-name="Rectngulo 5424" width="0.952" height="5.621" transform="translate(184.74 1057.961) rotate(-88.022)" fill="#a32338"/>
      <rect id="Rectngulo_5425" data-name="Rectngulo 5425" width="0.952" height="5.621" transform="translate(184.648 1060.597) rotate(-87.998)" fill="#a32338"/>
      <rect id="Rectngulo_5426" data-name="Rectngulo 5426" width="0.952" height="7.72" transform="translate(182.461 1063.056) rotate(-87.998)" fill="#a32338"/>
      <rect id="Rectngulo_5427" data-name="Rectngulo 5427" width="0.952" height="5.621" transform="matrix(0.035, -0.999, 0.999, 0.035, 184.464, 1065.83)" fill="#a32338"/>
      <rect id="Rectngulo_5428" data-name="Rectngulo 5428" width="0.952" height="5.621" transform="matrix(0.035, -0.999, 0.999, 0.035, 184.371, 1068.468)" fill="#a32338"/>
      <rect id="Rectngulo_5429" data-name="Rectngulo 5429" width="0.952" height="5.621" transform="matrix(0.036, -0.999, 0.999, 0.036, 184.275, 1071.165)" fill="#a32338"/>
      <rect id="Rectngulo_5430" data-name="Rectngulo 5430" width="0.952" height="5.621" transform="translate(184.181 1073.801) rotate(-87.943)" fill="#a32338"/>
      <path id="Trazado_101072" data-name="Trazado 101072" d="M179.384,1073.637s-.164,2.415-.137,2.607,10.815.385,10.869.275.094-2.653.094-2.653-5.629-.324-5.935.759C184.275,1074.625,184.132,1073.39,179.384,1073.637Z" fill="#9b9b9b"/>
      <path id="Trazado_101073" data-name="Trazado 101073" d="M189.927,1074.145s-4.713-.219-5.556.81a3.456,3.456,0,0,0-2.366-.952,10.958,10.958,0,0,0-2.319-.119,11.989,11.989,0,0,0,.1,1.688c.083.041,3.431.165,5.571.082A11.839,11.839,0,0,0,189.927,1074.145Z" fill="#b5b5b5"/>
    </g>
    <path id="Trazado_101074" data-name="Trazado 101074" d="M140.73,824.914,135.3,818.4a3.45,3.45,0,1,0-.872.809l5.4,6.539s.024,0,.057,0a.573.573,0,0,0,.583-.166A.689.689,0,0,0,140.73,824.914Z" opacity="0.32"/>
    <g id="Grupo_54103" data-name="Grupo 54103" opacity="0.32">
      <path id="Trazado_101075" data-name="Trazado 101075" d="M205.442,937.584l4.333-7.287a3.447,3.447,0,1,0-1.053-.552l-4.371,7.264.022.052a.574.574,0,0,0,.351.5A.687.687,0,0,0,205.442,937.584Z"/>
      <path id="Trazado_101076" data-name="Trazado 101076" d="M217.114,937.942a3.458,3.458,0,1,0-5.319-.733l-6.687,5.212s0,.024,0,.057a.578.578,0,0,0,.15.588.69.69,0,0,0,.661.284l6.66-5.247A3.455,3.455,0,0,0,217.114,937.942Z"/>
      <path id="Trazado_101077" data-name="Trazado 101077" d="M226.773,990.193a3.458,3.458,0,1,0-5.319-.734l-6.687,5.212s0,.024,0,.057a.575.575,0,0,0,.15.588.688.688,0,0,0,.66.284l6.66-5.247A3.456,3.456,0,0,0,226.773,990.193Z"/>
      <path id="Trazado_101078" data-name="Trazado 101078" d="M233.809,1001.43c-.052-2.277.357-4.565-.027-6.833v-.014a3.458,3.458,0,0,0-3.181,2.455l-8.348-1.477s-.017.014-.042.039a.579.579,0,0,0-.335.505.69.69,0,0,0,.231.681l8.356,1.434a3.455,3.455,0,0,0,3.155,3.26c.066.006.131.005.2.007C233.813,1001.468,233.81,1001.45,233.809,1001.43Z"/>
    </g>
    <g id="Grupo_54106" data-name="Grupo 54106">
      <g id="Grupo_54104" data-name="Grupo 54104">
        <path id="Trazado_101079" data-name="Trazado 101079" d="M209.024,927.924l-4.673,7.768a.9.9,0,0,0,1.085.572l4.576-7.861Z" fill="#b7b7b7"/>
        <path id="Trazado_101080" data-name="Trazado 101080" d="M204.376,935.7s-.063.3.348.535a.689.689,0,0,0,.718.028l4.652-7.824-1.02-.495-.518.847s.418,0,.51.255a72.738,72.738,0,0,1-4.008,6.924C204.831,936.192,204.471,936.063,204.376,935.7Z" fill="#878787"/>
        <path id="Trazado_101081" data-name="Trazado 101081" d="M208.513,929.056l-3.946,6.588s.088.3.659-.585,3.267-5.39,3.423-5.731S208.513,929.056,208.513,929.056Z" fill="#e0e0e0"/>
      </g>
      <g id="Grupo_54105" data-name="Grupo 54105">
        <path id="Trazado_101082" data-name="Trazado 101082" d="M213.95,927.2a3.458,3.458,0,1,1-1.6-4.621A3.457,3.457,0,0,1,213.95,927.2Z" fill="#b71818"/>
        <circle id="Elipse_4088" data-name="Elipse 4088" cx="2.943" cy="2.943" r="2.943" transform="translate(207.095 923.608) rotate(-20.036)" fill="#e61c12"/>
        <circle id="Elipse_4089" data-name="Elipse 4089" cx="2.404" cy="2.404" r="2.404" transform="matrix(0.608, -0.794, 0.794, 0.608, 207.472, 925.285)" fill="#ff3b3b"/>
        <path id="Trazado_101083" data-name="Trazado 101083" d="M212.662,923.665a2.33,2.33,0,0,0-2.072-1.089s-.129.25.509.788A1.92,1.92,0,0,0,212.662,923.665Z" fill="#ff7e7e"/>
        <path id="Trazado_101084" data-name="Trazado 101084" d="M210.219,922.648s-1.347.467-1.358,1.6c0,0,1.279-.054,1.572-.663A.722.722,0,0,0,210.219,922.648Z" fill="#ff7e7e"/>
      </g>
    </g>
    <g id="Grupo_54109" data-name="Grupo 54109">
      <g id="Grupo_54107" data-name="Grupo 54107">
        <path id="Trazado_101085" data-name="Trazado 101085" d="M212.258,935.531l-7.15,5.573a.9.9,0,0,0,.807.923l7.092-5.694Z" fill="#b7b7b7"/>
        <path id="Trazado_101086" data-name="Trazado 101086" d="M205.126,941.124s-.165.255.133.624a.69.69,0,0,0,.661.284l7.15-5.632-.775-.829-.787.605s.388.154.384.421a72.976,72.976,0,0,1-6.225,5.024C205.376,941.742,205.087,941.493,205.126,941.124Z" fill="#878787"/>
        <path id="Trazado_101087" data-name="Trazado 101087" d="M211.374,936.4l-6.047,4.733s-.025.309.825-.309,4.983-3.859,5.251-4.122S211.374,936.4,211.374,936.4Z" fill="#e0e0e0"/>
      </g>
      <g id="Grupo_54108" data-name="Grupo 54108">
        <path id="Trazado_101088" data-name="Trazado 101088" d="M217.114,936.625a3.458,3.458,0,1,1,.163-4.887A3.458,3.458,0,0,1,217.114,936.625Z" fill="#b71818"/>
        <circle id="Elipse_4090" data-name="Elipse 4090" cx="2.943" cy="2.943" r="2.943" transform="translate(211.954 930.861)" fill="#e61c12"/>
        <path id="Trazado_101089" data-name="Trazado 101089" d="M216.7,935.059a2.4,2.4,0,1,1,.113-3.4A2.4,2.4,0,0,1,216.7,935.059Z" fill="#ff3b3b"/>
        <path id="Trazado_101090" data-name="Trazado 101090" d="M217.181,932.861a2.33,2.33,0,0,0-1.543-1.76s-.21.187.193.919A1.916,1.916,0,0,0,217.181,932.861Z" fill="#ff7e7e"/>
        <path id="Trazado_101091" data-name="Trazado 101091" d="M215.267,931.035s-1.426-.048-1.845,1.011c0,0,1.214.409,1.706-.055A.722.722,0,0,0,215.267,931.035Z" fill="#ff7e7e"/>
      </g>
    </g>
    <g id="Grupo_54112" data-name="Grupo 54112">
      <g id="Grupo_54110" data-name="Grupo 54110">
        <path id="Trazado_101092" data-name="Trazado 101092" d="M221.917,987.781l-7.15,5.573a.906.906,0,0,0,.808.924l7.092-5.7Z" fill="#b7b7b7"/>
        <path id="Trazado_101093" data-name="Trazado 101093" d="M214.786,993.374s-.165.255.133.624a.688.688,0,0,0,.66.285l7.151-5.633-.775-.829-.787.605s.388.154.384.421a72.835,72.835,0,0,1-6.226,5.024C215.036,993.993,214.746,993.743,214.786,993.374Z" fill="#878787"/>
        <path id="Trazado_101094" data-name="Trazado 101094" d="M221.034,988.655l-6.048,4.732s-.024.309.825-.309,4.984-3.859,5.252-4.122S221.034,988.655,221.034,988.655Z" fill="#e0e0e0"/>
      </g>
      <g id="Grupo_54111" data-name="Grupo 54111">
        <path id="Trazado_101095" data-name="Trazado 101095" d="M226.773,988.875a3.458,3.458,0,1,1,.164-4.887A3.457,3.457,0,0,1,226.773,988.875Z" fill="#b71818"/>
        <circle id="Elipse_4091" data-name="Elipse 4091" cx="2.943" cy="2.943" r="2.943" transform="translate(221.614 983.111)" fill="#e61c12"/>
        <path id="Trazado_101096" data-name="Trazado 101096" d="M226.363,987.309a2.4,2.4,0,1,1,.114-3.4A2.4,2.4,0,0,1,226.363,987.309Z" fill="#ff3b3b"/>
        <path id="Trazado_101097" data-name="Trazado 101097" d="M226.841,985.111a2.33,2.33,0,0,0-1.543-1.76s-.21.187.192.919A1.919,1.919,0,0,0,226.841,985.111Z" fill="#ff7e7e"/>
        <path id="Trazado_101098" data-name="Trazado 101098" d="M224.926,983.285s-1.425-.048-1.844,1.011c0,0,1.214.409,1.706-.054A.724.724,0,0,0,224.926,983.285Z" fill="#ff7e7e"/>
      </g>
    </g>
    <g id="Grupo_54115" data-name="Grupo 54115">
      <g id="Grupo_54113" data-name="Grupo 54113">
        <path id="Trazado_101099" data-name="Trazado 101099" d="M231.179,995.823l-8.927-1.579a.905.905,0,0,0-.145,1.218l8.978,1.455Z" fill="#b7b7b7"/>
        <path id="Trazado_101100" data-name="Trazado 101100" d="M222.25,994.271s-.3.048-.375.517a.689.689,0,0,0,.231.68l8.971,1.54.1-1.13-.976-.18s.145.391-.056.567a72.891,72.891,0,0,1-7.9-1.26A.416.416,0,0,1,222.25,994.271Z" fill="#878787"/>
        <path id="Trazado_101101" data-name="Trazado 101101" d="M229.938,995.752l-7.564-1.323s-.246.187.782.4,6.2,1.119,6.577,1.141S229.938,995.752,229.938,995.752Z" fill="#e0e0e0"/>
      </g>
      <g id="Grupo_54114" data-name="Grupo 54114">
        <circle id="Elipse_4092" data-name="Elipse 4092" cx="3.458" cy="3.458" r="3.458" transform="matrix(0.691, -0.723, 0.723, 0.691, 229.023, 996.826)" fill="#b71818"/>
        <path id="Trazado_101102" data-name="Trazado 101102" d="M233.978,999.56a2.943,2.943,0,1,1,3.183-2.682A2.943,2.943,0,0,1,233.978,999.56Z" fill="#e61c12"/>
        <circle id="Elipse_4093" data-name="Elipse 4093" cx="2.404" cy="2.404" r="2.404" transform="translate(231.323 996.129) rotate(-40.185)" fill="#ff3b3b"/>
        <path id="Trazado_101103" data-name="Trazado 101103" d="M236.458,997.693a2.33,2.33,0,0,0,.275-2.325s-.28-.031-.554.759A1.919,1.919,0,0,0,236.458,997.693Z" fill="#ff7e7e"/>
        <path id="Trazado_101104" data-name="Trazado 101104" d="M236.533,995.048s-.919-1.091-1.986-.693c0,0,.509,1.175,1.183,1.23A.722.722,0,0,0,236.533,995.048Z" fill="#ff7e7e"/>
      </g>
    </g>
    <g id="Grupo_54118" data-name="Grupo 54118">
      <g id="Grupo_54116" data-name="Grupo 54116">
        <path id="Trazado_101105" data-name="Trazado 101105" d="M133.176,818.76l5.77,6.991a.9.9,0,0,0,.9-.832l-5.89-6.931Z" fill="#b7b7b7"/>
        <path id="Trazado_101106" data-name="Trazado 101106" d="M138.966,825.732s.259.158.62-.15a.689.689,0,0,0,.266-.668l-5.83-6.991-.807.8.627.77s.143-.392.409-.4a72.987,72.987,0,0,1,5.2,6.083C139.577,825.465,139.336,825.762,138.966,825.732Z" fill="#878787"/>
        <path id="Trazado_101107" data-name="Trazado 101107" d="M134.074,819.618l4.9,5.914s.309.016-.332-.817-4-4.874-4.266-5.134S134.074,819.618,134.074,819.618Z" fill="#e0e0e0"/>
      </g>
      <g id="Grupo_54117" data-name="Grupo 54117">
        <path id="Trazado_101108" data-name="Trazado 101108" d="M134.135,813.875a3.458,3.458,0,1,1-4.89-.027A3.458,3.458,0,0,1,134.135,813.875Z" fill="#b71818"/>
        <path id="Trazado_101109" data-name="Trazado 101109" d="M133.469,814.1a2.943,2.943,0,1,1-4.162-.023A2.943,2.943,0,0,1,133.469,814.1Z" fill="#e61c12"/>
        <path id="Trazado_101110" data-name="Trazado 101110" d="M132.581,814.328a2.4,2.4,0,1,1-3.4-.018A2.4,2.4,0,0,1,132.581,814.328Z" fill="#ff3b3b"/>
        <path id="Trazado_101111" data-name="Trazado 101111" d="M130.37,813.912a2.331,2.331,0,0,0-1.716,1.592s.192.2.913-.218A1.921,1.921,0,0,0,130.37,813.912Z" fill="#ff7e7e"/>
        <path id="Trazado_101112" data-name="Trazado 101112" d="M128.6,815.877s-.008,1.426,1.062,1.815c0,0,.375-1.224-.1-1.7A.722.722,0,0,0,128.6,815.877Z" fill="#ff7e7e"/>
      </g>
    </g>
  </g>
</svg>
