<svg xmlns="http://www.w3.org/2000/svg" xmlns:xlink="http://www.w3.org/1999/xlink" width="290.223" height="286.064" viewBox="0 0 290.223 286.064">
  <defs>
    <clipPath id="clip-path">
      <circle id="Elipse_4134" data-name="Elipse 4134" cx="127.035" cy="127.035" r="127.035" fill="none"/>
    </clipPath>
  </defs>
  <g id="Grupo_56728" data-name="Grupo 56728" transform="translate(-501.026 -199.642)">
    <g id="Grupo_56743" data-name="Grupo 56743" transform="translate(516.608 216.435)">
      <g id="Grupo_56742" data-name="Grupo 56742" transform="translate(0)" clip-path="url(#clip-path)">
        <circle id="Elipse_4133" data-name="Elipse 4133" cx="127.035" cy="127.035" r="127.035" fill="#fceade" opacity="0.3"/>
        <g id="Grupo_56728-2" data-name="Grupo 56728" transform="translate(212.669 96.047)" opacity="0.5" style="mix-blend-mode: multiply;isolation: isolate">
          <rect id="Rectángulo_5666" data-name="Rectángulo 5666" width="29.101" height="12.656" transform="translate(0 13.909)" fill="#ffcd91"/>
          <rect id="Rectángulo_5667" data-name="Rectángulo 5667" width="29.101" height="12.656" transform="translate(31.374 13.909)" fill="#ffcd91"/>
          <rect id="Rectángulo_5668" data-name="Rectángulo 5668" width="29.101" height="12.656" transform="translate(15.488 28.873)" fill="#ffcd91"/>
          <rect id="Rectángulo_5669" data-name="Rectángulo 5669" width="29.101" height="12.656" transform="translate(45.924)" fill="#ffcd91"/>
        </g>
        <g id="Grupo_56729" data-name="Grupo 56729" transform="translate(120.746 188.875)" opacity="0.5" style="mix-blend-mode: multiply;isolation: isolate">
          <rect id="Rectángulo_5670" data-name="Rectángulo 5670" width="29.101" height="12.656" transform="translate(75.025 26.565) rotate(180)" fill="#ffcd91"/>
          <rect id="Rectángulo_5671" data-name="Rectángulo 5671" width="29.101" height="12.656" transform="translate(43.651 26.565) rotate(180)" fill="#ffcd91"/>
          <rect id="Rectángulo_5672" data-name="Rectángulo 5672" width="29.101" height="12.656" transform="translate(59.537 41.529) rotate(180)" fill="#ffcd91"/>
          <rect id="Rectángulo_5673" data-name="Rectángulo 5673" width="29.101" height="12.656" transform="translate(29.101 12.656) rotate(180)" fill="#ffcd91"/>
        </g>
        <g id="Grupo_56730" data-name="Grupo 56730" transform="translate(-14.26 148.955)" opacity="0.5" style="mix-blend-mode: multiply;isolation: isolate">
          <rect id="Rectángulo_5674" data-name="Rectángulo 5674" width="29.101" height="12.656" transform="translate(0 13.909)" fill="#ffcd91"/>
          <rect id="Rectángulo_5675" data-name="Rectángulo 5675" width="29.101" height="12.656" transform="translate(31.374 13.909)" fill="#ffcd91"/>
          <rect id="Rectángulo_5676" data-name="Rectángulo 5676" width="29.101" height="12.656" transform="translate(15.488 28.873)" fill="#ffcd91"/>
          <rect id="Rectángulo_5677" data-name="Rectángulo 5677" width="29.101" height="12.656" transform="translate(45.925)" fill="#ffcd91"/>
        </g>
        <g id="Grupo_56731" data-name="Grupo 56731" transform="translate(69.899 8.421)">
          <rect id="Rectángulo_5678" data-name="Rectángulo 5678" width="72.386" height="94.79" transform="matrix(0.976, -0.22, 0.22, 0.976, 0, 15.921)" fill="#fff"/>
          <path id="Trazado_105824" data-name="Trazado 105824" d="M729.492,322.232l-9.648,2.175-9.648,2.176s-3.567,34.863-3.742,35.228,20.768-4.683,20.768-4.683,21.083-4.428,20.768-4.682S729.492,322.232,729.492,322.232Z" transform="translate(-674.65 -277.366)" fill="#ef798a"/>
          <path id="Trazado_105825" data-name="Trazado 105825" d="M719.727,267.806l-5.4,1.217-2.274,18.113-9.827-15.385-5.4,1.217-1.221,12.878,9.267,14.425,9.648-2.175,9.648-2.175,2.18-17.006Z" transform="translate(-669.987 -253.954)" fill="#ef798a"/>
          <rect id="Rectángulo_5679" data-name="Rectángulo 5679" width="62.016" height="1.517" transform="matrix(0.976, -0.22, 0.22, 0.976, 23.149, 92.61)" fill="#e5c3d1"/>
          <rect id="Rectángulo_5680" data-name="Rectángulo 5680" width="62.016" height="1.517" transform="matrix(0.976, -0.22, 0.22, 0.976, 23.819, 95.581)" fill="#e5c3d1"/>
          <rect id="Rectángulo_5681" data-name="Rectángulo 5681" width="62.016" height="1.517" transform="translate(24.489 98.553) rotate(-12.706)" fill="#e5c3d1"/>
          <rect id="Rectángulo_5682" data-name="Rectángulo 5682" width="10.622" height="11.993" transform="translate(11.74 35.566) rotate(-12.706)" fill="#e5c3d1"/>
          <rect id="Rectángulo_5683" data-name="Rectángulo 5683" width="8.184" height="9.24" transform="matrix(0.976, -0.22, 0.22, 0.976, 13.233, 36.641)" fill="#613f75"/>
          <rect id="Rectángulo_5684" data-name="Rectángulo 5684" width="14.338" height="16.188" transform="translate(60.614 36.225) rotate(-12.706)" fill="#613f75"/>
          <rect id="Rectángulo_5685" data-name="Rectángulo 5685" width="11.046" height="12.471" transform="matrix(0.976, -0.22, 0.22, 0.976, 62.629, 37.676)" fill="#f7a9a8"/>
          <path id="Trazado_105826" data-name="Trazado 105826" d="M683.138,322.349c-.075,2.347-.077,4.814,1.033,6.884s3.709,3.535,5.859,2.588a2.674,2.674,0,0,0,1.681-2.307,1.778,1.778,0,0,0-1.96-1.767,2.074,2.074,0,0,0-1.044.651c-1.482,1.586-1.2,4.159-.262,6.118a12.007,12.007,0,0,0,7.515,6.31,17.577,17.577,0,0,1-1.849-2.316,11.683,11.683,0,0,0,1.836,2.311l-3.736.618" transform="translate(-664.609 -277.416)" fill="none" stroke="#613f75" stroke-linecap="round" stroke-linejoin="round" stroke-width="0.958"/>
          <path id="Trazado_105827" data-name="Trazado 105827" d="M745.714,273.268a8.613,8.613,0,0,1,7.608,2.481,16.2,16.2,0,0,1,3.981,7.217c.78,2.667,1.179,5.43,1.827,8.132" transform="translate(-691.538 -256.235)" fill="none" stroke="#613f75" stroke-linecap="round" stroke-linejoin="round" stroke-width="0.958"/>
          <path id="Trazado_105828" data-name="Trazado 105828" d="M766.272,301.236a22.968,22.968,0,0,1,1.741,2.087,10.665,10.665,0,0,1,.66-2.289" transform="translate(-700.381 -268.247)" fill="none" stroke="#613f75" stroke-linecap="round" stroke-linejoin="round" stroke-width="0.958"/>
          <path id="Trazado_105829" data-name="Trazado 105829" d="M704.645,272.759,716.5,291.821l3.131-22.441-1.418.32-2.274,18.113-9.827-15.385Z" transform="translate(-673.872 -254.631)" fill="#eb3059"/>
          <path id="Trazado_105830" data-name="Trazado 105830" d="M732.149,322.232l-19.3,4.351-.224,2.184,20.659-4.658Z" transform="translate(-677.306 -277.366)" fill="#eb3059"/>
          <path id="Trazado_105831" data-name="Trazado 105831" d="M719.386,342.169l-2.056,26.966,1.827-.42Z" transform="translate(-679.328 -285.942)" fill="#ef798a" style="mix-blend-mode: multiply;isolation: isolate"/>
          <path id="Trazado_105832" data-name="Trazado 105832" d="M731.178,339.86l.4,26.411,1.246-.289Z" transform="translate(-685.285 -284.949)" fill="#ef798a" style="mix-blend-mode: multiply;isolation: isolate"/>
          <path id="Trazado_105833" data-name="Trazado 105833" d="M737.621,338.408l10.97,24.029-1.249.274Z" transform="translate(-688.056 -284.324)" fill="#ef798a" style="mix-blend-mode: multiply;isolation: isolate"/>
          <path id="Trazado_105834" data-name="Trazado 105834" d="M746.129,336.489l13.429,23.474-1.83.4Z" transform="translate(-691.716 -283.499)" fill="#ef798a" style="mix-blend-mode: multiply;isolation: isolate"/>
          <path id="Trazado_105835" data-name="Trazado 105835" d="M650.643,271.438l20.849,92.469L742.1,347.985,668.08,368.793Z" transform="translate(-650.643 -255.517)" fill="#f6e9ee" style="mix-blend-mode: multiply;isolation: isolate"/>
        </g>
        <g id="Grupo_56732" data-name="Grupo 56732" transform="translate(16.721 56.269)">
          <rect id="Rectángulo_5686" data-name="Rectángulo 5686" width="55.128" height="66.429" transform="translate(15.516 0) rotate(13.507)" fill="#fff"/>
          <rect id="Rectángulo_5687" data-name="Rectángulo 5687" width="9.793" height="9.793" transform="matrix(0.972, 0.234, -0.234, 0.972, 18.521, 5.901)" fill="#ef798a"/>
          <rect id="Rectángulo_5688" data-name="Rectángulo 5688" width="9.793" height="9.793" transform="translate(30.047 8.67) rotate(13.507)" fill="#f7a9a8"/>
          <rect id="Rectángulo_5689" data-name="Rectángulo 5689" width="9.793" height="9.793" transform="translate(41.573 11.439) rotate(13.507)" fill="#7d82b8"/>
          <rect id="Rectángulo_5690" data-name="Rectángulo 5690" width="9.793" height="9.793" transform="translate(53.1 14.207) rotate(13.507)" fill="#613f75"/>
          <rect id="Rectángulo_5691" data-name="Rectángulo 5691" width="9.793" height="9.793" transform="translate(15.722 17.553) rotate(13.507)" fill="#f7a9a8"/>
          <rect id="Rectángulo_5692" data-name="Rectángulo 5692" width="9.793" height="9.793" transform="matrix(0.972, 0.234, -0.234, 0.972, 27.248, 20.321)" fill="#f7a9a8"/>
          <rect id="Rectángulo_5693" data-name="Rectángulo 5693" width="9.793" height="9.793" transform="translate(38.774 23.09) rotate(13.507)" fill="#7d82b8"/>
          <rect id="Rectángulo_5694" data-name="Rectángulo 5694" width="9.793" height="9.793" transform="translate(50.301 25.859) rotate(13.507)" fill="#613f75"/>
          <rect id="Rectángulo_5695" data-name="Rectángulo 5695" width="9.793" height="9.793" transform="translate(12.923 29.204) rotate(13.507)" fill="#7d82b8"/>
          <rect id="Rectángulo_5696" data-name="Rectángulo 5696" width="9.793" height="9.793" transform="translate(24.449 31.973) rotate(13.507)" fill="#f7a9a8"/>
          <rect id="Rectángulo_5697" data-name="Rectángulo 5697" width="9.793" height="9.793" transform="matrix(0.972, 0.234, -0.234, 0.972, 35.976, 34.742)" fill="#7d82b8"/>
          <rect id="Rectángulo_5698" data-name="Rectángulo 5698" width="9.793" height="9.793" transform="translate(47.502 37.51) rotate(13.507)" fill="#613f75"/>
          <rect id="Rectángulo_5699" data-name="Rectángulo 5699" width="9.793" height="9.793" transform="translate(10.124 40.856) rotate(13.507)" fill="#613f75"/>
          <rect id="Rectángulo_5700" data-name="Rectángulo 5700" width="9.793" height="9.793" transform="translate(21.65 43.624) rotate(13.507)" fill="#f7a9a8"/>
          <rect id="Rectángulo_5701" data-name="Rectángulo 5701" width="9.793" height="9.793" transform="matrix(0.972, 0.234, -0.234, 0.972, 33.177, 46.393)" fill="#7d82b8"/>
          <rect id="Rectángulo_5702" data-name="Rectángulo 5702" width="9.793" height="9.793" transform="translate(44.703 49.162) rotate(13.507)" fill="#613f75"/>
          <rect id="Rectángulo_5703" data-name="Rectángulo 5703" width="9.793" height="9.793" transform="translate(7.325 52.507) rotate(13.507)" fill="#e5c3d1"/>
          <rect id="Rectángulo_5704" data-name="Rectángulo 5704" width="9.793" height="9.793" transform="translate(18.852 55.276) rotate(13.507)" fill="#f7a9a8"/>
          <rect id="Rectángulo_5705" data-name="Rectángulo 5705" width="9.793" height="9.793" transform="translate(30.378 58.045) rotate(13.507)" fill="#7d82b8"/>
          <rect id="Rectángulo_5706" data-name="Rectángulo 5706" width="9.793" height="9.793" transform="matrix(0.972, 0.234, -0.234, 0.972, 41.904, 60.814)" fill="#613f75"/>
        </g>
        <g id="Grupo_56735" data-name="Grupo 56735" transform="translate(123.487 28.997)">
          <path id="Trazado_105836" data-name="Trazado 105836" d="M750.908,526.618l75.229,15.459-7.3-36.524-35.025-9.494Z" transform="translate(-747.359 -372.714)" fill="#c6556c"/>
          <rect id="Rectángulo_5707" data-name="Rectángulo 5707" width="5.838" height="61.678" transform="translate(54.619 155.288)" fill="#613f75"/>
          <g id="Grupo_56734" data-name="Grupo 56734" transform="translate(18.128)">
            <path id="Trazado_105837" data-name="Trazado 105837" d="M787.716,338.3a22.242,22.242,0,0,0,.617-7.5,27.845,27.845,0,0,0-3.466-12.079,19.888,19.888,0,0,0-8.134-7.856l-.24.011v40.553l.078.137a38.447,38.447,0,0,0,3.921-2.854A21.59,21.59,0,0,0,787.716,338.3Z" transform="translate(-776.493 -293.055)" fill="#e5c3d1"/>
            <path id="Trazado_105838" data-name="Trazado 105838" d="M826.339,308.974c4.733,8.026,7.221,17.171,9.034,26.311a120.6,120.6,0,0,0,5.493-43.905,11.331,11.331,0,0,1-1.33-.8c-3.33-2.351-3.33-10.971-3.33-10.971H814.852s-.2,9.012-4.9,13.125c-.1.084-.2.164-.3.244C816.646,296.329,822.369,302.242,826.339,308.974Z" transform="translate(-790.756 -279.607)" fill="#e5c3d1"/>
            <g id="Grupo_56733" data-name="Grupo 56733" transform="translate(0.078 11.773)">
              <path id="Trazado_105839" data-name="Trazado 105839" d="M815.876,375.7a71.968,71.968,0,0,0,17.462-1.125,38.58,38.58,0,0,0,8.079-2.649l3.9-25.518s7.052-9.4,6.465-13.909-18.611-29.582-18.611-29.582a17.86,17.86,0,0,1-3.316-.55,101.3,101.3,0,0,1-10.136,50.894c-1.377-10.191-3.455-20.432-8.038-29.638-4.045-8.125-10.245-15.43-18.206-19.671-5.435,2.585-15.068,3.181-16.681,3.264a19.887,19.887,0,0,1,8.134,7.856,27.844,27.844,0,0,1,3.466,12.079,22.247,22.247,0,0,1-.617,7.5,21.589,21.589,0,0,1-7.224,10.415,38.439,38.439,0,0,1-3.921,2.854l11.5,20.182a34.348,34.348,0,0,0,12.245,5.7A71.7,71.7,0,0,0,815.876,375.7Z" transform="translate(-776.63 -301.168)" fill="#ef798a"/>
              <path id="Trazado_105840" data-name="Trazado 105840" d="M824.393,322.717c4.583,9.205,6.661,19.447,8.038,29.638a101.3,101.3,0,0,0,10.136-50.894,15.469,15.469,0,0,1-3.191-1.194,120.6,120.6,0,0,1-5.493,43.905c-1.814-9.14-4.3-18.285-9.034-26.311-3.97-6.732-9.693-12.645-16.688-16a10.66,10.66,0,0,1-1.974,1.182C814.147,307.286,820.347,314.591,824.393,322.717Z" transform="translate(-789.344 -300.267)" fill="#eb3059"/>
              <path id="Trazado_105841" data-name="Trazado 105841" d="M842.018,424.189a89.057,89.057,0,0,1-32.965-.773,34.347,34.347,0,0,1-12.245-5.7l3.381,5.936c6.3,4.219,14.062,6.169,21.683,6.885a55.677,55.677,0,0,0,18.8-1.1,37.831,37.831,0,0,0,8.731-3.367l.691-4.523A38.578,38.578,0,0,1,842.018,424.189Z" transform="translate(-785.31 -350.787)" fill="#eb3059"/>
              <path id="Trazado_105842" data-name="Trazado 105842" d="M824.425,435.016c-7.621-.717-15.387-2.666-21.683-6.885l1.207,2.118,27.326,13.068,20.616-12.333.067-.439a37.827,37.827,0,0,1-8.731,3.367A55.677,55.677,0,0,1,824.425,435.016Z" transform="translate(-787.862 -355.267)" fill="#ef798a"/>
            </g>
          </g>
          <path id="Trazado_105843" data-name="Trazado 105843" d="M778.974,431.847c1.206.581,12.625,6.023,25.371,5.559a67.53,67.53,0,0,0,22.572-4.824l21.775,81.634s-9.035,5.285-25.233.24a70.541,70.541,0,0,1-26.814-15.907l-7.834-8.4-7.112-1.186s-6.191,3.774-17.982,6.133a136.068,136.068,0,0,1-19.035,2.655Z" transform="translate(-744.681 -345.093)" fill="#ef798a"/>
          <path id="Trazado_105844" data-name="Trazado 105844" d="M882.924,454.146l18.592,71.689-3.068.328Z" transform="translate(-804.146 -354.685)" fill="#ef798a" style="mix-blend-mode: multiply;isolation: isolate"/>
          <path id="Trazado_105845" data-name="Trazado 105845" d="M878.2,526.155l-6.251-67.112,2.234,65.7Z" transform="translate(-799.427 -356.792)" fill="#ef798a" style="mix-blend-mode: multiply;isolation: isolate"/>
          <path id="Trazado_105846" data-name="Trazado 105846" d="M844.362,461.068l-8.494,50.051,3.836,3.4Z" transform="translate(-783.905 -357.663)" fill="#ef798a" style="mix-blend-mode: multiply;isolation: isolate"/>
          <path id="Trazado_105847" data-name="Trazado 105847" d="M818.5,454.795c-.191,1.125-15.757,45.955-15.757,45.955l3.931-1.915Z" transform="translate(-769.656 -354.964)" fill="#ef798a" style="mix-blend-mode: multiply;isolation: isolate"/>
          <path id="Trazado_105848" data-name="Trazado 105848" d="M796.4,446.409l-26.711,55.844,4.782-.892Z" transform="translate(-755.44 -351.357)" fill="#ef798a" style="mix-blend-mode: multiply;isolation: isolate"/>
        </g>
        <path id="Trazado_105849" data-name="Trazado 105849" d="M840.133,279.607s-2.219,5.386-10,5.336a14.045,14.045,0,0,1-11.349-5.336Z" transform="translate(-653.068 -250.61)" fill="#d2aad1"/>
        <g id="Grupo_56741" data-name="Grupo 56741" transform="translate(23.252 67.567)">
          <g id="Grupo_56737" data-name="Grupo 56737" transform="translate(58.028 40.163)">
            <path id="Trazado_105850" data-name="Trazado 105850" d="M670.616,469.528l31.961,19.447L727.6,448.728s-3.721-11.161,0-16.742,11.668-9.639,12.683-9.3.846,4.059,0,5.581a1.941,1.941,0,0,0,.7,2.537s8.247-5.256,9.637-3.952,1.391,5.476.521,6.172-2.086,1.739-2.086,1.739,3.391,1.739,3.3,5.3-.435,9.3-2.608,10.171-9.91.608-9.91.608l-25.716,55.471-30.635-1.259Z" transform="translate(-670.616 -419.877)" fill="#f7a9a8"/>
            <path id="Trazado_105851" data-name="Trazado 105851" d="M787.135,433.137a5.355,5.355,0,0,1-2.312,2.519.714.714,0,0,0-.364.317.7.7,0,0,0,.064.487,9.069,9.069,0,0,1-4.5,11.4" transform="translate(-717.68 -424.381)" fill="none" stroke="#613f75" stroke-miterlimit="10" stroke-width="0.958"/>
            <path id="Trazado_105852" data-name="Trazado 105852" d="M793.235,436.8a2.953,2.953,0,0,0,.282,4.99,4.2,4.2,0,0,0,1.694.46,13.147,13.147,0,0,0,6.27-1.48" transform="translate(-722.827 -425.955)" fill="none" stroke="#613f75" stroke-miterlimit="10" stroke-width="0.958"/>
            <path id="Trazado_105853" data-name="Trazado 105853" d="M791.71,445.608a5,5,0,0,0-3.318,3,11.5,11.5,0,0,0-.741,4.551,14.218,14.218,0,0,0,.456,4.049,6.578,6.578,0,0,0,2.169,3.387" transform="translate(-720.959 -429.745)" fill="none" stroke="#613f75" stroke-miterlimit="10" stroke-width="0.958"/>
            <path id="Trazado_105854" data-name="Trazado 105854" d="M787.8,452.268a127.5,127.5,0,0,1,14.822-3.327" transform="translate(-721.023 -431.179)" fill="none" stroke="#613f75" stroke-miterlimit="10" stroke-width="0.958"/>
            <path id="Trazado_105855" data-name="Trazado 105855" d="M787.781,462.342a65.846,65.846,0,0,0,14.535-1.274" transform="translate(-721.015 -436.395)" fill="none" stroke="#613f75" stroke-miterlimit="10" stroke-width="0.958"/>
            <g id="Grupo_56736" data-name="Grupo 56736" transform="translate(68.188)">
              <path id="Trazado_105856" data-name="Trazado 105856" d="M793.453,433.436a1.589,1.589,0,1,1-1.589-1.589A1.589,1.589,0,0,1,793.453,433.436Z" transform="translate(-790.275 -423.826)" fill="#613f75"/>
              <line id="Línea_185" data-name="Línea 185" x1="13.444" y2="9.61" transform="translate(1.589)" fill="none" stroke="#5c3b75" stroke-miterlimit="10" stroke-width="0.958"/>
            </g>
          </g>
          <path id="Trazado_105857" data-name="Trazado 105857" d="M625.042,435.356a39.079,39.079,0,0,0,21.815,8.408,33.119,33.119,0,0,1-2.341-14.559c3.046-.043,6.091.392,9.132.226s6.207-1.03,8.322-3.222a16.63,16.63,0,0,0,2.917-4.9c.5-1.123.907-2.235,1.41-3.357a16.476,16.476,0,0,1-5.411-9.214,15.638,15.638,0,0,0,6.422,5.574l.369-6.032,5.3-2.524-6.359-13.992s1.85-5.32-1.388-13.529-31.221-5.319-31.221-5.319c-4.955,1.869-8.732,6.375-10.59,11.334s-2.087,10.385-1.74,15.669a75.72,75.72,0,0,0,1.681,11.639c.641,2.848,1.447,5.665,1.843,8.558A60.281,60.281,0,0,1,625.042,435.356Z" transform="translate(-591.478 -358.101)" fill="#f7a9a8"/>
          <path id="Trazado_105858" data-name="Trazado 105858" d="M689.613,411.955c-.2,1.352-.936,2.363-1.636,2.258s-1.1-1.287-.9-2.64.936-2.363,1.636-2.258S689.817,410.6,689.613,411.955Z" transform="translate(-619.647 -373.968)" fill="#613f75"/>
          <path id="Trazado_105859" data-name="Trazado 105859" d="M680.741,403.626a6.653,6.653,0,0,1,7.109-4.929" transform="translate(-616.943 -369.389)" fill="none" stroke="#604075" stroke-miterlimit="10" stroke-width="2.874"/>
          <path id="Trazado_105860" data-name="Trazado 105860" d="M642.109,413.073a2.612,2.612,0,0,1,3.131-1.23,3.993,3.993,0,0,1,2.411,2.6,8.884,8.884,0,0,1,.256,3.648,10.448,10.448,0,0,0-1.641,1,2.24,2.24,0,0,0-.589.582,1.7,1.7,0,0,0,.256,1.9,4.989,4.989,0,0,0,1.656,1.169" transform="translate(-600.325 -375.004)" fill="none" stroke="#513570" stroke-miterlimit="10" stroke-width="0.958"/>
          <path id="Trazado_105861" data-name="Trazado 105861" d="M687.621,428.679c0,1.121-1.428,2.03-3.189,2.03s-3.19-.909-3.19-2.03,1.428-2.03,3.19-2.03S687.621,427.558,687.621,428.679Z" transform="translate(-617.158 -381.427)" fill="#f7a9a8" opacity="0.5" style="mix-blend-mode: multiply;isolation: isolate"/>
          <g id="Grupo_56738" data-name="Grupo 56738" transform="translate(19.343 74.736)">
            <path id="Trazado_105862" data-name="Trazado 105862" d="M612.682,527.547a92.874,92.874,0,0,1-1.813-25.507c-3.839,8.833-8.019,20.01-8.136,27.032-.217,13.055,9.078,49.176,9.078,49.176l22.606,18.744,10.537,1.85c-7.872-10.429-13.945-22.179-19.351-34.106C620.173,552.758,615.32,540.43,612.682,527.547Z" transform="translate(-602.729 -488.593)" fill="#7ac4e2"/>
            <path id="Trazado_105863" data-name="Trazado 105863" d="M664.68,550l3-13.51s5.595-15.83,3.957-21.152-13.1-11.6-19.651-18.013a40.43,40.43,0,0,1-9.224-14.988,26.827,26.827,0,0,1-8.832-.34,64.718,64.718,0,0,1-10.747-3.551s-3.047,5.859-6.345,13.447a92.873,92.873,0,0,0,1.813,25.506c2.638,12.884,7.491,25.211,12.921,37.19,5.407,11.927,11.479,23.677,19.352,34.106l25.216,4.427Z" transform="translate(-608.701 -478.442)" fill="#39a4ce"/>
          </g>
          <path id="Trazado_105864" data-name="Trazado 105864" d="M633.684,508.381c6.957-7.188,25.23,9.144,32.342,19.3s23.706,31.326,23.706,31.326l36.914-26.754s-.169-4.911,1.355-7.451a12.106,12.106,0,0,1,3.894-3.895l7.112,1.186c.171.149.11-.077.239-.264,3.249-4.676,4.222-10.767,8.02-15.01.384-.429.945-.87,1.476-.647.474.2.6.8.611,1.317a13.242,13.242,0,0,1-.7,3.908,76.618,76.618,0,0,1-5.409,13.527,73.378,73.378,0,0,0,7.572-11.525,16.715,16.715,0,0,1,3.086-4.737.942.942,0,0,1,.825-.344.822.822,0,0,1,.432.366c.708,1.054.471,2.461.15,3.69a42.647,42.647,0,0,1-7.286,15,58.609,58.609,0,0,0,8.727-11.726,9.053,9.053,0,0,1,2.479-3.273c.378-.26.915-.448,1.269-.157a1.106,1.106,0,0,1,.314.776,9.338,9.338,0,0,1-1.037,4.5A50.1,50.1,0,0,1,753.61,528a3.35,3.35,0,0,1-1.812,1.439c3.671-.777,5.272-5.186,8.843-6.338a2.75,2.75,0,0,1-.192,2.419,25.21,25.21,0,0,1-25.9,15.112s-11.816,15.183-19.77,22.729-25.29,19.069-25.29,19.069-34.235-27.24-45.174-39.77C633.095,529.807,622.443,519.994,633.684,508.381Z" transform="translate(-594.645 -415.61)" fill="#f7a9a8"/>
          <path id="Trazado_105865" data-name="Trazado 105865" d="M723.369,605.789a46.029,46.029,0,0,1,7.729-7.863" transform="translate(-635.279 -455.102)" fill="none" stroke="#613f75" stroke-miterlimit="10" stroke-width="0.958"/>
          <path id="Trazado_105866" data-name="Trazado 105866" d="M647.324,422.746a4.988,4.988,0,0,1-1.656-1.169,1.7,1.7,0,0,1-.256-1.9A2.238,2.238,0,0,1,646,419.1a10.452,10.452,0,0,1,1.641-1,8.886,8.886,0,0,0-.256-3.648,3.993,3.993,0,0,0-2.411-2.6,2.612,2.612,0,0,0-3.131,1.23,9.747,9.747,0,0,0,.771,7.153C644.559,424.056,647.324,422.746,647.324,422.746Z" transform="translate(-600.06 -375.004)" fill="#f7a9a8" opacity="0.5" style="mix-blend-mode: multiply;isolation: isolate"/>
          <g id="Grupo_56739" data-name="Grupo 56739" transform="translate(46.531 66.021)" opacity="0.5" style="mix-blend-mode: multiply;isolation: isolate">
            <path id="Trazado_105867" data-name="Trazado 105867" d="M650.439,463.148a40.742,40.742,0,0,0,6.443,7.356c0-.758.013-1.516.065-2.273,3.046-.043,6.091.392,9.132.226s6.207-1.03,8.322-3.222a9.033,9.033,0,0,0,.594-.692c-1.992,1.441-4.662,1.846-7.168,1.929A40.34,40.34,0,0,1,650.439,463.148Z" transform="translate(-650.439 -463.148)" fill="#f7a9a8"/>
          </g>
          <g id="Grupo_56740" data-name="Grupo 56740">
            <path id="Trazado_105868" data-name="Trazado 105868" d="M612.326,410.071a25.389,25.389,0,0,1-4.923-2.632,3.848,3.848,0,0,1-1.209-1.025,3.766,3.766,0,0,1-.473-1.352q-.591-2.828-1.011-5.688a32.017,32.017,0,0,0-3.243,6.358q.579-11.715,1.158-23.432-4.022,10.644-8.043,21.288c-.614,1.624-1.4,3.428-3.031,4.027a43.16,43.16,0,0,1,.791-9.269,249.119,249.119,0,0,1,6.882-30.019c-5.8,12.034-12.469,23.623-19.133,35.2,3.538-9.573,5.262-19.713,8.215-29.482a190.946,190.946,0,0,1,7.839-20.668,17.331,17.331,0,0,0-2.774,2.469c-2.645,2.8-24.586,55.086-24.586,55.086l33.175,10.285,1.932-8.791.686,9.6,1.393.432.707-6.563.867,7.051L619.98,426.8l-.939-16.24A12.8,12.8,0,0,1,612.326,410.071Z" transform="translate(-568.785 -349.909)" fill="#523669"/>
            <path id="Trazado_105869" data-name="Trazado 105869" d="M654.007,367.354a19.729,19.729,0,0,1,1.066,8.459,11.606,11.606,0,0,0,1.975-5.38,14.215,14.215,0,0,0-.469-5.057,18.5,18.5,0,0,0-6.887-10.091,18.1,18.1,0,0,0-3.187-1.862c-3.169-.045-5.851.116-5.851.116s-10.893-6.691-21.941-6.224c-7.669.324-11.513,1.7-14.032,3.445a190.918,190.918,0,0,0-7.839,20.668c-2.953,9.77-4.677,19.909-8.215,29.482,6.664-11.576,13.335-23.166,19.133-35.2a249.1,249.1,0,0,0-6.882,30.019,43.156,43.156,0,0,0-.791,9.269c1.63-.6,2.418-2.4,3.031-4.027q4.021-10.645,8.043-21.288Q610.581,391.4,610,403.114a32.025,32.025,0,0,1,3.243-6.358q.421,2.858,1.011,5.688a3.767,3.767,0,0,0,.472,1.352,3.848,3.848,0,0,0,1.209,1.025,25.382,25.382,0,0,0,4.923,2.632,12.8,12.8,0,0,0,6.715.492l-.616-10.663s-7.789,1.944-9.752-5.337,2.372-12.271,6.626-10.634,3.763,8.344,3.763,8.344a16.715,16.715,0,0,0,7.362-9.9,61.515,61.515,0,0,0,1.492-14.547s14.18-.639,15.25,3.972a36.139,36.139,0,0,1,.732,6.214A11.023,11.023,0,0,0,654.007,367.354Z" transform="translate(-577.319 -347.291)" fill="#613f75"/>
            <path id="Trazado_105870" data-name="Trazado 105870" d="M699.9,359.724c-1.441-1.271-5.923-1.618-9.71-1.672a18.091,18.091,0,0,1,3.187,1.862,18.5,18.5,0,0,1,6.887,10.091,14.218,14.218,0,0,1,.47,5.057,11.608,11.608,0,0,1-1.975,5.38,19.73,19.73,0,0,0-1.066-8.459,11.022,11.022,0,0,1-1.574,8.041c.134,3.024.023,5.558.023,5.558s8.581-6.1,9.2-10.764S702.548,362.058,699.9,359.724Z" transform="translate(-621.009 -351.92)" fill="#523669"/>
          </g>
        </g>
        <path id="Trazado_105871" data-name="Trazado 105871" d="M656.654,433.005a2.225,2.225,0,1,1-2.225-2.225A2.226,2.226,0,0,1,656.654,433.005Z" transform="translate(-581.415 -315.637)" fill="#fff"/>
        <path id="Trazado_105872" data-name="Trazado 105872" d="M652.189,438.591a5.191,5.191,0,1,0,5.191,5.191A5.191,5.191,0,0,0,652.189,438.591Zm0,9.234a4.043,4.043,0,1,1,4.043-4.043A4.042,4.042,0,0,1,652.189,447.825Z" transform="translate(-579.176 -318.997)" fill="#fff"/>
      </g>
    </g>
    <ellipse id="Elipse_4135" data-name="Elipse 4135" cx="125.219" cy="122.626" rx="125.219" ry="122.626" transform="matrix(0.111, -0.994, 0.994, 0.111, 501.543, 449.037)" fill="none" stroke="#ffa06d" stroke-miterlimit="10" stroke-width="0.934" stroke-dasharray="2.803"/>
    <ellipse id="Elipse_4136" data-name="Elipse 4136" cx="124.611" cy="128.041" rx="124.611" ry="128.041" transform="translate(508.473 456.654) rotate(-83.605)" fill="none" stroke="#b16040" stroke-miterlimit="10" stroke-width="0.952" stroke-dasharray="2.857" opacity="0.4"/>
  </g>
</svg>
