<svg xmlns="http://www.w3.org/2000/svg" xmlns:xlink="http://www.w3.org/1999/xlink" width="297.408" height="721.704" viewBox="0 0 297.408 721.704">
  <defs>
    <clipPath id="clip-path">
      <path id="Trazado_113926" data-name="Trazado 113926" d="M93.9,0A93.9,93.9,0,1,1,0,93.9,93.9,93.9,0,0,1,93.9,0Z" transform="translate(0 -0.001)" fill="#1448d3"/>
    </clipPath>
    <clipPath id="clip-path-2">
      <rect id="Rectángulo_344520" data-name="Rectángulo 344520" width="245.05" height="284.774" fill="none"/>
    </clipPath>
    <clipPath id="clip-path-4">
      <rect id="Rectángulo_344515" data-name="Rectángulo 344515" width="37.661" height="59.636" transform="translate(69.57 140.027)" fill="none"/>
    </clipPath>
    <clipPath id="clip-path-5">
      <rect id="Rectángulo_344516" data-name="Rectángulo 344516" width="31.433" height="60.981" transform="translate(90.579 144.202)" fill="none"/>
    </clipPath>
    <clipPath id="clip-path-6">
      <rect id="Rectángulo_344517" data-name="Rectángulo 344517" width="7.818" height="67.669" transform="translate(123.495 146.83)" fill="none"/>
    </clipPath>
    <clipPath id="clip-path-7">
      <rect id="Rectángulo_344518" data-name="Rectángulo 344518" width="4.626" height="69.428" transform="translate(140.534 150.299)" fill="none"/>
    </clipPath>
    <clipPath id="clip-path-8">
      <rect id="Rectángulo_355788" data-name="Rectángulo 355788" width="297.408" height="428" fill="none"/>
    </clipPath>
    <clipPath id="clip-path-10">
      <rect id="Rectángulo_355783" data-name="Rectángulo 355783" width="200.556" height="11.26" fill="none"/>
    </clipPath>
  </defs>
  <g id="Grupo_1043290" data-name="Grupo 1043290" transform="translate(-180 -1652.296)">
    <path id="Rectángulo_33771" data-name="Rectángulo 33771" d="M136.717,0h0A136.717,136.717,0,0,1,273.433,136.717V671.573a0,0,0,0,1,0,0H0a0,0,0,0,1,0,0V136.717A136.717,136.717,0,0,1,136.717,0Z" transform="translate(180 1702.427)" fill="#0ce6ea"/>
    <g id="Grupo_80252" data-name="Grupo 80252" transform="translate(285 1652.296)">
      <g id="Grupo_80252-2" data-name="Grupo 80252" transform="translate(0)" clip-path="url(#clip-path)">
        <path id="Trazado_113845" data-name="Trazado 113845" d="M0,2.471A2.472,2.472,0,1,1,2.471,4.941,2.47,2.47,0,0,1,0,2.471" transform="translate(182.852 -0.002)" fill="#1448d3"/>
        <path id="Trazado_113846" data-name="Trazado 113846" d="M10.076,2.471a2.471,2.471,0,1,1,2.471,2.471,2.47,2.47,0,0,1-2.471-2.471" transform="translate(149.919 -0.002)" fill="#1448d3"/>
        <path id="Trazado_113847" data-name="Trazado 113847" d="M20.151,2.471a2.471,2.471,0,1,1,2.471,2.471,2.47,2.47,0,0,1-2.471-2.471" transform="translate(116.988 -0.002)" fill="#1448d3"/>
        <path id="Trazado_113848" data-name="Trazado 113848" d="M30.225,2.471A2.472,2.472,0,1,1,32.7,4.941a2.47,2.47,0,0,1-2.471-2.471" transform="translate(84.057 -0.002)" fill="#1448d3"/>
        <path id="Trazado_113849" data-name="Trazado 113849" d="M40.3,2.471a2.471,2.471,0,1,1,2.471,2.471A2.47,2.47,0,0,1,40.3,2.471" transform="translate(51.125 -0.002)" fill="#1448d3"/>
        <path id="Trazado_113850" data-name="Trazado 113850" d="M50.376,2.471a2.471,2.471,0,1,1,2.471,2.471,2.47,2.47,0,0,1-2.471-2.471" transform="translate(18.193 -0.002)" fill="#1448d3"/>
        <path id="Trazado_113851" data-name="Trazado 113851" d="M60.45,2.471a2.472,2.472,0,1,1,2.471,2.471A2.47,2.47,0,0,1,60.45,2.471" transform="translate(-14.737 -0.002)" fill="#1448d3"/>
        <path id="Trazado_113852" data-name="Trazado 113852" d="M70.526,2.471A2.471,2.471,0,1,1,73,4.941a2.47,2.47,0,0,1-2.471-2.471" transform="translate(-47.67 -0.002)" fill="#1448d3"/>
        <path id="Trazado_113853" data-name="Trazado 113853" d="M80.6,2.471a2.472,2.472,0,1,1,2.471,2.471A2.47,2.47,0,0,1,80.6,2.471" transform="translate(-80.6 -0.002)" fill="#1448d3"/>
        <path id="Trazado_113854" data-name="Trazado 113854" d="M0,12.546a2.472,2.472,0,1,1,2.471,2.471A2.47,2.47,0,0,1,0,12.546" transform="translate(182.852 12.779)" fill="#1448d3"/>
        <path id="Trazado_113855" data-name="Trazado 113855" d="M10.076,12.546a2.471,2.471,0,1,1,2.471,2.471,2.47,2.47,0,0,1-2.471-2.471" transform="translate(149.919 12.779)" fill="#1448d3"/>
        <path id="Trazado_113856" data-name="Trazado 113856" d="M20.151,12.546a2.471,2.471,0,1,1,2.471,2.471,2.47,2.47,0,0,1-2.471-2.471" transform="translate(116.988 12.779)" fill="#1448d3"/>
        <path id="Trazado_113857" data-name="Trazado 113857" d="M30.225,12.546A2.472,2.472,0,1,1,32.7,15.016a2.47,2.47,0,0,1-2.471-2.471" transform="translate(84.057 12.779)" fill="#1448d3"/>
        <path id="Trazado_113858" data-name="Trazado 113858" d="M40.3,12.546a2.471,2.471,0,1,1,2.471,2.471A2.47,2.47,0,0,1,40.3,12.546" transform="translate(51.125 12.779)" fill="#1448d3"/>
        <path id="Trazado_113859" data-name="Trazado 113859" d="M50.376,12.546a2.471,2.471,0,1,1,2.471,2.471,2.47,2.47,0,0,1-2.471-2.471" transform="translate(18.193 12.779)" fill="#1448d3"/>
        <path id="Trazado_113860" data-name="Trazado 113860" d="M60.45,12.546a2.472,2.472,0,1,1,2.471,2.471,2.47,2.47,0,0,1-2.471-2.471" transform="translate(-14.737 12.779)" fill="#1448d3"/>
        <path id="Trazado_113861" data-name="Trazado 113861" d="M70.526,12.546A2.471,2.471,0,1,1,73,15.016a2.47,2.47,0,0,1-2.471-2.471" transform="translate(-47.67 12.779)" fill="#1448d3"/>
        <path id="Trazado_113862" data-name="Trazado 113862" d="M80.6,12.546a2.472,2.472,0,1,1,2.471,2.471A2.47,2.47,0,0,1,80.6,12.546" transform="translate(-80.6 12.779)" fill="#1448d3"/>
        <path id="Trazado_113863" data-name="Trazado 113863" d="M0,22.621a2.472,2.472,0,1,1,2.471,2.471A2.47,2.47,0,0,1,0,22.621" transform="translate(182.852 25.561)" fill="#1448d3"/>
        <path id="Trazado_113864" data-name="Trazado 113864" d="M10.076,22.621a2.471,2.471,0,1,1,2.471,2.471,2.47,2.47,0,0,1-2.471-2.471" transform="translate(149.919 25.561)" fill="#1448d3"/>
        <path id="Trazado_113865" data-name="Trazado 113865" d="M20.151,22.621a2.471,2.471,0,1,1,2.471,2.471,2.47,2.47,0,0,1-2.471-2.471" transform="translate(116.988 25.561)" fill="#1448d3"/>
        <path id="Trazado_113866" data-name="Trazado 113866" d="M30.225,22.621A2.472,2.472,0,1,1,32.7,25.091a2.47,2.47,0,0,1-2.471-2.471" transform="translate(84.057 25.561)" fill="#1448d3"/>
        <path id="Trazado_113867" data-name="Trazado 113867" d="M40.3,22.621a2.471,2.471,0,1,1,2.471,2.471A2.47,2.47,0,0,1,40.3,22.621" transform="translate(51.125 25.561)" fill="#1448d3"/>
        <path id="Trazado_113868" data-name="Trazado 113868" d="M50.376,22.621a2.471,2.471,0,1,1,2.471,2.471,2.47,2.47,0,0,1-2.471-2.471" transform="translate(18.193 25.561)" fill="#1448d3"/>
        <path id="Trazado_113869" data-name="Trazado 113869" d="M60.45,22.621a2.472,2.472,0,1,1,2.471,2.471,2.47,2.47,0,0,1-2.471-2.471" transform="translate(-14.737 25.561)" fill="#1448d3"/>
        <path id="Trazado_113870" data-name="Trazado 113870" d="M70.526,22.621A2.471,2.471,0,1,1,73,25.091a2.47,2.47,0,0,1-2.471-2.471" transform="translate(-47.67 25.561)" fill="#1448d3"/>
        <path id="Trazado_113871" data-name="Trazado 113871" d="M80.6,22.621a2.472,2.472,0,1,1,2.471,2.471A2.47,2.47,0,0,1,80.6,22.621" transform="translate(-80.6 25.561)" fill="#1448d3"/>
        <path id="Trazado_113872" data-name="Trazado 113872" d="M0,32.7a2.472,2.472,0,1,1,2.471,2.471A2.47,2.47,0,0,1,0,32.7" transform="translate(182.852 38.342)" fill="#1448d3"/>
        <path id="Trazado_113873" data-name="Trazado 113873" d="M10.076,32.7a2.471,2.471,0,1,1,2.471,2.471A2.47,2.47,0,0,1,10.076,32.7" transform="translate(149.919 38.342)" fill="#1448d3"/>
        <path id="Trazado_113874" data-name="Trazado 113874" d="M20.151,32.7a2.471,2.471,0,1,1,2.471,2.471A2.47,2.47,0,0,1,20.151,32.7" transform="translate(116.988 38.342)" fill="#1448d3"/>
        <path id="Trazado_113875" data-name="Trazado 113875" d="M30.225,32.7A2.472,2.472,0,1,1,32.7,35.166,2.47,2.47,0,0,1,30.225,32.7" transform="translate(84.057 38.342)" fill="#1448d3"/>
        <path id="Trazado_113876" data-name="Trazado 113876" d="M40.3,32.7a2.471,2.471,0,1,1,2.471,2.471A2.47,2.47,0,0,1,40.3,32.7" transform="translate(51.125 38.342)" fill="#1448d3"/>
        <path id="Trazado_113877" data-name="Trazado 113877" d="M50.376,32.7a2.471,2.471,0,1,1,2.471,2.471A2.47,2.47,0,0,1,50.376,32.7" transform="translate(18.193 38.342)" fill="#1448d3"/>
        <path id="Trazado_113878" data-name="Trazado 113878" d="M60.45,32.7a2.472,2.472,0,1,1,2.471,2.471A2.47,2.47,0,0,1,60.45,32.7" transform="translate(-14.737 38.342)" fill="#1448d3"/>
        <path id="Trazado_113879" data-name="Trazado 113879" d="M70.526,32.7A2.471,2.471,0,1,1,73,35.166,2.47,2.47,0,0,1,70.526,32.7" transform="translate(-47.67 38.342)" fill="#1448d3"/>
        <path id="Trazado_113880" data-name="Trazado 113880" d="M80.6,32.7a2.472,2.472,0,1,1,2.471,2.471A2.47,2.47,0,0,1,80.6,32.7" transform="translate(-80.6 38.342)" fill="#1448d3"/>
        <path id="Trazado_113881" data-name="Trazado 113881" d="M0,42.771a2.472,2.472,0,1,1,2.471,2.471A2.47,2.47,0,0,1,0,42.771" transform="translate(182.852 51.124)" fill="#1448d3"/>
        <path id="Trazado_113882" data-name="Trazado 113882" d="M10.076,42.771a2.471,2.471,0,1,1,2.471,2.471,2.47,2.47,0,0,1-2.471-2.471" transform="translate(149.919 51.124)" fill="#1448d3"/>
        <path id="Trazado_113883" data-name="Trazado 113883" d="M20.151,42.771a2.471,2.471,0,1,1,2.471,2.471,2.47,2.47,0,0,1-2.471-2.471" transform="translate(116.988 51.124)" fill="#1448d3"/>
        <path id="Trazado_113884" data-name="Trazado 113884" d="M30.225,42.771A2.472,2.472,0,1,1,32.7,45.241a2.47,2.47,0,0,1-2.471-2.471" transform="translate(84.057 51.124)" fill="#1448d3"/>
        <path id="Trazado_113885" data-name="Trazado 113885" d="M40.3,42.771a2.471,2.471,0,1,1,2.471,2.471A2.47,2.47,0,0,1,40.3,42.771" transform="translate(51.125 51.124)" fill="#1448d3"/>
        <path id="Trazado_113886" data-name="Trazado 113886" d="M50.376,42.771a2.471,2.471,0,1,1,2.471,2.471,2.47,2.47,0,0,1-2.471-2.471" transform="translate(18.193 51.124)" fill="#1448d3"/>
        <path id="Trazado_113887" data-name="Trazado 113887" d="M60.45,42.771a2.472,2.472,0,1,1,2.471,2.471,2.47,2.47,0,0,1-2.471-2.471" transform="translate(-14.737 51.124)" fill="#1448d3"/>
        <path id="Trazado_113888" data-name="Trazado 113888" d="M70.526,42.771A2.471,2.471,0,1,1,73,45.241a2.47,2.47,0,0,1-2.471-2.471" transform="translate(-47.67 51.124)" fill="#1448d3"/>
        <path id="Trazado_113889" data-name="Trazado 113889" d="M80.6,42.771a2.472,2.472,0,1,1,2.471,2.471A2.47,2.47,0,0,1,80.6,42.771" transform="translate(-80.6 51.124)" fill="#1448d3"/>
        <path id="Trazado_113890" data-name="Trazado 113890" d="M0,52.846a2.472,2.472,0,1,1,2.471,2.471A2.47,2.47,0,0,1,0,52.846" transform="translate(182.852 63.905)" fill="#1448d3"/>
        <path id="Trazado_113891" data-name="Trazado 113891" d="M10.076,52.846a2.471,2.471,0,1,1,2.471,2.471,2.47,2.47,0,0,1-2.471-2.471" transform="translate(149.919 63.905)" fill="#1448d3"/>
        <path id="Trazado_113892" data-name="Trazado 113892" d="M20.151,52.846a2.471,2.471,0,1,1,2.471,2.471,2.47,2.47,0,0,1-2.471-2.471" transform="translate(116.988 63.905)" fill="#1448d3"/>
        <path id="Trazado_113893" data-name="Trazado 113893" d="M30.225,52.846A2.472,2.472,0,1,1,32.7,55.316a2.47,2.47,0,0,1-2.471-2.471" transform="translate(84.057 63.905)" fill="#1448d3"/>
        <path id="Trazado_113894" data-name="Trazado 113894" d="M40.3,52.846a2.471,2.471,0,1,1,2.471,2.471A2.47,2.47,0,0,1,40.3,52.846" transform="translate(51.125 63.905)" fill="#1448d3"/>
        <path id="Trazado_113895" data-name="Trazado 113895" d="M50.376,52.846a2.471,2.471,0,1,1,2.471,2.471,2.47,2.47,0,0,1-2.471-2.471" transform="translate(18.193 63.905)" fill="#1448d3"/>
        <path id="Trazado_113896" data-name="Trazado 113896" d="M60.45,52.846a2.472,2.472,0,1,1,2.471,2.471,2.47,2.47,0,0,1-2.471-2.471" transform="translate(-14.737 63.905)" fill="#1448d3"/>
        <path id="Trazado_113897" data-name="Trazado 113897" d="M70.526,52.846A2.471,2.471,0,1,1,73,55.316a2.47,2.47,0,0,1-2.471-2.471" transform="translate(-47.67 63.905)" fill="#1448d3"/>
        <path id="Trazado_113898" data-name="Trazado 113898" d="M80.6,52.846a2.472,2.472,0,1,1,2.471,2.471A2.47,2.47,0,0,1,80.6,52.846" transform="translate(-80.6 63.905)" fill="#1448d3"/>
        <path id="Trazado_113899" data-name="Trazado 113899" d="M0,62.921a2.472,2.472,0,1,1,2.471,2.471A2.47,2.47,0,0,1,0,62.921" transform="translate(182.852 76.687)" fill="#1448d3"/>
        <path id="Trazado_113900" data-name="Trazado 113900" d="M10.076,62.921a2.471,2.471,0,1,1,2.471,2.471,2.47,2.47,0,0,1-2.471-2.471" transform="translate(149.919 76.687)" fill="#1448d3"/>
        <path id="Trazado_113901" data-name="Trazado 113901" d="M20.151,62.921a2.471,2.471,0,1,1,2.471,2.471,2.47,2.47,0,0,1-2.471-2.471" transform="translate(116.988 76.687)" fill="#1448d3"/>
        <path id="Trazado_113902" data-name="Trazado 113902" d="M30.225,62.921A2.472,2.472,0,1,1,32.7,65.391a2.47,2.47,0,0,1-2.471-2.471" transform="translate(84.057 76.687)" fill="#1448d3"/>
        <path id="Trazado_113903" data-name="Trazado 113903" d="M40.3,62.921a2.471,2.471,0,1,1,2.471,2.471A2.47,2.47,0,0,1,40.3,62.921" transform="translate(51.125 76.687)" fill="#1448d3"/>
        <path id="Trazado_113904" data-name="Trazado 113904" d="M50.376,62.921a2.471,2.471,0,1,1,2.471,2.471,2.47,2.47,0,0,1-2.471-2.471" transform="translate(18.193 76.687)" fill="#1448d3"/>
        <path id="Trazado_113905" data-name="Trazado 113905" d="M60.45,62.921a2.472,2.472,0,1,1,2.471,2.471,2.47,2.47,0,0,1-2.471-2.471" transform="translate(-14.737 76.687)" fill="#1448d3"/>
        <path id="Trazado_113906" data-name="Trazado 113906" d="M70.526,62.921A2.471,2.471,0,1,1,73,65.391a2.47,2.47,0,0,1-2.471-2.471" transform="translate(-47.67 76.687)" fill="#1448d3"/>
        <path id="Trazado_113907" data-name="Trazado 113907" d="M80.6,62.921a2.472,2.472,0,1,1,2.471,2.471A2.47,2.47,0,0,1,80.6,62.921" transform="translate(-80.6 76.687)" fill="#1448d3"/>
        <path id="Trazado_113908" data-name="Trazado 113908" d="M0,73a2.472,2.472,0,1,1,2.471,2.471A2.47,2.47,0,0,1,0,73" transform="translate(182.852 89.469)" fill="#1448d3"/>
        <path id="Trazado_113909" data-name="Trazado 113909" d="M10.076,73a2.471,2.471,0,1,1,2.471,2.471A2.47,2.47,0,0,1,10.076,73" transform="translate(149.919 89.469)" fill="#1448d3"/>
        <path id="Trazado_113910" data-name="Trazado 113910" d="M20.151,73a2.471,2.471,0,1,1,2.471,2.471A2.47,2.47,0,0,1,20.151,73" transform="translate(116.988 89.469)" fill="#1448d3"/>
        <path id="Trazado_113911" data-name="Trazado 113911" d="M30.225,73A2.472,2.472,0,1,1,32.7,75.467,2.47,2.47,0,0,1,30.225,73" transform="translate(84.057 89.469)" fill="#1448d3"/>
        <path id="Trazado_113912" data-name="Trazado 113912" d="M40.3,73a2.471,2.471,0,1,1,2.471,2.471A2.47,2.47,0,0,1,40.3,73" transform="translate(51.125 89.469)" fill="#1448d3"/>
        <path id="Trazado_113913" data-name="Trazado 113913" d="M50.376,73a2.471,2.471,0,1,1,2.471,2.471A2.47,2.47,0,0,1,50.376,73" transform="translate(18.193 89.469)" fill="#1448d3"/>
        <path id="Trazado_113914" data-name="Trazado 113914" d="M60.45,73a2.472,2.472,0,1,1,2.471,2.471A2.47,2.47,0,0,1,60.45,73" transform="translate(-14.737 89.469)" fill="#1448d3"/>
        <path id="Trazado_113915" data-name="Trazado 113915" d="M70.526,73A2.471,2.471,0,1,1,73,75.467,2.47,2.47,0,0,1,70.526,73" transform="translate(-47.67 89.469)" fill="#1448d3"/>
        <path id="Trazado_113916" data-name="Trazado 113916" d="M80.6,73a2.472,2.472,0,1,1,2.471,2.471A2.47,2.47,0,0,1,80.6,73" transform="translate(-80.6 89.469)" fill="#1448d3"/>
        <path id="Trazado_113917" data-name="Trazado 113917" d="M0,83.072a2.472,2.472,0,1,1,2.471,2.471A2.47,2.47,0,0,1,0,83.072" transform="translate(182.852 102.251)" fill="#1448d3"/>
        <path id="Trazado_113918" data-name="Trazado 113918" d="M10.076,83.072a2.471,2.471,0,1,1,2.471,2.471,2.47,2.47,0,0,1-2.471-2.471" transform="translate(149.919 102.251)" fill="#1448d3"/>
        <path id="Trazado_113919" data-name="Trazado 113919" d="M20.151,83.072a2.471,2.471,0,1,1,2.471,2.471,2.47,2.47,0,0,1-2.471-2.471" transform="translate(116.988 102.251)" fill="#1448d3"/>
        <path id="Trazado_113920" data-name="Trazado 113920" d="M30.225,83.072A2.472,2.472,0,1,1,32.7,85.542a2.47,2.47,0,0,1-2.471-2.471" transform="translate(84.057 102.251)" fill="#1448d3"/>
        <path id="Trazado_113921" data-name="Trazado 113921" d="M40.3,83.072a2.471,2.471,0,1,1,2.471,2.471A2.47,2.47,0,0,1,40.3,83.072" transform="translate(51.125 102.251)" fill="#1448d3"/>
        <path id="Trazado_113922" data-name="Trazado 113922" d="M50.376,83.072a2.471,2.471,0,1,1,2.471,2.471,2.47,2.47,0,0,1-2.471-2.471" transform="translate(18.193 102.251)" fill="#1448d3"/>
        <path id="Trazado_113923" data-name="Trazado 113923" d="M60.45,83.072a2.472,2.472,0,1,1,2.471,2.471,2.47,2.47,0,0,1-2.471-2.471" transform="translate(-14.737 102.251)" fill="#1448d3"/>
        <path id="Trazado_113924" data-name="Trazado 113924" d="M70.526,83.072A2.471,2.471,0,1,1,73,85.542a2.47,2.47,0,0,1-2.471-2.471" transform="translate(-47.67 102.251)" fill="#1448d3"/>
        <path id="Trazado_113925" data-name="Trazado 113925" d="M80.6,83.072a2.472,2.472,0,1,1,2.471,2.471A2.47,2.47,0,0,1,80.6,83.072" transform="translate(-80.6 102.251)" fill="#1448d3"/>
      </g>
    </g>
    <g id="Grupo_986668" data-name="Grupo 986668" transform="translate(180 1712.113)" clip-path="url(#clip-path-2)">
      <rect id="Rectángulo_344510" data-name="Rectángulo 344510" width="178.537" height="233.796" transform="translate(18.388 44.759) rotate(-8.398)" fill="#e5c3d1"/>
      <rect id="Rectángulo_344511" data-name="Rectángulo 344511" width="243.409" height="185.879" transform="translate(0 234.241) rotate(-74.225)" fill="#f5e7ed"/>
      <g id="Grupo_986667" data-name="Grupo 986667">
        <g id="Grupo_986666" data-name="Grupo 986666" clip-path="url(#clip-path-2)">
          <path id="Trazado_730036" data-name="Trazado 730036" d="M154.515,132.489l-24.441-6.9-24.441-6.9S54.892,193,54.048,193.612s52.61,14.862,52.61,14.862,53.009,15.824,52.61,14.862-4.753-90.847-4.753-90.847" fill="#ef798a"/>
          <path id="Trazado_730037" data-name="Trazado 730037" d="M180.977,56.236l-13.67-3.862-27.313,38.1-3.342-46.759-13.67-3.861L107.71,111.33l24.441,6.9,24.441,6.9Z" fill="#ef798a"/>
          <rect id="Rectángulo_344512" data-name="Rectángulo 344512" width="3.896" height="159.25" transform="matrix(0.272, -0.962, 0.962, 0.272, 23.455, 205.19)" fill="#e5c3d1"/>
          <rect id="Rectángulo_344513" data-name="Rectángulo 344513" width="3.896" height="159.25" transform="matrix(0.272, -0.962, 0.962, 0.272, 21.328, 212.718)" fill="#e5c3d1"/>
          <rect id="Rectángulo_344514" data-name="Rectángulo 344514" width="3.896" height="159.25" transform="matrix(0.272, -0.962, 0.962, 0.272, 19.202, 220.247)" fill="#e5c3d1"/>
          <path id="Trazado_730038" data-name="Trazado 730038" d="M132.929,42.663l3.423,57.546L170.9,53.389l-3.592-1.014-27.313,38.1-3.342-46.758Z" fill="#eb3059"/>
          <path id="Trazado_730039" data-name="Trazado 730039" d="M154.515,132.489,105.633,118.68l-3.179,4.654,52.335,14.785Z" fill="#eb3059"/>
          <g id="Grupo_986656" data-name="Grupo 986656" style="mix-blend-mode: multiply;isolation: isolate">
            <g id="Grupo_986655" data-name="Grupo 986655">
              <g id="Grupo_986654" data-name="Grupo 986654" clip-path="url(#clip-path-4)">
                <path id="Trazado_730040" data-name="Trazado 730040" d="M107.231,140.027,69.57,198.373l4.637,1.29Z" fill="#ef798a"/>
              </g>
            </g>
          </g>
          <g id="Grupo_986659" data-name="Grupo 986659" style="mix-blend-mode: multiply;isolation: isolate">
            <g id="Grupo_986658" data-name="Grupo 986658">
              <g id="Grupo_986657" data-name="Grupo 986657" clip-path="url(#clip-path-5)">
                <path id="Trazado_730041" data-name="Trazado 730041" d="M122.012,144.2,90.579,204.308l3.166.874Z" fill="#ef798a"/>
              </g>
            </g>
          </g>
          <g id="Grupo_986662" data-name="Grupo 986662" style="mix-blend-mode: multiply;isolation: isolate">
            <g id="Grupo_986661" data-name="Grupo 986661">
              <g id="Grupo_986660" data-name="Grupo 986660" clip-path="url(#clip-path-6)">
                <path id="Trazado_730042" data-name="Trazado 730042" d="M131.313,146.83,126.65,214.5l-3.155-.912Z" fill="#ef798a"/>
              </g>
            </g>
          </g>
          <g id="Grupo_986665" data-name="Grupo 986665" style="mix-blend-mode: multiply;isolation: isolate">
            <g id="Grupo_986664" data-name="Grupo 986664">
              <g id="Grupo_986663" data-name="Grupo 986663" clip-path="url(#clip-path-7)">
                <path id="Trazado_730043" data-name="Trazado 730043" d="M143.595,150.3l1.565,69.428-4.626-1.327Z" fill="#ef798a"/>
              </g>
            </g>
          </g>
          <path id="Trazado_730044" data-name="Trazado 730044" d="M119.514,37.915,108.848,84.53,66.069,140.108s-2.742-9.6-2.394-10.716,55.839-91.477,55.839-91.477" fill="#ef798a"/>
          <path id="Trazado_730045" data-name="Trazado 730045" d="M184.255,56.676l-15.184,45.345,7.557,69.727s7.344-6.767,7.627-7.9,0-107.173,0-107.173" fill="#ef798a"/>
        </g>
      </g>
    </g>
    <g id="Grupo_1043006" data-name="Grupo 1043006" transform="translate(180 1946)" clip-path="url(#clip-path-8)">
      <g id="Grupo_1043005" data-name="Grupo 1043005">
        <g id="Grupo_1043004" data-name="Grupo 1043004" clip-path="url(#clip-path-8)">
          <path id="Trazado_772350" data-name="Trazado 772350" d="M3.01,7.863c52.637,8.487,103.084-1.568,157.91,3.044-1.085,40.966-.01,79.63-1.532,126.5-1.805,55.615-5.591,120.072,2.627,175.44-51.542,9.041-108.01-.738-162.015-1.107C6.2,219.857-3.193,95.871,3.01,7.863" transform="translate(0 -1.637)" fill="#f2efef" fill-rule="evenodd"/>
          <path id="Trazado_772351" data-name="Trazado 772351" d="M151.988,306.343c-6.471-54.288-2.935-111.5-1.173-165.775,1.245-38.348.568-76.667,1.275-114.991-44.994-2.222-89.725,4.216-134.666-.671-1.106,20.813-1.388,41.726-1.416,62.535-.038,27.786.446,55.574.854,83.354.647,44.034,1.432,88.753-.914,132.828,14.241.427,28.469,1.34,42.684,2.248,30.576,1.955,62.654,4.214,93.358.472" transform="translate(-3.321 -5.187)" fill="#53b9f2" fill-rule="evenodd"/>
          <path id="Trazado_772352" data-name="Trazado 772352" d="M4.816,10.587C53.341,18.411,99.99,10.343,150,12.848c1.935,27.874.654,60.777.654,93.816,0,84.923-48.216,153.766-107.694,153.766a79.856,79.856,0,0,1-39.005-10.4c.762-79.967-3.979-170.754.863-239.44" transform="translate(-0.543 -2.205)" fill="#fff" fill-rule="evenodd"/>
          <path id="Trazado_772353" data-name="Trazado 772353" d="M150.708,144.235C139.718,212.5,96.9,263.411,45.752,263.411A77.875,77.875,0,0,1,17.4,258.023c.381-29.121-.1-58.322-.527-87.227-.408-27.781-.892-55.57-.854-83.355.029-20.809.31-41.722,1.416-62.535,44.941,4.887,89.672-1.551,134.666.671-.707,38.324-.03,76.644-1.275,114.992q-.059,1.831-.122,3.666" transform="translate(-3.336 -5.187)" fill="#72c6ff" fill-rule="evenodd"/>
          <path id="Trazado_772354" data-name="Trazado 772354" d="M107.312,38.78a.517.517,0,0,1,.62-.374.5.5,0,0,1,.386.6c-1.654,6.827-.544,11.319,2.033,14.475,2.6,3.177,6.707,5.052,11,6.6a.494.494,0,0,1,.3.641.521.521,0,0,1-.663.294c-4.437-1.6-8.7-3.549-11.446-6.913-2.765-3.385-3.969-8.149-2.232-15.319m-37.5,22.231a.52.52,0,0,1-.663-.293.494.494,0,0,1,.3-.641c4.291-1.544,8.4-3.419,11-6.6,2.577-3.156,3.687-7.647,2.033-14.475a.5.5,0,0,1,.386-.6.517.517,0,0,1,.62.374c1.737,7.17.533,11.934-2.232,15.319-2.748,3.364-7.01,5.317-11.446,6.913" transform="translate(-14.394 -7.996)" fill="#fff" fill-rule="evenodd"/>
          <path id="Trazado_772355" data-name="Trazado 772355" d="M116.687,162.042a36.269,36.269,0,0,0,1.865,6.722,56.522,56.522,0,0,0,3.089,6.611c.554,1.032,1.007,1.853,1.458,2.671,1.178,2.139,2.355,4.274,3.4,6.488a56.092,56.092,0,0,1,2.371,5.793,52.057,52.057,0,0,1,1.681,6.018c.62,2.876,1.077,5.786,1.407,8.708s.532,5.848.648,8.78c.12,3.084,1.48,16.985,3.128,33.842,2.735,27.961,6.267,64.055,6.267,72.564a.517.517,0,0,1-1.022.089,4.472,4.472,0,0,0-2.278-2.713,22.2,22.2,0,0,0-6.022-2.378,82.024,82.024,0,0,0-10.982-1.809c-5.431-.652-10.866-1.306-15.2-3.249-4.016-1.8-7.26-4.379-11.3-7.593-2.444-1.944-5.183-4.123-8.585-6.512-6.346-4.458-14.012-4.861-20.531-3.952a53.15,53.15,0,0,0-13.728,3.952.525.525,0,0,1-.685-.245.492.492,0,0,1-.046-.17l-.077-.9c-.048-.572-.1-1.415-.143-2.491s-.1-2.414-.14-3.945a.494.494,0,0,1,.015-.133c1.341-5.233,1.926-12.2,2.5-19.1.466-5.56.928-11.08,1.788-15.673A354.5,354.5,0,0,1,67.335,206.7a234.23,234.23,0,0,1,16.357-38.127.51.51,0,0,1,.275-.236,117.224,117.224,0,0,1,14.914-4.443,96.932,96.932,0,0,1,17.278-2.268.511.511,0,0,1,.529.416m.9,7.066a37.1,37.1,0,0,1-1.834-6.465,95.916,95.916,0,0,0-16.638,2.226,116.179,116.179,0,0,0-14.6,4.336,233.422,233.422,0,0,0-16.2,37.8,353.548,353.548,0,0,0-11.731,46.58c-.846,4.516-1.307,10.026-1.772,15.576-.579,6.914-1.164,13.891-2.516,19.2.044,1.479.09,2.78.138,3.865.045,1.022.093,1.85.143,2.451l.017.2a54.458,54.458,0,0,1,13.343-3.739c6.736-.939,14.67-.513,21.283,4.131,3.4,2.388,6.164,4.588,8.632,6.551,3.982,3.166,7.177,5.709,11.079,7.457,4.187,1.876,9.542,2.519,14.894,3.162a82.437,82.437,0,0,1,11.127,1.841,23.247,23.247,0,0,1,6.318,2.5,7.991,7.991,0,0,1,1.654,1.348c-.43-11.239-3.666-44.324-6.214-70.358-1.651-16.875-3.013-30.79-3.134-33.9-.112-2.9-.314-5.808-.642-8.708s-.778-5.769-1.391-8.61a50.931,50.931,0,0,0-1.648-5.909,55.759,55.759,0,0,0-2.331-5.692c-1.04-2.192-2.207-4.31-3.378-6.432-.528-.96-1.057-1.918-1.466-2.679a57.179,57.179,0,0,1-3.14-6.729" transform="translate(-10.676 -33.659)" fill="#fff" fill-rule="evenodd"/>
          <path id="Trazado_772356" data-name="Trazado 772356" d="M147.634,354.333a3.976,3.976,0,0,1-.069.745c-.428,2.264-2.777,3.686-6.148,4.528A51.15,51.15,0,0,1,129.7,360.7a142.1,142.1,0,0,1-20.416-1.625,133.745,133.745,0,0,1-16.1-3.891,112.546,112.546,0,0,1-14.6-5.6.492.492,0,0,1-.133-.809,19.436,19.436,0,0,0,4.567-9.984,28.3,28.3,0,0,0-.473-12.8.5.5,0,0,1,.333-.627.519.519,0,0,1,.255-.015,26.238,26.238,0,0,1,4.976,1.437,23.444,23.444,0,0,1,4.744,2.569c3.4,2.387,6.165,4.587,8.633,6.551,3.981,3.166,7.178,5.708,11.078,7.457,4.187,1.876,9.542,2.519,14.894,3.162a82.6,82.6,0,0,1,11.127,1.84,23.253,23.253,0,0,1,6.317,2.5,5.389,5.389,0,0,1,2.726,3.37.581.581,0,0,1,.009.089m-1.083.565a2.972,2.972,0,0,0,.049-.526,4.525,4.525,0,0,0-2.266-2.662,22.233,22.233,0,0,0-6.023-2.377,82.013,82.013,0,0,0-10.982-1.809c-5.431-.652-10.867-1.306-15.2-3.249-4.016-1.8-7.26-4.379-11.3-7.593-2.444-1.944-5.183-4.123-8.585-6.512a22.4,22.4,0,0,0-4.534-2.456,24.821,24.821,0,0,0-3.944-1.21,30.429,30.429,0,0,1,.267,12.461,20.937,20.937,0,0,1-4.387,10.007,112.124,112.124,0,0,0,13.848,5.262,132.621,132.621,0,0,0,15.974,3.861A140.789,140.789,0,0,0,129.7,359.7a50.222,50.222,0,0,0,11.464-1.059c2.983-.745,5.047-1.93,5.389-3.743" transform="translate(-16.304 -67.754)" fill="#fff" fill-rule="evenodd"/>
          <path id="Trazado_772357" data-name="Trazado 772357" d="M147.717,84.867a4.183,4.183,0,0,1-.425,2.71,12.88,12.88,0,0,1-2.024,2.586c-2.35,2.539-5.3,8.442-7.983,14.894-3.355,8.082-6.26,17-7.007,21.266a43.506,43.506,0,0,0-.581,10.98,21.339,21.339,0,0,0,2.134,8.454.491.491,0,0,1-.194.681.525.525,0,0,1-.286.063,96.055,96.055,0,0,0-20.912,1.706A112.835,112.835,0,0,0,92.844,153.2a.522.522,0,0,1-.664-.291.487.487,0,0,1,.041-.435,224.464,224.464,0,0,1,23.663-35.07,347.55,347.55,0,0,1,30.963-32.823.528.528,0,0,1,.729.01.492.492,0,0,1,.142.279m-1.347,2.26a3.144,3.144,0,0,0,.339-1.024,343.716,343.716,0,0,0-30.018,31.915A223.9,223.9,0,0,0,93.751,151.8a112.184,112.184,0,0,1,16.485-4.576,96.971,96.971,0,0,1,20.3-1.74,24.614,24.614,0,0,1-1.869-8.105,44.469,44.469,0,0,1,.593-11.222c.757-4.33,3.687-13.331,7.067-21.474,2.716-6.542,5.735-12.552,8.173-15.187a12.126,12.126,0,0,0,1.871-2.371" transform="translate(-19.19 -17.584)" fill="#fff" fill-rule="evenodd"/>
          <path id="Trazado_772358" data-name="Trazado 772358" d="M117.547,64.173l.941.321c1.18.4,2.222.736,3.2,1.05,7.558,2.427,11.719,3.764,15.018,12.864.158.436.287.831.387,1.191a8.467,8.467,0,0,1,.225,1.041.494.494,0,0,1-.163.439C114.752,102.248,97.5,122.332,84.174,146.1S61.429,197.346,54.7,233.284c-.846,4.517-1.307,10.026-1.772,15.576-.777,9.281-1.564,18.678-4.212,24.012a.523.523,0,0,1-.686.234.5.5,0,0,1-.291-.4c-1.579-14.552-2.07-33.918-1.416-52.494.61-17.308,2.216-33.936,4.868-45.357a50.491,50.491,0,0,1,1.657-5.625,56.133,56.133,0,0,1,2.273-5.416c1-2.081,2.138-4.136,3.277-6.191.465-.842.931-1.682,1.38-2.514a51.841,51.841,0,0,0,3.72-8.287,36.282,36.282,0,0,0,1.766-8.856,28.156,28.156,0,0,0-.725-8.824,45.28,45.28,0,0,0-3.036-8.422c-.869-1.882-1.822-3.752-2.776-5.622a83.671,83.671,0,0,1-4.946-10.97c-.12-.349-.236-.707-.347-1.065-.1-.337-.2-.67-.291-.994a58.813,58.813,0,0,0-3.857-9.357,31.885,31.885,0,0,0-4.558-6.777,9.059,9.059,0,0,1-2.353-3.4,6.536,6.536,0,0,1,.515-4.132c3.3-9.1,7.46-10.436,15.018-12.864.98-.314,2.021-.65,3.2-1.05l.94-.322a.529.529,0,0,1,.512.1A33.357,33.357,0,0,0,74.2,69.628a63.221,63.221,0,0,0,31.193,0,33.334,33.334,0,0,0,11.655-5.372.531.531,0,0,1,.495-.082m.131,1.1-.207-.07a34.775,34.775,0,0,1-11.8,5.382,64.2,64.2,0,0,1-31.743,0,34.778,34.778,0,0,1-11.8-5.383l-.676.23c-1.09.369-2.187.722-3.219,1.053C50.988,68.818,47,70.1,43.867,78.738a5.748,5.748,0,0,0-.495,3.537,8.393,8.393,0,0,0,2.127,3,32.835,32.835,0,0,1,4.712,6.993,59.815,59.815,0,0,1,3.925,9.517l0,.016c.087.317.184.647.288.983s.218.684.338,1.037a82.647,82.647,0,0,0,4.89,10.84c.952,1.869,1.907,3.739,2.792,5.659a46.184,46.184,0,0,1,3.1,8.606,29.1,29.1,0,0,1,.749,9.121,37.24,37.24,0,0,1-1.814,9.088,52.884,52.884,0,0,1-3.789,8.442c-.462.855-.924,1.689-1.386,2.521-1.115,2.015-2.229,4.027-3.248,6.146a55.314,55.314,0,0,0-2.237,5.317,49.454,49.454,0,0,0-1.625,5.518c-2.638,11.361-4.237,27.922-4.845,45.17a399.472,399.472,0,0,0,1.206,50.377c1.958-5.358,2.652-13.645,3.339-21.841.466-5.56.928-11.08,1.788-15.673,6.748-36.055,16.194-63.619,29.575-87.483,13.345-23.8,30.6-43.912,52.993-65.091-.04-.211-.093-.435-.16-.676-.1-.348-.217-.719-.363-1.121-3.131-8.636-7.12-9.918-14.367-12.246-1.032-.331-2.128-.684-3.218-1.053Z" transform="translate(-8.793 -13.358)" fill="#fff" fill-rule="evenodd"/>
          <path id="Trazado_772359" data-name="Trazado 772359" d="M102.7,31.643a.518.518,0,0,0-1.033-.023v2.513a.518.518,0,0,0,1.034.023Zm-1.034,270.946a.518.518,0,0,0,1.034.022V300.1a.518.518,0,0,0-1.033-.023Zm0-5.48a.518.518,0,0,0,1.034.023v-5a.518.518,0,0,0-1.033-.023Zm0-7.968a.518.518,0,0,0,1.034.022v-5a.518.518,0,0,0-1.033-.023Zm0-7.97a.518.518,0,0,0,1.034.023v-5a.518.518,0,0,0-1.033-.023Zm0-7.969a.518.518,0,0,0,1.034.023v-5a.518.518,0,0,0-1.033-.022Zm0-7.969a.518.518,0,0,0,1.034.023v-5a.518.518,0,0,0-1.033-.022Zm0-7.969a.518.518,0,0,0,1.034.023v-5a.518.518,0,0,0-1.033-.022Zm0-7.969a.518.518,0,0,0,1.034.023v-5a.518.518,0,0,0-1.033-.022Zm0-7.969a.518.518,0,0,0,1.034.023v-5a.518.518,0,0,0-1.033-.022Zm0-7.969a.518.518,0,0,0,1.034.022v-5a.518.518,0,0,0-1.033-.022Zm0-7.969a.518.518,0,0,0,1.034.022v-5a.518.518,0,0,0-1.033-.022Zm0-7.969a.518.518,0,0,0,1.034.022v-5a.518.518,0,0,0-1.033-.023Zm0-7.969a.518.518,0,0,0,1.034.022v-5a.518.518,0,0,0-1.033-.023Zm0-7.97a.518.518,0,0,0,1.034.023v-5a.518.518,0,0,0-1.033-.023Zm0-7.969a.518.518,0,0,0,1.034.023v-5a.518.518,0,0,0-1.033-.023Zm0-7.968a.518.518,0,0,0,1.034.022v-5a.518.518,0,0,0-1.033-.023Zm0-7.969a.518.518,0,0,0,1.034.022v-5a.518.518,0,0,0-1.033-.023Zm0-7.97a.518.518,0,0,0,1.034.023v-5a.518.518,0,0,0-1.033-.022Zm0-7.969a.518.518,0,0,0,1.034.023v-5a.518.518,0,0,0-1.033-.022Zm0-7.969a.518.518,0,0,0,1.034.022v-5a.518.518,0,0,0-1.033-.022Zm0-7.969a.518.518,0,0,0,1.034.022v-5a.518.518,0,0,0-1.033-.023Zm0-7.969a.518.518,0,0,0,1.034.023v-5a.518.518,0,0,0-1.033-.022Zm0-7.969a.518.518,0,0,0,1.034.022v-5a.518.518,0,0,0-1.033-.022Zm0-7.969a.518.518,0,0,0,1.034.022v-5a.518.518,0,0,0-1.033-.023Zm0-7.969a.518.518,0,0,0,1.034.022v-5a.518.518,0,0,0-1.033-.022Zm0-7.97a.518.518,0,0,0,1.034.023v-5a.518.518,0,0,0-1.033-.023Zm0-7.969a.518.518,0,0,0,1.034.023v-5a.518.518,0,0,0-1.033-.023Zm0-7.969a.518.518,0,0,0,1.034.023v-5a.518.518,0,0,0-1.033-.023Zm0-7.969a.518.518,0,0,0,1.034.023v-5a.518.518,0,0,0-1.033-.023Zm0-7.969A.518.518,0,0,0,102.7,74V69a.518.518,0,0,0-1.033-.023Zm0-7.969a.518.518,0,0,0,1.034.023v-5a.518.518,0,0,0-1.033-.022Zm0-7.969a.518.518,0,0,0,1.034.023v-5a.518.518,0,0,0-1.033-.022Zm0-7.969a.518.518,0,0,0,1.034.023v-5a.518.518,0,0,0-1.033-.022Zm0-7.969a.518.518,0,0,0,1.034.023v-5a.518.518,0,0,0-1.033-.022Z" transform="translate(-21.171 -6.486)" fill="#055f63" fill-rule="evenodd"/>
          <path id="Trazado_772360" data-name="Trazado 772360" d="M143.82,210.855a.5.5,0,1,0,.024-1H141.3a.5.5,0,1,0-.023,1Zm-113-1a.5.5,0,1,0-.024,1h2.546a.5.5,0,1,0,.024-1Zm5.549,0a.5.5,0,1,0-.023,1h5.068a.5.5,0,1,0,.024-1Zm8.072,0a.5.5,0,1,0-.023,1h5.068a.5.5,0,1,0,.023-1Zm8.072,0a.5.5,0,1,0-.024,1h5.068a.5.5,0,1,0,.024-1Zm8.071,0a.5.5,0,1,0-.023,1h5.068a.5.5,0,1,0,.023-1Zm8.072,0a.5.5,0,1,0-.024,1H73.7a.5.5,0,1,0,.024-1Zm8.071,0a.5.5,0,1,0-.023,1H81.77a.5.5,0,1,0,.023-1Zm8.072,0a.5.5,0,1,0-.024,1h5.068a.5.5,0,1,0,.024-1Zm8.071,0a.5.5,0,1,0-.023,1h5.068a.5.5,0,1,0,.024-1Zm8.072,0a.5.5,0,1,0-.024,1h5.069a.5.5,0,1,0,.023-1Zm8.071,0a.5.5,0,1,0-.023,1h5.068a.5.5,0,1,0,.023-1Zm8.072,0a.5.5,0,1,0-.024,1h5.069a.5.5,0,1,0,.023-1Zm8.071,0a.5.5,0,1,0-.023,1H130.2a.5.5,0,1,0,.024-1Zm8.072,0a.5.5,0,1,0-.024,1h5.069a.5.5,0,1,0,.023-1Z" transform="translate(-6.311 -43.702)" fill="#055f63" fill-rule="evenodd"/>
          <path id="Trazado_772361" data-name="Trazado 772361" d="M143.82,119.214a.5.5,0,1,0,.024-1H141.3a.5.5,0,1,0-.023,1Zm-113-1a.5.5,0,1,0-.024,1h2.546a.5.5,0,1,0,.024-1Zm5.549,0a.5.5,0,1,0-.023,1h5.068a.5.5,0,1,0,.024-1Zm8.072,0a.5.5,0,1,0-.023,1h5.068a.5.5,0,1,0,.023-1Zm8.072,0a.5.5,0,1,0-.024,1h5.068a.5.5,0,1,0,.024-1Zm8.071,0a.5.5,0,1,0-.023,1h5.068a.5.5,0,1,0,.023-1Zm8.072,0a.5.5,0,1,0-.024,1H73.7a.5.5,0,1,0,.024-1Zm8.071,0a.5.5,0,1,0-.023,1H81.77a.5.5,0,1,0,.023-1Zm8.072,0a.5.5,0,1,0-.024,1h5.068a.5.5,0,1,0,.024-1Zm8.071,0a.5.5,0,1,0-.023,1h5.068a.5.5,0,1,0,.024-1Zm8.072,0a.5.5,0,1,0-.024,1h5.069a.5.5,0,1,0,.023-1Zm8.071,0a.5.5,0,1,0-.023,1h5.068a.5.5,0,1,0,.023-1Zm8.072,0a.5.5,0,1,0-.024,1h5.069a.5.5,0,1,0,.023-1Zm8.071,0a.5.5,0,1,0-.023,1H130.2a.5.5,0,1,0,.024-1Zm8.072,0a.5.5,0,1,0-.024,1h5.069a.5.5,0,1,0,.023-1Z" transform="translate(-6.311 -24.618)" fill="#055f63" fill-rule="evenodd"/>
          <path id="Trazado_772362" data-name="Trazado 772362" d="M143.82,315.314a.5.5,0,1,0,.024-1H141.3a.5.5,0,1,0-.023,1Zm-113-1a.5.5,0,1,0-.024,1h2.546a.5.5,0,1,0,.024-1Zm5.549,0a.5.5,0,1,0-.023,1h5.068a.5.5,0,1,0,.024-1Zm8.072,0a.5.5,0,1,0-.023,1h5.068a.5.5,0,1,0,.023-1Zm8.072,0a.5.5,0,1,0-.024,1h5.068a.5.5,0,1,0,.024-1Zm8.071,0a.5.5,0,1,0-.023,1h5.068a.5.5,0,1,0,.023-1Zm8.072,0a.5.5,0,1,0-.024,1H73.7a.5.5,0,1,0,.024-1Zm8.071,0a.5.5,0,1,0-.023,1H81.77a.5.5,0,1,0,.023-1Zm8.072,0a.5.5,0,1,0-.024,1h5.068a.5.5,0,1,0,.024-1Zm8.071,0a.5.5,0,1,0-.023,1h5.068a.5.5,0,1,0,.024-1Zm8.072,0a.5.5,0,1,0-.024,1h5.069a.5.5,0,1,0,.023-1Zm8.071,0a.5.5,0,1,0-.023,1h5.068a.5.5,0,1,0,.023-1Zm8.072,0a.5.5,0,1,0-.024,1h5.069a.5.5,0,1,0,.023-1Zm8.071,0a.5.5,0,1,0-.023,1H130.2a.5.5,0,1,0,.024-1Zm8.072,0a.5.5,0,1,0-.024,1h5.069a.5.5,0,1,0,.023-1Z" transform="translate(-6.311 -65.456)" fill="#055f63" fill-rule="evenodd"/>
          <g id="Grupo_1043003" data-name="Grupo 1043003" transform="translate(96.851 416.74)" opacity="0.12">
            <g id="Grupo_1043002" data-name="Grupo 1043002">
              <g id="Grupo_1043001" data-name="Grupo 1043001" clip-path="url(#clip-path-10)">
                <path id="Trazado_772363" data-name="Trazado 772363" d="M322.882,531.984c0,3.109-44.9,5.63-100.278,5.63s-100.278-2.521-100.278-5.63,44.9-5.63,100.278-5.63,100.278,2.521,100.278,5.63" transform="translate(-122.326 -526.354)" fill-rule="evenodd"/>
              </g>
            </g>
          </g>
          <path id="Trazado_772364" data-name="Trazado 772364" d="M239.681,195.538c-1.49,10.993-11.161,22.519-23.212,31.375-12.6,9.257-28,15.746-39.368,15.669a12.008,12.008,0,0,0,.69-4.066,12.432,12.432,0,0,0-.24-2.443c9.928-.074,23.621-6.006,35.066-14.416,10.774-7.918,19.376-17.894,20.609-26.986Z" transform="translate(-36.882 -40.541)" fill="#fab433" fill-rule="evenodd"/>
          <path id="Trazado_772365" data-name="Trazado 772365" d="M186.626,245.527a40.726,40.726,0,0,1-9.526,1.2,12.013,12.013,0,0,0,.69-4.066,12.446,12.446,0,0,0-.239-2.443c9.927-.074,23.62-6.005,35.065-14.415A75.785,75.785,0,0,0,225,214.556a2.949,2.949,0,0,1,.864.85c2.887,4.459-9.422,15.559-27.49,24.792-4.017,2.052-7.981,3.839-11.748,5.329" transform="translate(-36.881 -44.682)" fill="#fcc846" fill-rule="evenodd"/>
          <path id="Trazado_772366" data-name="Trazado 772366" d="M237.6,214.475l.23.265,1.633,1.889a.189.189,0,0,1-.03.263.185.185,0,0,1-.262,0L237.54,215l-.2-.226Z" transform="translate(-49.427 -44.665)" fill="#ac273d" fill-rule="evenodd"/>
          <path id="Trazado_772367" data-name="Trazado 772367" d="M239.967,211.577l.284.33,1.559,1.808a.189.189,0,0,1-.03.263.184.184,0,0,1-.262-.006l-1.559-1.808-.236-.274Z" transform="translate(-49.923 -44.061)" fill="#ac273d" fill-rule="evenodd"/>
          <path id="Trazado_772368" data-name="Trazado 772368" d="M241.838,209l.082.1,1.478,1.719a.19.19,0,0,1-.031.264.185.185,0,0,1-.263-.006l-1.477-1.72-.018-.021c.077-.11.154-.221.229-.331" transform="translate(-50.316 -43.525)" fill="#ac273d" fill-rule="evenodd"/>
          <path id="Trazado_772369" data-name="Trazado 772369" d="M224.031,227.131l.253.388,1.6,2.449a.194.194,0,0,1-.062.26.179.179,0,0,1-.257-.037l-1.6-2.45-.244-.372Z" transform="translate(-46.591 -47.3)" fill="#ac273d" fill-rule="evenodd"/>
          <path id="Trazado_772370" data-name="Trazado 772370" d="M226.545,225.131l1.7,2.606a.194.194,0,0,1-.062.26.18.18,0,0,1-.257-.037l-1.68-2.581Z" transform="translate(-47.116 -46.884)" fill="#ac273d" fill-rule="evenodd"/>
          <path id="Trazado_772371" data-name="Trazado 772371" d="M229.1,222.972l.234.359,1.535,2.36a.194.194,0,0,1-.063.26.179.179,0,0,1-.257-.037l-1.534-2.359-.212-.325Z" transform="translate(-47.648 -46.434)" fill="#ac273d" fill-rule="evenodd"/>
          <path id="Trazado_772372" data-name="Trazado 772372" d="M231.626,220.679c.158.213.311.418.456.61l1.641,2.192a.192.192,0,0,1-.047.262.182.182,0,0,1-.26-.021l-1.641-2.192c-.152-.2-.3-.4-.436-.583Z" transform="translate(-48.177 -45.957)" fill="#ac273d" fill-rule="evenodd"/>
          <path id="Trazado_772373" data-name="Trazado 772373" d="M211.181,235.742l.189.388,1.338,2.746a.2.2,0,0,1-.091.256.177.177,0,0,1-.249-.067l-1.337-2.744-.187-.384Z" transform="translate(-43.909 -49.094)" fill="#ac273d" fill-rule="evenodd"/>
          <path id="Trazado_772374" data-name="Trazado 772374" d="M213.695,234.246c.113.2.226.4.339.6l1.5,2.64a.2.2,0,0,1-.076.258.177.177,0,0,1-.253-.051l-1.5-2.64q-.173-.3-.343-.6Z" transform="translate(-44.433 -48.782)" fill="#ac273d" fill-rule="evenodd"/>
          <path id="Trazado_772375" data-name="Trazado 772375" d="M216.411,232.532c.1.179.2.358.3.534l1.495,2.63a.2.2,0,0,1-.075.258.179.179,0,0,1-.253-.051l-1.495-2.63q-.152-.265-.3-.53Z" transform="translate(-45 -48.425)" fill="#ac273d" fill-rule="evenodd"/>
          <path id="Trazado_772376" data-name="Trazado 772376" d="M219.076,230.747l.269.474,1.483,2.609a.2.2,0,0,1-.075.258.179.179,0,0,1-.253-.051l-1.482-2.609-.262-.461Z" transform="translate(-45.556 -48.054)" fill="#ac273d" fill-rule="evenodd"/>
          <path id="Trazado_772377" data-name="Trazado 772377" d="M198.378,242.064l.174.456,1.07,2.807a.2.2,0,0,1-.111.249.173.173,0,0,1-.24-.088l-1.07-2.806-.181-.473Z" transform="translate(-41.238 -50.41)" fill="#ac273d" fill-rule="evenodd"/>
          <path id="Trazado_772378" data-name="Trazado 772378" d="M200.81,241.03l.121.249,1.321,2.714a.2.2,0,0,1-.091.255.176.176,0,0,1-.249-.066l-1.321-2.714-.138-.281Z" transform="translate(-41.745 -50.195)" fill="#ac273d" fill-rule="evenodd"/>
          <path id="Trazado_772379" data-name="Trazado 772379" d="M203.724,239.686l.132.271,1.329,2.73a.2.2,0,0,1-.091.255.176.176,0,0,1-.249-.067l-1.329-2.729-.143-.293Z" transform="translate(-42.353 -49.915)" fill="#ac273d" fill-rule="evenodd"/>
          <path id="Trazado_772380" data-name="Trazado 772380" d="M206.584,238.259l.15.307,1.335,2.742a.2.2,0,0,1-.089.255.176.176,0,0,1-.249-.066l-1.335-2.742-.156-.319Z" transform="translate(-42.95 -49.618)" fill="#ac273d" fill-rule="evenodd"/>
          <path id="Trazado_772381" data-name="Trazado 772381" d="M184.423,246.28l.088.414.573,2.706a.205.205,0,0,1-.145.233.17.17,0,0,1-.221-.123l-.572-2.705-.1-.46c.124-.021.249-.042.374-.065" transform="translate(-38.328 -51.288)" fill="#ac273d" fill-rule="evenodd"/>
          <path id="Trazado_772382" data-name="Trazado 772382" d="M187.1,245.726l.065.205.85,2.693a.2.2,0,0,1-.123.243.17.17,0,0,1-.234-.1l-.85-2.693-.084-.264.375-.085" transform="translate(-38.886 -51.173)" fill="#ac273d" fill-rule="evenodd"/>
          <path id="Trazado_772383" data-name="Trazado 772383" d="M190.192,244.923l.139.438.87,2.754a.2.2,0,0,1-.124.243.171.171,0,0,1-.233-.1l-.87-2.754-.151-.477.369-.1" transform="translate(-39.531 -51.006)" fill="#ac273d" fill-rule="evenodd"/>
          <path id="Trazado_772384" data-name="Trazado 772384" d="M192.909,244.085l.053.14L194,246.961a.2.2,0,0,1-.111.249.173.173,0,0,1-.24-.087l-1.042-2.736-.069-.181Z" transform="translate(-40.097 -50.831)" fill="#ac273d" fill-rule="evenodd"/>
          <path id="Trazado_772385" data-name="Trazado 772385" d="M179.255,246.906l.516,2.455a.205.205,0,0,1-.145.233.169.169,0,0,1-.221-.122l-.535-2.545.385-.021" transform="translate(-37.25 -51.419)" fill="#ac273d" fill-rule="evenodd"/>
          <path id="Trazado_772386" data-name="Trazado 772386" d="M182.007,246.651c.067.326.137.656.209.994.143.667.26,1.233.377,1.795.126.6.251,1.209.355,1.7a.205.205,0,0,1-.145.233.17.17,0,0,1-.221-.123c-.138-.644-.247-1.175-.356-1.7-.131-.633-.262-1.263-.375-1.793-.074-.344-.148-.7-.222-1.059l.378-.045" transform="translate(-37.825 -51.366)" fill="#ac273d" fill-rule="evenodd"/>
          <path id="Trazado_772387" data-name="Trazado 772387" d="M195.818,243.064c.153.4.3.805.456,1.2.245.637.473,1.242.7,1.847.234.622.47,1.243.7,1.831a.2.2,0,0,1-.111.249.173.173,0,0,1-.24-.087c-.242-.631-.469-1.233-.7-1.833-.236-.626-.473-1.253-.7-1.846q-.238-.619-.466-1.226Z" transform="translate(-40.704 -50.619)" fill="#ac273d" fill-rule="evenodd"/>
          <path id="Trazado_772388" data-name="Trazado 772388" d="M209.032,236.954c.189.39.386.8.6,1.236.3.617.591,1.217.882,1.819s.592,1.225.884,1.819a.2.2,0,0,1-.091.256.176.176,0,0,1-.249-.067c-.3-.616-.593-1.219-.884-1.82s-.592-1.225-.882-1.816c-.186-.38-.39-.8-.6-1.239Z" transform="translate(-43.461 -49.346)" fill="#ac273d" fill-rule="evenodd"/>
          <path id="Trazado_772389" data-name="Trazado 772389" d="M221.505,229.025q.443.686.894,1.374c.356.545.718,1.1,1.08,1.66s.7,1.086,1.061,1.633a.194.194,0,0,1-.062.26.18.18,0,0,1-.257-.038c-.353-.538-.708-1.086-1.063-1.633s-.713-1.1-1.079-1.66c-.3-.452-.593-.91-.89-1.368Z" transform="translate(-46.063 -47.695)" fill="#ac273d" fill-rule="evenodd"/>
          <path id="Trazado_772390" data-name="Trazado 772390" d="M233.57,218.8c.348.4.686.8,1,1.157.44.505.8.926,1.158,1.338.415.482.838.972,1.164,1.347a.188.188,0,0,1-.028.263.186.186,0,0,1-.263,0c-.452-.519-.807-.93-1.167-1.348-.415-.482-.823-.956-1.156-1.337-.349-.4-.672-.774-.986-1.139Z" transform="translate(-48.584 -45.565)" fill="#ac273d" fill-rule="evenodd"/>
          <path id="Trazado_772391" data-name="Trazado 772391" d="M243.453,206.491c.249.291.506.593.762.894.3.359.61.719.941,1.1a.19.19,0,0,1-.032.264.185.185,0,0,1-.263-.006c-.3-.347-.62-.725-.941-1.1l-.679-.8c.072-.117.142-.234.213-.352" transform="translate(-50.655 -43.002)" fill="#ac273d" fill-rule="evenodd"/>
          <path id="Trazado_772392" data-name="Trazado 772392" d="M235.562,216.743l.108.124,1.7,1.964a.189.189,0,0,1-.03.263.185.185,0,0,1-.262-.006l-1.7-1.963-.086-.1Z" transform="translate(-49 -45.137)" fill="#ac273d" fill-rule="evenodd"/>
          <path id="Trazado_772393" data-name="Trazado 772393" d="M286.807,0a15.751,15.751,0,0,1,9.451,28.351,21.126,21.126,0,0,0-18.9,0A15.751,15.751,0,0,1,286.807,0" transform="translate(-56.448)" fill="#e79c75" fill-rule="evenodd"/>
          <path id="Trazado_772394" data-name="Trazado 772394" d="M286.807,0a15.711,15.711,0,0,1,11.757,5.271,16.8,16.8,0,0,1-5.755,21.687,21.437,21.437,0,0,0-6-.839,20.231,20.231,0,0,0-9.451,2.232A15.751,15.751,0,0,1,286.807,0" transform="translate(-56.448)" fill="#ebae92" fill-rule="evenodd"/>
          <path id="Trazado_772395" data-name="Trazado 772395" d="M286.931,32.988c7.375,0,13.566,3.592,15.279,8.44-4.926.164-10.037.251-15.279.251s-10.353-.087-15.279-.251c1.713-4.848,7.9-8.44,15.279-8.44" transform="translate(-56.572 -6.87)" fill="#e79c75" fill-rule="evenodd"/>
          <path id="Trazado_772396" data-name="Trazado 772396" d="M291.592,43.766C287.072,63.053,299,68.208,310.691,72.3c11.833,4.142,16.58,4.275,20.673,15.942,1.225,3.491.791,3.922-1.686,6.689-4.229,4.724-8.493,13.4-10.992,21.656-4.143,15.439-16.464,28.1-15.057,46.8,1.588,21.121,13.326,27.779,17.729,48.89,2.468,11.833,3.625,28.211,1.5,54.223-20.338,11.769-72.8,11.769-93.137,0-2.211-27.106-.861-43.749,1.822-55.692,4.484-19.965,15.859-26.8,17.411-47.421,1.407-18.7-10.915-31.36-15.058-46.8-2.5-8.258-6.762-16.932-10.991-21.656-2.477-2.766-2.911-3.2-1.686-6.689,4.093-11.667,8.84-11.8,20.672-15.942,11.694-4.093,23.619-9.248,19.1-28.535Z" transform="translate(-45.932 -9.114)" fill="#ebae92" fill-rule="evenodd"/>
          <path id="Trazado_772397" data-name="Trazado 772397" d="M297.348,335.815v14.438H279.985V335.815a114.5,114.5,0,0,0,17.363,0" transform="translate(-58.307 -69.934)" fill="#e58f60" fill-rule="evenodd"/>
          <path id="Trazado_772398" data-name="Trazado 772398" d="M297.348,335.815v6.254a114.51,114.51,0,0,1-17.363,0v-6.254a114.5,114.5,0,0,0,17.363,0" transform="translate(-58.307 -69.934)" fill="#cd7e58" fill-rule="evenodd"/>
          <rect id="Rectángulo_355784" data-name="Rectángulo 355784" width="6.988" height="79.985" transform="translate(226.865 280.318)" fill="#e58f60"/>
          <path id="Trazado_772399" data-name="Trazado 772399" d="M291.728,455.073c3.948,2.083,6.77,7.617,6.77,14.116,0,5.832-2.272,10.887-5.591,13.369h-9.3c-3.319-2.482-5.591-7.537-5.591-13.369,0-6.5,2.823-12.033,6.77-14.116Z" transform="translate(-57.897 -94.77)" fill="#cd7e58" fill-rule="evenodd"/>
          <path id="Trazado_772400" data-name="Trazado 772400" d="M281.952,481.012a18.166,18.166,0,0,1-3.938-11.822c0-6.5,2.823-12.033,6.771-14.116h5.89a17.729,17.729,0,0,1,3.523,10.936c0,8.316-5.047,15.058-11.272,15.058a8.639,8.639,0,0,1-.974-.056" transform="translate(-57.897 -94.77)" fill="#e58f60" fill-rule="evenodd"/>
          <path id="Trazado_772401" data-name="Trazado 772401" d="M234.892,518.226h5.376c7.9,0,25.161-.283,30.043-13.183h15.141c4.882,12.9,22.142,13.183,30.043,13.183h5.376a6.811,6.811,0,0,1,6.7,6.879v1.628a7.08,7.08,0,0,1-.048.813H228.24a7.077,7.077,0,0,1-.047-.813v-1.628a6.811,6.811,0,0,1,6.7-6.879" transform="translate(-47.521 -105.176)" fill="#cd7e58" fill-rule="evenodd"/>
          <path id="Trazado_772402" data-name="Trazado 772402" d="M278.967,508.693a16.727,16.727,0,0,0,1.918-3.65h15.141a16.692,16.692,0,0,0,1.917,3.65Z" transform="translate(-58.095 -105.176)" fill="#ba7051" fill-rule="evenodd"/>
          <path id="Trazado_772403" data-name="Trazado 772403" d="M234.892,518.226h5.376c7.9,0,25.161-.283,30.043-13.183h12.553c-2.866,9.449-10.836,17.493-21.684,22.5H228.24a7.077,7.077,0,0,1-.047-.813v-1.628a6.811,6.811,0,0,1,6.7-6.879" transform="translate(-47.521 -105.176)" fill="#e58f60" fill-rule="evenodd"/>
          <path id="Trazado_772404" data-name="Trazado 772404" d="M278.967,508.693a16.727,16.727,0,0,0,1.918-3.65h12.552a28.416,28.416,0,0,1-1.39,3.65Z" transform="translate(-58.095 -105.176)" fill="#d8865c" fill-rule="evenodd"/>
          <path id="Trazado_772405" data-name="Trazado 772405" d="M281,489.787h13.525a5.415,5.415,0,0,1,5.371,5.427V496.5a5.415,5.415,0,0,1-5.371,5.427H281a5.415,5.415,0,0,1-5.372-5.427v-1.284A5.416,5.416,0,0,1,281,489.787" transform="translate(-57.399 -101.999)" fill="#cd7e58" fill-rule="evenodd"/>
          <path id="Trazado_772406" data-name="Trazado 772406" d="M281,489.787h13.525c.138,0,.275.006.41.016a4.311,4.311,0,0,1,2.02,3.288c0,3.942-8.059,7.138-18,7.138q-.954,0-1.883-.039a5.44,5.44,0,0,1-1.443-3.692v-1.284A5.416,5.416,0,0,1,281,489.787" transform="translate(-57.399 -101.999)" fill="#e58f60" fill-rule="evenodd"/>
          <rect id="Rectángulo_355785" data-name="Rectángulo 355785" width="6.988" height="7.974" transform="translate(226.865 280.318)" fill="#cd7e58"/>
          <rect id="Rectángulo_355786" data-name="Rectángulo 355786" width="2.452" height="46.043" transform="translate(228.119 314.261)" fill="#e9a480"/>
          <path id="Trazado_772407" data-name="Trazado 772407" d="M286.9,456.881c2.068,0,3.458,3.021,3.106,6.747s-2.314,6.748-4.382,6.748-3.458-3.021-3.106-6.748,2.314-6.747,4.382-6.747" transform="translate(-58.823 -95.146)" fill="#e9a480" fill-rule="evenodd"/>
          <path id="Trazado_772408" data-name="Trazado 772408" d="M285.075,20.992a9.175,9.175,0,1,0-9.175-9.176,9.193,9.193,0,0,0,9.175,9.176" transform="translate(-57.457 -0.55)" fill="#e9bba3" fill-rule="evenodd"/>
          <path id="Trazado_772409" data-name="Trazado 772409" d="M297.171,273.34a111.861,111.861,0,0,1-21.3,1.984c-15.417-.046-33.945-2.622-44.12-7.731l-.147-.075c-.26-.131-.516-.266-.77-.4l-.234-.126q-.448-.241-.879-.491c-2.2-27.028-.869-43.653,1.8-55.589,4.481-20.044,15.881-26.865,17.434-47.524,1.407-18.7-10.914-31.361-15.057-46.8-2.5-8.258-6.763-16.932-10.992-21.656-2.477-2.766-2.911-3.2-1.686-6.689,4.093-11.668,8.84-11.8,20.672-15.942,11.694-4.093,23.619-9.248,19.1-28.535h12.126c-2.066,7.859-4.411,23.213.1,30.124,2.009,3.081,5.7,5.4,12.461,6.877,24.621,5.382,11.8,39.929,5.4,55.081-9.288,21.988-12.881,40.608-10.286,62,2.939,24.238,19.659,35.364,16.383,75.492" transform="translate(-45.932 -9.114)" fill="#e9bba3" fill-rule="evenodd"/>
          <path id="Trazado_772410" data-name="Trazado 772410" d="M231.668,316.835c-1.233-15.121-2.975-33.677-4-52.061l.019-.009a244.145,244.145,0,0,1-.3-24.661,128.859,128.859,0,0,1,2.775-22.505,68.038,68.038,0,0,1,4.8-13.974c1.761-3.789,3.807-7.4,5.741-11.1,3.871-7.4,6.211-13.715,6.845-22.146.6-8.05-1.464-15.087-4.7-22.353-2.488-5.577-5.478-10.942-7.815-16.585l-.295-.971c2.774-4.8,3.99-11.591,2.969-19.121-1.448-10.677-6.992-19.87-13.729-24.005,3.9-5.382,9.077-6.446,17.213-9.24,7.18,7.1,20.529,11.867,35.812,11.867S305.635,85.2,312.815,78.1c3.766,1.293,6.9,2.216,9.564,3.368a17,17,0,0,1,7.336,6.069c-6.595,4.225-11.99,13.3-13.415,23.809-.96,7.077.057,13.5,2.486,18.234-2.416,6.333-5.795,12.258-8.553,18.443-3.241,7.267-5.31,14.3-4.7,22.353.634,8.431,2.975,14.748,6.845,22.146,1.934,3.7,3.98,7.313,5.742,11.1a69,69,0,0,1,4.283,11.823H277V327.721c-16.73-.016-33.671-3.273-44.473-9.523l-.789-.455Z" transform="translate(-46.644 -16.265)" fill="#e44c7f" fill-rule="evenodd"/>
          <path id="Trazado_772411" data-name="Trazado 772411" d="M235.031,131.44h0l-.01-.034-.284-.937c2.774-4.8,3.99-11.591,2.969-19.12-1.448-10.678-6.992-19.87-13.729-24.006,3.9-5.381,9.077-6.446,17.213-9.24,7.18,7.1,20.529,11.867,35.812,11.867q.355,0,.709,0h.012l.667-.01.081,0c.207,0,.412-.01.618-.015l.082,0c.221-.006.442-.014.662-.022h.03l.653-.029.07,0c.2-.009.4-.021.6-.032l.123-.007.561-.036L282,89.8l.583-.043.106-.009.543-.045.19-.017c.157-.013.313-.029.469-.044l.252-.025.424-.044.246-.026.451-.051.238-.028.365-.044.376-.048.239-.032.44-.061.056-.008.2-.029.035-.006.363-.054.009,0,.2-.031.048-.008.356-.056.2-.032.028,0q.59-.1,1.172-.2l.2-.037.4-.075.2-.038c9.61,9.684,16.366,20.536,12.986,29.645-1.568,4.226-7.225,8.265-9.894,11.1-23.205,24.676-26.751,56.479-9.3,86.007H277V327.721q-.39,0-.785,0h-.006c-16.472-.116-33.051-3.368-43.682-9.519l-.788-.456-.074-.907c-1.233-15.12-2.975-33.676-4-52.061l.019-.009a244.142,244.142,0,0,1-.3-24.661,128.859,128.859,0,0,1,2.775-22.505,68.055,68.055,0,0,1,4.8-13.974c1.761-3.788,3.807-7.4,5.741-11.1,3.87-7.4,6.211-13.715,6.845-22.146.606-8.05-1.463-15.087-4.7-22.354-2.488-5.577-5.479-10.942-7.815-16.585" transform="translate(-46.644 -16.265)" fill="#e55c8b" fill-rule="evenodd"/>
          <path id="Trazado_772412" data-name="Trazado 772412" d="M291.294,95.514a.467.467,0,0,0-.933-.021v4.686a.467.467,0,0,0,.933.021Zm-.933,121.814a.467.467,0,0,0,.933.021v-2.407a.467.467,0,0,0-.933-.021Zm0-5.185a.467.467,0,0,0,.933.021v-4.686a.467.467,0,0,0-.933-.021Zm0-7.464a.467.467,0,0,0,.933.021v-4.686a.467.467,0,0,0-.933-.021Zm0-7.465a.467.467,0,0,0,.933.021V192.55a.467.467,0,0,0-.933-.021Zm0-7.465a.467.467,0,0,0,.933.021v-4.686a.467.467,0,0,0-.933-.021Zm0-7.464a.467.467,0,0,0,.933.021v-4.686a.467.467,0,0,0-.933-.021Zm0-7.465a.467.467,0,0,0,.933.021v-4.686a.467.467,0,0,0-.933-.021Zm0-7.464a.467.467,0,0,0,.933.021v-4.686a.467.467,0,0,0-.933-.021Zm0-7.465a.467.467,0,0,0,.933.021v-4.686a.467.467,0,0,0-.933-.021Zm0-7.464a.467.467,0,0,0,.933.021v-4.686a.467.467,0,0,0-.933-.021Zm0-7.465a.467.467,0,0,0,.933.021V140.3a.467.467,0,0,0-.933-.021Zm0-7.465a.467.467,0,0,0,.933.021v-4.686a.467.467,0,0,0-.933-.021Zm0-7.464a.467.467,0,0,0,.933.021v-4.686a.467.467,0,0,0-.933-.021Zm0-7.465a.467.467,0,0,0,.933.021v-4.686a.467.467,0,0,0-.933-.021Zm0-7.465a.467.467,0,0,0,.933.021v-4.686a.467.467,0,0,0-.933-.021Zm0-7.464a.467.467,0,0,0,.933.021v-4.686a.467.467,0,0,0-.933-.021Z" transform="translate(-60.468 -19.795)" fill="#9f3432" fill-rule="evenodd"/>
          <path id="Trazado_772413" data-name="Trazado 772413" d="M240.845,133.135a.467.467,0,0,0,.158.92c1.535-.272,3.059-.554,4.6-.8a.467.467,0,0,0-.052-.927.565.565,0,0,0-.1.006q-2.309.372-4.607.8m78.9.9a.467.467,0,0,0,.221-.9c-1.431-.347-3.184-.572-4.658-.812a.467.467,0,0,0-.147.922c1.531.247,3.06.509,4.584.8m-7.344-1.216a.466.466,0,0,0,.142-.922c-1.546-.226-3.093-.426-4.644-.616a.459.459,0,0,0-.318.078.467.467,0,0,0,.207.848c1.542.192,3.077.391,4.614.611m-7.389-.927a.467.467,0,0,0,.188-.909.559.559,0,0,0-.089-.018c-1.552-.142-3.1-.31-4.654-.447a.467.467,0,0,0-.088.929c1.552.129,3.094.3,4.643.445m-7.419-.663a.467.467,0,0,0,.079-.93c-1.557-.122-3.119-.2-4.678-.291a.467.467,0,0,0-.13.921.558.558,0,0,0,.082.011c1.548.1,3.1.188,4.646.289m-7.437-.417a.467.467,0,0,0,.147-.915.5.5,0,0,0-.11-.017c-1.558-.062-3.113-.106-4.672-.142a.466.466,0,1,0-.019.933c1.553.036,3.1.08,4.654.142m-7.447-.184a.466.466,0,0,0,.014-.933c-1.561,0-3.119-.02-4.68,0a.467.467,0,0,0,0,.933c1.557,0,3.11-.014,4.669,0m-7.45.044a.466.466,0,1,0-.021-.933q-2.335.047-4.672.144a.467.467,0,0,0,0,.933c1.542-.008,3.138-.112,4.69-.144m-7.445.274a.467.467,0,0,0,.025-.93.57.57,0,0,0-.074,0c-1.554.078-3.113.177-4.666.293a.467.467,0,0,0,.027.932c1.534-.048,3.141-.215,4.688-.293m-7.431.512a.467.467,0,0,0-.032-.932c-1.478.052-3.211.291-4.7.451a.467.467,0,0,0,.1.928q2.315-.248,4.633-.447m-7.408.764a.467.467,0,0,0-.107-.927c-1.55.194-3.095.394-4.641.618a.467.467,0,0,0,.058.929l.077,0q2.3-.337,4.614-.614" transform="translate(-50.078 -27.006)" fill="#9f3432" fill-rule="evenodd"/>
          <path id="Trazado_772414" data-name="Trazado 772414" d="M321.583,258.384a.467.467,0,0,0-.161-.919c-1.521.285-3.064.544-4.594.78a.466.466,0,0,0,.145.922c1.539-.238,3.079-.5,4.61-.782m-83.236-.918a.466.466,0,0,0-.179.915c.508.1,1.021.185,1.53.273a.467.467,0,0,0,.207-.909c-.5-.112-1.051-.188-1.558-.28m4.265.727a.467.467,0,0,0-.146.922q2.311.365,4.626.681a.466.466,0,0,0,.137-.922c-1.542-.216-3.078-.437-4.617-.68m7.375,1.035a.467.467,0,0,0-.188.911.591.591,0,0,0,.076.016q2.319.283,4.646.519a.466.466,0,0,0,.14-.921c-1.5-.226-3.144-.337-4.674-.525m7.408.784a.466.466,0,0,0-.367.8.472.472,0,0,0,.284.13c1.553.133,3.11.235,4.659.37a.467.467,0,0,0,.245-.881.492.492,0,0,0-.181-.05c-1.487-.175-3.128-.238-4.641-.367m7.43.546a.466.466,0,0,0-.13.92.725.725,0,0,0,.076.012c1.557.089,3.11.161,4.668.228a.466.466,0,0,0,.119-.921.553.553,0,0,0-.082-.012c-1.552-.07-3.1-.139-4.651-.227m7.443.324a.467.467,0,0,0-.027.933q2.337.063,4.673.093a.467.467,0,0,0,.084-.926.56.56,0,0,0-.074-.006q-2.33-.027-4.656-.093m7.45.109a.467.467,0,0,0-.021.933c1.548.028,3.143-.01,4.694-.037a.466.466,0,0,0-.017-.933q-2.328.04-4.656.037m7.45-.1a.467.467,0,0,0-.066.926.693.693,0,0,0,.091.007q2.335-.061,4.671-.173a.466.466,0,0,0-.034-.932c-1.554.064-3.107.131-4.662.171m7.443-.314a.467.467,0,0,0,.048.932c1.557-.1,3.113-.189,4.67-.31a.467.467,0,0,0,.014-.93.767.767,0,0,0-.086,0c-1.546.121-3.1.223-4.646.309m7.431-.537a.466.466,0,0,0,0,.929.485.485,0,0,0,.083,0q2.328-.2,4.652-.454a.467.467,0,0,0-.092-.929c-1.547.161-3.092.318-4.642.454m7.408-.772a.467.467,0,0,0,.106.927c1.549-.193,3.1-.39,4.641-.612a.467.467,0,0,0-.085-.928c-1.516.143-3.131.431-4.663.613" transform="translate(-49.522 -53.616)" fill="#9f3432" fill-rule="evenodd"/>
          <path id="Trazado_772415" data-name="Trazado 772415" d="M240.416,87.665a.466.466,0,1,0-.733.576l.559.724q.415.552.821,1.11c.451.629.9,1.269,1.328,1.918a.467.467,0,0,0,.777-.516c-.344-.528-.712-1.049-1.075-1.565l-.549-.762q-.417-.563-.842-1.118Zm20.3,236.972a.467.467,0,0,0,.933.025c0-.6.013-1.234.032-1.833a.467.467,0,0,0-.933-.027c-.015.611-.017,1.224-.031,1.835m.063-4.618a.467.467,0,0,0,.933.021c.025-1.558.021-3.12.04-4.678a.466.466,0,0,0-.933-.013c0,1.555-.028,3.115-.04,4.67m.061-7.462a.467.467,0,0,0,.934.006l.032-4.665a.467.467,0,0,0-.933-.012c0,1.555-.02,3.115-.032,4.671m.05-7.464a.466.466,0,0,0,.933.012c0-1.556.018-3.116.028-4.671a.466.466,0,0,0-.933-.012c0,1.557-.023,3.115-.029,4.671m.045-7.464a.466.466,0,0,0,.933.011c0-1.556.017-3.115.028-4.671a.467.467,0,0,0-.933-.011c0,1.556-.02,3.115-.027,4.671m.044-7.465a.466.466,0,0,0,.933.012c0-1.557.018-3.116.028-4.671a.466.466,0,0,0-.933-.011c0,1.556-.019,3.114-.028,4.671m.044-7.464a.466.466,0,0,0,.933.012c0-1.556.018-3.116.029-4.671a.466.466,0,1,0-.933-.006Zm.048-7.465a.466.466,0,0,0,.933.012c0-1.555.02-3.115.033-4.671a.467.467,0,0,0-.934-.013c0,1.556-.023,3.116-.032,4.672m.055-7.465a.466.466,0,0,0,.933.014c0-1.553.025-3.116.044-4.67a.467.467,0,0,0-.933-.025c-.038,1.553-.032,3.127-.044,4.681m.082-7.469a.467.467,0,0,0,.933.027c.032-1.557.072-3.114.108-4.671a.467.467,0,0,0-.933-.025c0,1.547-.082,3.117-.108,4.669m.173-7.464a.467.467,0,0,0,.933.024c0-1.54.07-3.123.1-4.667a.466.466,0,0,0-.932-.029q-.049,2.337-.105,4.673m.165-7.461a.466.466,0,0,0,.932.028l.1-4.674a.467.467,0,0,0-.933-.028Zm.149-7.462a.467.467,0,0,0,.934.017l.082-4.665a.467.467,0,0,0-.933-.025c-.032,1.557-.054,3.116-.083,4.672m.128-7.461a.466.466,0,0,0,.932.029c.039-1.557.046-3.123.066-4.681a.467.467,0,0,0-.933-.027c-.039,1.556-.043,3.122-.066,4.678m.1-7.461a.467.467,0,0,0,.926.084.565.565,0,0,0,.006-.074q.024-2.334.044-4.667a.466.466,0,0,0-.933-.013c0,1.554-.028,3.114-.044,4.669m.063-7.461a.466.466,0,0,0,.933.011c0-1.557.014-3.116.018-4.673a.467.467,0,0,0-.933-.017c-.02,1.557-.01,3.12-.018,4.678m.019-7.461a.467.467,0,0,0,.926.085.6.6,0,0,0,.008-.086q0-2.334-.013-4.667a.467.467,0,0,0-.926-.08.59.59,0,0,0-.008.086q.012,2.331.013,4.663m-.032-7.461a.467.467,0,0,0,.931.043l0-.051q-.019-2.334-.051-4.667a.467.467,0,0,0-.931-.035c-.053,1.507.036,3.183.049,4.71m-.094-7.459a.457.457,0,0,0,.064.228.467.467,0,0,0,.869-.245q-.038-2.334-.1-4.667a.467.467,0,0,0-.927-.06.571.571,0,0,0-.005.082q.056,2.331.1,4.662m-.168-7.457a.467.467,0,0,0,.933-.027q-.064-2.333-.148-4.666a.466.466,0,0,0-.932.033q.083,2.33.147,4.659m-.253-7.454a.467.467,0,0,0,.933,0c-.008-1.526-.133-3.166-.209-4.7a.466.466,0,0,0-.932.032c.058,1.556.146,3.115.208,4.671m-.353-7.449a.467.467,0,0,0,.932-.046c-.1-1.555-.179-3.112-.28-4.667a.467.467,0,0,0-.932.04c.069,1.55.194,3.119.279,4.673m-.47-7.442a.467.467,0,0,0,.931-.011v-.056q-.166-2.329-.362-4.657a.467.467,0,0,0-.932.032c.054,1.512.254,3.163.363,4.693m-.606-7.43a.466.466,0,0,0,.929-.087q-.215-2.325-.459-4.648a.467.467,0,0,0-.928,0,.5.5,0,0,0,0,.1q.243,2.317.458,4.636m-.766-7.414a.466.466,0,0,0,.927-.1c-.193-1.548-.374-3.095-.574-4.644a.467.467,0,1,0-.925.125c.215,1.533.393,3.084.572,4.621m-.952-7.39a.467.467,0,0,0,.928-.057l0-.077q-.333-2.314-.709-4.62a.466.466,0,0,0-.921.149c.281,1.5.488,3.089.706,4.6m-1.174-7.356a.466.466,0,0,0,.918-.162q-.4-2.3-.868-4.6a.467.467,0,0,0-.922.13l.008.056q.458,2.28.864,4.572m-1.436-7.3a.467.467,0,0,0,.911-.2q-.5-2.286-1.059-4.556a.466.466,0,0,0-.914.181c.3,1.5.73,3.062,1.061,4.576m-1.748-7.233a.467.467,0,0,0,.91-.2c-.327-1.462-.857-3.094-1.3-4.541a.466.466,0,1,0-.892.272q.676,2.224,1.279,4.47m-2.123-7.126a.466.466,0,0,0,.888-.285c-.486-1.485-1.013-2.965-1.567-4.427a.467.467,0,0,0-.875.324c.549,1.454,1.063,2.914,1.554,4.388m-2.575-6.971a.467.467,0,0,0,.888-.279.665.665,0,0,0-.025-.077c-.593-1.447-1.23-2.873-1.9-4.289a.467.467,0,0,0-.843.4c.66,1.4,1.289,2.812,1.876,4.244m-3.112-6.735a.467.467,0,0,0,.827-.432c-.719-1.389-1.484-2.761-2.293-4.1a.467.467,0,0,0-.833.413.592.592,0,0,0,.037.074c.8,1.31,1.555,2.678,2.261,4.043" transform="translate(-49.894 -18.219)" fill="#9f3432" fill-rule="evenodd"/>
          <path id="Trazado_772416" data-name="Trazado 772416" d="M336.076,88.241a.467.467,0,0,0-.717-.6,45.47,45.47,0,0,0-2.769,3.832.467.467,0,0,0,.741.565l.036-.048c.849-1.288,1.76-2.535,2.709-3.752M312.882,220.655a.467.467,0,0,0,.93.048l0-.056-.021-2.319a.466.466,0,0,0-.933,0c0,.777.013,1.556.02,2.332m-.04-5.12a.467.467,0,0,0,.926.08.606.606,0,0,0,.007-.086q-.013-2.331-.018-4.663a.467.467,0,0,0-.93-.049l0,.051q0,2.334.017,4.667m-.019-7.468a.467.467,0,0,0,.933.016c.019-1.556.006-3.12.013-4.678a.466.466,0,0,0-.933-.011c0,1.557-.013,3.116-.013,4.673m.032-7.468a.466.466,0,0,0,.933.014c0-1.553.029-3.116.051-4.668a.467.467,0,0,0-.933-.029c-.039,1.549-.051,3.132-.051,4.682m.094-7.468a.467.467,0,0,0,.933.025c.032-1.557.059-3.113.1-4.671a.467.467,0,0,0-.918-.13.53.53,0,0,0-.015.108q-.055,2.334-.1,4.667m.168-7.468a.467.467,0,0,0,.933.027q.066-2.33.148-4.659a.467.467,0,0,0-.911-.158.528.528,0,0,0-.021.124q-.083,2.332-.148,4.666m.254-7.465a.467.467,0,0,0,.928.086l0-.048q.1-2.329.208-4.656a.467.467,0,1,0-.932-.046q-.114,2.331-.208,4.664m.354-7.462a.466.466,0,1,0,.931.051q.127-2.327.279-4.652a.467.467,0,0,0-.919-.14.616.616,0,0,0-.013.079q-.154,2.329-.279,4.662m.47-7.457a.467.467,0,0,0,.93.073c.1-1.547.234-3.105.362-4.652a.466.466,0,0,0-.93-.078c-.13,1.549-.259,3.105-.363,4.656m.608-7.449a.466.466,0,0,0,.929.086c.139-1.542.285-3.1.458-4.635a.468.468,0,0,0-.908-.2.611.611,0,0,0-.02.1c-.167,1.547-.32,3.1-.459,4.65m.767-7.436a.467.467,0,0,0,.926.12c.193-1.546.369-3.089.573-4.634a.467.467,0,0,0-.924-.129c-.194,1.549-.394,3.092-.575,4.643m.956-7.415a.467.467,0,0,0,.923.142c.224-1.539.455-3.075.706-4.611a.467.467,0,1,0-.921-.151q-.376,2.306-.709,4.621m1.18-7.386a.467.467,0,0,0,.891.257.628.628,0,0,0,.027-.093c.272-1.526.553-3.053.864-4.572a.467.467,0,1,0-.914-.186c-.31,1.527-.6,3.061-.868,4.6m1.443-7.341a.467.467,0,0,0,.912.2c.326-1.513.677-3.028,1.052-4.53a.466.466,0,1,0-.9-.226c-.378,1.511-.731,3.036-1.059,4.558m1.759-7.278a.467.467,0,0,0,.9.245c.4-1.492.819-2.994,1.279-4.469a.467.467,0,0,0-.857-.357.544.544,0,0,0-.034.082c-.458,1.492-.883,2.994-1.288,4.5m2.139-7.178a.466.466,0,0,0,.883.3c.474-1.469,1.008-2.941,1.553-4.386a.467.467,0,0,0-.873-.332q-.828,2.194-1.563,4.416m2.6-7.032a.467.467,0,0,0,.85.383c.638-1.427,1.211-2.85,1.888-4.268a.467.467,0,0,0-.834-.42c-.687,1.374-1.317,2.884-1.9,4.3m3.147-6.811a.467.467,0,0,0,.827.434c.717-1.374,1.462-2.718,2.263-4.046a.466.466,0,1,0-.8-.484c-.811,1.345-1.566,2.7-2.292,4.1" transform="translate(-65.146 -18.218)" fill="#9f3432" fill-rule="evenodd"/>
          <path id="Trazado_772417" data-name="Trazado 772417" d="M244.988,188.054h72.971a21.966,21.966,0,0,0,.023,6.531H244.965a21.893,21.893,0,0,0,.023-6.531" transform="translate(-51.014 -39.163)" fill="#fab433" fill-rule="evenodd"/>
          <path id="Trazado_772418" data-name="Trazado 772418" d="M244.988,188.054h70.357a1.151,1.151,0,0,1,.038.272c0,2.484-8.3,4.716-21.5,6.259h-48.92a21.893,21.893,0,0,0,.023-6.531" transform="translate(-51.014 -39.163)" fill="#fcc846" fill-rule="evenodd"/>
          <path id="Trazado_772419" data-name="Trazado 772419" d="M247.687,188.054v3.353a.186.186,0,0,1-.373,0v-3.353Z" transform="translate(-51.504 -39.163)" fill="#ac273d" fill-rule="evenodd"/>
          <path id="Trazado_772420" data-name="Trazado 772420" d="M262.216,188.054v3.353a.186.186,0,0,1-.373,0v-3.353Z" transform="translate(-54.529 -39.163)" fill="#ac273d" fill-rule="evenodd"/>
          <path id="Trazado_772421" data-name="Trazado 772421" d="M276.778,188.054v3.353a.186.186,0,0,1-.373,0v-3.353Z" transform="translate(-57.562 -39.163)" fill="#ac273d" fill-rule="evenodd"/>
          <path id="Trazado_772422" data-name="Trazado 772422" d="M291.307,188.054v3.353a.186.186,0,0,1-.373,0v-3.353Z" transform="translate(-60.588 -39.163)" fill="#ac273d" fill-rule="evenodd"/>
          <path id="Trazado_772423" data-name="Trazado 772423" d="M305.9,188.054v3.353a.186.186,0,0,1-.373,0v-3.353Z" transform="translate(-63.627 -39.163)" fill="#ac273d" fill-rule="evenodd"/>
          <path id="Trazado_772424" data-name="Trazado 772424" d="M320.433,188.054v3.353a.186.186,0,0,1-.373,0v-3.353Z" transform="translate(-66.653 -39.163)" fill="#ac273d" fill-rule="evenodd"/>
          <path id="Trazado_772425" data-name="Trazado 772425" d="M334.928,188.054v3.353a.186.186,0,0,1-.373,0v-3.353Z" transform="translate(-69.672 -39.163)" fill="#ac273d" fill-rule="evenodd"/>
          <path id="Trazado_772426" data-name="Trazado 772426" d="M250.331,188.054v1.921a.186.186,0,1,1-.373,0v-1.921Z" transform="translate(-52.054 -39.163)" fill="#ac273d" fill-rule="evenodd"/>
          <path id="Trazado_772427" data-name="Trazado 772427" d="M253.4,188.054v1.921a.186.186,0,1,1-.373,0v-1.921Z" transform="translate(-52.694 -39.163)" fill="#ac273d" fill-rule="evenodd"/>
          <path id="Trazado_772428" data-name="Trazado 772428" d="M256.482,188.054v1.921a.186.186,0,1,1-.373,0v-1.921Z" transform="translate(-53.335 -39.163)" fill="#ac273d" fill-rule="evenodd"/>
          <path id="Trazado_772429" data-name="Trazado 772429" d="M259.555,188.054v1.921a.186.186,0,1,1-.373,0v-1.921Z" transform="translate(-53.975 -39.163)" fill="#ac273d" fill-rule="evenodd"/>
          <path id="Trazado_772430" data-name="Trazado 772430" d="M264.587,188.054v1.921a.186.186,0,1,1-.373,0v-1.921Z" transform="translate(-55.023 -39.163)" fill="#ac273d" fill-rule="evenodd"/>
          <path id="Trazado_772431" data-name="Trazado 772431" d="M267.66,188.054v1.921a.186.186,0,1,1-.373,0v-1.921Z" transform="translate(-55.663 -39.163)" fill="#ac273d" fill-rule="evenodd"/>
          <path id="Trazado_772432" data-name="Trazado 772432" d="M270.739,188.054v1.921a.186.186,0,1,1-.373,0v-1.921Z" transform="translate(-56.304 -39.163)" fill="#ac273d" fill-rule="evenodd"/>
          <path id="Trazado_772433" data-name="Trazado 772433" d="M273.811,188.054v1.921a.186.186,0,1,1-.373,0v-1.921Z" transform="translate(-56.944 -39.163)" fill="#ac273d" fill-rule="evenodd"/>
          <path id="Trazado_772434" data-name="Trazado 772434" d="M279.423,188.054v1.921a.187.187,0,1,1-.374,0v-1.921Z" transform="translate(-58.112 -39.163)" fill="#ac273d" fill-rule="evenodd"/>
          <path id="Trazado_772435" data-name="Trazado 772435" d="M282.495,188.054v1.921a.186.186,0,1,1-.373,0v-1.921Z" transform="translate(-58.752 -39.163)" fill="#ac273d" fill-rule="evenodd"/>
          <path id="Trazado_772436" data-name="Trazado 772436" d="M285.574,188.054v1.921a.186.186,0,1,1-.373,0v-1.921Z" transform="translate(-59.394 -39.163)" fill="#ac273d" fill-rule="evenodd"/>
          <path id="Trazado_772437" data-name="Trazado 772437" d="M288.647,188.054v1.921a.186.186,0,1,1-.373,0v-1.921Z" transform="translate(-60.034 -39.163)" fill="#ac273d" fill-rule="evenodd"/>
          <path id="Trazado_772438" data-name="Trazado 772438" d="M293.679,188.054v1.921a.186.186,0,1,1-.373,0v-1.921Z" transform="translate(-61.082 -39.163)" fill="#ac273d" fill-rule="evenodd"/>
          <path id="Trazado_772439" data-name="Trazado 772439" d="M296.752,188.054v1.921a.186.186,0,1,1-.373,0v-1.921Z" transform="translate(-61.722 -39.163)" fill="#ac273d" fill-rule="evenodd"/>
          <path id="Trazado_772440" data-name="Trazado 772440" d="M299.831,188.054v1.921a.186.186,0,1,1-.373,0v-1.921Z" transform="translate(-62.363 -39.163)" fill="#ac273d" fill-rule="evenodd"/>
          <path id="Trazado_772441" data-name="Trazado 772441" d="M302.9,188.054v1.921a.186.186,0,1,1-.373,0v-1.921Z" transform="translate(-63.002 -39.163)" fill="#ac273d" fill-rule="evenodd"/>
          <path id="Trazado_772442" data-name="Trazado 772442" d="M308.923,188.054v1.921a.186.186,0,1,1-.373,0v-1.921Z" transform="translate(-64.256 -39.163)" fill="#ac273d" fill-rule="evenodd"/>
          <path id="Trazado_772443" data-name="Trazado 772443" d="M312,188.054v1.921a.187.187,0,1,1-.374,0v-1.921Z" transform="translate(-64.896 -39.163)" fill="#ac273d" fill-rule="evenodd"/>
          <path id="Trazado_772444" data-name="Trazado 772444" d="M315.075,188.054v1.921a.186.186,0,1,1-.373,0v-1.921Z" transform="translate(-65.537 -39.163)" fill="#ac273d" fill-rule="evenodd"/>
          <path id="Trazado_772445" data-name="Trazado 772445" d="M318.148,188.054v1.921a.188.188,0,0,1-.188.187.186.186,0,0,1-.185-.187v-1.921Z" transform="translate(-66.177 -39.163)" fill="#ac273d" fill-rule="evenodd"/>
          <path id="Trazado_772446" data-name="Trazado 772446" d="M323.179,188.054v1.921a.186.186,0,1,1-.373,0v-1.921Z" transform="translate(-67.225 -39.163)" fill="#ac273d" fill-rule="evenodd"/>
          <path id="Trazado_772447" data-name="Trazado 772447" d="M326.252,188.054v1.921a.186.186,0,1,1-.373,0v-1.921Z" transform="translate(-67.865 -39.163)" fill="#ac273d" fill-rule="evenodd"/>
          <path id="Trazado_772448" data-name="Trazado 772448" d="M329.331,188.054v1.921a.186.186,0,1,1-.373,0v-1.921Z" transform="translate(-68.506 -39.163)" fill="#ac273d" fill-rule="evenodd"/>
          <path id="Trazado_772449" data-name="Trazado 772449" d="M332.4,188.054v1.921a.186.186,0,1,1-.373,0v-1.921Z" transform="translate(-69.146 -39.163)" fill="#ac273d" fill-rule="evenodd"/>
          <path id="Trazado_772450" data-name="Trazado 772450" d="M178.575,428.626H150.941q1.341,11.893,2.681,23.787a6.468,6.468,0,0,1-5.164,0Q131.29,300.066,114.12,147.719a6.369,6.369,0,0,1,5.163,0l2.681,23.786H149.6q-1.341-11.893-2.681-23.786a5.554,5.554,0,0,1,5.164,0q17.169,152.347,34.338,304.694a5.95,5.95,0,0,1-5.163,0Zm-28.181-4.866h27.633l-4.19-37.177H146.2Zm-.247-247.389H122.513l4.19,37.177h27.633Zm4.738,42.043H127.25l4.19,37.177h27.634Zm4.738,42.043H131.989l4.189,37.176h27.634ZM164.36,302.5H136.727l4.19,37.177H168.55Zm4.738,42.043H141.465l4.19,37.177h27.634Z" transform="translate(-23.766 -30.63)" fill="#8c746e" fill-rule="evenodd"/>
          <path id="Trazado_772451" data-name="Trazado 772451" d="M262.089,224.855s4.291-5.957,5.018-7.485a5.984,5.984,0,0,0-.906-5.559c-1.151-.816-.91-4.443-.537-6.41.6-3.176-.9-2.789-1.809-.535-1.584,3.93-5.437,15.786-4.811,19.3a4.228,4.228,0,0,0,3.044.685" transform="translate(-53.932 -42.295)" fill="#fea682" fill-rule="evenodd"/>
          <path id="Trazado_772452" data-name="Trazado 772452" d="M206.5,279.712c27.592,9.25,45.992-41.791,42.83-49.506-.733-.539-3.654-1.641-4.412-1.236-4.233,7.077-16.13,21.527-25.827,25.156-6.784,2.539-15.572-5.518-21.912,4.929-4.408,7.263-1.043,17.182,9.32,20.656" transform="translate(-40.669 -47.665)" fill="#152d83" fill-rule="evenodd"/>
          <path id="Trazado_772453" data-name="Trazado 772453" d="M206.5,286.194c.694.233,1.381.417,2.063.576,2.489-9.1,5.195-20.8-2.059-26.756-3.328-.069-6.559.967-9.324,5.523-4.408,7.264-1.043,17.183,9.32,20.657" transform="translate(-40.669 -54.148)" fill="#202d5a" fill-rule="evenodd"/>
          <path id="Trazado_772454" data-name="Trazado 772454" d="M245.287,239.191c-6.021,7.27-14.063,14.788-20.866,17.35a10.638,10.638,0,0,1-1.644.469c-8.788,1.77-1.409,35.573,18.735,3.689a78.706,78.706,0,0,0,8.537-18.554c2.125-6.917.584-9.408-4.762-2.953" transform="translate(-45.633 -49.033)" fill="#123c90" fill-rule="evenodd"/>
          <path id="Trazado_772455" data-name="Trazado 772455" d="M261.868,232.5a.972.972,0,1,1-.879.865.88.88,0,0,1,.879-.865" transform="translate(-54.35 -48.417)" fill="#6f4e61" fill-rule="evenodd"/>
          <path id="Trazado_772456" data-name="Trazado 772456" d="M163.424,436.76H170.9a9.482,9.482,0,0,1,.565-5.372h-7.473a6.415,6.415,0,0,1-.564,5.372" transform="translate(-34.033 -89.837)" fill="#feceb4" fill-rule="evenodd"/>
          <path id="Trazado_772457" data-name="Trazado 772457" d="M162.225,437.19c1.336,0,2.654.143,3.851.19,1.211-.047,2.57-.19,3.907-.19a2.727,2.727,0,0,1,2.979,3.013,3.028,3.028,0,0,1-.389,1.089H158.436a2.541,2.541,0,0,1-.071-1.089,3.872,3.872,0,0,1,3.861-3.013" transform="translate(-32.974 -91.046)" fill="#0d50a4" fill-rule="evenodd"/>
          <path id="Trazado_772458" data-name="Trazado 772458" d="M158.742,443.264h13.225a.687.687,0,0,0,.655-.572l.048-.321H158.3l-.047.321a.483.483,0,0,0,.488.572" transform="translate(-32.956 -92.125)" fill="#202d5a" fill-rule="evenodd"/>
          <path id="Trazado_772459" data-name="Trazado 772459" d="M167.148,441.149c1.578,0,3.086.053,4.518.143H173.2a3.015,3.015,0,0,0,.39-1.089,2.728,2.728,0,0,0-2.979-3.013c-1.336,0-2.7.143-3.906.189-1.2-.046-2.515-.189-3.851-.189a4.125,4.125,0,0,0-1.511.291c.6,2.136,2.873,3.668,5.808,3.668" transform="translate(-33.599 -91.046)" fill="#152d83" fill-rule="evenodd"/>
          <path id="Trazado_772460" data-name="Trazado 772460" d="M174.178,409.335c-.827.959-12.153.731-12.982-.118-1.456-10.909-.127-20.059.474-32.985.522-11.213,2.006-26.348,4.215-36.055,4.429-19.458,27.045-21.73,24.564,1.127-2.265,20.861-9.639,48.789-16.271,68.031" transform="translate(-33.432 -67.655)" fill="#cf035c" fill-rule="evenodd"/>
          <path id="Trazado_772461" data-name="Trazado 772461" d="M176.6,388.356c.785-3.226,1.535-6.5,2.221-9.788,2.706-12.991-13.811-12.421-14.946-1.226-.436,4.3-.765,8.62-.966,12.935-1.919,41.231,6.189,28.928,13.691-1.921" transform="translate(-33.867 -76.821)" fill="#d7206b" fill-rule="evenodd"/>
          <path id="Trazado_772462" data-name="Trazado 772462" d="M144.936,383.81h7.473a9.482,9.482,0,0,1,.565-5.372H145.5a6.415,6.415,0,0,1-.565,5.372" transform="translate(-30.183 -78.81)" fill="#feceb4" fill-rule="evenodd"/>
          <path id="Trazado_772463" data-name="Trazado 772463" d="M143.736,384.24c1.336,0,2.654.144,3.851.19,1.211-.046,2.57-.19,3.907-.19a2.728,2.728,0,0,1,2.979,3.014,3.039,3.039,0,0,1-.389,1.089H139.947a2.543,2.543,0,0,1-.071-1.089,3.872,3.872,0,0,1,3.861-3.014" transform="translate(-29.123 -80.019)" fill="#0d50a4" fill-rule="evenodd"/>
          <path id="Trazado_772464" data-name="Trazado 772464" d="M140.254,390.314h13.225a.686.686,0,0,0,.655-.571l.048-.322H139.813l-.047.322a.483.483,0,0,0,.488.571" transform="translate(-29.105 -81.098)" fill="#202d5a" fill-rule="evenodd"/>
          <path id="Trazado_772465" data-name="Trazado 772465" d="M148.66,388.2c1.578,0,3.086.053,4.518.143h1.532a3.015,3.015,0,0,0,.39-1.089,2.728,2.728,0,0,0-2.979-3.013c-1.336,0-2.7.143-3.906.189-1.2-.046-2.515-.189-3.851-.189a4.125,4.125,0,0,0-1.511.291c.6,2.135,2.873,3.668,5.808,3.668" transform="translate(-29.749 -80.019)" fill="#152d83" fill-rule="evenodd"/>
          <path id="Trazado_772466" data-name="Trazado 772466" d="M151.561,364.185c-.828.959-12.153.731-12.982-.118-5.008-18.361-7.606-32.148-7.993-42.184-.707-18.343,24.469-21.6,23.737,5.282-.382,14.03-.39,25.98-2.762,37.02" transform="translate(-27.192 -64.049)" fill="#df356e" fill-rule="evenodd"/>
          <path id="Trazado_772467" data-name="Trazado 772467" d="M147.9,363.489c1.161-7.775.178-10.92-3.267-18.324-4.9-10.531-12.509-20.336-11-8.4a208.588,208.588,0,0,0,5.34,26.082c1.5,5.748,8.166,5.709,8.921.645" transform="translate(-27.79 -68.993)" fill="#e55b8a" fill-rule="evenodd"/>
          <path id="Trazado_772468" data-name="Trazado 772468" d="M157.671,317.337c-.473,10.438-.473,19.746-.922,28.316-5.1-3.474-9.248-8.086-10.986-14.008-2.591-8.837,2.183-16.613,6.081-16.863,1.785-.113,3.754,1.025,5.826,2.554" transform="translate(-30.202 -65.553)" fill="#cf035c" fill-rule="evenodd"/>
          <path id="Trazado_772469" data-name="Trazado 772469" d="M190.154,328.749a10.29,10.29,0,0,1-.762,6.909c-2.8,6.356-9.24,9.986-19.963,9.091-10.252-.856-21.211-4.807-24.341-14.773-2.592-8.252-5.232-21.274-1.335-22.4a11.847,11.847,0,0,1,4.245.52c10.5,3.413,40.558,14.654,42.155,20.654" transform="translate(-29.526 -64.048)" fill="#df356e" fill-rule="evenodd"/>
          <path id="Trazado_772470" data-name="Trazado 772470" d="M170.877,325.413c10.379,2.486,23.238.914,22.167-5.439-2.544-15.092.051-24.55,2.85-31.818,4.458-11.581,10.008-27.638-6.79-30.531-4.326-.745-12.385.052-15.92,2.76-8.835,6.766-9.768,18.478-14.206,30.785-1.011,2.8-6.3,8.147-7.084,10.608-3.615,11.361,8.422,21.106,18.983,23.636" transform="translate(-31.496 -53.596)" fill="#152d83" fill-rule="evenodd"/>
          <path id="Trazado_772471" data-name="Trazado 772471" d="M172.213,263.553c-6.492,6.943-7.66,17.455-11.623,28.442a12.865,12.865,0,0,1-1.609,2.758,39.456,39.456,0,0,0,4.362-1.275c20.308-7.192,23.519-25.988,17.3-31.294-2-1.7-5.108-.662-8.434,1.368" transform="translate(-33.108 -54.423)" fill="#513946" fill-rule="evenodd"/>
          <path id="Trazado_772472" data-name="Trazado 772472" d="M186.681,257.383c-4.452-.187-10.548.743-13.5,3-8.834,6.766-9.768,18.478-14.206,30.785-1.011,2.8-6.3,8.147-7.083,10.608-2.773,8.716,3.665,16.48,11.581,20.766,10.951-7.22,20.358-22.931,23.447-41.155a63.1,63.1,0,0,0-.241-24.005" transform="translate(-31.496 -53.596)" fill="#123c90" fill-rule="evenodd"/>
          <path id="Trazado_772473" data-name="Trazado 772473" d="M154.465,308.006a17.072,17.072,0,0,0-2.57,4.028c-2,6.272.78,12.052,5.444,16.4,12.077-2.711,19.7-27.934-2.874-20.426" transform="translate(-31.496 -63.853)" fill="#0d50a4" fill-rule="evenodd"/>
          <path id="Trazado_772474" data-name="Trazado 772474" d="M172.213,263.553c-6.492,6.943-7.66,17.455-11.623,28.442a12.865,12.865,0,0,1-1.609,2.758,39.456,39.456,0,0,0,4.362-1.275c20.308-7.192,23.519-25.988,17.3-31.294-2-1.7-5.108-.662-8.434,1.368" transform="translate(-33.108 -54.423)" fill="#202d5a" fill-rule="evenodd"/>
          <path id="Trazado_772475" data-name="Trazado 772475" d="M126.443,245.85a4.027,4.027,0,0,0,5.412,2.3.606.606,0,0,1,.865.4c.336,1.054-.727,1.643-1.3,2.5-.7,1.051-1.37,2.24.272,4.157-.027.606-3.67,3.03-5.355,2.641-2.543-1.545-8.029-5.9-5.617-9.972,2.412-3.869,3.783-7.069,5.723-2.02" transform="translate(-25.016 -50.657)" fill="#febea0" fill-rule="evenodd"/>
          <path id="Trazado_772476" data-name="Trazado 772476" d="M127.471,260.922a12.838,12.838,0,0,1,5.707-2.88c.9,2.288,9.267,15.717,18.969,11.828,4.713-1.89,16.869-13.607,21.9-8.708,6.214,6.047,3,24.46-17.3,29.227-27.573,6.471-30.276-22.509-29.275-29.466" transform="translate(-26.511 -53.738)" fill="#123c90" fill-rule="evenodd"/>
          <path id="Trazado_772477" data-name="Trazado 772477" d="M136.168,278.509c7.147,13.141,26.748,9.487,34-.782,5.013-7.1,2.6-17.39-7.144-11.078-1.618,1.048-3.186,2.166-4.78,3.25a24.125,24.125,0,0,1-4.233,2.488,11.546,11.546,0,0,1-6.979.561,16.054,16.054,0,0,1-6.2-3.076c-8.233-6.363-8.032,2.437-4.659,8.638" transform="translate(-27.902 -55.121)" fill="#0d50a4" fill-rule="evenodd"/>
          <path id="Trazado_772478" data-name="Trazado 772478" d="M207.883,230.906c.85,3.427-.93,10.111-1.815,12.235-1.276,3.066-2.819,4.017-5.4,3.81-3.549-.285-6.59-4.38-6.18-9.48.473-5.9,2.653-9.913,8.942-9.224,2.087.229,4.044,1.021,4.45,2.659" transform="translate(-40.495 -47.517)" fill="#feceb4" fill-rule="evenodd"/>
          <path id="Trazado_772479" data-name="Trazado 772479" d="M192.834,233.79a1.251,1.251,0,0,0,1.725-.873c.407-1.39-.884-3.085.35-4.164.838-.734,3.77-.747,5.785.35,4.077,1.613,4.522-1.764,3.275-4.522-9.156,1.687-14.17.169-13.412,4.936.348,2.194-.057,3.66,2.277,4.273" transform="translate(-39.668 -46.769)" fill="#3b2933" fill-rule="evenodd"/>
          <path id="Trazado_772480" data-name="Trazado 772480" d="M190.431,248.259c1.793,2.9,2.705,5.321-.638,7.985,2.245,1.331,7.541,2.081,11.29,1.614-.882-4.288,1.7-8.6-.052-11.823-2.4.241-8.225,1.814-10.6,2.225" transform="translate(-39.525 -51.237)" fill="#fea682" fill-rule="evenodd"/>
          <path id="Trazado_772481" data-name="Trazado 772481" d="M191.783,252.232c.584,1.8.266,3.485-1.99,5.283,1.557.924,4.583,1.567,7.543,1.719-.843-3.2-2.205-5.935-3.944-6.891a2.232,2.232,0,0,0-1.609-.11" transform="translate(-39.525 -52.508)" fill="#febea0" fill-rule="evenodd"/>
          <path id="Trazado_772482" data-name="Trazado 772482" d="M199.246,218.4a3.828,3.828,0,0,1,3.712,2.265c3.055.061,6.883,3.842,2.7,9.465a4.981,4.981,0,0,1-.967,3.47,6.185,6.185,0,0,1-2.242,7.34,4.288,4.288,0,0,1-1.393.893,6.894,6.894,0,0,1-5.184,3.144,6.431,6.431,0,0,1-4.31-1.428,3.964,3.964,0,0,1-6.216-2.4,2.813,2.813,0,0,1-.825-5.5,6.593,6.593,0,0,1,2.66-11.746,5.412,5.412,0,0,1,9.076-3.766,3.822,3.822,0,0,1,2.992-1.731" transform="translate(-37.876 -45.48)" fill="#151e3b" fill-rule="evenodd"/>
          <path id="Trazado_772483" data-name="Trazado 772483" d="M129.225,263.322a.972.972,0,1,1-.879.865.88.88,0,0,1,.879-.865" transform="translate(-26.727 -54.837)" fill="#e55b8a" fill-rule="evenodd"/>
        </g>
      </g>
    </g>
  </g>
</svg>
