<svg xmlns="http://www.w3.org/2000/svg" width="505" height="240.386" viewBox="0 0 505 240.386">
  <g id="Grupo_56472" data-name="Grupo 56472" transform="translate(-273.224 -3881.04)">
    <path id="Trazado_105252" data-name="Trazado 105252" d="M307.978,4119.914s-45.156-78.36,12.6-136.739,107.434-26.035,132.638-27.657,33.287-52.751,107.848-68.172,207.3-9.846,144.822,101.664c-30.16,53.825,65.209,44.718,48.407,132.345Z" transform="translate(2.189 0)" fill="#ffcd91"/>
    <g id="Grupo_56469" data-name="Grupo 56469" transform="translate(300.097 3983.885)">
      <g id="Grupo_56461" data-name="Grupo 56461" transform="translate(137.336 5.827)">
        <g id="Grupo_56458" data-name="Grupo 56458">
          <rect id="Rectángulo_5553" data-name="Rectángulo 5553" width="181.642" height="3.572" transform="translate(198.145 7.069) rotate(180)" fill="#e8b491"/>
          <path id="Trazado_105253" data-name="Trazado 105253" d="M431.456,4101.084h3.707V3979.756a1.853,1.853,0,0,0-1.853-1.852h0a1.852,1.852,0,0,0-1.853,1.852Z" transform="translate(-418.145 -3977.904)" fill="#ce8d6a"/>
          <path id="Trazado_105254" data-name="Trazado 105254" d="M594.554,4101.01h3.707V3979.756a1.852,1.852,0,0,0-1.853-1.852h0a1.853,1.853,0,0,0-1.853,1.852Z" transform="translate(-398.263 -3977.904)" fill="#ce8d6a"/>
          <path id="Trazado_105255" data-name="Trazado 105255" d="M421.444,4090.2h26.623a1.853,1.853,0,0,0,1.853-1.854h0a1.854,1.854,0,0,0-1.853-1.854H421.444a1.853,1.853,0,0,0-1.853,1.854h0A1.853,1.853,0,0,0,421.444,4090.2Z" transform="translate(-419.591 -3964.667)" fill="#ce8d6a"/>
          <path id="Trazado_105256" data-name="Trazado 105256" d="M584.542,4090.2h26.623a1.853,1.853,0,0,0,1.853-1.854h0a1.853,1.853,0,0,0-1.853-1.854H584.542a1.854,1.854,0,0,0-1.853,1.854h0A1.853,1.853,0,0,0,584.542,4090.2Z" transform="translate(-399.709 -3964.667)" fill="#ce8d6a"/>
        </g>
        <g id="Grupo_56459" data-name="Grupo 56459" transform="translate(2.182 125.529)">
          <path id="Trazado_105257" data-name="Trazado 105257" d="M423.928,4089.794h2.191a2.392,2.392,0,1,1,0,4.784h-2.191a2.392,2.392,0,1,1,0-4.784Z" transform="translate(-421.536 -4089.794)" fill="#233862"/>
          <path id="Trazado_105258" data-name="Trazado 105258" d="M421.78,4092.156a2.118,2.118,0,1,0,2.118-2.118A2.118,2.118,0,0,0,421.78,4092.156Z" transform="translate(-421.506 -4089.764)" fill="#e8b491"/>
          <path id="Trazado_105259" data-name="Trazado 105259" d="M440.855,4089.794h2.191a2.392,2.392,0,1,1,0,4.784h-2.191a2.392,2.392,0,1,1,0-4.784Z" transform="translate(-419.473 -4089.794)" fill="#233862"/>
          <path id="Trazado_105260" data-name="Trazado 105260" d="M438.707,4092.156a2.118,2.118,0,1,0,2.118-2.118A2.118,2.118,0,0,0,438.707,4092.156Z" transform="translate(-419.443 -4089.764)" fill="#e8b491"/>
        </g>
        <g id="Grupo_56460" data-name="Grupo 56460" transform="translate(185.162 125.529)">
          <path id="Trazado_105261" data-name="Trazado 105261" d="M587.026,4089.794h2.191a2.392,2.392,0,1,1,0,4.784h-2.191a2.392,2.392,0,1,1,0-4.784Z" transform="translate(-584.634 -4089.794)" fill="#ce8d6a"/>
          <path id="Trazado_105262" data-name="Trazado 105262" d="M584.878,4092.156a2.118,2.118,0,1,0,2.118-2.118A2.118,2.118,0,0,0,584.878,4092.156Z" transform="translate(-584.604 -4089.764)" fill="#e8b491"/>
          <path id="Trazado_105263" data-name="Trazado 105263" d="M603.953,4089.794h2.191a2.392,2.392,0,1,1,0,4.784h-2.191a2.392,2.392,0,1,1,0-4.784Z" transform="translate(-582.571 -4089.794)" fill="#ce8d6a"/>
          <path id="Trazado_105264" data-name="Trazado 105264" d="M601.8,4092.156a2.118,2.118,0,1,0,2.118-2.118A2.118,2.118,0,0,0,601.8,4092.156Z" transform="translate(-582.541 -4089.764)" fill="#e8b491"/>
        </g>
        <path id="Trazado_105265" data-name="Trazado 105265" d="M551.743,4001.165c3.841-2.46,11.422-6.573,19.447-6.824v-6.869c0-.742.361-2.164,1.726-2.247a1.934,1.934,0,0,0,1.363-.7,2.207,2.207,0,0,0,.55-1.536,2.419,2.419,0,0,0-2.531-2.367,1.358,1.358,0,0,0-1.1.577h-1.225a2.514,2.514,0,0,1,2.321-1.631,3.448,3.448,0,0,1,3.581,3.324,3.261,3.261,0,0,1-.8,2.319,3,3,0,0,1-2.1,1.066c-.718.043-.735,1.151-.735,1.2v6.858c7.678.1,15.2,4.008,19.051,6.37a2.006,2.006,0,0,1-1.054,3.715H552.694a1.764,1.764,0,0,1-.951-3.25Zm.794,1.531a.146.146,0,0,0,.157.118h37.548a.386.386,0,0,0,.392-.3.375.375,0,0,0-.175-.451c-3.763-2.306-11.132-6.138-18.526-6.138l-.3,0c-7.783.11-15.262,4.171-19.029,6.583A.146.146,0,0,0,552.537,4002.7Z" transform="translate(-403.581 -3977.701)" fill="#ce8d6a"/>
        <path id="Trazado_105266" data-name="Trazado 105266" d="M467.891,4000.784c3.841-2.46,11.422-6.573,19.447-6.823v-6.87c0-.741.361-2.164,1.725-2.247a1.932,1.932,0,0,0,1.363-.7,2.206,2.206,0,0,0,.55-1.536,2.419,2.419,0,0,0-2.531-2.367,1.552,1.552,0,0,0-1.362,1h-1.141a2.652,2.652,0,0,1,2.5-2.058,3.448,3.448,0,0,1,3.58,3.324,3.256,3.256,0,0,1-.8,2.319,2.992,2.992,0,0,1-2.1,1.065c-.717.044-.734,1.151-.734,1.2v6.858c7.677.1,15.2,4.007,19.051,6.37a2.006,2.006,0,0,1-1.053,3.715H468.842a1.764,1.764,0,0,1-.951-3.25Zm.793,1.532a.148.148,0,0,0,.158.118H506.39a.386.386,0,0,0,.392-.3.376.376,0,0,0-.175-.451c-3.763-2.305-11.131-6.138-18.526-6.138l-.3,0c-7.783.11-15.262,4.171-19.029,6.583A.148.148,0,0,0,468.684,4002.316Z" transform="translate(-413.803 -3977.747)" fill="#ce8d6a"/>
        <path id="Trazado_105267" data-name="Trazado 105267" d="M457.149,4000.784c3.842-2.46,11.423-6.573,19.448-6.823v-6.87c0-.741.36-2.164,1.724-2.247a1.937,1.937,0,0,0,1.364-.7,2.212,2.212,0,0,0,.55-1.536,2.42,2.42,0,0,0-2.532-2.367,1.55,1.55,0,0,0-1.361,1H475.2a2.653,2.653,0,0,1,2.5-2.058,3.448,3.448,0,0,1,3.581,3.324,3.255,3.255,0,0,1-.8,2.319,2.994,2.994,0,0,1-2.1,1.065c-.717.044-.734,1.151-.735,1.2v6.858c7.678.1,15.2,4.007,19.052,6.37a2.007,2.007,0,0,1-1.053,3.715H458.1a1.764,1.764,0,0,1-.952-3.25Zm.794,1.532a.148.148,0,0,0,.158.118h37.548a.386.386,0,0,0,.392-.3.377.377,0,0,0-.175-.451c-3.764-2.305-11.132-6.138-18.526-6.138l-.3,0c-7.784.11-15.263,4.171-19.029,6.583A.147.147,0,0,0,457.943,4002.316Z" transform="translate(-415.112 -3977.747)" fill="#ce8d6a"/>
        <path id="Trazado_105268" data-name="Trazado 105268" d="M501.08,3994.829a21.97,21.97,0,0,1-14.281,4.9c-8.432-.316-12.436-4.532-12.436-4.532s-6.641,3.373-8.01,5.27-2,21.289-2,21.289a19.306,19.306,0,0,0,6.641,1.16l1.37-4.111-4.152,68.943s5.136.211,8.227-1.563c2.98-1.708,7.467.567,11.471,1.106s6.305-2.511,10.24-1.247a22.115,22.115,0,0,0,10.89.844l-6.317-68.282,1.711,4s5.871,0,7.768-2c0,0-2.248-20.622-3.513-21.886S501.08,3994.829,501.08,3994.829Z" transform="translate(-414.135 -3975.841)" fill="#80bdcc"/>
        <path id="Trazado_105269" data-name="Trazado 105269" d="M490.338,3994.7a21.962,21.962,0,0,1-14.281,4.9c-8.431-.316-12.436-4.532-12.436-4.532s-6.639,3.373-8.009,5.27-2,21.289-2,21.289a19.3,19.3,0,0,0,6.639,1.16l1.37-4.11-4.378,78.68s5.362.7,8.454-1.075c2.979-1.708,7.466.567,11.471,1.105s6.3-1.05,10.24.214a22.1,22.1,0,0,0,10.89.844l-6.319-79.968,1.712,3.994s5.871,0,7.768-2c0,0-2.248-20.622-3.513-21.886S490.338,3994.7,490.338,3994.7Z" transform="translate(-415.444 -3975.857)" fill="#233862"/>
        <path id="Trazado_105270" data-name="Trazado 105270" d="M584.932,3995.209a21.97,21.97,0,0,1-14.281,4.9c-8.432-.316-12.436-4.532-12.436-4.532s-6.641,3.373-8.01,5.27-2,21.289-2,21.289a19.313,19.313,0,0,0,6.641,1.16l-.305-3.86-2.477,68.693s5.136.211,8.227-1.563c2.98-1.708,7.467.568,11.473,1.106s6.3-2.511,10.238-1.247a22.116,22.116,0,0,0,10.89.844l-6.318-68.282,1.711,4s5.871,0,7.769-2c0,0-2.249-20.622-3.514-21.886S584.932,3995.209,584.932,3995.209Z" transform="translate(-403.913 -3975.795)" fill="#a8d29f"/>
        <path id="Trazado_105271" data-name="Trazado 105271" d="M526.5,4001.165a51.172,51.172,0,0,1,7.016-3.763,42,42,0,0,1,4.182-1.576,30.622,30.622,0,0,1,8.248-1.487h0v-6.867c0-.742.36-2.164,1.724-2.247a1.939,1.939,0,0,0,1.364-.7,2.211,2.211,0,0,0,.55-1.536,2.42,2.42,0,0,0-2.532-2.367,1.356,1.356,0,0,0-1.095.577H544.73a2.514,2.514,0,0,1,2.32-1.631,3.448,3.448,0,0,1,3.581,3.324,3.254,3.254,0,0,1-.8,2.319,3,3,0,0,1-2.1,1.066c-.717.043-.734,1.151-.735,1.2v6.857a30.388,30.388,0,0,1,9.182,1.694c1.331.447,2.6.951,3.79,1.477a52.93,52.93,0,0,1,6.08,3.2,2.006,2.006,0,0,1-1.052,3.715H527.447a1.764,1.764,0,0,1-.95-3.25Zm.792,1.532a.149.149,0,0,0,.158.118H565a.389.389,0,0,0,.393-.3.379.379,0,0,0-.177-.451,50.644,50.644,0,0,0-5.91-3.108c-1.178-.522-2.441-1.022-3.758-1.458a28.451,28.451,0,0,0-8.857-1.571c-.1,0-.2,0-.3,0a28.777,28.777,0,0,0-8.172,1.406,41.667,41.667,0,0,0-4.572,1.758,50.149,50.149,0,0,0-6.285,3.418A.148.148,0,0,0,527.289,4002.7Z" transform="translate(-406.659 -3977.701)" fill="#ce8d6a"/>
        <path id="Trazado_105272" data-name="Trazado 105272" d="M507.7,4000.785a52.448,52.448,0,0,1,6.078-3.2c1.189-.527,2.46-1.031,3.79-1.479a30.389,30.389,0,0,1,9.182-1.694v-6.857c0-.045-.017-1.152-.735-1.2a3,3,0,0,1-2.1-1.066,3.255,3.255,0,0,1-.8-2.317,3.448,3.448,0,0,1,3.581-3.324,2.485,2.485,0,0,1,2.275,1.536h-1.258a1.32,1.32,0,0,0-1.018-.482,2.421,2.421,0,0,0-2.532,2.367,2.211,2.211,0,0,0,.551,1.536,1.934,1.934,0,0,0,1.363.7c1.364.083,1.724,1.505,1.724,2.247v6.867h0a30.606,30.606,0,0,1,8.247,1.486,42.009,42.009,0,0,1,4.182,1.576,51.263,51.263,0,0,1,7.017,3.763,1.764,1.764,0,0,1-.951,3.25H508.748a2,2,0,0,1-1.051-3.713Zm.66,1.814a.387.387,0,0,0,.392.3H546.3a.164.164,0,0,0,.089-.3,50.3,50.3,0,0,0-6.285-3.418,41.773,41.773,0,0,0-4.573-1.758,28.828,28.828,0,0,0-8.172-1.406c-.1,0-.2,0-.3,0a28.457,28.457,0,0,0-8.857,1.57c-1.317.435-2.579.936-3.757,1.458a50.53,50.53,0,0,0-5.911,3.107A.377.377,0,0,0,508.357,4002.6Z" transform="translate(-408.968 -3977.691)" fill="#ce8d6a"/>
        <path id="Trazado_105273" data-name="Trazado 105273" d="M568.535,4073.681a6.146,6.146,0,0,1-6.287,1.43,12.266,12.266,0,0,0-8.569.494c-4.493,2.8-9.4,3.087-11.453-.492-1.366-2.387-5.691,2.53-14.653.676,0,0,7.407-45.228,7.617-50.589s-4.383-11.7-1.433-22.343c0,0,.012-.074.031-.208.04-.3.112-.882.158-1.6a13.478,13.478,0,0,0-.206-3.857,3.5,3.5,0,0,0-.669-1.458c1.189-.526,2.46-1.03,3.791-1.477.164.39.379.894.636,1.476.645,1.457,1.562,3.4,2.624,5.316.3.54.611,1.077.933,1.6,1.676,2.734,3.595,5.059,5.348,5.267,0,0,2.305-.31,5.219-5.267q.429-.73.875-1.6a47.161,47.161,0,0,0,2.327-5.479c.173-.484.348-.988.521-1.511a41.993,41.993,0,0,1,4.181,1.576,2.022,2.022,0,0,1,.156.266s-.143.552-.286,1.427a20.931,20.931,0,0,0-.283,3.721,14.625,14.625,0,0,0,.118,1.6c.009.07.019.139.03.208,0,0,1.375,2.667.954,7.516s-2.391,9.8-2.251,14.822C558.153,4031.947,568.325,4065.46,568.535,4073.681Zm-33.913-70.271c-.341-.214-.592-.375-.734-.466C534.03,4003.039,534.281,4003.2,534.622,4003.409Z" transform="translate(-406.428 -3975.935)" fill="#fc7972"/>
        <path id="Trazado_105274" data-name="Trazado 105274" d="M549.073,4066.461a6.145,6.145,0,0,1-6.287,1.43,12.267,12.267,0,0,0-8.57.494c-4.492,2.8-9.4,3.087-11.452-.491-1.368-2.388-5.691,2.529-14.654.675,0,0,9.105-37.928,9.316-43.291s-6.083-11.693-3.131-22.337c0,0,.012-.074.031-.208.039-.3.111-.881.158-1.6a13.524,13.524,0,0,0-.206-3.857,3.481,3.481,0,0,0-.669-1.456c1.189-.527,2.46-1.031,3.79-1.479.165.39.379.894.636,1.476.645,1.457,1.563,3.4,2.625,5.316.3.54.61,1.077.933,1.6,1.676,2.734,3.593,5.059,5.348,5.267,0,0,2.305-.31,5.218-5.267.287-.487.578-1.019.875-1.6a46.781,46.781,0,0,0,2.327-5.479c.173-.484.348-.989.521-1.511a42.009,42.009,0,0,1,4.182,1.576,2.016,2.016,0,0,1,.156.266s-.144.552-.286,1.427a20.817,20.817,0,0,0-.283,3.721,14.64,14.64,0,0,0,.118,1.6c.008.069.019.139.029.208,0,0,1.377,2.668.955,7.516s-2.392,9.8-2.252,14.822C538.691,4032.031,548.862,4058.241,549.073,4066.461Zm-33.913-62.968c-.342-.214-.592-.375-.734-.466C514.568,4003.123,514.818,4003.284,515.16,4003.493Z" transform="translate(-408.801 -3975.925)" fill="#4d8693"/>
      </g>
      <path id="Trazado_105275" data-name="Trazado 105275" d="M413.793,4102.909a1.461,1.461,0,0,0,1.461-1.461V4034.98h32.492v66.468a1.461,1.461,0,1,0,2.921,0v-69.389H412.332v69.389A1.461,1.461,0,0,0,413.793,4102.909Z" transform="translate(-283.139 -3965.475)" fill="#ba7556"/>
      <path id="Trazado_105276" data-name="Trazado 105276" d="M355.635,4016.693h0l7.563,35.718-2.99.018-6.932-32.743A2.48,2.48,0,0,1,355.635,4016.693Z" transform="translate(-290.345 -3967.348)" fill="#41828c"/>
      <path id="Trazado_105277" data-name="Trazado 105277" d="M355.983,4100.423a1.462,1.462,0,0,0,1.453-1.319l4.253-43.724h20.43l4.253,43.724a1.461,1.461,0,1,0,2.908-.283l-4.51-46.364H359.038l-4.51,46.364a1.461,1.461,0,0,0,1.313,1.6C355.888,4100.421,355.936,4100.423,355.983,4100.423Z" transform="translate(-290.187 -3962.989)" fill="#41828c"/>
      <rect id="Rectángulo_5554" data-name="Rectángulo 5554" width="28.534" height="2.435" transform="translate(96.325 119.706) rotate(180)" fill="#41828c"/>
      <path id="Trazado_105278" data-name="Trazado 105278" d="M370.306,4100.423a1.46,1.46,0,0,0,1.452-1.319l4.254-43.724h20.429l4.254,43.724a1.461,1.461,0,1,0,2.908-.283l-4.511-46.364H373.361l-4.511,46.364a1.462,1.462,0,0,0,1.313,1.6C370.211,4100.421,370.259,4100.423,370.306,4100.423Z" transform="translate(-288.441 -3962.989)" fill="#7bb8c6"/>
      <rect id="Rectángulo_5555" data-name="Rectángulo 5555" width="28.534" height="2.435" transform="translate(111.858 119.706) rotate(180)" fill="#7bb8c6"/>
      <path id="Trazado_105279" data-name="Trazado 105279" d="M402.773,4052.936H357.44a2.2,2.2,0,0,1-2.2-2.2h0a2.2,2.2,0,0,1,2.2-2.2h45.333a2.2,2.2,0,0,1,2.2,2.2h0A2.2,2.2,0,0,1,402.773,4052.936Z" transform="translate(-290.099 -3963.468)" fill="#fc7972"/>
      <rect id="Rectángulo_5556" data-name="Rectángulo 5556" width="34.307" height="13.074" rx="5.827" transform="translate(94.673 61.98) rotate(-180)" fill="#fc7972"/>
      <path id="Trazado_105280" data-name="Trazado 105280" d="M419.7,4077.064a1.426,1.426,0,0,0,1.187.993h.008a9.495,9.495,0,0,0,4.355-.919c.217-.082.412-.152.589-.21.046-.016.093-.032.138-.045s.073-.021.107-.034c1.715-.52,1.7.048,5.028-.744,3.79-.9,4.775-2.48,4.822-3.066.038-.5-1.706-.467-3.66-.448-.094,0-.19,0-.285,0l-.782,0c-2.336,0-3-.744-5.44-2.505-1.986-1.43-9.817-10.167-9.817-10.167l-3.389,4.009s6.884,5.853,7.2,8.027c.165,1.161-.348,2.052-.328,3.086,0,.073,0,.146.007.218A6.791,6.791,0,0,0,419.7,4077.064Z" transform="translate(-283.112 -3962.078)" fill="#e49963"/>
      <path id="Trazado_105281" data-name="Trazado 105281" d="M418.952,4075.689a1.426,1.426,0,0,0,1.187.993h.008a11,11,0,0,0,4.348-.928c.218-.079.415-.146.6-.2.046-.016.093-.032.138-.045s.073-.021.107-.034c1.715-.52,1.7.048,5.028-.744,3.79-.9,4.775-2.48,4.822-3.066.038-.5-1.706-.467-3.66-.448a11.5,11.5,0,0,1-5.5,2.352c-2.612.351-5.458-.065-7.35.106,0,.073,0,.146.007.218A6.791,6.791,0,0,0,418.952,4075.689Z" transform="translate(-282.365 -3960.703)" fill="#1c468a"/>
      <path id="Trazado_105282" data-name="Trazado 105282" d="M409.7,4090.28c.217,1.615,2.5,1.493,5.082,1.036s1.927.241,5.565.073,4.817-1.445,4.962-1.976c.129-.47-1.645-.751-3.545-1.1-.239-.042-.479-.087-.719-.133-2.144-.409-3.637-1.9-5.526-3.176-1.791-1.2-4.282-5.8-4.282-5.8l-4.978.075s2.346,4.114,3.241,5.9a5.988,5.988,0,0,1,.27,3.407A6.359,6.359,0,0,0,409.7,4090.28Z" transform="translate(-283.88 -3959.728)" fill="#e49963"/>
      <path id="Trazado_105283" data-name="Trazado 105283" d="M414.366,4090.529c2.59-.374,1.918.3,5.559.252s4.876-1.893,5.037-2.418c.145-.465-.89-.6-2.778-1.009l-.751-.166a8.243,8.243,0,0,1-5.328,1.709c-2.449-.177-4.97-1.127-6.661-1.264a6.4,6.4,0,0,0-.126,1.694C409.484,4090.948,411.776,4090.9,414.366,4090.529Z" transform="translate(-283.509 -3958.755)" fill="#1c468a"/>
      <path id="Trazado_105284" data-name="Trazado 105284" d="M408.791,4013.172s1.182-2.9,2.484-3.016,5.439-.769,5.735-.178a4.094,4.094,0,0,1-.887,3.489c-.886.769-6.385,2.011-6.385,2.011Z" transform="translate(-283.571 -3968.197)" fill="#e49963"/>
      <path id="Trazado_105285" data-name="Trazado 105285" d="M401.935,4038.868l15.495,26.515s2.441,4.293,1.092,5.225a13.828,13.828,0,0,1-3.142,1.447s-19.7-19.566-21.069-26.973S401.935,4038.868,401.935,4038.868Z" transform="translate(-285.354 -3964.654)" fill="#233862"/>
      <path id="Trazado_105286" data-name="Trazado 105286" d="M366.584,4035.317s32.427-1.089,38.353,3,13.829,49.238,13.829,49.238a3.983,3.983,0,0,1-1.975.548,16.357,16.357,0,0,1-3.982-.768s-13.2-20.6-13.974-25.685-.35-9.573-2.595-9.788-33.835,2.788-36.366-5.86a18.267,18.267,0,0,1,1.879-14.542Z" transform="translate(-289.624 -3965.547)" fill="#2b478b"/>
      <path id="Trazado_105287" data-name="Trazado 105287" d="M383.621,3998.852a17.489,17.489,0,0,0,1.308-6.021c-.042.318-.595,4.365-2.151,6.656-6.393,4.2-18.645,18.21-18.4,20.865,0,0-4.315-7.319-4.39-7.363,0,0-7.961-10.123,1.474-15.922,4.8-2.947,4.771-6.73,4.571-10.015s1.308-17.43,10.914-13.729a6.238,6.238,0,0,1,2.233-.582,1.88,1.88,0,0,0-.85.4,7.45,7.45,0,0,1,4.034.772C385.882,3975.917,389.033,3993.871,383.621,3998.852Z" transform="translate(-289.903 -3972.71)" fill="#2c3a64"/>
      <path id="Trazado_105288" data-name="Trazado 105288" d="M380.607,3997.792c.031.014-3.087,1.633-5.432.992-2.207-.6-3.648-3.462-3.618-3.469.935-.186,1.2-1.47,1.185-6.987l.422.083,7.1,1.407s-.162,2.235-.166,4.341C380.095,3995.926,380.2,3997.6,380.607,3997.792Z" transform="translate(-288.11 -3970.806)" fill="#e49963"/>
      <path id="Trazado_105289" data-name="Trazado 105289" d="M380.092,3989.808s-.162,2.235-.166,4.341c-3.975-.112-6.076-3.737-6.937-5.748Z" transform="translate(-287.935 -3970.797)" fill="#d68d5d"/>
      <path id="Trazado_105290" data-name="Trazado 105290" d="M372.622,3989.3a20.9,20.9,0,0,1-2.583-6.1c-.357-2.009.666-9.457,8.149-8.384a10.17,10.17,0,0,1,4.217,1.594c1.625,1.1,3.969,3.467,1.347,9.965l-.681,2.2Z" transform="translate(-288.302 -3972.467)" fill="#2c3a64"/>
      <path id="Trazado_105291" data-name="Trazado 105291" d="M381.537,3993.156s-9.4.155-9.41-5.7-1.224-9.782,4.779-10.128,7.172,1.887,7.65,3.841S383.983,3992.965,381.537,3993.156Z" transform="translate(-288.053 -3972.152)" fill="#e49963"/>
      <path id="Trazado_105292" data-name="Trazado 105292" d="M372.986,3978.557s6.423-4.391,8.455-1.355c.616-.528,1.714-.91,3.165.848,2.18,2.642.24,7.314.24,7.314-.9.1-1.106-2.967-1.575-4.459a7.456,7.456,0,0,0-2.092-2.77c-.82,1.849-3.076,6.274-6.186,7.075-3.951,1.016-5.666-.043-5.666-.043A11.184,11.184,0,0,0,372.986,3978.557Z" transform="translate(-288.382 -3972.292)" fill="#2c3a64"/>
      <path id="Trazado_105293" data-name="Trazado 105293" d="M357.565,4044.7c.507,1.408,2.062,1.771,4.147,1.526,3.975-.465,9.879-3.134,14.134-4.979,6.487-2.812,9.435-.169,11.5-1.959s-2.359-5.769,1.474-24.246c1.3-6.266-6.933-19.709-6.933-19.709s-.57,3.643-8.6-.778a73.737,73.737,0,0,0-6.368,10.091c-3.294,6.248-6.449,13.795-5.522,17.684C363.167,4029.745,356.091,4040.609,357.565,4044.7Z" transform="translate(-289.84 -3970.047)" fill="#86d1cd"/>
      <path id="Trazado_105294" data-name="Trazado 105294" d="M379.221,3995.249l4.854,19.942s.6,1.077,1.553,2.608c2.225,3.6,6.342,9.708,8.979,10.328,1.3.308,4.066-.775,7.126-2.321a145.009,145.009,0,0,0,12.628-7.506c.442-2.654-1.867-4.816-1.867-4.816s-13.858,5.208-15.234,5.307c-3,.214-6.054-14.266-8.857-19.091C386.375,3996.21,379.221,3995.249,379.221,3995.249Z" transform="translate(-287.176 -3969.962)" fill="#86d1cd"/>
      <path id="Trazado_105295" data-name="Trazado 105295" d="M378.64,3988.319s.175.744,2.026.629c0,0,1.554-.1,1.507-.913A5,5,0,0,0,378.64,3988.319Z" transform="translate(-287.246 -3970.865)" fill="#fff"/>
      <path id="Trazado_105296" data-name="Trazado 105296" d="M357.565,4042.816c.507,1.408,2.062,1.771,4.147,1.526,2.751-1.2,14.635-5.8,14.5-8.923-.2-4.619-2.285-4.766-.811-10.467,1.184-4.578-9.8-13.088-11.549-14.939-3.293,6.248-3.384,6.544-2.457,10.433C363.167,4027.86,356.091,4038.725,357.565,4042.816Z" transform="translate(-289.84 -3968.163)" fill="#599dad"/>
      <path id="Trazado_105297" data-name="Trazado 105297" d="M384.932,4015.435c2.225,3.6,6.342,9.708,8.979,10.328,1.3.308,4.066-.775,7.126-2.321a18.522,18.522,0,0,1-6.513.356c-2.284-.221-2.948-3.022-6.56-7.224C385.622,4013.85,385.046,4014.536,384.932,4015.435Z" transform="translate(-286.479 -3967.599)" fill="#599dad"/>
      <path id="Trazado_105298" data-name="Trazado 105298" d="M334.367,4102.909a1.461,1.461,0,0,0,1.462-1.461V4036.1h32.492v65.348a1.461,1.461,0,1,0,2.921,0v-69.389H332.906v69.389A1.461,1.461,0,0,0,334.367,4102.909Z" transform="translate(-292.821 -3965.475)" fill="#ba7556"/>
      <rect id="Rectángulo_5557" data-name="Rectángulo 5557" width="40.872" height="3.78" transform="translate(73.507 67.898) rotate(180)" fill="#e8b491"/>
      <rect id="Rectángulo_5558" data-name="Rectángulo 5558" width="98.632" height="3.78" transform="translate(172.139 67.898) rotate(180)" fill="#ce8d6a"/>
      <path id="Trazado_105299" data-name="Trazado 105299" d="M375.03,4015.546v-7.988a2.061,2.061,0,0,1,2.061-2.061h9.782a2.06,2.06,0,0,1,2.061,2.061h15.846v7.369H390.995a2.062,2.062,0,0,0-2.061,2.062h-.107a1.686,1.686,0,0,0-1.669,1.92l1.241,8.855h23.88v5.068H375.25v-3.95a1.118,1.118,0,0,1,1.117-1.118h0l.348-9.024a1.687,1.687,0,0,0-.746-1.465A2.088,2.088,0,0,1,375.03,4015.546Z" transform="translate(-287.687 -3968.713)" fill="#d86713"/>
      <path id="Trazado_105300" data-name="Trazado 105300" d="M378.194,4015.546v-7.988a2.061,2.061,0,0,1,2.062-2.061h9.781a2.06,2.06,0,0,1,2.061,2.061h15.847v7.369H394.16a2.062,2.062,0,0,0-2.062,2.062h-.107a1.687,1.687,0,0,0-1.669,1.92l1.241,8.855h21.953a1.927,1.927,0,0,1,1.927,1.926v3.142H378.414v-3.95a1.118,1.118,0,0,1,1.117-1.118h0l.348-9.024a1.682,1.682,0,0,0-.746-1.465A2.088,2.088,0,0,1,378.194,4015.546Z" transform="translate(-287.301 -3968.713)" fill="#f1a34f"/>
      <rect id="Rectángulo_5559" data-name="Rectángulo 5559" height="0.341" transform="translate(120.622 53.582)" fill="#9ed9f0"/>
      <path id="Trazado_105301" data-name="Trazado 105301" d="M405.088,4005.5h4.994a2.372,2.372,0,0,1,2.373,2.372v6.747a2.373,2.373,0,0,1-2.373,2.373h-1.154v4.649a1.388,1.388,0,0,1-1.071,1.351v3.942h-.585V4023a1.388,1.388,0,0,1-1.12-1.362v-4.649h-1.064a2.373,2.373,0,0,1-2.373-2.373v-6.747A2.372,2.372,0,0,1,405.088,4005.5Z" transform="translate(-284.312 -3968.713)" fill="#f1a34f"/>
      <path id="Trazado_105302" data-name="Trazado 105302" d="M405.879,4005.252h.484v-3.067h-.456v-.53H407.2v-.493h.149v.493h1.17v.53h-.511v3.067h.484v.529h-1.143v.785H407.2v-.785h-1.319Z" transform="translate(-283.926 -3969.242)" fill="#f1a34f"/>
      <path id="Trazado_105303" data-name="Trazado 105303" d="M377.241,4004.666c2.556,0,4.627,3.2,4.627,7.142s-2.071,7.141-4.627,7.141-4.626-3.2-4.626-7.141S374.686,4004.666,377.241,4004.666Zm-3.3,6.217h1.51a2.659,2.659,0,0,1,1.195-1.845v-2.333C375.267,4007.088,374.183,4008.761,373.937,4010.883Zm3.9-4.177v2.333a2.652,2.652,0,0,1,1.195,1.845h1.511C380.3,4008.761,379.215,4007.088,377.84,4006.706Zm2.706,6.027h-1.511a2.655,2.655,0,0,1-1.195,1.845v2.333C379.215,4016.527,380.3,4014.854,380.546,4012.732Zm-3.9,4.177v-2.333a2.662,2.662,0,0,1-1.195-1.845h-1.51C374.183,4014.854,375.267,4016.527,376.642,4016.91Z" transform="translate(-287.981 -3968.814)" fill="#e8b491"/>
      <path id="Trazado_105304" data-name="Trazado 105304" d="M376.6,4004.666c2.555,0,4.626,3.2,4.626,7.142s-2.071,7.141-4.626,7.141-4.627-3.2-4.627-7.141S374.042,4004.666,376.6,4004.666Zm-3.305,6.217H374.8a2.651,2.651,0,0,1,1.195-1.845v-2.333C374.623,4007.088,373.541,4008.761,373.293,4010.883Zm3.9-4.177v2.333a2.659,2.659,0,0,1,1.195,1.845h1.51C379.655,4008.761,378.571,4007.088,377.2,4006.706Zm2.7,6.027h-1.51a2.662,2.662,0,0,1-1.195,1.845v2.333C378.571,4016.527,379.655,4014.854,379.9,4012.732Zm-3.9,4.177v-2.333a2.655,2.655,0,0,1-1.195-1.845h-1.511C373.541,4014.854,374.623,4016.527,376,4016.91Z" transform="translate(-288.059 -3968.814)" fill="#ba7556"/>
      <path id="Trazado_105305" data-name="Trazado 105305" d="M372.885,4014.713s1.99-1.547,3.869-1.179,2.8,1.658,2.727,2.248a3.353,3.353,0,0,1-2.506,2.4c-1.437.147-5.529-.885-5.529-.885Z" transform="translate(-288.123 -3967.74)" fill="#e49963"/>
      <path id="Trazado_105306" data-name="Trazado 105306" d="M373.718,3994.555s-7.664.472-10.317,4.172c-3.735,5.209-12.7,28.38-8.452,31.341,4.782,3.334,21.34-8.716,21.34-8.716s.565-2.642-.221-3.92-10.319,2.111-10.909,1.521,6.105-8.333,6.105-10.1S373.718,3994.555,373.718,3994.555Z" transform="translate(-290.271 -3970.047)" fill="#86d1cd"/>
      <path id="Trazado_105307" data-name="Trazado 105307" d="M398.745,4025.446s8.083.8,7.694,5.068c0,0,3.993.566,3.7,3.779s-5.064,30-1.461,41.1-22.3,17.634-22.3,28.44h92.808s-18.99-.393-20.743-9.352,6.525-21.407,1.656-29.839.194-36.3-20.159-35.214c-15.971-.1-26.525-6.561-32.149-4.516A19.782,19.782,0,0,0,398.745,4025.446Z" transform="translate(-286.303 -3966.396)" fill="#fc7972"/>
      <path id="Trazado_105308" data-name="Trazado 105308" d="M416.488,4049.9s4.442,33.792-7.81,39.636,13.068,8.187,22.71,5.8c0,0-12.161.935-12.995-4.769S422.233,4068.01,416.488,4049.9Z" transform="translate(-283.985 -3963.301)" fill="#c4453b"/>
      <path id="Trazado_105309" data-name="Trazado 105309" d="M439.336,4082.542a25.408,25.408,0,0,0,2.824-22.594c-4.577-12.66-.876-25.709-5.551-26.2s-.681,20.451,2.337,26.489S439.336,4082.542,439.336,4082.542Z" transform="translate(-280.441 -3965.27)" fill="#c4453b"/>
      <path id="Trazado_105310" data-name="Trazado 105310" d="M422.977,4042.6a71.479,71.479,0,0,1,3.434,34.29S432.03,4061.464,422.977,4042.6Z" transform="translate(-281.842 -3964.19)" fill="#c4453b"/>
      <path id="Trazado_105311" data-name="Trazado 105311" d="M405.756,4025.385a6.059,6.059,0,0,1,4.638,4.566S411.022,4026.185,405.756,4025.385Z" transform="translate(-283.941 -3966.289)" fill="#c4453b"/>
      <path id="Trazado_105312" data-name="Trazado 105312" d="M379.684,4025.59l.108-1.886,10.737,1.85Z" transform="translate(-287.119 -3966.494)" fill="#d86713"/>
      <path id="Trazado_105313" data-name="Trazado 105313" d="M390.617,4007.678s.31,6.609-.567,7.6C390.05,4015.273,391.858,4014.744,390.617,4007.678Z" transform="translate(-285.856 -3968.448)" fill="#d86713"/>
      <path id="Trazado_105314" data-name="Trazado 105314" d="M402.743,4008.28v5.587A16.288,16.288,0,0,1,402.743,4008.28Z" transform="translate(-284.34 -3968.374)" fill="#d86713"/>
      <g id="Grupo_56468" data-name="Grupo 56468" transform="translate(0 79.895)">
        <g id="Grupo_56463" data-name="Grupo 56463" transform="translate(4.679 22.328)">
          <path id="Trazado_105315" data-name="Trazado 105315" d="M322.984,4073.29s3.913-4.563.241-7.464c0,0-2.681-1.623-4.868-1.491,0,0,3.1,5.2,2.1,5.712s-3.035-6.039-3.035-6.039-6.1-.591-8.066.352c0,0,5.218,4.27,4.119,4.523s-6.734-3.937-6.734-3.937-5.68.967-5.377,4.431,2.261,4.536,3.12,4.443,5.892-2.013,6-1.308-2.919,3.009-5.041,3.116c0,0,4.005,4.416,6.666,3.142s2.888-3.3,4.547-4.053,3.075-.756,2.391.017-3.688,1.523-4.637,3.2-1.8,2.81.954,2.4,7.23-2.429,7.426-4.735Z" transform="translate(-301.348 -4063.826)" fill="#599dad"/>
          <g id="Grupo_56462" data-name="Grupo 56462" transform="translate(2.803 5.621)">
            <path id="Trazado_105316" data-name="Trazado 105316" d="M303.846,4068.863s15.427-.595,18.833,3.816a11.16,11.16,0,0,0,3.072,4.312l.362.985s-2.673-2.818-3.63-2.988C322.483,4074.988,323.98,4069.521,303.846,4068.863Z" transform="translate(-303.846 -4068.836)" fill="#599dad"/>
            <path id="Trazado_105317" data-name="Trazado 105317" d="M323.466,4076.147a9.688,9.688,0,0,1,3.542,6.825l-.6.054s-1.057-4.523-2.969-6.293S323.466,4076.147,323.466,4076.147Z" transform="translate(-301.56 -4067.992)" fill="#599dad"/>
          </g>
        </g>
        <g id="Grupo_56465" data-name="Grupo 56465" transform="translate(35.904 9.935)">
          <path id="Trazado_105318" data-name="Trazado 105318" d="M333.272,4068.9s-6.224-3.486-3.32-8.216c0,0,2.323-2.9,4.813-3.652,0,0-1.327,7.053,0,7.219s.913-7.966.913-7.966,6.556-3.154,9.129-2.9c0,0-4.067,6.888-2.739,6.722s5.892-7.137,5.892-7.137,6.721-1.244,7.8,2.739-.664,5.975-1.66,6.224-7.385.166-7.219,1,4.481,2.157,6.887,1.41c0,0-2.656,6.557-6.14,6.225s-4.565-2.49-6.722-2.656-3.735.415-2.656,1,4.73.189,6.473,1.671,3.153,2.394-.083,3.059-9.046.249-10.208-2.241Z" transform="translate(-329.18 -4052.779)" fill="#86d1cd"/>
          <g id="Grupo_56464" data-name="Grupo 56464" transform="translate(0.805 4.168)">
            <path id="Trazado_105319" data-name="Trazado 105319" d="M352.426,4056.494s-17.428,5.643-19.419,11.951a13.228,13.228,0,0,1-1.66,6.057v1.246s1.826-4.232,2.822-4.813C334.169,4070.934,330.269,4065.457,352.426,4056.494Z" transform="translate(-329.72 -4056.494)" fill="#599dad"/>
            <path id="Trazado_105320" data-name="Trazado 105320" d="M331.524,4072.629a11.5,11.5,0,0,0-1.154,9.05l.691-.186s-.671-5.472.735-8.224S331.524,4072.629,331.524,4072.629Z" transform="translate(-329.897 -4054.621)" fill="#599dad"/>
          </g>
        </g>
        <g id="Grupo_56467" data-name="Grupo 56467">
          <path id="Trazado_105321" data-name="Trazado 105321" d="M327.271,4065.169s8.2-4.594,4.375-10.83c0,0-3.063-3.829-6.344-4.813,0,0,1.75,9.3,0,9.517s-1.2-10.5-1.2-10.5-8.642-4.157-12.034-3.829c0,0,5.36,9.08,3.61,8.86s-7.767-9.407-7.767-9.407-8.861-1.642-10.282,3.61.875,7.876,2.188,8.2,9.736.219,9.517,1.313-5.907,2.844-9.08,1.859c0,0,3.5,8.642,8.095,8.2s6.017-3.282,8.861-3.5,4.923.547,3.5,1.313-6.236.251-8.533,2.2-4.157,3.156.11,4.031,11.924.328,13.455-2.954Z" transform="translate(-297.177 -4043.924)" fill="#86d1cd"/>
          <g id="Grupo_56466" data-name="Grupo 56466" transform="translate(4.496 5.493)">
            <path id="Trazado_105322" data-name="Trazado 105322" d="M301.184,4048.82s22.973,7.439,25.6,15.752a17.446,17.446,0,0,0,2.188,7.986v1.641s-2.406-5.579-3.719-6.346C325.251,4067.854,330.392,4060.635,301.184,4048.82Z" transform="translate(-301.184 -4048.82)" fill="#599dad"/>
            <path id="Trazado_105323" data-name="Trazado 105323" d="M326.07,4070.09a15.151,15.151,0,0,1,1.524,11.928l-.912-.245s.885-7.213-.968-10.841S326.07,4070.09,326.07,4070.09Z" transform="translate(-298.284 -4046.352)" fill="#599dad"/>
          </g>
        </g>
        <path id="Trazado_105324" data-name="Trazado 105324" d="M325.993,4095.015a16.071,16.071,0,0,1-16.071-16.07h32.142A16.07,16.07,0,0,1,325.993,4095.015Z" transform="translate(-295.623 -4039.655)" fill="#f1a34f"/>
        <path id="Trazado_105325" data-name="Trazado 105325" d="M320.722,4094.893a16.078,16.078,0,0,0,18.067-15.947H334.8A16.074,16.074,0,0,1,320.722,4094.893Z" transform="translate(-294.307 -4039.655)" fill="#ffb973"/>
        <path id="Trazado_105326" data-name="Trazado 105326" d="M309.725,4094.213h32.586a1.982,1.982,0,0,0-1.982-1.982H311.707a1.982,1.982,0,0,0-1.982,1.982Z" transform="translate(-295.647 -4038.035)" fill="#f1a34f"/>
        <rect id="Rectángulo_5560" data-name="Rectángulo 5560" width="33.036" height="0.493" transform="translate(46.97 39.783) rotate(180)" fill="#d86713"/>
      </g>
    </g>
    <g id="Grupo_56471" data-name="Grupo 56471" transform="translate(638.475 3936.444)">
      <path id="Trazado_105327" data-name="Trazado 105327" d="M641.8,3969.272a68.705,68.705,0,0,0,5.256,5.652c3.5,3.361,8.192,7.109,12.312,7.808a6.574,6.574,0,0,0,3.169-.156,18.908,18.908,0,0,0,6.151-3.746,64.2,64.2,0,0,0,10.362-12.13l-2.945-3.335s-6.587,4.893-10.708,7.519c-1.639,1.04-2.881,2.274-3.173,2.149-1.024-.438-18.75-12.937-18.75-12.937Z" transform="translate(-593.545 -3926.807)" fill="#ffb27d"/>
      <path id="Trazado_105328" data-name="Trazado 105328" d="M641.8,3969.272a68.705,68.705,0,0,0,5.256,5.652,133.41,133.41,0,0,0,12.312,7.808,7.337,7.337,0,0,0,2.4.986c2.177-.128,6.849-3.073,6.849-3.073a10.35,10.35,0,0,0,.071-1.815,14.1,14.1,0,0,0-3.292-7.946c-1.639,1.04-2.888,1.723-3.18,1.6-1.024-.437-18.744-12.386-18.744-12.386Z" transform="translate(-593.545 -3926.807)" fill="#1e3d70"/>
      <g id="Grupo_56470" data-name="Grupo 56470" transform="translate(74.753 16.33)">
        <path id="Trazado_105329" data-name="Trazado 105329" d="M670.11,4014.025c-.606,3.709-1.02,6.407-1.02,6.407a40.668,40.668,0,0,0,14.837,2.956c1.7.056,3.377.036,5.016-.037,2.553-.112,5-.355,7.234-.657a84.243,84.243,0,0,0,11.277-2.262,40.258,40.258,0,0,0-3.922-17.037c-2.353-5.189-5.033-9.144-5.768-12.354-.92-4.022,1.04-13.4,2.457-19.248.72-2.963,1.3-5.019,1.3-5.019,4.944-7.251,2.571-11.5,2.571-11.5s-2.3-.96-5.187-1.839l-.043-.015c-.991-.3-2.045-.591-3.1-.831a24.752,24.752,0,0,0-3.194-.528c-2.817-.245-2.965-6.641-2.965-6.641a9.87,9.87,0,0,0-3.9-.431,20.841,20.841,0,0,0-3.416.431s0,5.058-2.367,6.111c-1.217.542-3.533,1.531-5.8,2.491v0l-.228.094-.748.316-.969.411-.467.2-.751.316c-1.694.715-2.924,1.229-2.924,1.229-1.055,2.732,2.639,8.868,2.639,8.868a6.232,6.232,0,0,0-.258,1.38l-.018.229a33.7,33.7,0,0,0,.82,7.729c1.008,5.279,2.6,11.331,2.976,15.4a9.718,9.718,0,0,1-.128,3.434.919.919,0,0,1-.033.109c-.156.471-.33,1.111-.516,1.88C672.479,3999.893,671.058,4008.2,670.11,4014.025Z" transform="translate(-665.123 -3944.979)" fill="#2a4e96"/>
        <path id="Trazado_105330" data-name="Trazado 105330" d="M665.7,4104.414l17.5-11.378a4.159,4.159,0,0,0,1.892-3.536l-1.057-88.119c0-.766,1.751-1.551,2.516-1.551s3.044.322,3.044,1.087l-2.04,89.162a2.871,2.871,0,0,0,1.307,2.474l18.248,11.862a.615.615,0,0,1-.335,1.131h0l-18.62-8.164a4.365,4.365,0,0,0-3.5,0l-18.62,8.164A.615.615,0,0,1,665.7,4104.414Z" transform="translate(-665.419 -3938.293)" fill="#2a4e96"/>
      </g>
      <path id="Trazado_105331" data-name="Trazado 105331" d="M631.948,3958.433s5.555,6.157,11.843,3.707a39.156,39.156,0,0,0,.754-5.983c0-.3.007-.584.011-.857.034-2.716.125-4.24.125-4.24h-.006c-.286-.12-9.612-3.948-9.6-3.63C635.231,3954.773,631.948,3958.433,631.948,3958.433Z" transform="translate(-594.747 -3928.353)" fill="#ffb27d"/>
      <path id="Trazado_105332" data-name="Trazado 105332" d="M635.567,3948.994a14.584,14.584,0,0,0,8.549,6.12c.034-2.716.125-4.24.125-4.24h-.006C643.975,3950.8,635.3,3948.5,635.567,3948.994Z" transform="translate(-594.306 -3928.168)" fill="#ed975d"/>
      <path id="Trazado_105333" data-name="Trazado 105333" d="M669.864,4013.2a59.3,59.3,0,0,0,13.7-.07,41.92,41.92,0,0,0,5.369-1.042c5.548-1.48,10.922-4.312,14.349-9.518-2.353-5.19-5.033-9.145-5.768-12.356-.919-4.022,1.039-13.4,2.458-19.247l-1.316-18.359v0l-.044-.013s-1-.3-1.325-.4c-.49-.147-1.77-.43-1.77-.43s1.05,11.749-15.593,12.44c-5.238.217-8.183.932-9.757,1.807-.6,6.682,5.084,22.5,3.617,26.9C672.762,3995.991,670.983,4006.327,669.864,4013.2Z" transform="translate(-590.125 -3927.823)" fill="#fc7972"/>
      <path id="Trazado_105334" data-name="Trazado 105334" d="M646.506,3952.289s-10.488,2.466-11.922-4.088-3.755-10.652,2.88-12.5,8.488.363,9.5,2.434S649.2,3951.479,646.506,3952.289Z" transform="translate(-594.619 -3929.866)" fill="#ffb27d"/>
      <path id="Trazado_105335" data-name="Trazado 105335" d="M635.524,3950.544c-.144.092-2.4.786-6.674-7.728a7.42,7.42,0,0,1,.436-6.783c1.564-2.555,7.108-4.563,11.716-5.437s5.713,1.719,6.8,4.324c1.139,2.734,4.428,4.986,4.428,4.986-3.973,2.219-8.758-.955-10.416-.432s-2.243,3.133-2.367,3.972-.315,1.534-2.4.785-.944,2.954-.609,3.662C636.436,3947.893,636.718,3949.779,635.524,3950.544Z" transform="translate(-595.2 -3930.424)" fill="#2c3a64"/>
      <path id="Trazado_105336" data-name="Trazado 105336" d="M612.1,4095.762h-6.35c-1.332,0-2.811-1.333-3.182-3.773s-3.107-3.773-3.7-5.771,2.442-4.81,2.442-4.81l.507-.652.527-.68,5.031,1.184s.125,1.2.2,2.723a34.841,34.841,0,0,1,.02,3.493c-.148,2.663.746,5.532,3.112,6.05S612.1,4095.762,612.1,4095.762Z" transform="translate(-598.789 -3912.181)" fill="#2c3a64"/>
      <path id="Trazado_105337" data-name="Trazado 105337" d="M652.009,4095.054H635.177a1.535,1.535,0,0,1-.358-.1c-1.123-.563-.772-4.866-.637-6.2.027-.246.045-.391.045-.391s5.919-4.734,6.734-1.109c.026.113.056.224.088.334h0c1.028,3.392,5.621,4.932,8.274,5.362C651.349,4093.282,651.874,4094.464,652.009,4095.054Z" transform="translate(-594.494 -3911.473)" fill="#2c3a64"/>
      <path id="Trazado_105338" data-name="Trazado 105338" d="M649.76,4007.7s-.9,11.216-1.955,24.7c-1.436,18.313-3.164,40.81-3.334,45.072-.3,7.4-1.48,19.237-1.48,19.237s-2.81,2.813-8.436,1.628a193.669,193.669,0,0,1-6.443-34.778c-.022-.292-.045-.588-.066-.883-1.332-18.2-3.4-56.527-3.4-56.527Z" transform="translate(-595.637 -3921.193)" fill="#ff9843"/>
      <path id="Trazado_105339" data-name="Trazado 105339" d="M649.76,4007.7s-.9,11.216-1.955,24.7l-19.693,31.158c-.022-.292-.045-.588-.066-.883-1.332-18.2-3.4-56.527-3.4-56.527Z" transform="translate(-595.637 -3921.193)" fill="#ed7d2b"/>
      <path id="Trazado_105340" data-name="Trazado 105340" d="M648.533,4009.518s-16.2,40.619-26.857,59.707-13.984,24.416-13.984,24.416-6.1-2.441-6.659-4.106c0,0,4.075-36.851,11.209-45.835,4.032-5.075,8.768-20.309,8.99-25.637s1.443-15.869,1.443-15.869Z" transform="translate(-598.515 -3921.675)" fill="#ff9843"/>
      <path id="Trazado_105341" data-name="Trazado 105341" d="M620.987,4014.979a43.764,43.764,0,0,0,13.484,5.591c5.761,1.251,12.8.717,15.156,1.013a1,1,0,0,0,.691-.176c.172-.108,1.1-7.215,1.985-16.209.038-.344.082-.727.09-1.075l.016-.125c.094-.937.19-1.887.276-2.849q.18-2.028.34-4.1.125-1.605.239-3.221c.015-.236.033-.471.048-.7.274-3.966.477-7.872.537-11.344.011-.576.016-1.139.018-1.692v-.074c.013-2.3-.048-4.357-.2-6.058-.038-.434-.082-.842-.136-1.229a21.85,21.85,0,0,0-5.58-11.635l-1.957-2.164a10.377,10.377,0,0,1-6.682-1.584c-2.353-1.508-4.913-3.137-5.389-2.87-3.641,2.129-6.544,7.577-8.521,14.69a80.5,80.5,0,0,0-2.347,12.678q-.284,2.612-.435,5.307a174.862,174.862,0,0,1-2.9,22.645c-.251,1.375-.451,2.471-.559,3.229C619.056,4013.708,620.4,4014.63,620.987,4014.979Z" transform="translate(-596.306 -3927.496)" fill="#2a4e96"/>
      <path id="Trazado_105342" data-name="Trazado 105342" d="M635.7,3968.275s2.049,17.419,15.309,27.086q.125-1.605.239-3.221c.015-.236.033-.471.048-.7.274-3.966.477-7.872.537-11.344.011-.576.016-1.139.018-1.692v-.074c-.012-2.051-.076-3.908-.2-5.489A33.313,33.313,0,0,0,635.7,3968.275Z" transform="translate(-594.289 -3925.81)" fill="#1e3d70"/>
      <path id="Trazado_105343" data-name="Trazado 105343" d="M675.2,3953.039s.372,23.72,14.314,32.367,4.04,59.7,8.095,78.527-36.394,3.466-38.443-17.782,17.664-54,17.494-58.062-5.15-30.035-4.623-33.712Z" transform="translate(-591.447 -3927.667)" fill="#c4453b"/>
      <path id="Trazado_105344" data-name="Trazado 105344" d="M651.351,3987.739a28.875,28.875,0,0,0,4.1,2.232,38.242,38.242,0,0,0,9.7,1.479c8.506.494,18.4-.057,18.4-.057,1.493,1.074,4.122.887,6.342-.364s1.736-.709,3.33-1.564a.993.993,0,0,0,.444-1.526,2.256,2.256,0,0,0-1.415-1.065c-2.965-.77-4.254-.544-5.533-.157a1.4,1.4,0,0,0,.346-1c-.088-.321-2.245.961-3.2,1.547-3.2.455-10.746-1.777-16.372-3.679-3.39-1.143-6.248-1.759-6.882-2a24.644,24.644,0,0,1-4.169-3.974A34.1,34.1,0,0,1,651.351,3987.739Z" transform="translate(-592.381 -3924.672)" fill="#ffb27d"/>
      <path id="Trazado_105345" data-name="Trazado 105345" d="M634.766,3976.946c6.646,4.687,19.008,13.463,22.234,15.25,2.077,1.151,4.768,3.4,8.7,4.278,5.633-3.829,4.267-10.809,4.267-10.809-3.39-1.143-6.085-2.168-6.718-2.414-1.69-.652-15.442-16.926-15.442-16.926s-5.24-6.731-9.955-5.622c-4.1.966-5.87,4-6.6,6.953A8.816,8.816,0,0,0,634.766,3976.946Z" transform="translate(-594.861 -3926.748)" fill="#2a4e96"/>
    </g>
    <rect id="Rectángulo_5561" data-name="Rectángulo 5561" width="505" height="1.802" rx="0.803" transform="translate(778.224 4121.427) rotate(-180)" fill="#e17c54"/>
  </g>
</svg>
