<svg xmlns="http://www.w3.org/2000/svg" xmlns:xlink="http://www.w3.org/1999/xlink" width="216" height="216" viewBox="0 0 216 216">
  <defs>
    <filter id="Trazado_113935" x="0" y="0" width="216" height="216" filterUnits="userSpaceOnUse">
      <feOffset input="SourceAlpha"/>
      <feGaussianBlur stdDeviation="20" result="blur"/>
      <feFlood flood-color="#402d27" flood-opacity="0.263"/>
      <feComposite operator="in" in2="blur"/>
      <feComposite in="SourceGraphic"/>
    </filter>
  </defs>
  <g id="Grupo_1043287" data-name="Grupo 1043287" transform="translate(-804.001 -353.901)">
    <g id="Grupo_80214" data-name="Grupo 80214" transform="translate(-40.332 31.406)">
      <g transform="matrix(1, 0, 0, 1, 844.33, 322.5)" filter="url(#Trazado_113935)">
        <path id="Trazado_113935-2" data-name="Trazado 113935" d="M48,0A48,48,0,1,1,0,48,48,48,0,0,1,48,0Z" transform="translate(60 60)" fill="#9f0925"/>
      </g>
      <g id="_03-designer" transform="translate(917.664 394.594)">
        <path id="Trazado_771411" data-name="Trazado 771411" d="M58.88,26.96,46.59,39.24l-.84.84V37.17H42.83L55.96,24.04Z" fill="#ff475a"/>
        <path id="Trazado_771412" data-name="Trazado 771412" d="M55.96,24.04,42.83,37.17V34.25H39.92l2.17-2.16,1.25-1.25v-.01l9.71-9.7Z" fill="#ff9696"/>
        <path id="Trazado_771413" data-name="Trazado 771413" d="M32,6a2.938,2.938,0,0,1-2.875,3c-.041,0-.083,0-.125,0-2.87,0-4.82-2.74-4.99-7.34L27,1A5,5,0,0,0,32,6Z" fill="#f2f6fc"/>
        <path id="Trazado_771414" data-name="Trazado 771414" d="M37,1l2.99.66C39.82,6.26,37.87,9,35,9a2.938,2.938,0,0,1-3-2.875c0-.041,0-.083,0-.125A5,5,0,0,0,37,1Z" fill="#f2f6fc"/>
        <path id="Trazado_771415" data-name="Trazado 771415" d="M63,45v8a2.006,2.006,0,0,1-2,2H3a2.006,2.006,0,0,1-2-2V45a2.006,2.006,0,0,1,2-2H61A2.006,2.006,0,0,1,63,45Z" fill="#ffe45c"/>
        <path id="Trazado_771416" data-name="Trazado 771416" d="M61,52H3a2.006,2.006,0,0,1-2-2v3a2.006,2.006,0,0,0,2,2H61a2.006,2.006,0,0,0,2-2V50A2.006,2.006,0,0,1,61,52Z" fill="#ffa426"/>
        <path id="Trazado_771417" data-name="Trazado 771417" d="M61.79,18.21a4.122,4.122,0,0,1,0,5.829h0l-.73.73-5.83-5.83.73-.73a4.116,4.116,0,0,1,5.821-.009Z" fill="#f2f6fc"/>
        <path id="Trazado_771418" data-name="Trazado 771418" d="M61.06,24.77l-2.18,2.19-2.92-2.92-2.91-2.91,2.18-2.19Z" fill="#9196aa"/>
        <path id="Trazado_771419" data-name="Trazado 771419" d="M44.94,13.24a70.948,70.948,0,0,0-1.88,12.87A2,2,0,0,1,41.07,28H22.93a2,2,0,0,1-1.99-1.89,70.948,70.948,0,0,0-1.88-12.87C17.88,17.06,16,18,16,18l-4-4A12.253,12.253,0,0,1,18,3l6.01-1.34C24.18,6.26,26.13,9,29,9a2.938,2.938,0,0,0,3-2.875c0-.041,0-.083,0-.125a2.938,2.938,0,0,0,2.875,3c.041,0,.083,0,.125,0,2.87,0,4.82-2.74,4.99-7.34L46,3a12.253,12.253,0,0,1,6,11l-4,4S46.12,17.06,44.94,13.24Z" fill="#b5efff"/>
        <path id="Trazado_771420" data-name="Trazado 771420" d="M23.94,26.11C23.709,21.771,21.9,13.224,20.876,9c-.4,1.484-.86,3.528-1.876,4.682.509,2.932,1.76,9.457,1.94,12.427A2,2,0,0,0,22.93,28h3a2,2,0,0,1-1.99-1.89Z" fill="#19cffc"/>
        <path id="Trazado_771421" data-name="Trazado 771421" d="M15,14A12.253,12.253,0,0,1,21,3l3.051-.68c-.017-.217-.033-.434-.041-.66L18,3a12.253,12.253,0,0,0-6,11l4,4a4.858,4.858,0,0,0,1.51-1.49Z" fill="#19cffc"/>
        <path id="Trazado_771422" data-name="Trazado 771422" d="M49,63H15c0-2.89.07-5.55.21-8H48.79C48.93,57.45,49,60.11,49,63Z" fill="#b5efff"/>
        <path id="Trazado_771423" data-name="Trazado 771423" d="M47.42,43H37l4.38-1.46,4.37-1.46.84-.84c.3,1.14.57,2.39.83,3.76Z" fill="#b5efff"/>
        <path id="Trazado_771424" data-name="Trazado 771424" d="M45.75,37.17v2.91l-4.37,1.46-2.92-2.92,1.46-4.37h2.91v2.92Z" fill="#f2d1a5"/>
        <path id="Trazado_771425" data-name="Trazado 771425" d="M43.34,30.83v.01l-1.25,1.25L42,32H20.02C21.63,28.86,23,28,23,28H41A8.825,8.825,0,0,1,43.34,30.83Z" fill="#1ea1e3"/>
        <path id="Trazado_771426" data-name="Trazado 771426" d="M42,32l.09.09.09-.09Z" fill="#368dcf"/>
        <path id="Trazado_771427" data-name="Trazado 771427" d="M26,28H23s-1.37.86-2.98,4h3C24.63,28.86,26,28,26,28Z" fill="#368dcf"/>
        <path id="Trazado_771428" data-name="Trazado 771428" d="M42.09,32.09l-2.17,2.16-1.46,4.37L37,43H16.58a40.457,40.457,0,0,1,3.44-11H42Z" fill="#b5efff"/>
        <path id="Trazado_771429" data-name="Trazado 771429" d="M15.21,55c-.14,2.45-.21,5.11-.21,8h3c0-2.89.07-5.55.21-8Z" fill="#19cffc"/>
        <path id="Trazado_771430" data-name="Trazado 771430" d="M20.02,32a40.458,40.458,0,0,0-3.44,11h3a40.457,40.457,0,0,1,3.44-11Z" fill="#19cffc"/>
        <path id="Trazado_771431" data-name="Trazado 771431" d="M41.38,41.54,37,43l1.46-4.38Z" fill="#7e8596"/>
        <path id="Trazado_771432" data-name="Trazado 771432" d="M27,1H37A5,5,0,0,1,27,1Z" fill="#1ea1e3"/>
        <g id="Grupo_1042760" data-name="Grupo 1042760">
          <path id="Trazado_771433" data-name="Trazado 771433" d="M31,43h2v6H31Z" fill="#faa68e"/>
          <path id="Trazado_771434" data-name="Trazado 771434" d="M36,43h2v4H36Z" fill="#faa68e"/>
          <path id="Trazado_771435" data-name="Trazado 771435" d="M41,43h2v6H41Z" fill="#faa68e"/>
          <path id="Trazado_771436" data-name="Trazado 771436" d="M46,43h2v4H46Z" fill="#faa68e"/>
          <path id="Trazado_771437" data-name="Trazado 771437" d="M51,43h2v6H51Z" fill="#faa68e"/>
          <path id="Trazado_771438" data-name="Trazado 771438" d="M56,43h2v4H56Z" fill="#faa68e"/>
          <path id="Trazado_771439" data-name="Trazado 771439" d="M26,43h2v4H26Z" fill="#faa68e"/>
          <path id="Trazado_771440" data-name="Trazado 771440" d="M21,43h2v6H21Z" fill="#faa68e"/>
          <path id="Trazado_771441" data-name="Trazado 771441" d="M16,43h2v4H16Z" fill="#faa68e"/>
          <path id="Trazado_771442" data-name="Trazado 771442" d="M11,43h2v6H11Z" fill="#faa68e"/>
          <path id="Trazado_771443" data-name="Trazado 771443" d="M6,43H8v4H6Z" fill="#faa68e"/>
        </g>
        <path id="Trazado_771444" data-name="Trazado 771444" d="M61,42H48.242c-.18-.9-.36-1.713-.543-2.451l14.8-14.8A5.126,5.126,0,0,0,55.25,17.5L43.5,29.255c-.234-.329-.456-.618-.659-.858a3.02,3.02,0,0,0,1.218-2.23,78.6,78.6,0,0,1,1.206-9.73,6.456,6.456,0,0,0,2.29,2.458A1.011,1.011,0,0,0,48,19a1,1,0,0,0,.707-.293l4-4A1,1,0,0,0,53,14a13.162,13.162,0,0,0-6.553-11.9,1.03,1.03,0,0,0-.23-.081l-9-2a.984.984,0,0,0-.217,0V0H27V.025a.984.984,0,0,0-.217,0l-9,2a1.03,1.03,0,0,0-.23.081A13.163,13.163,0,0,0,11,14a1,1,0,0,0,.293.707l4,4a1,1,0,0,0,1.154.188,6.456,6.456,0,0,0,2.29-2.458,78.6,78.6,0,0,1,1.206,9.73A3.022,3.022,0,0,0,21.167,28.4c-1.455,1.735-3.809,5.612-5.409,13.6H3a3,3,0,0,0-3,3v8a3,3,0,0,0,3,3H14.16c-.1,2.172-.16,4.513-.16,7a1,1,0,0,0,1,1H49a1,1,0,0,0,1-1c0-2.487-.056-4.828-.16-7H61a3,3,0,0,0,3-3V45A3,3,0,0,0,61,42ZM43.163,42,46,41.055c.067.3.133.617.2.945Zm9.879-19.461,1.5,1.5L43.833,34.752v-.5a1,1,0,0,0-1-1h-.5ZM45.75,36.167h-.5L55.96,25.456l1.5,1.5L46.75,37.669v-.5a1,1,0,0,0-1-1Zm8.706-15.042.773-.774,4.42,4.42-.774.773ZM40.637,35.25h1.2v1.917a1,1,0,0,0,1,1H44.75v1.2L41.65,40.4,39.6,38.355ZM38.9,40.476l.629.629-.943.314ZM61.09,18.915a3.129,3.129,0,0,1,0,4.419l-.022.023-4.42-4.42.023-.022a3.13,3.13,0,0,1,4.414,0ZM41.752,31h-20a9.472,9.472,0,0,1,1.6-2h17.3a8.748,8.748,0,0,1,1.412,1.688ZM37.875,2.219l1.06.235C38.624,5.911,37.177,8,35,8a1.771,1.771,0,0,1-1.826-1.125A6.011,6.011,0,0,0,37.875,2.219ZM32,5a4,4,0,0,1-3.858-3h7.716A4,4,0,0,1,32,5ZM30.826,6.875A1.769,1.769,0,0,1,29,8c-2.177,0-3.624-2.089-3.935-5.546l1.06-.235A6.01,6.01,0,0,0,30.826,6.875ZM20.092,13.227A25.672,25.672,0,0,0,21,6H19c0,6.87-1.955,9.691-2.92,10.665l-3.075-3.074A11.191,11.191,0,0,1,18.35,3.947L23.1,2.89C23.589,7.267,25.8,10,29,10a3.769,3.769,0,0,0,3-1.3A3.769,3.769,0,0,0,35,10c3.2,0,5.411-2.733,5.9-7.11l4.75,1.056A11.3,11.3,0,0,1,51,13.591l-3.072,3.073C46.948,15.68,45,12.856,45,6H43a25.672,25.672,0,0,0,.908,7.227,73.4,73.4,0,0,0-1.847,12.815,1.011,1.011,0,0,1-1,.958H22.935a1.011,1.011,0,0,1-1-.958,73.388,73.388,0,0,0-1.843-12.815ZM20.655,33h19.1l-.543.543.009.008a.981.981,0,0,0-.25.383L36.279,42H17.806a39.311,39.311,0,0,1,2.849-9ZM48,62H16c.012-2.122.067-4.127.158-6H47.839C47.93,57.873,47.985,59.878,48,62Zm14-9a1,1,0,0,1-1,1H3a1,1,0,0,1-1-1V52H60V50H2V45a1,1,0,0,1,1-1H6v3H8V44h3v5h2V44h3v3h2V44h3v5h2V44h3v3h2V44h3v5h2V44h3v3h2V44h3v5h2V44h3v3h2V44h3v5h2V44h3v3h2V44h3a1,1,0,0,1,1,1Z"/>
      </g>
    </g>
  </g>
</svg>
