<svg xmlns="http://www.w3.org/2000/svg" xmlns:xlink="http://www.w3.org/1999/xlink" width="197" height="197" viewBox="0 0 197 197">
  <defs>
    <filter id="Trazado_113939" x="0" y="0" width="197" height="197" filterUnits="userSpaceOnUse">
      <feOffset input="SourceAlpha"/>
      <feGaussianBlur stdDeviation="20" result="blur"/>
      <feFlood flood-color="#402d27" flood-opacity="0.435"/>
      <feComposite operator="in" in2="blur"/>
      <feComposite in="SourceGraphic"/>
    </filter>
  </defs>
  <g id="Grupo_80250" data-name="Grupo 80250" transform="translate(-1173.333 -124.355)">
    <g transform="matrix(1, 0, 0, 1, 1173.33, 124.36)" filter="url(#Trazado_113939)">
      <path id="Trazado_113939-2" data-name="Trazado 113939" d="M38.5,0A38.5,38.5,0,1,1,0,38.5,38.5,38.5,0,0,1,38.5,0Z" transform="translate(60 60)" fill="#9f0925"/>
    </g>
    <g id="stiching" transform="translate(1193.676 188.012)">
      <path id="Trazado_771445" data-name="Trazado 771445" d="M408.089,467.86h-4.875a.059.059,0,0,0-.049.093l2.41,3.5a.059.059,0,0,0,.1,0l2.465-3.5a.059.059,0,0,0-.048-.094Z" transform="translate(-308.287 -412.337)" fill="#5fa8ed"/>
      <path id="Trazado_771446" data-name="Trazado 771446" d="M407.893,222.757l-2.41-3.5a.059.059,0,0,0-.1,0l-2.465,3.5a.059.059,0,0,0,.048.093h4.875a.059.059,0,0,0,.049-.093Z" transform="translate(-308.07 -190.848)" fill="#5fa8ed"/>
      <path id="Trazado_771447" data-name="Trazado 771447" d="M96.84,33.717l-.008-.005a1.443,1.443,0,0,0-1.2-.26,15.548,15.548,0,0,1-18.88-15.017A15.011,15.011,0,0,1,77.8,12.71a1.177,1.177,0,0,0-1.084-1.618L65.236,11a2.143,2.143,0,0,0-2.144,2.143v49.2a2.143,2.143,0,0,0,2.143,2.143H95.257A2.143,2.143,0,0,0,97.4,62.342V34.854a1.435,1.435,0,0,0-.561-1.137Z" transform="translate(-5.344 -5.345)" fill="#fae7e3"/>
      <path id="Trazado_771448" data-name="Trazado 771448" d="M66.167,62.342v-49.2a2.151,2.151,0,0,1,1.851-2.119L65.041,11a2.148,2.148,0,0,0-2.149,2.143v49.2a2.162,2.162,0,0,0,2.166,2.143h3.275A2.162,2.162,0,0,1,66.167,62.342Z" transform="translate(-5.166 -5.345)" fill="#cebfbc"/>
      <g id="Grupo_1042761" data-name="Grupo 1042761" transform="translate(57.093 5)">
        <path id="Trazado_771449" data-name="Trazado 771449" d="M420.61,295.027a.655.655,0,0,0-1.31,0v2.62a.655.655,0,1,0,1.31,0Z" transform="translate(-379.764 -262.786)"/>
        <path id="Trazado_771450" data-name="Trazado 771450" d="M419.955,390.372a.655.655,0,0,0-.655.655v2.62a.655.655,0,1,0,1.31,0v-2.62A.655.655,0,0,0,419.955,390.372Z" transform="translate(-379.764 -348.307)"/>
        <path id="Trazado_771451" data-name="Trazado 771451" d="M420.61,343.027a.655.655,0,1,0-1.31,0v2.62a.655.655,0,1,0,1.31,0Z" transform="translate(-379.764 -305.547)"/>
        <path id="Trazado_771452" data-name="Trazado 771452" d="M397.622,218.16h1.73v1.965a.655.655,0,1,0,1.31,0V218.16H402.5a.714.714,0,0,0,.588-1.119l-2.411-3.5a.715.715,0,0,0-.584-.309h0a.715.715,0,0,0-.584.3l-2.465,3.5a.714.714,0,0,0,.584,1.125Zm2.459-3.171,1.282,1.861h-2.593Z" transform="translate(-359.816 -190.504)"/>
        <path id="Trazado_771453" data-name="Trazado 771453" d="M402.747,440.936h-1.863v-1.909a.655.655,0,0,0-1.31,0v1.909h-1.7a.714.714,0,0,0-.588,1.12l2.411,3.5a.714.714,0,0,0,.584.309h0a.715.715,0,0,0,.584-.3l2.465-3.5a.714.714,0,0,0-.583-1.126Zm-2.459,3.171-1.282-1.861H401.6Z" transform="translate(-360.038 -391.068)"/>
        <path id="Trazado_771454" data-name="Trazado 771454" d="M271.038,279.509a.655.655,0,0,0,0,1.31h2.429a.655.655,0,1,0,0-1.31Z" transform="translate(-247.102 -249.545)"/>
        <path id="Trazado_771455" data-name="Trazado 771455" d="M137.5,279.509a.655.655,0,1,0,0,1.31h2.429a.655.655,0,1,0,0-1.31Z" transform="translate(-128.139 -249.545)"/>
        <path id="Trazado_771456" data-name="Trazado 771456" d="M228.389,280.819h.565a.655.655,0,1,0,0-1.31h-2.429a.655.655,0,0,0,0,1.31h.555v1.154a.655.655,0,1,0,1.31,0Z" transform="translate(-207.447 -249.545)"/>
        <path id="Trazado_771457" data-name="Trazado 771457" d="M92.986,280.819h2.429a.655.655,0,1,0,0-1.31H92.986a.655.655,0,1,0,0,1.31Z" transform="translate(-88.485 -249.545)"/>
        <path id="Trazado_771458" data-name="Trazado 771458" d="M182.012,279.509a.655.655,0,0,0,0,1.31h2.429a.655.655,0,0,0,0-1.31Z" transform="translate(-167.793 -249.545)"/>
        <path id="Trazado_771459" data-name="Trazado 771459" d="M315.555,280.819h2.429a.655.655,0,0,0,0-1.31h-2.429a.655.655,0,0,0,0,1.31Z" transform="translate(-286.76 -249.545)"/>
        <path id="Trazado_771460" data-name="Trazado 771460" d="M238.26,320.733a.655.655,0,0,0-1.31,0v2.62a.655.655,0,1,0,1.31,0Z" transform="translate(-217.318 -285.686)"/>
        <path id="Trazado_771461" data-name="Trazado 771461" d="M238.26,368.733a.655.655,0,0,0-1.31,0v2.62a.655.655,0,0,0,1.31,0Z" transform="translate(-217.318 -328.447)"/>
        <path id="Trazado_771462" data-name="Trazado 771462" d="M237.6,416.078a.655.655,0,0,0-.655.655v2.62a.655.655,0,0,0,1.31,0v-2.62A.655.655,0,0,0,237.6,416.078Z" transform="translate(-217.318 -371.207)"/>
        <path id="Trazado_771463" data-name="Trazado 771463" d="M84.547,41.528a.655.655,0,0,0,.655-.655v-.218a.655.655,0,1,0-1.31,0v.218A.655.655,0,0,0,84.547,41.528Z" transform="translate(-80.967 -36.18)"/>
        <path id="Trazado_771464" data-name="Trazado 771464" d="M83.892,72.7a.655.655,0,1,0,1.31,0V62.655a.655.655,0,1,0-1.31,0Z" transform="translate(-80.967 -55.778)"/>
        <path id="Trazado_771465" data-name="Trazado 771465" d="M91.9,27.854l-.009-.007a2.1,2.1,0,0,0-1.737-.38,14.87,14.87,0,0,1-2.358.321.656.656,0,1,0,.063,1.31,16.116,16.116,0,0,0,2.576-.351.793.793,0,0,1,.656.139l.009.007a.784.784,0,0,1,.3.618v5.454h-.627a.673.673,0,0,0-.682.635.655.655,0,0,0,.655.675H91.4V57a1.488,1.488,0,0,1-1.488,1.488H78.027a.665.665,0,0,0,.009-.1V55.792a.673.673,0,0,0-.635-.682.655.655,0,0,0-.675.655v2.62a.651.651,0,0,0,.009.1H59.891A1.488,1.488,0,0,1,58.4,57V36.273h.735a.673.673,0,0,0,.682-.635.655.655,0,0,0-.655-.675H58.4V7.8A1.489,1.489,0,0,1,59.886,6.31l11.48.093a.521.521,0,0,1,.436.239.534.534,0,0,1,.044.484A15.748,15.748,0,0,0,70.757,13.1,16.159,16.159,0,0,0,83.31,28.718a.655.655,0,1,0,.29-1.278A14.846,14.846,0,0,1,72.066,13.082a14.443,14.443,0,0,1,1-5.477A1.847,1.847,0,0,0,72.9,5.932a1.828,1.828,0,0,0-1.526-.84L59.891,5a2.8,2.8,0,0,0-2.8,2.8V57a2.8,2.8,0,0,0,2.8,2.8H89.913a2.8,2.8,0,0,0,2.8-2.8V29.509a2.1,2.1,0,0,0-.815-1.655Z" transform="translate(-57.093 -5)"/>
      </g>
    </g>
  </g>
</svg>
