<svg xmlns="http://www.w3.org/2000/svg" xmlns:xlink="http://www.w3.org/1999/xlink" width="213" height="213" viewBox="0 0 213 213">
  <defs>
    <filter id="Trazado_113937" x="0" y="0" width="213" height="213" filterUnits="userSpaceOnUse">
      <feOffset input="SourceAlpha"/>
      <feGaussianBlur stdDeviation="20" result="blur"/>
      <feFlood flood-color="#402d27" flood-opacity="0.455"/>
      <feComposite operator="in" in2="blur"/>
      <feComposite in="SourceGraphic"/>
    </filter>
  </defs>
  <g id="Grupo_1043288" data-name="Grupo 1043288" transform="translate(-887.353 -175.504)">
    <g id="Grupo_80211" data-name="Grupo 80211" transform="translate(-269.98 -142.496)">
      <g transform="matrix(1, 0, 0, 1, 1157.33, 318)" filter="url(#Trazado_113937)">
        <path id="Trazado_113937-2" data-name="Trazado 113937" d="M46.5,0A46.5,46.5,0,1,1,0,46.5,46.5,46.5,0,0,1,46.5,0Z" transform="translate(60 60)" fill="#9f0925"/>
      </g>
      <g id="tela" transform="translate(1234.313 396.496)">
        <path id="Trazado_771394" data-name="Trazado 771394" d="M16.65,33H9a4,4,0,0,1-4-4V5A4,4,0,0,1,9,1H51a4,4,0,0,1,4,4V29a4,4,0,0,1-4,4Z" fill="#ff9801"/>
        <path id="Trazado_771395" data-name="Trazado 771395" d="M51,1H48a4,4,0,0,1,4,4V29a4,4,0,0,1-4,4h3a4,4,0,0,0,4-4V5A4,4,0,0,0,51,1Z" fill="#f57c00"/>
        <path id="Trazado_771396" data-name="Trazado 771396" d="M41.68,47.04a9.424,9.424,0,0,1-4.13-2.89l-1.925-2.217L30,35.44,18.2,21.83a1,1,0,0,0-1.63.17l-.3.54a10.147,10.147,0,0,0,1.28,11.65l6.82,7.74L30,48.317,35.1,54.1Z" fill="#00bcd4"/>
        <path id="Trazado_771397" data-name="Trazado 771397" d="M37.55,44.15l-1.925-2.217L30,35.44,18.2,21.83a1,1,0,0,0-1.63.17l-.3.54c-.06.109-.111.221-.167.332L27,35.44l5.625,6.493L34.55,44.15a13.514,13.514,0,0,0,4.95,3.464l-3.389,3.794L35.1,54.1l6.58-7.06a9.424,9.424,0,0,1-4.13-2.89Z" fill="#00838f"/>
        <path id="Trazado_771398" data-name="Trazado 771398" d="M41,47a6,6,0,1,0,6,6A6,6,0,0,0,41,47Zm0,8a2,2,0,1,1,2-2A2.006,2.006,0,0,1,41,55Z" fill="#02a9f4"/>
        <path id="Trazado_771399" data-name="Trazado 771399" d="M41,47a5.937,5.937,0,0,0-1.5.2,5.99,5.99,0,0,1,0,11.6A6,6,0,1,0,41,47Z" fill="#0377bc"/>
        <path id="Trazado_771400" data-name="Trazado 771400" d="M18.38,47.02a9.48,9.48,0,0,0,4.07-2.87L41.8,21.83a1,1,0,0,1,1.63.17l.3.54a10.147,10.147,0,0,1-1.28,11.65L24.9,54.1Z" fill="#00bcd4"/>
        <path id="Trazado_771401" data-name="Trazado 771401" d="M43.73,22.54l-.3-.54a1,1,0,0,0-1.63-.17l-.9,1.042A10.14,10.14,0,0,1,39.45,34.19L23.367,52.435,24.9,54.1l17.55-19.91a10.147,10.147,0,0,0,1.28-11.65Z" fill="#00838f"/>
        <path id="Trazado_771402" data-name="Trazado 771402" d="M19,47a6,6,0,1,0,6,6A6,6,0,0,0,19,47Zm0,8a2,2,0,1,1,2-2A2.006,2.006,0,0,1,19,55Z" fill="#02a9f4"/>
        <path id="Trazado_771403" data-name="Trazado 771403" d="M19,47a5.937,5.937,0,0,0-1.5.2,5.99,5.99,0,0,1,0,11.6A6,6,0,1,0,19,47Z" fill="#0377bc"/>
        <path id="Trazado_771404" data-name="Trazado 771404" d="M19,50a3,3,0,1,0,3,3A3,3,0,0,0,19,50Zm0,4a1,1,0,1,1,1-1A1,1,0,0,1,19,54Z"/>
        <path id="Trazado_771405" data-name="Trazado 771405" d="M41,56a3,3,0,1,0-3-3A3,3,0,0,0,41,56Zm0-4a1,1,0,1,1-1,1A1,1,0,0,1,41,52Z"/>
        <circle id="Elipse_8022" data-name="Elipse 8022" cx="1" cy="1" r="1" transform="translate(29 41)"/>
        <path id="Trazado_771406" data-name="Trazado 771406" d="M30,24a1,1,0,0,0-1,1v2a1,1,0,0,0,2,0V25A1,1,0,0,0,30,24Z"/>
        <path id="Trazado_771407" data-name="Trazado 771407" d="M30,18a1,1,0,0,0-1,1v2a1,1,0,0,0,2,0V19A1,1,0,0,0,30,18Z"/>
        <path id="Trazado_771408" data-name="Trazado 771408" d="M30,12a1,1,0,0,0-1,1v2a1,1,0,0,0,2,0V13A1,1,0,0,0,30,12Z"/>
        <path id="Trazado_771409" data-name="Trazado 771409" d="M30,6a1,1,0,0,0-1,1V9a1,1,0,0,0,2,0V7A1,1,0,0,0,30,6Z"/>
        <path id="Trazado_771410" data-name="Trazado 771410" d="M59,6a1,1,0,0,0,0-2H55.9A5.009,5.009,0,0,0,51,0H9A5.009,5.009,0,0,0,4.1,4H1A1,1,0,0,0,1,6H4v6H1a1,1,0,0,0,0,2H4v6H1a1,1,0,0,0,0,2H4v6H1a1,1,0,0,0,0,2H4.1A5.009,5.009,0,0,0,9,34h7.125c.5.685.176.285,6.919,7.938L21.7,43.483a8.636,8.636,0,0,1-3.636,2.586,7,7,0,1,0,7.747,8.505L30,49.829l4.188,4.746a7,7,0,1,0,7.764-8.5c-2.281-.772-3.514-2.428-5-4.134,6.787-7.7,6.435-7.266,6.921-7.938H51a5.009,5.009,0,0,0,4.9-4H59a1,1,0,0,0,0-2H56V22h3a1,1,0,0,0,0-2H56V14h3a1,1,0,0,0,0-2H56V6h3ZM18.3,33.527c-2.456-2.774-3.206-6.811-.854-11.042L28.676,35.44l-4.311,4.973L18.3,33.527ZM19,58a5,5,0,1,1,5-5A5.006,5.006,0,0,1,19,58ZM41,48a5,5,0,1,1-5,5A5.006,5.006,0,0,1,41,48Zm-2.44-1.553a7.018,7.018,0,0,0-4.4,5.076l-2.829-3.206,4.289-4.865a18.416,18.416,0,0,0,2.941,3ZM41.7,33.528,25.84,51.521a7.02,7.02,0,0,0-4.4-5.075c1.45-1.126.127.249,21.116-23.962,2.376,4.275,1.568,8.306-.855,11.043ZM54,29a3,3,0,0,1-3,3H45.031a11.242,11.242,0,0,0-.721-10.476,2,2,0,0,0-3.265-.349L31,32.761V31a1,1,0,0,0-2,0v1.76L18.957,21.175a2,2,0,0,0-3.26.34A11.245,11.245,0,0,0,14.97,32H9a3,3,0,0,1-3-3V5A3,3,0,0,1,9,2H29V3a1,1,0,0,0,2,0V2H51a3,3,0,0,1,3,3V29Z"/>
      </g>
    </g>
  </g>
</svg>
