<svg xmlns="http://www.w3.org/2000/svg" xmlns:xlink="http://www.w3.org/1999/xlink" width="200" height="200" viewBox="0 0 200 200">
  <defs>
    <filter id="Trazado_113938" x="0" y="0" width="200" height="200" filterUnits="userSpaceOnUse">
      <feOffset input="SourceAlpha"/>
      <feGaussianBlur stdDeviation="20" result="blur"/>
      <feFlood flood-color="#402d27" flood-opacity="0.192"/>
      <feComposite operator="in" in2="blur"/>
      <feComposite in="SourceGraphic"/>
    </filter>
  </defs>
  <g id="Grupo_1043289" data-name="Grupo 1043289" transform="translate(-1150.333 -358)">
    <g id="Grupo_80220" data-name="Grupo 80220" transform="translate(260 244)">
      <g transform="matrix(1, 0, 0, 1, 890.33, 114)" filter="url(#Trazado_113938)">
        <path id="Trazado_113938-2" data-name="Trazado 113938" d="M40,0A40,40,0,1,1,10.363,13.136,40,40,0,0,1,40,0Z" transform="translate(60 60)" fill="#9f0925"/>
      </g>
      <g id="telap" transform="translate(964.324 188.656)">
        <path id="Trazado_771491" data-name="Trazado 771491" d="M15.106,42.006a2.127,2.127,0,0,1,.36-3.074,2.128,2.128,0,0,1,0-3.415,2.129,2.129,0,0,1,0-3.415,2.129,2.129,0,0,1,0-3.415,2.128,2.128,0,0,1,0-3.415,2.129,2.129,0,0,1,0-3.415,2.129,2.129,0,0,1,0-3.415,2.132,2.132,0,1,1,2.984-2.984,2.128,2.128,0,0,1,3.415,0,2.128,2.128,0,0,1,3.415,0,2.128,2.128,0,0,1,3.415,0,2.128,2.128,0,0,1,3.415,0,2.128,2.128,0,0,1,3.415,0,2.128,2.128,0,0,1,3.415,0A2.127,2.127,0,0,1,42.01,15.1a2.161,2.161,0,0,0-.36-.341,2.128,2.128,0,0,0,0-3.415,2.132,2.132,0,1,0-2.984-2.984,2.128,2.128,0,0,0-3.415,0,2.128,2.128,0,0,0-3.415,0,2.128,2.128,0,0,0-3.415,0,2.128,2.128,0,0,0-3.415,0,2.128,2.128,0,0,0-3.415,0,2.128,2.128,0,0,0-3.415,0,2.128,2.128,0,0,0-3.415,0,2.129,2.129,0,0,0-3.415,0,2.132,2.132,0,1,0-2.984,2.984,2.128,2.128,0,0,0,0,3.415,2.129,2.129,0,0,0,0,3.415,2.129,2.129,0,0,0,0,3.415,2.128,2.128,0,0,0,0,3.415,2.129,2.129,0,0,0,0,3.415,2.129,2.129,0,0,0,0,3.415,2.128,2.128,0,0,0,0,3.415,2.129,2.129,0,0,0,0,3.415,2.132,2.132,0,1,0,2.984,2.984,2.128,2.128,0,0,0,3.415,0,2.159,2.159,0,0,0,.342.361Z" transform="translate(-6.757 -6.757)" fill="#fed402"/>
        <path id="Trazado_771492" data-name="Trazado 771492" d="M11.467,12.945a1.489,1.489,0,0,1,1.485-1.485H41.794c-.046-.041-.094-.081-.143-.118a2.132,2.132,0,1,0-2.984-2.984,2.128,2.128,0,0,0-3.415,0,2.128,2.128,0,0,0-3.415,0,2.128,2.128,0,0,0-3.415,0,2.128,2.128,0,0,0-3.415,0,2.128,2.128,0,0,0-3.415,0,2.128,2.128,0,0,0-3.415,0,2.128,2.128,0,0,0-3.415,0,2.129,2.129,0,0,0-3.415,0,2.132,2.132,0,1,0-2.984,2.984,2.128,2.128,0,0,0,0,3.415,2.129,2.129,0,0,0,0,3.415,2.129,2.129,0,0,0,0,3.415,2.128,2.128,0,0,0,0,3.415,2.129,2.129,0,0,0,0,3.415,2.129,2.129,0,0,0,0,3.415,2.128,2.128,0,0,0,0,3.415,2.129,2.129,0,0,0,0,3.415,2.132,2.132,0,1,0,2.984,2.984c.037.05.077.1.118.143V12.945Z" transform="translate(-6.757 -6.757)" fill="#fac600"/>
        <path id="Trazado_771493" data-name="Trazado 771493" d="M86.827,113.727a2.127,2.127,0,0,1,.36-3.074,2.129,2.129,0,0,1,0-3.415,2.128,2.128,0,0,1,0-3.415,2.129,2.129,0,0,1,0-3.415,2.129,2.129,0,0,1,0-3.415,2.128,2.128,0,0,1,0-3.415,2.129,2.129,0,0,1,0-3.415,2.132,2.132,0,1,1,2.984-2.984,2.128,2.128,0,0,1,3.415,0,2.128,2.128,0,0,1,3.415,0,2.128,2.128,0,0,1,3.415,0,2.128,2.128,0,0,1,3.415,0,2.128,2.128,0,0,1,3.415,0,2.128,2.128,0,0,1,3.415,0,2.127,2.127,0,0,1,3.073-.361,2.153,2.153,0,0,0-.36-.341,2.129,2.129,0,0,0,0-3.415,2.132,2.132,0,1,0-2.984-2.984,2.128,2.128,0,0,0-3.415,0,2.128,2.128,0,0,0-3.415,0,2.128,2.128,0,0,0-3.415,0,2.128,2.128,0,0,0-3.415,0,2.128,2.128,0,0,0-3.415,0,2.128,2.128,0,0,0-3.415,0,2.128,2.128,0,0,0-3.415,0,2.128,2.128,0,0,0-3.415,0,2.132,2.132,0,1,0-2.984,2.984,2.129,2.129,0,0,0,0,3.415,2.129,2.129,0,0,0,0,3.415,2.128,2.128,0,0,0,0,3.415,2.129,2.129,0,0,0,0,3.415,2.129,2.129,0,0,0,0,3.415,2.128,2.128,0,0,0,0,3.415,2.129,2.129,0,0,0,0,3.415,2.129,2.129,0,0,0,0,3.415,2.132,2.132,0,1,0,2.984,2.984,2.128,2.128,0,0,0,3.415,0,2.159,2.159,0,0,0,.342.361Z" transform="translate(-71.378 -71.378)" fill="#fe76a8"/>
        <path id="Trazado_771494" data-name="Trazado 771494" d="M185.95,156.489a2.129,2.129,0,0,0-.858-1.707,2.132,2.132,0,1,0-2.984-2.984,2.128,2.128,0,0,0-3.415,0,2.128,2.128,0,0,0-3.415,0,2.128,2.128,0,0,0-3.415,0,2.128,2.128,0,0,0-3.415,0,2.128,2.128,0,0,0-3.415,0,2.128,2.128,0,0,0-3.415,0,2.128,2.128,0,0,0-3.415,0,2.128,2.128,0,0,0-3.415,0,2.132,2.132,0,1,0-2.984,2.984,2.129,2.129,0,0,0,0,3.415,2.128,2.128,0,0,0,0,3.415,2.129,2.129,0,0,0,0,3.415,2.129,2.129,0,0,0,0,3.415,2.128,2.128,0,0,0,0,3.415,2.129,2.129,0,0,0,0,3.415,2.129,2.129,0,0,0,0,3.415,2.128,2.128,0,0,0,0,3.415,2.132,2.132,0,1,0,2.984,2.984,2.128,2.128,0,0,0,3.415,0,2.128,2.128,0,0,0,3.415,0,2.128,2.128,0,0,0,3.415,0,2.128,2.128,0,0,0,3.415,0,2.128,2.128,0,0,0,3.415,0,2.128,2.128,0,0,0,3.415,0,2.128,2.128,0,0,0,3.415,0,2.128,2.128,0,0,0,3.415,0,2.132,2.132,0,1,0,2.984-2.984,2.128,2.128,0,0,0,0-3.415,2.129,2.129,0,0,0,0-3.415,2.129,2.129,0,0,0,0-3.415,2.128,2.128,0,0,0,0-3.415,2.129,2.129,0,0,0,0-3.415,2.129,2.129,0,0,0,0-3.415,2.128,2.128,0,0,0,0-3.415A2.128,2.128,0,0,0,185.95,156.489Z" transform="translate(-135.998 -135.997)" fill="#01d0fb"/>
        <path id="Trazado_771495" data-name="Trazado 771495" d="M153.919,155.4a1.489,1.489,0,0,1,1.485-1.485h30.375a2.132,2.132,0,0,0-3.67-2.112,2.128,2.128,0,0,0-3.415,0,2.128,2.128,0,0,0-3.415,0,2.128,2.128,0,0,0-3.415,0,2.128,2.128,0,0,0-3.415,0,2.128,2.128,0,0,0-3.415,0,2.128,2.128,0,0,0-3.415,0,2.128,2.128,0,0,0-3.415,0,2.128,2.128,0,0,0-3.415,0,2.132,2.132,0,1,0-2.984,2.984,2.129,2.129,0,0,0,0,3.415,2.128,2.128,0,0,0,0,3.415,2.129,2.129,0,0,0,0,3.415,2.129,2.129,0,0,0,0,3.415,2.128,2.128,0,0,0,0,3.415,2.129,2.129,0,0,0,0,3.415,2.129,2.129,0,0,0,0,3.415,2.128,2.128,0,0,0,0,3.415,2.132,2.132,0,0,0,2.112,3.67V155.4Z" transform="translate(-135.998 -135.997)" fill="#08a9f1"/>
        <path id="Trazado_771496" data-name="Trazado 771496" d="M50.134,18.785a2.848,2.848,0,0,0,.561-1.707A2.88,2.88,0,0,0,47.819,14.2a2.847,2.847,0,0,0-1.707.561,2.875,2.875,0,0,0-2.689-.388,2.875,2.875,0,0,0-.388-2.689,2.847,2.847,0,0,0,.561-1.707A2.88,2.88,0,0,0,40.718,7.1a2.848,2.848,0,0,0-1.707.561,2.875,2.875,0,0,0-2.69-.388,2.876,2.876,0,0,0,.173-.982,2.847,2.847,0,0,0-.561-1.707,2.848,2.848,0,0,0,.561-1.707A2.88,2.88,0,0,0,33.618,0,2.848,2.848,0,0,0,31.91.561a2.878,2.878,0,0,0-3.415,0,2.878,2.878,0,0,0-3.415,0,2.878,2.878,0,0,0-3.415,0,2.878,2.878,0,0,0-3.415,0,2.878,2.878,0,0,0-3.415,0,2.878,2.878,0,0,0-3.415,0,2.878,2.878,0,0,0-3.415,0,2.878,2.878,0,0,0-3.415,0A2.848,2.848,0,0,0,2.885,0,2.88,2.88,0,0,0,.008,2.877,2.848,2.848,0,0,0,.569,4.584,2.877,2.877,0,0,0,.569,8a2.878,2.878,0,0,0,0,3.415,2.878,2.878,0,0,0,0,3.415,2.877,2.877,0,0,0,0,3.415,2.878,2.878,0,0,0,0,3.415,2.878,2.878,0,0,0,0,3.415,2.877,2.877,0,0,0,0,3.415,2.878,2.878,0,0,0,0,3.415,2.848,2.848,0,0,0-.561,1.707,2.88,2.88,0,0,0,2.877,2.877,2.848,2.848,0,0,0,1.707-.561,2.875,2.875,0,0,0,2.689.388A2.875,2.875,0,0,0,7.67,39a2.847,2.847,0,0,0-.561,1.707,2.88,2.88,0,0,0,2.877,2.877,2.848,2.848,0,0,0,1.707-.561,2.875,2.875,0,0,0,2.689.388A2.875,2.875,0,0,0,14.77,46.1a2.848,2.848,0,0,0-.561,1.707,2.88,2.88,0,0,0,2.877,2.877,2.848,2.848,0,0,0,1.707-.561,2.878,2.878,0,0,0,3.415,0,2.878,2.878,0,0,0,3.415,0,2.878,2.878,0,0,0,3.415,0,2.878,2.878,0,0,0,3.415,0,2.878,2.878,0,0,0,3.415,0,2.878,2.878,0,0,0,3.415,0,2.878,2.878,0,0,0,3.415,0,2.878,2.878,0,0,0,3.415,0,2.848,2.848,0,0,0,1.707.561A2.88,2.88,0,0,0,50.7,47.812a2.848,2.848,0,0,0-.561-1.707,2.877,2.877,0,0,0,0-3.415,2.878,2.878,0,0,0,0-3.415,2.878,2.878,0,0,0,0-3.415,2.877,2.877,0,0,0,0-3.415,2.878,2.878,0,0,0,0-3.415,2.878,2.878,0,0,0,0-3.415,2.877,2.877,0,0,0,0-3.415,2.878,2.878,0,0,0,0-3.415ZM5.186,34.443a.742.742,0,0,0-1.189,0A1.39,1.39,0,1,1,2.053,32.5a.743.743,0,0,0,0-1.189,1.386,1.386,0,0,1,0-2.226.743.743,0,0,0,0-1.189,1.386,1.386,0,0,1,0-2.226.743.743,0,0,0,0-1.189,1.386,1.386,0,0,1,0-2.226.743.743,0,0,0,0-1.189,1.386,1.386,0,0,1,0-2.226.743.743,0,0,0,0-1.189,1.386,1.386,0,0,1,0-2.226.743.743,0,0,0,0-1.189,1.386,1.386,0,0,1,0-2.226.743.743,0,0,0,0-1.189,1.386,1.386,0,0,1,0-2.226.743.743,0,0,0,0-1.189,1.386,1.386,0,0,1,0-2.226.743.743,0,0,0,0-1.189A1.39,1.39,0,1,1,4,2.045a.743.743,0,0,0,1.189,0,1.386,1.386,0,0,1,2.226,0,.743.743,0,0,0,1.189,0,1.386,1.386,0,0,1,2.226,0,.743.743,0,0,0,1.189,0,1.386,1.386,0,0,1,2.226,0,.743.743,0,0,0,1.189,0,1.386,1.386,0,0,1,2.226,0,.743.743,0,0,0,1.189,0,1.386,1.386,0,0,1,2.226,0,.743.743,0,0,0,1.189,0,1.386,1.386,0,0,1,2.226,0,.743.743,0,0,0,1.189,0,1.386,1.386,0,0,1,2.226,0,.743.743,0,0,0,1.189,0,1.386,1.386,0,0,1,2.226,0,.743.743,0,0,0,1.189,0A1.39,1.39,0,1,1,34.449,3.99a.743.743,0,0,0,0,1.189,1.383,1.383,0,0,1,.213,2.028,2.888,2.888,0,0,0-.773-.107,2.848,2.848,0,0,0-1.707.561,2.878,2.878,0,0,0-3.415,0,2.878,2.878,0,0,0-3.415,0,2.878,2.878,0,0,0-3.415,0,2.878,2.878,0,0,0-3.415,0,2.878,2.878,0,0,0-3.415,0,2.878,2.878,0,0,0-3.415,0A2.848,2.848,0,0,0,9.985,7.1,2.88,2.88,0,0,0,7.109,9.977a2.847,2.847,0,0,0,.561,1.707,2.878,2.878,0,0,0,0,3.415,2.878,2.878,0,0,0,0,3.415,2.877,2.877,0,0,0,0,3.415,2.878,2.878,0,0,0,0,3.415,2.878,2.878,0,0,0,0,3.415,2.877,2.877,0,0,0,0,3.415,2.848,2.848,0,0,0-.561,1.707,2.891,2.891,0,0,0,.107.773,1.383,1.383,0,0,1-2.029-.212Zm7.1,7.1a.743.743,0,0,0-1.189,0A1.39,1.39,0,1,1,9.154,39.6a.743.743,0,0,0,0-1.189,1.386,1.386,0,0,1,0-2.226.743.743,0,0,0,0-1.189,1.386,1.386,0,0,1,0-2.226.743.743,0,0,0,0-1.189,1.386,1.386,0,0,1,0-2.226.743.743,0,0,0,0-1.189,1.386,1.386,0,0,1,0-2.226.743.743,0,0,0,0-1.189,1.386,1.386,0,0,1,0-2.226.743.743,0,0,0,0-1.189,1.386,1.386,0,0,1,0-2.226.743.743,0,0,0,0-1.189,1.386,1.386,0,0,1,0-2.226.743.743,0,0,0,0-1.189,1.386,1.386,0,0,1,0-2.226.743.743,0,0,0,0-1.189A1.39,1.39,0,1,1,11.1,9.146a.743.743,0,0,0,1.189,0,1.386,1.386,0,0,1,2.226,0,.743.743,0,0,0,1.189,0,1.386,1.386,0,0,1,2.226,0,.743.743,0,0,0,1.189,0,1.386,1.386,0,0,1,2.226,0,.743.743,0,0,0,1.189,0,1.386,1.386,0,0,1,2.226,0,.743.743,0,0,0,1.189,0,1.386,1.386,0,0,1,2.226,0,.743.743,0,0,0,1.189,0,1.386,1.386,0,0,1,2.226,0,.743.743,0,0,0,1.189,0,1.386,1.386,0,0,1,2.226,0,.743.743,0,0,0,1.189,0,1.386,1.386,0,0,1,2.226,0,.743.743,0,0,0,1.189,0,1.39,1.39,0,1,1,1.944,1.945.743.743,0,0,0,0,1.189,1.383,1.383,0,0,1,.213,2.029,2.889,2.889,0,0,0-.773-.107,2.847,2.847,0,0,0-1.707.561,2.877,2.877,0,0,0-3.415,0,2.877,2.877,0,0,0-3.415,0,2.877,2.877,0,0,0-3.415,0,2.877,2.877,0,0,0-3.415,0,2.877,2.877,0,0,0-3.415,0,2.877,2.877,0,0,0-3.415,0,2.847,2.847,0,0,0-1.707-.561,2.88,2.88,0,0,0-2.877,2.877,2.848,2.848,0,0,0,.561,1.707,2.878,2.878,0,0,0,0,3.415,2.877,2.877,0,0,0,0,3.415,2.878,2.878,0,0,0,0,3.415,2.878,2.878,0,0,0,0,3.415,2.877,2.877,0,0,0,0,3.415,2.878,2.878,0,0,0,0,3.415,2.848,2.848,0,0,0-.561,1.707,2.89,2.89,0,0,0,.107.773,1.383,1.383,0,0,1-2.029-.212Zm3.407,6.269a1.381,1.381,0,0,1,.56-1.113.743.743,0,0,0,0-1.189,1.386,1.386,0,0,1,0-2.226.743.743,0,0,0,0-1.189,1.386,1.386,0,0,1,0-2.226.743.743,0,0,0,0-1.189,1.386,1.386,0,0,1,0-2.226.743.743,0,0,0,0-1.189,1.386,1.386,0,0,1,0-2.226.743.743,0,0,0,0-1.189,1.386,1.386,0,0,1,0-2.226.743.743,0,0,0,0-1.189,1.386,1.386,0,0,1,0-2.226.743.743,0,0,0,0-1.189,1.386,1.386,0,0,1,0-2.226.743.743,0,0,0,0-1.189,1.386,1.386,0,0,1,0-2.226.743.743,0,0,0,0-1.189,1.389,1.389,0,1,1,1.778-2.128V48.827a1.373,1.373,0,0,1-.947.377,1.393,1.393,0,0,1-1.392-1.392Zm7.244.986V40.69a.743.743,0,0,0-1.485,0v8.131a1.379,1.379,0,0,1-1.936-.029V16.1a1.378,1.378,0,0,1,1.936-.029V37.126a.743.743,0,0,0,1.485,0V16.092a1.378,1.378,0,0,1,1.936-.017V48.815a1.378,1.378,0,0,1-1.936-.017Zm3.421.006V16.086a1.378,1.378,0,0,1,1.936-.006V48.809a1.378,1.378,0,0,1-1.936-.006Zm6.842.012V25.146a.743.743,0,1,0-1.485,0V48.8a1.378,1.378,0,0,1-1.936.006V16.08a1.378,1.378,0,0,1,1.936.006v5.5a.743.743,0,1,0,1.485,0V16.074a1.378,1.378,0,0,1,1.936.018V48.8a1.378,1.378,0,0,1-1.936.018Zm3.421.006V16.069a1.378,1.378,0,0,1,1.936.029V48.792a1.378,1.378,0,0,1-1.936.029Zm6.842.011V44.155a.743.743,0,1,0-1.485,0v4.632a1.379,1.379,0,0,1-1.936.041V16.063a1.379,1.379,0,0,1,1.936.041V40.591a.743.743,0,1,0,1.485,0V16.057a1.38,1.38,0,0,1,1.936.052V48.78a1.38,1.38,0,0,1-1.936.052ZM48.65,19.379a1.386,1.386,0,0,1,0,2.226.743.743,0,0,0,0,1.189,1.386,1.386,0,0,1,0,2.226.743.743,0,0,0,0,1.189,1.386,1.386,0,0,1,0,2.226.743.743,0,0,0,0,1.189,1.386,1.386,0,0,1,0,2.226.743.743,0,0,0,0,1.189,1.386,1.386,0,0,1,0,2.226.743.743,0,0,0,0,1.189,1.386,1.386,0,0,1,0,2.226.743.743,0,0,0,0,1.189,1.386,1.386,0,0,1,0,2.226.743.743,0,0,0,0,1.189,1.386,1.386,0,0,1,0,2.226.743.743,0,0,0,0,1.189,1.389,1.389,0,1,1-1.766,2.14V16.051a1.373,1.373,0,0,1,.934-.365,1.39,1.39,0,0,1,.832,2.5.743.743,0,0,0,0,1.189Z"/>
        <circle id="Elipse_8023" data-name="Elipse 8023" cx="0.743" cy="0.743" r="0.743" transform="translate(38.568 10.94)"/>
        <circle id="Elipse_8024" data-name="Elipse 8024" cx="0.743" cy="0.743" r="0.743" transform="translate(34.608 10.94)"/>
        <circle id="Elipse_8025" data-name="Elipse 8025" cx="0.743" cy="0.743" r="0.743" transform="translate(30.648 10.94)"/>
        <circle id="Elipse_8026" data-name="Elipse 8026" cx="0.743" cy="0.743" r="0.743" transform="translate(26.688 10.94)"/>
        <circle id="Elipse_8027" data-name="Elipse 8027" cx="0.743" cy="0.743" r="0.743" transform="translate(22.728 10.94)"/>
        <circle id="Elipse_8028" data-name="Elipse 8028" cx="0.743" cy="0.743" r="0.743" transform="translate(18.768 10.94)"/>
        <circle id="Elipse_8029" data-name="Elipse 8029" cx="0.743" cy="0.743" r="0.743" transform="translate(14.808 10.94)"/>
        <circle id="Elipse_8030" data-name="Elipse 8030" cx="0.743" cy="0.743" r="0.743" transform="translate(10.848 10.94)"/>
        <circle id="Elipse_8031" data-name="Elipse 8031" cx="0.743" cy="0.743" r="0.743" transform="translate(10.848 14.702)"/>
        <circle id="Elipse_8032" data-name="Elipse 8032" cx="0.743" cy="0.743" r="0.743" transform="translate(10.848 18.464)"/>
        <circle id="Elipse_8033" data-name="Elipse 8033" cx="0.743" cy="0.743" r="0.743" transform="translate(10.848 22.226)"/>
        <circle id="Elipse_8034" data-name="Elipse 8034" cx="0.743" cy="0.743" r="0.743" transform="translate(10.848 25.988)"/>
        <circle id="Elipse_8035" data-name="Elipse 8035" cx="0.743" cy="0.743" r="0.743" transform="translate(10.848 29.75)"/>
        <circle id="Elipse_8036" data-name="Elipse 8036" cx="0.743" cy="0.743" r="0.743" transform="translate(10.848 33.512)"/>
        <circle id="Elipse_8037" data-name="Elipse 8037" cx="0.743" cy="0.743" r="0.743" transform="translate(10.848 37.274)"/>
      </g>
    </g>
  </g>
</svg>
