<svg xmlns="http://www.w3.org/2000/svg" xmlns:xlink="http://www.w3.org/1999/xlink" width="343.589" height="227.254" viewBox="0 0 343.589 227.254">
  <defs>
    <clipPath id="clip-path">
      <rect id="Rectángulo_355840" data-name="Rectángulo 355840" width="343.589" height="227.254" fill="none"/>
    </clipPath>
    <clipPath id="clip-path-3">
      <rect id="Rectángulo_355837" data-name="Rectángulo 355837" width="51.069" height="57.106" fill="none"/>
    </clipPath>
  </defs>
  <g id="Grupo_1043291" data-name="Grupo 1043291" transform="translate(-319.023 -5382.746)">
    <g id="Grupo_1043072" data-name="Grupo 1043072" transform="translate(319.023 5382.746)">
      <g id="Grupo_1043077" data-name="Grupo 1043077" clip-path="url(#clip-path)">
        <g id="Grupo_1043076" data-name="Grupo 1043076">
          <g id="Grupo_1043075" data-name="Grupo 1043075" clip-path="url(#clip-path)">
            <path id="Trazado_773129" data-name="Trazado 773129" d="M16.861,210.459a.766.766,0,0,1-.251.975.607.607,0,0,1-.871-.279A151.077,151.077,0,0,1,3.065,174.062,155.513,155.513,0,0,1,.243,134.573c2.19-39.533,18.921-74.331,44.2-98.635s59.091-38.1,95.463-35.66a125.151,125.151,0,0,1,69.561,27.18,143.444,143.444,0,0,1,45.386,63.816l.046.1.014.036c.018.043.037.089.06.149,2.951,7.587,6.2,13.579,10.254,17.839a23.625,23.625,0,0,0,14.971,7.473.7.7,0,0,1,.572.786.664.664,0,0,1-.7.641,24.812,24.812,0,0,1-15.72-7.855c-4.189-4.405-7.532-10.551-10.55-18.31l-.039-.094L253.737,92l-.045-.106h0l-.016-.041a142.022,142.022,0,0,0-44.95-63.222,123.97,123.97,0,0,0-68.9-26.916C103.8-.71,70.307,12.964,45.278,37.029S3.691,95.529,1.524,134.658a153.945,153.945,0,0,0,2.793,39.088,149.4,149.4,0,0,0,12.545,36.713" transform="translate(0 0)" fill="#ffa2a4" fill-rule="evenodd"/>
            <path id="Trazado_773130" data-name="Trazado 773130" d="M253.914,65.933a197.262,197.262,0,0,1,10.7,20.9c5.751,12.863,10.066,20.188,27,20.9s39.3-30.551,32.274-53.775S280.435,18.59,254.553,18.59s-11.5,28.942-.639,47.343M134.893,6.617c52.549,0,97.84,34.7,118.578,84.716.042.091.086.174.127.267,6.77,15.273,14.43,23.9,26.982,24.534,35.425,1.789,64.985,19.981,64.985,65.122,0,19.123-7.359,36.324-19.08,48.259H247.949c-.407-.416-.812-.837-1.208-1.265-.23.424-.465.845-.7,1.265H23.745a158.354,158.354,0,0,1-19.5-76.805C4.244,72.026,62.738,6.617,134.893,6.617" transform="translate(-1.975 -2.662)" fill="#ffa2a4" fill-rule="evenodd"/>
            <path id="Trazado_773131" data-name="Trazado 773131" d="M519.59,137.16a.282.282,0,0,1-.265-.3V134h-2.183a.3.3,0,0,1,0-.593h5.78v-3.929h-4.253a.3.3,0,0,1,0-.594h15.61a.3.3,0,0,1,0,.594H523.452v3.929h15.482v-3.929h-1.715a.3.3,0,0,1,0-.594h6.171a.3.3,0,0,1,0,.594h-3.925v3.929H541.7a.3.3,0,0,1,0,.593H519.855v2.859a.282.282,0,0,1-.265.3M515.384,134h-.81a.3.3,0,0,1,0-.593h.81a.3.3,0,0,1,0,.593" transform="translate(-239.4 -51.851)" fill="#ffc7c1"/>
            <path id="Trazado_773132" data-name="Trazado 773132" d="M45.09,185.881a.282.282,0,0,1-.265-.3v-2.859H42.64a.3.3,0,0,1,0-.593h5.781V178.2H44.169a.3.3,0,0,1,0-.594H59.778a.3.3,0,0,1,0,.594H48.952v3.929H64.433V178.2H62.719a.3.3,0,0,1,0-.594H68.89a.3.3,0,0,1,0,.594H64.964v3.929H67.2a.3.3,0,0,1,0,.593H45.355v2.859a.282.282,0,0,1-.265.3m-4.206-3.155h-.81a.3.3,0,0,1,0-.593h.81a.3.3,0,0,1,0,.593" transform="translate(-18.53 -71.451)" fill="#ffc7c1"/>
            <path id="Trazado_773133" data-name="Trazado 773133" d="M193.445,44.14a.282.282,0,0,1-.265-.3V40.985H191a.3.3,0,0,1,0-.593h5.781v-3.93h-4.253a.3.3,0,0,1,0-.594h15.609a.3.3,0,0,1,0,.594H197.306v3.93h15.482v-3.93h-1.715a.3.3,0,0,1,0-.594h6.171a.3.3,0,0,1,0,.594h-3.926v3.93h2.232a.3.3,0,0,1,0,.593H193.71v2.858a.282.282,0,0,1-.265.3m-4.206-3.155h-.81a.3.3,0,0,1,0-.593h.81a.3.3,0,0,1,0,.593" transform="translate(-87.586 -14.43)" fill="#ffc7c1"/>
            <path id="Trazado_773134" data-name="Trazado 773134" d="M280.381,316.283a.282.282,0,0,1-.265-.3v-2.858h-2.184a.3.3,0,0,1,0-.593h5.78v-3.93H279.46a.3.3,0,0,1,0-.594h15.609a.3.3,0,0,1,0,.594H284.241v3.93h15.482v-3.93h-1.715a.3.3,0,0,1,0-.594h6.172a.3.3,0,0,1,0,.594h-3.926v3.93h2.231a.3.3,0,0,1,0,.593h-21.84v2.858a.282.282,0,0,1-.265.3m-4.207-3.155h-.81a.3.3,0,0,1,0-.593h.81a.3.3,0,0,1,0,.593" transform="translate(-128.053 -123.91)" fill="#ffc7c1"/>
            <path id="Trazado_773135" data-name="Trazado 773135" d="M465.475,210.647a.282.282,0,0,1-.265-.3v-2.858h-2.184a.3.3,0,0,1,0-.593h5.78v-3.93h-4.252a.3.3,0,0,1,0-.593h15.609a.3.3,0,0,1,0,.593H469.336v3.93h15.481v-3.93H483.1a.3.3,0,0,1,0-.593h6.171a.3.3,0,0,1,0,.593h-3.926v3.93h2.232a.3.3,0,0,1,0,.593H465.74v2.858a.282.282,0,0,1-.265.3m-4.207-3.155h-.809a.3.3,0,0,1,0-.593h.809a.3.3,0,0,1,0,.593" transform="translate(-214.21 -81.414)" fill="#ffc7c1"/>
            <g id="Grupo_1043074" data-name="Grupo 1043074" transform="translate(18.411 38.352)" opacity="0.5">
              <g id="Grupo_1043073" data-name="Grupo 1043073">
                <g id="Grupo_1043072-2" data-name="Grupo 1043072" clip-path="url(#clip-path-3)">
                  <path id="Trazado_773136" data-name="Trazado 773136" d="M39.656,75.432c8.538-12.55,24.557-14.985,35.781-5.439,9.943,8.458,12.785,23.482,7.368,35.526l2.442,8a1.437,1.437,0,0,1-.182,1.25,1.126,1.126,0,0,1-1.028.529l-7.853-.515a23.461,23.461,0,0,1-31.664.655c-11.224-9.547-13.4-27.46-4.864-40.011" transform="translate(-34.443 -64.165)" fill="#f56e8f" fill-rule="evenodd"/>
                </g>
              </g>
            </g>
            <path id="Trazado_773137" data-name="Trazado 773137" d="M38.024,70.629C46.562,58.079,62.581,55.644,73.8,65.19c9.944,8.458,12.786,23.481,7.368,35.526l2.443,8a1.444,1.444,0,0,1-.182,1.251,1.128,1.128,0,0,1-1.029.529l-7.852-.514a23.461,23.461,0,0,1-31.664.654c-11.224-9.546-13.4-27.46-4.865-40.01" transform="translate(-15.273 -23.881)" fill="#fff" fill-rule="evenodd"/>
            <path id="Trazado_773138" data-name="Trazado 773138" d="M61.135,116.777A24.053,24.053,0,0,1,45.5,110.854a27.776,27.776,0,0,1-5.949-7.121.318.318,0,0,1,.076-.41.249.249,0,0,1,.367.085,27.2,27.2,0,0,0,5.826,6.975,23.12,23.12,0,0,0,31.335-.647.251.251,0,0,1,.184-.067l7.852.515a.857.857,0,0,0,.8-.413,1.106,1.106,0,0,0,.141-.975l-2.442-8a.328.328,0,0,1,.014-.229c4.958-11.024,2.829-24.653-5.176-33.144a.323.323,0,0,1-.01-.42.246.246,0,0,1,.375-.011c8.147,8.641,10.332,22.494,5.335,33.729L86.64,108.6a1.753,1.753,0,0,1-.221,1.526,1.381,1.381,0,0,1-1.256.646l-7.749-.508a24.08,24.08,0,0,1-16.279,6.51M36.629,96.262a.271.271,0,0,1-.254-.213c-.212-.81-.394-1.634-.54-2.445a.3.3,0,0,1,.208-.349.267.267,0,0,1,.312.232c.142.8.32,1.6.529,2.4a.3.3,0,0,1-.18.368.254.254,0,0,1-.075.012m-1.04-8.276h0a.283.283,0,0,1-.264-.3,30.844,30.844,0,0,1,5.264-17.259h0c5.53-8.129,14.606-12.41,23.685-11.169a.291.291,0,0,1,.231.33.275.275,0,0,1-.3.258c-8.893-1.214-17.782,2.977-23.2,10.94h0a30.215,30.215,0,0,0-5.154,16.9.282.282,0,0,1-.265.295m35.1-26.273a.238.238,0,0,1-.1-.022,23.65,23.65,0,0,0-2.43-.941.3.3,0,0,1-.181-.367.261.261,0,0,1,.328-.2,24,24,0,0,1,2.482.961.309.309,0,0,1,.146.386.266.266,0,0,1-.245.185" transform="translate(-16.443 -23.754)" fill="#f9d4c8"/>
            <path id="Trazado_773139" data-name="Trazado 773139" d="M281.727,90.714a17.536,17.536,0,0,1-10.752-3.763l-5.6.867a1.064,1.064,0,0,1-1.011-.417,1.351,1.351,0,0,1-.256-1.171l1.341-5.878a23.313,23.313,0,0,1,2.175-25.024.246.246,0,0,1,.375-.023.323.323,0,0,1,.02.419,22.657,22.657,0,0,0-2.058,24.427.326.326,0,0,1,.03.227l-1.368,6a.718.718,0,0,0,.137.63.561.561,0,0,0,.544.224l5.7-.883a.246.246,0,0,1,.188.051A16.878,16.878,0,0,0,294,84.855a20.382,20.382,0,0,0,3.877-5.445.251.251,0,0,1,.36-.117.315.315,0,0,1,.1.4,20.967,20.967,0,0,1-3.988,5.6,17.836,17.836,0,0,1-12.631,5.417M300.016,74.1a.242.242,0,0,1-.055-.007.3.3,0,0,1-.205-.351c.111-.589.2-1.187.261-1.774a.271.271,0,0,1,.294-.259.29.29,0,0,1,.232.329c-.064.605-.154,1.22-.268,1.826a.275.275,0,0,1-.259.236m.331-6.107a.278.278,0,0,1-.264-.271,21.689,21.689,0,0,0-4.617-11.957h0A17.378,17.378,0,0,0,278.04,49.3a.267.267,0,0,1-.312-.231.3.3,0,0,1,.207-.35,17.875,17.875,0,0,1,17.927,6.648,22.308,22.308,0,0,1,4.751,12.3.289.289,0,0,1-.242.32h-.023m-26.97-16.906a.264.264,0,0,1-.237-.163.314.314,0,0,1,.119-.4,17.816,17.816,0,0,1,1.767-.865.258.258,0,0,1,.342.173.308.308,0,0,1-.154.382,17.729,17.729,0,0,0-1.718.84.245.245,0,0,1-.118.031" transform="translate(-122.324 -19.43)" fill="#f9d4c8"/>
            <path id="Trazado_773140" data-name="Trazado 773140" d="M279.947,70.8h0a4.959,4.959,0,0,1,7.546,0l1.46,1.632,1.459-1.632a4.96,4.96,0,0,1,7.547,0,6.5,6.5,0,0,1,0,8.438L296.5,80.87l-7.546,8.438-7.547-8.438-1.459-1.632a6.5,6.5,0,0,1,0-8.438" transform="translate(-129.585 -27.782)" fill="#ffc7c1" fill-rule="evenodd"/>
            <path id="Trazado_773141" data-name="Trazado 773141" d="M421.552,112.267a.321.321,0,1,0-.638,0v.727a.321.321,0,1,0,.638,0Zm-1.865,1.372a.359.359,0,0,0,0,.713h.651a.359.359,0,0,0,0-.713Zm2.442,0a.359.359,0,0,0,0,.713h.651a.359.359,0,0,0,0-.713ZM421.552,115a.321.321,0,1,0-.638,0v.728a.321.321,0,1,0,.638,0Z" transform="translate(-195.207 -45.02)" fill="#fff" fill-rule="evenodd"/>
            <path id="Trazado_773142" data-name="Trazado 773142" d="M470.614,52.533a.32.32,0,1,0-.637,0v.728a.32.32,0,1,0,.637,0Zm-1.864,1.372a.359.359,0,0,0,0,.713h.651a.359.359,0,0,0,0-.713Zm2.442,0a.359.359,0,0,0,0,.713h.651a.359.359,0,0,0,0-.713Zm-.577,1.358a.32.32,0,1,0-.637,0v.727a.32.32,0,1,0,.637,0Z" transform="translate(-218.045 -20.99)" fill="#fff" fill-rule="evenodd"/>
            <path id="Trazado_773143" data-name="Trazado 773143" d="M272.433,142.794a.321.321,0,1,0-.638,0v.728a.321.321,0,1,0,.638,0Zm-1.864,1.373a.358.358,0,0,0,0,.712h.651a.358.358,0,0,0,0-.712Zm2.442,0a.358.358,0,0,0,0,.712h.651a.358.358,0,0,0,0-.712Zm-.577,1.357a.321.321,0,1,0-.638,0v.727a.321.321,0,1,0,.638,0Z" transform="translate(-125.796 -57.301)" fill="#fff" fill-rule="evenodd"/>
            <path id="Trazado_773144" data-name="Trazado 773144" d="M275.267,19.952a.321.321,0,1,0-.638,0v.727a.321.321,0,1,0,.638,0ZM273.4,21.324a.359.359,0,0,0,0,.713h.651a.359.359,0,0,0,0-.713Zm2.441,0a.359.359,0,0,0,0,.713h.651a.359.359,0,0,0,0-.713Zm-.576,1.357a.321.321,0,1,0-.638,0v.728a.321.321,0,1,0,.638,0Z" transform="translate(-127.115 -7.883)" fill="#fff" fill-rule="evenodd"/>
            <path id="Trazado_773145" data-name="Trazado 773145" d="M147.7,55.86a.321.321,0,1,0-.638,0v.728a.321.321,0,1,0,.638,0Zm-1.865,1.372a.359.359,0,0,0,0,.714h.652a.359.359,0,0,0,0-.714Zm2.441,0a.359.359,0,0,0,0,.714h.651a.359.359,0,0,0,0-.714Zm-.576,1.358a.321.321,0,1,0-.638,0v.728a.321.321,0,1,0,.638,0Z" transform="translate(-67.735 -22.329)" fill="#fff" fill-rule="evenodd"/>
            <path id="Trazado_773146" data-name="Trazado 773146" d="M97.619,210.83a.321.321,0,1,0-.638,0v.727a.321.321,0,1,0,.638,0ZM95.754,212.2a.359.359,0,0,0,0,.713h.652a.359.359,0,0,0,0-.713Zm2.441,0a.359.359,0,0,0,0,.713h.651a.359.359,0,0,0,0-.713Zm-.576,1.357a.321.321,0,1,0-.638,0v.729a.321.321,0,1,0,.638,0Z" transform="translate(-44.423 -84.671)" fill="#fff" fill-rule="evenodd"/>
            <path id="Trazado_773147" data-name="Trazado 773147" d="M20.134,265.637a.321.321,0,1,0-.638,0v.727a.321.321,0,1,0,.638,0Zm-1.864,1.372a.359.359,0,0,0,0,.713h.651a.359.359,0,0,0,0-.713Zm2.441,0a.359.359,0,0,0,0,.713h.652a.359.359,0,0,0,0-.713Zm-.576,1.357a.321.321,0,1,0-.638,0v.728a.321.321,0,1,0,.638,0Z" transform="translate(-8.356 -106.719)" fill="#fff" fill-rule="evenodd"/>
            <path id="Trazado_773148" data-name="Trazado 773148" d="M309.285,278.866a.321.321,0,1,0-.638,0v.727a.321.321,0,1,0,.638,0Zm-1.865,1.372a.359.359,0,0,0,0,.712h.651a.358.358,0,0,0,0-.712Zm2.442,0a.358.358,0,0,0,0,.712h.651a.358.358,0,0,0,0-.712Zm-.576,1.357a.321.321,0,1,0-.638,0v.728a.321.321,0,1,0,.638,0Z" transform="translate(-142.95 -112.041)" fill="#fff" fill-rule="evenodd"/>
            <path id="Trazado_773149" data-name="Trazado 773149" d="M619.226,276.03a.321.321,0,1,0-.637,0v.728a.321.321,0,1,0,.637,0Zm-1.865,1.373a.359.359,0,0,0,0,.713h.651a.359.359,0,0,0,0-.713Zm2.442,0a.359.359,0,0,0,0,.713h.651a.359.359,0,0,0,0-.713Zm-.577,1.357a.321.321,0,1,0-.637,0v.728a.321.321,0,1,0,.637,0Z" transform="translate(-287.22 -110.901)" fill="#fff" fill-rule="evenodd"/>
            <path id="Trazado_773150" data-name="Trazado 773150" d="M526.621,341.233a.321.321,0,1,0-.638,0v.727a.321.321,0,1,0,.638,0Zm-1.865,1.372a.358.358,0,0,0,0,.712h.651a.358.358,0,0,0,0-.712Zm2.442,0a.358.358,0,0,0,0,.712h.651a.358.358,0,0,0,0-.712Zm-.577,1.357a.321.321,0,1,0-.638,0v.728a.321.321,0,1,0,.638,0Z" transform="translate(-244.115 -137.131)" fill="#fff" fill-rule="evenodd"/>
            <path id="Trazado_773151" data-name="Trazado 773151" d="M367.219,68.55a.321.321,0,1,0-.638,0v.727a.321.321,0,1,0,.638,0Zm-1.865,1.372a.359.359,0,0,0,0,.713H366a.359.359,0,0,0,0-.713Zm2.441,0a.359.359,0,0,0,0,.713h.652a.359.359,0,0,0,0-.713Zm-.576,1.357a.321.321,0,1,0-.638,0v.728a.321.321,0,1,0,.638,0Z" transform="translate(-169.916 -27.433)" fill="#fff" fill-rule="evenodd"/>
            <path id="Trazado_773152" data-name="Trazado 773152" d="M540.66,206.2a.321.321,0,1,0-.638,0v.728a.321.321,0,1,0,.638,0Zm-1.865,1.372a.359.359,0,0,0,0,.714h.652a.359.359,0,0,0,0-.714Zm2.442,0a.359.359,0,0,0,0,.714h.65a.359.359,0,0,0,0-.714Zm-.576,1.358a.321.321,0,1,0-.638,0v.728a.321.321,0,1,0,.638,0Z" transform="translate(-250.65 -82.81)" fill="#fff" fill-rule="evenodd"/>
            <path id="Trazado_773153" data-name="Trazado 773153" d="M104.679,90.484a.251.251,0,0,1-.188-.087l-1.5-1.681-1.5,1.681a.245.245,0,0,1-.375,0,.321.321,0,0,1,0-.419l1.5-1.681-1.5-1.681a.321.321,0,0,1,0-.419.246.246,0,0,1,.375,0l1.5,1.681,1.5-1.681a.247.247,0,0,1,.375,0,.322.322,0,0,1,0,.419l-1.5,1.681,1.5,1.681a.322.322,0,0,1,0,.419.251.251,0,0,1-.188.087" transform="translate(-47.029 -34.641)" fill="#ffa2a4"/>
            <path id="Trazado_773154" data-name="Trazado 773154" d="M104.679,100.629a.253.253,0,0,1-.188-.087l-1.5-1.681-1.5,1.681a.246.246,0,0,1-.375,0,.322.322,0,0,1,0-.42l1.5-1.681-1.5-1.681a.321.321,0,0,1,0-.419.246.246,0,0,1,.375,0l1.5,1.681,1.5-1.681a.247.247,0,0,1,.375,0,.322.322,0,0,1,0,.419l-1.5,1.681,1.5,1.681a.323.323,0,0,1,0,.42.253.253,0,0,1-.188.087" transform="translate(-47.029 -38.722)" fill="#ffa2a4"/>
            <path id="Trazado_773155" data-name="Trazado 773155" d="M104.679,110.772a.251.251,0,0,1-.188-.087l-1.5-1.681-1.5,1.681a.245.245,0,0,1-.375,0,.321.321,0,0,1,0-.419l1.5-1.681-1.5-1.681a.321.321,0,0,1,0-.419.246.246,0,0,1,.375,0l1.5,1.681,1.5-1.681a.247.247,0,0,1,.375,0,.322.322,0,0,1,0,.419l-1.5,1.681,1.5,1.681a.322.322,0,0,1,0,.419.251.251,0,0,1-.188.087" transform="translate(-47.029 -42.803)" fill="#ffa2a4"/>
            <path id="Trazado_773156" data-name="Trazado 773156" d="M94.8,125.536h-.532a.3.3,0,0,1,0-.593H94.8a4.956,4.956,0,0,0,4.652-5.2v-4.369a.267.267,0,1,1,.53,0v4.369c0,3.2-2.325,5.8-5.182,5.8" transform="translate(-43.755 -46.293)" fill="#ffa2a4"/>
            <path id="Trazado_773157" data-name="Trazado 773157" d="M86.568,114.991h-.032a2.982,2.982,0,0,1-2.174-1.018,4.808,4.808,0,0,1-.969-3.35c.079-4.14,2.777-27.08,2.891-28.055a.263.263,0,0,1,.526,0c.114.975,2.813,23.916,2.893,28.055a4.813,4.813,0,0,1-.97,3.35,2.983,2.983,0,0,1-2.166,1.019m-.02-30.09c-.7,6.048-2.561,22.386-2.626,25.735a4.222,4.222,0,0,0,.818,2.922,2.5,2.5,0,0,0,1.787.84l.041.3v-.3a2.5,2.5,0,0,0,1.787-.84,4.216,4.216,0,0,0,.818-2.922c-.064-3.349-1.926-19.687-2.626-25.735" transform="translate(-38.817 -33.112)" fill="#84d2cd"/>
            <path id="Trazado_773158" data-name="Trazado 773158" d="M78.934,125.012h-7.2c-2.857,0-5.181-2.6-5.181-5.8v-5.147a.267.267,0,1,1,.531,0v5.147a4.955,4.955,0,0,0,4.65,5.2h7.2a.3.3,0,0,1,0,.593" transform="translate(-30.98 -45.77)" fill="#ffa2a4"/>
            <path id="Trazado_773159" data-name="Trazado 773159" d="M70.1,104.963a1.873,1.873,0,0,1-1.4-.65,2.411,2.411,0,0,1,0-3.139,1.88,1.88,0,0,1,2.807,0,2.408,2.408,0,0,1,0,3.139,1.872,1.872,0,0,1-1.4.65m0-3.846a1.374,1.374,0,0,0-1.029.476,1.768,1.768,0,0,0,0,2.3,1.379,1.379,0,0,0,2.057,0,1.766,1.766,0,0,0,0-2.3,1.373,1.373,0,0,0-1.028-.476" transform="translate(-31.705 -40.448)" fill="#ffa2a4"/>
            <path id="Trazado_773160" data-name="Trazado 773160" d="M65.366,98.63a.251.251,0,0,1-.188-.087l-4.537-5.074a.321.321,0,0,1,0-.419.246.246,0,0,1,.375,0l4.538,5.074a.321.321,0,0,1,0,.419.251.251,0,0,1-.188.087" transform="translate(-28.191 -37.398)" fill="#ffa2a4"/>
            <path id="Trazado_773161" data-name="Trazado 773161" d="M58.866,104.962a1.87,1.87,0,0,1-1.4-.65,2.408,2.408,0,0,1,0-3.139,1.88,1.88,0,0,1,2.807,0,2.411,2.411,0,0,1,0,3.139,1.872,1.872,0,0,1-1.4.65m0-3.846a1.37,1.37,0,0,0-1.028.476,1.764,1.764,0,0,0,0,2.3,1.378,1.378,0,0,0,2.057,0,1.766,1.766,0,0,0,0-2.3,1.373,1.373,0,0,0-1.029-.476" transform="translate(-26.477 -40.448)" fill="#ffa2a4"/>
            <path id="Trazado_773162" data-name="Trazado 773162" d="M62.639,98.63a.251.251,0,0,1-.188-.087.322.322,0,0,1,0-.419l4.538-5.074a.246.246,0,0,1,.375,0,.321.321,0,0,1,0,.419l-4.537,5.074a.251.251,0,0,1-.188.087" transform="translate(-29.034 -37.398)" fill="#ffa2a4"/>
            <path id="Trazado_773163" data-name="Trazado 773163" d="M65.565,103.248H54.074a1.7,1.7,0,0,1-1.591-1.779V87.913a1.7,1.7,0,0,1,1.591-1.779H65.565a1.7,1.7,0,0,1,1.591,1.779v13.555a1.7,1.7,0,0,1-1.591,1.779M54.074,86.727a1.13,1.13,0,0,0-1.06,1.186v13.555a1.13,1.13,0,0,0,1.06,1.186H65.565a1.13,1.13,0,0,0,1.06-1.186V87.913a1.13,1.13,0,0,0-1.06-1.186Z" transform="translate(-24.43 -34.651)" fill="#84d2cd"/>
            <path id="Trazado_773164" data-name="Trazado 773164" d="M499.8,47.886a7.2,7.2,0,0,1,6.476,4.491H493.322a7.2,7.2,0,0,1,6.475-4.491" transform="translate(-229.631 -19.264)" fill="#ffc7c1" fill-rule="evenodd"/>
            <path id="Trazado_773165" data-name="Trazado 773165" d="M506.562,75.219v5.615a2.883,2.883,0,0,1-2.7,3.02h-12.03a2.883,2.883,0,0,1-2.7-3.02V71.148c0-2.4,2.261-7.32,2.261-10.241V57.1H504.3v3.808c0,2.921,2.261,7.845,2.261,10.241Z" transform="translate(-227.68 -22.97)" fill="#fff" fill-rule="evenodd"/>
            <path id="Trazado_773166" data-name="Trazado 773166" d="M493.359,60.178V57.1h12.912v3.808a7.506,7.506,0,0,0,.048.8Z" transform="translate(-229.649 -22.97)" fill="#ffc7c1" fill-rule="evenodd"/>
            <path id="Trazado_773167" data-name="Trazado 773167" d="M493.062,71.828l-.1.332a24.4,24.4,0,0,0-1.2,4.914V86.76a1.385,1.385,0,0,0,1.295,1.446h12.031a1.385,1.385,0,0,0,1.294-1.446V77.074a24.434,24.434,0,0,0-1.2-4.914l-.1-.332Z" transform="translate(-228.905 -28.896)" fill="#ffc7c1" fill-rule="evenodd"/>
            <path id="Trazado_773168" data-name="Trazado 773168" d="M492.72,54.516h12.912a.784.784,0,0,1,.734.82v1.577a.784.784,0,0,1-.734.82H492.72a.783.783,0,0,1-.734-.82V55.336a.783.783,0,0,1,.734-.82" transform="translate(-229.009 -21.931)" fill="#fff" fill-rule="evenodd"/>
            <path id="Trazado_773169" data-name="Trazado 773169" d="M486.537,101.862h57.076a.471.471,0,0,1,.44.494v2.051a.471.471,0,0,1-.44.494H486.537a.472.472,0,0,1-.443-.494v-2.051a.471.471,0,0,1,.443-.494" transform="translate(-226.267 -40.978)" fill="#ffc7c1" fill-rule="evenodd"/>
            <path id="Trazado_773170" data-name="Trazado 773170" d="M519.526,64.813a4.941,4.941,0,0,1,4.445,3.082h-8.889a4.942,4.942,0,0,1,4.445-3.082" transform="translate(-239.76 -26.074)" fill="#b1e1da" fill-rule="evenodd"/>
            <path id="Trazado_773171" data-name="Trazado 773171" d="M524.168,83.574v3.854a1.979,1.979,0,0,1-1.854,2.073h-8.257a1.979,1.979,0,0,1-1.855-2.073V80.78c0-1.645,1.553-5.025,1.553-7.03V71.136h8.862V73.75c0,2,1.551,5.385,1.551,7.03Z" transform="translate(-238.42 -28.617)" fill="#fff" fill-rule="evenodd"/>
            <path id="Trazado_773172" data-name="Trazado 773172" d="M515.107,73.25V71.136h8.862V73.75A5.051,5.051,0,0,0,524,74.3Z" transform="translate(-239.772 -28.617)" fill="#ffc7c1" fill-rule="evenodd"/>
            <path id="Trazado_773173" data-name="Trazado 773173" d="M514.9,81.247l-.066.228a16.759,16.759,0,0,0-.826,3.373V91.5a.95.95,0,0,0,.888.993h8.257a.951.951,0,0,0,.888-.993V84.848a16.755,16.755,0,0,0-.826-3.373l-.067-.228Z" transform="translate(-239.262 -32.685)" fill="#b1e1da" fill-rule="evenodd"/>
            <path id="Trazado_773174" data-name="Trazado 773174" d="M514.668,69.365h8.862a.538.538,0,0,1,.5.562V71.01a.537.537,0,0,1-.5.562h-8.862a.537.537,0,0,1-.5-.562V69.927a.537.537,0,0,1,.5-.562" transform="translate(-239.333 -27.905)" fill="#fff" fill-rule="evenodd"/>
            <path id="Trazado_773175" data-name="Trazado 773175" d="M543.666,100.253h9.764a1.2,1.2,0,0,0,0-2.39h-9.764a1.2,1.2,0,0,0,0,2.39" transform="translate(-252.568 -39.369)" fill="#fff" fill-rule="evenodd"/>
            <path id="Trazado_773176" data-name="Trazado 773176" d="M545.341,79.574h8.468a.575.575,0,0,1,.538.6V91.1a.574.574,0,0,1-.538.6h-8.468a.574.574,0,0,1-.539-.6V80.176a.575.575,0,0,1,.539-.6" transform="translate(-253.594 -32.012)" fill="#ffc7c1" fill-rule="evenodd"/>
            <path id="Trazado_773177" data-name="Trazado 773177" d="M543.666,79.965h9.764a1.2,1.2,0,0,0,0-2.39h-9.764a1.2,1.2,0,0,0,0,2.39" transform="translate(-252.568 -31.208)" fill="#fff" fill-rule="evenodd"/>
            <path id="Trazado_773178" data-name="Trazado 773178" d="M550.82,79.688h2.823a.348.348,0,0,0,0-.692H550.82a.348.348,0,0,0,0,.692" transform="translate(-256.252 -31.779)" fill="#ffc7c1" fill-rule="evenodd"/>
            <path id="Trazado_773179" data-name="Trazado 773179" d="M554.215,82.9H544.67a.171.171,0,0,1,0-.339h9.545a.17.17,0,0,1,0,.339" transform="translate(-253.462 -33.213)" fill="#fff"/>
            <path id="Trazado_773180" data-name="Trazado 773180" d="M554.215,84.355H544.67a.171.171,0,0,1,0-.339h9.545a.17.17,0,0,1,0,.339" transform="translate(-253.462 -33.799)" fill="#fff"/>
            <path id="Trazado_773181" data-name="Trazado 773181" d="M554.215,85.812H544.67a.171.171,0,0,1,0-.339h9.545a.17.17,0,0,1,0,.339" transform="translate(-253.462 -34.385)" fill="#fff"/>
            <path id="Trazado_773182" data-name="Trazado 773182" d="M554.215,87.269H544.67a.171.171,0,0,1,0-.339h9.545a.17.17,0,0,1,0,.339" transform="translate(-253.462 -34.971)" fill="#fff"/>
            <path id="Trazado_773183" data-name="Trazado 773183" d="M554.215,88.725H544.67a.171.171,0,0,1,0-.339h9.545a.17.17,0,0,1,0,.339" transform="translate(-253.462 -35.557)" fill="#fff"/>
            <path id="Trazado_773184" data-name="Trazado 773184" d="M554.215,90.183H544.67a.171.171,0,0,1,0-.339h9.545a.17.17,0,0,1,0,.339" transform="translate(-253.462 -36.143)" fill="#fff"/>
            <path id="Trazado_773185" data-name="Trazado 773185" d="M554.215,91.639H544.67a.171.171,0,0,1,0-.339h9.545a.17.17,0,0,1,0,.339" transform="translate(-253.462 -36.729)" fill="#fff"/>
            <path id="Trazado_773186" data-name="Trazado 773186" d="M554.215,93.1H544.67a.171.171,0,0,1,0-.339h9.545a.17.17,0,0,1,0,.339" transform="translate(-253.462 -37.315)" fill="#fff"/>
            <path id="Trazado_773187" data-name="Trazado 773187" d="M554.215,94.554H544.67a.171.171,0,0,1,0-.339h9.545a.17.17,0,0,1,0,.339" transform="translate(-253.462 -37.902)" fill="#fff"/>
            <path id="Trazado_773188" data-name="Trazado 773188" d="M554.215,96.01H544.67a.171.171,0,0,1,0-.339h9.545a.17.17,0,0,1,0,.339" transform="translate(-253.462 -38.487)" fill="#fff"/>
            <path id="Trazado_773189" data-name="Trazado 773189" d="M554.215,97.467H544.67a.171.171,0,0,1,0-.339h9.545a.17.17,0,0,1,0,.339" transform="translate(-253.462 -39.074)" fill="#fff"/>
            <path id="Trazado_773190" data-name="Trazado 773190" d="M185.938,118.627c.313,8.253,2.049,17.675,6.913,23.07,3.564,3.952,11.752,4.555,14.01-.023,1.64-3.329-1.746-9.965-1.746-9.965-.763-1.338-11.988-23.333-14.616-18.1,0,0-2.049,4.844-4.561,5.015" transform="translate(-86.55 -45.381)" fill="#575549" fill-rule="evenodd"/>
            <path id="Trazado_773191" data-name="Trazado 773191" d="M220.86,334.141H156.248c-.335-22.048,5.953-42.128,6.068-44.724s.233-6.049.142-8.306a4.034,4.034,0,0,1,1.038-3.218s7.793-6.806,18.251-7.843c7.408-.735,16.342,5.082,23.952,2.018.251,1.022.526,2.008.826,2.928,2.4,7.342,9.562,15.353,14.334,59.145" transform="translate(-72.724 -108.612)" fill="#6c6657" fill-rule="evenodd"/>
            <path id="Trazado_773192" data-name="Trazado 773192" d="M220.235,288.19a99.4,99.4,0,0,1,5.334,15.132,2.641,2.641,0,0,0-2.056,1.25s-15.532,19.133-17.49,21.11-3.283,0-3.283,0-10.986-11.967-11.365-12.144-.537.388-.537.388a2.769,2.769,0,0,1-.884,1.553l-4.609,3.107-4.907-.912s8-11.162,8.443-11.444a57.4,57.4,0,0,1,7.2-1.836Z" transform="translate(-83.99 -115.936)" fill="#575549" fill-rule="evenodd"/>
            <path id="Trazado_773193" data-name="Trazado 773193" d="M163.113,342.959a.279.279,0,0,1-.264-.273c-1.009-13.975,2.283-30.212,3.014-33.59a21.211,21.211,0,0,1-3.412,1.536.262.262,0,0,1-.332-.195.3.3,0,0,1,.174-.371c9.494-3.305,13.094-12.177,13.77-14.083a95.924,95.924,0,0,1-10.936-.831.294.294,0,0,1-.226-.335.27.27,0,0,1,.3-.252,126.012,126.012,0,0,0,47.334-3.389.267.267,0,0,1,.321.218.3.3,0,0,1-.2.359A127.807,127.807,0,0,1,176.625,296a25.122,25.122,0,0,1-10.136,12.734c-.361,1.6-4.185,19.053-3.112,33.908a.288.288,0,0,1-.243.319h-.022" transform="translate(-75.457 -117.133)" fill="#575549"/>
            <path id="Trazado_773194" data-name="Trazado 773194" d="M266.587,200.992l4.336-.511L280,206.428s.285,8.225.1,8.86-2.147,3.883-2.652,4.095a35.953,35.953,0,0,1-4.609.142l-1.152.494s-9.376-5.7-10.639-6.9,5.54-12.125,5.54-12.125" transform="translate(-121.439 -80.651)" fill="#ffc4b2" fill-rule="evenodd"/>
            <path id="Trazado_773195" data-name="Trazado 773195" d="M266.587,200.992l4.336-.511,4.577,3-6.321,9.5a6.784,6.784,0,0,0-1.259,4.712,81.292,81.292,0,0,1-6.873-4.578c-1.263-1.2,5.54-12.125,5.54-12.125" transform="translate(-121.439 -80.651)" fill="#f2a19b" fill-rule="evenodd"/>
            <path id="Trazado_773196" data-name="Trazado 773196" d="M241.453,172.359a28.744,28.744,0,0,1,5.16,3.058c2.652,1.977,14.4,12.073,14.963,12.426,0,0,.268.169.284.812s-6.061,12-10.228,14.685c0,0-.726.459-1.263.071s-5.176-3.628-5.176-3.628-5.716-15.046-3.742-27.424" transform="translate(-112.198 -69.338)" fill="#fff" fill-rule="evenodd"/>
            <path id="Trazado_773197" data-name="Trazado 773197" d="M254.544,207.205a13.24,13.24,0,0,1-2.653,2.482s-.726.459-1.263.071-5.176-3.629-5.176-3.629a74.862,74.862,0,0,1-3.86-16.544l.737-1.449,8.838,17.211a3.476,3.476,0,0,0,3.376,1.858" transform="translate(-112.457 -75.685)" fill="#f5ebf1" fill-rule="evenodd"/>
            <path id="Trazado_773198" data-name="Trazado 773198" d="M158.556,237.883a3.34,3.34,0,0,1-.758-1.271c-.221-.741-1.326-9.5-3.284-13.8s-5.35-15.9-5.35-15.9l-3.541-31.735c.063-.026.124-.052.185-.076,3.472-1.377,9.494-3.014,9.494-3.014l30.131-1.176a19.648,19.648,0,0,1,3.648-.373,51.8,51.8,0,0,1,7.957,1.09s.315,4.907.7,10.555,3.6,18.214,3.977,22.309-.316,8.825-3.283,11.578a109.68,109.68,0,0,0,2.331,15.993c-18.354,7.391-42.2,5.824-42.2,5.824" transform="translate(-67.785 -68.603)" fill="#b1e1da" fill-rule="evenodd"/>
            <path id="Trazado_773199" data-name="Trazado 773199" d="M161.323,257.594a3.34,3.34,0,0,1-.758-1.271c-.221-.741-1.326-9.5-3.284-13.8s-5.35-15.9-5.35-15.9l-.363-3.259,3.738-3.832,5.341,6.777s3.473,4.1,8.334,3.742,26.391-2.048,30.559-2.754,4.667-2.335,4.7-4.837c.112.678.193,1.268.238,1.742.378,4.095-.316,8.825-3.283,11.578l-28.237,9.591a7.02,7.02,0,0,0-3.6,4.447c-.77,3.165-.512,7.209.817,7.877-5.352.131-8.854-.1-8.854-.1" transform="translate(-70.552 -88.314)" fill="#84d2cd" fill-rule="evenodd"/>
            <path id="Trazado_773200" data-name="Trazado 773200" d="M158.05,172.588c1.739-.516,3.037-.868,3.037-.868l30.131-2.094a23.011,23.011,0,0,0,3.648.544c2.519,7.249,1.352,16.836-3.286,17.577s-7.755-7.18-7.755-7.18.3,10.074-5.693,10.144-9.092-4.871-13.07-11.014a21.042,21.042,0,0,0-7.012-7.11" transform="translate(-73.569 -68.239)" fill="#fff" fill-rule="evenodd"/>
            <path id="Trazado_773201" data-name="Trazado 773201" d="M257.5,166.74a.882.882,0,0,1,1.334-.167,1.148,1.148,0,0,1,.149,1.492l-62.252,87.12a.885.885,0,0,1-1.335.167,1.15,1.15,0,0,1-.149-1.493Z" transform="translate(-90.785 -66.917)" fill="#fff" fill-rule="evenodd"/>
            <path id="Trazado_773202" data-name="Trazado 773202" d="M175.657,324.688a.883.883,0,0,1,1.346,0,1.157,1.157,0,0,1,0,1.505c-.034.038-10.371,11.441-5.2,29.832h-1.99c-5.112-19.247,5.8-31.294,5.837-31.333" transform="translate(-78.413 -130.492)" fill="#fff" fill-rule="evenodd"/>
            <path id="Trazado_773203" data-name="Trazado 773203" d="M153.456,118.038c.313,8.253,2.049,17.675,6.913,23.07,3.564,3.952,11.752,4.554,14.01-.023,1.64-3.329-1.746-9.966-1.746-9.966-.763-1.337-11.988-23.333-14.616-18.1,0,0-2.049,4.843-4.561,5.015" transform="translate(-71.431 -45.144)" fill="#575549" fill-rule="evenodd"/>
            <path id="Trazado_773204" data-name="Trazado 773204" d="M173.835,142.334l-1.534,1.2s.65,6.073.775,8.545-3.726,5.981-9.344,8.664c8.928,9.133,30.936,14.162,30.131-2.094,0,0-3.915-1.271-4.483-4.8s-1.073-8.755-1.073-8.755Z" transform="translate(-76.214 -57.259)" fill="#ffc4b2" fill-rule="evenodd"/>
            <path id="Trazado_773205" data-name="Trazado 773205" d="M181.3,142.334l-1.534,1.2s.323,3.023.558,5.671a23.384,23.384,0,0,0,7.494,5.94,8,8,0,0,0,7.731-.793,11.937,11.937,0,0,0,1.2-1.109c-.529-3.491-.979-8.15-.979-8.15Z" transform="translate(-83.676 -57.259)" fill="#ed8c82" fill-rule="evenodd"/>
            <path id="Trazado_773206" data-name="Trazado 773206" d="M167.364,120.759s-1.65-1.362-2.544-1.054-1.613,2.837-1.171,4.526,3.26,7.254,5.848,4.3-2.132-7.773-2.132-7.773" transform="translate(-76.113 -48.138)" fill="#ffc4b2" fill-rule="evenodd"/>
            <path id="Trazado_773207" data-name="Trazado 773207" d="M169.493,123.4a.431.431,0,0,1,.149.435.178.178,0,0,1-.268.118s.156,5.47-.669,4.8a6.3,6.3,0,0,1-2.208-2.575c-.529-1.274.271-2.74-.163-3.005-.415-.253-.7.356-.724.413l0,0v0a3.981,3.981,0,0,0-.256,1.09c-.013.163-.131.249-.263.191a.421.421,0,0,1-.216-.4c0-.006.152-2.131,1.431-2.355,1.223-.215,3.18,1.283,3.186,1.288" transform="translate(-76.745 -49.116)" fill="#ed8c82" fill-rule="evenodd"/>
            <path id="Trazado_773208" data-name="Trazado 773208" d="M221.663,114.519s1.248-1.818,2.183-1.8,2.254,2.227,2.247,3.986-1.334,7.981-4.552,5.944.122-8.13.122-8.13" transform="translate(-102.471 -45.346)" fill="#ffc4b2" fill-rule="evenodd"/>
            <path id="Trazado_773209" data-name="Trazado 773209" d="M221,117.674a.443.443,0,0,0-.035.463.171.171,0,0,0,.286.031s1.206,5.3,1.832,4.406a6.843,6.843,0,0,0,1.483-3.158c.192-1.388-.941-2.549-.589-2.938.336-.371.758.126.8.173l0,0h0a3.812,3.812,0,0,1,.517.967c.052.153.187.2.3.1a.444.444,0,0,0,.107-.452c0-.005-.675-2-1.96-1.82-1.227.173-2.737,2.217-2.742,2.223" transform="translate(-102.83 -46.44)" fill="#ed8c82" fill-rule="evenodd"/>
            <path id="Trazado_773210" data-name="Trazado 773210" d="M180.424,78.275c-19.078,2.283-13.721,18.642-10.9,32.4,1.384,6.754,6.607,12.074,11.794,14.626a7.992,7.992,0,0,0,7.731-.794c1.766-1.342,5.818-6.506,5.818-6.506a20.127,20.127,0,0,0,2.738-9.688c.547-14.108,1.947-31.679-17.183-30.043" transform="translate(-77.56 -31.447)" fill="#ffc4b2" fill-rule="evenodd"/>
            <path id="Trazado_773211" data-name="Trazado 773211" d="M180.424,78.275c-16.09,1.926-14.8,13.864-12.306,25.812a4.8,4.8,0,0,0,.693-.02c7.973-.806,8.627-15.321,8.627-15.321l.636-4.559s4.736.141,7.2,1.765,6.15,11.064,6.15,11.064l1.111-3.544a76.675,76.675,0,0,0,3.5-7.064c-2.132-5.4-6.586-8.9-15.613-8.132" transform="translate(-77.56 -31.447)" fill="#f2a19b" fill-rule="evenodd"/>
            <path id="Trazado_773212" data-name="Trazado 773212" d="M183.584,91c.1.013,1.749,1.161,1.749,1.161a5.109,5.109,0,0,1,3.347-.751s3.646-2.08,7.051-1.172,1.736-2.588,1.736-2.588l-5.762-.993-5.005.478Z" transform="translate(-85.455 -34.861)" fill="#575549" fill-rule="evenodd"/>
            <path id="Trazado_773213" data-name="Trazado 773213" d="M200.124,140.96a.382.382,0,0,1-.315-.426.363.363,0,0,1,.38-.353,7.7,7.7,0,0,0,2.292-.222.352.352,0,0,1,.416.3.393.393,0,0,1-.267.466,8.459,8.459,0,0,1-2.505.236" transform="translate(-93.006 -56.3)" fill="#ed8c82" fill-rule="evenodd"/>
            <path id="Trazado_773214" data-name="Trazado 773214" d="M195.856,137.59a.436.436,0,0,1-.258-.511.346.346,0,0,1,.424-.3,9.675,9.675,0,0,0,6.385-.617.343.343,0,0,1,.453.249.445.445,0,0,1-.2.539,10.315,10.315,0,0,1-6.8.642" transform="translate(-91.042 -54.766)" fill="#ed8c82" fill-rule="evenodd"/>
            <path id="Trazado_773215" data-name="Trazado 773215" d="M202.583,127.99c.191-.228-.05-1.108-.26-1.7-.159-.444-.278-.656-.4-.625-.117-.038-.235.166-.392.6-.206.574-.442,1.439-.249,1.68a1.022,1.022,0,0,0,1.3.039" transform="translate(-93.662 -50.554)" fill="#f9d4c8" fill-rule="evenodd"/>
            <path id="Trazado_773216" data-name="Trazado 773216" d="M202.511,120.822a.333.333,0,0,0-.437-.232.4.4,0,0,0-.21.492c.212.663,1.427,4.437,1.379,4.79a1.778,1.778,0,0,1-.582.7,2.069,2.069,0,0,1-.968.436.379.379,0,0,0-.3.427.355.355,0,0,0,.383.337,2.726,2.726,0,0,0,1.28-.566,2.39,2.39,0,0,0,.86-1.166,34.23,34.23,0,0,0-1.4-5.217" transform="translate(-93.743 -48.503)" fill="#ed8c82" fill-rule="evenodd"/>
            <path id="Trazado_773217" data-name="Trazado 773217" d="M209.757,112.317a1.46,1.46,0,0,1-.895-.072,1.674,1.674,0,0,1-.746-1.1c.024-.168.252.1,1.077-.279s3.8-1.272,5.822.883c.348.371.075.66-.368.507a5.674,5.674,0,0,0-4.89.057" transform="translate(-96.873 -44.398)" fill="#575549" fill-rule="evenodd"/>
            <path id="Trazado_773218" data-name="Trazado 773218" d="M211.121,120.742a1.309,1.309,0,0,1-.876-.035,1.817,1.817,0,0,1-.789-1.131c.014-.181.252.093,1.033-.349a5.123,5.123,0,0,1,4.647-.167,1.023,1.023,0,0,0,.456-.708.317.317,0,0,1,.362-.281.348.348,0,0,1,.251.4,1.7,1.7,0,0,1-.488.968l.045.036a.474.474,0,0,0,.3-.215.291.291,0,0,1,.437-.068.378.378,0,0,1,.062.489,1.288,1.288,0,0,1-.278.3c.234.335-.009.59-.411.461a5.1,5.1,0,0,0-4.758.293" transform="translate(-97.498 -47.497)" fill="#575549" fill-rule="evenodd"/>
            <path id="Trazado_773219" data-name="Trazado 773219" d="M184.982,114.926a1.579,1.579,0,0,0,.938-.224,1.874,1.874,0,0,0,.653-1.281c-.047-.175-.255.146-1.175-.119-.9-.26-4.182-.721-6.05,1.89-.322.451,0,.712.454.477a6.123,6.123,0,0,1,5.181-.743" transform="translate(-83.422 -45.497)" fill="#575549" fill-rule="evenodd"/>
            <path id="Trazado_773220" data-name="Trazado 773220" d="M185.739,123.161a1.326,1.326,0,0,0,.857-.2,1.9,1.9,0,0,0,.606-1.264c-.041-.175-.234.139-1.071-.148a5.137,5.137,0,0,0-4.605.715.977.977,0,0,1-.557-.612.3.3,0,0,0-.4-.209.361.361,0,0,0-.187.446,1.628,1.628,0,0,0,.628.862l-.038.044a.456.456,0,0,1-.333-.154.29.29,0,0,0-.442.015.379.379,0,0,0,.014.494,1.222,1.222,0,0,0,.319.247c-.18.374.1.579.475.375a5.149,5.149,0,0,1,4.734-.611" transform="translate(-83.839 -48.797)" fill="#575549" fill-rule="evenodd"/>
            <path id="Trazado_773221" data-name="Trazado 773221" d="M162.456,103.038s2.051-1.939.877-6.893c0,0,7.108.136,7.917-10.744,0,0,.741-2.864,3.347-.752,1.731-4.99,5.088-5.1,7.159-.317,4.891,11.3,7.937,23.463,4.916,35.857,0,0-.84,2.531,1.736,2.989-2.246,9.058,20.812,13.775,10.578-22.356C193.7,78.348,188.767,72.795,179.1,70.364c-10.562-2.657-14.8,5.91-14.8,5.91C154.076,78.2,153,90.429,153.4,100.995a52.205,52.205,0,0,0,5.982-.92c1.31-2.611,3.077,2.963,3.077,2.963" transform="translate(-71.371 -28.101)" fill="#6c6657" fill-rule="evenodd"/>
            <path id="Trazado_773222" data-name="Trazado 773222" d="M177.826,73.354a12.567,12.567,0,0,0-3.958,4.327s2.934-.937,5.1.618a15.663,15.663,0,0,1-1.141-4.945" transform="translate(-80.932 -29.51)" fill="#575549" fill-rule="evenodd"/>
            <path id="Trazado_773223" data-name="Trazado 773223" d="M161.608,308.584a7,7,0,0,0,3.169-.045c2.162-.388,4.956-1.218,5.84-1.253s5.524-.953,6.392-1.624,2.81-2.541,3.11-2.788.979.194.506,1.906.456,9,.456,9l-.473.212L179.6,317.17a4.692,4.692,0,0,1-1.515,2.118c-.979.6-4.641,3.071-4.641,3.071s-2.051,1.588-3.977,1.165-9.5-5.509-9.928-5.887a16.338,16.338,0,0,1,2.071-9.053m13.888.91s-1.864,1.128-2.355,1.5l1.957,1.43s.679-2.577.4-2.928" transform="translate(-74.241 -121.817)" fill="#ffc4b2" fill-rule="evenodd"/>
            <path id="Trazado_773224" data-name="Trazado 773224" d="M162.63,115.94s1.855-1.111,1.138-5.624c0,0,5.361-1.827,7.2-10.816-.11.192-6.926,10.639-17.433,4.867a69.064,69.064,0,0,0-.14,8.554,52.2,52.2,0,0,0,5.983-.92c1.31-2.611,3.251,3.939,3.251,3.939" transform="translate(-71.371 -40.028)" fill="#575549" fill-rule="evenodd"/>
            <path id="Trazado_773225" data-name="Trazado 773225" d="M136.5,220.015l2.25,7.908-4.62,26.084a3.914,3.914,0,0,0,.051,2.032c.343.895,2.305,6.918,3.978,10.66s4.009,8.013,5.3,8.578l-2.071,9.053s-3.414-2.966-7.5-6.891-11.835-14.821-13.031-20.247,1.03-16.077,2.727-31.825c0,0,1.065-4.876,2.012-5.016s10.905-.335,10.905-.335" transform="translate(-56.1 -88.51)" fill="#ffc4b2" fill-rule="evenodd"/>
            <path id="Trazado_773226" data-name="Trazado 773226" d="M139.059,220.015l2.25,7.908-.724,4.087a13.211,13.211,0,0,0-14.576-5.435c.044-.4.089-.8.133-1.208,0,0,.064-.293.174-.737.71-1.337,1.6-3.026,2.273-4.317,2.157-.135,10.47-.3,10.47-.3" transform="translate(-58.655 -88.51)" fill="#f2a19b" fill-rule="evenodd"/>
            <path id="Trazado_773227" data-name="Trazado 773227" d="M137.219,177.6a10.341,10.341,0,0,1,3.433,4.595c1.641,4.095,3.535,20.827,1.578,29.37a.678.678,0,0,1-.379.266,14.642,14.642,0,0,0-8.1-4.855c-5.241-1.094-7.961,1.326-7.961,1.326a1.442,1.442,0,0,1-.531-1.078c.031-.635.505-5.012.505-9.249,0-.843.028-2.125.149-3.649,1.046-10.667,6.943-15.01,10.415-16.386.281-.111.578-.225.888-.338" transform="translate(-58.306 -71.448)" fill="#fff" fill-rule="evenodd"/>
            <path id="Trazado_773228" data-name="Trazado 773228" d="M258.959,156.846s-3.908,2.324-5.234,4.513-9.6,30.992-11.491,34.664-47.7,48.785-49.215,50.656-3.6,3.847-3.726,4.094-.252.777-.063.989,5.872,4.553,8.682,7.272,6.6,8.4,6.977,8.719.757.282,1.294.035,25.4-24.159,31.2-30.012,22.657-30.034,22.989-30.369,1.1-1.112,1.5-1.112-2.91-49.45-2.91-49.45" transform="translate(-88.038 -63.098)" fill="#fff" fill-rule="evenodd"/>
            <path id="Trazado_773229" data-name="Trazado 773229" d="M275.575,222.392c-.677,1.311-6.954,7.908-14.815,15.933,4.76,14.624,6.068,21.051,6.715,21.117.694.071,1.01-1.2,1.01-1.2Z" transform="translate(-121.378 -89.466)" fill="#f5ebf1" fill-rule="evenodd"/>
            <rect id="Rectángulo_355838" data-name="Rectángulo 355838" width="14.9" height="25.989" transform="translate(190.051 199.54)" fill="#575549"/>
            <path id="Trazado_773230" data-name="Trazado 773230" d="M333.436,116.192s.694,11.7.726,13.251-2.716,3.953-5.967,5.577-11.4,5.047-11.964,5.471-.884,7.272-1.01,10.59-2.4,16.379-2.968,20.262,1.831,14.12,6.5,18.5a71.326,71.326,0,0,1,.069,19.661c-1.459,10.979-7.05,31.869-5.833,51.782,0,0,31.9,7.48,62.838,0,0,0,3.283-20.047-1.642-37.415s-6.692-21.745-6.692-29.935,4.546-17.226,5.809-22.027,6.313-26.828,4.293-32.759a5.4,5.4,0,0,0-2.431-2.859c-1.8-.917-16.037-4.766-17.931-5.895s-2.208-4.011-2.46-14.2Z" transform="translate(-145.309 -46.743)" fill="#6c6657" fill-rule="evenodd"/>
            <path id="Trazado_773231" data-name="Trazado 773231" d="M358.975,193.186l-8.772,3.091s-3.161,6.793-7.833,6.793H326.838l7.145,21.678s19.686-.285,19.686-2.968,5.305-28.594,5.305-28.594" transform="translate(-152.136 -77.717)" fill="#575549" fill-rule="evenodd"/>
            <path id="Trazado_773232" data-name="Trazado 773232" d="M392.2,252.46a79.857,79.857,0,0,0-2.691-19.806c-4.924-17.367-8.069-21.672-8.069-29.862s4.546-17.226,5.809-22.027,6.314-26.828,4.294-32.759a5.4,5.4,0,0,0-2.431-2.859c-1.8-.917-16.037-4.766-17.931-5.895a2.873,2.873,0,0,1-1.025-1.04h0s-11.825,33.126-12.835,35.95-14.268,20.616-14.647,23.157c-.133.894-.485,11.86-.545,25.939,4.734,7.433,10.038,16.424,10.038,16.424s5.291,15.88,5.923,17.363,2.274,2.753,5.367,2.471,26.378-5.226,27.389-5.65a2.618,2.618,0,0,0,1.356-1.406" transform="translate(-159.254 -55.601)" fill="#fff" fill-rule="evenodd"/>
            <path id="Trazado_773233" data-name="Trazado 773233" d="M402.032,260.074q-.088-.324-.18-.648c-4.925-17.368-8.069-21.673-8.069-29.862,0-7.485,3.8-15.677,5.415-20.7-1.493-2.244-2.743-4.105-2.743-4.105l-9.344,18.394s-.758,3.389-7.323,5.366a40.072,40.072,0,0,1-10.354,1.977s-.789-.142-.789.635.757.812,1.925,1.165,22.708,4.034,27.978,20.478c1.379,4.3,2.529,6.474,3.485,7.3" transform="translate(-171.596 -82.374)" fill="#f5ebf1" fill-rule="evenodd"/>
            <path id="Trazado_773234" data-name="Trazado 773234" d="M362.625,116.611c5.877,0,10.67-.577,10.67-1.284s-4.793-1.285-10.67-1.285-10.67.577-10.67,1.285,4.793,1.284,10.67,1.284" transform="translate(-163.828 -45.878)" fill="#575549" fill-rule="evenodd"/>
            <path id="Trazado_773235" data-name="Trazado 773235" d="M334.085,139.21c-.465,1.534-2.974,3.614-5.889,5.07-3.252,1.624-11.4,5.048-11.964,5.471s-.884,7.272-1.01,10.59-2.4,16.379-2.968,20.262,1.831,14.12,6.5,18.5a88.24,88.24,0,0,1,.069,19.661c-1.244,9.37-5.266,20.184-6.562,34a2.324,2.324,0,0,0,1.007,1.78c.932.556,15.659,5.161,17.87,5.3s2.85-.14,3.536-1.764a73.066,73.066,0,0,0,3.561-17.291c-.365-17.286-1.309-34.951-2.815-39.328-3.156-9.178-9.47-16.662-9.217-21.6s4.294-25.911,5.81-31.276a85.585,85.585,0,0,0,2.071-9.373" transform="translate(-145.309 -56.003)" fill="#fff" fill-rule="evenodd"/>
            <path id="Trazado_773236" data-name="Trazado 773236" d="M324.492,239.41a93.881,93.881,0,0,1,.6,9.917c4.663-3.06,8.08-4.509,8.146-5.119.079-.723-.347-.864-.347-.864Z" transform="translate(-151.044 -96.312)" fill="#f5ebf1" fill-rule="evenodd"/>
            <path id="Trazado_773237" data-name="Trazado 773237" d="M424.136,149.814s4.519,1.991,6.981,9.051,4.666,51.286,5.994,67.826.446,52.97.446,52.97-.079.53-.316.53a32.54,32.54,0,0,1-8.1-1.448c-3.6-1.235-9.312-4.836-11.112-5.33,0,0-.675-.5-.663-.953s1.749-32.09,1.893-40.1.821-21.179.126-31.911-.442-15.391-.253-17.791,3.5-22.24,4.136-26.476.864-6.367.864-6.367" transform="translate(-194.277 -60.269)" fill="#fff" fill-rule="evenodd"/>
            <path id="Trazado_773238" data-name="Trazado 773238" d="M441.9,287.983c.622,13.794.35,34.24.189,43.012l-15.171-6.427Z" transform="translate(-198.723 -115.853)" fill="#f5ebf1" fill-rule="evenodd"/>
            <path id="Trazado_773239" data-name="Trazado 773239" d="M334.445,258.178a.237.237,0,0,1-.113-.029.312.312,0,0,1-.127-.394,73.175,73.175,0,0,0,3.536-17.179c-.338-15.971-1.248-34.656-2.791-39.186a118.288,118.288,0,0,0-8.291-12.9c-2.767-3.943-4.953-7.058-5.177-8.274-.442-2.4-.69-24.667-.7-25.614a.309.309,0,0,1,.115-.248l2.591-1.992-2.4-3.731a.321.321,0,0,1-.046-.225.3.3,0,0,1,.112-.194l4.226-3.22a.247.247,0,0,1,.368.078.318.318,0,0,1-.07.411l-4,3.049,2.252,3.5,8.3-6.383c.756-3.078,1.189-5.588,1.363-6.681a.27.27,0,0,1,.307-.24.3.3,0,0,1,.214.344,85.558,85.558,0,0,1-2.079,9.41c-1.449,5.13-5.541,26.164-5.8,31.2-.137,2.68,1.789,6.255,4.018,10.394a74.966,74.966,0,0,1,5.181,11.083l0,.008c1.977,5.755,2.667,31.628,2.831,39.423a73.016,73.016,0,0,1-3.586,17.424.265.265,0,0,1-.24.17M321.314,154.749c.024,2.048.275,23.1.688,25.343.2,1.079,2.459,4.3,5.075,8.028,2.149,3.064,4.5,6.42,6.385,9.508-1.149-2.59-2.459-5.022-3.66-7.252-2.275-4.223-4.24-7.871-4.093-10.734.259-5.068,4.367-26.2,5.822-31.349.169-.6.328-1.189.475-1.763Zm47.6,99.375H368.9a.286.286,0,0,1-.25-.313c.7-13.649,1.088-22.371,1.152-25.922.033-1.825.093-3.917.159-6.188.224-7.762.5-17.423-.032-25.7-.67-10.354-.465-15.139-.252-17.839.126-1.593,1.6-10.687,2.78-17.994.613-3.786,1.142-7.057,1.358-8.5a.271.271,0,0,1,.305-.244.3.3,0,0,1,.218.341c-.217,1.452-.746,4.724-1.359,8.512-1.181,7.3-2.65,16.375-2.774,17.941-.211,2.678-.414,7.433.253,17.744.537,8.3.258,17.982.033,25.758-.066,2.268-.126,4.358-.159,6.18-.064,3.559-.452,12.288-1.152,25.945a.281.281,0,0,1-.264.28M318.527,199.2a.248.248,0,0,1-.17-.069c-4.828-4.523-7.164-14.882-6.595-18.772.159-1.084.451-2.889.789-4.98.88-5.433,2.085-12.874,2.175-15.247a.288.288,0,0,1,.276-.283.285.285,0,0,1,.254.308c-.092,2.414-1.3,9.878-2.183,15.328-.338,2.087-.63,3.89-.788,4.97-.538,3.677,1.8,13.9,6.412,18.222a.32.32,0,0,1,.033.417.253.253,0,0,1-.2.106" transform="translate(-145.08 -55.803)" fill="#e6dde0"/>
            <path id="Trazado_773240" data-name="Trazado 773240" d="M351.031,198.122a.259.259,0,0,1-.218-.126.32.32,0,0,1,.065-.413c.171-.134,17.049-13.361,18.647-15.7,1.523-2.227,12.079-21.4,13.368-23.746l-11.64-9.539a.319.319,0,0,1-.057-.414.247.247,0,0,1,.37-.064l8.112,6.648,5.821-5.738-2.216-4.419a.317.317,0,0,1,.1-.4.252.252,0,0,1,.361.114l2.32,4.628a.322.322,0,0,1-.056.368l-5.895,5.81,3.287,2.694a.318.318,0,0,1,.069.394c-.485.883-11.9,21.644-13.526,24.029-1.648,2.409-18.066,15.277-18.764,15.823a.245.245,0,0,1-.152.054" transform="translate(-163.274 -57.998)" fill="#e6dde0"/>
            <path id="Trazado_773241" data-name="Trazado 773241" d="M180.289,325.711a.193.193,0,0,1-.18-.146.219.219,0,0,1,.121-.267c.167-.06,4.1-1.489,5.167-1.735a2.389,2.389,0,0,0,1.452-1.133l.848-3.469a.187.187,0,0,1,.233-.148.216.216,0,0,1,.132.261l-.866,3.517a2.732,2.732,0,0,1-1.723,1.387c-1.051.242-5.085,1.708-5.126,1.723a.169.169,0,0,1-.059.011m-2.336-2.118a.2.2,0,0,1-.187-.179.21.21,0,0,1,.157-.243c.054-.009,5.378-.955,6.53-1.2,1.025-.217,1.266-1.821,1.268-1.837l.3-2.493a.194.194,0,0,1,.213-.181.209.209,0,0,1,.162.238l-.3,2.5c-.012.083-.289,1.92-1.572,2.192-1.158.245-6.487,1.191-6.541,1.2l-.03,0m2.4-3.565a.194.194,0,0,1-.182-.155,2.909,2.909,0,0,0-1.488-1.495l-.355.213a.18.18,0,0,1-.257-.086.225.225,0,0,1,.077-.287l3.409-2.047a.179.179,0,0,1,.256.087.224.224,0,0,1-.077.286l-2.651,1.592a3.413,3.413,0,0,1,1.387,1.449l2.661-.4.287-1.443a.19.19,0,0,1,.226-.161.213.213,0,0,1,.144.253l-.315,1.588a.2.2,0,0,1-.159.164l-2.936.442-.026,0" transform="translate(-82.745 -127.182)" fill="#ed8c82"/>
            <path id="Trazado_773242" data-name="Trazado 773242" d="M335.462,147.416s3.161.125,3.611.24.288,1.607-.563,1.877a11.339,11.339,0,0,1-2.846.14Z" transform="translate(-156.151 -59.304)" fill="#ffc4b2" fill-rule="evenodd"/>
            <path id="Trazado_773243" data-name="Trazado 773243" d="M330.093,147.365s2.488-.247,3.113-.272,1.206,1.475,1.7,2.586a23.866,23.866,0,0,0,1.228,2.155,1,1,0,0,1-.468,1.286c-.674.444-1.58-.672-2.14-1.591s-1.258-1.981-1.258-1.981l-.549.372Z" transform="translate(-153.652 -59.174)" fill="#ffc4b2" fill-rule="evenodd"/>
            <path id="Trazado_773244" data-name="Trazado 773244" d="M322.493,147.789s1.947-1.691,2.1-1.8a1.046,1.046,0,0,1,1.422-.05,4.73,4.73,0,0,1,2.014,2.295c.277,1.041,1.318,4.732,1.318,4.732a2.454,2.454,0,0,1,1.126,1.238,1.372,1.372,0,0,1-2.271,1.093c-1.171-1-2.283-4.519-2.283-4.519l-.731.415Z" transform="translate(-150.114 -58.605)" fill="#ffc4b2" fill-rule="evenodd"/>
            <path id="Trazado_773245" data-name="Trazado 773245" d="M315.751,152.9s1.173-2.181,1.714-3.039.959-1.965,2.417-1.4,1.437.521,1.96,2.349,1.176,4.3,1.176,4.3a4.237,4.237,0,0,1,1.078,1.073,1.242,1.242,0,0,1-.845,1.567c-.762.213-2.186-1.1-2.551-1.853s-1.016-2.437-1.016-2.437l-1.47.675Z" transform="translate(-146.976 -59.661)" fill="#ffc4b2" fill-rule="evenodd"/>
            <path id="Trazado_773246" data-name="Trazado 773246" d="M311.794,159.317a17.67,17.67,0,0,1,.781-3.614,1.358,1.358,0,0,1,1.738-.782,14.577,14.577,0,0,1,2.669,1.934,2.088,2.088,0,0,1-.786,2.745c-1.157.478-2.557-.769-3.327-1.345Z" transform="translate(-145.134 -62.283)" fill="#ffc4b2" fill-rule="evenodd"/>
            <path id="Trazado_773247" data-name="Trazado 773247" d="M313.625,155.962a.281.281,0,0,1-.11.356.227.227,0,0,1-.317-.123,2.477,2.477,0,0,1-.175-1.543.233.233,0,0,1,.3-.167.275.275,0,0,1,.149.338,1.905,1.905,0,0,0,.151,1.14m10.891-5.571a.274.274,0,0,1-.143.34.231.231,0,0,1-.3-.16l-.175-.547a.275.275,0,0,1,.144-.34.232.232,0,0,1,.3.161Zm-2.912,4.923a.226.226,0,0,1,.322.109.283.283,0,0,1-.1.36l-.493.293a.227.227,0,0,1-.323-.109.284.284,0,0,1,.1-.36Zm3.193-1.087a.226.226,0,0,1,.32.117.282.282,0,0,1-.105.358l-.786.444a.228.228,0,0,1-.321-.118.283.283,0,0,1,.106-.359Zm-3.1-2.051a.279.279,0,0,1-.13.347.23.23,0,0,1-.31-.145l-.945-2.6a.278.278,0,0,1,.129-.347.23.23,0,0,1,.31.146Zm-3.348,1a.178.178,0,0,1,.011.03c.134.336.238.574.24.576a.282.282,0,0,1-.112.354.227.227,0,0,1-.318-.125s-.081-.184-.192-.458l-.578-.038a.257.257,0,0,1-.224-.28.249.249,0,0,1,.251-.25l.34.022a8.918,8.918,0,0,1-.386-1.284.268.268,0,0,1,.182-.317.24.24,0,0,1,.283.2,10.041,10.041,0,0,0,.5,1.567" transform="translate(-145.675 -60.107)" fill="#f2a19b" fill-rule="evenodd"/>
            <path id="Trazado_773248" data-name="Trazado 773248" d="M316.9,153.4c.775.236,1.879.57,2.566.766.053.16.111.317.167.465.036.1.071.187.1.273.14.351.249.6.249.6l-1.141.525c-.211-.179-.489-.4-.788-.628a10.193,10.193,0,0,0-1.6-1.05c-.021-.01-.043-.017-.065-.026.145-.265.323-.591.509-.923" transform="translate(-147.271 -61.712)" fill="#f2a19b" fill-rule="evenodd"/>
            <path id="Trazado_773249" data-name="Trazado 773249" d="M323.875,147.8l1.507,1.228.658,1.812.286.788-.556.317c-.08-.287-.16-.576-.239-.856l-.138-.487c-.523-1.827-.5-1.785-1.96-2.348l-.056-.021.5-.432" transform="translate(-150.525 -59.46)" fill="#f2a19b" fill-rule="evenodd"/>
            <path id="Trazado_773250" data-name="Trazado 773250" d="M331.551,147.381l.619,1.115.344.62.035.112.139.435-.223.152-.2.136c-.05-.185-.1-.359-.142-.515-.056-.209-.1-.386-.14-.52a3.177,3.177,0,0,0-.989-1.482l.557-.053" transform="translate(-154.071 -59.29)" fill="#f2a19b" fill-rule="evenodd"/>
            <path id="Trazado_773251" data-name="Trazado 773251" d="M337.65,148.085l1.436,1.475a5.056,5.056,0,0,1-1.132.152c-.207-.473-.431-1-.667-1.449a3.359,3.359,0,0,0-.537-.8l.309.014Z" transform="translate(-156.75 -59.324)" fill="#f2a19b" fill-rule="evenodd"/>
            <path id="Trazado_773252" data-name="Trazado 773252" d="M187.738,326.387c-.262,1.95-.633,7.908,3.783,11.88l.4.363c4.851,4.356,9.51,8.54,10.257,18.2h-1.932c-.78-8.694-5.061-12.54-9.517-16.541l-.4-.363c-4.721-4.246-4.8-10.378-4.546-13.171Z" transform="translate(-86.441 -131.302)" fill="#fff" fill-rule="evenodd"/>
            <path id="Trazado_773253" data-name="Trazado 773253" d="M351.167,251.472a1.452,1.452,0,1,0-1.113-1.412,1.292,1.292,0,0,0,1.113,1.412" transform="translate(-162.943 -100.028)" fill="#e6dde0" fill-rule="evenodd"/>
            <path id="Trazado_773254" data-name="Trazado 773254" d="M351.758,287.262a1.452,1.452,0,1,0-1.112-1.412,1.292,1.292,0,0,0,1.112,1.412" transform="translate(-163.219 -114.426)" fill="#e6dde0" fill-rule="evenodd"/>
            <path id="Trazado_773255" data-name="Trazado 773255" d="M167.678,143.362l-.038,0c-10.765-1.736-10.772-17.784-10.771-17.946a.279.279,0,0,1,.267-.294.283.283,0,0,1,.264.3c0,.157.011,15.692,10.316,17.354a.293.293,0,0,1,.225.336.277.277,0,0,1-.262.254m-2.906-29.334a.275.275,0,0,1-.26-.238.3.3,0,0,1,.208-.348c4.849-1.078,6.155-8.723,6.167-8.8a.27.27,0,0,1,.309-.238.3.3,0,0,1,.213.345c-.055.331-1.387,8.119-6.586,9.274a.223.223,0,0,1-.052.006" transform="translate(-73.019 -41.998)" fill="#575549"/>
            <path id="Trazado_773256" data-name="Trazado 773256" d="M141.166,249.245a.248.248,0,0,1-.162-.062c-.034-.03-3.466-3.015-7.514-6.9-4.218-4.049-11.932-15.028-13.116-20.4-.845-3.832-.013-10.192,1.139-19,.5-3.822,1.067-8.153,1.582-12.936a.27.27,0,0,1,.3-.259.291.291,0,0,1,.231.33c-.516,4.789-1.083,9.125-1.584,12.95-1.143,8.737-1.969,15.049-1.149,18.769,1.162,5.272,8.778,16.092,12.947,20.093,4.037,3.875,7.46,6.852,7.494,6.881a.321.321,0,0,1,.046.416.255.255,0,0,1-.21.115m21.54-101.31a7.294,7.294,0,0,1-3.181-.675c-4.569-2.247-10.439-7.48-11.945-14.831a.3.3,0,0,1,.2-.355.266.266,0,0,1,.318.223c1.463,7.137,7.186,12.229,11.642,14.42a7.745,7.745,0,0,0,5.785.137.259.259,0,0,1,.334.189.306.306,0,0,1-.17.374,8.789,8.789,0,0,1-2.981.517" transform="translate(-55.871 -53.129)" fill="#fff"/>
            <path id="Trazado_773257" data-name="Trazado 773257" d="M545.348,250.959H486.927a1.3,1.3,0,0,1-1.219-1.362V233.75a1.3,1.3,0,0,1,1.219-1.362h58.421a1.3,1.3,0,0,1,1.219,1.362V249.6a1.3,1.3,0,0,1-1.219,1.362m-58.421-17.979a.733.733,0,0,0-.688.769V249.6a.733.733,0,0,0,.688.769h58.421a.733.733,0,0,0,.689-.769V233.75a.733.733,0,0,0-.689-.769Zm37.978,12.694H503.973a.3.3,0,0,1,0-.593h20.933a.3.3,0,0,1,0,.593m16.913-3.7H503.973a.3.3,0,0,1,0-.593h37.846a.3.3,0,0,1,0,.593m0-3.705H503.973a.3.3,0,0,1,0-.593h37.846a.3.3,0,0,1,0,.593" transform="translate(-226.087 -93.487)" fill="#f9d4c8"/>
            <path id="Trazado_773258" data-name="Trazado 773258" d="M492.493,348h0a.842.842,0,0,1,.789.883V356.8a.794.794,0,1,1-1.579,0v-7.911a.842.842,0,0,1,.789-.883" transform="translate(-228.878 -139.997)" fill="#575549" fill-rule="evenodd"/>
            <path id="Trazado_773259" data-name="Trazado 773259" d="M488.467,313.978h4.07a1.111,1.111,0,0,1,1.042,1.164V337a1.111,1.111,0,0,1-1.042,1.164h-4.07A1.111,1.111,0,0,1,487.426,337V315.142a1.111,1.111,0,0,1,1.041-1.164" transform="translate(-226.887 -126.31)" fill="#ffc7c1" fill-rule="evenodd"/>
            <path id="Trazado_773260" data-name="Trazado 773260" d="M614.191,318.733h-8.354a.52.52,0,0,0-.487.545v2.132a.52.52,0,0,0,.487.546h8.354a.52.52,0,0,0,.487-.546v-2.132a.52.52,0,0,0-.487-.545" transform="translate(-281.778 -128.223)" fill="#fff" fill-rule="evenodd"/>
            <path id="Trazado_773261" data-name="Trazado 773261" d="M621.479,325.2V299.341a.647.647,0,0,0-.606-.679H618.5a.647.647,0,0,0-.606.679V325.2a.647.647,0,0,0,.606.679h2.373a.647.647,0,0,0,.606-.679" transform="translate(-287.617 -120.149)" fill="#ffc7c1" fill-rule="evenodd"/>
            <path id="Trazado_773262" data-name="Trazado 773262" d="M603.749,323.039a4.957,4.957,0,1,0-4.406-4.926,4.7,4.7,0,0,0,4.406,4.926" transform="translate(-278.982 -125.992)" fill="#ffc7c1" fill-rule="evenodd"/>
            <path id="Trazado_773263" data-name="Trazado 773263" d="M597.883,305.416h-6.172a1.684,1.684,0,0,0-1.578,1.765v15.612a1.683,1.683,0,0,0,1.578,1.765h6.172a1.685,1.685,0,0,0,1.579-1.765V307.181a1.685,1.685,0,0,0-1.579-1.765" transform="translate(-274.695 -122.866)" fill="#575549" fill-rule="evenodd"/>
            <path id="Trazado_773264" data-name="Trazado 773264" d="M477.8,315.079a4.957,4.957,0,1,0-4.4-4.926,4.7,4.7,0,0,0,4.4,4.926" transform="translate(-220.355 -122.79)" fill="#ffc7c1" fill-rule="evenodd"/>
            <path id="Trazado_773265" data-name="Trazado 773265" d="M483.213,297.455h6.172a1.685,1.685,0,0,1,1.579,1.766v15.612a1.685,1.685,0,0,1-1.579,1.766h-6.172a1.685,1.685,0,0,1-1.578-1.766V299.221a1.685,1.685,0,0,1,1.578-1.766" transform="translate(-224.191 -119.663)" fill="#575549" fill-rule="evenodd"/>
            <path id="Trazado_773266" data-name="Trazado 773266" d="M530.732,310.43c3.278,0,5.959,3,5.959,6.665v20.664h21.681V299.125c0-6.954-5.088-12.642-11.306-12.642H534.238a3.966,3.966,0,0,0-3.717,4.156,3.966,3.966,0,0,1-3.716,4.155H505.116l2.161,15.636h23.456Z" transform="translate(-235.121 -115.249)" fill="#6c6657" fill-rule="evenodd"/>
            <path id="Trazado_773267" data-name="Trazado 773267" d="M496.237,291.853h6.172a1.685,1.685,0,0,1,1.579,1.765v22.309a1.685,1.685,0,0,1-1.579,1.766h-6.172a1.685,1.685,0,0,1-1.579-1.766V293.618a1.684,1.684,0,0,1,1.579-1.765" transform="translate(-230.253 -117.409)" fill="#575549" fill-rule="evenodd"/>
            <path id="Trazado_773268" data-name="Trazado 773268" d="M486.033,286.483h6.172a1.685,1.685,0,0,1,1.578,1.766V321.39a1.685,1.685,0,0,1-1.578,1.765h-6.172a1.685,1.685,0,0,1-1.578-1.765V288.249a1.685,1.685,0,0,1,1.578-1.766" transform="translate(-225.504 -115.249)" fill="#6c6657" fill-rule="evenodd"/>
            <path id="Trazado_773269" data-name="Trazado 773269" d="M483.8,367.3h8.6A1.629,1.629,0,0,1,493.934,369v1.129a.552.552,0,0,1-.517.578H482.793a.551.551,0,0,1-.516-.578V369A1.628,1.628,0,0,1,483.8,367.3" transform="translate(-224.49 -147.76)" fill="#fff" fill-rule="evenodd"/>
            <path id="Trazado_773270" data-name="Trazado 773270" d="M475.875,369.879h70.31a2.122,2.122,0,0,1,1.988,2.223v1.472a.718.718,0,0,1-.674.753H474.561a.718.718,0,0,1-.675-.753V372.1a2.122,2.122,0,0,1,1.989-2.223" transform="translate(-220.584 -148.798)" fill="#6c6657" fill-rule="evenodd"/>
            <path id="Trazado_773271" data-name="Trazado 773271" d="M569.765,333.214c0-3.666-2.682-6.665-5.96-6.665H553.04c3.278,0,5.959,3,5.959,6.665v18.978h10.765Z" transform="translate(-257.429 -131.367)" fill="#575549" fill-rule="evenodd"/>
            <path id="Trazado_773272" data-name="Trazado 773272" d="M556.457,294.794a3.966,3.966,0,0,0,3.716-4.155,3.967,3.967,0,0,1,3.717-4.156H553.125a3.967,3.967,0,0,0-3.717,4.156,3.966,3.966,0,0,1-3.716,4.155Z" transform="translate(-254.009 -115.249)" fill="#575549" fill-rule="evenodd"/>
            <path id="Trazado_773273" data-name="Trazado 773273" d="M302.125,374.895H316.85a1.72,1.72,0,0,0,1.612-1.8h0a1.719,1.719,0,0,0-1.612-1.8H302.125a1.72,1.72,0,0,0-1.612,1.8h0a1.721,1.721,0,0,0,1.612,1.8" transform="translate(-139.883 -149.366)" fill="#fff" fill-rule="evenodd"/>
            <path id="Trazado_773274" data-name="Trazado 773274" d="M304.649,343.71h12.77a.867.867,0,0,1,.813.909v16.471a.867.867,0,0,1-.812.909h-12.77a.867.867,0,0,1-.813-.909V344.618a.868.868,0,0,1,.813-.909" transform="translate(-141.429 -138.271)" fill="#ffc7c1" fill-rule="evenodd"/>
            <path id="Trazado_773275" data-name="Trazado 773275" d="M302.125,344.3H316.85a1.814,1.814,0,0,0,0-3.605H302.125a1.814,1.814,0,0,0,0,3.605" transform="translate(-139.883 -137.058)" fill="#fff" fill-rule="evenodd"/>
            <path id="Trazado_773276" data-name="Trazado 773276" d="M312.914,343.881h4.257a.524.524,0,0,0,0-1.042h-4.257a.524.524,0,0,0,0,1.042" transform="translate(-145.438 -137.921)" fill="#ffc7c1" fill-rule="evenodd"/>
            <path id="Trazado_773277" data-name="Trazado 773277" d="M318.067,348.709H303.672a.213.213,0,0,1,0-.424h14.395a.213.213,0,0,1,0,.424" transform="translate(-141.265 -140.111)" fill="#fff"/>
            <path id="Trazado_773278" data-name="Trazado 773278" d="M318.067,350.9H303.672a.213.213,0,0,1,0-.424h14.395a.213.213,0,0,1,0,.424" transform="translate(-141.265 -140.995)" fill="#fff"/>
            <path id="Trazado_773279" data-name="Trazado 773279" d="M318.067,353.1H303.672a.213.213,0,0,1,0-.424h14.395a.213.213,0,0,1,0,.424" transform="translate(-141.265 -141.879)" fill="#fff"/>
            <path id="Trazado_773280" data-name="Trazado 773280" d="M318.067,355.3H303.672a.213.213,0,0,1,0-.424h14.395a.213.213,0,0,1,0,.424" transform="translate(-141.265 -142.763)" fill="#fff"/>
            <path id="Trazado_773281" data-name="Trazado 773281" d="M318.067,357.5H303.672a.213.213,0,0,1,0-.424h14.395a.213.213,0,0,1,0,.424" transform="translate(-141.265 -143.647)" fill="#fff"/>
            <path id="Trazado_773282" data-name="Trazado 773282" d="M318.067,359.694H303.672a.213.213,0,0,1,0-.424h14.395a.213.213,0,0,1,0,.424" transform="translate(-141.265 -144.531)" fill="#fff"/>
            <path id="Trazado_773283" data-name="Trazado 773283" d="M318.067,361.891H303.672a.213.213,0,0,1,0-.424h14.395a.213.213,0,0,1,0,.424" transform="translate(-141.265 -145.414)" fill="#fff"/>
            <path id="Trazado_773284" data-name="Trazado 773284" d="M318.067,364.089H303.672a.213.213,0,0,1,0-.424h14.395a.213.213,0,0,1,0,.424" transform="translate(-141.265 -146.299)" fill="#fff"/>
            <path id="Trazado_773285" data-name="Trazado 773285" d="M318.067,366.285H303.672a.213.213,0,0,1,0-.424h14.395a.213.213,0,0,1,0,.424" transform="translate(-141.265 -147.182)" fill="#fff"/>
            <path id="Trazado_773286" data-name="Trazado 773286" d="M318.067,368.482H303.672a.213.213,0,0,1,0-.424h14.395a.213.213,0,0,1,0,.424" transform="translate(-141.265 -148.066)" fill="#fff"/>
            <path id="Trazado_773287" data-name="Trazado 773287" d="M318.067,370.679H303.672a.213.213,0,0,1,0-.424h14.395a.213.213,0,0,1,0,.424" transform="translate(-141.265 -148.95)" fill="#fff"/>
            <path id="Trazado_773288" data-name="Trazado 773288" d="M236.142,363.028h29.3a.606.606,0,0,1,.568.636v7.272a.606.606,0,0,1-.568.635h-29.3a.606.606,0,0,1-.568-.635v-7.272a.607.607,0,0,1,.568-.636" transform="translate(-109.655 -146.042)" fill="#fff" fill-rule="evenodd"/>
            <path id="Trazado_773289" data-name="Trazado 773289" d="M228.034,361.316H233.3a.491.491,0,0,1,.46.515v8.537a.491.491,0,0,1-.46.515h-5.267a.492.492,0,0,1-.46-.515v-8.537a.491.491,0,0,1,.46-.515m1.314,4.042a.746.746,0,1,0,.663.741.706.706,0,0,0-.663-.741" transform="translate(-105.931 -145.354)" fill="#fff" fill-rule="evenodd"/>
            <path id="Trazado_773290" data-name="Trazado 773290" d="M241.926,365.859a.161.161,0,0,1-.152-.17v-.812a.153.153,0,1,1,.3,0v.812a.161.161,0,0,1-.152.17" transform="translate(-112.541 -146.718)" fill="#ffc7c1"/>
            <path id="Trazado_773291" data-name="Trazado 773291" d="M244.9,365.859a.161.161,0,0,1-.152-.17v-.812a.153.153,0,1,1,.3,0v.812a.161.161,0,0,1-.152.17" transform="translate(-113.928 -146.718)" fill="#ffc7c1"/>
            <path id="Trazado_773292" data-name="Trazado 773292" d="M247.884,365.859a.161.161,0,0,1-.152-.17v-.812a.153.153,0,1,1,.3,0v.812a.161.161,0,0,1-.152.17" transform="translate(-115.314 -146.718)" fill="#ffc7c1"/>
            <path id="Trazado_773293" data-name="Trazado 773293" d="M250.862,365.859a.161.161,0,0,1-.152-.17v-.812a.153.153,0,1,1,.3,0v.812a.161.161,0,0,1-.152.17" transform="translate(-116.7 -146.718)" fill="#ffc7c1"/>
            <path id="Trazado_773294" data-name="Trazado 773294" d="M253.84,365.859a.161.161,0,0,1-.152-.17v-.812a.153.153,0,1,1,.3,0v.812a.161.161,0,0,1-.152.17" transform="translate(-118.087 -146.718)" fill="#ffc7c1"/>
            <path id="Trazado_773295" data-name="Trazado 773295" d="M256.819,365.859a.161.161,0,0,1-.152-.17v-.812a.153.153,0,1,1,.3,0v.812a.161.161,0,0,1-.152.17" transform="translate(-119.473 -146.718)" fill="#ffc7c1"/>
            <path id="Trazado_773296" data-name="Trazado 773296" d="M259.8,365.859a.161.161,0,0,1-.152-.17v-.812a.153.153,0,1,1,.3,0v.812a.161.161,0,0,1-.152.17" transform="translate(-120.86 -146.718)" fill="#ffc7c1"/>
            <path id="Trazado_773297" data-name="Trazado 773297" d="M262.777,365.859a.161.161,0,0,1-.152-.17v-.812a.153.153,0,1,1,.3,0v.812a.161.161,0,0,1-.152.17" transform="translate(-122.247 -146.718)" fill="#ffc7c1"/>
            <path id="Trazado_773298" data-name="Trazado 773298" d="M265.756,365.859a.161.161,0,0,1-.152-.17v-.812a.153.153,0,1,1,.3,0v.812a.161.161,0,0,1-.152.17" transform="translate(-123.633 -146.718)" fill="#ffc7c1"/>
            <path id="Trazado_773299" data-name="Trazado 773299" d="M268.735,365.859a.161.161,0,0,1-.152-.17v-.812a.153.153,0,1,1,.3,0v.812a.161.161,0,0,1-.152.17" transform="translate(-125.02 -146.718)" fill="#ffc7c1"/>
            <path id="Trazado_773300" data-name="Trazado 773300" d="M271.711,365.859a.161.161,0,0,1-.152-.17v-.812a.153.153,0,1,1,.3,0v.812a.161.161,0,0,1-.152.17" transform="translate(-126.405 -146.718)" fill="#ffc7c1"/>
            <path id="Trazado_773301" data-name="Trazado 773301" d="M274.692,365.859a.161.161,0,0,1-.152-.17v-.812a.153.153,0,1,1,.3,0v.812a.161.161,0,0,1-.152.17" transform="translate(-127.793 -146.718)" fill="#ffc7c1"/>
            <path id="Trazado_773302" data-name="Trazado 773302" d="M277.669,365.859a.161.161,0,0,1-.152-.17v-.812a.153.153,0,1,1,.3,0v.812a.161.161,0,0,1-.152.17" transform="translate(-129.178 -146.718)" fill="#ffc7c1"/>
            <path id="Trazado_773303" data-name="Trazado 773303" d="M280.649,365.859a.161.161,0,0,1-.152-.17v-.812a.153.153,0,1,1,.3,0v.812a.161.161,0,0,1-.152.17" transform="translate(-130.566 -146.718)" fill="#ffc7c1"/>
            <path id="Trazado_773304" data-name="Trazado 773304" d="M283.627,365.859a.161.161,0,0,1-.152-.17v-.812a.153.153,0,1,1,.3,0v.812a.161.161,0,0,1-.152.17" transform="translate(-131.952 -146.718)" fill="#ffc7c1"/>
            <path id="Trazado_773305" data-name="Trazado 773305" d="M286.606,365.859a.161.161,0,0,1-.152-.17v-.812a.153.153,0,1,1,.3,0v.812a.161.161,0,0,1-.152.17" transform="translate(-133.339 -146.718)" fill="#ffc7c1"/>
            <path id="Trazado_773306" data-name="Trazado 773306" d="M289.584,365.859a.161.161,0,0,1-.152-.17v-.812a.153.153,0,1,1,.3,0v.812a.161.161,0,0,1-.152.17" transform="translate(-134.725 -146.718)" fill="#ffc7c1"/>
            <path id="Trazado_773307" data-name="Trazado 773307" d="M411.154,332.637h25.9a2.262,2.262,0,0,1,1.687.784,1.121,1.121,0,0,1,.087.108,2.879,2.879,0,0,1-.087,3.661l0,0,0,0h0a2.266,2.266,0,0,1-1.682.782h-25.9c-.655,0-.655-5.341,0-5.341" transform="translate(-191.155 -133.816)" fill="#84d2cd" fill-rule="evenodd"/>
            <path id="Trazado_773308" data-name="Trazado 773308" d="M369.171,335.3a1.337,1.337,0,0,1,0-2.658H397.8a2.264,2.264,0,0,1,1.688.783c.03.035.059.071.087.108a2.884,2.884,0,0,1-.087,3.661l0,0,0,0h0a2.267,2.267,0,0,1-1.682.782H369.171a1.337,1.337,0,0,1,0-2.658Z" transform="translate(-171.288 -133.817)" fill="#b1e1da" fill-rule="evenodd"/>
            <path id="Trazado_773309" data-name="Trazado 773309" d="M397.256,337.224h-27.28a.3.3,0,0,1,0-.593h27.28a.3.3,0,0,1,0,.593" transform="translate(-172.093 -135.423)" fill="#84d2cd"/>
            <path id="Trazado_773310" data-name="Trazado 773310" d="M43.564,276.652c3.7-10.594,13.1-5.774,18.276-16.491,4-8.279,2.386-20.933,5.272-25.28,0,0-24.22,3.871-23.548,41.771M19.857,257.775c4.483,2.247,4.391,24.047,17.4,23.868,0,0-2.438-23.777-17.4-23.868M46.12,206.991C42.862,217.346,60.056,240.5,38.071,262.9c0,0-13.8-37.244,8.049-55.906" transform="translate(-9.243 -83.27)" fill="#ffc7c1" fill-rule="evenodd"/>
            <path id="Trazado_773311" data-name="Trazado 773311" d="M40.631,292.687l-.032,0a.337.337,0,0,1-.086-.019.367.367,0,0,1-.123-.075.379.379,0,0,1-.075-.093.42.42,0,0,1-.037-.078.215.215,0,0,1-.011-.038c-.2-.7-9.573-33.157-20.779-34.471a.413.413,0,0,1-.337-.465.391.391,0,0,1,.416-.377c9.3,1.091,17.048,21.529,20.073,30.71-2.008-15.824-7.375-67.409,5.89-81.381a.351.351,0,0,1,.535.018.46.46,0,0,1-.017.6c-13.294,14-7.173,68.811-5.446,82.214a153.12,153.12,0,0,1,4.553-22.016c3.5-12.046,10.064-27.552,21.477-33.006a.365.365,0,0,1,.5.223.444.444,0,0,1-.2.556C45.638,245.161,41.09,291.427,41.008,292.3v.007a.447.447,0,0,1-.017.09.424.424,0,0,1-.069.139h0a.426.426,0,0,1-.075.078.374.374,0,0,1-.078.046.346.346,0,0,1-.1.028l-.034,0" transform="translate(-8.913 -82.985)" fill="#ed8c82"/>
            <path id="Trazado_773312" data-name="Trazado 773312" d="M39.244,345.008a13.717,13.717,0,0,0-1.351,3.311A14.46,14.46,0,0,0,37.417,352a14.067,14.067,0,0,0,1.958,7.222,12.072,12.072,0,0,0,5.235,4.806.8.8,0,0,0,.337.074v0h8.218a.8.8,0,0,0,.41-.113,12.081,12.081,0,0,0,5.162-4.771A14.057,14.057,0,0,0,60.7,352a14.436,14.436,0,0,0-.476-3.686,13.771,13.771,0,0,0-1.391-3.381.866.866,0,0,0-.743-.451v0H40.027a.881.881,0,0,0-.783.525" transform="translate(-17.417 -138.582)" fill="#ffc7c1" fill-rule="evenodd"/>
            <path id="Trazado_773313" data-name="Trazado 773313" d="M104.864,314.5a8.382,8.382,0,0,1,7.538,5.227H97.327a8.381,8.381,0,0,1,7.537-5.227" transform="translate(-45.304 -126.518)" fill="#b1e1da" fill-rule="evenodd"/>
            <path id="Trazado_773314" data-name="Trazado 773314" d="M112.739,346.309v6.536a3.355,3.355,0,0,1-3.143,3.515h-14a3.355,3.355,0,0,1-3.144-3.515V341.571c0-2.79,2.631-8.52,2.631-11.92v-4.433h15.028v4.433c0,3.4,2.631,9.131,2.631,11.92Z" transform="translate(-43.033 -130.832)" fill="#fff" fill-rule="evenodd"/>
            <path id="Trazado_773315" data-name="Trazado 773315" d="M97.371,328.8v-3.585H112.4v4.433a8.634,8.634,0,0,0,.057.934Z" transform="translate(-45.324 -130.832)" fill="#ffc7c1" fill-rule="evenodd"/>
            <path id="Trazado_773316" data-name="Trazado 773316" d="M97.026,342.363l-.113.386c-.416,1.412-1.4,4.294-1.4,5.72v11.273a1.611,1.611,0,0,0,1.505,1.684h14a1.612,1.612,0,0,0,1.505-1.684V348.469c0-1.426-.984-4.308-1.4-5.72l-.114-.386Z" transform="translate(-44.459 -137.729)" fill="#b1e1da" fill-rule="evenodd"/>
            <path id="Trazado_773317" data-name="Trazado 773317" d="M96.627,322.213h15.03a.912.912,0,0,1,.854.955V325a.912.912,0,0,1-.854.955H96.627a.911.911,0,0,1-.854-.955v-1.834a.911.911,0,0,1,.854-.955" transform="translate(-44.58 -129.623)" fill="#fff" fill-rule="evenodd"/>
            <path id="Trazado_773318" data-name="Trazado 773318" d="M126.165,375.592h10.5a1.293,1.293,0,0,0,0-2.57h-10.5a1.293,1.293,0,0,0,0,2.57" transform="translate(-58.192 -150.063)" fill="#6c6657" fill-rule="evenodd"/>
            <path id="Trazado_773319" data-name="Trazado 773319" d="M127.963,353.364h9.1a.618.618,0,0,1,.579.647v11.74a.618.618,0,0,1-.579.647h-9.1a.618.618,0,0,1-.579-.647v-11.74a.617.617,0,0,1,.579-.647" transform="translate(-59.295 -142.155)" fill="#575549" fill-rule="evenodd"/>
            <path id="Trazado_773320" data-name="Trazado 773320" d="M126.165,353.784h10.5a1.293,1.293,0,0,0,0-2.57h-10.5a1.293,1.293,0,0,0,0,2.57" transform="translate(-58.192 -141.29)" fill="#6c6657" fill-rule="evenodd"/>
            <path id="Trazado_773321" data-name="Trazado 773321" d="M133.854,353.486h3.034a.374.374,0,0,0,0-.743h-3.034a.374.374,0,0,0,0,.743" transform="translate(-62.151 -141.905)" fill="#fff" fill-rule="evenodd"/>
            <path id="Trazado_773322" data-name="Trazado 773322" d="M137.513,356.933h-10.26a.17.17,0,0,1,0-.339h10.26a.17.17,0,0,1,0,.339" transform="translate(-59.163 -143.454)" fill="#ffa2a4"/>
            <path id="Trazado_773323" data-name="Trazado 773323" d="M137.513,358.5h-10.26a.17.17,0,0,1,0-.339h10.26a.17.17,0,0,1,0,.339" transform="translate(-59.163 -144.084)" fill="#ffa2a4"/>
            <path id="Trazado_773324" data-name="Trazado 773324" d="M137.513,360.065h-10.26a.17.17,0,0,1,0-.339h10.26a.17.17,0,0,1,0,.339" transform="translate(-59.163 -144.714)" fill="#ffa2a4"/>
            <path id="Trazado_773325" data-name="Trazado 773325" d="M137.513,361.631h-10.26a.17.17,0,0,1,0-.339h10.26a.17.17,0,0,1,0,.339" transform="translate(-59.163 -145.344)" fill="#ffa2a4"/>
            <path id="Trazado_773326" data-name="Trazado 773326" d="M137.513,363.2h-10.26a.17.17,0,0,1,0-.339h10.26a.17.17,0,0,1,0,.339" transform="translate(-59.163 -145.974)" fill="#ffa2a4"/>
            <path id="Trazado_773327" data-name="Trazado 773327" d="M137.513,364.763h-10.26a.17.17,0,0,1,0-.339h10.26a.17.17,0,0,1,0,.339" transform="translate(-59.163 -146.604)" fill="#ffa2a4"/>
            <path id="Trazado_773328" data-name="Trazado 773328" d="M137.513,366.33h-10.26a.17.17,0,0,1,0-.339h10.26a.17.17,0,0,1,0,.339" transform="translate(-59.163 -147.234)" fill="#ffa2a4"/>
            <path id="Trazado_773329" data-name="Trazado 773329" d="M137.513,367.895h-10.26a.17.17,0,0,1,0-.339h10.26a.17.17,0,0,1,0,.339" transform="translate(-59.163 -147.864)" fill="#ffa2a4"/>
            <path id="Trazado_773330" data-name="Trazado 773330" d="M137.513,369.461h-10.26a.17.17,0,0,1,0-.339h10.26a.17.17,0,0,1,0,.339" transform="translate(-59.163 -148.494)" fill="#ffa2a4"/>
            <path id="Trazado_773331" data-name="Trazado 773331" d="M137.513,371.027h-10.26a.17.17,0,0,1,0-.339h10.26a.17.17,0,0,1,0,.339" transform="translate(-59.163 -149.124)" fill="#ffa2a4"/>
            <path id="Trazado_773332" data-name="Trazado 773332" d="M137.513,372.593h-10.26a.17.17,0,0,1,0-.339h10.26a.17.17,0,0,1,0,.339" transform="translate(-59.163 -149.754)" fill="#ffa2a4"/>
            <path id="Trazado_773333" data-name="Trazado 773333" d="M28.457,377.321H345.569c.65,0,1.184.374,1.184.831s-.534.83-1.184.83H28.457c-.651,0-1.185-.374-1.185-.83s.534-.831,1.185-.831" transform="translate(-12.695 -151.792)" fill="#fff" fill-rule="evenodd"/>
            <path id="Trazado_773334" data-name="Trazado 773334" d="M345.518,379H28.407c-.685,0-1.243-.4-1.243-.895s.558-.9,1.243-.9H345.518c.685,0,1.242.4,1.242.9s-.557.895-1.242.895M28.407,377.342c-.611,0-1.127.351-1.127.766s.516.766,1.127.766H345.518c.61,0,1.127-.35,1.127-.766s-.516-.766-1.127-.766Z" transform="translate(-12.644 -151.749)" fill="#fff"/>
            <path id="Trazado_773335" data-name="Trazado 773335" d="M16.474,377.321H13.06c-.651,0-1.184.374-1.184.831s.533.83,1.184.83h3.415c.652,0,1.186-.374,1.186-.83s-.533-.831-1.186-.831" transform="translate(-5.528 -151.792)" fill="#fff" fill-rule="evenodd"/>
            <path id="Trazado_773336" data-name="Trazado 773336" d="M16.424,379H13.01c-.685,0-1.242-.4-1.242-.895s.557-.9,1.242-.9h3.415c.685,0,1.243.4,1.243.9s-.558.895-1.243.895m-3.415-1.661c-.61,0-1.126.351-1.126.766s.516.766,1.126.766h3.415c.611,0,1.128-.35,1.128-.766s-.517-.766-1.128-.766Z" transform="translate(-5.478 -151.749)" fill="#fff"/>
            <path id="Trazado_773337" data-name="Trazado 773337" d="M634.084,377.321H630.67c-.652,0-1.186.374-1.186.831s.533.83,1.186.83h3.413c.652,0,1.185-.374,1.185-.83s-.534-.831-1.185-.831" transform="translate(-293.012 -151.792)" fill="#fff" fill-rule="evenodd"/>
            <path id="Trazado_773338" data-name="Trazado 773338" d="M634.034,379h-3.414c-.686,0-1.244-.4-1.244-.895s.558-.9,1.244-.9h3.414c.685,0,1.242.4,1.242.9s-.557.895-1.242.895m-3.414-1.661c-.611,0-1.128.351-1.128.766s.517.766,1.128.766h3.414c.611,0,1.127-.35,1.127-.766s-.516-.766-1.127-.766Z" transform="translate(-292.962 -151.749)" fill="#fff"/>
            <path id="Trazado_773339" data-name="Trazado 773339" d="M411.154,346.915h25.9a2.262,2.262,0,0,0,1.687-.784,1.064,1.064,0,0,0,.087-.108,2.878,2.878,0,0,0-.087-3.66l0,0,0,0h0a2.266,2.266,0,0,0-1.682-.782h-25.9c-.655,0-.655,5.342,0,5.342" transform="translate(-191.155 -137.411)" fill="#e6dde0" fill-rule="evenodd"/>
            <path id="Trazado_773340" data-name="Trazado 773340" d="M369.171,344.257a1.337,1.337,0,0,0,0,2.658H397.8a2.264,2.264,0,0,0,1.688-.783c.03-.035.059-.071.087-.109a2.883,2.883,0,0,0-.087-3.66l0,0,0,0h0a2.267,2.267,0,0,0-1.682-.782H369.171a1.337,1.337,0,0,0,0,2.658Z" transform="translate(-171.288 -137.412)" fill="#fff" fill-rule="evenodd"/>
            <path id="Trazado_773341" data-name="Trazado 773341" d="M397.256,346.118h-27.28a.3.3,0,0,1,0-.593h27.28a.3.3,0,0,1,0,.593" transform="translate(-172.093 -139.001)" fill="#e6dde0"/>
            <path id="Trazado_773342" data-name="Trazado 773342" d="M411.154,350.51h25.9a2.26,2.26,0,0,1,1.687.784,1.051,1.051,0,0,1,.087.108,2.841,2.841,0,0,1,.615,1.779h0a2.827,2.827,0,0,1-.7,1.882l0,0,0,0v0a2.266,2.266,0,0,1-1.682.782h-25.9c-.655,0-.655-5.342,0-5.342" transform="translate(-191.155 -141.007)" fill="#f4b1b0" fill-rule="evenodd"/>
            <path id="Trazado_773343" data-name="Trazado 773343" d="M369.171,353.169a1.337,1.337,0,0,1,0-2.658H397.8a2.263,2.263,0,0,1,1.688.784c.03.035.059.071.087.108a2.884,2.884,0,0,1-.087,3.661l0,0,0,0v0a2.266,2.266,0,0,1-1.682.781H369.171a1.337,1.337,0,0,1,0-2.657Z" transform="translate(-171.288 -141.007)" fill="#ffc7c1" fill-rule="evenodd"/>
            <path id="Trazado_773344" data-name="Trazado 773344" d="M397.256,355.1h-27.28a.3.3,0,0,1,0-.593h27.28a.3.3,0,0,1,0,.593" transform="translate(-172.093 -142.614)" fill="#ffa2a4"/>
            <path id="Trazado_773345" data-name="Trazado 773345" d="M411.154,359.447h25.9a2.264,2.264,0,0,1,1.687.784,1.131,1.131,0,0,1,.087.108,2.841,2.841,0,0,1,.615,1.779h0a2.83,2.83,0,0,1-.7,1.882l0,0,0,0v0a2.268,2.268,0,0,1-1.682.782h-25.9c-.655,0-.655-5.342,0-5.342" transform="translate(-191.155 -144.602)" fill="#84d2cd" fill-rule="evenodd"/>
            <path id="Trazado_773346" data-name="Trazado 773346" d="M369.171,362.105a1.337,1.337,0,0,1,0-2.658H397.8a2.267,2.267,0,0,1,1.688.783c.03.035.059.071.087.109a2.843,2.843,0,0,1,.613,1.778h0a2.836,2.836,0,0,1-.7,1.882l0,0,0,0v0a2.269,2.269,0,0,1-1.682.782H369.171a1.337,1.337,0,0,1,0-2.658Z" transform="translate(-171.288 -144.602)" fill="#b1e1da" fill-rule="evenodd"/>
            <path id="Trazado_773347" data-name="Trazado 773347" d="M397.256,364.034h-27.28a.3.3,0,0,1,0-.593h27.28a.3.3,0,0,1,0,.593" transform="translate(-172.093 -146.209)" fill="#84d2cd"/>
            <path id="Trazado_773348" data-name="Trazado 773348" d="M411.154,373.726h25.9a2.262,2.262,0,0,0,1.687-.784,1.132,1.132,0,0,0,.087-.108,2.841,2.841,0,0,0,.615-1.779h0a2.829,2.829,0,0,0-.7-1.882l0,0,0,0h0a2.266,2.266,0,0,0-1.682-.782h-25.9c-.655,0-.655,5.341,0,5.341" transform="translate(-191.155 -148.197)" fill="#e6dde0" fill-rule="evenodd"/>
            <path id="Trazado_773349" data-name="Trazado 773349" d="M369.171,371.068a1.337,1.337,0,0,0,0,2.658H397.8a2.264,2.264,0,0,0,1.688-.783c.03-.035.059-.071.087-.109a2.843,2.843,0,0,0,.613-1.778h0a2.835,2.835,0,0,0-.7-1.882l0,0,0,0h0a2.267,2.267,0,0,0-1.682-.782H369.171a1.337,1.337,0,0,0,0,2.657Z" transform="translate(-171.288 -148.197)" fill="#fff" fill-rule="evenodd"/>
            <path id="Trazado_773350" data-name="Trazado 773350" d="M397.256,372.928h-27.28a.3.3,0,0,1,0-.593h27.28a.3.3,0,0,1,0,.593" transform="translate(-172.093 -149.786)" fill="#e6dde0"/>
            <path id="Trazado_773351" data-name="Trazado 773351" d="M493,238.432h7.714a1.3,1.3,0,0,1,1.216,1.361v8.624a1.3,1.3,0,0,1-1.216,1.361H493a1.3,1.3,0,0,1-1.217-1.361v-8.624A1.3,1.3,0,0,1,493,238.432" transform="translate(-228.914 -95.919)" fill="#ffc7c1" fill-rule="evenodd"/>
            <path id="Trazado_773352" data-name="Trazado 773352" d="M499.1,248.321h0a.364.364,0,0,1-.287-.147l-1.555-2.02a.459.459,0,0,1,.04-.6.351.351,0,0,1,.534.044l1.268,1.647,2.825-3.666a.351.351,0,0,1,.534-.044.458.458,0,0,1,.04.6l-3.112,4.039a.364.364,0,0,1-.287.147" transform="translate(-231.421 -97.931)" fill="#fff"/>
          </g>
        </g>
      </g>
    </g>
  </g>
</svg>
