<svg xmlns="http://www.w3.org/2000/svg" xmlns:xlink="http://www.w3.org/1999/xlink" width="314.521" height="231.78" viewBox="0 0 314.521 231.78">
  <defs>
    <clipPath id="clip-path">
      <rect id="Rectángulo_355778" data-name="Rectángulo 355778" width="314.521" height="231.78" transform="translate(0 0)" fill="none"/>
    </clipPath>
  </defs>
  <g id="Grupo_1042975" data-name="Grupo 1042975" transform="translate(0 0)">
    <g id="Grupo_1042975-2" data-name="Grupo 1042975" transform="translate(0 0)" clip-path="url(#clip-path)">
      <path id="Trazado_772196" data-name="Trazado 772196" d="M536.967,91.51c-.84-3.027-4.2-4.285-5.043-7.274-.768-2.732.853-5.473,1.288-8.116a5.407,5.407,0,0,0-2.923-6.142A12.037,12.037,0,0,0,522.52,68.6q-.387-.06-.794-.085a5.141,5.141,0,0,1-3.362-.956c-.721-.641-1.226-1.5-1.988-2.1a7.283,7.283,0,0,0-5.514-1.045,12.325,12.325,0,0,0-4.651,1.657c-1.922,0-3.874.187-5.1,1.853a3.41,3.41,0,0,0-.587,1.367,2.636,2.636,0,0,1-1.192,1.961,20.677,20.677,0,0,0-3.082,1.791,10.659,10.659,0,0,0-2.367,3.248,8.533,8.533,0,0,0-1.217,4.049,2.831,2.831,0,0,0,1.524,2.465c.637.341,1.53.676,1.1,1.62-.306.668-.726,1.278-1.033,1.948a4.9,4.9,0,0,0-.2,4.135,24.927,24.927,0,0,0,2.838,4.354,3.959,3.959,0,0,0-.133.477c-.036.168.213.239.248.071q.032-.154.078-.3c.106.059.261-.056.177-.176l-.077-.109a3.784,3.784,0,0,1,3.194-2.394c1.7-.114,2.981,1.223,4.244,2.2,1.167.906,2.679,1.681,4.125,1a8.3,8.3,0,0,0,1.712-1.274,13.428,13.428,0,0,1,2.337-1.623,6.832,6.832,0,0,1,5.417-.494,8.574,8.574,0,0,1,3.938,3.147,17.2,17.2,0,0,0,3.195,3.578,7.857,7.857,0,0,0,4.108,1.482c1.375.089,3.217-.106,4.154-1.295a1.844,1.844,0,0,0-.284-2.63,7.063,7.063,0,0,0,2.916-1.7,3.468,3.468,0,0,0,.723-3.319" transform="translate(-409.943 -54.188)" fill="#362020"/>
      <path id="Trazado_772197" data-name="Trazado 772197" d="M539.774,537.681a10.936,10.936,0,0,0-1.529-3.6,14.729,14.729,0,0,0-2.683-2.807c-1.611-1.385-3.522-2.97-4.214-5.059a21.951,21.951,0,0,0,1.043-2.634.129.129,0,0,0-.248-.071,22.219,22.219,0,0,1-.9,2.341,5.161,5.161,0,0,1-.142-1.708c.014-.172-.244-.17-.257,0a5.331,5.331,0,0,0,.242,2.058c-2.9,6.193-8.223,10.936-11.326,17.037-3.947,7.761-5.171,16.615-5.594,25.275-.128,2.625-.187,5.253-.237,7.88-.051,2.731-.127,5.466.045,8.194.006.089.109.182.194.116,1.982-1.57,4.541-1.629,6.929-1.719a85.349,85.349,0,0,0,8.538-.747q1.993-.277,3.972-.649a2.2,2.2,0,0,0,1.285-.509,3.1,3.1,0,0,0,.557-1.336q1.182-4.255,2.081-8.588a134.526,134.526,0,0,0,2.419-17.17q.334-4.415.377-8.847a30.618,30.618,0,0,0-.547-7.457" transform="translate(-427.587 -441.115)" fill="#cfc5c0"/>
      <path id="Trazado_772198" data-name="Trazado 772198" d="M265.516,1053.929,0,1055.533l32.892-78.085H250.809Z" transform="translate(0 -823.753)" fill="#f7e9e1"/>
      <path id="Trazado_772199" data-name="Trazado 772199" d="M832.014,1252.4l-45.607.231,4.289-17.289,43.246-.713Z" transform="translate(-654.37 -1040.49)" fill="#fff"/>
      <path id="Trazado_772200" data-name="Trazado 772200" d="M1068.724,1014.368l-36.205-.042,2.366-17.561,35.766-.168Z" transform="translate(-859.16 -839.89)" fill="#fff"/>
      <path id="Trazado_772201" data-name="Trazado 772201" d="M1199.554,1167.386l-36.205-.042,2.366-17.561,35.766-.168Z" transform="translate(-968.024 -968.847)" fill="#fff"/>
      <path id="Trazado_772202" data-name="Trazado 772202" d="M957.951,1165.091l-27.682.146,2.581-17.383,27.029-.535Z" transform="translate(-774.078 -966.913)" fill="#fff"/>
      <path id="Trazado_772203" data-name="Trazado 772203" d="M658.766,1087.477l-45.607.231,4.289-17.289,43.246-.713Z" transform="translate(-510.21 -901.503)" fill="#fff"/>
      <path id="Trazado_772204" data-name="Trazado 772204" d="M148.391,1070.811l-7.837,25.152-26.4.068,8.05-25.062Z" transform="translate(-94.988 -902.435)" fill="#fff"/>
      <path id="Trazado_772205" data-name="Trazado 772205" d="M104.457,1297.175l-3.573,10.118-11.122.13,3.75-10.045Z" transform="translate(-74.691 -1093.205)" fill="#8c453b"/>
      <path id="Trazado_772206" data-name="Trazado 772206" d="M116.978,1312.458l-7.492,7.457-10.044-4.962,7.62-7.31Z" transform="translate(-82.745 -1102.027)" fill="#fcbd58"/>
      <path id="Trazado_772207" data-name="Trazado 772207" d="M346.159,1228.921l-7.837,25.151-26.4.068,8.05-25.062Z" transform="translate(-259.551 -1035.684)" fill="#fff"/>
      <path id="Trazado_772208" data-name="Trazado 772208" d="M399.2,1077.076l22.49,17.591-21.139,16.35-22.216-17.678Z" transform="translate(-314.81 -907.715)" fill="#fff"/>
      <path id="Trazado_772209" data-name="Trazado 772209" d="M379.565,328.149a8.875,8.875,0,0,0-2.778-4.758c-1.392-1.427-2.842-2.806-4.324-4.133-2.84-2.543-16.744-8.639-20.525-8.57-3.668.067-20.378,8.558-22.825,9.948-2.022,1.148-7.754,4.558-9.223,6.427-3.456,4.4,1.2,8.121,2.155,13.271q1.788,9.685,3.578,19.369l4.062,21.986a.13.13,0,0,0,.124.1l14.39.187,7.195.093,3.6.046a4.039,4.039,0,0,0,2.54-.432c.58-.429-2.956,2.232-2.7,1.568.375-.973,2.511-3.763,2.917-4.723.775-1.832,12.894-30.067,14.844-33.551,3.8-6.788,3.07,2.369,5.287-5.183a46.945,46.945,0,0,0,1.3-5.7,19.817,19.817,0,0,0,.379-5.945" transform="translate(-265.135 -261.835)" fill="#f7e9e1"/>
      <path id="Trazado_772210" data-name="Trazado 772210" d="M414.105,769.79c-3.882.31-40.116.845-55.136,1.2-.191.005-.381.011-.564.013-1.877.045-3.385.088-4.407.126-7.462.278-18.946.858-24.712-5.213-4.958-5.216-4.178-12.044-2.443-18.532a95.127,95.127,0,0,1,9.29-21.6c8.536.182,19.5.872,28.033,1.1-.054.682-.124,1.358-.129,2.013-.052,5.291-.685,9.825,3.218,11.889,6.564,3.476,46.979,17.511,49.421,26.542.507,1.882-1.29,2.366-2.572,2.465" transform="translate(-270.862 -611.662)" fill="#362020"/>
      <path id="Trazado_772211" data-name="Trazado 772211" d="M482.786,227.357c-2.6.658-9.871-2-11.7-3.009,3.18-4.563,13.646-22.335,14.088-23.085,1.6.375,11.776,1.513,12.642,1.6,1.626.157-12.394,23.83-15.033,24.5" transform="translate(-391.994 -169.616)" fill="#8c453b"/>
      <path id="Trazado_772212" data-name="Trazado 772212" d="M249.335,329.056c0,.088,0,.179-.005.27-.044,1.973-.108,4.171-.188,6.427-.005.088-.008.176-.01.267-.075,2.024-.16,4.09-.252,6.082-.005.091-.008.179-.013.27-.111,2.32-.232,4.531-.363,6.437l-.015.27c-.046.674-.1,1.307-.142,1.893q-.155,1.917-.312,3.834l-.023.27q-.216,2.639-.427,5.28c-.033.39-.064.778-.1,1.168-.008.091-.016.179-.023.27-.026.323-.052.65-.08.973q-.2,2.563-.414,5.122c-.008.091-.016.182-.021.273-.028.324-.054.644-.08.968-.021.227-.039.454-.057.682q-.193,2.4-.389,4.8c-.008.088-.015.179-.023.27l-.216,2.673c-.09,1.093-.175,2.19-.281,3.283-.005.091-.015.182-.023.273a54.1,54.1,0,0,1-.947,6.478q-.027.136-.062.273-.212.946-.486,1.885a38.719,38.719,0,0,1-1.565,4.315c-.036.091-.075.184-.118.275-.77,1.783-1.653,3.518-2.587,5.213l-.062.112c-.139.251-.278.5-.42.749-.1.187-.211.374-.317.559l-.162.281c-1.146,1.992-2.345,3.951-3.521,5.924-.054.094-.111.184-.165.278q-.467.786-.927,1.575c-.466.8-1.532,2.933-2.579,5.058-.046.091-.09.184-.134.275-.708,1.436-1.4,2.845-1.866,3.812-.177.358-.322.658-.43.874-.013.027-.026.053-.041.08a14.352,14.352,0,0,1-.862,1.5c-.062.094-.126.187-.191.278a12.97,12.97,0,0,1-5.524,4.572,19.84,19.84,0,0,1-5.251.73c-.087.005-.175.011-.265.013-1.83.094-3.9.131-5.941.128-.087,0-.175,0-.263,0-3.768-.008-7.4-.155-9.172-.345a.134.134,0,0,1-.129-.134q.139-1.588.288-3.179c.015-.158.031-.318.047-.476.008-.088.015-.179.026-.267q.3-3.064.646-6.125c.01-.091.021-.179.031-.267.077-.69.16-1.379.242-2.069.023-.187.044-.372.07-.559q.178-1.5.376-3c.034-.275.07-.551.106-.823.01-.091.023-.182.036-.27q.382-2.9.816-5.8c.01-.088.023-.179.039-.267q.4-2.719.847-5.43l.17-1.029c.015-.091.031-.179.046-.267q.513-3.08,1.079-6.144c.015-.088.031-.179.049-.267q.6-3.24,1.254-6.47c.02-.091.039-.179.057-.267q.618-3.04,1.29-6.066c.018-.088.039-.176.059-.267q.509-2.306,1.05-4.609.22-.938.445-1.871c.021-.091.044-.179.064-.267q.745-3.088,1.542-6.162l.07-.267q.606-2.334,1.241-4.654.251-.918.507-1.837c.026-.091.052-.179.075-.27.072-.262.147-.524.221-.786q.714-2.531,1.462-5.047c.026-.091.054-.182.08-.27q.506-1.7,1.03-3.4c.319-1.029.631-2.074.965-3.106.028-.091.059-.182.087-.27a25.408,25.408,0,0,1,2.819-6.216c.059-.091.123-.184.185-.275.124-.176.25-.35.381-.524a23.8,23.8,0,0,1,7.534-6.173c.062-.035.121-.067.183-.1.124-.07.247-.136.371-.2l.028-.016c.049-.027.1-.053.147-.078l.427-.225c.1-.051.191-.1.286-.147,2.059-1.061,4.188-1.978,6.314-2.885l.281-.12,1.56-.666c.978-.422,1.992-.885,3.025-1.369.09-.04.18-.083.27-.126,2.129-1,4.314-2.064,6.369-2.973.092-.043.188-.083.281-.123.167-.075.335-.147.5-.219a56.371,56.371,0,0,1,.069,7.748" transform="translate(-167.998 -270.786)" fill="#cfc5c0"/>
      <path id="Trazado_772213" data-name="Trazado 772213" d="M585.518,323.625c0,1.358,0,2.711-.013,4.066,0,.091,0,.179,0,.27,0,.222,0,.441-.005.663q-.023,2.486-.077,4.97c0,.088,0,.179-.005.267q-.07,3.22-.185,6.435c0,.091,0,.179-.008.267q-.108,3.032-.257,6.058c0,.088-.008.176-.013.265-.018.4-.039.791-.059,1.187-.082,1.577-.2,3.358-.342,5.266,0,.088-.013.179-.018.27-.141,1.863-.3,3.85-.484,5.887-.005.088-.013.176-.023.267-.185,2.125-.386,4.31-.595,6.472-.008.091-.018.179-.026.27-.2,2.072-.4,4.122-.6,6.085-.008.091-.018.182-.028.27-.224,2.235-.445,4.352-.649,6.256l-.023.225c-.01.091-.021.179-.028.267-.242,2.28-.455,4.229-.615,5.676-.01.094-.021.184-.028.273-.175,1.545-.275,2.443-.275,2.443s-2.767-1.091-4.162-1.7c.033-.115.064-.23.1-.342.026-.091.052-.182.075-.273.438-1.591.8-3.122,1.076-4.676.062-.353.121-.708.17-1.064.016-.088.028-.179.039-.27a35,35,0,0,0,.324-3.652q.05-1.408,0-2.794c0-.091-.005-.179-.01-.267a38.641,38.641,0,0,0-.731-5.967c-.018-.088-.036-.176-.057-.265q-.274-1.315-.639-2.612c-.046-.182-.1-.366-.155-.548-.288-.995-.618-1.981-.978-2.959-.016-.045-.034-.088-.052-.134-.031-.088-.062-.174-.1-.259-.407-1.083-.86-2.152-1.352-3.214-.378-.818-.775-1.628-1.176-2.435-.041-.086-.085-.171-.129-.257-.072-.144-.144-.291-.219-.436-.062-.126-.126-.251-.188-.377-.767-1.524-1.55-3.042-2.283-4.585-.121-.257-.242-.513-.355-.77-.041-.086-.08-.174-.116-.259-.013-.027-.026-.051-.036-.078-.051-.112-.1-.227-.149-.339a46.541,46.541,0,0,1-1.951-5.456c-.026-.088-.049-.176-.075-.265-.162-.57-.317-1.147-.464-1.727-.381-1.516-.71-3.04-1-4.572-.018-.088-.036-.176-.052-.265-.345-1.855-.633-3.724-.883-5.6-.013-.088-.023-.176-.033-.265-.281-2.115-.515-4.237-.731-6.363-.01-.088-.021-.176-.028-.267q-.155-1.488-.3-2.978c-.018-.171.013-1.339.054-3.056,0-.088.005-.179.008-.27.044-1.77.1-4.061.124-6.422,0-.091,0-.182.005-.27.033-3.27.021-6.638-.136-8.916l-.492-.377c-.131-.1,0-.34.131-.235.111.086.221.171.332.254-.018-.27-.039-.543-.059-.813-.016-.177.242-.174.257,0,.026.339.052.682.075,1.024q5.363,4.11,10.724,8.229c.105.08.211.161.316.243q2.213,1.7,4.425,3.4l.232.176.721.553a24.831,24.831,0,0,1,2.057,1.668c.083.08.165.16.245.249.116.115.227.235.335.361.069.08.139.163.206.249a6.389,6.389,0,0,1,1.225,2.853c.036.19.064.385.087.58.01.091.021.184.028.275.052.511.077,1.029.088,1.545,0,.088,0,.179,0,.267.01.783-.005,1.572-.005,2.35" transform="translate(-469.34 -252.387)" fill="#cfc5c0"/>
      <path id="Trazado_772214" data-name="Trazado 772214" d="M214.951,427.638a9.378,9.378,0,0,0-.958-.807q-2.116-1.752-4.345-3.355a80.065,80.065,0,0,0-8.726-5.459c-3.158,6.5-6.636,12.835-10.155,19.136-3.349,6-6.77,11.961-9.908,18.083a13.18,13.18,0,0,0-1.668,4.938,21.8,21.8,0,0,0,.677,5.572q1,5.293,1.99,10.592c.6,3.23,1.949,10.461,3.259,17.49.368,1.976.736,3.935,1.081,5.785.08.433.16.861.239,1.281.407,2.155.775,4.12,1.081,5.732.476,2.5.8,4.157.857,4.358.332,1.112,1.405.773,2.258.679,1.776-.192,1.2.019,2.973-.176-.075-1.216-.09-3.668-.077-6.8.01-1.834.026-3.9.049-6.1q0-.461.008-.93c.023-1.989.044-4.064.064-6.146.077-7.881.118-15.867-.116-19.671l-.371-5.978c-.108-1.767-.481-3.751.191-5.438a25,25,0,0,1,2.806-4.467q1.653-2.446,3.31-4.89,6.688-9.877,13.378-19.754l1.622-2.4a8.811,8.811,0,0,0,.52-.767c.144-.273.167-.289-.039-.513" transform="translate(-149.084 -352.287)" fill="#8c453b"/>
      <path id="Trazado_772215" data-name="Trazado 772215" d="M221.046,926.458c.08.433.16.861.239,1.281.407,2.155.775,4.12,1.081,5.732q2.085-.674,4.168-1.345.919-.3,1.843-.6c.01-1.834.026-3.9.049-6.1q0-.461.008-.93a46.366,46.366,0,0,1-7.388,1.954" transform="translate(-183.933 -779.134)" fill="#5e2f28"/>
      <path id="Trazado_772216" data-name="Trazado 772216" d="M205.2,872.248l-.431.075c-4.3-.127-8.4,3.122-12.687,3.564a.14.14,0,0,0-.053.257,34.421,34.421,0,0,0,.983,5.983q.194.752.423,1.493a4.453,4.453,0,0,0,.465,1.389c.335.37,1.6.179,2.012.121,1.761-.249,3.4-1.049,5.152-1.373.933-.172,1.877-.287,2.8-.507a5.182,5.182,0,0,0,2.231-.872c.275-.258.21-.574.172-.927-.07-.651-.151-1.3-.227-1.952l-.676-7.128a.132.132,0,0,0-.165-.124" transform="translate(-159.736 -735.092)" fill="#f7e9e1"/>
      <path id="Trazado_772217" data-name="Trazado 772217" d="M208.53,385.248c0,.088,0,.179,0,.267-.015,1.358-.077,2.719-.157,4.064-.049.794-.116,1.588-.206,2.374-.008.091-.018.179-.031.267a29.835,29.835,0,0,1-1.228,5.788c-.028.091-.059.182-.09.273a22.579,22.579,0,0,1-.906,2.281,31.806,31.806,0,0,1-2.471,4.334c-.062.094-.126.187-.191.278-.834,1.227-1.735,2.411-2.656,3.569-.744.936-1.5,1.858-2.263,2.78h0c-.077.091-.154.184-.229.278-.232.281-.463.561-.692.842-.116.139-.229.278-.343.417-1.027,1.257-2.039,2.529-2.991,3.852q-.556.774-1.073,1.572h0c-.059.094-.119.184-.175.278h0a37.339,37.339,0,0,0-3.159,6.138c-.039.091-.075.182-.111.273-.167.428-.329.861-.481,1.3a52.762,52.762,0,0,0-1.514,5.216c-.023.091-.044.182-.067.273-.474,2.026-.852,4.08-1.187,6.143-.015.088-.031.179-.044.267-.347,2.149-.644,4.31-.952,6.464-.013.091-.026.182-.039.27-.175,1.23-.355,2.457-.548,3.679-.1.61-.147,1.374-.293,2.1-.015.091-.036.182-.057.27a2.919,2.919,0,0,1-1.174,1.952c-.067.04-.137.08-.209.115a2.825,2.825,0,0,1-.291.128,15.807,15.807,0,0,1-2.209.543l-2.965.711-6.255,1.5-.054.013c-.093.021-.185.043-.278.067q-2.888.69-5.774,1.382a.131.131,0,0,1-.162-.128c-.015-.286-.031-.569-.049-.855-.015-.321-.033-.644-.054-.965q-.1-1.809-.206-3.617c0-.088-.008-.179-.015-.267q-.162-2.883-.324-5.769c-.008-.088-.013-.176-.015-.267q-.182-3.2-.358-6.406c-.005-.088-.008-.179-.013-.267q-.139-2.518-.265-5.034c-.018-.353-.036-.708-.052-1.061,0-.088-.008-.176-.01-.265-.093-2.136-.134-4.28-.018-6.416,0-.088.008-.177.013-.267q.058-.966.162-1.933a30.215,30.215,0,0,1,.749-4.138l.07-.273a31.588,31.588,0,0,1,1.511-4.382c.3-.711.628-1.414.968-2.112.044-.091.087-.179.134-.27,1.009-2.056,2.137-4.053,3.241-6.055.031-.053.059-.11.09-.163.049-.091.1-.182.149-.273q1.8-3.272,3.6-6.544c.049-.091.1-.182.149-.273.342-.623.682-1.243,1.025-1.863l1.632-2.97.394-.711.193-.353c.049-.091.1-.182.149-.273q1.324-2.406,2.646-4.812c.317-.575.628-1.158.94-1.743l.147-.27a29.449,29.449,0,0,1,3.684-5.673c.18-.2.368-.4.561-.591l.008-.008c.093-.1.188-.187.286-.278a.184.184,0,0,1,.026-.021,32.63,32.63,0,0,1,6.456-4.28q2.413-1.367,4.873-2.636h0c.131-.069.263-.136.394-.2l.028-.016c.049-.027.1-.051.152-.078.139-.072.281-.144.42-.211.1-.051.191-.1.286-.147.355-.182.713-.361,1.071-.54a9.874,9.874,0,0,0,.927.759c.116.086.234.168.353.249h0c.293.2.6.382.906.553a16.98,16.98,0,0,0,2.008,1.444l.1.064c.08.051.157.1.234.158a8.558,8.558,0,0,1,3.017,3.016,7.279,7.279,0,0,1,.373.821c.034.085.067.174.1.262h0a13.886,13.886,0,0,1,.662,4.1c.023.644.031,1.289.028,1.935" transform="translate(-136.087 -313.413)" fill="#cfc5c0"/>
      <path id="Trazado_772218" data-name="Trazado 772218" d="M549.181,663.153c-.356-1.327-.151.288-.507-1.039-.235-.877-.526-1.728.238-2.418.525-.474,17.031-13.85,21.442-17.434l6.055-4.922a99.861,99.861,0,0,1,5.753,12.152c-8.266,3.867-30.383,12.446-32.981,13.661" transform="translate(-456.34 -537.124)" fill="#8c453b"/>
      <path id="Trazado_772219" data-name="Trazado 772219" d="M581.3,724.262l-.19-.409a108,108,0,0,0-4.057-12.72.132.132,0,0,0-.253.019,31.535,31.535,0,0,0-5.253,2.66q-.64.4-1.261.841c-.305.215-.965.52-1.153.853-.247.438.285,1.649.453,2.039.725,1.685,1.925,3.1,2.716,4.75.422.882.792,1.791,1.255,2.651a5.494,5.494,0,0,0,1.432,1.979c.316.2.589.048.9-.089.582-.252,1.16-.516,1.74-.774l3.6-1.6a.139.139,0,0,0,.068-.2" transform="translate(-473.524 -599.242)" fill="#f7e9e1"/>
      <path id="Trazado_772220" data-name="Trazado 772220" d="M635.715,443.914a8.772,8.772,0,0,1-.543,3.074,5.639,5.639,0,0,1-1.851,2.152,16.054,16.054,0,0,1-1.57.976c-.183.1-.376.214-.582.329-1.151.639-2.644,1.43-4.3,2.286l-.293.153c-2.049,1.061-4.33,2.214-6.515,3.3-.1.048-.2.1-.293.147-1.246.62-2.453,1.219-3.565,1.764-.188.094-.376.184-.559.273l-.669.329c-1.027.5-1.936.941-2.659,1.289l-.548.262a.131.131,0,0,1-.178-.048c-.155-.364-.322-.749-.494-1.152-.036-.086-.072-.171-.111-.259-.546-1.281-1.164-2.74-1.8-4.267-.059-.142-.118-.286-.178-.43q-.305-.738-.615-1.489c-.036-.086-.069-.171-.105-.259-.821-2.008-1.63-4.037-2.312-5.841-.034-.088-.067-.174-.1-.259-.286-.762-.548-1.478-.775-2.136-.036-.1-.072-.2-.105-.3a.139.139,0,0,1,.059-.15c.052-.043.106-.083.157-.126q2.51-2,5.061-3.941l.206-.158c.134-.1.268-.2.4-.3.4-.3.8-.6,1.194-.9.1-.08.2-.155.3-.23q2.8-2.105,5.643-4.144-.139-.594-.283-1.187c-.018-.088-.041-.174-.062-.262q-.745-3.144-1.511-6.28c-.018-.088-.041-.174-.062-.262-.275-1.139-.556-2.278-.834-3.414-.051-.206-.1-.409-.152-.612q-.232-.942-.463-1.882c-.023-.086-.044-.174-.064-.262q-.78-3.14-1.575-6.28c-.021-.086-.044-.174-.067-.262-.4-1.6-.813-3.208-1.228-4.81l-.154-.6c-.01-.037-.018-.072-.028-.11-.021-.088-.044-.176-.067-.265-.07-.278-.142-.553-.214-.832a18.178,18.178,0,0,1-3.4-2.259c-.01-1.01.047-2.034.059-3.034,0-.088,0-.179,0-.267V394.79c.069-.051.142-.1.214-.144a7.95,7.95,0,0,1,1.251-.682,9.471,9.471,0,0,1,4.69-.725c.085.008.173.019.257.029a9.807,9.807,0,0,1,2.191.535c.105.04.209.08.312.123.17.07.335.144.5.225.216.1.425.217.628.337a9.419,9.419,0,0,1,1.735,1.321c.077.072.152.144.224.222a12.43,12.43,0,0,1,2.09,2.855c.152.278.3.561.435.848q.065.128.123.257a50.093,50.093,0,0,1,2.3,6.208c.026.086.054.171.082.257.093.294.188.588.283.88.474,1.452.965,2.986,1.47,4.572.026.086.051.171.082.259.281.89.566,1.8.852,2.716.054.176.111.355.167.535.3.984.613,1.981.919,2.978.028.088.054.176.08.262.6,1.957,1.2,3.922,1.771,5.849l.077.259q.4,1.339.785,2.649c.054.182.106.364.16.543q.456,1.56.883,3.042c.026.088.049.174.075.259.587,2.05,1.122,3.959,1.575,5.646.023.088.046.174.07.259.8,2.97,1.339,5.213,1.48,6.261.013.1.023.187.028.265s.008.166.005.225" transform="translate(-503.414 -331.369)" fill="#cfc5c0"/>
      <path id="Trazado_772221" data-name="Trazado 772221" d="M189.148,1006.293a2.107,2.107,0,0,0-.381-.867,6.864,6.864,0,0,1-.634-1.366c-.28-.824-.443-1.684-.683-2.52a9.447,9.447,0,0,0-1.078-2.741,44.883,44.883,0,0,1-2.574-4.211c-.011-.018-.013.045-.01.171a2.159,2.159,0,0,0-1.147-.828c-.979-.248-2.214.777-3.073.1l.01-.01c.117-.122-.065-.311-.182-.189l-.024.025c-.1-.051-.213.069-.169.176-1.614,1.682-3.551,3.232-5.015,5.053-1.456,1.49-4.16,4.535-4.855,5.516a4.746,4.746,0,0,0-1.013,4.246,3.877,3.877,0,0,0-.284,3.654,1.18,1.18,0,0,0,.034.929.786.786,0,0,0,1.179.067,3.776,3.776,0,0,0,.674-.923q.478-.751.977-1.486.955-1.408,1.987-2.758c.915-1.2,2.744-3.23,3.744-4.349q.6.07,1.208.132c-.426.47-1.715,1.822-2.117,2.3a17.335,17.335,0,0,0-2.975,4.684c-.2.506-.667,1.436-.365,2,.219.406.643.293.933.033a25.83,25.83,0,0,0,2.164-2.525l2.107-2.473c.8-.936,2.46-2.755,3.258-3.691.184-.216.37-.43.555-.645.433-.224.854-.492,1.284-.731l1.395-.773a8.552,8.552,0,0,1,.727.623,9.8,9.8,0,0,1,.858,1.124c.428.633.82,1.292,1.28,1.9.355.469.877,1.219,1.528,1.22a.726.726,0,0,0,.678-.867" transform="translate(-139.533 -837.529)" fill="#8c453b"/>
      <path id="Trazado_772222" data-name="Trazado 772222" d="M368.9,371.545q8.34-.433,16.673-.965c0,.088,0,.179-.005.27q-8.155.517-16.312.944h0q-1.8.1-3.606.187h-.023c.131-.069.263-.136.394-.2l.028-.016c.049-.027.1-.053.147-.078h.005q1.351-.068,2.7-.139" transform="translate(-304.236 -312.31)" fill="#f7e9e1"/>
      <path id="Trazado_772223" data-name="Trazado 772223" d="M579.232,359.4q-5.576.453-11.154.861c0-.091,0-.182.005-.27q5.417-.4,10.832-.834c.106.08.211.16.317.243" transform="translate(-472.698 -302.681)" fill="#f7e9e1"/>
      <path id="Trazado_772224" data-name="Trazado 772224" d="M297.175,454.069q4.22-.245,8.438-.519c-.005.091-.008.179-.013.27l-.7.045q-3.861.245-7.725.471-11.1.649-22.22,1.125-2.436.108-4.875.2l.147-.27q2.409-.1,4.816-.2,3.251-.14,6.5-.294,7.823-.373,15.638-.829" transform="translate(-224.731 -382.234)" fill="#f7e9e1"/>
      <path id="Trazado_772225" data-name="Trazado 772225" d="M592.415,435.037q-1.487.137-2.971.267-5.834.517-11.679.987-4.491.365-8.984.695c-.01-.088-.02-.176-.028-.267q4.51-.333,9.015-.7,2.888-.232,5.776-.476,2.95-.249,5.9-.511,1.425-.124,2.85-.256.066.128.124.256" transform="translate(-473.26 -366.415)" fill="#f7e9e1"/>
      <path id="Trazado_772226" data-name="Trazado 772226" d="M260.226,534.918q4.61-.273,9.218-.575l-.023.27q-1.34.088-2.68.174-3.3.208-6.605.4-12.163.722-24.341,1.235-4.085.176-8.17.323c.049-.091.1-.182.149-.273q4.05-.148,8.1-.321,3.757-.156,7.511-.337,8.425-.4,16.845-.9" transform="translate(-189.406 -450.323)" fill="#f7e9e1"/>
      <path id="Trazado_772227" data-name="Trazado 772227" d="M604.938,512.448q-3.649.353-7.3.679-3.236.3-6.474.572-6.19.533-12.382,1.013c-.018-.088-.036-.176-.051-.265q5.143-.4,10.284-.831c.7-.059,1.388-.118,2.082-.179q3.274-.277,6.546-.578,3.606-.325,7.21-.671c.026.086.052.171.083.259" transform="translate(-481.565 -431.652)" fill="#f7e9e1"/>
      <path id="Trazado_772228" data-name="Trazado 772228" d="M215.889,618.555q8.367-.453,16.732-1.005c-.008.091-.016.182-.021.273q-1.456.1-2.906.187-7.016.445-14.037.823-9.522.517-19.046.9-5.981.249-11.962.441c.044-.091.087-.179.134-.27q5.95-.2,11.893-.438,4.83-.2,9.658-.428,4.776-.229,9.553-.487Z" transform="translate(-153.647 -520.446)" fill="#f7e9e1"/>
      <path id="Trazado_772229" data-name="Trazado 772229" d="M627.266,592.579q-5.811.578-11.627,1.1-1.429.132-2.86.259-5.869.525-11.743,1c-.041-.086-.08-.174-.116-.259q2.637-.209,5.272-.433,3.263-.277,6.526-.567,1.467-.128,2.935-.262,5.769-.529,11.537-1.1l.077.259" transform="translate(-500.026 -499.183)" fill="#f7e9e1"/>
      <path id="Trazado_772230" data-name="Trazado 772230" d="M190.01,701.327q12.171-.613,24.336-1.436c-.005.091-.015.182-.023.273q-2.591.176-5.184.339-9.614.61-19.239,1.1-6.7.341-13.4.612-6.267.261-12.534.465c0-.088.008-.176.013-.267q6.29-.2,12.577-.465,4.61-.189,9.221-.409,2.116-.1,4.232-.208" transform="translate(-136.437 -589.839)" fill="#f7e9e1"/>
      <path id="Trazado_772231" data-name="Trazado 772231" d="M659.643,671.434q-2.332.245-4.667.479-5.715.578-11.434,1.1-3.811.357-7.62.687l-.257.024c-.031-.088-.062-.174-.1-.259.252-.021.5-.043.757-.067q3.622-.317,7.241-.652,8.008-.746,16.009-1.575c.023.088.046.174.07.259" transform="translate(-528.856 -565.639)" fill="#f7e9e1"/>
      <path id="Trazado_772232" data-name="Trazado 772232" d="M188.36,785.4q12.31-.605,24.612-1.417c-.036.091-.075.184-.118.275q-1.649.108-3.292.214-10.618.674-21.245,1.2-6.267.309-12.533.562-4.873.2-9.748.361c-.005-.088-.008-.179-.013-.267q4.9-.16,9.808-.361,5.186-.213,10.371-.457l2.16-.1" transform="translate(-138.146 -660.708)" fill="#f7e9e1"/>
      <path id="Trazado_772233" data-name="Trazado 772233" d="M648.085,755.2c-.183.1-.376.214-.582.329l-2.922.3q-5.7.573-11.4,1.1-2,.189-4.005.366-2.224.2-4.451.4c-.036-.086-.07-.171-.106-.259q2.274-.2,4.546-.4,2.019-.18,4.044-.369,7.44-.69,14.873-1.457" transform="translate(-519.748 -636.45)" fill="#f7e9e1"/>
      <path id="Trazado_772234" data-name="Trazado 772234" d="M645.868,807.394c-.01.091-.021.179-.028.267-.394.037-.785.075-1.176.11-.829.078-1.66.152-2.489.224q-.7.064-1.39.126c-.036-.085-.072-.171-.111-.259.512-.043,1.025-.091,1.539-.136q1.56-.14,3.12-.283l.535-.048" transform="translate(-533.105 -680.438)" fill="#f7e9e1"/>
      <path id="Trazado_772235" data-name="Trazado 772235" d="M190,868.465q9.653-.477,19.3-1.088c-.054.094-.111.184-.165.278q-9.591.606-19.193,1.08-6.275.313-12.552.57-3.564.148-7.128.275c0-.088-.008-.179-.016-.267q3.591-.128,7.179-.278,4.73-.193,9.458-.417,1.556-.072,3.115-.152" transform="translate(-141.667 -730.99)" fill="#f7e9e1"/>
      <path id="Trazado_772236" data-name="Trazado 772236" d="M646.117,845.189c-.01.094-.021.184-.028.273q-2.17.2-4.343.4c.026-.091.052-.182.075-.273q2.147-.2,4.3-.4" transform="translate(-533.998 -712.29)" fill="#f7e9e1"/>
      <path id="Trazado_772237" data-name="Trazado 772237" d="M207.491,960.328q-1.787.078-3.575.152c-.01.088-.018.179-.026.267,1.213-.049,2.426-.1,3.639-.156a1.484,1.484,0,0,1-.038-.263" transform="translate(-169.657 -809.325)" fill="#f7e9e1"/>
      <path id="Trazado_772238" data-name="Trazado 772238" d="M264.257,953.782c.006.087.008.174.007.261q8.036-.383,16.068-.852c.064-.091.129-.184.19-.278q-8.131.48-16.265.868" transform="translate(-219.889 -803.076)" fill="#f7e9e1"/>
      <path id="Trazado_772239" data-name="Trazado 772239" d="M182.643,1038.221c-1.262,1.537-2.461,3.138-3.653,4.733a15.783,15.783,0,0,0-2.814,4.993c-.046.165.2.246.246.081a15.6,15.6,0,0,1,2.786-4.93c1.179-1.577,2.363-3.161,3.611-4.681.106-.13-.068-.327-.175-.2" transform="translate(-146.592 -874.933)" fill="#5e2f28"/>
      <path id="Trazado_772240" data-name="Trazado 772240" d="M186.3,1042.608q-1.444,1.952-2.8,3.972c-.095.141.107.307.2.166q1.355-2.019,2.8-3.972c.1-.136-.1-.3-.2-.166" transform="translate(-152.668 -878.624)" fill="#5e2f28"/>
      <path id="Trazado_772241" data-name="Trazado 772241" d="M561.143,777.4a5.165,5.165,0,0,0-1.053-3.276,26.953,26.953,0,0,0-2.476-2.184c-.434-.4-.845-.823-1.24-1.262l.022-.008q-.16-.261-.326-.518a26.974,26.974,0,0,1-1.948-3.468,10.156,10.156,0,0,0-2.19-3.075l.159-.056c.122-.043.069-.245-.053-.2-1.766.631-4.349,1.271-4.8,3.5a5.659,5.659,0,0,0,.79,3.331,19.377,19.377,0,0,0,1.4,2.611,9.392,9.392,0,0,0,2.406,3.483,17.233,17.233,0,0,0,2.086,1.457,4.306,4.306,0,0,1,1.689,2.7,3.185,3.185,0,0,0,.928,1.83c.346.242.831.3,1.022-.16a4.392,4.392,0,0,0-.355-2.686,14.108,14.108,0,0,0-.983-2.366,4.285,4.285,0,0,1,1.7,1.109c.624.787,1.058,3.341,1.42,4.244.171.427.523,1.094,1.064,1.007s.631-.739.594-1.2c-.04-.493-.314-1.547-.418-2.055a5.965,5.965,0,0,0,.563-2.757" transform="translate(-455.308 -643.317)" fill="#8c453b"/>
      <path id="Trazado_772242" data-name="Trazado 772242" d="M542.018,788.352c-.118-1.408-1.377-2.568-2.766-3.328a3.253,3.253,0,0,1-.642.063c-.106,0-.209,0-.308-.014q-.543,2.628-1.085,5.256c-.2.982-.407,1.965-.551,2.955a8.448,8.448,0,0,0-.164,2.573c.125.721,1.087,1.312,1.545.4a7.378,7.378,0,0,0,.37-1.293,11.1,11.1,0,0,1,.769-2.269c.794-1.482,2.982-2.551,2.832-4.346" transform="translate(-446.38 -661.586)" fill="#8c453b"/>
      <path id="Trazado_772243" data-name="Trazado 772243" d="M586.18,828.9c-.326-.735-1.063-1.049-1.5-1.688-.394-.579-.427-1.387-1.235-1.482-.164-.019-.163.248,0,.267.665.078.819,1.182,1.242,1.644s1,.778,1.27,1.394c.069.156.291.02.222-.135" transform="translate(-485.384 -695.89)" fill="#5e2f28"/>
      <path id="Trazado_772244" data-name="Trazado 772244" d="M599.953,822.673c-.2-.769-.619-1.007-1.283-1.37-.764-.417-1.817-.787-2.126-1.691-.175-.513-.363-.831-.937-.854-.166-.007-.165.261,0,.267.287.011.606.539.711.764a2.978,2.978,0,0,0,.123.3,1.567,1.567,0,0,0,.371.393,8.984,8.984,0,0,0,1.533.941,5.109,5.109,0,0,1,.769.44,2.039,2.039,0,0,1,.688,1.337c.133.716.216,1.444.32,2.166.024.17.272.1.248-.071a23.616,23.616,0,0,0-.418-2.627" transform="translate(-495.503 -690.016)" fill="#5e2f28"/>
      <path id="Trazado_772245" data-name="Trazado 772245" d="M602.688,371.755a38.751,38.751,0,0,1-2.724,11.664c-.051-.112-.1-.227-.149-.339.528-1.428,1.014-2.871,1.423-4.344a31.675,31.675,0,0,0,1.223-8.817c-.028-3.125-.281-6.256-.474-9.376-.034-.54-.067-1.083-.1-1.623q-.162-2.578-.337-5.16-.4-5.951-.839-11.9c-.013-.171.245-.168.257,0q.39,5.434.77,10.865c.013.206.028.414.041.62q.2,3.012.394,6.028.093,1.444.18,2.893a89.905,89.905,0,0,1,.337,9.488" transform="translate(-499.107 -288)" fill="#362020"/>
      <path id="Trazado_772246" data-name="Trazado 772246" d="M620.943,531.58q-.082-4.327-.542-8.633c-.018-.169-.275-.171-.257,0a99.581,99.581,0,0,1,.477,14.533q-.072,1.769-.208,3.534a15.707,15.707,0,0,1-.453,3.544,4.581,4.581,0,0,1-2.309,2.414q-1.491.9-2.985,1.8l-6.965,4.2c-.143.087-.014.318.13.231l6.412-3.871,3.316-2a6.85,6.85,0,0,0,2.153-1.7,5.241,5.241,0,0,0,.777-2.576c.132-1.246.221-2.5.3-3.75q.23-3.861.157-7.733" transform="translate(-505.617 -440.611)" fill="#362020"/>
      <path id="Trazado_772247" data-name="Trazado 772247" d="M562.724,122.5c-.134.979-.3,1.952-.487,2.9-.19.981-.4,1.944-.613,2.877a51.594,51.594,0,0,1-3.956,11.469c-1.4,2.8-3.385,6.686-6.925,7.266-3.612.591-6.824-2.767-8.909-5.178a22.207,22.207,0,0,1-5-9.571,17.406,17.406,0,0,1,1.037-11,20.273,20.273,0,0,1,6.078-7.253c4.227-3.328,9.213-5.732,13.324-9.189-.046-.032-.09-.067-.136-.1a8.628,8.628,0,0,0,.873-.2c-.111.1-.219.192-.332.289A11.778,11.778,0,0,1,559,106.028c4.227,4.489,4.531,10.635,3.722,16.476" transform="translate(-446.329 -88.098)" fill="#8c453b"/>
      <path id="Trazado_772248" data-name="Trazado 772248" d="M612.2,246.488c-.408,1.181-1.105,2-1.557,1.834s-.487-1.262-.079-2.444,1.105-2,1.557-1.834.487,1.262.079,2.444" transform="translate(-507.811 -205.653)" fill="#362020"/>
      <path id="Trazado_772249" data-name="Trazado 772249" d="M663.94,250.314c-.408,1.181-1.105,2-1.557,1.834s-.487-1.262-.079-2.444,1.105-2,1.557-1.834.487,1.263.079,2.444" transform="translate(-550.868 -208.876)" fill="#362020"/>
      <path id="Trazado_772250" data-name="Trazado 772250" d="M634.507,252.641a.129.129,0,1,0-.257,0q0,2.522,0,5.045c0,.867.187,1.894-.638,2.412a21.344,21.344,0,0,1-2.144,1.041c-.15.072-.02.3.13.231a12.961,12.961,0,0,0,2.372-1.194,1.643,1.643,0,0,0,.538-1.428c.027-2.035,0-4.072,0-6.107" transform="translate(-525.393 -212.807)" fill="#5e2f28"/>
      <path id="Trazado_772251" data-name="Trazado 772251" d="M612.809,322.738l-.273-.029q-2.78-.3-5.563-.6l-.064-.008H606.9a.129.129,0,0,0-.229.1c.224,1.537.749,3.681,2.618,3.705,1.653.021,3.025-1.524,3.622-2.986a.135.135,0,0,0-.106-.182" transform="translate(-504.814 -271.411)" fill="#5e2f28"/>
      <path id="Trazado_772252" data-name="Trazado 772252" d="M608.461,322.414a1.933,1.933,0,0,0,1.678,1.874,10.334,10.334,0,0,0,2.147.2,1.52,1.52,0,0,0,1.282-.508,2.608,2.608,0,0,0,.456-.965q-2.78-.3-5.563-.6" transform="translate(-506.301 -271.718)" fill="#f7e9e1"/>
      <path id="Trazado_772253" data-name="Trazado 772253" d="M606.875,211.625a2.349,2.349,0,0,0-1.617-1.012c-1.555-.287-3.01-.541-4.3.575a1.409,1.409,0,0,0-.584,1.5c.213.53.835.64,1.325.656a14.73,14.73,0,0,1,3.213.214,1.771,1.771,0,0,0,1.847-.262,1.59,1.59,0,0,0,.12-1.672" transform="translate(-499.514 -177.289)" fill="#362020"/>
      <path id="Trazado_772254" data-name="Trazado 772254" d="M666.329,216.845c-1.555-.286-3.009-.54-4.3.575a1.415,1.415,0,0,0-.584,1.5c.214.529.837.642,1.326.655a14.88,14.88,0,0,1,3.213.214c.082.021.17.043.26.061.185-.952.353-1.925.486-2.9a2.893,2.893,0,0,0-.4-.1" transform="translate(-550.331 -182.542)" fill="#362020"/>
      <path id="Trazado_772255" data-name="Trazado 772255" d="M286.142,472.7a.13.13,0,0,0-.222.135,16.623,16.623,0,0,1,1.752,12.357,32.272,32.272,0,0,1-5.66,11.627c-2.7,3.767-5.813,7.2-8.419,11.039a12.291,12.291,0,0,0-2.179,5.657,52.984,52.984,0,0,0-.2,7.318c.126,5.543.3,11.086.448,16.629a.129.129,0,1,0,.257,0q-.2-7.521-.407-15.042c-.067-2.467-.134-4.939.026-7.4a16.188,16.188,0,0,1,.577-3.733,11.841,11.841,0,0,1,1.509-3.009c4.889-7.4,12-13.548,14.191-22.574a17.041,17.041,0,0,0-1.676-13" transform="translate(-225.65 -398.317)" fill="#362020"/>
      <path id="Trazado_772256" data-name="Trazado 772256" d="M443,386.9c-.021.227-.039.454-.057.682-1.061-3.342-2.083-6.7-2.942-10.108a75.15,75.15,0,0,1-2.4-19.032c.036-5.307.216-10.616.376-15.923.09-.04.18-.083.27-.126q-.1,3.641-.19,7.285c-.172,6.6-.466,13.2.543,19.751A118.019,118.019,0,0,0,443,386.9" transform="translate(-364.126 -288.553)" fill="#362020"/>
      <path id="Trazado_772257" data-name="Trazado 772257" d="M609.56,625.741q-3.047-6.43-6.268-12.769a1.1,1.1,0,0,1-.128.321q3.167,6.249,6.174,12.584c.073.154.3.019.222-.135" transform="translate(-501.894 -516.587)" fill="#362020"/>
      <path id="Trazado_772258" data-name="Trazado 772258" d="M410.943,746.357a1.474,1.474,0,0,0,0,2.941,1.474,1.474,0,0,0,0-2.941" transform="translate(-340.808 -628.999)" fill="#362020"/>
      <path id="Trazado_772259" data-name="Trazado 772259" d="M368.014,837.317a1.474,1.474,0,0,0,0,2.941,1.474,1.474,0,0,0,0-2.941" transform="translate(-305.087 -705.656)" fill="#362020"/>
      <path id="Trazado_772260" data-name="Trazado 772260" d="M530.067,125.438a1.6,1.6,0,0,0-.6.672,2.8,2.8,0,0,1-.357.6c-.376.371-.827-.117-1.2-.26a2.577,2.577,0,0,0-2.4.505,11.107,11.107,0,0,0-2.106,2.684,7.472,7.472,0,0,1-3.181,2.342,16.109,16.109,0,0,0-5.507,3.944,15.228,15.228,0,0,0-3.262,5.926,7.491,7.491,0,0,0,1.126,6.623c.58.753,1.4.534,2.178.2A5.252,5.252,0,0,0,517,146.756a6.161,6.161,0,0,0,.982-2.689c.082-.63.176-1,.857-1.034.275-.016.553.03.83.021a4,4,0,0,0,1.552-.352c1.953-.9,1.916-3.153,2.082-5.046a5,5,0,0,1,1.531-3.49,29.891,29.891,0,0,1,2.87-2,5.015,5.015,0,0,0,2.069-5.95.141.141,0,0,0-.025-.041,1.268,1.268,0,0,1,.45-.509c.147-.08.017-.311-.13-.231" transform="translate(-425.32 -105.701)" fill="#362020"/>
      <path id="Trazado_772261" data-name="Trazado 772261" d="M606.051,111.412a16.042,16.042,0,0,1-2.4-.7,42.144,42.144,0,0,0-5.545-.934,12.113,12.113,0,0,0-5.663.535c-1.538.6-2.746,1.8-4.376,2.139-1.871-.439,1.29-4.777,1.825-5.718a14.694,14.694,0,0,1,2.757-3.485,13.855,13.855,0,0,1,3.642-2.452,6.8,6.8,0,0,1,2.611-.747,5.426,5.426,0,0,1,2.8,1.006c2.7,1.616,5.332,4.485,6.048,7.718.109.494-1.6,2.659-1.693,2.641" transform="translate(-488.841 -84.316)" fill="#362020"/>
      <path id="Trazado_772262" data-name="Trazado 772262" d="M533.924,237.2a5.2,5.2,0,0,0-.734-1.331c.016-.05.032-.1.051-.15.057-.149-.173-.213-.231-.068a2.823,2.823,0,0,0-2.242-1.052,2.975,2.975,0,0,0-2.553,2.522,5.166,5.166,0,0,0,1.031,4.309c.841,1.009,2.154,1.264,2.993.115a4.984,4.984,0,0,0,.809-2.439,25.694,25.694,0,0,1,.065-2.954,5.065,5.065,0,0,1,.579,1.113c.056.148.288.083.232-.066" transform="translate(-439.432 -197.711)" fill="#8c453b"/>
      <path id="Trazado_772263" data-name="Trazado 772263" d="M543.183,251.495a1.937,1.937,0,0,1-1.147-1.832c-.013-.643.181-1.273.122-1.918-.044-.483-.376-1.59-1.03-1.372-.157.053-.09.311.069.258.655-.219.726,1.334.706,1.667a8.924,8.924,0,0,0-.1,1.751,2.121,2.121,0,0,0,1.254,1.677c.15.068.282-.162.13-.231" transform="translate(-450.199 -207.609)" fill="#5e2f28"/>
      <path id="Trazado_772264" data-name="Trazado 772264" d="M633.676,131.677a7.468,7.468,0,0,0-2.552-4.728,13.037,13.037,0,0,0-4.56-2.644,5.765,5.765,0,0,0-5.3.649,1.887,1.887,0,0,1-2.092-.014,2.26,2.26,0,0,0-.931-.381.933.933,0,0,0-1.066.769c-.119.007-.2.182-.067.242a5.9,5.9,0,0,1,3.3,4.171c.289,1.384.231,3.159,1.367,4.158,1.3,1.144,3.133.408,4.648.765a3.98,3.98,0,0,1,2.4,1.72,11.469,11.469,0,0,0,1.133,1.789c1.068,1.112,2.544.345,3.138-.885a10.208,10.208,0,0,0,.584-5.611" transform="translate(-513.442 -104.461)" fill="#362020"/>
      <path id="Trazado_772265" data-name="Trazado 772265" d="M603.306,118.953c-.54-.919-1.508-2.541-2.732-2.248-.161.039-.093.3.068.258,1.192-.285,2.291,1.776,2.752,2.7a9.826,9.826,0,0,1,.985,3.475c.016.17.274.171.257,0a10.144,10.144,0,0,0-1.33-4.181" transform="translate(-499.661 -98.325)" fill="#8c453b"/>
      <path id="Trazado_772266" data-name="Trazado 772266" d="M700.359,227.977a4.117,4.117,0,0,1-2.837-.414c-1.01-.6-.882-1.658-.85-2.7a7.935,7.935,0,0,0-1.08-4.534.13.13,0,0,0-.222.135,7,7,0,0,1,1.023,3.278,15.591,15.591,0,0,0,.066,2.861c.433,1.6,2.641,1.914,3.968,1.627.162-.035.094-.293-.068-.258" transform="translate(-578.6 -185.637)" fill="#8c453b"/>
      <path id="Trazado_772267" data-name="Trazado 772267" d="M525.337,205.061a9.194,9.194,0,0,0-5.233,1.009c-.148.077-.018.308.13.231a8.957,8.957,0,0,1,5.1-.973c.165.017.164-.25,0-.267" transform="translate(-432.725 -172.776)" fill="#8c453b"/>
      <path id="Trazado_772268" data-name="Trazado 772268" d="M496.879,389.725c-3.653,2.9-8.486,2.119-12.267-.057a.133.133,0,0,0-.13.231c3.854,2.219,8.8,3.01,12.527.057.13-.1,0-.335-.13-.231" transform="translate(-403.086 -328.381)" fill="#4f62a1"/>
      <path id="Trazado_772269" data-name="Trazado 772269" d="M405.88,894.644a69.181,69.181,0,0,1-6.374-3.978c-2.031-1.521-2.644-3.775-3.251-6.173l-1.276-5.035a1.345,1.345,0,0,1-.206.242q.518,2.043,1.037,4.087c.535,2.115.95,4.494,2.458,6.133a12.959,12.959,0,0,0,2.718,2.045q1.625,1.027,3.272,2.019,3.4,2.049,6.881,3.948,2.429,1.327,4.9,2.577c.183,0,.373-.008.564-.013q-5.448-2.747-10.719-5.852" transform="translate(-328.491 -741.171)" fill="#d1a38c"/>
      <path id="Trazado_772270" data-name="Trazado 772270" d="M521.669,278.429a5.042,5.042,0,0,1-1.255.155c0,.016-.007.033-.009.049-.117.817-.378,1.6-1.252,1.832-.25.067-1.061.16-1.236-.125-.1-.17.189-.588.267-.7.092-.136.215-.259.32-.384a4.815,4.815,0,0,0,.8-.979,3.055,3.055,0,0,1-.7-1.083,7.126,7.126,0,0,0-1.679,1.525,4.874,4.874,0,0,0-1.137,2.13c-.08.724.8,1.044,1.327,1.274a5.934,5.934,0,0,0,2.663.492,2.454,2.454,0,0,0,1.785-.661c.533-.621.286-1.565.2-2.3-.044-.382-.043-.821-.1-1.222" transform="translate(-429.19 -233.606)" fill="#f7e9e1"/>
      <path id="Trazado_772271" data-name="Trazado 772271" d="M1103.828,1028.214a3.185,3.185,0,0,0-.747-.022c-.018,0-1.965-.089-3.8-.162.013-.124.022-.249.035-.374.078-.485.156-.97.227-1.456a3.982,3.982,0,0,0,.113-1.165.127.127,0,0,0-.094-.093,7.526,7.526,0,0,0-2.066.14l-2.271.2a1.479,1.479,0,0,0-.174-.738c-.167-.224-.411-.18-.666-.16a22.181,22.181,0,0,0-3.5.51,5.466,5.466,0,0,0-2.988,1.831,3.257,3.257,0,0,0-.632.65,2.632,2.632,0,0,0-.513,1.573c0,.006,0,.013,0,.02-.055,0-.109-.007-.159-.014l-.239-.03a1.776,1.776,0,0,0-.823-.605,1.1,1.1,0,0,0-1.59.864.819.819,0,0,0,.633.93c.473.219,1.429.324,1.8-.157l.148.016c.108.012.222.031.336.048a4.5,4.5,0,0,0,1.163,1.535,8.873,8.873,0,0,0,3.177,2.117c.367.156.74.3,1.113.439.229.085.573.3.836.244.348-.077.5-.591.59-1.053,1.529.12,3.076.127,4.591.1a.132.132,0,0,0,.122-.1c.181-.864.334-1.733.472-2.6l4.34-.274a3.078,3.078,0,0,0,1.273.529.133.133,0,0,0,.144-.151,1.322,1.322,0,0,0-1.332-1.2.247.247,0,0,0-.149.055,40.265,40.265,0,0,1-4.122.025c.036-.259.066-.519.1-.778l3.968,0a.165.165,0,0,0,.025,0,1.92,1.92,0,0,0,.35.121c.2.042,1.006.1,1-.24-.032-.479-.5-.511-.69-.574" transform="translate(-901.948 -863.298)" fill="#f7e9e1"/>
      <path id="Trazado_772272" data-name="Trazado 772272" d="M203.136,1097.48a1,1,0,0,0-.353-.423.126.126,0,0,0-.156.021,23.378,23.378,0,0,1-3.368,2.8,2.581,2.581,0,0,1,.459-1.306,17.455,17.455,0,0,0,2.841-5.747.1.1,0,0,0-.09-.138c-.583-.062-1.165-.127-1.743-.21l1.12-6.052a3.265,3.265,0,0,0,.809-1.15.135.135,0,0,0-.105-.182,1.309,1.309,0,0,0-1.446,1.044.27.27,0,0,0,.014.163,44.852,44.852,0,0,1-1.565,5.976c-.209-.042-.417-.09-.624-.141l1.476-5.965a.2.2,0,0,0,0-.026,2.065,2.065,0,0,0,.2-.322c.087-.186.347-.987.023-1.061-.455-.087-.6.379-.707.552a3.529,3.529,0,0,0-.205.746c-.012.024-1.136,3.911-1.681,5.857a5.572,5.572,0,0,0-2.119-.157.1.1,0,0,0-.089.087,18.821,18.821,0,0,0,.186,3.464q.131.878.346,1.745a7.1,7.1,0,0,1,.419,1.848c-.03.88-.882,1.112-1.333,1.689-.035-.215-.088-.435-.1-.536q-.04-.376-.058-.755a12.27,12.27,0,0,1,.046-1.765,14.515,14.515,0,0,0,.261-1.642.474.474,0,0,0-.218-.459.128.128,0,0,0-.189.08,18.849,18.849,0,0,0-.6,4.089,2.707,2.707,0,0,0,.818,2.322,2.621,2.621,0,0,0,.986.754c-.017.055-.034.108-.052.157l-.087.233a1.79,1.79,0,0,0-.769.679,1.171,1.171,0,0,0,.412,1.813.781.781,0,0,0,1.024-.406c.322-.421.657-1.358.3-1.85l.052-.145c.045-.127.1-.259.155-.392a3.47,3.47,0,0,0,1.369-.9,12.2,12.2,0,0,0,1.213-1.257,22.266,22.266,0,0,1,3.076-2.945.142.142,0,0,0,.046-.183" transform="translate(-161.918 -914.181)" fill="#f7e9e1"/>
      <path id="Trazado_772273" data-name="Trazado 772273" d="M484.682,1144.442a3.387,3.387,0,0,0-.5-.578c-.009-.017-1.29-1.542-2.5-2.972.1-.075.19-.155.285-.231.393-.275.785-.55,1.173-.831a3.716,3.716,0,0,0,.892-.716.134.134,0,0,0,0-.135,7.921,7.921,0,0,0-1.519-1.461l-1.7-1.572a1.443,1.443,0,0,0,.4-.639c.042-.28-.157-.434-.346-.612a23.116,23.116,0,0,0-2.762-2.285,5.354,5.354,0,0,0-3.335-.992,3.079,3.079,0,0,0-.889-.029,2.434,2.434,0,0,0-1.452.7l-.017.011c-.036-.044-.07-.087-.1-.13l-.143-.2a1.9,1.9,0,0,0-.144-1.037c-.282-.631-1.015-1.171-1.7-.6a.842.842,0,0,0-.214,1.116c.172.507.757,1.3,1.348,1.249l.091.123c.066.089.131.189.2.287a4.678,4.678,0,0,0-.272,1.933,9.56,9.56,0,0,0,.707,3.851c.144.384.3.763.459,1.14.1.231.183.64.4.8.293.21.755-.031,1.142-.28.968,1.235,2.028,2.405,3.089,3.529a.127.127,0,0,0,.156.021c.728-.458,1.441-.941,2.144-1.436l3.177,3.082a3.34,3.34,0,0,0,.507,1.324.127.127,0,0,0,.2,0,1.394,1.394,0,0,0-.081-1.827.248.248,0,0,0-.14-.075q-1.5-1.471-2.853-3.089c.206-.151.408-.307.611-.461l2.727,2.993a.158.158,0,0,0,.02.016,2.114,2.114,0,0,0,.156.347c.105.176.62.83.852.585.313-.354.011-.73-.073-.915" transform="translate(-391.076 -952.222)" fill="#f7e9e1"/>
      <path id="Trazado_772274" data-name="Trazado 772274" d="M884.1,1267.036a.247.247,0,0,0-.148.057c-1.274.094-2.549.119-3.822.09a.091.091,0,0,0-.042-.021c-.554-.088-1.108-.18-1.661-.272l.458-.088c.39-.074,1.184-.053,1.476-.411l3.525-.048a.153.153,0,0,0,.025,0,1.929,1.929,0,0,0,.351.116c.2.039,1.008.089.992-.254-.038-.479-.51-.5-.7-.564a3.173,3.173,0,0,0-.747-.011c-.017,0-1.637-.051-3.311-.094,0-.073,0-.142,0-.2q.025-.627.033-1.255c0-.352.163-1.014-.255-1.172a2.039,2.039,0,0,0-.771.035c-.36.033-.719.073-1.077.124a13.767,13.767,0,0,0-2.326.521,8.732,8.732,0,0,0-3.3,1.915.789.789,0,0,0-.257-.137,11.546,11.546,0,0,0-1.354-.39c-.073-.021-.147-.045-.222-.07.958-.718,1.927-1.422,2.915-2.1a.138.138,0,0,0,.059-.151l-.073-.189a.133.133,0,0,0-.158-.093,10.493,10.493,0,0,0-3.623,1.267,5.687,5.687,0,0,0-1.834,2.163c-.141.193-.275.388-.4.568-.213.011-.439.069-.648.1l-.2.029a1.814,1.814,0,0,0-.735-.484,1.1,1.1,0,0,0-1.577.887.818.818,0,0,0,.645.92,1.77,1.77,0,0,0,1.724-.112l.263-.008a3.316,3.316,0,0,0,.681-.024.211.211,0,0,0,.026-.013l.023.079a.118.118,0,0,0-.05.141,3.412,3.412,0,0,0,.45.918,1.685,1.685,0,0,0,.461.579,4.823,4.823,0,0,0,1.206.961,10.8,10.8,0,0,0,3.822.694.129.129,0,0,0,.124-.1l.031-.22a.137.137,0,0,0-.09-.164,8.726,8.726,0,0,1-3.224-1.412c.177-.072.352-.143.521-.2a10.96,10.96,0,0,0,1.383-.433,6.222,6.222,0,0,0,2.776,1.419,11.924,11.924,0,0,0,4.621.111.135.135,0,0,0,.129-.134c.013-.585.007-1.168-.006-1.752l3.819-.3a3.074,3.074,0,0,0,1.281.51.133.133,0,0,0,.142-.153,1.321,1.321,0,0,0-1.349-1.176" transform="translate(-719.506 -1063.874)" fill="#f7e9e1"/>
      <path id="Trazado_772275" data-name="Trazado 772275" d="M446.028,1236.571q-4.654-3.553-9.4-6.975c-.136-.1-.265.133-.13.231q4.744,3.423,9.4,6.976c.134.1.262-.13.13-.231" transform="translate(-363.164 -1036.232)" fill="#f7e9e1"/>
      <path id="Trazado_772276" data-name="Trazado 772276" d="M954.548,1243.013c-4.136-.179-8.276-.085-12.414-.106-2.045-.01-4.091-.05-6.133-.169-1.071-.062-2.142-.146-3.209-.26a3.077,3.077,0,0,1-.747-.084q-.431.062-.423-.474.015-.122.03-.245a15.056,15.056,0,0,1,.211-1.719c.021-.169-.23-.233-.251-.062q-.1.859-.21,1.718c-.026.211-.152.6-.024.82.155.262.627.224.857.251q.764.088,1.529.156c2.287.206,4.582.29,6.876.321,4.639.063,9.281-.081,13.918.119.166.007.156-.26-.009-.267" transform="translate(-774.952 -1044.846)" fill="#f7e9e1"/>
      <path id="Trazado_772277" data-name="Trazado 772277" d="M391.205,1243.291a1.191,1.191,0,0,0-.077-.118,1.806,1.806,0,0,0-1.457-.555c.086-.277.164-.557.236-.839a2.669,2.669,0,0,0,.775-1.727,1.116,1.116,0,0,0-1.531-1.211c-.962.408-.834,2.077-.559,2.873a.125.125,0,0,0,.1.086q-.036.357-.065.714a3.441,3.441,0,0,0-1.941.531,15.568,15.568,0,0,0-1.906,1.941,7.433,7.433,0,0,0-1.96,3.066.135.135,0,0,0,.124.169l.228.02a.129.129,0,0,0,.111-.066,11.72,11.72,0,0,1,3.175-3.421c0,.039.009.077.013.115.075.589.181,1.175.289,1.758-.266.248-.54.488-.807.738a11.147,11.147,0,0,0-1.441,1.663c-.454.633-.86,1.3-1.26,1.972a3.764,3.764,0,0,0-.717,1.932.136.136,0,0,0,.094.129,14.278,14.278,0,0,0,1.877.405q-.745,3.289-1.322,6.615a2.492,2.492,0,0,0-.782.621c-.12.149-.343.485-.06.591s.63-.157.825-.339a2.195,2.195,0,0,0,.464-.655,1.7,1.7,0,0,0,.321-.694c.3-.941.579-1.885.881-2.824.343-1.066.7-2.125,1.068-3.182.314.014.63.019.946.01.286-.008.572-.023.857-.041q-.194,3.32-.387,6.641a.115.115,0,0,0,.009.05c.02.379.149,1.012.536,1.17.411.168.322-.621.282-.827a2,2,0,0,0-.232-.616c.043-.176.044-.395.076-.606l.413-2.733.479-3.164.394-.031c.385-.03.771-.052,1.155-.088a.823.823,0,0,0,.488-.124c.3-.275.223-.988.209-1.348a8.358,8.358,0,0,0-.349-1.973c-.093-.321-.2-.638-.313-.952a2.588,2.588,0,0,0,1.643-1.947,9.154,9.154,0,0,0-.9-3.728m-.983,4.967q-.138-.367-.279-.732c-.147-.379-.328-.778-.469-1.187a6.758,6.758,0,0,0,1.424-1.313,3.89,3.89,0,0,1,.106,1.37,4.658,4.658,0,0,1-.782,1.862" transform="translate(-318.034 -1043.964)" fill="#f7e9e1"/>
      <path id="Trazado_772278" data-name="Trazado 772278" d="M989.549,1183.451a1.654,1.654,0,0,0-.532-.306,1.276,1.276,0,0,0-.551-.192c-.451-.094-.9-.184-1.353-.276.035-.12.072-.239.1-.361a.135.135,0,0,0-.124-.169,17.263,17.263,0,0,1-3.369-.694c0-.021,0-.041-.005-.061l3.174-.3a.133.133,0,0,0,.129-.134l-.033-.58,1.678-.078a.087.087,0,0,0,.037-.011c.286-.046.756-.2.846-.509.1-.331-.5-.2-.648-.151a1.521,1.521,0,0,0-.45.229c-.136-.019-.3,0-.465-.01l-1.031-.048q-.031-.54-.062-1.079c-.019-.323.094-1.133-.133-1.389-.193-.219-.8-.142-1.051-.151a11.584,11.584,0,0,0-1.792.079,12.1,12.1,0,0,0-4.161,1.3,1.814,1.814,0,0,0-1.458-.9,6.921,6.921,0,0,0-2.758,1,.909.909,0,0,0-.084.069,1.427,1.427,0,0,0-.31,1.171q-.325-.066-.654-.114a2,2,0,0,0-1.369-.459.869.869,0,0,0-.8,1.281c.383.711,1.639.477,2.221.2a.1.1,0,0,0,.058-.086q.273,0,.546-.007a2.693,2.693,0,0,0,.551,1.457,11.889,11.889,0,0,0,1.618,1.317,5.6,5.6,0,0,0,2.475,1.267.1.1,0,0,0,.119-.11c0-.059,0-.119,0-.178a.1.1,0,0,0-.059-.081,8.9,8.9,0,0,1-2.837-2.177l.087-.02c.441-.105.877-.235,1.311-.365.15.133.3.27.446.405a8.328,8.328,0,0,0,2.809,2.079,18.1,18.1,0,0,0,4.273,1.07.131.131,0,0,0,.145-.061,15.027,15.027,0,0,0,.821-1.974c.66.059,1.32.113,1.981.159a1.911,1.911,0,0,0,.531.554c.122.081.394.226.453,0s-.167-.474-.32-.61m-12.669-4.688a2.925,2.925,0,0,1,1.031-.193,3.3,3.3,0,0,1,1.231.336,12.431,12.431,0,0,0-1.191.816,4.956,4.956,0,0,0-1.072-.959" transform="translate(-808.98 -992.075)" fill="#f7e9e1"/>
      <path id="Trazado_772279" data-name="Trazado 772279" d="M698.5,1100.217a2.777,2.777,0,0,0-.574,1.446c-.157-.022-.314-.048-.471-.066a2.461,2.461,0,0,0-1.76-.536,1.15,1.15,0,0,0-.922,1.753c.533.927,2.1.545,2.819.142a.13.13,0,0,0,.067-.118c.165-.008.33-.018.5-.029a4.547,4.547,0,0,0,1.277,2.412,15.672,15.672,0,0,0,3.548,2.06c1.378.479,2-.825,2.578-1.918a20.744,20.744,0,0,0,2.513.6,52.846,52.846,0,0,0,6.844.857c.075,0,.166-.052.148-.147l-.183-.96c.337.013.674.026,1.011.035a2.523,2.523,0,0,0,.709.71c.159.1.513.279.572-.027s-.244-.624-.447-.8a2.086,2.086,0,0,0-.693-.378,1.568,1.568,0,0,0-.708-.225l-.575-.1a1.712,1.712,0,0,0-.157-.618.663.663,0,0,0-.524-.342c-.488-.123-1.014-.15-1.511-.224l-2.883-.427,4.659-.412a.133.133,0,0,0,.114-.147c-.072-.39-.127-.782-.175-1.174l1.12-.105a.1.1,0,0,0,.046-.016c.359-.077.941-.305,1.033-.726.1-.447-.64-.237-.829-.166a1.863,1.863,0,0,0-.552.33c-.174-.018-.382.014-.588.013h-.3c-.046-.528-.073-1.057-.075-1.591a.131.131,0,0,0-.107-.117,24.54,24.54,0,0,0-8.972,1.537c-.037-.034-.073-.067-.105-.1-.324-.319-.669-.615-1.019-.9a6.5,6.5,0,0,0-1.988-1.256c-1.38-.46-2.906,1.163-3.43,1.726m6.159,4.855-.379.259a4.188,4.188,0,0,1-.66.434c-.462.2-.741-.005-1.1-.282-.327-.253-.652-.5-.981-.747.4-.139.8-.285,1.2-.424q.943.419,1.914.76m-2.039-3.618c-.161-.21-.748-.328-1-.43q-.685-.279-1.372-.554l.1-.083a1.377,1.377,0,0,1,1.658-.193c.622.3,1.238.616,1.852.934-.4.13-.806.261-1.208.389a.4.4,0,0,0-.034-.063" transform="translate(-577.983 -925.694)" fill="#f7e9e1"/>
      <path id="Trazado_772280" data-name="Trazado 772280" d="M235.044,1211.527l-14.233,7.889c-.146.081.176.709.323.628l14.233-7.889c.079-.044,1.4-1.15,1.4-1.15s-1.653.484-1.721.521" transform="translate(-183.706 -1020.586)" fill="#362020"/>
      <path id="Trazado_772281" data-name="Trazado 772281" d="M255.23,1257.332l-7.695,14.727c-.038.072-.571,1.572-.571,1.572s1.132-1.153,1.174-1.232l7.695-14.727c.079-.151-.523-.491-.6-.339" transform="translate(-205.499 -1059.595)" fill="#362020"/>
      <path id="Trazado_772282" data-name="Trazado 772282" d="M964.61,1048.158l-15.975-2.345c-.069-.01-1.494.064-1.494.064s1.3.627,1.4.64l15.975,2.345c.164.024.26-.681.1-.7" transform="translate(-788.117 -881.367)" fill="#362020"/>
      <path id="Trazado_772283" data-name="Trazado 772283" d="M85.985,1356.856a2.157,2.157,0,0,1-1.73,2,2.482,2.482,0,0,1-2.611-1.215,2.368,2.368,0,0,1,2.9-3.414c.15.068.282-.162.13-.231a2.622,2.622,0,0,0-3.333,3.61,2.722,2.722,0,0,0,2.769,1.54,2.4,2.4,0,0,0,2.126-2.222c.027-.168-.221-.241-.248-.071" transform="translate(-67.467 -1140.899)" fill="#362020"/>
      <path id="Trazado_772284" data-name="Trazado 772284" d="M120.009,1370.607l-10.279,1.481-5.338-10.134,10.3-1.284Z" transform="translate(-86.865 -1146.715)" fill="#b5925a"/>
      <path id="Trazado_772285" data-name="Trazado 772285" d="M581.558,1337.4l-8.576.083,2.366-9.239,8.457.054Z" transform="translate(-476.779 -1119.393)" fill="#fff"/>
      <path id="Trazado_772286" data-name="Trazado 772286" d="M745.862,1211.591l-8.576.083,2.366-9.239,8.457.054Z" transform="translate(-613.497 -1013.362)" fill="#fff"/>
      <path id="Trazado_772287" data-name="Trazado 772287" d="M596.28,1347.211q-2.378.2-4.764.182c-.166,0-.144.265.021.266q2.386.022,4.764-.182a.134.134,0,0,0-.021-.267" transform="translate(-492.107 -1135.373)" fill="#362020"/>
      <path id="Trazado_772288" data-name="Trazado 772288" d="M593.917,1363.8q-2.378.2-4.764.182c-.166,0-.144.265.021.267q2.386.021,4.764-.182a.134.134,0,0,0-.021-.267" transform="translate(-490.14 -1149.352)" fill="#362020"/>
      <path id="Trazado_772289" data-name="Trazado 772289" d="M755.478,1209.836q-.779,3.292-1.757,6.525a.129.129,0,0,0,.248.071q.979-3.233,1.757-6.525c.04-.167-.209-.238-.248-.071" transform="translate(-627.166 -1019.519)" fill="#362020"/>
      <path id="Trazado_772290" data-name="Trazado 772290" d="M771.32,1210.119q-.779,3.292-1.758,6.525a.129.129,0,0,0,.248.071q.979-3.233,1.757-6.525c.04-.167-.209-.238-.248-.071" transform="translate(-640.348 -1019.758)" fill="#362020"/>
      <path id="Trazado_772291" data-name="Trazado 772291" d="M1020.278,292.385l1.295-156.759-4.559-.041-1.29,156.164,4.554.636" transform="translate(-845.185 -114.267)" fill="#362020"/>
      <path id="Trazado_772292" data-name="Trazado 772292" d="M1000.61,33.852q-4.094-.114-8.19-.234c-.4-.009-.793-.021-1.188-.033-.779-.021-1.561-.046-2.339-.067l-2.022-.055c-.417-.009-.837-.022-1.254-.034q-1.326-.033-2.652-.078a4.278,4.278,0,0,1-2.99-.907c-.028.069-.054.14-.082.212-.07.166-.335.089-.267-.08.051-.12.1-.243.147-.363-.011-.014-.022-.026-.033-.041-.093-.124.038-.289.146-.243.192-.492.376-.989.548-1.487.02-.06.043-.117.06-.177.04-.109.076-.214.11-.323a41.762,41.762,0,0,0,2-9.79l13.811.123a26.327,26.327,0,0,0,1.162,6.527,14.939,14.939,0,0,0,1.091,2.377c.046.089.095.176.144.265.286.516.58,1.029.855,1.551a11.675,11.675,0,0,1,1.078,2.678.144.144,0,0,1-.137.18" transform="translate(-815.139 -16.983)" fill="#f7e9e1"/>
      <path id="Trazado_772293" data-name="Trazado 772293" d="M920.309,107.855c-.466.88-4.654,11.574-8.333,21.489.03.049.068.113.112.193s.092.173.15.28a107.884,107.884,0,0,1,6.734,16.252,54.467,54.467,0,0,1,1.576,7.162c.834,5.029,1.386,10.113,1.748,15.209.049.721.1,1.438.14,2.159.008.095.012.189.017.284.235,4.014.362,8.032.425,12.052a6.217,6.217,0,0,1-6.14,6.442L873.891,189a6.234,6.234,0,0,1-6.032-6.656c.03-.6.06-1.207.1-1.813.176-3.238.413-6.481.743-9.709.006-.095.018-.189.027-.284a124.585,124.585,0,0,1,3.28-18.791,83.722,83.722,0,0,1,4.562-13.1c1.334-2.964,2.94-5.8,4.2-8.8-.019-.049-.035-.1-.054-.147-.035-.1-.07-.193-.108-.291-4.283-11.614-9.627-25.25-10.054-26.172-.111-.242-.22-.484-.32-.732-.044-.1-.084-.2-.122-.3a14.33,14.33,0,0,1-.886-3.422,36.017,36.017,0,0,1-.146-5.037q.048-2.853.094-5.709a5.693,5.693,0,0,1,.236-2.113,2.474,2.474,0,0,1,.849-1.063c10.521-7.324,16.294-10.558,26.431-11.581,5.157-.522,16.009,4.541,26.437,12.123a2.536,2.536,0,0,1,.831,1.078,5.744,5.744,0,0,1,.2,2.116q0,2.854,0,5.71a36,36,0,0,1-.227,5.034,13.732,13.732,0,0,1-.68,2.708c-.031.1-.068.195-.107.289-.181.489-.389.963-.614,1.429-.686,1.414-1.49,2.721-2.219,4.092" transform="translate(-722.141 -61.723)" fill="#f7e9e1"/>
      <path id="Trazado_772294" data-name="Trazado 772294" d="M1028.912,107.493,1028,218.026l-.277,0,.913-110.561c.091.012.182.022.276.031" transform="translate(-855.17 -90.565)" fill="#e37d68"/>
      <path id="Trazado_772295" data-name="Trazado 772295" d="M975.457,430.827c-10.507.343-21.026.418-31.52-.126-.035-.1-.07-.193-.108-.291.906.048,1.809.094,2.715.13,9.586.407,19.177.32,28.764.007.044.078.093.173.15.28" transform="translate(-785.361 -362.732)" fill="#4f62a1"/>
      <path id="Trazado_772296" data-name="Trazado 772296" d="M926.645,692.352q-2.695.135-5.392.253c-16.111.717-32.279,1.035-48.361-.319.006-.095.018-.189.027-.284,3.52.3,7.044.513,10.571.665,14.381.607,28.769.1,43.139-.6.008.095.012.19.017.284" transform="translate(-726.334 -583.191)" fill="#4f62a1"/>
      <path id="Trazado_772297" data-name="Trazado 772297" d="M934.455,256.438c-.031.1-.068.195-.107.289q-3.309.168-6.623.317c-15.417.683-30.886,1-46.285-.154-.043-.1-.084-.2-.122-.3q4.32.331,8.644.51c14.831.628,29.673.069,44.493-.665" transform="translate(-733.346 -216.116)" fill="#4f62a1"/>
      <path id="Trazado_772298" data-name="Trazado 772298" d="M1003.167,77.823c-.251.3-.513.6-.789.877a12.4,12.4,0,0,1-5.606,3.3,11.744,11.744,0,0,1-1.621.316,12.455,12.455,0,0,1-5.182-.505,16.764,16.764,0,0,1-1.711-.618,7.955,7.955,0,0,1-3.318-2.42,1.4,1.4,0,0,1-.1-.127c.04-.109.076-.214.11-.323.085.124.175.243.268.358a8.677,8.677,0,0,0,3.811,2.516,14.028,14.028,0,0,0,2.188.648,11.689,11.689,0,0,0,10.868-3.255,12.483,12.483,0,0,0,.931-1.03c.046.089.1.176.144.265" transform="translate(-819.491 -65.363)" fill="#4f62a1"/>
      <path id="Trazado_772299" data-name="Trazado 772299" d="M1011.145,3.451c.031,1.967-3.042,3.615-6.864,3.679s-6.944-1.478-6.975-3.445,3.042-3.615,6.864-3.679,6.944,1.478,6.975,3.445" transform="translate(-829.859 -0.004)" fill="#362020"/>
      <path id="Trazado_772300" data-name="Trazado 772300" d="M845.6,136.8c-.044-10.244-.108-20.588-2.116-30.661a76.252,76.252,0,0,0-4.515-14.568c-1.683-4.018-3.611-7.913-5.576-11.79q-3.058,1.821-6.119,3.638l-3.408,2.029q-.88.525-1.761,1.048c-.257.152-.515.3-.77.46-.327.192-.407.262-.391.647a13.208,13.208,0,0,0,.4,1.9q.17.838.332,1.676c.237,1.243.458,2.492.646,3.743a49.779,49.779,0,0,1,.61,10.75c-.005.1-.013.208-.021.313-.077,1.024-.2,2.045-.378,3.061a26.735,26.735,0,0,1-.837,3.476c-.368,1.176-.911,2.307-1.184,3.515a7.581,7.581,0,0,0,.417,4.013c.409,1.275.844,2.537,1.269,3.8.09.267.18.535.273.8.036.1.072.206.108.31.721,2.069,1.488,4.146,2.008,6.272a10.306,10.306,0,0,1-.525,6.676c-.94,2.256-2.1,4.422-3.125,6.638s-2.005,4.422-2.958,6.654c-1.964,4.609-3.779,9.287-5.408,14.035a157.2,157.2,0,0,0-7.051,28.584,125.313,125.313,0,0,0-1.251,14.827c-.01.393-.134.751.26.909a4.516,4.516,0,0,0,.873.144c.579.094,1.164.184,1.745.273q2.042.3,4.093.543,3.823.445,7.666.666,3.78.213,7.563.209,1.892,0,3.784-.059a5.743,5.743,0,0,0,1.135-.04c.335-.083.286-.275.319-.6q.093-.894.2-1.783a114.751,114.751,0,0,1,2.724-13.963c2.378-9.408,5.534-18.583,7.851-28.009a106.863,106.863,0,0,0,2.631-14.509,145.407,145.407,0,0,0,.489-15.64" transform="translate(-669.209 -67.235)" fill="#fcbd58"/>
      <path id="Trazado_772301" data-name="Trazado 772301" d="M920.432,251.617q-2,3.4-4.088,6.753-1.687,2.711-3.429,5.384c-.036-.1-.072-.208-.108-.31q3.622-5.574,7.014-11.306a8.992,8.992,0,0,0,.517-.877c.165-.377.16-.064.026-.735s-.013-.385-.309-.668a14.557,14.557,0,0,0-1.454-1.085l-3.012-2.251-2.343-1.748c.008-.1.016-.208.021-.313q1.9,1.419,3.8,2.839c1.073.8,2.152,1.593,3.218,2.4.252.192.559.4.615.74.069.417-.281.85-.471,1.174" transform="translate(-759.548 -206.021)" fill="#c25a3e"/>
      <path id="Trazado_772302" data-name="Trazado 772302" d="M926.516,351.926c-.106-6.2-.4-12.4-.616-18.591a.129.129,0,1,0-.257,0c.191,5.446.414,10.893.565,16.341a92.135,92.135,0,0,1-.7,16.251c-1.469,9.788-4.938,19.069-7.763,28.485a104.37,104.37,0,0,0-3.723,16.237c-.022.168.226.241.248.071,1.313-9.907,4.746-19.292,7.639-28.777a118.47,118.47,0,0,0,3.581-14.3,83.472,83.472,0,0,0,1.024-15.715" transform="translate(-760.559 -280.813)" fill="#c25a3e"/>
      <path id="Trazado_772303" data-name="Trazado 772303" d="M1331.481,271.952a11.938,11.938,0,0,0-.433-3.954,3.428,3.428,0,0,0-1.093-1.321,7.609,7.609,0,0,1-1.53-1.575,11.3,11.3,0,0,1-1.494-3.624c-.732-2.856-1.245-5.734-2.177-8.538a53.61,53.61,0,0,0-3.541-8.268q-1.2-2.257-2.613-4.383c-.965-1.452-2.056-2.824-2.886-4.367a25.315,25.315,0,0,1-1.835-5.246l-1.583-5.649c.216-.266.439-.528.672-.783.114-.125-.068-.314-.182-.189-.23.252-.449.509-.662.77a.123.123,0,0,0-.109.137c-5.468,6.818-5.494,16.748-4.362,25.117a66.868,66.868,0,0,0,1.659,8.284c.711,2.662,1.659,5.226,2.549,7.825a19.441,19.441,0,0,1,1.405,8.019c-.26,2.778-1.77,5.058-3.083,7.4a30.6,30.6,0,0,0-4.157,16.516.13.13,0,0,0,.22.095,29.832,29.832,0,0,1,7.43-4.286,32.5,32.5,0,0,0,7.243-4.281,54.126,54.126,0,0,0,6.226-6.3,28.764,28.764,0,0,0,2.672-3.293,10.3,10.3,0,0,0,1.455-3.88,20.91,20.91,0,0,0,.209-4.235" transform="translate(-1086.712 -188.79)" fill="#8c453b"/>
      <path id="Trazado_772304" data-name="Trazado 772304" d="M1411.308,561.659c-.4-4.044-2.3-33.382-2.7-37.426-.779-7.843-.353-17.535-7.968-25.019-8.209-8.067-21.926-12.908-23.421-12.774a2.537,2.537,0,0,0-1.412.659.117.117,0,0,0-.177,0c-.285.305-.567.613-.851.918a1,1,0,0,1-1.117.163.133.133,0,0,0-.129.232,1.064,1.064,0,0,0,.769.12c-4.15,4.461-20.884,20.94-21.295,22.245-.422,1.341,24.872,55.068,27.951,60.972l-.1.009c-.164.015-.161.283,0,.267l.235-.02c.329.628.658,1.255,1,1.878.082.15.3.015.222-.135-.318-.586-.629-1.175-.938-1.766a119.446,119.446,0,0,1,30.216,1.128.13.13,0,0,0,.157-.1c.448-3.783-.06-7.588-.433-11.354" transform="translate(-1125.831 -409.949)" fill="#e37d68"/>
      <path id="Trazado_772305" data-name="Trazado 772305" d="M1432.406,383.713c.045.652-7.493,7.446-9.291,8.5-2-5.238-10.8-23.954-11.176-24.745,1.162-1.2,7.556-9.5,8.09-10.215,1-1.34,12.345,25.984,12.377,26.454" transform="translate(-1174.876 -301.043)" fill="#e37d68"/>
      <path id="Trazado_772306" data-name="Trazado 772306" d="M1083.86,638.781c-1.015-.421-2.186-.949-3.55-1.661-6.95,8.822-12.613,27.6-19.943,35.238-2.217,2.31-31,23.74-35.7,27.642,1.6.7,3.06,1.92,4.164,2.351,1.659-.665,31.3-13.238,34.115-14.93a47.51,47.51,0,0,0,7.415-5.989c3.8-3.477,13.426-20.736,20.422-29.051-.392-.347-4.453-8.892-6.918-13.6" transform="translate(-852.623 -536.939)" fill="#e37d68"/>
      <path id="Trazado_772307" data-name="Trazado 772307" d="M1202.83,773.9c-6.63,10.917-14.708,24.467-15.48,25.167-1.28,1.16-37.1,28.463-42.885,34.456a.139.139,0,0,0,0,.189c1.917,1.83,2.6,1.543,3.852,3.913a.128.128,0,0,0,.2.027c7.435-6.27,44.617-24.937,48.008-28.294,2.339-2.316,15.778-17.919,25.548-29.191a198.017,198.017,0,0,1-19.246-6.267" transform="translate(-952.28 -652.215)" fill="#e37d68"/>
      <path id="Trazado_772308" data-name="Trazado 772308" d="M1449.091,492.376l-2.753-4.1a.131.131,0,0,0-.176-.048l-7.6,3.528-1.841.855c-.356.165-1,.309-1.235.665a3.912,3.912,0,0,0-.235,1.552l-.158,1.426a.135.135,0,0,0-.028.256q-.03.271-.06.541c-.019.171.239.169.258,0l.061-.545a30.582,30.582,0,0,0,13.719-3.95.138.138,0,0,0,.046-.183" transform="translate(-1194.055 -411.447)" fill="#96c2d9"/>
      <path id="Trazado_772309" data-name="Trazado 772309" d="M1179.321,555.447a49.307,49.307,0,0,0-1.313-6.435c-.541-2.013-1.177-3.994-1.843-5.964-1.148-3.4-2.4-6.758-3.447-10.191a94.894,94.894,0,0,1-2.245-9.5c-.5-2.521-.968-5.05-1.532-7.56-.057-.249-.116-.655-.209-1.192a23.671,23.671,0,0,0-1.048-4.045c-.054-.152-.111-.307-.17-.462a22.9,22.9,0,0,0-4.209-6.927.062.062,0,0,0-.018-.019,30.945,30.945,0,0,0-10.68-7.627c-1.995-.909-2.8-1.566-4.827-2.406a37.878,37.878,0,0,0-7.347-1.928c-1.98-.318-6.07,1.7-7.679,3.021-.783.647-5.514,3.681-10.142,7.111-1.89,1.4-3.763,2.871-5.342,4.272-.844.748-1.6,1.476-2.234,2.163-.4.43-.785.9-1.164,1.39-.528.682-1.037,1.422-1.532,2.2a62.823,62.823,0,0,0-3.323,6.066c-1.743,3.564-3.315,7.245-4.806,10.159-2.7,5.291-4.924,11.159-9.311,15.249-2.324,2.166-5.164,3.561-7.789,5.269a21.221,21.221,0,0,0-3.586,2.834,26.435,26.435,0,0,0-2.911,3.638c-.494.717-.973,1.446-1.46,2.171-.589.879-1.189,1.754-1.833,2.6a46.135,46.135,0,0,1-3.661,4.2q-.938.958-1.912,1.871c-.062.062-.124.12-.188.176-2.054,1.922-4.211,3.729-6.366,5.529a.146.146,0,0,0-.021.163,31.26,31.26,0,0,0,2,3.379c.1.147.2.3.3.449q.587,1.2,1.174,2.4c.376.765.811,1.47,1.73,1.454a8.215,8.215,0,0,0,2.9-1.139,33.784,33.784,0,0,1,3.331-1.267,67.236,67.236,0,0,1,6.556-1.7c2.4-.521,4.8-.995,7.182-1.6q1.309-.329,2.577-.738a46.518,46.518,0,0,0,10.474-4.922,122.207,122.207,0,0,0,12.109-8.78c.5-.4.989-.81,1.483-1.216a65.679,65.679,0,0,1-6.023,9.338,18.188,18.188,0,0,1-5.063,4.834c-1.024.572-2.124.979-3.166,1.508a24.929,24.929,0,0,0-2.693,1.609c-3.516,2.4-6.464,5.558-9.494,8.558-.847.839-1.712,1.647-2.595,2.433-.064.059-.129.115-.193.171-2.08,1.839-4.247,3.545-6.469,5.194,1.848,2.272,3.586,4.652,5.285,7.061l.126-.075a1.507,1.507,0,0,0,1.845.762,35.186,35.186,0,0,0,4.005-1.326c1.421-.486,2.842-.976,4.268-1.441,1.876-.609,3.766-1.184,5.676-1.668.947-.238,1.9-.454,2.857-.642a51.663,51.663,0,0,1,5.993-.738c1.006-.078,2.016-.147,3.024-.23a25.131,25.131,0,0,0,7.985-1.714,29.549,29.549,0,0,0,6.279-3.863c2.067-1.6,4.026-3.331,6.072-4.954,1.282-1.019,2.61-1.957,3.975-2.837.023.137.044.273.067.406a.128.128,0,0,0,.124.1c1.732.032,3.465.035,5.2-.024a3.2,3.2,0,0,0-.2,1.035.129.129,0,0,0,.257,0,2.83,2.83,0,0,1,.224-1.048c1.542-.059,3.084-.166,4.618-.353a41.829,41.829,0,0,0,4.7-.829l.047-.013c1.658.356,3.321.684,5,.941,2.767.422,5.545.74,8.325,1.048,1.081.12,2.3.425,3.236-.315a18.448,18.448,0,0,0,2.379-2.647,34.155,34.155,0,0,0,4.438-6.309,22.761,22.761,0,0,0,2.26-7.261,32.959,32.959,0,0,0-.044-8.862" transform="translate(-886.323 -413.928)" fill="#96c2d9"/>
      <path id="Trazado_772310" data-name="Trazado 772310" d="M1533.618,1027.9c-.039-.086-.075-.168-.108-.251-.662-1.551-1.2-2.727-1.589-3.43q-1.142-2.085-2.431-4.128c-6.121,1.409-12.366,2.039-18.576,2.979-4.105.621-8.206,1.3-12.336,1.718-2.036.208-4.089.376-6.135.386-.144,0-.289,0-.435-.012-.064,1.051-.133,2.209-.2,3.455l-.016.265c-.772,13.335-1.9,36.243-1.936,43.087-.031,5.042.26,11.423.347,16.482a.175.175,0,0,0,.178.168c5.985.021,15.023-.051,24.444-.139.09,0,.183,0,.273,0,17.342-.163,35.889-.377,39.009-.171a.112.112,0,0,0,.124-.131c-.6-6.451-14.879-46.737-20.609-60.275" transform="translate(-1239.706 -859.686)" fill="#cfc5c0"/>
      <path id="Trazado_772311" data-name="Trazado 772311" d="M1516.3,544.914c-1.789-.939-3.951-2.3-4.832-4.2-.4.061-.788.163-1.128.241a13.7,13.7,0,0,0-2.51.845,17.632,17.632,0,0,0-4.222,2.727,32.339,32.339,0,0,0-6.489,8,54.95,54.95,0,0,0-7.354,19.949,14.35,14.35,0,0,0-.152,5.443c.389,1.6,1.727,3.243,3.467,3.072,1.7-.168,2.564-2.064,2.693-3.639.144-1.767-.42-3.5-.458-5.267a14.375,14.375,0,0,1,1.073-5.117,39.2,39.2,0,0,1,1.665-3.922,39.841,39.841,0,0,1,4.747-7.443,38.324,38.324,0,0,1,13.517-10.672s.008,0,.01-.005a.137.137,0,0,0-.028-.013" transform="translate(-1239.334 -455.689)" fill="#362020"/>
      <path id="Trazado_772312" data-name="Trazado 772312" d="M1608.427,615.3c-.057-.249-.116-.655-.209-1.192-.5-.623-1.019-1.251-1.47-1.917.17-.7.314-1.412.422-2.128q.031-.168.054-.337c.023-.147-.165-.219-.224-.126a.1.1,0,0,0-.023.053c-.108.754-.252,1.5-.425,2.24a7.638,7.638,0,0,1-1.089-2.572c-.036-.169-.283-.1-.25.072a7.762,7.762,0,0,0,1.261,2.834,25.891,25.891,0,0,1-5.743,11.03c-2.7,3.029-6.857,5.8-7.372,10.255a3.221,3.221,0,0,0,.667,2.633,2.671,2.671,0,0,0,2.314.693,4.731,4.731,0,0,0,2.525-1.4c1-.949,1.882-2.05,2.8-3.082l5.83-6.547a26.077,26.077,0,0,0,2.458-2.954c-.5-2.521-.968-5.05-1.531-7.56" transform="translate(-1325.808 -513.435)" fill="#362020"/>
      <path id="Trazado_772313" data-name="Trazado 772313" d="M935.413,1021.654a7.12,7.12,0,0,1-4.386-1.878.16.16,0,0,0-.218-.142c-3.543,1.562-7.339,2.264-11.039,3.3-2.344.5-4.718,1.005-7.01,1.717-.6.187-1.306.511-1.428,1.234a.892.892,0,0,0,0,.312c-.406.135-.81.276-1.209.435-.549.219-1.429.667-1.127,1.452a.92.92,0,0,0,.315.4c-.346.112-.688.234-1.025.378a.888.888,0,0,0-.637.881,1.4,1.4,0,0,0,.938,1.141,3.729,3.729,0,0,0,.7.23.8.8,0,0,0-.052.255c-.031.94,1.1.952,1.707.879,1.405-.169,2.807-.4,4.207-.607,2.388-.355,8.106-1.02,8.489-1.05l1.437-.114a24.25,24.25,0,0,0-3.166,3.047c-.306.361-.991,1.253-.658,1.8.357.582,1.438-.048,1.8-.224l3.366-1.629a8.408,8.408,0,0,0,2.657-1.649c2.98-3.2,5.19-8.166,6.466-9.941.07-.1-.027-.219-.124-.225" transform="translate(-755.253 -859.294)" fill="#e37d68"/>
      <path id="Trazado_772314" data-name="Trazado 772314" d="M928.276,1072.726a4.661,4.661,0,0,0-2.4.491,26.97,26.97,0,0,1-2.9.7,26.2,26.2,0,0,0-5.562,1.492c-.152.067-.021.3.13.231a24.691,24.691,0,0,1,5.275-1.421c.827-.162,1.655-.329,2.469-.552.9-.246,1.983-.89,2.923-.684.162.035.231-.222.068-.258" transform="translate(-763.322 -904.012)" fill="#c25a3e"/>
      <path id="Trazado_772315" data-name="Trazado 772315" d="M928.075,1058.979a3.576,3.576,0,0,0-2.123.462,17.518,17.518,0,0,1-2.5.751,30.064,30.064,0,0,0-5.152,1.414c-.151.065-.085.324.068.258a26.058,26.058,0,0,1,4.708-1.313,22.649,22.649,0,0,0,2.308-.617c.83-.28,1.729-.892,2.627-.7.162.035.231-.223.068-.258" transform="translate(-764.044 -892.427)" fill="#c25a3e"/>
      <path id="Trazado_772316" data-name="Trazado 772316" d="M938.883,1048.741c-.913-.5-2.042.062-2.949.326l-4.077,1.188c-.159.046-.092.3.068.258l3.357-.979q.839-.245,1.679-.489a2.293,2.293,0,0,1,1.791-.074c.147.08.277-.151.13-.231" transform="translate(-775.324 -883.669)" fill="#c25a3e"/>
      <path id="Trazado_772317" data-name="Trazado 772317" d="M1033.57,1145.106a9.239,9.239,0,0,1-4.015-2.133c.074-.066.151-.126.224-.195.122-.116-.06-.305-.182-.189-.079.075-.158.146-.239.216a.133.133,0,0,0-.188.158c-.2.16-.395.306-.6.441a25.564,25.564,0,0,1-6.768,1.03c-2.073.03-4.3-.619-6.292.157-2.086.812-4.105,1.913-6.127,2.884-.459.221-1.083.534-.8,1.176.3.675,1.073.582,1.649.474a41.235,41.235,0,0,1,4.852-.7c-2.008,1.495-7.313,4.64-8.861,5.644-.5.322-1.531.9-1.575,1.6-.033.519.41.783.848.827a6.537,6.537,0,0,0-.957.994,1.356,1.356,0,0,0-.342,1.26c.256.657.967.656,1.686.457a1.08,1.08,0,0,0-.266.965,1.324,1.324,0,0,0,1.532.839,6.858,6.858,0,0,0,2.167-.745c.73-.271,1.45-.58,2.162-.9a43.134,43.134,0,0,0,5.981-3.262c.166.246.328.495.492.743l-2.584,1.934c-.909.68-1.893,1.314-2.747,2.067-.431.38-.867,1.123-.356,1.648s1.549-.036,2.071-.276c1.982-.911,11.087-7.355,13.476-9.521a28.828,28.828,0,0,0,5.836-7.409.136.136,0,0,0-.077-.2" transform="translate(-835.548 -962.896)" fill="#e37d68"/>
      <path id="Trazado_772318" data-name="Trazado 772318" d="M1028.053,1184.3a3.763,3.763,0,0,0-2.426,1.252,14.354,14.354,0,0,1-2.863,2.148,27.6,27.6,0,0,0-5.478,3.516.131.131,0,0,0,.182.189,25.7,25.7,0,0,1,5.248-3.371,15.684,15.684,0,0,0,2.323-1.576c.964-.812,1.677-1.788,3.014-1.891.164-.013.166-.28,0-.267" transform="translate(-846.451 -998.08)" fill="#c25a3e"/>
      <path id="Trazado_772319" data-name="Trazado 772319" d="M1035.977,1207.019a3.177,3.177,0,0,0-2.1.841q-1.2.833-2.43,1.612-2.465,1.555-5.058,2.874c-.149.076-.018.307.13.231q2.372-1.212,4.646-2.616,1.135-.7,2.241-1.455c.767-.521,1.593-1.312,2.568-1.219.165.016.164-.252,0-.267" transform="translate(-854.008 -1017.218)" fill="#c25a3e"/>
      <path id="Trazado_772320" data-name="Trazado 772320" d="M1543.223,1068.4a196.479,196.479,0,0,1-41.83.981q.008-.132.015-.265,3.722.313,7.455.479a196.715,196.715,0,0,0,28.007-.735q3.127-.3,6.245-.711c.033.083.07.166.108.251" transform="translate(-1249.311 -900.195)" fill="#362020"/>
      <path id="Trazado_772321" data-name="Trazado 772321" d="M1608.485,1334.847c-.09,0-.183,0-.273,0q-3.591-10.96-6.124-22.253c-.036-.168.211-.238.25-.072q.973,4.335,2.1,8.627,1.823,6.913,4.049,13.7" transform="translate(-1333.097 -1106.061)" fill="#362020"/>
      <path id="Trazado_772322" data-name="Trazado 772322" d="M1685.49,1091.541a21.917,21.917,0,0,1-7.033.1,7.521,7.521,0,0,1-5.279-2.912,34.479,34.479,0,0,1-3.126-5.5,49.813,49.813,0,0,1-2.469-6.2.129.129,0,0,0-.248.071,50.253,50.253,0,0,0,2.6,6.48,28.868,28.868,0,0,0,3.392,5.763,7.881,7.881,0,0,0,5.276,2.585,22.379,22.379,0,0,0,6.957-.128c.163-.028.094-.286-.068-.258" transform="translate(-1387.385 -907.596)" fill="#362020"/>
      <path id="Trazado_772323" data-name="Trazado 772323" d="M1429.819,619.694c-1.692,4.774-3.328,9.575-5.09,14.323a38.481,38.481,0,0,1-3,6.434c-1.089,1.818-2.309,3.547-3.428,5.344a24.514,24.514,0,0,0-2.95,6.3.129.129,0,0,0,.248.071c1.174-4.194,3.9-7.582,6.125-11.206,2.451-4,3.853-8.526,5.421-12.948l2.924-8.247c.057-.162-.191-.231-.248-.071" transform="translate(-1177.71 -522.176)" fill="#4f62a1"/>
      <path id="Trazado_772324" data-name="Trazado 772324" d="M1552.3,846.707a114.931,114.931,0,0,1-19.814,21.406q-3.2,2.669-6.574,5.087c-.135.1-.007.329.13.231a114.291,114.291,0,0,0,21.467-20.059q2.619-3.17,5.013-6.53c.1-.138-.125-.272-.222-.135" transform="translate(-1269.665 -713.521)" fill="#4f62a1"/>
      <path id="Trazado_772325" data-name="Trazado 772325" d="M1379.558,675.782c.04-.167-.208-.238-.248-.071l-3.073,12.818c-.448,1.87-1.053,3.725-.288,5.593.781,1.906,1.851,3.723,2.78,5.556.077.152.3.017.223-.135-.922-1.818-1.98-3.619-2.758-5.509-.832-2.024-.007-4.188.476-6.2l2.888-12.049" transform="translate(-1144.625 -569.382)" fill="#4f62a1"/>
      <path id="Trazado_772326" data-name="Trazado 772326" d="M1352.321,238.482a22.031,22.031,0,0,1-7.035,8.651,60.545,60.545,0,0,1-10.168,6.157c-1.642.821-3.722,1.51-5.218.021-1.364-1.358-1.725-3.673-2.188-5.5-.008-.04-.018-.08-.028-.118q-.467-1.8-.885-3.612-1.359-5.827-2.258-11.755c-.739-4.876-1.568-10.023-.579-14.926.09-.441.2-.877.322-1.313a9.724,9.724,0,0,0,1.05.056,10.565,10.565,0,0,0,8.608-4.914c2.4.179,4.724-.12,7.112-.069a3.424,3.424,0,0,0,2.911-1.831,17.458,17.458,0,0,1,4.1,4.1,31.521,31.521,0,0,1,4.968,11.707c.968,4.408,1.05,9.135-.716,13.346" transform="translate(-1101.293 -176.419)" fill="#e37d68"/>
      <path id="Trazado_772327" data-name="Trazado 772327" d="M1346.684,350.178c.109,1.25-.19,2.3-.668,2.344s-.953-.932-1.062-2.182.19-2.3.668-2.345.953.932,1.062,2.182" transform="translate(-1119.119 -293.276)" fill="#362020"/>
      <path id="Trazado_772328" data-name="Trazado 772328" d="M1393.235,270.3a17.1,17.1,0,0,0-1.558-3.389c-1.394-2.375-3.2-4.443-4.76-6.7a23.525,23.525,0,0,1-3.28-6.909c-1.341-4.628-1.624-9.5-2.908-14.142a21.165,21.165,0,0,0-2.787-6.323,20.619,20.619,0,0,0-5.156-5.053,79.168,79.168,0,0,0-7.438-4.546l-.03-.017a8.468,8.468,0,0,1-4.239-6.3c-.463-3.493-.491-7.861-.688-11.884-.155-3.161-1.239-8.259-3.348-10.707-2.83-3.284-8.15-6.314-15.988-4.84a39.422,39.422,0,0,0-10.279,3.608c-2.935,1.421-5.826,4.246-5.6,7.794,0,.067.136.092.289.089a.118.118,0,0,0,.042,0,15.764,15.764,0,0,1,6.069.206c2.192.658,3.452,2.344,4.377,4.326.791,1.695,1.427,3.523,2.769,4.888a5.008,5.008,0,0,0,4.3,1.63c2.156-.011,2.626-.231,3.783,1.866,1.068,1.937,1.119,4.394,1.248,6.539.247,4.13.094,8.608,2.156,12.358a7.768,7.768,0,0,0,4.106,3.709,30.618,30.618,0,0,0,3.84.809c4.083,1.335,9.745,1.845,15.519,7.33,2.1,1.993,4.177,3.795,5.662,6.339a48.936,48.936,0,0,1,3.525,7.945,84.515,84.515,0,0,1,2.6,8.507,85.647,85.647,0,0,1,1.886,10.189.131.131,0,0,0,.193.115l4.02-2.063c.836-.429,2.042-.764,2.2-1.869a8.373,8.373,0,0,0-.537-3.52" transform="translate(-1102.672 -159.38)" fill="#8c453b"/>
      <path id="Trazado_772329" data-name="Trazado 772329" d="M1323.913,362.636a11.3,11.3,0,0,0-1.913-5.214c-.25,0-.5-.016-.757-.042l-.718,2.308c-.371,1.191-.818,2.384-1.1,3.6a2.306,2.306,0,0,0,.272,2.087c.6.679,1.76.68,2.573.791.5.068,1.722.523,1.91-.232a4.645,4.645,0,0,0-.063-1.328c-.052-.658-.112-1.316-.2-1.97" transform="translate(-1097.796 -301.186)" fill="#e37d68"/>
      <path id="Trazado_772330" data-name="Trazado 772330" d="M1334.162,316.372a1.512,1.512,0,0,0-1.3-1.3,8.019,8.019,0,0,0-3.308-.014.12.12,0,0,0-.059.032,3.377,3.377,0,0,0-2.286,1.391,1.226,1.226,0,0,0-.024,1.589c.637.579,1.9.19,2.6.033a14.877,14.877,0,0,1,1.707-.295,10.129,10.129,0,0,0,1.589-.149,1.33,1.33,0,0,0,1.082-1.29" transform="translate(-1104.113 -265.381)" fill="#8c453b"/>
      <path id="Trazado_772331" data-name="Trazado 772331" d="M1346.958,423.379a8.588,8.588,0,0,1-1,.278,8.277,8.277,0,0,0-1.174.31,13.327,13.327,0,0,1-1.681.5c.144.615.289,1.23.44,1.845.144.588.294,1.179.445,1.767.01.037.021.078.029.118,1.853-.74,2.79-2.708,3.063-4.652.012-.088-.036-.2-.124-.168" transform="translate(-1117.599 -356.802)" fill="#c25a3e"/>
      <path id="Trazado_772332" data-name="Trazado 772332" d="M1344.785,425.484a13.357,13.357,0,0,1-1.681.5c.144.615.288,1.23.44,1.845a4.619,4.619,0,0,0,1.526-.767,2.1,2.1,0,0,0,.888-1.89,8.277,8.277,0,0,0-1.174.31" transform="translate(-1117.599 -358.319)" fill="#f7e9e1"/>
      <path id="Trazado_772333" data-name="Trazado 772333" d="M1424.023,329.307c-1.669-.889-3.282.5-4.324,1.752-.39.238-.262.8-.023,1.175a28.4,28.4,0,0,1,1.754,3.005c.312.656.778,1.165,1.541.976.9-.221,1.42-1.28,1.761-2.074.644-1.5,1.018-3.914-.708-4.834" transform="translate(-1181.126 -277.289)" fill="#e37d68"/>
      <path id="Trazado_772334" data-name="Trazado 772334" d="M1427.661,339.473a1.907,1.907,0,0,0-1.055,1.81c.036.589.373,1.105.245,1.712a2.1,2.1,0,0,1-1.31,1.442c-.152.063-.086.321.068.258a2.357,2.357,0,0,0,1.5-1.716,3.174,3.174,0,0,0-.177-1.3,1.676,1.676,0,0,1,.854-1.973c.149-.076.018-.307-.13-.231" transform="translate(-1186.123 -286.082)" fill="#c25a3e"/>
      <path id="Trazado_772335" data-name="Trazado 772335" d="M1505.4,401.726a39.331,39.331,0,0,1-10.649-3.679,15.75,15.75,0,0,1-4.323-3.575,18.315,18.315,0,0,1-3.009-5.517,48.638,48.638,0,0,1-1.755-6.733c-.034-.168-.283-.1-.248.071.837,4.1,1.835,8.365,4.344,11.747a18.721,18.721,0,0,0,9.165,6.163,64.944,64.944,0,0,0,6.405,1.781c.161.039.23-.219.068-.258" transform="translate(-1236.012 -322.04)" fill="#362020"/>
      <path id="Trazado_772336" data-name="Trazado 772336" d="M1410.053,255.273c-.126-.111-.309.078-.182.189a14.168,14.168,0,0,1,4.589,8.337c.028.169.276.1.248-.071a14.4,14.4,0,0,0-4.655-8.455" transform="translate(-1173.12 -215.106)" fill="#362020"/>
      <path id="Trazado_772337" data-name="Trazado 772337" d="M1107.93,969.136q1.533,1.981,3.087,3.943c-.09.027-.18.051-.27.075q-3.78-4.784-7.455-9.659c.065-.056.126-.115.188-.177q2.208,2.923,4.451,5.817" transform="translate(-918.05 -811.845)" fill="#4f62a1"/>
      <path id="Trazado_772338" data-name="Trazado 772338" d="M1206.927,1101.764l-.255.1q-3.483-4.038-6.883-8.143c.064-.056.129-.112.193-.171q3.432,4.139,6.945,8.21" transform="translate(-998.346 -921.602)" fill="#4f62a1"/>
      <path id="Trazado_772339" data-name="Trazado 772339" d="M1195.609,1148.736a.67.67,0,0,0,0,1.337.67.67,0,0,0,0-1.337" transform="translate(-994.35 -968.107)" fill="#362020"/>
      <path id="Trazado_772340" data-name="Trazado 772340" d="M1094.824,1016.685a.668.668,0,0,0-.644.668v.089a.644.644,0,1,0,1.287,0v-.089a.664.664,0,0,0-.643-.668" transform="translate(-910.469 -856.82)" fill="#362020"/>
      <path id="Trazado_772341" data-name="Trazado 772341" d="M1195.453,859.065a22.7,22.7,0,0,0-7.015,4.473c-2.427,2.123-4.7,4.446-7.02,6.694-2.518,2.441-5.192,4.807-6.9,7.961a19.155,19.155,0,0,0-2.108,6.427c2.4-.521,4.8-.995,7.182-1.6q1.309-.329,2.577-.738c.013-.08.026-.163.041-.243a12.405,12.405,0,0,1,.636-2.166c2.237-5.67,7.583-8.908,11.965-12.586a31.765,31.765,0,0,0,3.269-3.109,5.936,5.936,0,0,0,1.81-3.179c.247-2.617-2.821-2.526-4.433-1.938" transform="translate(-975.562 -723.698)" fill="#362020"/>
      <path id="Trazado_772342" data-name="Trazado 772342" d="M1179.873,664.082c-.013-.944-.049-1.885-.09-2.826a4.81,4.81,0,0,0-.466-2.318,1.893,1.893,0,0,0-.934-.794c-1.743,3.564-3.315,7.245-4.806,10.159-2.7,5.291-4.924,11.159-9.311,15.249-2.324,2.166-5.164,3.561-7.789,5.269a21.235,21.235,0,0,0-3.586,2.834,26.434,26.434,0,0,0-2.911,3.639c-.494.716-.973,1.446-1.46,2.171a1.986,1.986,0,0,0,.293.3c1.169.981,3.189.5,4.51.144,3.452-.933,6.384-3.318,8.816-5.943,2.783-3,5.115-6.443,8.088-9.261,2.713-2.572,6.029-4.55,7.8-8.017,1.652-3.235,1.9-7.012,1.843-10.606" transform="translate(-955.685 -554.657)" fill="#362020"/>
      <path id="Trazado_772343" data-name="Trazado 772343" d="M1313.54,851.144c-1.612-.762-3.243.639-4.247,1.818a22.882,22.882,0,0,0-3,4.66c-1.751,3.515-2.909,7.309-4.675,10.817-1.949,3.871-4.85,6.825-7.939,9.723-2.893,2.714-5.872,5.5-7.73,9.124a14.2,14.2,0,0,0-1.089,10.469c.947-.238,1.9-.455,2.857-.642a51.676,51.676,0,0,1,5.993-.738c.018-.476.051-.954.1-1.43a33.319,33.319,0,0,1,4.211-12.541,90.728,90.728,0,0,1,7.756-11.292,84.654,84.654,0,0,0,7.6-10.83,12.886,12.886,0,0,0,1.768-5.563c.044-1.329-.34-2.97-1.614-3.574" transform="translate(-1068.684 -717.126)" fill="#362020"/>
      <path id="Trazado_772344" data-name="Trazado 772344" d="M1434.763,821.6c-.341-1.67-1.76-3.147-3.489-2.892a6.7,6.7,0,0,0-2.688,1.306,28.091,28.091,0,0,0-2.512,1.946c-3.469,3.013-5.855,6.855-8.159,10.841a64.175,64.175,0,0,1-3.564,5.693,39.5,39.5,0,0,1-4.974,5.376c-.656.62-1.3,1.248-1.93,1.9a28.664,28.664,0,0,0-6.91,10.2c-.5,1.251-1.484,3.453-.26,4.6,1.426,1.334,3.494-.7,4.508-1.653a36.391,36.391,0,0,0,4.145-4.854c1.355-1.828,2.648-3.707,4.093-5.461a48.782,48.782,0,0,1,5.157-5.22c3.7-3.323,7.527-6.542,10.931-10.2a28.369,28.369,0,0,0,4.013-5.313c1.032-1.827,2.082-4.09,1.638-6.264" transform="translate(-1164.684 -689.949)" fill="#362020"/>
      <path id="Trazado_772345" data-name="Trazado 772345" d="M1665.331,827.122c-.541-2.013-1.177-3.994-1.843-5.964a27.712,27.712,0,0,1-3.879,11.284c-2.752,4.251-6.652,7.82-8.364,12.731-.327.938-.793,2.243.034,3.05a2.67,2.67,0,0,0,2.471.393c2.432-.567,4.353-2.443,5.944-4.334a52.257,52.257,0,0,0,6.95-10.726,49.3,49.3,0,0,0-1.312-6.435" transform="translate(-1373.645 -692.038)" fill="#362020"/>
      <path id="Trazado_772346" data-name="Trazado 772346" d="M1389.343,563.467c-1.382-.126-2.716.428-4.108.126-2.579-.559-3.872-3.328-4.206-5.8a18.815,18.815,0,0,1-.152-1.981c-1.89,1.4-3.763,2.871-5.341,4.272a9.2,9.2,0,0,0,.5,3.179,8.356,8.356,0,0,0,3.367,4.243c2.909,1.823,6.317,1.417,9.154-.326a4.824,4.824,0,0,0,2.07-1.917c.461-1.064-.363-1.711-1.279-1.791" transform="translate(-1144.584 -468.412)" fill="#362020"/>
      <path id="Trazado_772347" data-name="Trazado 772347" d="M1455.422,512.369a83.531,83.531,0,0,1-13.391,3.949c-.162.033-.094.291.068.258a83.557,83.557,0,0,0,13.392-3.949c.154-.06.087-.318-.068-.258" transform="translate(-1199.839 -431.796)" fill="#4f62a1"/>
      <path id="Trazado_772348" data-name="Trazado 772348" d="M1431.106,356.582c-.207-.376-.809-.948-1.283-.678-.245.14-.367.52-.5.754l-.486.854a10.3,10.3,0,0,1-1.355,1.574c-.526.494-1.323,1.063-1.427,1.864-.09.7.375,1.02.985,1.022a3.459,3.459,0,0,0,2.331-1.09c.983-.95,2.551-2.814,1.735-4.3" transform="translate(-1186.613 -299.883)" fill="#f7e9e1"/>
    </g>
  </g>
</svg>
