<svg xmlns="http://www.w3.org/2000/svg" xmlns:xlink="http://www.w3.org/1999/xlink" width="333.035" height="240.757" viewBox="0 0 333.035 240.757">
  <defs>
    <clipPath id="clip-path">
      <rect id="Rectángulo_355805" data-name="Rectángulo 355805" width="333.035" height="240.757" fill="none"/>
    </clipPath>
  </defs>
  <g id="Grupo_1043027" data-name="Grupo 1043027" transform="translate(1263 -526)">
    <g id="Grupo_1043028" data-name="Grupo 1043028" transform="translate(-1263 526)">
      <g id="Grupo_1043027-2" data-name="Grupo 1043027" transform="translate(0 0)" clip-path="url(#clip-path)">
        <path id="Trazado_772484" data-name="Trazado 772484" d="M1130.549,12.456c40.866,6.589,80.032-1.218,122.6,2.364-.842,31.8-.008,61.824-1.189,98.211-1.4,43.179-4.341,93.221,2.039,136.209-40.016,7.019-83.857-.573-125.786-.859,4.816-71.336-2.479-167.6,2.337-235.924" transform="translate(-1037.17 -11.451)" fill="#f2efef" fill-rule="evenodd"/>
        <path id="Trazado_772485" data-name="Trazado 772485" d="M1355.3,360.784c-5.024-42.148-2.279-86.567-.911-128.7.966-29.773.441-59.524.99-89.278-34.932-1.725-69.661,3.274-104.552-.521-.858,16.158-1.078,32.395-1.1,48.551-.029,21.572.346,43.146.663,64.715.5,34.186,1.112,68.905-.71,103.125,11.056.33,22.1,1.039,33.139,1.745,23.738,1.518,48.644,3.272,72.482.367" transform="translate(-1148.837 -130.8)" fill="#d7314c" fill-rule="evenodd"/>
        <path id="Trazado_772486" data-name="Trazado 772486" d="M1149.787,33.209c37.674,6.075,73.892-.19,112.717,1.756,1.5,21.641.508,47.186.508,72.837,0,65.932-37.434,119.381-83.611,119.381a61.994,61.994,0,0,1-30.283-8.077c.592-62.085-3.089-132.57.67-185.9" transform="translate(-1055.427 -30.529)" fill="#fff" fill-rule="evenodd"/>
        <path id="Trazado_772487" data-name="Trazado 772487" d="M1354.816,234.927c-8.533,53-41.776,92.527-81.486,92.527a60.45,60.45,0,0,1-22.009-4.184c.3-22.609-.08-45.28-.409-67.721-.317-21.569-.692-43.143-.663-64.715.022-16.156.241-32.393,1.1-48.551,34.892,3.794,69.62-1.2,104.552.521-.549,29.754-.023,59.5-.99,89.278q-.046,1.421-.094,2.847" transform="translate(-1149.357 -130.801)" fill="#de4753" fill-rule="evenodd"/>
        <path id="Trazado_772488" data-name="Trazado 772488" d="M1684.375,245.323a.4.4,0,0,1,.481-.29.388.388,0,0,1,.3.466c-1.284,5.3-.422,8.788,1.579,11.238,2.015,2.467,5.207,3.922,8.538,5.121a.384.384,0,0,1,.235.5.4.4,0,0,1-.515.228c-3.444-1.239-6.753-2.755-8.887-5.367-2.146-2.628-3.081-6.327-1.733-11.893m-29.113,17.26a.4.4,0,0,1-.515-.228.383.383,0,0,1,.235-.5c3.332-1.2,6.524-2.655,8.539-5.121,2-2.45,2.863-5.938,1.579-11.238a.388.388,0,0,1,.3-.466.4.4,0,0,1,.481.29c1.348,5.567.414,9.266-1.733,11.894-2.133,2.612-5.443,4.127-8.887,5.367" transform="translate(-1521.193 -225.25)" fill="#fff" fill-rule="evenodd"/>
        <path id="Trazado_772489" data-name="Trazado 772489" d="M1569.516,1184.056a28.116,28.116,0,0,0,1.448,5.219,43.7,43.7,0,0,0,2.4,5.133c.43.8.782,1.439,1.132,2.074.915,1.66,1.829,3.318,2.643,5.037a43.78,43.78,0,0,1,1.841,4.5,40.521,40.521,0,0,1,1.3,4.673c.481,2.233.836,4.492,1.092,6.76s.413,4.54.5,6.816c.093,2.395,1.149,13.187,2.43,26.275,2.124,21.709,4.865,49.731,4.865,56.337a.4.4,0,0,1-.794.07,3.47,3.47,0,0,0-1.768-2.106,17.24,17.24,0,0,0-4.676-1.846,63.771,63.771,0,0,0-8.526-1.4c-4.217-.506-8.437-1.014-11.8-2.522-3.117-1.4-5.636-3.4-8.774-5.9-1.9-1.509-4.024-3.2-6.665-5.056-4.927-3.461-10.878-3.773-15.94-3.068a41.274,41.274,0,0,0-10.658,3.068.407.407,0,0,1-.532-.19.38.38,0,0,1-.036-.132l-.059-.7c-.037-.444-.075-1.1-.111-1.934s-.074-1.875-.109-3.063a.377.377,0,0,1,.011-.1c1.042-4.063,1.495-9.473,1.944-14.832.362-4.317.721-8.6,1.388-12.169a275.323,275.323,0,0,1,9.133-36.264,181.859,181.859,0,0,1,12.7-29.6.4.4,0,0,1,.214-.183,90.989,90.989,0,0,1,11.579-3.45,75.3,75.3,0,0,1,13.415-1.761.4.4,0,0,1,.411.323m.7,5.485a28.888,28.888,0,0,1-1.424-5.02,74.513,74.513,0,0,0-12.918,1.728,90.12,90.12,0,0,0-11.333,3.367,181.206,181.206,0,0,0-12.575,29.348,274.537,274.537,0,0,0-9.108,36.164c-.656,3.507-1.015,7.784-1.375,12.093-.45,5.368-.9,10.785-1.953,14.907.034,1.148.07,2.158.107,3,.035.793.072,1.436.111,1.9l.013.152a42.276,42.276,0,0,1,10.359-2.9c5.23-.729,11.391-.4,16.524,3.208,2.638,1.854,4.786,3.562,6.7,5.086,3.091,2.458,5.573,4.432,8.6,5.789,3.25,1.457,7.408,1.956,11.564,2.455a64.092,64.092,0,0,1,8.639,1.429,18.043,18.043,0,0,1,4.9,1.943,6.213,6.213,0,0,1,1.285,1.046c-.334-8.725-2.847-34.412-4.824-54.625-1.282-13.1-2.339-23.905-2.433-26.32-.088-2.251-.245-4.509-.5-6.761s-.6-4.479-1.08-6.685a39.8,39.8,0,0,0-1.28-4.588,42.987,42.987,0,0,0-1.81-4.419c-.807-1.7-1.713-3.347-2.621-4.995-.411-.745-.821-1.489-1.139-2.08a44.444,44.444,0,0,1-2.439-5.224" transform="translate(-1396.169 -1088.21)" fill="#fff" fill-rule="evenodd"/>
        <path id="Trazado_772490" data-name="Trazado 772490" d="M1778.422,2453.375a3.07,3.07,0,0,1-.054.578c-.332,1.758-2.156,2.862-4.773,3.515a39.7,39.7,0,0,1-9.1.85,110.316,110.316,0,0,1-15.851-1.262,103.816,103.816,0,0,1-12.5-3.021,87.446,87.446,0,0,1-11.337-4.346.383.383,0,0,1-.185-.519.392.392,0,0,1,.082-.11,15.091,15.091,0,0,0,3.545-7.751,21.959,21.959,0,0,0-.367-9.934.385.385,0,0,1,.259-.487.411.411,0,0,1,.2-.011,20.359,20.359,0,0,1,3.864,1.115,18.228,18.228,0,0,1,3.683,1.995c2.638,1.854,4.786,3.562,6.7,5.086,3.091,2.458,5.573,4.432,8.6,5.789,3.25,1.457,7.408,1.956,11.564,2.455a64.15,64.15,0,0,1,8.639,1.429,18.036,18.036,0,0,1,4.9,1.943,4.183,4.183,0,0,1,2.116,2.616.458.458,0,0,1,.007.07m-.841.438a2.335,2.335,0,0,0,.038-.408,3.514,3.514,0,0,0-1.76-2.067,17.235,17.235,0,0,0-4.675-1.846,63.777,63.777,0,0,0-8.526-1.4c-4.217-.506-8.437-1.013-11.8-2.522-3.117-1.4-5.636-3.4-8.773-5.9-1.9-1.509-4.024-3.2-6.665-5.056a17.415,17.415,0,0,0-3.52-1.906,19.315,19.315,0,0,0-3.062-.939,23.632,23.632,0,0,1,.207,9.674,16.25,16.25,0,0,1-3.406,7.77,87.175,87.175,0,0,0,10.752,4.085,103.033,103.033,0,0,0,12.4,3,109.286,109.286,0,0,0,15.707,1.247,38.969,38.969,0,0,0,8.9-.823c2.315-.578,3.918-1.5,4.183-2.906" transform="translate(-1585.416 -2234.708)" fill="#fff" fill-rule="evenodd"/>
        <path id="Trazado_772491" data-name="Trazado 772491" d="M1873.271,596.083a3.248,3.248,0,0,1-.33,2.1,10.006,10.006,0,0,1-1.572,2.008c-1.824,1.971-4.118,6.554-6.2,11.563-2.6,6.275-4.86,13.195-5.44,16.511a33.792,33.792,0,0,0-.451,8.525,16.56,16.56,0,0,0,1.657,6.564.381.381,0,0,1-.151.528.41.41,0,0,1-.222.05,74.6,74.6,0,0,0-16.236,1.324,87.7,87.7,0,0,0-13.659,3.873.4.4,0,0,1-.516-.226.376.376,0,0,1,.032-.338,174.229,174.229,0,0,1,18.372-27.227,269.752,269.752,0,0,1,24.039-25.483.41.41,0,0,1,.566.008.382.382,0,0,1,.11.217m-1.046,1.755a2.449,2.449,0,0,0,.263-.795,266.767,266.767,0,0,0-23.305,24.778,173.832,173.832,0,0,0-17.811,26.23,87.105,87.105,0,0,1,12.8-3.553,75.306,75.306,0,0,1,15.76-1.351,19.116,19.116,0,0,1-1.452-6.293,34.54,34.54,0,0,1,.461-8.713c.588-3.362,2.863-10.35,5.487-16.672,2.109-5.08,4.452-9.745,6.345-11.791a9.4,9.4,0,0,0,1.452-1.841" transform="translate(-1682.443 -547.674)" fill="#fff" fill-rule="evenodd"/>
        <path id="Trazado_772492" data-name="Trazado 772492" d="M1508.316,441.2l.73.25c.917.31,1.725.57,2.486.815,5.868,1.885,9.1,2.923,11.66,9.987.123.339.223.646.3.925a6.583,6.583,0,0,1,.175.808.381.381,0,0,1-.127.34c-17.395,16.436-30.788,32.029-41.135,50.483s-17.658,39.786-22.88,67.687c-.656,3.507-1.015,7.784-1.375,12.093-.6,7.206-1.215,14.5-3.27,18.643a.406.406,0,0,1-.533.182.388.388,0,0,1-.225-.31,304.262,304.262,0,0,1-1.1-40.755c.474-13.437,1.721-26.347,3.78-35.214a39.165,39.165,0,0,1,1.287-4.367,43.582,43.582,0,0,1,1.764-4.2c.777-1.616,1.66-3.211,2.544-4.807.361-.652.723-1.306,1.072-1.951a40.324,40.324,0,0,0,2.889-6.434,28.183,28.183,0,0,0,1.37-6.876,21.87,21.87,0,0,0-.563-6.851,35.116,35.116,0,0,0-2.358-6.538c-.674-1.461-1.415-2.914-2.155-4.366a64.908,64.908,0,0,1-3.84-8.517c-.093-.271-.183-.549-.269-.827-.081-.261-.157-.521-.227-.772a45.638,45.638,0,0,0-2.994-7.264,24.743,24.743,0,0,0-3.539-5.262,7.032,7.032,0,0,1-1.827-2.637,5.074,5.074,0,0,1,.4-3.208c2.562-7.064,5.792-8.1,11.66-9.987.761-.245,1.569-.5,2.487-.815l.73-.25a.412.412,0,0,1,.4.074,25.905,25.905,0,0,0,9.035,4.161,49.083,49.083,0,0,0,24.218,0,25.885,25.885,0,0,0,9.049-4.171.412.412,0,0,1,.384-.064m.1.857-.161-.055a27.009,27.009,0,0,1-9.161,4.179,49.832,49.832,0,0,1-24.645,0,27.009,27.009,0,0,1-9.161-4.179l-.525.179c-.847.287-1.7.56-2.5.818-5.626,1.807-8.723,2.8-11.154,9.508a4.461,4.461,0,0,0-.384,2.747,6.516,6.516,0,0,0,1.651,2.327,25.5,25.5,0,0,1,3.658,5.429,46.4,46.4,0,0,1,3.047,7.389l0,.012c.068.246.143.5.224.762s.169.532.262.806a64.2,64.2,0,0,0,3.8,8.416c.74,1.451,1.48,2.9,2.167,4.393a35.867,35.867,0,0,1,2.408,6.681,22.6,22.6,0,0,1,.581,7.082,28.912,28.912,0,0,1-1.408,7.055,41.079,41.079,0,0,1-2.942,6.555c-.359.663-.717,1.311-1.075,1.957-.866,1.564-1.731,3.126-2.522,4.771a42.855,42.855,0,0,0-1.736,4.129,38.387,38.387,0,0,0-1.262,4.285c-2.048,8.82-3.29,21.678-3.761,35.069a310.248,310.248,0,0,0,.936,39.112c1.52-4.16,2.059-10.594,2.592-16.957.361-4.317.72-8.6,1.388-12.169,5.239-27.993,12.573-49.393,22.962-67.921,10.36-18.477,23.757-34.092,41.143-50.535-.031-.164-.072-.338-.124-.525-.075-.27-.169-.558-.282-.87-2.431-6.705-5.528-7.7-11.154-9.508-.8-.257-1.652-.531-2.5-.818Z" transform="translate(-1332.839 -405.576)" fill="#fff" fill-rule="evenodd"/>
        <path id="Trazado_772493" data-name="Trazado 772493" d="M1903.421,190.2a.4.4,0,0,0-.8-.018v1.951a.4.4,0,0,0,.8.018Zm-.8,210.358a.4.4,0,0,0,.8.018v-1.951a.4.4,0,0,0-.8-.018Zm0-4.254a.4.4,0,0,0,.8.018v-3.884a.4.4,0,0,0-.8-.018Zm0-6.187a.4.4,0,0,0,.8.017v-3.884a.4.4,0,0,0-.8-.018Zm0-6.187a.4.4,0,0,0,.8.018v-3.884a.4.4,0,0,0-.8-.018Zm0-6.187a.4.4,0,0,0,.8.018v-3.885a.4.4,0,0,0-.8-.017Zm0-6.187a.4.4,0,0,0,.8.018v-3.884a.4.4,0,0,0-.8-.017Zm0-6.187a.4.4,0,0,0,.8.017V361.5a.4.4,0,0,0-.8-.018Zm0-6.187a.4.4,0,0,0,.8.018v-3.884a.4.4,0,0,0-.8-.018Zm0-6.187a.4.4,0,0,0,.8.018V349.13a.4.4,0,0,0-.8-.017Zm0-6.187a.4.4,0,0,0,.8.018v-3.884a.4.4,0,0,0-.8-.018Zm0-6.187a.4.4,0,0,0,.8.018v-3.884a.4.4,0,0,0-.8-.017Zm0-6.187a.4.4,0,0,0,.8.018V330.57a.4.4,0,0,0-.8-.018Zm0-6.187a.4.4,0,0,0,.8.018v-3.884a.4.4,0,0,0-.8-.018Zm0-6.187a.4.4,0,0,0,.8.018V318.2a.4.4,0,0,0-.8-.017Zm0-6.187a.4.4,0,0,0,.8.018v-3.884a.4.4,0,0,0-.8-.018Zm0-6.187a.4.4,0,0,0,.8.018v-3.884a.4.4,0,0,0-.8-.018Zm0-6.187a.4.4,0,0,0,.8.018v-3.884a.4.4,0,0,0-.8-.018Zm0-6.187a.4.4,0,0,0,.8.018v-3.885a.4.4,0,0,0-.8-.017Zm0-6.187a.4.4,0,0,0,.8.018V287.26a.4.4,0,0,0-.8-.018Zm0-6.187a.4.4,0,0,0,.8.018v-3.884a.4.4,0,0,0-.8-.018Zm0-6.187a.4.4,0,0,0,.8.017v-3.884a.4.4,0,0,0-.8-.018Zm0-6.187a.4.4,0,0,0,.8.018V268.7a.4.4,0,0,0-.8-.017Zm0-6.187a.4.4,0,0,0,.8.018v-3.884a.4.4,0,0,0-.8-.018Zm0-6.187a.4.4,0,0,0,.8.018v-3.884a.4.4,0,0,0-.8-.018Zm0-6.187a.4.4,0,0,0,.8.018v-3.884a.4.4,0,0,0-.8-.018Zm0-6.187a.4.4,0,0,0,.8.018v-3.884a.4.4,0,0,0-.8-.018Zm0-6.187a.4.4,0,0,0,.8.018v-3.884a.4.4,0,0,0-.8-.018Zm0-6.187a.4.4,0,0,0,.8.018v-3.884a.4.4,0,0,0-.8-.018Zm0-6.187a.4.4,0,0,0,.8.018v-3.884a.4.4,0,0,0-.8-.018Zm0-6.187a.4.4,0,0,0,.8.018V219.2a.4.4,0,0,0-.8-.018Zm0-6.187a.4.4,0,0,0,.8.018v-3.885a.4.4,0,0,0-.8-.018Zm0-6.187a.4.4,0,0,0,.8.018v-3.884a.4.4,0,0,0-.8-.017Zm0-6.187a.4.4,0,0,0,.8.018v-3.884a.4.4,0,0,0-.8-.018Zm0-6.187a.4.4,0,0,0,.8.018v-3.884a.4.4,0,0,0-.8-.017Z" transform="translate(-1749.084 -174.5)" fill="#055f63" fill-rule="evenodd"/>
        <path id="Trazado_772494" data-name="Trazado 772494" d="M1447.192,1551.894a.388.388,0,1,0,.018-.776h-1.976a.388.388,0,1,0-.018.777Zm-87.732-.777a.388.388,0,1,0-.018.777h1.977a.388.388,0,1,0,.018-.776Zm4.309,0a.388.388,0,1,0-.018.777h3.935a.388.388,0,1,0,.018-.776Zm6.267,0a.388.388,0,1,0-.018.777h3.935a.388.388,0,1,0,.018-.776Zm6.267,0a.388.388,0,1,0-.018.777h3.935a.388.388,0,1,0,.018-.776Zm6.266,0a.388.388,0,1,0-.018.777h3.935a.388.388,0,1,0,.018-.776Zm6.267,0a.388.388,0,1,0-.018.777h3.935a.388.388,0,1,0,.018-.776Zm6.266,0a.388.388,0,1,0-.018.777h3.935a.388.388,0,1,0,.018-.776Zm6.267,0a.388.388,0,1,0-.018.777h3.935a.388.388,0,1,0,.018-.776Zm6.267,0a.388.388,0,1,0-.018.777h3.935a.388.388,0,1,0,.018-.776Zm6.267,0a.388.388,0,1,0-.018.777h3.935a.388.388,0,1,0,.018-.776Zm6.266,0a.388.388,0,1,0-.018.777h3.935a.388.388,0,1,0,.018-.776Zm6.266,0a.388.388,0,1,0-.018.777h3.935a.388.388,0,1,0,.018-.776Zm6.267,0a.388.388,0,1,0-.018.777h3.935a.388.388,0,1,0,.018-.776Zm6.267,0a.388.388,0,1,0-.018.777h3.935a.388.388,0,1,0,.018-.776Z" transform="translate(-1249.391 -1425.948)" fill="#055f63" fill-rule="evenodd"/>
        <path id="Trazado_772495" data-name="Trazado 772495" d="M1447.192,853.818a.388.388,0,1,0,.018-.777h-1.976a.388.388,0,1,0-.018.777Zm-87.732-.777a.388.388,0,1,0-.018.777h1.977a.388.388,0,1,0,.018-.777Zm4.309,0a.388.388,0,1,0-.018.777h3.935a.388.388,0,1,0,.018-.777Zm6.267,0a.388.388,0,1,0-.018.777h3.935a.388.388,0,1,0,.018-.777Zm6.267,0a.388.388,0,1,0-.018.777h3.935a.388.388,0,1,0,.018-.777Zm6.266,0a.388.388,0,1,0-.018.777h3.935a.388.388,0,1,0,.018-.777Zm6.267,0a.388.388,0,1,0-.018.777h3.935a.388.388,0,1,0,.018-.777Zm6.266,0a.388.388,0,1,0-.018.777h3.935a.388.388,0,1,0,.018-.777Zm6.267,0a.388.388,0,1,0-.018.777h3.935a.388.388,0,1,0,.018-.777Zm6.267,0a.388.388,0,1,0-.018.777h3.935a.388.388,0,1,0,.018-.777Zm6.267,0a.388.388,0,1,0-.018.777h3.935a.388.388,0,1,0,.018-.777Zm6.266,0a.388.388,0,1,0-.018.777h3.935a.388.388,0,1,0,.018-.777Zm6.266,0a.388.388,0,1,0-.018.777h3.935a.388.388,0,1,0,.018-.777Zm6.267,0a.388.388,0,1,0-.018.777h3.935a.388.388,0,1,0,.018-.777Zm6.267,0a.388.388,0,1,0-.018.777h3.935a.388.388,0,1,0,.018-.777Z" transform="translate(-1249.391 -784.204)" fill="#055f63" fill-rule="evenodd"/>
        <path id="Trazado_772496" data-name="Trazado 772496" d="M1447.192,2347.607a.388.388,0,1,0,.018-.776h-1.976a.389.389,0,1,0-.018.777Zm-87.732-.777a.389.389,0,1,0-.018.777h1.977a.388.388,0,1,0,.018-.776Zm4.309,0a.389.389,0,1,0-.018.777h3.935a.388.388,0,1,0,.018-.776Zm6.267,0a.389.389,0,1,0-.018.777h3.935a.388.388,0,1,0,.018-.776Zm6.267,0a.389.389,0,1,0-.018.777h3.935a.388.388,0,1,0,.018-.776Zm6.266,0a.389.389,0,1,0-.018.777h3.935a.388.388,0,1,0,.018-.776Zm6.267,0a.389.389,0,1,0-.018.777h3.935a.388.388,0,1,0,.018-.776Zm6.266,0a.389.389,0,1,0-.018.777h3.935a.388.388,0,1,0,.018-.776Zm6.267,0a.389.389,0,1,0-.018.777h3.935a.388.388,0,1,0,.018-.776Zm6.267,0a.389.389,0,1,0-.018.777h3.935a.388.388,0,1,0,.018-.776Zm6.267,0a.389.389,0,1,0-.018.777h3.935a.388.388,0,1,0,.018-.776Zm6.266,0a.389.389,0,1,0-.018.777h3.935a.388.388,0,1,0,.018-.776Zm6.266,0a.389.389,0,1,0-.018.777h3.935a.388.388,0,1,0,.018-.776Zm6.267,0a.389.389,0,1,0-.018.777h3.935a.388.388,0,1,0,.018-.776Zm6.267,0a.389.389,0,1,0-.018.777h3.935a.388.388,0,1,0,.018-.776Z" transform="translate(-1249.391 -2157.45)" fill="#055f63" fill-rule="evenodd"/>
        <rect id="Rectángulo_355795" data-name="Rectángulo 355795" width="51.693" height="60.273" transform="translate(257.376 86.723)" fill="#e4dad8"/>
        <rect id="Rectángulo_355796" data-name="Rectángulo 355796" width="40.895" height="49.909" transform="translate(262.775 91.905)" fill="#055f63"/>
        <path id="Trazado_772497" data-name="Trazado 772497" d="M3198.043,1091.235a2.213,2.213,0,1,0-2.213-2.213,2.218,2.218,0,0,0,2.213,2.213" transform="translate(-2937.939 -999.108)" fill="#a39691" fill-rule="evenodd"/>
        <path id="Trazado_772498" data-name="Trazado 772498" d="M3771.024,1091.235a2.213,2.213,0,1,0-2.213-2.213,2.217,2.217,0,0,0,2.213,2.213" transform="translate(-3464.683 -999.108)" fill="#a39691" fill-rule="evenodd"/>
        <path id="Trazado_772499" data-name="Trazado 772499" d="M3198.043,1759.055a2.213,2.213,0,1,0-2.213-2.213,2.218,2.218,0,0,0,2.213,2.213" transform="translate(-2937.939 -1613.037)" fill="#a39691" fill-rule="evenodd"/>
        <path id="Trazado_772500" data-name="Trazado 772500" d="M3771.024,1759.055a2.213,2.213,0,1,0-2.213-2.213,2.218,2.218,0,0,0,2.213,2.213" transform="translate(-3464.683 -1613.037)" fill="#a39691" fill-rule="evenodd"/>
        <path id="Trazado_772501" data-name="Trazado 772501" d="M3256.353,1138.9h40.895v.511h-.4v4.406h.4v.537h-.4v4.406h.4v.537h-.4v4.406h.4v.536h-.4v4.406h.4v.537h-.4v4.406h.4v.537h-.4v4.406h.4v.537h-.4v4.406h.4v.537h-.4v4.406h.4v.537h-.4v4.406h.4v.537h-.4v4.406h.4v.5h-40.895v-.5h.41V1183.9h-.41v-.537h.41v-4.406h-.41v-.537h.41v-4.406h-.41v-.537h.41v-4.406h-.41v-.537h.41v-4.406h-.41v-.537h.41v-4.406h-.41v-.537h.41v-4.406h-.41v-.536h.41V1149.3h-.41v-.537h.41v-4.406h-.41v-.537h.41v-4.406h-.41Zm.947,49.406h4.406V1183.9H3257.3Zm4.943,0h4.406V1183.9h-4.406Zm4.943,0h4.406V1183.9h-4.406Zm4.943,0h4.406V1183.9h-4.406Zm4.943,0h4.406V1183.9h-4.406Zm4.944,0h4.406V1183.9h-4.406Zm4.943,0h4.406V1183.9h-4.406Zm4.943,0h4.406V1183.9H3291.9Zm-34.6-4.943h4.406v-4.406H3257.3Zm4.943,0h4.406v-4.406h-4.406Zm4.943,0h4.406v-4.406h-4.406Zm4.943,0h4.406v-4.406h-4.406Zm4.943,0h4.406v-4.406h-4.406Zm4.944,0h4.406v-4.406h-4.406Zm4.943,0h4.406v-4.406h-4.406Zm4.943,0h4.406v-4.406H3291.9Zm-34.6-4.943h4.406v-4.406H3257.3Zm4.943,0h4.406v-4.406h-4.406Zm4.943,0h4.406v-4.406h-4.406Zm4.943,0h4.406v-4.406h-4.406Zm4.943,0h4.406v-4.406h-4.406Zm4.944,0h4.406v-4.406h-4.406Zm4.943,0h4.406v-4.406h-4.406Zm4.943,0h4.406v-4.406H3291.9Zm-34.6-4.943h4.406v-4.406H3257.3Zm4.943,0h4.406v-4.406h-4.406Zm4.943,0h4.406v-4.406h-4.406Zm4.943,0h4.406v-4.406h-4.406Zm4.943,0h4.406v-4.406h-4.406Zm4.944,0h4.406v-4.406h-4.406Zm4.943,0h4.406v-4.406h-4.406Zm4.943,0h4.406v-4.406H3291.9Zm-34.6-4.943h4.406v-4.406H3257.3Zm4.943,0h4.406v-4.406h-4.406Zm4.943,0h4.406v-4.406h-4.406Zm4.943,0h4.406v-4.406h-4.406Zm4.943,0h4.406v-4.406h-4.406Zm4.944,0h4.406v-4.406h-4.406Zm4.943,0h4.406v-4.406h-4.406Zm4.943,0h4.406v-4.406H3291.9Zm-34.6-4.943h4.406v-4.406H3257.3Zm4.943,0h4.406v-4.406h-4.406Zm4.943,0h4.406v-4.406h-4.406Zm4.943,0h4.406v-4.406h-4.406Zm4.943,0h4.406v-4.406h-4.406Zm4.944,0h4.406v-4.406h-4.406Zm4.943,0h4.406v-4.406h-4.406Zm4.943,0h4.406v-4.406H3291.9Zm-34.6-4.943h4.406v-4.406H3257.3Zm4.943,0h4.406v-4.406h-4.406Zm4.943,0h4.406v-4.406h-4.406Zm4.943,0h4.406v-4.406h-4.406Zm4.943,0h4.406v-4.406h-4.406Zm4.944,0h4.406v-4.406h-4.406Zm4.943,0h4.406v-4.406h-4.406Zm4.943,0h4.406v-4.406H3291.9Zm-34.6-4.943h4.406V1149.3H3257.3Zm4.943,0h4.406V1149.3h-4.406Zm4.943,0h4.406V1149.3h-4.406Zm4.943,0h4.406V1149.3h-4.406Zm4.943,0h4.406V1149.3h-4.406Zm4.944,0h4.406V1149.3h-4.406Zm4.943,0h4.406V1149.3h-4.406Zm4.943,0h4.406V1149.3H3291.9Zm-34.6-4.943h4.406v-4.406H3257.3Zm4.943,0h4.406v-4.406h-4.406Zm4.943,0h4.406v-4.406h-4.406Zm4.943,0h4.406v-4.406h-4.406Zm4.943,0h4.406v-4.406h-4.406Zm4.944,0h4.406v-4.406h-4.406Zm4.943,0h4.406v-4.406h-4.406Zm4.943,0h4.406v-4.406H3291.9Zm-34.6-4.943h4.406v-4.406H3257.3Zm4.943,0h4.406v-4.406h-4.406Zm4.943,0h4.406v-4.406h-4.406Zm4.943,0h4.406v-4.406h-4.406Zm4.943,0h4.406v-4.406h-4.406Zm4.944,0h4.406v-4.406h-4.406Zm4.943,0h4.406v-4.406h-4.406Zm4.943,0h4.406v-4.406H3291.9Z" transform="translate(-2993.578 -1046.996)" fill="#059485" fill-rule="evenodd"/>
        <path id="Trazado_772502" data-name="Trazado 772502" d="M3287.6,1267.069c-.584-.3-.878-1.045-.932-2.112v-.025a37.385,37.385,0,0,1,1.043-8.179,39.748,39.748,0,0,1,2.671-8.477c.684-1.352,1.48-2.2,2.371-2.242h.012a4.913,4.913,0,0,0,4.042-2.366,13.727,13.727,0,0,0,1.693-6.965.985.985,0,0,1,1-.974l.123.009,8.3,1.174a.988.988,0,0,1,.851.937l.426,7.137,3.193-6.738a.987.987,0,0,1,1.036-.555l7.769,1.1a.986.986,0,0,1,.85.935c.508,5.239.946,10.466.285,15.5a25.779,25.779,0,0,1-6.476,14.456.988.988,0,0,1-1.165.227,54.688,54.688,0,0,0-14.211-3.61,32.043,32.043,0,0,0-12.156.831.988.988,0,0,1-.718-.066m1.037-2.213a.493.493,0,0,1-.015.155,34.719,34.719,0,0,1,12.053-.669,56.339,56.339,0,0,1,14.155,3.514,23.939,23.939,0,0,0,5.541-12.88,64.577,64.577,0,0,0-.222-14.338l-6.29-.892-4.527,9.552a.986.986,0,0,1-1.88-.358l-.608-10.188-6.417-.91a14.7,14.7,0,0,1-1.967,6.9,6.793,6.793,0,0,1-5.579,3.261l-.028,0a3.755,3.755,0,0,0-.71,1.16,37.875,37.875,0,0,0-2.5,8.006,35.684,35.684,0,0,0-1,7.677Z" transform="translate(-3021.435 -1136.011)" fill="#e4dad8" fill-rule="evenodd"/>
        <path id="Trazado_772503" data-name="Trazado 772503" d="M3504.245,1167.015a.529.529,0,1,0-1.057,0v2.114a.529.529,0,0,0,1.057,0Zm-1.057,44.4a.529.529,0,0,0,1.057,0V1209.3a.529.529,0,0,0-1.057,0Zm0-5.286a.529.529,0,0,0,1.057,0v-2.114a.529.529,0,0,0-1.057,0Zm0-5.286a.529.529,0,0,0,1.057,0v-2.114a.529.529,0,0,0-1.057,0Zm0-5.285a.529.529,0,0,0,1.057,0v-2.114a.529.529,0,0,0-1.057,0Zm0-5.286a.529.529,0,0,0,1.057,0v-2.114a.529.529,0,1,0-1.057,0Zm0-5.285a.529.529,0,0,0,1.057,0v-2.114a.529.529,0,1,0-1.057,0Zm0-5.286a.529.529,0,0,0,1.057,0v-2.114a.529.529,0,1,0-1.057,0Zm0-5.286a.529.529,0,0,0,1.057,0V1172.3a.529.529,0,0,0-1.057,0Z" transform="translate(-3220.495 -1072.355)" fill="#e4dad8" fill-rule="evenodd"/>
        <path id="Trazado_772504" data-name="Trazado 772504" d="M3294.117,1441.595a.529.529,0,1,0,0,1.057h2.115a.529.529,0,0,0,0-1.057Zm5.286,0a.529.529,0,1,0,0,1.057h2.114a.529.529,0,0,0,0-1.057Zm5.285,0a.529.529,0,0,0,0,1.057h2.114a.529.529,0,0,0,0-1.057Zm5.286,0a.529.529,0,1,0,0,1.057h2.114a.529.529,0,0,0,0-1.057Zm5.285,0a.529.529,0,1,0,0,1.057h2.114a.529.529,0,0,0,0-1.057Zm5.286,0a.529.529,0,1,0,0,1.057h2.114a.529.529,0,0,0,0-1.057Zm5.286,0a.529.529,0,1,0,0,1.057h2.114a.529.529,0,0,0,0-1.057Z" transform="translate(-3027.81 -1325.264)" fill="#e4dad8" fill-rule="evenodd"/>
        <rect id="Rectángulo_355797" data-name="Rectángulo 355797" width="77.396" height="93.996" transform="translate(0 146.761)" fill="#e4dad8"/>
        <rect id="Rectángulo_355798" data-name="Rectángulo 355798" width="64.245" height="80.845" transform="translate(6.576 153.336)" fill="#055f63"/>
        <path id="Trazado_772505" data-name="Trazado 772505" d="M18.688,1837.42a2.28,2.28,0,1,0-2.28-2.28,2.284,2.284,0,0,0,2.28,2.28" transform="translate(-15.084 -1684.956)" fill="#a39691" fill-rule="evenodd"/>
        <path id="Trazado_772506" data-name="Trazado 772506" d="M888.493,1837.42a2.28,2.28,0,1,0-2.28-2.28,2.284,2.284,0,0,0,2.28,2.28" transform="translate(-814.699 -1684.956)" fill="#a39691" fill-rule="evenodd"/>
        <path id="Trazado_772507" data-name="Trazado 772507" d="M18.688,2917.414a2.28,2.28,0,1,0-2.28-2.28,2.284,2.284,0,0,0,2.28,2.28" transform="translate(-15.084 -2677.799)" fill="#a39691" fill-rule="evenodd"/>
        <path id="Trazado_772508" data-name="Trazado 772508" d="M888.493,2917.414a2.28,2.28,0,1,0-2.28-2.28,2.284,2.284,0,0,0,2.28,2.28" transform="translate(-814.699 -2677.799)" fill="#a39691" fill-rule="evenodd"/>
        <path id="Trazado_772509" data-name="Trazado 772509" d="M82.788,1900.179h.554v4.505h4.539v-4.505h.553v4.505h4.539v-4.505h.553v4.505h4.539v-4.505h.553v4.505h4.539v-4.505h.553v4.505h4.539v-4.505h.553v4.505h4.539v-4.505h.553v4.505h4.539v-4.505h.554v4.505h4.539v-4.505h.554v4.505h4.539v-4.505h.553v4.505h4.539v-4.505h.553v4.505H138.8v-4.505h.553v4.505h4.539v-4.505h.553v4.505h1.29v.554h-1.29v4.539h1.29v.554h-1.29v4.539h1.29v.553h-1.29v4.539h1.29v.553h-1.29v4.539h1.29v.553h-1.29v4.539h1.29v.553h-1.29v4.539h1.29v.553h-1.29v4.539h1.29v.553h-1.29v4.539h1.29v.554h-1.29v4.538h1.29v.554h-1.29v4.538h1.29v.553h-1.29v4.539h1.29v.553h-1.29v4.539h1.29v.553h-1.29v4.539h1.29v.553h-1.29v4.53h1.29v.553h-1.29v4.506h-.553v-4.506h-4.539v4.506H138.8v-4.506h-4.539v4.506h-.553v-4.506h-4.539v4.506h-.553v-4.506h-4.539v4.506h-.554v-4.506h-4.539v4.506h-.554v-4.506h-4.539v4.506h-.553v-4.506H108.8v4.506h-.553v-4.506H103.71v4.506h-.553v-4.506H98.618v4.506h-.553v-4.506H93.526v4.506h-.553v-4.506H88.434v4.506h-.553v-4.506H83.342v4.506h-.554v-4.506h-1.3v-.553h1.3v-4.53h-1.3v-.553h1.3v-4.539h-1.3v-.553h1.3v-4.539h-1.3v-.553h1.3v-4.539h-1.3v-.553h1.3v-4.538h-1.3v-.554h1.3v-4.538h-1.3v-.554h1.3v-4.539h-1.3v-.553h1.3v-4.539h-1.3v-.553h1.3V1930.7h-1.3v-.553h1.3v-4.539h-1.3v-.553h1.3v-4.539h-1.3v-.553h1.3v-4.539h-1.3v-.553h1.3v-4.539h-1.3v-.554h1.3v-4.539h-1.3v-.554h1.3Zm.554,75.786h4.539v-4.53H83.342Zm5.092,0h4.539v-4.53H88.434Zm5.092,0h4.539v-4.53H93.526Zm5.092,0h4.539v-4.53H98.618Zm5.092,0h4.539v-4.53H103.71Zm5.092,0h4.539v-4.53H108.8Zm5.092,0h4.539v-4.53h-4.539Zm5.092,0h4.539v-4.53h-4.539Zm5.092,0h4.539v-4.53h-4.539Zm5.092,0h4.539v-4.53h-4.539Zm5.092,0H138.8v-4.53h-4.539Zm5.092,0h4.539v-4.53h-4.539Zm-56.013-5.083h4.539v-4.539H83.342Zm5.092,0h4.539v-4.539H88.434Zm5.092,0h4.539v-4.539H93.526Zm5.092,0h4.539v-4.539H98.618Zm5.092,0h4.539v-4.539H103.71Zm5.092,0h4.539v-4.539H108.8Zm5.092,0h4.539v-4.539h-4.539Zm5.092,0h4.539v-4.539h-4.539Zm5.092,0h4.539v-4.539h-4.539Zm5.092,0h4.539v-4.539h-4.539Zm5.092,0H138.8v-4.539h-4.539Zm5.092,0h4.539v-4.539h-4.539Zm-56.013-5.092h4.539v-4.539H83.342Zm5.092,0h4.539v-4.539H88.434Zm5.092,0h4.539v-4.539H93.526Zm5.092,0h4.539v-4.539H98.618Zm5.092,0h4.539v-4.539H103.71Zm5.092,0h4.539v-4.539H108.8Zm5.092,0h4.539v-4.539h-4.539Zm5.092,0h4.539v-4.539h-4.539Zm5.092,0h4.539v-4.539h-4.539Zm5.092,0h4.539v-4.539h-4.539Zm5.092,0H138.8v-4.539h-4.539Zm5.092,0h4.539v-4.539h-4.539ZM83.342,1960.7h4.539v-4.539H83.342Zm5.092,0h4.539v-4.539H88.434Zm5.092,0h4.539v-4.539H93.526Zm5.092,0h4.539v-4.539H98.618Zm5.092,0h4.539v-4.539H103.71Zm5.092,0h4.539v-4.539H108.8Zm5.092,0h4.539v-4.539h-4.539Zm5.092,0h4.539v-4.539h-4.539Zm5.092,0h4.539v-4.539h-4.539Zm5.092,0h4.539v-4.539h-4.539Zm5.092,0H138.8v-4.539h-4.539Zm5.092,0h4.539v-4.539h-4.539ZM83.342,1955.6h4.539v-4.538H83.342Zm5.092,0h4.539v-4.538H88.434Zm5.092,0h4.539v-4.538H93.526Zm5.092,0h4.539v-4.538H98.618Zm5.092,0h4.539v-4.538H103.71Zm5.092,0h4.539v-4.538H108.8Zm5.092,0h4.539v-4.538h-4.539Zm5.092,0h4.539v-4.538h-4.539Zm5.092,0h4.539v-4.538h-4.539Zm5.092,0h4.539v-4.538h-4.539Zm5.092,0H138.8v-4.538h-4.539Zm5.092,0h4.539v-4.538h-4.539Zm-56.013-5.092h4.539v-4.538H83.342Zm5.092,0h4.539v-4.538H88.434Zm5.092,0h4.539v-4.538H93.526Zm5.092,0h4.539v-4.538H98.618Zm5.092,0h4.539v-4.538H103.71Zm5.092,0h4.539v-4.538H108.8Zm5.092,0h4.539v-4.538h-4.539Zm5.092,0h4.539v-4.538h-4.539Zm5.092,0h4.539v-4.538h-4.539Zm5.092,0h4.539v-4.538h-4.539Zm5.092,0H138.8v-4.538h-4.539Zm5.092,0h4.539v-4.538h-4.539Zm-56.013-5.092h4.539v-4.539H83.342Zm5.092,0h4.539v-4.539H88.434Zm5.092,0h4.539v-4.539H93.526Zm5.092,0h4.539v-4.539H98.618Zm5.092,0h4.539v-4.539H103.71Zm5.092,0h4.539v-4.539H108.8Zm5.092,0h4.539v-4.539h-4.539Zm5.092,0h4.539v-4.539h-4.539Zm5.092,0h4.539v-4.539h-4.539Zm5.092,0h4.539v-4.539h-4.539Zm5.092,0H138.8v-4.539h-4.539Zm5.092,0h4.539v-4.539h-4.539Zm-56.013-5.092h4.539v-4.539H83.342Zm5.092,0h4.539v-4.539H88.434Zm5.092,0h4.539v-4.539H93.526Zm5.092,0h4.539v-4.539H98.618Zm5.092,0h4.539v-4.539H103.71Zm5.092,0h4.539v-4.539H108.8Zm5.092,0h4.539v-4.539h-4.539Zm5.092,0h4.539v-4.539h-4.539Zm5.092,0h4.539v-4.539h-4.539Zm5.092,0h4.539v-4.539h-4.539Zm5.092,0H138.8v-4.539h-4.539Zm5.092,0h4.539v-4.539h-4.539Zm-56.013-5.092h4.539V1930.7H83.342Zm5.092,0h4.539V1930.7H88.434Zm5.092,0h4.539V1930.7H93.526Zm5.092,0h4.539V1930.7H98.618Zm5.092,0h4.539V1930.7H103.71Zm5.092,0h4.539V1930.7H108.8Zm5.092,0h4.539V1930.7h-4.539Zm5.092,0h4.539V1930.7h-4.539Zm5.092,0h4.539V1930.7h-4.539Zm5.092,0h4.539V1930.7h-4.539Zm5.092,0H138.8V1930.7h-4.539Zm5.092,0h4.539V1930.7h-4.539Zm-56.013-5.092h4.539v-4.539H83.342Zm5.092,0h4.539v-4.539H88.434Zm5.092,0h4.539v-4.539H93.526Zm5.092,0h4.539v-4.539H98.618Zm5.092,0h4.539v-4.539H103.71Zm5.092,0h4.539v-4.539H108.8Zm5.092,0h4.539v-4.539h-4.539Zm5.092,0h4.539v-4.539h-4.539Zm5.092,0h4.539v-4.539h-4.539Zm5.092,0h4.539v-4.539h-4.539Zm5.092,0H138.8v-4.539h-4.539Zm5.092,0h4.539v-4.539h-4.539Zm-56.013-5.092h4.539v-4.539H83.342Zm5.092,0h4.539v-4.539H88.434Zm5.092,0h4.539v-4.539H93.526Zm5.092,0h4.539v-4.539H98.618Zm5.092,0h4.539v-4.539H103.71Zm5.092,0h4.539v-4.539H108.8Zm5.092,0h4.539v-4.539h-4.539Zm5.092,0h4.539v-4.539h-4.539Zm5.092,0h4.539v-4.539h-4.539Zm5.092,0h4.539v-4.539h-4.539Zm5.092,0H138.8v-4.539h-4.539Zm5.092,0h4.539v-4.539h-4.539Zm-56.013-5.092h4.539v-4.539H83.342Zm5.092,0h4.539v-4.539H88.434Zm5.092,0h4.539v-4.539H93.526Zm5.092,0h4.539v-4.539H98.618Zm5.092,0h4.539v-4.539H103.71Zm5.092,0h4.539v-4.539H108.8Zm5.092,0h4.539v-4.539h-4.539Zm5.092,0h4.539v-4.539h-4.539Zm5.092,0h4.539v-4.539h-4.539Zm5.092,0h4.539v-4.539h-4.539Zm5.092,0H138.8v-4.539h-4.539Zm5.092,0h4.539v-4.539h-4.539Zm-56.013-5.092h4.539v-4.539H83.342Zm5.092,0h4.539v-4.539H88.434Zm5.092,0h4.539v-4.539H93.526Zm5.092,0h4.539v-4.539H98.618Zm5.092,0h4.539v-4.539H103.71Zm5.092,0h4.539v-4.539H108.8Zm5.092,0h4.539v-4.539h-4.539Zm5.092,0h4.539v-4.539h-4.539Zm5.092,0h4.539v-4.539h-4.539Zm5.092,0h4.539v-4.539h-4.539Zm5.092,0H138.8v-4.539h-4.539Zm5.092,0h4.539v-4.539h-4.539Zm-56.013-5.092h4.539v-4.538H83.342Zm5.092,0h4.539v-4.538H88.434Zm5.092,0h4.539v-4.538H93.526Zm5.092,0h4.539v-4.538H98.618Zm5.092,0h4.539v-4.538H103.71Zm5.092,0h4.539v-4.538H108.8Zm5.092,0h4.539v-4.538h-4.539Zm5.092,0h4.539v-4.538h-4.539Zm5.092,0h4.539v-4.538h-4.539Zm5.092,0h4.539v-4.538h-4.539Zm5.092,0H138.8v-4.538h-4.539Zm5.092,0h4.539v-4.538h-4.539Z" transform="translate(-74.915 -1746.842)" fill="#059485" fill-rule="evenodd"/>
        <path id="Trazado_772510" data-name="Trazado 772510" d="M122.486,2394.361a.544.544,0,1,0,0,1.089h2.178a.544.544,0,0,0,0-1.089Zm5.444,0a.544.544,0,0,0,0,1.089h2.178a.544.544,0,1,0,0-1.089Zm5.445,0a.544.544,0,0,0,0,1.089h2.178a.544.544,0,1,0,0-1.089Zm5.445,0a.544.544,0,0,0,0,1.089H141a.544.544,0,1,0,0-1.089Zm5.445,0a.544.544,0,1,0,0,1.089h2.178a.544.544,0,1,0,0-1.089Zm5.445,0a.544.544,0,1,0,0,1.089h2.178a.544.544,0,0,0,0-1.089Zm5.445,0a.544.544,0,1,0,0,1.089h2.178a.544.544,0,0,0,0-1.089Zm5.445,0a.544.544,0,1,0,0,1.089h2.178a.544.544,0,0,0,0-1.089Zm5.445,0a.544.544,0,1,0,0,1.089h2.178a.544.544,0,0,0,0-1.089Zm5.445,0a.544.544,0,1,0,0,1.089h2.178a.544.544,0,0,0,0-1.089Zm5.445,0a.544.544,0,1,0,0,1.089h2.178a.544.544,0,0,0,0-1.089Z" transform="translate(-112.101 -2201.146)" fill="#e4dad8" fill-rule="evenodd"/>
        <path id="Trazado_772511" data-name="Trazado 772511" d="M473.9,1942.825a.544.544,0,0,0-1.089,0V1945a.544.544,0,0,0,1.089,0Zm-1.089,72.962a.544.544,0,0,0,1.089,0v-2.178a.544.544,0,0,0-1.089,0Zm0-5.445a.544.544,0,0,0,1.089,0v-2.178a.544.544,0,0,0-1.089,0Zm0-5.445a.544.544,0,0,0,1.089,0v-2.178a.544.544,0,0,0-1.089,0Zm0-5.445a.544.544,0,1,0,1.089,0v-2.178a.544.544,0,0,0-1.089,0Zm0-5.445a.544.544,0,1,0,1.089,0v-2.178a.544.544,0,0,0-1.089,0Zm0-5.445a.544.544,0,1,0,1.089,0v-2.178a.544.544,0,0,0-1.089,0Zm0-5.445a.544.544,0,1,0,1.089,0v-2.178a.544.544,0,0,0-1.089,0Zm0-5.445a.544.544,0,1,0,1.089,0v-2.178a.544.544,0,0,0-1.089,0Zm0-5.445a.544.544,0,0,0,1.089,0v-2.178a.544.544,0,0,0-1.089,0Zm0-5.445a.544.544,0,1,0,1.089,0v-2.178a.544.544,0,0,0-1.089,0Zm0-5.445a.544.544,0,0,0,1.089,0v-2.178a.544.544,0,0,0-1.089,0Zm0-5.445a.544.544,0,0,0,1.089,0v-2.178a.544.544,0,0,0-1.089,0Zm0-5.445a.544.544,0,0,0,1.089,0v-2.178a.544.544,0,0,0-1.089,0Z" transform="translate(-434.653 -1785.547)" fill="#e4dad8" fill-rule="evenodd"/>
        <path id="Trazado_772512" data-name="Trazado 772512" d="M145.215,2017.459c3.387-.551,6.762.563,10.125,2.906a47.842,47.842,0,0,1,9.757,9.872,1.016,1.016,0,0,1,.126,1.041,16.692,16.692,0,0,1-4.457,6.31,15.584,15.584,0,0,1-6.43,3.253,1.018,1.018,0,0,1-1.185-.594c-.288-.611-3.831-8.061-3.159-3.452,1.719,11.786,5.818,37.024,5.829,37.1a1.015,1.015,0,0,1-.3.891c-3.1,2.986-11.807,4.48-20.45,4.48s-17.348-1.494-20.451-4.479a1.014,1.014,0,0,1-.292-.931c.172-1.064,4.139-25.512,5.823-37.057.7-4.8-3.167,3.47-3.178,3.493a1.017,1.017,0,0,1-1.166.552,15.572,15.572,0,0,1-6.43-3.252,16.693,16.693,0,0,1-4.466-6.332,1.015,1.015,0,0,1,.135-1.019,47.836,47.836,0,0,1,9.757-9.872c3.375-2.351,6.762-3.465,10.161-2.9a1.008,1.008,0,0,1,.632.37,4.028,4.028,0,0,0,.648.64c1.843,1.46,5.315,2.19,8.825,2.19s6.982-.73,8.825-2.19a3.97,3.97,0,0,0,.648-.64,1.013,1.013,0,0,1,.668-.376m8.963,4.577c-2.823-1.967-5.6-2.951-8.315-2.617a6.457,6.457,0,0,1-.707.647c-2.218,1.757-6.169,2.636-10.082,2.636s-7.865-.879-10.082-2.636a6.471,6.471,0,0,1-.707-.647c-2.714-.333-5.492.651-8.315,2.617a44.708,44.708,0,0,0-8.946,8.974,14.407,14.407,0,0,0,3.679,5.033,13.293,13.293,0,0,0,4.807,2.6c1.754-3.608,9.046-17.934,6.659-1.564-1.54,10.557-5.135,32.791-5.748,36.572,3.034,2.38,10.816,3.571,18.654,3.571s15.62-1.191,18.653-3.571c-.613-3.781-4.208-26.015-5.747-36.572-2.387-16.37,4.9-2.045,6.658,1.564a13.3,13.3,0,0,0,4.808-2.6,14.413,14.413,0,0,0,3.679-5.033,44.7,44.7,0,0,0-8.946-8.974" transform="translate(-96.375 -1854.531)" fill="#e4dad8" fill-rule="evenodd"/>
        <rect id="Rectángulo_355799" data-name="Rectángulo 355799" width="67.91" height="130.43" transform="translate(6.187 0.587)" fill="#e4dad8"/>
        <rect id="Rectángulo_355800" data-name="Rectángulo 355800" width="54.76" height="117.28" transform="translate(12.762 7.161)" fill="#055f63"/>
        <path id="Trazado_772513" data-name="Trazado 772513" d="M93.653,26.334a2.28,2.28,0,1,0-2.28-2.28,2.284,2.284,0,0,0,2.28,2.28" transform="translate(-84 -20.017)" fill="#a39691" fill-rule="evenodd"/>
        <path id="Trazado_772514" data-name="Trazado 772514" d="M849.3,26.334a2.28,2.28,0,1,0-2.28-2.28,2.284,2.284,0,0,0,2.28,2.28" transform="translate(-778.667 -20.017)" fill="#a39691" fill-rule="evenodd"/>
        <path id="Trazado_772515" data-name="Trazado 772515" d="M93.653,1557.151a2.28,2.28,0,1,0-2.28-2.28,2.284,2.284,0,0,0,2.28,2.28" transform="translate(-84 -1427.303)" fill="#a39691" fill-rule="evenodd"/>
        <path id="Trazado_772516" data-name="Trazado 772516" d="M849.3,1557.151a2.28,2.28,0,1,0-2.28-2.28,2.284,2.284,0,0,0,2.28,2.28" transform="translate(-778.667 -1427.303)" fill="#a39691" fill-rule="evenodd"/>
        <path id="Trazado_772517" data-name="Trazado 772517" d="M158.147,91.107h1.647V88.752h.553v2.355h4.539V88.752h.553v2.355h4.539V88.752h.553v2.355h4.539V88.752h.553v2.355h4.539V88.752h.553v2.355h4.539V88.752h.553v2.355h4.539V88.752h.554v2.355h4.538V88.752h.554v2.355h4.539V88.752h.553v2.355h4.539V88.752h.553v2.355h4.539V88.752h.553v2.355h1.639v.553h-1.639V96.2h1.639v.553h-1.639v4.539h1.639v.553h-1.639v4.539h1.639v.553h-1.639v4.539h1.639v.554h-1.639v4.539h1.639v.554h-1.639v4.539h1.639v.553h-1.639v4.539h1.639v.553h-1.639v4.539h1.639v.553h-1.639v4.539h1.639v.553h-1.639v4.539h1.639v.553h-1.639v4.539h1.639v.553h-1.639v4.539h1.639v.554h-1.639V157.3h1.639v.554h-1.639V162.4h1.639v.553h-1.639v4.539h1.639v.553h-1.639v4.539h1.639v.553h-1.639v4.539h1.639v.553h-1.639v4.53h1.639v.553h-1.639v4.539h1.639v.553h-1.639v4.539h1.639v.553h-1.639v4.539h1.639v.553h-1.639v4.539h1.639v.553h-1.639v2.355h-.553v-2.355h-4.539v2.355h-.553v-2.355h-4.539v2.355h-.553v-2.355h-4.539v2.355h-.554v-2.355H190.9v2.355h-.554v-2.355h-4.539v2.355h-.553v-2.355h-4.539v2.355h-.553v-2.355h-4.539v2.355h-.553v-2.355h-4.539v2.355h-.553v-2.355h-4.539v2.355h-.553v-2.355h-4.539v2.355h-.553v-2.355h-1.647v-.553h1.647v-4.539h-1.647v-.553h1.647v-4.539h-1.647v-.553h1.647V188.4h-1.647v-.553h1.647v-4.539h-1.647v-.553h1.647v-4.53h-1.647v-.553h1.647v-4.539h-1.647v-.553h1.647v-4.539h-1.647v-.553h1.647v-4.539h-1.647V162.4h1.647v-4.538h-1.647V157.3h1.647v-4.538h-1.647v-.554h1.647v-4.539h-1.647v-.553h1.647V142.58h-1.647v-.553h1.647v-4.539h-1.647v-.553h1.647V132.4h-1.647v-.553h1.647V127.3h-1.647v-.553h1.647v-4.539h-1.647v-.553h1.647V117.12h-1.647v-.554h1.647v-4.539h-1.647v-.554h1.647v-4.539h-1.647v-.553h1.647v-4.539h-1.647v-.553h1.647V96.752h-1.647V96.2h1.647V91.66h-1.647Zm52.568.553h-4.539V96.2h4.539Zm-5.092,0h-4.539V96.2h4.539Zm-5.092,0h-4.539V96.2h4.539Zm-5.092,0H190.9V96.2h4.538Zm-5.092,0h-4.538V96.2h4.538Zm-5.092,0h-4.539V96.2h4.539Zm-5.092,0h-4.539V96.2h4.539Zm-5.092,0h-4.539V96.2h4.539Zm-5.092,0h-4.539V96.2h4.539Zm-5.092,0h-4.539V96.2h4.539Zm45.829,91.649h-4.539v4.539h4.539Zm-5.092,0h-4.539v4.539h4.539Zm-5.092,0h-4.539v4.539h4.539Zm-5.092,0H190.9v4.539h4.538Zm-5.092,0h-4.538v4.539h4.538Zm-5.092,0h-4.539v4.539h4.539Zm-5.092,0h-4.539v4.539h4.539Zm-5.092,0h-4.539v4.539h4.539Zm-5.092,0h-4.539v4.539h4.539Zm-5.092,0h-4.539v4.539h4.539Zm-4.539-.553h4.539v-4.53h-4.539Zm5.092,0h4.539v-4.53h-4.539Zm5.092,0h4.539v-4.53h-4.539Zm5.092,0h4.539v-4.53h-4.539Zm5.092,0h4.539v-4.53h-4.539Zm5.092,0h4.538v-4.53h-4.538Zm5.092,0h4.538v-4.53H190.9Zm5.092,0h4.539v-4.53h-4.539Zm5.092,0h4.539v-4.53h-4.539Zm5.092,0h4.539v-4.53h-4.539Zm-45.829,20.368h4.539v-4.539h-4.539Zm5.092,0h4.539v-4.539h-4.539Zm5.092,0h4.539v-4.539h-4.539Zm5.092,0h4.539v-4.539h-4.539Zm5.092,0h4.539v-4.539h-4.539Zm5.092,0h4.538v-4.539h-4.538Zm5.092,0h4.538v-4.539H190.9Zm5.092,0h4.539v-4.539h-4.539Zm5.092,0h4.539v-4.539h-4.539Zm5.092,0h4.539v-4.539h-4.539Zm-45.829-5.092h4.539v-4.539h-4.539Zm5.092,0h4.539v-4.539h-4.539Zm5.092,0h4.539v-4.539h-4.539Zm5.092,0h4.539v-4.539h-4.539Zm5.092,0h4.539v-4.539h-4.539Zm5.092,0h4.538v-4.539h-4.538Zm5.092,0h4.538v-4.539H190.9Zm5.092,0h4.539v-4.539h-4.539Zm5.092,0h4.539v-4.539h-4.539Zm5.092,0h4.539v-4.539h-4.539Zm-45.829-5.092h4.539V188.4h-4.539Zm5.092,0h4.539V188.4h-4.539Zm5.092,0h4.539V188.4h-4.539Zm5.092,0h4.539V188.4h-4.539Zm5.092,0h4.539V188.4h-4.539Zm5.092,0h4.538V188.4h-4.538Zm5.092,0h4.538V188.4H190.9Zm5.092,0h4.539V188.4h-4.539Zm5.092,0h4.539V188.4h-4.539Zm5.092,0h4.539V188.4h-4.539Zm-45.829-15.268h4.539v-4.539h-4.539Zm5.092,0h4.539v-4.539h-4.539Zm5.092,0h4.539v-4.539h-4.539Zm5.092,0h4.539v-4.539h-4.539Zm5.092,0h4.539v-4.539h-4.539Zm5.092,0h4.538v-4.539h-4.538Zm5.092,0h4.538v-4.539H190.9Zm5.092,0h4.539v-4.539h-4.539Zm5.092,0h4.539v-4.539h-4.539Zm5.092,0h4.539v-4.539h-4.539Zm-45.829-5.092h4.539v-4.539h-4.539Zm5.092,0h4.539v-4.539h-4.539Zm5.092,0h4.539v-4.539h-4.539Zm5.092,0h4.539v-4.539h-4.539Zm5.092,0h4.539v-4.539h-4.539Zm5.092,0h4.538v-4.539h-4.538Zm5.092,0h4.538v-4.539H190.9Zm5.092,0h4.539v-4.539h-4.539Zm5.092,0h4.539v-4.539h-4.539Zm5.092,0h4.539v-4.539h-4.539Zm-45.829-5.092h4.539v-4.539h-4.539Zm5.092,0h4.539v-4.539h-4.539Zm5.092,0h4.539v-4.539h-4.539Zm5.092,0h4.539v-4.539h-4.539Zm5.092,0h4.539v-4.539h-4.539Zm5.092,0h4.538v-4.539h-4.538Zm5.092,0h4.538v-4.539H190.9Zm5.092,0h4.539v-4.539h-4.539Zm5.092,0h4.539v-4.539h-4.539Zm5.092,0h4.539v-4.539h-4.539ZM160.347,162.4h4.539v-4.538h-4.539Zm5.092,0h4.539v-4.538h-4.539Zm5.092,0h4.539v-4.538h-4.539Zm5.092,0h4.539v-4.538h-4.539Zm5.092,0h4.539v-4.538h-4.539Zm5.092,0h4.538v-4.538h-4.538Zm5.092,0h4.538v-4.538H190.9Zm5.092,0h4.539v-4.538h-4.539Zm5.092,0h4.539v-4.538h-4.539Zm5.092,0h4.539v-4.538h-4.539ZM160.347,157.3h4.539v-4.538h-4.539Zm5.092,0h4.539v-4.538h-4.539Zm5.092,0h4.539v-4.538h-4.539Zm5.092,0h4.539v-4.538h-4.539Zm5.092,0h4.539v-4.538h-4.539Zm5.092,0h4.538v-4.538h-4.538Zm5.092,0h4.538v-4.538H190.9Zm5.092,0h4.539v-4.538h-4.539Zm5.092,0h4.539v-4.538h-4.539Zm5.092,0h4.539v-4.538h-4.539Zm-45.829-5.092h4.539v-4.539h-4.539Zm5.092,0h4.539v-4.539h-4.539Zm5.092,0h4.539v-4.539h-4.539Zm5.092,0h4.539v-4.539h-4.539Zm5.092,0h4.539v-4.539h-4.539Zm5.092,0h4.538v-4.539h-4.538Zm5.092,0h4.538v-4.539H190.9Zm5.092,0h4.539v-4.539h-4.539Zm5.092,0h4.539v-4.539h-4.539Zm5.092,0h4.539v-4.539h-4.539Zm-45.829-5.092h4.539v-4.539h-4.539Zm5.092,0h4.539v-4.539h-4.539Zm5.092,0h4.539v-4.539h-4.539Zm5.092,0h4.539v-4.539h-4.539Zm5.092,0h4.539v-4.539h-4.539Zm5.092,0h4.538v-4.539h-4.538Zm5.092,0h4.538v-4.539H190.9Zm5.092,0h4.539v-4.539h-4.539Zm5.092,0h4.539v-4.539h-4.539Zm5.092,0h4.539v-4.539h-4.539Zm-45.829-5.092h4.539v-4.539h-4.539Zm5.092,0h4.539v-4.539h-4.539Zm5.092,0h4.539v-4.539h-4.539Zm5.092,0h4.539v-4.539h-4.539Zm5.092,0h4.539v-4.539h-4.539Zm5.092,0h4.538v-4.539h-4.538Zm5.092,0h4.538v-4.539H190.9Zm5.092,0h4.539v-4.539h-4.539Zm5.092,0h4.539v-4.539h-4.539Zm5.092,0h4.539v-4.539h-4.539Zm-45.829-5.092h4.539V132.4h-4.539Zm5.092,0h4.539V132.4h-4.539Zm5.092,0h4.539V132.4h-4.539Zm5.092,0h4.539V132.4h-4.539Zm5.092,0h4.539V132.4h-4.539Zm5.092,0h4.538V132.4h-4.538Zm5.092,0h4.538V132.4H190.9Zm5.092,0h4.539V132.4h-4.539Zm5.092,0h4.539V132.4h-4.539Zm5.092,0h4.539V132.4h-4.539Zm-45.829-5.092h4.539V127.3h-4.539Zm5.092,0h4.539V127.3h-4.539Zm5.092,0h4.539V127.3h-4.539Zm5.092,0h4.539V127.3h-4.539Zm5.092,0h4.539V127.3h-4.539Zm5.092,0h4.538V127.3h-4.538Zm5.092,0h4.538V127.3H190.9Zm5.092,0h4.539V127.3h-4.539Zm5.092,0h4.539V127.3h-4.539Zm5.092,0h4.539V127.3h-4.539Zm-45.829-5.092h4.539v-4.539h-4.539Zm5.092,0h4.539v-4.539h-4.539Zm5.092,0h4.539v-4.539h-4.539Zm5.092,0h4.539v-4.539h-4.539Zm5.092,0h4.539v-4.539h-4.539Zm5.092,0h4.538v-4.539h-4.538Zm5.092,0h4.538v-4.539H190.9Zm5.092,0h4.539v-4.539h-4.539Zm5.092,0h4.539v-4.539h-4.539Zm5.092,0h4.539v-4.539h-4.539Zm-45.829-5.092h4.539V117.12h-4.539Zm5.092,0h4.539V117.12h-4.539Zm5.092,0h4.539V117.12h-4.539Zm5.092,0h4.539V117.12h-4.539Zm5.092,0h4.539V117.12h-4.539Zm5.092,0h4.538V117.12h-4.538Zm5.092,0h4.538V117.12H190.9Zm5.092,0h4.539V117.12h-4.539Zm5.092,0h4.539V117.12h-4.539Zm5.092,0h4.539V117.12h-4.539Zm-45.829-5.092h4.539v-4.539h-4.539Zm5.092,0h4.539v-4.539h-4.539Zm5.092,0h4.539v-4.539h-4.539Zm5.092,0h4.539v-4.539h-4.539Zm5.092,0h4.539v-4.539h-4.539Zm5.092,0h4.538v-4.539h-4.538Zm5.092,0h4.538v-4.539H190.9Zm5.092,0h4.539v-4.539h-4.539Zm5.092,0h4.539v-4.539h-4.539Zm5.092,0h4.539v-4.539h-4.539Zm-45.829-5.092h4.539v-4.539h-4.539Zm5.092,0h4.539v-4.539h-4.539Zm5.092,0h4.539v-4.539h-4.539Zm5.092,0h4.539v-4.539h-4.539Zm5.092,0h4.539v-4.539h-4.539Zm5.092,0h4.538v-4.539h-4.538Zm5.092,0h4.538v-4.539H190.9Zm5.092,0h4.539v-4.539h-4.539Zm5.092,0h4.539v-4.539h-4.539Zm5.092,0h4.539v-4.539h-4.539Zm-45.829-5.092h4.539v-4.539h-4.539Zm5.092,0h4.539v-4.539h-4.539Zm5.092,0h4.539v-4.539h-4.539Zm5.092,0h4.539v-4.539h-4.539Zm5.092,0h4.539v-4.539h-4.539Zm5.092,0h4.538v-4.539h-4.538Zm5.092,0h4.538v-4.539H190.9Zm5.092,0h4.539v-4.539h-4.539Zm5.092,0h4.539v-4.539h-4.539Zm5.092,0h4.539v-4.539h-4.539Zm-45.829-5.092h4.539V96.752h-4.539Zm5.092,0h4.539V96.752h-4.539Zm5.092,0h4.539V96.752h-4.539Zm5.092,0h4.539V96.752h-4.539Zm5.092,0h4.539V96.752h-4.539Zm5.092,0h4.538V96.752h-4.538Zm5.092,0h4.538V96.752H190.9Zm5.092,0h4.539V96.752h-4.539Zm5.092,0h4.539V96.752h-4.539Zm5.092,0h4.539V96.752h-4.539Z" transform="translate(-145.385 -81.59)" fill="#059485" fill-rule="evenodd"/>
        <path id="Trazado_772518" data-name="Trazado 772518" d="M228.527,260.805c-.828-6.718-8.21-67.131-6.206-69.869,1.687-2.3,8.38-5.4,10.7-6.422-1.266-5.335-2.646-10.267-4.955-13.941a13.15,13.15,0,0,0-10.992-6.546c-.361-.023-.672.336-1.071.8a7.528,7.528,0,0,1-5.936,2.947,1.039,1.039,0,0,1-.169,0,7.522,7.522,0,0,1-5.918-2.945c-.4-.462-.709-.822-1.071-.8a13.15,13.15,0,0,0-10.993,6.546c-2.308,3.674-3.689,8.606-4.955,13.941,2.317,1.023,9.011,4.118,10.7,6.422,2,2.738-5.378,63.151-6.206,69.869,4.7,3.072,11.607,4.609,18.538,4.609s13.837-1.537,18.538-4.609m-4.566-68.667c-1.645,2.247,6.64,68.845,6.663,69.036a1.02,1.02,0,0,1-.425.955c-5.058,3.548-12.647,5.322-20.209,5.322-7.538,0-15.1-1.763-20.159-5.288a1.018,1.018,0,0,1-.475-.99c.024-.191,8.308-66.789,6.663-69.036-1.666-2.275-10.069-5.852-10.606-6.079a1.018,1.018,0,0,1-.628-1.181c1.362-5.824,2.816-11.255,5.412-15.387A15.053,15.053,0,0,1,202.78,162c1.365-.088,1.964.607,2.734,1.5a5.59,5.59,0,0,0,8.952,0c.77-.892,1.369-1.586,2.734-1.5a15.052,15.052,0,0,1,12.584,7.493c2.6,4.132,4.051,9.562,5.413,15.387a1.018,1.018,0,0,1-.6,1.17c-.025.011-8.915,3.743-10.633,6.091" transform="translate(-169.848 -148.919)" fill="#e4dad8" fill-rule="evenodd"/>
        <path id="Trazado_772519" data-name="Trazado 772519" d="M491.783,206.412a.544.544,0,0,0-1.089,0v2.178a.544.544,0,1,0,1.089,0Zm-1.089,23.958a.544.544,0,0,0,1.089,0v-2.178a.544.544,0,0,0-1.089,0Zm0-5.445a.544.544,0,0,0,1.089,0v-2.178a.544.544,0,0,0-1.089,0Zm0-5.445a.544.544,0,1,0,1.089,0V217.3a.544.544,0,0,0-1.089,0Zm0-5.445a.544.544,0,1,0,1.089,0v-2.178a.544.544,0,0,0-1.089,0Zm0-11.217a.544.544,0,1,0,1.089,0V200.64a.544.544,0,0,0-1.089,0Zm0-5.445a.544.544,0,1,0,1.089,0V195.2a.544.544,0,0,0-1.089,0Zm0-5.445a.544.544,0,0,0,1.089,0v-2.178a.544.544,0,0,0-1.089,0Zm0-5.445a.544.544,0,0,0,1.089,0v-2.178a.544.544,0,0,0-1.089,0Zm0-5.445a.544.544,0,0,0,1.089,0v-2.178a.544.544,0,0,0-1.089,0Zm0-5.445a.544.544,0,0,0,1.089,0v-2.178a.544.544,0,0,0-1.089,0Zm0-5.445a.544.544,0,1,0,1.089,0v-2.178a.544.544,0,0,0-1.089,0Zm0-5.445a.544.544,0,1,0,1.089,0v-2.178a.544.544,0,0,0-1.089,0Zm0-5.445a.544.544,0,1,0,1.089,0v-2.178a.544.544,0,0,0-1.089,0Zm0-5.445a.544.544,0,1,0,1.089,0v-2.178a.544.544,0,0,0-1.089,0Zm0-5.445a.544.544,0,1,0,1.089,0v-2.178a.544.544,0,0,0-1.089,0Zm0-5.445a.544.544,0,0,0,1.089,0v-2.178a.544.544,0,0,0-1.089,0Zm0-5.445a.544.544,0,1,0,1.089,0V135.3a.544.544,0,1,0-1.089,0Zm0-5.444a.544.544,0,0,0,1.089,0v-2.178a.544.544,0,0,0-1.089,0Zm0-5.445a.544.544,0,0,0,1.089,0v-2.178a.544.544,0,0,0-1.089,0Zm0-5.445a.544.544,0,0,0,1.089,0v-2.178a.544.544,0,1,0-1.089,0Z" transform="translate(-451.097 -108.866)" fill="#e4dad8" fill-rule="evenodd"/>
        <path id="Trazado_772520" data-name="Trazado 772520" d="M253.583,809.778a.545.545,0,0,0,0-1.089h-2.178a.545.545,0,0,0,0,1.089Zm-45.737-1.089a.545.545,0,0,0,0,1.089h2.178a.545.545,0,0,0,0-1.089Zm5.445,0a.545.545,0,1,0,0,1.089h2.178a.545.545,0,0,0,0-1.089Zm5.445,0a.545.545,0,1,0,0,1.089h2.178a.545.545,0,0,0,0-1.089Zm5.445,0a.545.545,0,1,0,0,1.089h2.178a.545.545,0,0,0,0-1.089Zm5.444,0a.545.545,0,1,0,0,1.089H231.8a.545.545,0,0,0,0-1.089Zm5.445,0a.545.545,0,1,0,0,1.089h2.178a.545.545,0,0,0,0-1.089Zm5.445,0a.545.545,0,1,0,0,1.089h2.178a.545.545,0,0,0,0-1.089Zm5.445,0a.545.545,0,1,0,0,1.089h2.178a.545.545,0,0,0,0-1.089Z" transform="translate(-190.574 -743.431)" fill="#e4dad8" fill-rule="evenodd"/>
        <path id="Trazado_772521" data-name="Trazado 772521" d="M253.583,357.927a.545.545,0,0,0,0-1.089h-2.178a.545.545,0,0,0,0,1.089Zm-45.737-1.089a.545.545,0,0,0,0,1.089h2.178a.545.545,0,0,0,0-1.089Zm5.445,0a.545.545,0,0,0,0,1.089h2.178a.545.545,0,0,0,0-1.089Zm5.445,0a.545.545,0,1,0,0,1.089h2.178a.545.545,0,0,0,0-1.089Zm5.445,0a.545.545,0,1,0,0,1.089h2.178a.545.545,0,0,0,0-1.089Zm5.444,0a.545.545,0,1,0,0,1.089H231.8a.545.545,0,0,0,0-1.089Zm5.445,0a.545.545,0,1,0,0,1.089h2.178a.545.545,0,0,0,0-1.089Zm5.445,0a.545.545,0,1,0,0,1.089h2.178a.545.545,0,0,0,0-1.089Zm5.445,0a.545.545,0,1,0,0,1.089h2.178a.545.545,0,0,0,0-1.089Z" transform="translate(-190.574 -328.043)" fill="#e4dad8" fill-rule="evenodd"/>
        <path id="Trazado_772522" data-name="Trazado 772522" d="M253.583,1279.9a.544.544,0,0,0,0-1.089h-2.178a.544.544,0,0,0,0,1.089Zm-45.737-1.089a.544.544,0,0,0,0,1.089h2.178a.544.544,0,0,0,0-1.089Zm5.445,0a.544.544,0,0,0,0,1.089h2.178a.544.544,0,0,0,0-1.089Zm5.445,0a.544.544,0,0,0,0,1.089h2.178a.544.544,0,0,0,0-1.089Zm5.445,0a.544.544,0,1,0,0,1.089h2.178a.544.544,0,0,0,0-1.089Zm5.444,0a.544.544,0,1,0,0,1.089H231.8a.544.544,0,0,0,0-1.089Zm5.445,0a.544.544,0,1,0,0,1.089h2.178a.544.544,0,0,0,0-1.089Zm5.445,0a.544.544,0,1,0,0,1.089h2.178a.544.544,0,0,0,0-1.089Zm5.445,0a.544.544,0,0,0,0,1.089h2.178a.544.544,0,0,0,0-1.089Z" transform="translate(-190.574 -1175.62)" fill="#e4dad8" fill-rule="evenodd"/>
        <rect id="Rectángulo_355801" data-name="Rectángulo 355801" width="90.274" height="77.685" transform="translate(238.085 163.072)" fill="#e4dad8"/>
        <path id="Trazado_772523" data-name="Trazado 772523" d="M2977.5,2047.838a1.835,1.835,0,1,0-1.835-1.835,1.839,1.839,0,0,0,1.835,1.835" transform="translate(-2735.539 -1879.212)" fill="#a39691" fill-rule="evenodd"/>
        <path id="Trazado_772524" data-name="Trazado 772524" d="M4000.195,2047.838a1.835,1.835,0,1,0-1.835-1.835,1.838,1.838,0,0,0,1.835,1.835" transform="translate(-3675.708 -1879.212)" fill="#a39691" fill-rule="evenodd"/>
        <path id="Trazado_772525" data-name="Trazado 772525" d="M2977.5,2918.347a1.835,1.835,0,1,0-1.835-1.835,1.839,1.839,0,0,0,1.835,1.835" transform="translate(-2735.539 -2679.474)" fill="#a39691" fill-rule="evenodd"/>
        <path id="Trazado_772526" data-name="Trazado 772526" d="M4000.195,2918.347a1.835,1.835,0,1,0-1.835-1.835,1.839,1.839,0,0,0,1.835,1.835" transform="translate(-3675.708 -2679.474)" fill="#a39691" fill-rule="evenodd"/>
        <rect id="Rectángulo_355802" data-name="Rectángulo 355802" width="77.275" height="66.499" transform="translate(244.585 168.665)" fill="#055f63"/>
        <path id="Trazado_772527" data-name="Trazado 772527" d="M3075.3,2090.137h.446v66.5h-.446Zm69.671,0h.445v66.5h-.445Zm-4.1,0h.445v66.5h-.445Zm-4.1,0h.445v66.5h-.445Zm-4.1,0h.445v66.5h-.445Zm-4.1,0h.445v66.5h-.445Zm-4.1,0h.445v66.5h-.445Zm-4.1,0h.445v66.5h-.445Zm-4.1,0h.445v66.5h-.445Zm-4.1,0h.445v66.5h-.445Zm-4.1,0h.445v66.5h-.445Zm-4.1,0h.445v66.5h-.445Zm-4.1,0h.445v66.5h-.445Zm-4.1,0h.445v66.5h-.445Zm-4.1,0h.445v66.5h-.445Zm-4.1,0h.445v66.5h-.445Zm-4.1,0h.445v66.5h-.445Zm-4.1,0h.445v66.5h-.445Z" transform="translate(-2827.136 -1921.471)" fill="#059485" fill-rule="evenodd"/>
        <path id="Trazado_772528" data-name="Trazado 772528" d="M3108.223,2180.427h-77.274v-.445h77.274Zm0-4.1h-77.274v-.445h77.274Zm0-4.1h-77.274v-.445h77.274Zm0-4.1h-77.274v-.445h77.274Zm0-4.1h-77.274v-.445h77.274Zm0-4.1h-77.274v-.445h77.274Zm0-4.1h-77.274v-.445h77.274Zm0-4.1h-77.274v-.445h77.274Zm0-4.1h-77.274v-.445h77.274Zm0-4.1h-77.274v-.445h77.274Zm0-4.1h-77.274V2139h77.274Zm0-4.1h-77.274v-.445h77.274Zm0-4.1h-77.274v-.445h77.274Zm0-4.1h-77.274v-.445h77.274Zm0-4.1h-77.274v-.445h77.274Zm0-4.1h-77.274v-.445h77.274Z" transform="translate(-2786.364 -1947.553)" fill="#059485" fill-rule="evenodd"/>
        <path id="Trazado_772529" data-name="Trazado 772529" d="M3107.947,2195.335h25.394c.288-2.812,1.744-15.225,5.3-18.237,3.574-3.03,18.791-.807,22.25-.255l.673-18.766c-2.827,2.037-10.678,7-16.053,3.716-5.315-3.25-9.215-15.4-10.459-19.714-1.3,1.928-4.475,4.73-11.078,1.864-7.022-3.047-9.866-4.4-10.737-4.828l-5.944,3.644,4.748,11.01a.626.626,0,0,1-1,.708l-9.662-8.1-3.949,2.421,10.5,46.026a.634.634,0,0,1,.016.137Zm25.959,1.252h-26.585a.626.626,0,0,1-.626-.626v-.932l-10.579-46.364a.625.625,0,0,1,.279-.693l4.688-2.875a.626.626,0,0,1,.753.038l8.009,6.71-3.92-9.089a.626.626,0,0,1,.25-.78l6.691-4.1a.623.623,0,0,1,.622-.028c.007,0,2.237,1.16,10.976,4.952,7.788,3.379,9.978-2.063,10.166-2.576a.625.625,0,0,1,1.209.012c.012.048,4.27,16.792,10.32,20.492,5.891,3.6,15.651-4.4,15.68-4.423a.624.624,0,0,1,1.017.506l-.744,20.748a.632.632,0,0,1-.009.123.625.625,0,0,1-.721.511c-.052-.009-18.349-3.18-21.936-.14-3.489,2.959-4.823,16.931-4.912,17.91a.626.626,0,0,1-.626.625m-22.867-42.109a.616.616,0,0,1-.152-.215Z" transform="translate(-2846.253 -1965.267)" fill="#e4dad8" fill-rule="evenodd"/>
        <path id="Trazado_772530" data-name="Trazado 772530" d="M3377.416,2106.171a.438.438,0,0,0-.876,0v1.753a.438.438,0,1,0,.876,0Zm-.876,63.1a.438.438,0,1,0,.876,0v-1.753a.438.438,0,0,0-.876,0Zm0-4.382a.438.438,0,1,0,.876,0v-1.753a.438.438,0,0,0-.876,0Zm0-4.383a.438.438,0,1,0,.876,0v-1.753a.438.438,0,0,0-.876,0Zm0-4.382a.438.438,0,1,0,.876,0v-1.753a.438.438,0,0,0-.876,0Zm0-4.382a.438.438,0,1,0,.876,0v-1.753a.438.438,0,0,0-.876,0Zm0-4.382a.438.438,0,1,0,.876,0v-1.753a.438.438,0,0,0-.876,0Zm0-4.382a.438.438,0,1,0,.876,0v-1.753a.438.438,0,0,0-.876,0Zm0-4.382a.438.438,0,1,0,.876,0v-1.753a.438.438,0,0,0-.876,0Zm0-4.382a.438.438,0,1,0,.876,0v-1.753a.438.438,0,0,0-.876,0Zm0-4.382a.438.438,0,1,0,.876,0v-1.752a.438.438,0,0,0-.876,0Zm0-4.382a.438.438,0,1,0,.876,0V2123.7a.438.438,0,0,0-.876,0Zm0-4.382a.438.438,0,1,0,.876,0v-1.753a.438.438,0,0,0-.876,0Zm0-4.382a.438.438,0,1,0,.876,0v-1.753a.438.438,0,0,0-.876,0Zm0-4.382a.438.438,0,1,0,.876,0v-1.753a.438.438,0,0,0-.876,0Z" transform="translate(-3104.066 -1935.809)" fill="#e4dad8" fill-rule="evenodd"/>
        <path id="Trazado_772531" data-name="Trazado 772531" d="M3632.968,2106.171a.438.438,0,0,0-.876,0v1.753a.438.438,0,1,0,.876,0Zm-.876,63.1a.438.438,0,1,0,.876,0v-1.753a.438.438,0,0,0-.876,0Zm0-4.382a.438.438,0,1,0,.876,0v-1.753a.438.438,0,0,0-.876,0Zm0-4.383a.438.438,0,1,0,.876,0v-1.753a.438.438,0,0,0-.876,0Zm0-4.382a.438.438,0,1,0,.876,0v-1.753a.438.438,0,0,0-.876,0Zm0-4.382a.438.438,0,1,0,.876,0v-1.753a.438.438,0,0,0-.876,0Zm0-4.382a.438.438,0,1,0,.876,0v-1.753a.438.438,0,0,0-.876,0Zm0-4.382a.438.438,0,1,0,.876,0v-1.753a.438.438,0,0,0-.876,0Zm0-4.382a.438.438,0,1,0,.876,0v-1.753a.438.438,0,0,0-.876,0Zm0-4.382a.438.438,0,1,0,.876,0v-1.753a.438.438,0,0,0-.876,0Zm0-4.382a.438.438,0,1,0,.876,0v-1.752a.438.438,0,0,0-.876,0Zm0-4.382a.438.438,0,1,0,.876,0V2123.7a.438.438,0,0,0-.876,0Zm0-4.382a.438.438,0,1,0,.876,0v-1.753a.438.438,0,0,0-.876,0Zm0-4.382a.438.438,0,1,0,.876,0v-1.753a.438.438,0,0,0-.876,0Zm0-4.382a.438.438,0,1,0,.876,0v-1.753a.438.438,0,0,0-.876,0Z" transform="translate(-3338.996 -1935.809)" fill="#e4dad8" fill-rule="evenodd"/>
        <path id="Trazado_772532" data-name="Trazado 772532" d="M3059.446,2496.733a.438.438,0,0,0,0,.876h1.753a.438.438,0,1,0,0-.876Zm71.869.876a.438.438,0,1,0,0-.876h-1.753a.438.438,0,0,0,0,.876Zm-4.382,0a.438.438,0,1,0,0-.876h-1.753a.438.438,0,0,0,0,.876Zm-4.382,0a.438.438,0,1,0,0-.876H3120.8a.438.438,0,0,0,0,.876Zm-4.382,0a.438.438,0,1,0,0-.876h-1.753a.438.438,0,0,0,0,.876Zm-4.382,0a.438.438,0,1,0,0-.876h-1.753a.438.438,0,0,0,0,.876Zm-4.382,0a.438.438,0,1,0,0-.876h-1.753a.438.438,0,0,0,0,.876Zm-4.382,0a.438.438,0,1,0,0-.876h-1.753a.438.438,0,0,0,0,.876Zm-4.382,0a.438.438,0,1,0,0-.876h-1.753a.438.438,0,0,0,0,.876Zm-4.382,0a.438.438,0,1,0,0-.876H3094.5a.438.438,0,0,0,0,.876Zm-4.383,0a.438.438,0,1,0,0-.876h-1.753a.438.438,0,0,0,0,.876Zm-4.382,0a.438.438,0,1,0,0-.876h-1.753a.438.438,0,0,0,0,.876Zm-4.382,0a.438.438,0,1,0,0-.876h-1.752a.438.438,0,0,0,0,.876Zm-4.382,0a.438.438,0,1,0,0-.876h-1.753a.438.438,0,0,0,0,.876Zm-4.383,0a.438.438,0,1,0,0-.876h-1.753a.438.438,0,0,0,0,.876Zm-4.382,0a.438.438,0,1,0,0-.876h-1.753a.438.438,0,0,0,0,.876Zm-4.382,0a.438.438,0,1,0,0-.876h-1.753a.438.438,0,0,0,0,.876Z" transform="translate(-2812.158 -2295.257)" fill="#e4dad8" fill-rule="evenodd"/>
        <rect id="Rectángulo_355803" data-name="Rectángulo 355803" width="99.626" height="70.646" transform="translate(233.409)" fill="#e4dad8"/>
        <path id="Trazado_772533" data-name="Trazado 772533" d="M2909.639,24.572a1.669,1.669,0,1,0-1.669-1.669,1.672,1.672,0,0,0,1.669,1.669" transform="translate(-2673.309 -19.522)" fill="#a39691" fill-rule="evenodd"/>
        <path id="Trazado_772534" data-name="Trazado 772534" d="M2909.639,816.2a1.669,1.669,0,1,0-1.669-1.668,1.672,1.672,0,0,0,1.669,1.668" transform="translate(-2673.309 -747.27)" fill="#a39691" fill-rule="evenodd"/>
        <path id="Trazado_772535" data-name="Trazado 772535" d="M4071.835,24.572a1.669,1.669,0,1,0-1.669-1.669,1.672,1.672,0,0,0,1.669,1.669" transform="translate(-3741.72 -19.522)" fill="#a39691" fill-rule="evenodd"/>
        <path id="Trazado_772536" data-name="Trazado 772536" d="M4071.835,816.2a1.669,1.669,0,1,0-1.669-1.668,1.672,1.672,0,0,0,1.669,1.668" transform="translate(-3741.72 -747.27)" fill="#a39691" fill-rule="evenodd"/>
        <rect id="Rectángulo_355804" data-name="Rectángulo 355804" width="89.264" height="60.473" transform="translate(238.589 5.086)" fill="#055f63"/>
        <path id="Trazado_772537" data-name="Trazado 772537" d="M2999.236,63.034h.4v60.473h-.4Zm67.078,0h.405v60.473h-.405Zm14.908,0h.405v60.473h-.405Zm-3.727,0h.4v60.473h-.4Zm-3.727,0h.405v60.473h-.405Zm-3.727,0h.4v60.473h-.4Zm-7.448,0h.4v60.473h-.4Zm-3.727,0h.405v60.473h-.405Zm-3.727,0h.405v60.473h-.405Zm-3.727,0h.4v60.473h-.4Zm-3.727,0h.405v60.473h-.405Zm-3.727,0h.405v60.473h-.405Zm-3.727,0h.4v60.473h-.4Zm-3.727,0h.405v60.473h-.405Zm-3.727,0h.4v60.473h-.4Zm-3.727,0h.405v60.473h-.405Zm-3.727,0h.4v60.473h-.4Zm-3.727,0h.4v60.473h-.4Zm-3.727,0h.405v60.473h-.405Zm-3.727,0h.405v60.473h-.405Zm-3.727,0h.405v60.473h-.405Zm-3.727,0h.405v60.473h-.405Zm-3.727,0h.4v60.473h-.4Z" transform="translate(-2757.21 -57.948)" fill="#059485" fill-rule="evenodd"/>
        <path id="Trazado_772538" data-name="Trazado 772538" d="M3045.9,145.143h-89.264v-.4H3045.9Zm0-3.727h-89.264v-.405H3045.9Zm0-3.727h-89.264v-.4H3045.9Zm0-3.727h-89.264v-.4H3045.9Zm0-3.727h-89.264v-.4H3045.9Zm0-3.727h-89.264V126.1H3045.9Zm0-3.727h-89.264v-.405H3045.9Zm0-3.727h-89.264v-.4H3045.9Zm0-3.727h-89.264v-.4H3045.9Zm0-3.727h-89.264V111.2H3045.9Zm0-3.727h-89.264v-.4H3045.9Zm0-3.727h-89.264v-.4H3045.9Zm0-3.727h-89.264v-.4H3045.9Zm0-3.727h-89.264v-.405H3045.9Zm0-3.727h-89.264v-.4H3045.9Zm0-3.727h-89.264v-.4H3045.9Z" transform="translate(-2718.05 -81.666)" fill="#059485" fill-rule="evenodd"/>
        <path id="Trazado_772539" data-name="Trazado 772539" d="M3264.534,77.616a.4.4,0,0,0-.8,0V79.21a.4.4,0,0,0,.8,0Zm-.8,57.387a.4.4,0,1,0,.8,0v-1.594a.4.4,0,0,0-.8,0Zm0-3.985a.4.4,0,0,0,.8,0v-1.594a.4.4,0,0,0-.8,0Zm0-3.985a.4.4,0,0,0,.8,0v-1.594a.4.4,0,0,0-.8,0Zm0-3.985a.4.4,0,0,0,.8,0v-1.594a.4.4,0,0,0-.8,0Zm0-3.985a.4.4,0,0,0,.8,0v-1.594a.4.4,0,0,0-.8,0Zm0-3.985a.4.4,0,0,0,.8,0v-1.594a.4.4,0,1,0-.8,0Zm0-3.985a.4.4,0,0,0,.8,0V109.5a.4.4,0,1,0-.8,0Zm0-3.985a.4.4,0,0,0,.8,0v-1.594a.4.4,0,0,0-.8,0Zm0-3.985a.4.4,0,1,0,.8,0v-1.594a.4.4,0,0,0-.8,0Zm0-3.985a.4.4,0,0,0,.8,0V97.542a.4.4,0,1,0-.8,0Zm0-3.985a.4.4,0,0,0,.8,0V93.557a.4.4,0,0,0-.8,0Zm0-3.985a.4.4,0,0,0,.8,0V89.571a.4.4,0,0,0-.8,0Zm0-3.985a.4.4,0,0,0,.8,0V85.586a.4.4,0,0,0-.8,0Zm0-3.985a.4.4,0,0,0,.8,0V81.6a.4.4,0,0,0-.8,0Z" transform="translate(-3000.367 -70.986)" fill="#e4dad8" fill-rule="evenodd"/>
        <path id="Trazado_772540" data-name="Trazado 772540" d="M3740.808,77.616a.4.4,0,0,0-.8,0V79.21a.4.4,0,1,0,.8,0Zm-.8,57.387a.4.4,0,1,0,.8,0v-1.594a.4.4,0,0,0-.8,0Zm0-3.985a.4.4,0,1,0,.8,0v-1.594a.4.4,0,0,0-.8,0Zm0-3.985a.4.4,0,1,0,.8,0v-1.594a.4.4,0,0,0-.8,0Zm0-3.985a.4.4,0,1,0,.8,0v-1.594a.4.4,0,0,0-.8,0Zm0-3.985a.4.4,0,1,0,.8,0v-1.594a.4.4,0,0,0-.8,0Zm0-3.985a.4.4,0,1,0,.8,0v-1.594a.4.4,0,1,0-.8,0Zm0-3.985a.4.4,0,1,0,.8,0V109.5a.4.4,0,1,0-.8,0Zm0-3.985a.4.4,0,1,0,.8,0v-1.594a.4.4,0,1,0-.8,0Zm0-3.985a.4.4,0,1,0,.8,0v-1.594a.4.4,0,0,0-.8,0Zm0-3.985a.4.4,0,1,0,.8,0V97.542a.4.4,0,1,0-.8,0Zm0-3.985a.4.4,0,1,0,.8,0V93.557a.4.4,0,0,0-.8,0Zm0-3.985a.4.4,0,1,0,.8,0V89.571a.4.4,0,0,0-.8,0Zm0-3.985a.4.4,0,1,0,.8,0V85.586a.4.4,0,0,0-.8,0Zm0-3.985a.4.4,0,1,0,.8,0V81.6a.4.4,0,0,0-.8,0Z" transform="translate(-3438.207 -70.986)" fill="#e4dad8" fill-rule="evenodd"/>
        <path id="Trazado_772541" data-name="Trazado 772541" d="M2975.285,432.791a.4.4,0,0,0,0,.8h1.594a.4.4,0,0,0,0-.8Zm67.987,0a.4.4,0,0,0,0,.8h1.594a.4.4,0,1,0,0-.8Zm17.535.8a.4.4,0,0,0,0-.8h-1.594a.4.4,0,0,0,0,.8Zm-3.985,0a.4.4,0,0,0,0-.8h-1.594a.4.4,0,0,0,0,.8Zm-3.985,0a.4.4,0,0,0,0-.8h-1.594a.4.4,0,0,0,0,.8Zm-3.985,0a.4.4,0,1,0,0-.8h-1.594a.4.4,0,0,0,0,.8Zm-8.209,0a.4.4,0,1,0,0-.8h-1.594a.4.4,0,0,0,0,.8Zm-3.985,0a.4.4,0,0,0,0-.8h-1.594a.4.4,0,0,0,0,.8Zm-3.985,0a.4.4,0,0,0,0-.8h-1.594a.4.4,0,0,0,0,.8Zm-3.985,0a.4.4,0,0,0,0-.8h-1.594a.4.4,0,0,0,0,.8Zm-3.985,0a.4.4,0,0,0,0-.8h-1.594a.4.4,0,0,0,0,.8Zm-3.985,0a.4.4,0,0,0,0-.8h-1.594a.4.4,0,0,0,0,.8Zm-3.985,0a.4.4,0,1,0,0-.8h-1.594a.4.4,0,0,0,0,.8Zm-3.985,0a.4.4,0,1,0,0-.8h-1.594a.4.4,0,0,0,0,.8Zm-3.985,0a.4.4,0,1,0,0-.8h-1.594a.4.4,0,0,0,0,.8Zm-3.985,0a.4.4,0,1,0,0-.8h-1.594a.4.4,0,0,0,0,.8Zm-3.985,0a.4.4,0,1,0,0-.8H2999.2a.4.4,0,0,0,0,.8Zm-3.985,0a.4.4,0,0,0,0-.8h-1.594a.4.4,0,0,0,0,.8Zm-3.985,0a.4.4,0,1,0,0-.8h-1.594a.4.4,0,0,0,0,.8Zm-3.985,0a.4.4,0,0,0,0-.8h-1.594a.4.4,0,1,0,0,.8Zm-3.985,0a.4.4,0,0,0,0-.8h-1.594a.4.4,0,0,0,0,.8Zm-3.985,0a.4.4,0,0,0,0-.8h-1.594a.4.4,0,1,0,0,.8Z" transform="translate(-2734.825 -397.867)" fill="#e4dad8" fill-rule="evenodd"/>
        <path id="Trazado_772542" data-name="Trazado 772542" d="M3575.274,166.131V115.109a.569.569,0,0,1,.569-.569h4.59a.569.569,0,0,1,.49.279l2.74,4.023v-3.036a.57.57,0,0,1,.569-.569.563.563,0,0,1,.242.054l8.424,3.315a.567.567,0,0,1,.323.322l18.085,46a.568.568,0,0,1-.322.736.562.562,0,0,1-.224.038l-34.9.995a.567.567,0,0,1-.583-.551Zm1.138-50.452v49.869l33.54-.956-17.7-45.018-7.451-2.932v4.046a.569.569,0,0,1-1.039.32l-3.629-5.329Z" transform="translate(-3286.763 -105.297)" fill="#e4dad8" fill-rule="evenodd"/>
        <path id="Trazado_772543" data-name="Trazado 772543" d="M3094.324,161.264c.287-3.8,1.677-22.557,1.248-24.529-.455-2.095-3.912-22.615-4.483-26.007h-9.968a19.12,19.12,0,0,1-.849,5.013,15.493,15.493,0,0,1-2.364,4.613l2.287,5.409a.567.567,0,0,1-.869.669c-.007,0-2.173-1.671-4.223-3.166a19.946,19.946,0,0,1-1.828,1.329q-.948.612-2.032,1.169c2.346,4.357,4.64,8.734,5.606,13.636.978,4.961.588,10.419-2.494,16.849l5.722,1.437c1.58-6.4,4.022-16.942,4.029-16.973a.568.568,0,0,1,1.12.177l-1.02,17.833Zm2.36-24.769c.513,2.363-1.272,25.462-1.277,25.528a.57.57,0,0,1-.7.509l-11.229-2.82a.569.569,0,0,1-.429-.583l.673-11.761c-.843,3.58-1.881,7.947-2.67,11.123l-.005.023a.569.569,0,0,1-.689.414l-6.954-1.747a.674.674,0,0,1-.116-.044.567.567,0,0,1-.254-.76c3.235-6.444,3.669-11.859,2.7-16.759-.972-4.928-3.369-9.38-5.769-13.831l-.011-.022a.568.568,0,0,1,.265-.758,23,23,0,0,0,2.444-1.367,18.54,18.54,0,0,0,2.023-1.5.568.568,0,0,1,.728-.05c.987.715,2.052,1.51,2.909,2.156l-1.581-3.738a.568.568,0,0,1,.071-.581,14.331,14.331,0,0,0,2.38-4.524,18.309,18.309,0,0,0,.812-5.2v-.038a.569.569,0,0,1,.569-.569h11a.57.57,0,0,1,.561.476c.011.069,4.059,24.152,4.553,26.429" transform="translate(-2822.169 -100.747)" fill="#e4dad8" fill-rule="evenodd"/>
      </g>
    </g>
  </g>
</svg>
