<svg id="Grupo_1042827" data-name="Grupo 1042827" xmlns="http://www.w3.org/2000/svg" xmlns:xlink="http://www.w3.org/1999/xlink" width="505" height="346.706" viewBox="0 0 505 346.706">
  <defs>
    <clipPath id="clip-path">
      <rect id="Rectángulo_355728" data-name="Rectángulo 355728" width="505" height="346.706" fill="none"/>
    </clipPath>
    <clipPath id="clip-path-3">
      <rect id="Rectángulo_355702" data-name="Rectángulo 355702" width="82.082" height="72.827" fill="none"/>
    </clipPath>
    <clipPath id="clip-path-4">
      <rect id="Rectángulo_355703" data-name="Rectángulo 355703" width="131.161" height="12.211" fill="none"/>
    </clipPath>
    <clipPath id="clip-path-5">
      <rect id="Rectángulo_355708" data-name="Rectángulo 355708" width="0.688" height="115.652" fill="none"/>
    </clipPath>
    <clipPath id="clip-path-6">
      <rect id="Rectángulo_355709" data-name="Rectángulo 355709" width="118.355" height="0.557" fill="none"/>
    </clipPath>
    <clipPath id="clip-path-7">
      <rect id="Rectángulo_355710" data-name="Rectángulo 355710" width="7.235" height="8.836" fill="none"/>
    </clipPath>
    <clipPath id="clip-path-8">
      <rect id="Rectángulo_355711" data-name="Rectángulo 355711" width="5.857" height="8.576" fill="none"/>
    </clipPath>
    <clipPath id="clip-path-9">
      <rect id="Rectángulo_355712" data-name="Rectángulo 355712" width="3.119" height="3.265" fill="none"/>
    </clipPath>
    <clipPath id="clip-path-10">
      <rect id="Rectángulo_355713" data-name="Rectángulo 355713" width="5.304" height="5.626" fill="none"/>
    </clipPath>
    <clipPath id="clip-path-11">
      <rect id="Rectángulo_355714" data-name="Rectángulo 355714" width="5.045" height="5.726" fill="none"/>
    </clipPath>
    <clipPath id="clip-path-12">
      <rect id="Rectángulo_355715" data-name="Rectángulo 355715" width="5.26" height="6.774" fill="none"/>
    </clipPath>
    <clipPath id="clip-path-13">
      <rect id="Rectángulo_355716" data-name="Rectángulo 355716" width="2.78" height="3.291" fill="none"/>
    </clipPath>
    <clipPath id="clip-path-14">
      <rect id="Rectángulo_355717" data-name="Rectángulo 355717" width="41.562" height="30.526" fill="none"/>
    </clipPath>
    <clipPath id="clip-path-15">
      <rect id="Rectángulo_355719" data-name="Rectángulo 355719" width="6.847" height="22.536" fill="none"/>
    </clipPath>
    <clipPath id="clip-path-16">
      <rect id="Rectángulo_355720" data-name="Rectángulo 355720" width="6.847" height="12.425" fill="none"/>
    </clipPath>
    <clipPath id="clip-path-17">
      <rect id="Rectángulo_355724" data-name="Rectángulo 355724" width="64.187" height="95.548" fill="none"/>
    </clipPath>
    <clipPath id="clip-path-18">
      <rect id="Rectángulo_355721" data-name="Rectángulo 355721" width="9.758" height="25.68" fill="none"/>
    </clipPath>
    <clipPath id="clip-path-19">
      <rect id="Rectángulo_355722" data-name="Rectángulo 355722" width="13.564" height="20.117" fill="none"/>
    </clipPath>
    <clipPath id="clip-path-20">
      <rect id="Rectángulo_355723" data-name="Rectángulo 355723" width="31.346" height="58.534" fill="none"/>
    </clipPath>
    <clipPath id="clip-path-21">
      <path id="Trazado_771636" data-name="Trazado 771636" d="M79.793,135.726s-21.054,2.15-22.378,19.584,7.434,89.734,7.434,89.734l57.39-3.663-5.411-81.95a25.389,25.389,0,0,0-3.967-12.471c-2.2-3.437-4.778-7.333-6.243-7.516l-23.607-6.069Z" transform="translate(-57.278 -133.376)" fill="none"/>
    </clipPath>
    <clipPath id="clip-path-23">
      <path id="Trazado_771651" data-name="Trazado 771651" d="M63.487,142.7c-10.225,6.268-.992,52.218,4.688,58.486L96.87,179.817l-17.856-28.5s-3.619-10.159-10.641-10.16a9.315,9.315,0,0,0-4.886,1.541" transform="translate(-58.894 -141.159)" fill="none"/>
    </clipPath>
  </defs>
  <g id="Grupo_1042826" data-name="Grupo 1042826" clip-path="url(#clip-path)">
    <g id="Grupo_1042817" data-name="Grupo 1042817">
      <g id="Grupo_1042816" data-name="Grupo 1042816" clip-path="url(#clip-path)">
        <path id="Trazado_771497" data-name="Trazado 771497" d="M97.828,141.988s-.533-4.326,3.466-4.955,15.874-4.274,44.874-1.526c0,0,4.766-24.424,4.813-26.571.12-5.587,1.891-12.84,6.215-16.67.354-.314.611,13.857.767,21.417,0,0,3.649,38.069-.8,41.9s-63.759-.549-59.333-13.593" transform="translate(-16.543 -15.64)" fill="#d1744f"/>
        <path id="Trazado_771498" data-name="Trazado 771498" d="M130.433,143.166c-17.789-.416-25.958,1.987-29.139,2.488-4,.629-3.466,4.955-3.466,4.955-2.966,8.744,22.707,13.592,41.3,14.685a216.554,216.554,0,0,1-8.692-22.128" transform="translate(-16.543 -24.261)" fill="#944438"/>
        <path id="Trazado_771499" data-name="Trazado 771499" d="M107.817,137.8s-15.469-2.567-15.019,9.5,30.593,20.25,38.785,18.291l.032-26.063Z" transform="translate(-15.729 -23.321)" fill="#ffe18f"/>
        <path id="Trazado_771500" data-name="Trazado 771500" d="M116.046,137.78c-2.154.734-5.028,1.565-5.866,3.961a4.838,4.838,0,0,0,3.006,6.249c3.273,1.24,6.7-.416,9.994-.7a20.572,20.572,0,0,1,10.543,1.9c.664.314,1.247-.675.58-.991a22,22,0,0,0-8.071-2.094,21.166,21.166,0,0,0-4.276.181c-1.541.221-3.04.669-4.581.891-2.634.382-6.386-.345-6.332-3.719.047-2.928,2.994-3.782,5.308-4.571.7-.237.4-1.345-.3-1.106" transform="translate(-18.627 -23.35)" fill="#fbf3e8"/>
        <path id="Trazado_771501" data-name="Trazado 771501" d="M133.521,166.6c-2.405,2.886-25.942-3.172-28.523-7.1,0,0-.4-13.175.6-13.446,10.218-2.77,27.923,20.548,27.923,20.548" transform="translate(-17.785 -24.719)" fill="#ffc557"/>
        <path id="Trazado_771502" data-name="Trazado 771502" d="M507.476,341.952a118.093,118.093,0,0,1-3.469-45.728c.092-.762-1.1-.755-1.194,0a118.963,118.963,0,0,0,3.511,46.045.6.6,0,0,0,1.152-.317" transform="translate(-85.091 -50.118)" fill="#34755a"/>
        <path id="Trazado_771503" data-name="Trazado 771503" d="M479.008,331.653a17.938,17.938,0,0,1-19.816-10.02,26.2,26.2,0,0,0,11.193,1.012c-11.51-3.412-18.629-14.959-22.528-26.314a97.792,97.792,0,0,1-5.276-33.047l9.339,8.57c-2.991-3.1-6.04-6.288-7.807-10.218s-2.031-8.819.44-12.348a159.5,159.5,0,0,1,26.463,19.573,6.089,6.089,0,0,1,1.9,2.483,6.218,6.218,0,0,1-.285,3.512q-1.875,6.667-3.748,13.333a59.841,59.841,0,0,1,7.134-11.08A81.331,81.331,0,0,1,489,333.558" transform="translate(-75.023 -42.258)" fill="#34755a"/>
        <path id="Trazado_771504" data-name="Trazado 771504" d="M508.583,340.476a51.952,51.952,0,0,1,4.752-23.107c2.558-5.535,7.4-11.251,13.451-10.511,3.511.429,6.357,2.966,8.852,5.475a137.494,137.494,0,0,1,20.642,26.629c2.726,4.585,5.238,9.514,5.567,14.838-9.123-7.628-10.927-22.231-21.223-28.181-.976-.564-2.315-.995-3.142-.228-2.262,2.1,4.434,5.708,2.294,7.934l-8.086-8.38a4.749,4.749,0,0,0-2.12-1.5c-1.433-.357-2.817.654-3.918,1.637a66.728,66.728,0,0,0-13.724,17.089" transform="translate(-86.21 -52.006)" fill="#34755a"/>
        <path id="Trazado_771505" data-name="Trazado 771505" d="M502.243,295.7a72.28,72.28,0,0,1,8.721-32.762,39.212,39.212,0,0,0,1.155,17.649c-.239-7.6-.287-15.841,4.239-21.948a31.386,31.386,0,0,1,7.135-6.457,192.335,192.335,0,0,1,27.569-16.549q-2.978,11.364-5.959,22.728a2.179,2.179,0,0,1-2.708,2l-9.874-.08a19.267,19.267,0,0,0,7.572,3.86c.759.192,1.654.442,1.913,1.182a2.236,2.236,0,0,1-.3,1.641,56.353,56.353,0,0,1-38.455,30.481" transform="translate(-85.138 -39.943)" fill="#34755a"/>
        <g id="Grupo_1042764" data-name="Grupo 1042764" transform="translate(380.134 214.275)" opacity="0.3">
          <g id="Grupo_1042763" data-name="Grupo 1042763">
            <g id="Grupo_1042762" data-name="Grupo 1042762" clip-path="url(#clip-path-3)">
              <path id="Trazado_771506" data-name="Trazado 771506" d="M464.214,267.409a68.883,68.883,0,0,1,.515,14.755c-.032.443.656.44.688,0a69.672,69.672,0,0,0-.54-14.938c-.062-.437-.726-.252-.664.183" transform="translate(-458.825 -259.532)" fill="#fbf3e8"/>
              <path id="Trazado_771507" data-name="Trazado 771507" d="M469.878,271.614q-.761,6.7-1.521,13.408c-.05.439.639.436.688,0q.761-6.7,1.521-13.408c.05-.439-.639-.436-.688,0" transform="translate(-459.528 -260.262)" fill="#fbf3e8"/>
              <path id="Trazado_771508" data-name="Trazado 771508" d="M488.33,331.253a211.553,211.553,0,0,0-22.367-42.377q-3.8-5.557-7.95-10.864c-.272-.349-.757.141-.487.487a210.825,210.825,0,0,1,24.765,40.383q2.893,6.188,5.376,12.554c.159.409.826.231.664-.183" transform="translate(-457.679 -261.382)" fill="#fbf3e8"/>
              <path id="Trazado_771509" data-name="Trazado 771509" d="M522.672,277.08q.708-7.417,1.416-14.833c.042-.441-.647-.438-.689,0l-1.415,14.833c-.042.441.647.438.688,0" transform="translate(-468.618 -258.674)" fill="#fbf3e8"/>
              <path id="Trazado_771510" data-name="Trazado 771510" d="M528.84,257.9a58.266,58.266,0,0,0-3.64,14.908c-.048.44.641.437.688,0a57.639,57.639,0,0,1,3.615-14.725c.161-.413-.5-.591-.664-.183" transform="translate(-469.164 -257.955)" fill="#fbf3e8"/>
              <path id="Trazado_771511" data-name="Trazado 771511" d="M505.777,299.548a58.642,58.642,0,0,1,25.079-26.841c.389-.213.042-.807-.348-.595A59.251,59.251,0,0,0,505.182,299.2c-.184.4.409.75.595.347" transform="translate(-465.765 -260.395)" fill="#fbf3e8"/>
              <path id="Trazado_771512" data-name="Trazado 771512" d="M528.793,316.061l7.77,7.77a.344.344,0,0,0,.487-.487l-7.77-7.77a.344.344,0,0,0-.487.487" transform="translate(-469.756 -267.753)" fill="#fbf3e8"/>
              <path id="Trazado_771513" data-name="Trazado 771513" d="M533.836,315.464a97.231,97.231,0,0,1,18.518,15.924c.3.329.783-.159.487-.488a97.937,97.937,0,0,0-18.658-16.031c-.37-.245-.716.351-.347.595" transform="translate(-470.601 -267.64)" fill="#fbf3e8"/>
              <path id="Trazado_771514" data-name="Trazado 771514" d="M532.244,316.166a6.983,6.983,0,0,0-6.866-.167c-2.529,1.22-4.221,3.641-5.492,6.059a73.105,73.105,0,0,0-6.461,18.356c-.094.432.57.616.664.183a77.616,77.616,0,0,1,5.638-16.671,17.263,17.263,0,0,1,4.456-6.366c2.157-1.719,5.305-2.37,7.714-.8.372.242.718-.353.347-.595" transform="translate(-467.166 -267.703)" fill="#fbf3e8"/>
            </g>
          </g>
        </g>
        <path id="Trazado_771515" data-name="Trazado 771515" d="M512.37,400.316H482.979a16.1,16.1,0,0,1-16.1-16.1V341h61.6v43.213a16.1,16.1,0,0,1-16.1,16.1" transform="translate(-79.143 -57.805)" fill="#944438"/>
        <path id="Trazado_771516" data-name="Trazado 771516" d="M512.37,400.316H482.979a16.1,16.1,0,0,1-16.1-16.1V341" transform="translate(-79.143 -57.805)" fill="#d1744f"/>
        <path id="Trazado_771517" data-name="Trazado 771517" d="M392.123,48.973a22.949,22.949,0,0,0-22.95-22.949l-208.232.135a29.314,29.314,0,0,0-29.3,29.314v260.9A32.129,32.129,0,0,0,163.775,348.5H337.963l55.1-.767Z" transform="translate(-22.316 -4.411)" fill="#fbf3e8"/>
        <path id="Trazado_771518" data-name="Trazado 771518" d="M165.27,410.361c8.6,0,21.063-11.549,21.063-20.148h237.19s-.916,20.148-23.811,20.148Z" transform="translate(-28.016 -66.147)" fill="#944438"/>
        <g id="Grupo_1042767" data-name="Grupo 1042767" transform="translate(167.01 30.12)" style="mix-blend-mode: multiply;isolation: isolate">
          <g id="Grupo_1042766" data-name="Grupo 1042766">
            <g id="Grupo_1042765" data-name="Grupo 1042765" clip-path="url(#clip-path-4)">
              <path id="Trazado_771519" data-name="Trazado 771519" d="M213.31,42.374a6.105,6.105,0,1,0-6.1,6.106,6.1,6.1,0,0,0,6.1-6.106" transform="translate(-201.099 -36.268)" fill="#f7ead7"/>
              <path id="Trazado_771520" data-name="Trazado 771520" d="M285.722,42.374a6.105,6.105,0,1,0-6.1,6.106,6.1,6.1,0,0,0,6.1-6.106" transform="translate(-213.374 -36.268)" fill="#f7ead7"/>
              <path id="Trazado_771521" data-name="Trazado 771521" d="M356.54,42.374a6.105,6.105,0,1,0-6.1,6.106,6.1,6.1,0,0,0,6.1-6.106" transform="translate(-225.379 -36.268)" fill="#f7ead7"/>
            </g>
          </g>
        </g>
        <path id="Trazado_771522" data-name="Trazado 771522" d="M203.439,32.3a19.3,19.3,0,1,0-3.3-10.79" transform="translate(-33.927 -0.375)" fill="none" stroke="#944438" stroke-miterlimit="10" stroke-width="4.421"/>
        <path id="Trazado_771523" data-name="Trazado 771523" d="M275.116,32.3a19.3,19.3,0,1,0-3.3-10.79" transform="translate(-46.078 -0.375)" fill="none" stroke="#944438" stroke-miterlimit="10" stroke-width="4.421"/>
        <path id="Trazado_771524" data-name="Trazado 771524" d="M346.792,32.3a19.3,19.3,0,1,0-3.3-10.79" transform="translate(-58.228 -0.375)" fill="none" stroke="#944438" stroke-miterlimit="10" stroke-width="4.421"/>
        <rect id="Rectángulo_355704" data-name="Rectángulo 355704" width="44.008" height="16.443" transform="translate(292.31 255.723)" fill="#f67d68"/>
        <rect id="Rectángulo_355705" data-name="Rectángulo 355705" width="44.008" height="16.443" transform="translate(292.564 233.961)" fill="#064260"/>
        <path id="Trazado_771525" data-name="Trazado 771525" d="M232.854,176.113H195.8V127.585h48.528v37.05l-11.477,11.477" transform="translate(-33.192 -21.628)" fill="#f67d68"/>
        <path id="Trazado_771526" data-name="Trazado 771526" d="M240.122,183.4c3-4.362.546-11.177.546-11.177l11.177-.027s-8.035,12.889-11.723,11.2" transform="translate(-40.704 -29.19)" fill="#f6ada0"/>
        <rect id="Rectángulo_355706" data-name="Rectángulo 355706" width="22.901" height="8.983" transform="translate(174.277 100.715)" fill="#ffe18f"/>
        <path id="Trazado_771527" data-name="Trazado 771527" d="M202.525,129.369h-37.05V80.841H214v37.05l-11.477,11.477" transform="translate(-28.051 -13.704)" fill="#34755a"/>
        <path id="Trazado_771528" data-name="Trazado 771528" d="M209.792,136.659c3-4.362.545-11.177.545-11.177l11.178-.027s-8.035,12.889-11.723,11.2" transform="translate(-35.563 -21.266)" fill="#659c85"/>
        <rect id="Rectángulo_355707" data-name="Rectángulo 355707" width="22.901" height="8.983" transform="translate(149.089 61.896)" fill="#ffe18f"/>
        <path id="Trazado_771529" data-name="Trazado 771529" d="M314.7,111.321c-24.319,0-28-28-28-28l-9.58,2.948s14.371,65.219-7.123,61.412v45.444h45.444" transform="translate(-45.767 -14.124)" fill="none" stroke="#064260" stroke-miterlimit="10" stroke-width="0.553"/>
        <g id="Grupo_1042770" data-name="Grupo 1042770" transform="translate(269.321 76.956)" opacity="0.49">
          <g id="Grupo_1042769" data-name="Grupo 1042769">
            <g id="Grupo_1042768" data-name="Grupo 1042768" clip-path="url(#clip-path-5)">
              <line id="Línea_844" data-name="Línea 844" y2="2.754" transform="translate(0.345 0.344)" fill="none" stroke="#064260" stroke-linecap="round" stroke-linejoin="round" stroke-width="0.829"/>
              <line id="Línea_845" data-name="Línea 845" y2="100.814" transform="translate(0.345 8.859)" fill="none" stroke="#064260" stroke-linecap="round" stroke-linejoin="round" stroke-width="0.829" stroke-dasharray="6.937 6.937"/>
              <line id="Línea_846" data-name="Línea 846" y2="2.754" transform="translate(0.345 112.553)" fill="none" stroke="#064260" stroke-linecap="round" stroke-linejoin="round" stroke-width="0.829"/>
            </g>
          </g>
        </g>
        <line id="Línea_847" data-name="Línea 847" y1="28.695" transform="translate(248.402 149.986)" fill="none" stroke="#064260" stroke-miterlimit="10" stroke-width="1.334"/>
        <path id="Trazado_771530" data-name="Trazado 771530" d="M194.777,302.905c0-13.19,4.093-15.009,9.551-21.831s5-11.825,5-11.825l79.593,11.825v38.659l-79.593,11.825s.455-5-5-11.825-9.551-8.641-9.551-21.831" transform="translate(-33.018 -45.642)" fill="none" stroke="#064260" stroke-miterlimit="10" stroke-width="0.671"/>
        <g id="Grupo_1042773" data-name="Grupo 1042773" transform="translate(151.475 252.436)" opacity="0.49">
          <g id="Grupo_1042772" data-name="Grupo 1042772">
            <g id="Grupo_1042771" data-name="Grupo 1042771" clip-path="url(#clip-path-6)">
              <line id="Línea_848" data-name="Línea 848" x2="117.798" transform="translate(0.279 0.279)" fill="none" stroke="#064260" stroke-linecap="round" stroke-linejoin="round" stroke-width="0.671" stroke-dasharray="5.368 5.368"/>
            </g>
          </g>
        </g>
        <path id="Trazado_771531" data-name="Trazado 771531" d="M237.535,220.228a22.642,22.642,0,0,1,10.5,30.426c-.321.662.668,1.244.991.58a23.794,23.794,0,0,0-10.916-32c-.66-.325-1.242.664-.579.991" transform="translate(-40.216 -37.153)" fill="#064260"/>
        <path id="Trazado_771532" data-name="Trazado 771532" d="M245.311,246.693a30.379,30.379,0,0,1,2.446,10.729.581.581,0,0,0,.979.405l10.761-8.772c.573-.467-.243-1.275-.811-.811l-10.761,8.772.979.406a31.9,31.9,0,0,0-2.6-11.308c-.292-.676-1.281-.093-.991.579" transform="translate(-41.575 -41.669)" fill="#064260"/>
        <path id="Trazado_771533" data-name="Trazado 771533" d="M261.99,133.764h27.474a.574.574,0,0,0,0-1.148H261.99a.574.574,0,0,0,0,1.148" transform="translate(-44.317 -22.481)" fill="#064260"/>
        <path id="Trazado_771534" data-name="Trazado 771534" d="M290.185,124.647a19.311,19.311,0,0,0,5.962,7.518q-.059-.45-.116-.9a34.925,34.925,0,0,1-5.673,5.406c-.582.439-.011,1.437.579.991a36.2,36.2,0,0,0,5.906-5.586.587.587,0,0,0-.116-.9,18.213,18.213,0,0,1-5.55-7.106c-.3-.674-1.287-.091-.991.579" transform="translate(-49.179 -20.981)" fill="#064260"/>
        <path id="Trazado_771535" data-name="Trazado 771535" d="M329.316,89.635a6.861,6.861,0,1,0-6.861,6.861,6.861,6.861,0,0,0,6.861-6.861" transform="translate(-53.498 -14.031)" fill="#34755a"/>
        <path id="Trazado_771536" data-name="Trazado 771536" d="M180.515,302.032a6.861,6.861,0,1,0-6.861,6.861,6.861,6.861,0,0,0,6.861-6.861" transform="translate(-28.274 -50.036)" fill="#f67d68"/>
        <path id="Trazado_771537" data-name="Trazado 771537" d="M449.938,110.211a14.743,14.743,0,0,0-3.4,6.144,11.074,11.074,0,0,0,.411,6.958" transform="translate(-75.632 -18.683)" fill="none" stroke="#0d294d" stroke-linecap="round" stroke-miterlimit="10" stroke-width="1.105"/>
        <path id="Trazado_771538" data-name="Trazado 771538" d="M487.99,120.274c-.268-3.2-7.142-6.293-5.2-10.245s2.427-4.939-2.38-7.537-2.78-2.4-3.236-8.194-8.115-6.02-8.115-6.02c-5.362-.4-11.024.739-15.3,4-1.561,1.19-4.438,6.263-3.944,8.157,0,0,3.98-.125-.892,7.292s-1.418,11.425.255,12.437l31.177-.573.146-3.56,1.236,3.532Z" transform="translate(-75.676 -14.951)" fill="#0d294d"/>
        <path id="Trazado_771539" data-name="Trazado 771539" d="M452.025,112.859a4.881,4.881,0,1,0,2.364.272" transform="translate(-75.906 -19.131)" fill="none" stroke="#34755a" stroke-miterlimit="10" stroke-width="1.105"/>
        <path id="Trazado_771540" data-name="Trazado 771540" d="M452.943,112.611a.509.509,0,1,0-.438.571A.51.51,0,0,0,452.943,112.611Z" transform="translate(-76.609 -19.014)" fill="none" stroke="#34755a" stroke-miterlimit="10" stroke-width="1.105"/>
        <path id="Trazado_771541" data-name="Trazado 771541" d="M469.736,105.143a.456.456,0,0,0,.514.408c1.072-.146,3.518-.7,4.238,2.059.728,2.791-1.765,4.745-3.38,5.048-.466.087-1.537.326-1.81.715-.838,1.193-.991,3.579-1.361,6.577a8.3,8.3,0,0,0,4.6,8.883S456.852,139.291,455.917,131c0,0-.681-15.381-.769-15.449-1.482-1.136-6.641-1.028-4.874-12.289,1.637-10.432,9.1-10.689,11.014-10.6,1.617.072,7.148-.308,8.449,12.48" transform="translate(-76.267 -15.706)" fill="#f79354"/>
        <path id="Trazado_771542" data-name="Trazado 771542" d="M477.418,111.616s-2.155-3.334-3.667,1.714" transform="translate(-80.308 -18.737)" fill="#d96c21"/>
        <path id="Trazado_771543" data-name="Trazado 771543" d="M462.1,109.186a2.542,2.542,0,1,0,2.8,2.251,2.541,2.541,0,0,0-2.8-2.251" transform="translate(-77.949 -18.506)" fill="#f78737"/>
        <path id="Trazado_771544" data-name="Trazado 771544" d="M450.032,111.019a2.543,2.543,0,0,0,.23-4.754,12.4,12.4,0,0,0-.23,4.754" transform="translate(-76.259 -18.014)" fill="#f78737"/>
        <path id="Trazado_771545" data-name="Trazado 771545" d="M452.413,110.089l4.094,1.407s-1.7,1.615-2.813,1-1.281-2.408-1.281-2.408" transform="translate(-76.691 -18.662)" fill="#fff"/>
        <path id="Trazado_771546" data-name="Trazado 771546" d="M455.622,106.32l-.246,2.823-1.413-.414a.357.357,0,0,1-.152-.6Z" transform="translate(-76.91 -18.023)" fill="#f67216"/>
        <path id="Trazado_771547" data-name="Trazado 771547" d="M460.842,103.909c.394.422-.012-1.178-.61-1.479a1.137,1.137,0,0,0-1.552.388,3.551,3.551,0,0,1,2.162,1.091" transform="translate(-77.753 -17.338)"/>
        <path id="Trazado_771548" data-name="Trazado 771548" d="M452.094,101.864c-.531.228.485-1.074,1.153-1.11a1.137,1.137,0,0,1,1.266.978,3.558,3.558,0,0,0-2.418.131" transform="translate(-76.612 -17.079)"/>
        <path id="Trazado_771549" data-name="Trazado 771549" d="M458.751,106.82c-.125.483-.416.826-.65.767s-.324-.5-.2-.986.415-.826.65-.766.323.5.2.985" transform="translate(-77.612 -17.939)"/>
        <path id="Trazado_771550" data-name="Trazado 771550" d="M454.205,105.354c-.12.462-.4.79-.621.732s-.309-.479-.19-.941.4-.789.621-.732.309.479.19.941" transform="translate(-76.848 -17.698)"/>
        <path id="Trazado_771551" data-name="Trazado 771551" d="M456.217,120.189a40.655,40.655,0,0,0,7.3-.192c2.4-.475-5.888,8.041-7.3.192" transform="translate(-77.336 -20.338)" fill="#d96c21"/>
        <path id="Trazado_771552" data-name="Trazado 771552" d="M479.962,90.736c1.689,1.405,3.473,3.259,3.187,5.438a9.875,9.875,0,0,0-.442,2.579,2.95,2.95,0,0,0,1.762,2.079,24.659,24.659,0,0,0,2.691.892c2.747.954,5.088,3.847,4.289,6.643a12.05,12.05,0,0,0-.928,2.871,5.032,5.032,0,0,0,1.61,3.181l4.2,4.855" transform="translate(-81.361 -15.381)" fill="none" stroke="#0d294d" stroke-linecap="round" stroke-miterlimit="10" stroke-width="1.105"/>
        <path id="Trazado_771553" data-name="Trazado 771553" d="M456.5,91.865s-1.46,5.273,2.375,4,4.622-2.3,6.643,2.511.807,7.283,7.082,5.839c0,0,3.464-25.09-16.1-12.347" transform="translate(-77.337 -14.961)" fill="#0d294d"/>
        <path id="Trazado_771554" data-name="Trazado 771554" d="M448.451,104.49l.544.111a.545.545,0,0,0,.642-.424l.023-.114a.544.544,0,0,0-.424-.641l-.544-.111Z" transform="translate(-76.02 -17.513)"/>
        <path id="Trazado_771555" data-name="Trazado 771555" d="M448.451,104.49l.544.111a.545.545,0,0,0,.642-.424l.023-.114a.544.544,0,0,0-.424-.641l-.544-.111Z" transform="translate(-76.02 -17.513)" fill="none" stroke="#000" stroke-miterlimit="10" stroke-width="0.323"/>
        <g id="Grupo_1042776" data-name="Grupo 1042776" transform="translate(379.031 84.485)" opacity="0.27">
          <g id="Grupo_1042775" data-name="Grupo 1042775">
            <g id="Grupo_1042774" data-name="Grupo 1042774" clip-path="url(#clip-path-7)">
              <path id="Trazado_771556" data-name="Trazado 771556" d="M456.509,105.432c-.492,2.407.68,4.679,2.616,5.074s3.9-1.236,4.395-3.643-.68-4.679-2.616-5.074-3.9,1.237-4.395,3.643" transform="translate(-456.397 -101.73)" fill="#fff"/>
            </g>
          </g>
        </g>
        <path id="Trazado_771557" data-name="Trazado 771557" d="M456.509,105.432c-.492,2.407.68,4.679,2.616,5.074s3.9-1.236,4.395-3.643-.68-4.679-2.616-5.074S457,103.026,456.509,105.432Z" transform="translate(-77.367 -17.245)" fill="none" stroke="#34755a" stroke-miterlimit="10" stroke-width="0.367"/>
        <path id="Trazado_771558" data-name="Trazado 771558" d="M448.278,103.63c-.479,2.347.385,4.5,1.929,4.82s3.186-1.331,3.664-3.678-.385-4.5-1.929-4.82S448.757,101.283,448.278,103.63Z" transform="translate(-75.968 -16.937)" fill="none" stroke="#000" stroke-miterlimit="10" stroke-width="0.323"/>
        <path id="Trazado_771559" data-name="Trazado 771559" d="M448.278,103.63c-.479,2.347.385,4.5,1.929,4.82s3.186-1.331,3.664-3.678-.385-4.5-1.929-4.82S448.757,101.283,448.278,103.63Z" transform="translate(-75.968 -16.937)" fill="none" stroke="#000" stroke-miterlimit="10" stroke-width="0.323"/>
        <g id="Grupo_1042779" data-name="Grupo 1042779" transform="translate(372.178 82.976)" opacity="0.27">
          <g id="Grupo_1042778" data-name="Grupo 1042778">
            <g id="Grupo_1042777" data-name="Grupo 1042777" clip-path="url(#clip-path-8)">
              <path id="Trazado_771560" data-name="Trazado 771560" d="M448.278,103.63c-.479,2.347.385,4.5,1.929,4.82s3.186-1.331,3.664-3.678-.385-4.5-1.929-4.82-3.185,1.331-3.664,3.678" transform="translate(-448.146 -99.913)" fill="#fff"/>
            </g>
          </g>
        </g>
        <g id="Grupo_1042782" data-name="Grupo 1042782" transform="translate(383.089 84.49)" opacity="0.27">
          <g id="Grupo_1042781" data-name="Grupo 1042781">
            <g id="Grupo_1042780" data-name="Grupo 1042780" clip-path="url(#clip-path-9)">
              <path id="Trazado_771561" data-name="Trazado 771561" d="M461.284,101.736a2.851,2.851,0,0,1,.448.055A3.633,3.633,0,0,1,464.4,105c-1.084-1.046-2.114-2.144-3.119-3.265" transform="translate(-461.284 -101.736)" fill="#fff"/>
            </g>
          </g>
        </g>
        <g id="Grupo_1042785" data-name="Grupo 1042785" transform="translate(380.761 84.995)" opacity="0.27">
          <g id="Grupo_1042784" data-name="Grupo 1042784">
            <g id="Grupo_1042783" data-name="Grupo 1042783" clip-path="url(#clip-path-10)">
              <path id="Trazado_771562" data-name="Trazado 771562" d="M458.481,102.7a3.929,3.929,0,0,1,.483-.357,61.555,61.555,0,0,0,4.822,4.987,5.221,5.221,0,0,1-.224.639q-2.57-2.6-5.08-5.269" transform="translate(-458.481 -102.344)" fill="#fff"/>
            </g>
          </g>
        </g>
        <g id="Grupo_1042788" data-name="Grupo 1042788" transform="translate(379.031 87.594)" opacity="0.27">
          <g id="Grupo_1042787" data-name="Grupo 1042787">
            <g id="Grupo_1042786" data-name="Grupo 1042786" clip-path="url(#clip-path-11)">
              <path id="Trazado_771563" data-name="Trazado 771563" d="M461.442,110.676a3.142,3.142,0,0,1-2.317.465c-1.936-.4-3.107-2.668-2.616-5.074a5.636,5.636,0,0,1,.157-.593c1.553,1.77,3.137,3.512,4.776,5.2" transform="translate(-456.397 -105.474)" fill="#fff"/>
            </g>
          </g>
        </g>
        <g id="Grupo_1042791" data-name="Grupo 1042791" transform="translate(372.178 84.549)" opacity="0.27">
          <g id="Grupo_1042790" data-name="Grupo 1042790">
            <g id="Grupo_1042789" data-name="Grupo 1042789" clip-path="url(#clip-path-12)">
              <path id="Trazado_771564" data-name="Trazado 771564" d="M451.541,108.581c-1.09-1.105-2.232-2.158-3.393-3.187a6.361,6.361,0,0,1,.13-1.443,6.049,6.049,0,0,1,.875-2.143,31.951,31.951,0,0,0,4.255,4.7,4.225,4.225,0,0,1-1.866,2.072" transform="translate(-448.146 -101.807)" fill="#fff"/>
            </g>
          </g>
        </g>
        <g id="Grupo_1042794" data-name="Grupo 1042794" transform="translate(375.248 82.976)" opacity="0.27">
          <g id="Grupo_1042793" data-name="Grupo 1042793">
            <g id="Grupo_1042792" data-name="Grupo 1042792" clip-path="url(#clip-path-13)">
              <path id="Trazado_771565" data-name="Trazado 771565" d="M451.843,99.943a1.953,1.953,0,0,1,.725.009c1.19.243,1.975,1.58,2.055,3.253q-1.379-1.641-2.78-3.262" transform="translate(-451.843 -99.913)" fill="#fff"/>
            </g>
          </g>
        </g>
        <path id="Trazado_771566" data-name="Trazado 771566" d="M448.278,103.63c-.479,2.347.385,4.5,1.929,4.82s3.186-1.331,3.664-3.678-.385-4.5-1.929-4.82S448.757,101.283,448.278,103.63Z" transform="translate(-75.968 -16.937)" fill="none" stroke="#34755a" stroke-miterlimit="10" stroke-width="0.323"/>
        <path id="Trazado_771567" data-name="Trazado 771567" d="M456.2,106.552s-.279-2.033-1.282-.262" transform="translate(-77.116 -17.895)" fill="none" stroke="#34755a" stroke-miterlimit="10" stroke-width="0.367"/>
        <path id="Trazado_771568" data-name="Trazado 771568" d="M465,107.868l.544.111a.545.545,0,0,0,.642-.424l.023-.114a.544.544,0,0,0-.424-.641l-.544-.111Z" transform="translate(-78.824 -18.085)" fill="#34755a"/>
        <path id="Trazado_771569" data-name="Trazado 771569" d="M465,107.868l.544.111a.545.545,0,0,0,.642-.424l.023-.114a.544.544,0,0,0-.424-.641l-.544-.111Z" transform="translate(-78.824 -18.085)" fill="none" stroke="#34755a" stroke-miterlimit="10" stroke-width="0.323"/>
        <line id="Línea_849" data-name="Línea 849" x1="7.582" y1="0.546" transform="translate(386.307 89.195)" fill="none" stroke="#34755a" stroke-miterlimit="10" stroke-width="0.323"/>
        <path id="Trazado_771570" data-name="Trazado 771570" d="M475.594,113.518a4.883,4.883,0,1,0,2.364.272" transform="translate(-79.901 -19.243)" fill="none" stroke="#34755a" stroke-miterlimit="10" stroke-width="1.105"/>
        <path id="Trazado_771571" data-name="Trazado 771571" d="M476.511,113.271a.509.509,0,1,0-.438.571A.509.509,0,0,0,476.511,113.271Z" transform="translate(-80.604 -19.126)" fill="none" stroke="#34755a" stroke-miterlimit="10" stroke-width="1.105"/>
        <path id="Trazado_771572" data-name="Trazado 771572" d="M540.321,411.1c0-1.6-22.577-2.9-50.426-2.9s-50.427,1.3-50.427,2.9,22.577,2.9,50.427,2.9,50.426-1.3,50.426-2.9" transform="translate(-74.497 -69.197)" fill="#064260"/>
        <path id="Trazado_771573" data-name="Trazado 771573" d="M458.637,377.169l-2.976,22.386a26.029,26.029,0,0,1,1.374,6.41c-2.96,2.033-13.1,1.619-14.424,0a22.058,22.058,0,0,0,4.579-7.021l-3.2-22.182Z" transform="translate(-75.029 -63.867)" fill="#d96c21"/>
        <path id="Trazado_771574" data-name="Trazado 771574" d="M453.27,381.555l3.892,26.558s.859.673,1.679-1.069c.492-1.045-.153-1.831-1.3-6.028l2.366-19.69Z" transform="translate(-76.836 -64.641)" fill="#f78737"/>
        <path id="Trazado_771575" data-name="Trazado 771575" d="M508.467,376.762l6.817,20.452s-.916,7.429-1.12,7.937c-.722,1.8,7.429-8.242,7.429-8.242l.712-19.741Z" transform="translate(-86.193 -63.867)" fill="#d96c21"/>
        <path id="Trazado_771576" data-name="Trazado 771576" d="M516.8,376.762l3.942,24.17s7.01,4.825,7.557,3.3c.228-.633-4.164-5.748-5.068-7.376l.49-19.691Z" transform="translate(-87.605 -63.867)" fill="#f78737"/>
        <path id="Trazado_771577" data-name="Trazado 771577" d="M432.737,411.555c-.534.4-.153,1.065.611,1.072l15.423.125c.371,0,7.4-.386,7.672-.571.029-.019-.763-2.938-.763-2.938l-7,1.756s-2.725-6.368-3.2-6.792c-.325-.286-12.736,7.348-12.736,7.348" transform="translate(-73.314 -68.518)" fill="#ffe18f"/>
        <path id="Trazado_771578" data-name="Trazado 771578" d="M528.9,408.933a1.936,1.936,0,0,1-.865,2.8c-1.855,1.1-4.888,2.764-4.888,2.764s-5.037-1.587-6.949-2.42c-1.282-.559-2.286-1.379-2.128-2.451l.223-1.438c.019-.123,3.359-5.7,3.359-5.7l4.884-.61Z" transform="translate(-87.141 -68.125)" fill="#ffe18f"/>
        <path id="Trazado_771579" data-name="Trazado 771579" d="M477.537,188.921c4.789,8.468,7.322,14.67,10.074,25.436,3.192,12.486,33.478,108.384,39.99,131.991-3.934.948-35.131-.226-37.617-.364-7.91-22.665-23.6-86.427-26.989-100.705-.522-2.195-2.816-1.7-2.552.536,1.925,16.306,10.99,78.962,10.99,102.975-2.064,1.051-34.655,1.113-37.039.815-2.591-27.967-8.331-127.053,12.433-161.372,9.495-1.31,21.082.4,30.71.688" transform="translate(-73.173 -31.826)" fill="#064260"/>
        <path id="Trazado_771580" data-name="Trazado 771580" d="M449.124,192.809s-11.231,21.476-11.231,51.016,2.442,106.638,2.442,106.638" transform="translate(-74.23 -32.684)" fill="none" stroke="#fff" stroke-miterlimit="10" stroke-width="0.446"/>
        <line id="Línea_850" data-name="Línea 850" x1="45.077" y1="156.599" transform="translate(399.582 157.516)" fill="none" stroke="#fff" stroke-miterlimit="10" stroke-width="0.446"/>
        <path id="Trazado_771581" data-name="Trazado 771581" d="M473.547,189.178s.774,29.936,12.918,27.8" transform="translate(-80.274 -32.069)" fill="none" stroke="#fff" stroke-miterlimit="10" stroke-width="0.446"/>
        <g id="Grupo_1042797" data-name="Grupo 1042797" transform="translate(372.368 154.362)" opacity="0.21" style="mix-blend-mode: multiply;isolation: isolate">
          <g id="Grupo_1042796" data-name="Grupo 1042796">
            <g id="Grupo_1042795" data-name="Grupo 1042795" clip-path="url(#clip-path-14)">
              <path id="Trazado_771582" data-name="Trazado 771582" d="M448.374,188.724,489.936,216.4s-2.442-16.281-10.99-30.526Z" transform="translate(-448.374 -185.87)"/>
            </g>
          </g>
        </g>
        <path id="Trazado_771583" data-name="Trazado 771583" d="M440.343,219.25c12.144,2.134,13.051-24.948,13.051-24.948" transform="translate(-74.645 -32.937)" fill="none" stroke="#fff" stroke-miterlimit="10" stroke-width="0.446"/>
        <path id="Trazado_771584" data-name="Trazado 771584" d="M377.43,176.77c8.746-.27,14.586-.259,15.4-.2l28.194-.617-.085-.072s1.423-.007,2.425-.083a1.111,1.111,0,0,0,1-.85c2.7-11.412,8.177-41.49,17.989-39.037.141.036,3.451.52,3.1.964-3.212,4.048-9.071,23.935-9.071,23.935-.068.3-.058,1.634-.051,3.557,3.454,19.8-.677,21.33-.677,21.33a9.445,9.445,0,0,1-2.081.916l-.045.062-.041-.034c-12.59,3.912-49.016-4.593-49.016-4.593-2.967-.8-9.58-5.2-7.043-5.283" transform="translate(-63.884 -23.016)" fill="#f79354"/>
        <path id="Trazado_771585" data-name="Trazado 771585" d="M453.36,135.916c-4.872-1.217-8.671,5.579-11.6,14.128,1.947,3.7,3.867,7.407,5.582,11.212a2.876,2.876,0,0,1,.039-.441s5.859-19.887,9.071-23.935c.353-.444-2.957-.928-3.1-.964" transform="translate(-74.886 -23.016)" fill="#d96c21"/>
        <path id="Trazado_771586" data-name="Trazado 771586" d="M440.723,192.91a16.214,16.214,0,0,0-.056,2.8,21.012,21.012,0,0,0,3.633-.732l.04.035c.016-.02.03-.042.045-.062a9.428,9.428,0,0,0,2.081-.917s2.225-.836,2.04-9.117c-3.946.346-7.351,4.3-7.783,8" transform="translate(-74.694 -31.346)" fill="#d96c21"/>
        <path id="Trazado_771587" data-name="Trazado 771587" d="M449.375,148.626,439,143.741s5.189-9.158,14.958-8.243" transform="translate(-74.417 -22.958)" fill="#34755a"/>
        <path id="Trazado_771588" data-name="Trazado 771588" d="M391.292,184.16s-6.616-4.189-6.891-3.174c-.544,1.995,4.951,4.094,4.26,4.715,0,0,1.595-.989,2.631-1.541" transform="translate(-65.155 -30.653)" fill="#fcb6a3"/>
        <path id="Trazado_771589" data-name="Trazado 771589" d="M453.548,134.543c.277.67-10.06,20.78-9.731,27.354.332,6.623,2.452,9.808,2.1,10.8,0,0,4.618,4.465,32.968,0,.408-6.919,9.159-21.979-2.035-33.986-1.229-1.917-6.761-6-9.565-7.122,0,0-2.555,6.269-13.737,2.951" transform="translate(-75.233 -22.307)" fill="#34755a"/>
        <path id="Trazado_771590" data-name="Trazado 771590" d="M479.569,186.969l2.138-8.533s.2.407-4.07,1.424-5.494-4.07-8.954-2.239,0,4.681-4.884,4.274-6.512-7.326-9.768-5.291-10.379,1.221-10.379,1.221l5.209,8.456Z" transform="translate(-75.206 -29.874)" fill="#064260"/>
        <line id="Línea_851" data-name="Línea 851" x2="30.71" y2="0.688" transform="translate(373.654 156.407)" fill="none" stroke="#fff" stroke-miterlimit="10" stroke-width="0.446"/>
        <path id="Trazado_771591" data-name="Trazado 771591" d="M422.232,175.2c-3.647,0-8.78-1.7-14.377-8.74l4.312-3.428c3.678,4.628,7.5,6.99,10.727,6.625,2.434-.267,4.625-2.051,6.009-4.895.665-1.369,1.359-2.823,2.078-4.328,5.382-11.28,8.939-31.921,17.487-31.107l.2,4.783c-6.411,2.238-7.905,18.606-12.719,28.695-.725,1.52-1.424,2.986-2.1,4.368-2.229,4.581-6,7.482-10.359,7.96a11.7,11.7,0,0,1-1.263.068" transform="translate(-69.138 -21.918)" fill="#ffe18f"/>
        <path id="Trazado_771592" data-name="Trazado 771592" d="M467.94,125.774c-1.237,3.1-.669,5.132-1.5,8.387a4.464,4.464,0,0,1-1.082,2.021,42.991,42.991,0,0,1-4.732,8.328c-.321.481-.64.959-.955,1.438-7.364,11.182-11.252,21.417-11.888,31.292-.817,12.691,4.26,24.576,13.25,31.015l3.207-4.478c-7.457-5.342-11.658-15.375-10.961-26.183.572-8.9,4.167-18.257,10.99-28.617.309-.47.622-.938.937-1.41,2.746-4.114,5.586-8.368,6.418-13.551.587-3.66-1.772-5.661-3.685-8.243" transform="translate(-75.892 -21.321)" fill="#ffe18f"/>
        <path id="Trazado_771593" data-name="Trazado 771593" d="M424.645,159.618s25.019,32.259,30.9,28.109c0,0,30.527-37.446,17.095-47.417-7.977-5.923-13.635,17.705-21.572,31.137-.242.411-20.66-17.755-20.66-17.755s-9.639-12.743-10.31-12.015c-.974,1.056,2.76,6.738,2.76,6.738a1.918,1.918,0,0,1-.974.974,2.307,2.307,0,0,0-1.38,1.786c-.243.974-1.218,1.542-1.38,2.11s3.464,4.844,5.52,6.332" transform="translate(-71.047 -23.626)" fill="#f79354"/>
        <path id="Trazado_771594" data-name="Trazado 771594" d="M482.341,159.024c3.178-7.792,4.126-15.078-.771-18.713-3.589-2.664-6.707.659-9.775,6.334q5.418,6.068,10.545,12.379" transform="translate(-79.977 -23.627)" fill="#d96c21"/>
        <path id="Trazado_771595" data-name="Trazado 771595" d="M457.241,193.046a14.487,14.487,0,0,0-1.162,1.907c2.471,1.657,4.513,2.364,5.733,1.5,0,0,1.2-1.467,3.006-3.892-2.626-1.972-5.223-2.7-7.577.483" transform="translate(-77.313 -32.355)" fill="#d96c21"/>
        <path id="Trazado_771596" data-name="Trazado 771596" d="M469.627,149.074,491,155.382s-3.937-13.02-9.972-16.89c-5.393-3.46-5.9-1.832-5.9-1.832Z" transform="translate(-79.609 -23.101)" fill="#34755a"/>
        <rect id="Rectángulo_355718" data-name="Rectángulo 355718" width="6.847" height="134.316" transform="translate(300.372 208.393)" fill="#165c80"/>
        <g id="Grupo_1042800" data-name="Grupo 1042800" transform="translate(300.372 208.393)" style="mix-blend-mode: multiply;isolation: isolate">
          <g id="Grupo_1042799" data-name="Grupo 1042799">
            <g id="Grupo_1042798" data-name="Grupo 1042798" clip-path="url(#clip-path-15)">
              <path id="Trazado_771597" data-name="Trazado 771597" d="M368.53,255.756V250.93h-6.846v22.535q3.31-8.9,6.846-17.709" transform="translate(-361.683 -250.93)" fill="#064260"/>
            </g>
          </g>
        </g>
        <g id="Grupo_1042803" data-name="Grupo 1042803" transform="translate(300.372 330.283)" style="mix-blend-mode: multiply;isolation: isolate">
          <g id="Grupo_1042802" data-name="Grupo 1042802">
            <g id="Grupo_1042801" data-name="Grupo 1042801" clip-path="url(#clip-path-16)">
              <path id="Trazado_771598" data-name="Trazado 771598" d="M361.683,397.7v12.426h6.846V399.888q-3.412-1.13-6.846-2.187" transform="translate(-361.683 -397.7)" fill="#064260"/>
            </g>
          </g>
        </g>
        <path id="Trazado_771599" data-name="Trazado 771599" d="M379.533,412.435h-35a9.084,9.084,0,0,1,9.085-9.085h16.834a9.085,9.085,0,0,1,9.085,9.085" transform="translate(-58.403 -68.374)" fill="#f67d68"/>
        <path id="Trazado_771600" data-name="Trazado 771600" d="M381.373,188.75A15.241,15.241,0,0,1,379.88,178c2.248-9.972,7.953-24.331,7.953-24.331a12.629,12.629,0,0,0-7.584-15.247l-7.116-2.754c-1.7-.657-5.148-2.289-5.148-4.108v-8.546H348.04v8.546c0,1.82-3.525,3.451-5.222,4.108l-7.116,2.754a12.629,12.629,0,0,0-7.583,15.247s5.705,14.362,7.953,24.334a15.562,15.562,0,0,1-1.534,10.841c-11.411,21.059-14.923,44.473-14.923,44.473h76.723s-.9-19.227-14.964-44.567" transform="translate(-54.18 -20.853)" fill="#064260"/>
        <g id="Grupo_1042815" data-name="Grupo 1042815" transform="translate(265.434 116.916)" opacity="0.45">
          <g id="Grupo_1042814" data-name="Grupo 1042814">
            <g id="Grupo_1042813" data-name="Grupo 1042813" clip-path="url(#clip-path-17)">
              <g id="Grupo_1042806" data-name="Grupo 1042806" transform="translate(8.017)" style="mix-blend-mode: multiply;isolation: isolate">
                <g id="Grupo_1042805" data-name="Grupo 1042805">
                  <g id="Grupo_1042804" data-name="Grupo 1042804" clip-path="url(#clip-path-18)">
                    <path id="Trazado_771601" data-name="Trazado 771601" d="M333.36,166.461a37.062,37.062,0,0,1-.448-7.3c.239-6.009,2.392-11.469,5.2-16.713q.45-.84.91-1.668l-1.687.653a12.629,12.629,0,0,0-7.584,15.247s1.7,4.277,3.607,9.781" transform="translate(-329.266 -140.781)" fill="#064260"/>
                  </g>
                </g>
              </g>
              <g id="Grupo_1042809" data-name="Grupo 1042809" transform="translate(50.623 35.429)" style="mix-blend-mode: multiply;isolation: isolate">
                <g id="Grupo_1042808" data-name="Grupo 1042808">
                  <g id="Grupo_1042807" data-name="Grupo 1042807" clip-path="url(#clip-path-19)">
                    <path id="Trazado_771602" data-name="Trazado 771602" d="M391.452,183.442c-6.236,3.655-13.947,9.366-9.625,15.357,2.364,3.277,7.455,4.311,12.306,4.759q-1.144-2.246-2.427-4.565a15.234,15.234,0,0,1-1.492-10.75c.342-1.521.768-3.145,1.239-4.8" transform="translate(-380.569 -183.442)" fill="#064260"/>
                  </g>
                </g>
              </g>
              <g id="Grupo_1042812" data-name="Grupo 1042812" transform="translate(0 37.014)" style="mix-blend-mode: multiply;isolation: isolate">
                <g id="Grupo_1042811" data-name="Grupo 1042811">
                  <g id="Grupo_1042810" data-name="Grupo 1042810" clip-path="url(#clip-path-20)">
                    <path id="Trazado_771603" data-name="Trazado 771603" d="M340.619,234.761a28.458,28.458,0,0,1-5.608-20.2c.7-7.17,3.823-12.613,7.753-17.987a46.027,46.027,0,0,1-7.494-11.226c.3,1.106.568,2.187.8,3.22a15.558,15.558,0,0,1-1.535,10.841c-11.41,21.059-14.923,44.473-14.923,44.473h31.346a37.9,37.9,0,0,1-10.34-9.123" transform="translate(-319.613 -185.35)" fill="#064260"/>
                  </g>
                </g>
              </g>
            </g>
          </g>
        </g>
        <path id="Trazado_771604" data-name="Trazado 771604" d="M379.022,134.532s-2.07,5.118-6.526,6.91l-5.773,8.642.495,36.342,21.979.2,3.053-20.148s-10.99-2.849-6.715-28.694Z" transform="translate(-62.165 -22.805)" fill="#f67d68"/>
        <path id="Trazado_771605" data-name="Trazado 771605" d="M374.137,151.41l-1.642-8.556-5.773,8.642Z" transform="translate(-62.165 -24.216)" fill="#f6ada0"/>
        <line id="Línea_852" data-name="Línea 852" x1="2.559" y2="8.727" transform="translate(317.452 104.452)" fill="none" stroke="#064260" stroke-linecap="round" stroke-miterlimit="10" stroke-width="0.553"/>
        <path id="Trazado_771606" data-name="Trazado 771606" d="M386.3,125.523a1.222,1.222,0,1,0-1.221,1.221,1.221,1.221,0,0,0,1.221-1.221" transform="translate(-65.07 -21.071)" fill="#f67d68"/>
        <line id="Línea_853" data-name="Línea 853" x1="9.076" y1="0.576" transform="translate(328.182 146.002)" fill="none" stroke="#064260" stroke-linecap="round" stroke-miterlimit="10" stroke-width="0.553"/>
        <path id="Trazado_771607" data-name="Trazado 771607" d="M406.118,177.439a1.221,1.221,0,1,0-1.46-.923,1.222,1.222,0,0,0,1.46.923" transform="translate(-68.591 -29.67)" fill="#f67d68"/>
        <line id="Línea_854" data-name="Línea 854" x1="4.52" y2="7.891" transform="translate(322.053 107.809)" fill="none" stroke="#064260" stroke-linecap="round" stroke-miterlimit="10" stroke-width="0.553"/>
        <path id="Trazado_771608" data-name="Trazado 771608" d="M394.171,129.851a1.221,1.221,0,1,0-1.472.9,1.221,1.221,0,0,0,1.472-.9" transform="translate(-66.41 -21.757)" fill="#ffe18f"/>
        <path id="Trazado_771609" data-name="Trazado 771609" d="M529.854,223.6a4.243,4.243,0,1,0-4.243,4.243A4.243,4.243,0,0,0,529.854,223.6Z" transform="translate(-88.38 -37.184)" fill="none" stroke="#34755a" stroke-miterlimit="10" stroke-width="1.105"/>
        <path id="Trazado_771610" data-name="Trazado 771610" d="M61.111,314.33a4.243,4.243,0,1,0-4.243,4.243A4.243,4.243,0,0,0,61.111,314.33Z" transform="translate(-8.921 -52.565)" fill="none" stroke="#34755a" stroke-miterlimit="10" stroke-width="1.105"/>
        <path id="Trazado_771611" data-name="Trazado 771611" d="M549.223,201.1a6.411,6.411,0,1,0-6.411,6.411,6.411,6.411,0,0,0,6.411-6.411" transform="translate(-90.929 -33.003)" fill="#fbf3e8"/>
        <path id="Trazado_771612" data-name="Trazado 771612" d="M174.846,9.256a4.579,4.579,0,1,0-4.579,4.579,4.579,4.579,0,0,0,4.579-4.579" transform="translate(-28.087 -0.793)" fill="#fbf3e8"/>
        <path id="Trazado_771613" data-name="Trazado 771613" d="M605.088,371.836a7.326,7.326,0,1,0-7.326,7.327,7.327,7.327,0,0,0,7.326-7.327" transform="translate(-100.088 -61.79)" fill="#fbf3e8"/>
        <path id="Trazado_771614" data-name="Trazado 771614" d="M47.348,293.665a8.242,8.242,0,1,0-8.242,8.242,8.242,8.242,0,0,0,8.242-8.242" transform="translate(-5.232 -48.384)" fill="#fbf3e8"/>
        <path id="Trazado_771615" data-name="Trazado 771615" d="M115.414,412.8c0-1.834-25.836-3.32-57.707-3.32S0,410.966,0,412.8s25.836,3.32,57.707,3.32,57.707-1.487,57.707-3.32" transform="translate(0 -69.413)" fill="#064260"/>
        <path id="Trazado_771616" data-name="Trazado 771616" d="M125.945,399.636l-.2-10.99-10.583.815.267,10.56,4.948,8.585,8.907-6.867Z" transform="translate(-19.521 -65.882)" fill="#d1744f"/>
        <path id="Trazado_771617" data-name="Trazado 771617" d="M124.928,388.892l-8.14,17.3s1.571-2.712-1.627-5.578v-11.72Z" transform="translate(-19.521 -65.923)" fill="#944438"/>
        <path id="Trazado_771618" data-name="Trazado 771618" d="M127.212,400.9a49.852,49.852,0,0,1-6.385,5.877c-2.143,1.625-5.333-5.3-6.324-6.17-.2-.176-.476-.018-.511.295l-1.245,11.338h31.339a.726.726,0,0,0,.66-.859c-1.661-8.42-17.535-10.481-17.535-10.481" transform="translate(-19.112 -67.896)" fill="#ffc557"/>
        <path id="Trazado_771619" data-name="Trazado 771619" d="M131.1,410.872s1.221-5.8,5.343-6.868c0,0,6.486,2.137,8.012,7.021H113.164" transform="translate(-19.183 -68.485)" fill="none" stroke="#fff" stroke-miterlimit="10" stroke-width="0.553"/>
        <line id="Línea_855" data-name="Línea 855" x2="6.487" y2="7.097" transform="translate(94.668 335.366)" fill="none" stroke="#fff" stroke-miterlimit="10" stroke-width="0.553"/>
        <path id="Trazado_771620" data-name="Trazado 771620" d="M65.46,401.351l3.256-10.583-11.4-.407-2.442,11.193,4.217,7.342L68,402.029Z" transform="translate(-9.303 -66.172)" fill="#d1744f"/>
        <path id="Trazado_771621" data-name="Trazado 771621" d="M66.066,390.769,56.7,403.793s.145.424-3.053-2.442l3.663-10.99Z" transform="translate(-9.095 -66.173)" fill="#944438"/>
        <path id="Trazado_771622" data-name="Trazado 771622" d="M66.475,402.57a49.783,49.783,0,0,1-6.385,5.876c-2.143,1.625-5.333-5.3-6.324-6.17-.2-.176-.476-.018-.511.295L52.01,413.91H83.349a.726.726,0,0,0,.66-.859c-1.661-8.42-17.535-10.481-17.535-10.481" transform="translate(-8.817 -68.18)" fill="#ffc557"/>
        <path id="Trazado_771623" data-name="Trazado 771623" d="M70.361,412.546s1.221-5.8,5.342-6.868c0,0,6.487,2.137,8.013,7.021H52.427" transform="translate(-8.887 -68.769)" fill="none" stroke="#fff" stroke-miterlimit="10" stroke-width="0.553"/>
        <line id="Línea_856" data-name="Línea 856" x2="6.487" y2="7.097" transform="translate(44.227 336.756)" fill="none" stroke="#fff" stroke-miterlimit="10" stroke-width="0.553"/>
        <path id="Trazado_771624" data-name="Trazado 771624" d="M119.514,237.11s4.03,48.21,4.408,61.531-3.043,65.335-3.043,65.335l-13.469-.043S93.149,272.018,76.865,239.892Z" transform="translate(-13.03 -40.194)" fill="#053142"/>
        <path id="Trazado_771625" data-name="Trazado 771625" d="M119.163,360.2l-2.137-61.052-9.463-35.716" transform="translate(-18.234 -44.655)" fill="none" stroke="#fff" stroke-miterlimit="10" stroke-width="0.446"/>
        <path id="Trazado_771626" data-name="Trazado 771626" d="M111.295,388.37l15.568-.306.916-8.852H109.768Z" transform="translate(-18.607 -64.283)" fill="#2a7396"/>
        <path id="Trazado_771627" data-name="Trazado 771627" d="M115.963,237.11s-9.32,40.188-18.785,68.62c-7.649,22.976-27.913,59.264-27.913,59.264L55.721,364.4l14.395-57.988a57.213,57.213,0,0,0,1.64-10.471c.84-13.351-1.9-40.329-3.052-57.616Z" transform="translate(-9.446 -40.194)" fill="#064260"/>
        <path id="Trazado_771628" data-name="Trazado 771628" d="M64.556,361.124c-.306-.916,18.621-55.863,18.621-62.884s-.306-31.137-.306-31.137" transform="translate(-10.943 -45.278)" fill="none" stroke="#fff" stroke-miterlimit="10" stroke-width="0.446"/>
        <path id="Trazado_771629" data-name="Trazado 771629" d="M53.9,388.495l15.06.713,5.088-8.344-18.927-.916Z" transform="translate(-9.136 -64.407)" fill="#2a7396"/>
        <path id="Trazado_771630" data-name="Trazado 771630" d="M79.792,135.726s-21.053,2.15-22.378,19.584,7.435,89.734,7.435,89.734l57.389-3.663-5.41-81.95a25.389,25.389,0,0,0-3.967-12.471c-2.2-3.437-4.779-7.333-6.243-7.516l-23.607-6.069Z" transform="translate(-9.709 -22.609)" fill="#ffe18f"/>
        <path id="Trazado_771631" data-name="Trazado 771631" d="M74.923,138.453c-14.042,2.137-16.846,9-17.509,17.718-1.325,17.434,7.435,89.123,7.435,89.123l56.779-3.053" transform="translate(-9.709 -23.47)" fill="#ffc557"/>
      </g>
    </g>
    <g id="Grupo_1042819" data-name="Grupo 1042819" transform="translate(47.569 110.767)">
      <g id="Grupo_1042818" data-name="Grupo 1042818" clip-path="url(#clip-path-21)">
        <path id="Trazado_771632" data-name="Trazado 771632" d="M90.287,140.263c1.969,6.362,4.538,12.863,8.314,18.387a24.173,24.173,0,0,0,5.768,6.12,19.55,19.55,0,0,0,8.8,3.116c3.42.527,7.822,1.295,9.3,4.936.274.675,1.384.38,1.107-.306-2.6-6.416-10.767-4.855-15.959-7.194-5.612-2.528-9-8.223-11.572-13.539a84.235,84.235,0,0,1-4.642-11.825c-.218-.7-1.325-.4-1.106.3" transform="translate(-62.869 -134.424)" fill="#fbf3e8"/>
        <path id="Trazado_771633" data-name="Trazado 771633" d="M58.737,226.859c4.082-.494,9.047-.971,12.649,1.451,4.28,2.878,3.337,8.473,4.941,12.748,1.536,4.1,5.3,6.218,9.09,7.907a63.8,63.8,0,0,1,6.048,2.845,22.979,22.979,0,0,1,5.419,4.373A23.8,23.8,0,0,1,103.1,270.6c.048.732,1.2.738,1.148,0a24.845,24.845,0,0,0-4.882-13.2,26.749,26.749,0,0,0-11.051-8.409c-4.074-1.8-8.981-3.543-10.795-8.012-1.773-4.372-.787-9.8-4.8-13.1-3.806-3.13-9.411-2.721-13.984-2.168-.724.088-.732,1.237,0,1.148" transform="translate(-57.433 -148.963)" fill="#fbf3e8"/>
        <path id="Trazado_771634" data-name="Trazado 771634" d="M126.918,254.947c-6.921-2.642-13.939-6.565-18.231-12.8a20.56,20.56,0,0,1-2.587-5.014,1.846,1.846,0,0,1,.093-1.905,4.6,4.6,0,0,1,1.108-.839,18.83,18.83,0,0,1,3-1.438,31.647,31.647,0,0,0,5.139-2.273c1.76-1.09,3.017-2.79,4.756-3.9a10.3,10.3,0,0,1,11.742.669c.569.462,1.386-.345.811-.811a11.5,11.5,0,0,0-10.874-1.921,14.974,14.974,0,0,0-5.224,3.58,18.719,18.719,0,0,1-6.19,3.363c-1.745.677-4.18,1.436-5.309,3.035s.223,3.914.987,5.419a27.493,27.493,0,0,0,7.922,9.181,49.336,49.336,0,0,0,12.549,6.752c.69.264.989-.845.306-1.106" transform="translate(-65.321 -148.758)" fill="#fbf3e8"/>
        <path id="Trazado_771635" data-name="Trazado 771635" d="M119.264,184.057A15.325,15.325,0,0,0,106.7,194.281c-2.062,6.107-.538,12.794-2.581,18.9a12.486,12.486,0,0,1-12.348,8.364,11.81,11.81,0,0,1-7.062-2.4c-2.351-1.85-3.8-4.6-6.2-6.407-2.462-1.854-5.548-2.077-8.522-2.2-3.042-.123-6.474-.088-8.723-2.468-.508-.537-1.318.275-.811.811,3.989,4.221,10.467,1.821,15.386,3.673,3.032,1.141,4.689,4.082,6.848,6.3a12.468,12.468,0,0,0,6.409,3.53,14.426,14.426,0,0,0,13.444-4.142c4.216-4.7,3.716-11.484,4.14-17.343.272-3.759,1.007-7.561,3.442-10.56a14.2,14.2,0,0,1,9.141-5.135c.723-.092.732-1.241,0-1.148" transform="translate(-57.789 -141.966)" fill="#fbf3e8"/>
      </g>
    </g>
    <g id="Grupo_1042821" data-name="Grupo 1042821">
      <g id="Grupo_1042820" data-name="Grupo 1042820" clip-path="url(#clip-path)">
        <path id="Trazado_771637" data-name="Trazado 771637" d="M91.113,116.819l-6.155,16.414,4.578,2.29c7.022,2.594,13.367.955,14.357-1.955l-.947-9.794L93.1,114.86a9.636,9.636,0,0,0-1.7,1.469,2.2,2.2,0,0,1-.284.49" transform="translate(-14.402 -19.471)" fill="#d1744f"/>
        <path id="Trazado_771638" data-name="Trazado 771638" d="M94.534,114.86l9.846,8.913.326,3.507s-8.242,1.984-11.295-11.142" transform="translate(-15.835 -19.471)" fill="#944438"/>
        <path id="Trazado_771639" data-name="Trazado 771639" d="M124.957,198.1l11.736-36.825a7.315,7.315,0,0,1,4.043-4.518l24.029-10.379a.909.909,0,0,1,1.193,1.154L154.1,183.6a7.323,7.323,0,0,1-3.833,4.368l-24.091,11.257a.908.908,0,0,1-1.219-1.134" transform="translate(-21.174 -24.8)" fill="#f67d68"/>
        <path id="Trazado_771640" data-name="Trazado 771640" d="M127.386,200.692l10.695-36.175c.651-2.041,3.166-4.34,5.083-5.168l24.029-10.379a.909.909,0,0,1,1.193,1.153L156.529,186.2a7.323,7.323,0,0,1-3.833,4.368l-24.091,11.258a.908.908,0,0,1-1.219-1.134" transform="translate(-21.586 -25.24)" fill="#34755a"/>
        <path id="Trazado_771641" data-name="Trazado 771641" d="M133.688,180.341l9.319,1.347-11.176,4.528Z" transform="translate(-22.347 -30.571)" fill="#020f2b"/>
        <path id="Trazado_771642" data-name="Trazado 771642" d="M133.688,180.341l9.319,1.347-11.176,4.528Z" transform="translate(-22.347 -30.571)" fill="none" stroke="#1d254a" stroke-miterlimit="10" stroke-width="0"/>
        <path id="Trazado_771643" data-name="Trazado 771643" d="M135.563,198.636l21.064-10.161-1.449,4.66L133.7,203.72Z" transform="translate(-22.664 -31.95)" fill="#fbf3e8"/>
        <path id="Trazado_771644" data-name="Trazado 771644" d="M124.9,192.2c-1.3,1.166-15.42,19.139-27.779,28.542-3.407,2.593-9.178-.768-11.295-4.426L66.645,185.452l18.61-14.44c.132.205,7.81,20.255,12.167,26.839,1.559,2.356.84,2.118,3.052.763l16.79-13.127a14.27,14.27,0,0,0,1.645-2.844c.718-2.134,4.123-5,4.123-5l-1.474,4.528c-.266.763.234.823,1.506-.042l8.5-5.7s2-.855,1.069.2-4.156,4.076-4.274,4.172c-2.108,1.715,5.542-3.9,5.671-3.109s-4.2,4.505-4.094,4.585,4.831-3.336,4.986-2.594-4.02,3.917-4.172,3.968c-.293.1,3.305-2.789,3.409-2.391s-8.517,10.271-9.26,10.938" transform="translate(-11.297 -28.989)" fill="#d1744f"/>
        <path id="Trazado_771645" data-name="Trazado 771645" d="M90.911,184.737c-3-6.915-5.579-13.606-5.656-13.724L66.645,185.452l12.174,19.6c3.895-6.852,7.864-13.661,12.092-20.312" transform="translate(-11.297 -28.989)" fill="#944438"/>
        <path id="Trazado_771646" data-name="Trazado 771646" d="M98.578,224.906c-2.119-.86-6.994-1.451-8.213,1.216,2.426,3.324,7.612,6.041,10.772,3.637.478-.364.96-.744,1.443-1.133a7.406,7.406,0,0,0-4-3.72" transform="translate(-15.318 -38.002)" fill="#944438"/>
        <path id="Trazado_771647" data-name="Trazado 771647" d="M79.014,151.318s-5.3-14.887-15.528-8.619-.992,52.218,4.689,58.485L96.87,179.816Z" transform="translate(-9.983 -23.929)" fill="#ffe18f"/>
      </g>
    </g>
    <g id="Grupo_1042823" data-name="Grupo 1042823" transform="translate(48.91 117.23)">
      <g id="Grupo_1042822" data-name="Grupo 1042822" clip-path="url(#clip-path-23)">
        <path id="Trazado_771648" data-name="Trazado 771648" d="M71.789,141.137c2.2,7.081,3.108,14.756,1.314,22.033A26.03,26.03,0,0,1,62.761,178.5a20.281,20.281,0,0,1-9.589,3.535c-.73.066-.737,1.213,0,1.147A23.2,23.2,0,0,0,69.161,174c4.427-5.69,6.211-12.885,6.023-20.018a48.8,48.8,0,0,0-2.29-13.149c-.218-.7-1.326-.4-1.106.3" transform="translate(-57.831 -141.036)" fill="#fbf3e8"/>
        <path id="Trazado_771649" data-name="Trazado 771649" d="M86.91,164.668a19.874,19.874,0,0,0-3.273,3.289,9.208,9.208,0,0,0-2.1,3.809c-.391,2.324,1.722,3.745,3.088,5.248,2.665,2.934-.086,5.91-1.965,8.356a9.541,9.541,0,0,0,1.98,13.854c.611.418,1.186-.576.579-.991A8.517,8.517,0,0,1,81.71,190.3c.426-3.711,3.941-5.66,4.977-9.082a4.755,4.755,0,0,0-.527-4.11,30.78,30.78,0,0,0-2.62-2.829,3.217,3.217,0,0,1-.9-1.778,4.615,4.615,0,0,1,1.117-2.766,19.013,19.013,0,0,1,3.965-4.255c.577-.461-.24-1.268-.811-.811" transform="translate(-62.56 -145.121)" fill="#fbf3e8"/>
        <path id="Trazado_771650" data-name="Trazado 771650" d="M64.723,200.675a3.658,3.658,0,0,1,3.118-1.175,3.906,3.906,0,0,1,2.567,1.575c1.346,1.73,1.834,3.974,2.977,5.827.388.628,1.38.051.991-.579-1.29-2.09-1.789-4.7-3.541-6.5a4.776,4.776,0,0,0-6.924.039c-.5.546.313,1.359.811.811" transform="translate(-59.718 -150.855)" fill="#fbf3e8"/>
      </g>
    </g>
    <g id="Grupo_1042825" data-name="Grupo 1042825">
      <g id="Grupo_1042824" data-name="Grupo 1042824" clip-path="url(#clip-path)">
        <path id="Trazado_771652" data-name="Trazado 771652" d="M111.729,93.148c2.488-3.5-.108-4.2.512-5.725a7.151,7.151,0,0,0,.643-3.12,3.368,3.368,0,0,0-1.5-2.7,3.43,3.43,0,0,0-3.3.1A8,8,0,0,0,105.6,84.07c-.462-1.628-.582-3.335-2.864-3.867-4.23-.791-4.524,2.6-5.35,3.686-.61-2.951-3.154-3.256-5-2.738a4.791,4.791,0,0,0-3.362,2.887c-.517,1.48-3.089-1.42-3.7,4.38-.151,1.432,3.053,4.884,3.053,4.884s.61,7.174.763,13.279c.02.8,3.2,1.374,3.2,1.374A164.2,164.2,0,0,1,107.913,95.9s3.135-1.789,3.816-2.747" transform="translate(-14.463 -13.576)" fill="#0d294d"/>
        <path id="Trazado_771653" data-name="Trazado 771653" d="M92.835,108.219a.451.451,0,0,1-.741.174c-.8-.787-2.4-1.866-2.97,1.268-.778,4.255,3.662,3.523,4.017,4.1.718,1.162,3.019,5.065,6.45,6.58a6.784,6.784,0,0,0,7.473-1.123c2.284-2.193,3.544.393,2.585-23.051a2.241,2.241,0,0,1-2.789,1.454c-1.56-.314-2.786-1.625-4.5-2.1-1.391-.389-5.218-1.35-6.866,3.491-.757,2.224-1.962,7.37-2.66,9.214" transform="translate(-15.093 -16.133)" fill="#d1744f"/>
        <path id="Trazado_771654" data-name="Trazado 771654" d="M112.51,115.372s-1.377.686-4.744.37c0,0,1.81,2.453,3.137,1.978s1.607-2.348,1.607-2.348" transform="translate(-18.268 -19.557)" fill="#fff"/>
        <path id="Trazado_771655" data-name="Trazado 771655" d="M89.944,112.076l2.345,1.768s-.875-4.276-2.345-1.768" transform="translate(-15.247 -18.865)" fill="#944438"/>
        <path id="Trazado_771656" data-name="Trazado 771656" d="M109.982,109.2c0,.512-.2.928-.453.928s-.453-.415-.453-.928.2-.927.453-.927.453.414.453.927" transform="translate(-18.49 -18.353)" fill="#020f2b"/>
        <path id="Trazado_771657" data-name="Trazado 771657" d="M113.532,108.651c0,.512-.2.928-.453.928s-.453-.415-.453-.928.2-.927.453-.927.453.414.453.927" transform="translate(-19.092 -18.261)" fill="#020f2b"/>
        <path id="Trazado_771658" data-name="Trazado 771658" d="M105.535,104.176c-.672.468.379-1.652,1.291-1.888a1.594,1.594,0,0,1,2.013,1.033,4.907,4.907,0,0,0-3.3.855" transform="translate(-17.854 -17.329)" fill="#020f2b"/>
        <path id="Trazado_771659" data-name="Trazado 771659" d="M113.547,104.043a4.928,4.928,0,0,0-1.653.045,1.668,1.668,0,0,1,1.67-1.32" transform="translate(-18.968 -17.421)" fill="#020f2b"/>
        <path id="Trazado_771660" data-name="Trazado 771660" d="M111.959,108.795l1.38,3.928a.1.1,0,0,1-.081.138l-1.63.124a.1.1,0,0,1-.1-.109l.249-4.051a.093.093,0,0,1,.181-.03" transform="translate(-18.906 -18.431)" fill="#944438"/>
      </g>
    </g>
  </g>
</svg>
